<?xml version="1.0" encoding="utf-8"?>
<!-- Generator: Adobe Illustrator 20.1.0, SVG Export Plug-In . SVG Version: 6.00 Build 0)  -->
<svg version="1.1" id="Layer_1" xmlns="http://www.w3.org/2000/svg" xmlns:xlink="http://www.w3.org/1999/xlink" x="0px" y="0px"
	 viewBox="0 0 76.9 115.4" style="enable-background:new 0 0 76.9 115.4;" xml:space="preserve">
<style type="text/css">
	.st0{fill:#A90533;}
</style>
<g>
	<g>
		<path class="st0" d="M65.7,11.3C58.4,4,48.7,0,38.5,0C17.3,0,0,17.3,0,38.5V77c0,5.2,1,10.3,3,15c6.6-1.5,14.8-8.9,20.4-14.8
			c1.1-1.2,2.2-2.3,3.3-3.4c-6-1.7-8.7-3.9-12.5-7.7c-0.1-0.1-0.2-0.2-0.3-0.3c0.1-3.5,1.4-6.8,3.9-9.3c2.5-2.5,5.9-3.9,9.5-3.9
			c3.6,0,7,1.4,9.5,3.9c2.1,2.1,3.4,4.7,3.8,7.6c-3.9,3-7.8,6.5-11.7,10.4c0,0,0,0.1,0,0.1c-1.3,1.3-2.6,2.7-4,4.1
			c-5.7,6-14,13.5-21,15.3c1.8,3.8,4.3,7.3,7.4,10.3c7.3,7.3,16.9,11.3,27.2,11.3c10.3,0,19.9-4,27.2-11.3
			c7.3-7.3,11.3-16.9,11.3-27.2V38.5C76.9,28.2,72.9,18.5,65.7,11.3z M26.2,3.9c0.6,0.9,1.4,1.5,2.4,1.8c0.9,2,4.9,7.7,8.1,12.2
			c-0.6,0.5-1,1.1-1,1.9c0,0.2,0,0.4,0,0.4c0,0-0.1,0.2-0.3,0.3c-0.1,0.1-0.2,0.1-0.4,0.2c-0.5,0.1-1.1,0.2-2,1.1
			c-0.5,0.5-0.8,1.2-0.8,2.1c0,1.4,0.7,3,1.5,4.2c-5.6-1.9-10.8-3.2-15.6-4.3c0.1-0.6,0-1.2-0.4-1.7c-0.4-0.8-1-1.3-1.7-1.6
			c0.5-0.4,0.8-0.9,0.7-1.1c-0.3-0.5-1.2-1.1-2.3-1.5c0.5-0.6,0.9-1.2,1.1-2c0.4-1.2,0.2-3.8-1.3-4.2c-0.4-0.1-0.7-0.1-0.9,0
			C17.1,8.3,21.4,5.6,26.2,3.9z M37,20.3c-0.1-0.2-0.2-0.4-0.2-0.5c0-0.3,0.1-0.6,0.4-0.9c0.3-0.3,0.8-0.5,1.3-0.5
			c1.5,0,2.9,0.6,4.2,2c0.8,0.8,1.7,2.4,2.4,3.6c0.9,1.6,1.3,2.2,1.9,2.2c0.3,0,0.5-0.1,0.7-0.3c0.5-0.5,0.6-1.4,0.6-3.3
			c0-2.3,0.5-3.9,1.4-4.8c0.7-0.7,1.7-1.1,3-1.1c1,0,1.8,0.3,2.5,1c0.1,0.1,0,0.4,0,0.6c-0.1,0.5-0.2,1.3,0.5,1.9
			c0.6,0.6,1.3,0.2,1.6-0.1c0.3-0.2,0.6-0.3,0.9-0.3c0.3,0,0.9,0.2,1.3,0.7c0.6,0.6,1,1.6,1,2.7c0,2.8-2.4,4.2-4.1,5.2
			c-1.1,0.6-1.8,1.1-1.8,1.8c0,0.2,0.1,0.4,0.2,0.5c0.5,0.5,1.8,0.4,4.6,0.2c0.8-0.1,1.5-0.1,1.9-0.1c1.9,0,3.8,0.8,5.1,2
			c0.6,0.6,1,1.3,1,1.9c0,0.6-0.3,0.8-1,1c-0.5,0.1-1.1,0.4-1.1,1.1c0,0.4,0.2,0.6,0.4,0.9c0.2,0.3,0.4,0.6,0.4,1.2
			c0,1.4-2.2,2.6-4.9,2.6c-3.9,0-6.2-2.5-7.7-4.1c-0.8-0.9-1.4-1.5-2-1.5c-1.1,0-1.2,1.4-1.4,3.6c-0.2,2-0.4,4.7-1.5,5.8
			c-0.5,0.5-1.4,1.2-2.4,1.2c-0.8,0-1.6-0.4-2.3-1c-0.2-0.2-0.3-0.6-0.4-1.1c-0.1-0.6-0.2-1.3-0.7-1.8c-0.5-0.5-1.2-0.2-1.8,0.1
			c-0.4,0.2-0.9,0.5-1.4,0.5c-0.6,0-1.1-0.2-1.5-0.6c-0.6-0.6-0.9-1.5-0.9-2.5c0-1.5,0.5-2.6,1.4-3.6c0.3-0.3,1.5-1.1,2.5-1.7
			c2.7-1.7,3.3-2.1,3.3-2.7c0-0.7-0.6-0.8-1.9-0.9c-1.9-0.3-5.2-0.7-7.2-2.7c-0.9-0.9-1.9-2.8-1.9-4.3c0-0.6,0.1-1,0.4-1.3
			c0.6-0.6,1.1-0.6,1.6-0.5c0.4,0.1,1,0.2,1.4-0.3C37.5,21.3,37.2,20.7,37,20.3z M5.3,22.8c0.1-0.1,0.1-0.2,0.2-0.2c0,0,0-0.1,0-0.1
			c0.7-1.5,1.6-3,2.5-4.4c0.1,0,0.2,0,0.3-0.1c0.2-0.1,0.3-0.3,0.3-0.8c1.1-1.6,2.3-3,3.7-4.4c0,0,0,0,0.1,0
			c0.4,0.1,0.6-0.1,0.8-0.3c0.2-0.2,0.5-0.4,1-0.2c0.9,0.3,1.2,2.3,0.8,3.4c-0.5,1.6-2.1,2.8-3,3.5c-0.6,0.5-0.9,0.7-0.8,1
			c0.2,0.3,0.6,0.4,2.5,0.5c0.7,0,1.5,0.1,1.8,0.2c0.7,0.2,1.3,0.7,1.7,1.5c0.3,0.5,0.4,1.1,0.2,1.6c-0.1,0.3-0.3,0.6-0.6,0.8
			c-0.2,0.1-0.6,0.1-0.8,0.1c-0.4,0-0.9,0-1,0.4c-0.1,0.5,0,0.9,0.1,1.2c0.1,0.3,0.2,0.5,0.1,0.7c-0.2,0.5-0.5,1-0.9,1.2
			c-0.5,0.3-1.1,0.2-1.6,0c-0.9-0.3-1.8-1.6-2.4-2.6c-0.7-1.1-1.2-1.8-1.7-1.5c-0.3,0.2-0.5,0.7-0.6,1.4C7.7,27,7.3,28.9,5.2,30
			c-0.9,0.5-1.9,0.7-2.5,0.5C3.3,27.8,4.2,25.2,5.3,22.8z M75.1,57.1c-5.5-2.9-8-2.9-11.2-2.9c-7.4,0-14.8,3.4-22.3,8.9
			c-0.5-2.9-1.9-5.5-4-7.6c-2.7-2.7-6.4-4.3-10.3-4.3c-7.6,0-13.8,5.8-14.5,13.3c-3.2-3.1-6-5.4-11.1-5.4V38.5
			c0-2.5,0.3-4.9,0.7-7.3c0.4,0.1,0.9,0.1,1.4,0c0.9,1.6,2.4,3.6,3.7,2.9c0.2-0.1,0-0.3,0.2-0.6c1.5-2.2,2.6-4.5,1.7-7.9
			c0.1,0.2,0.3,0.4,0.4,0.6c0.7,1.1,1.7,2.5,2.8,2.9c0.8,0.2,1.5,0.2,2.1-0.1c0.6-0.3,1-0.9,1.2-1.6c0.1-0.4,0-0.8-0.1-1.1
			c-0.1-0.2-0.2-0.5-0.1-0.7c0.1,0,0.2,0,0.3,0c0.3,0,0.8,0,1.2-0.2c0.2-0.1,0.3-0.2,0.5-0.4c5.2,1.2,11.5,2.9,17.6,5.4
			c-2.7,2.3-4.5,5.4-4.5,7.2c0,0.9,3.1,1.9,5.4,2.2c0,0.1,0,0.2,0,0.2c0,1.3,0.4,2.5,1.2,3.3c0.6,0.6,1.5,1,2.3,1c0.3,0,0.5,0,0.7,0
			c0.1,0,0.2,0,0.3,0l1.6,0.9c0,0,0,0.1,0.1,0.1c0.2,0.3,0.3,0.5,0.8,1c0.8,0.8,2,1.4,3.1,1.4c1.1,0,2.2-0.5,3.2-1.5
			c1.4-1.4,1.6-4.2,1.8-6.5c0-0.4,0.1-0.8,0.1-1.2c1.5,5.8,4.9,8.3,8.9,10.3c0.5,0.3,0.3,0.8,0.8,0.8c2.1,0,2.8-3.4,3-6.3
			c2.7,2.6,7.7,6.3,11.1,8V57.1z M75.1,47.5c-2.4-1.1-6-3.5-9.1-6.3c0.1-0.1,0.2-0.2,0.3-0.3c0.6-0.6,0.9-1.3,0.9-2
			c0-0.6,0.1-0.9,0.2-1.2c0.1-0.2,0.2-0.4,0.2-0.8c0-0.1,0-0.1,0.2-0.2c0.4-0.4,0.8-0.9,0.8-2.1c0-0.8-0.5-1.8-1.4-2.7
			c-1.3-1.3-3.2-2.2-5.2-2.3c0.3-0.4,0.4-0.9,0.6-1.2c-0.5-0.7-1.1-1-2.7-1.2c1-1,1.8-2.3,1.8-4.1c0-1.4-0.5-2.6-1.3-3.5
			c-0.6-0.6-1.4-1-2.1-1c-0.5,0-0.7,0-0.9-0.1l-0.3-0.2c0,0-0.1-0.1-0.1-0.1c-0.3-0.3-0.4-0.5-0.4-0.6c-0.1-0.2-0.2-0.4-0.5-0.8
			c-0.9-0.9-2-1.3-3.3-1.3c-0.5,0-1.1,0.1-1.6,0.2c-1-1.7-2.8-3.1-3.4-3.1c-0.2,0-0.3,0.3-0.3,0.5c0,1-1.6,2.7-2.1,3.9
			c-0.4,0.8-0.8,2.2-1.1,3.3c-0.2-0.3-0.5-0.6-0.7-0.8c-1.6-1.6-3.2-2.3-5-2.3c-0.2,0-0.3,0-0.5,0l-1.9-2.2c-0.9-1.1-1.6-5.7,0.3-8
			c0.9,0,0.8,0.8,2.2,1.3c0.4,0.2,0.8,0.8,1.1,0.8c0.3,0,0.5-0.8,0.5-1.4c0-0.6-0.5-2.2-2.9-1.9c0.3-0.5,0.6-0.7,1.5-0.7
			c0.4,0,0.8,0,1.3-0.4c1-0.7,0.9-1.3,1.1-1.5c0.2-0.2,0.6-0.6,0.6-1c0-0.1-0.1-0.3-0.3-0.3c-0.2,0-0.2,0.1-0.5,0.1
			s-0.5-0.1-0.9-0.1c-1.2,0-1.8,0.6-2.5,1.2C37.1,4,37,4.8,36.6,5.1c0-1.2-1-2.8-2.6-2.8c-0.7,0-0.6,0.5-0.5,0.7
			c0.2,0.1,0.1,0.3,0.1,0.8c0,0.5,0.5,1.8,2.2,2.2c-0.6,1-1.9,2.9-1.7,6.2c-0.8-0.7-3.3-4.5-4.9-7.4c0.1-0.4,0.1-1.1,0-1.8
			c2.9-0.7,6-1.1,9.1-1.1c20.2,0,36.6,16.4,36.6,36.7V47.5z"/>
	</g>
	<path class="st0" d="M11.8,23.1c0,0.1-0.1,0.1-0.2,0.1l0,0c-0.5-0.1-1-0.3-1.3-0.6c-0.1-0.1-0.1-0.2,0-0.2c0.1-0.1,0.2-0.1,0.2,0
		c0.3,0.3,0.8,0.4,1.2,0.6l0,0C11.8,22.9,11.8,23,11.8,23.1z"/>
	<path class="st0" d="M10.6,23.4c0.1,0.1,0,0.2,0,0.2c-0.1,0.1-0.2,0-0.2,0c-0.2-0.3-0.6-0.6-0.9-0.8c-0.4,0.5-0.9,0.8-1.3,1.1
		c-0.8,0.4-1.5,0.2-1.8-0.1c-0.2,0.3-0.6,0.7-1.1,1.1c-0.1,0.1-0.2,0-0.2,0c-0.1-0.1,0-0.2,0-0.2l0,0c0.5-0.4,0.9-0.8,1.1-1.1
		c-0.7-1.4,0.6-4,2.3-5c0.8-0.4,1.5-0.3,1.9,0.1c0.1-0.2,0.3-0.5,0.3-0.6c0-0.1,0.1-0.1,0.2-0.1c0.1,0,0.1,0.1,0.1,0.2l0,0
		c-0.1,0.3-0.3,0.6-0.4,0.9c0.3,0.7,0.2,1.6-0.2,2.4l0.5,0.2c0.1,0,0.1,0.1,0.1,0.2c0,0.1-0.1,0.1-0.2,0.1l0,0l-0.6-0.2
		c-0.2,0.3-0.4,0.6-0.6,0.9C10,22.7,10.4,23.1,10.6,23.4z"/>
	<path class="st0" d="M7.2,24.5L7,25.1c0,0.1-0.1,0.1-0.2,0.1c-0.1,0-0.1-0.1-0.1-0.2l0.2-0.6c0-0.1,0.1-0.1,0.2-0.1
		C7.1,24.3,7.2,24.4,7.2,24.5z"/>
	<path class="st0" d="M6.2,24.6c0.1,0.1,0.1,0.2,0,0.2l-0.5,0.7c-0.1,0.1-0.2,0.1-0.2,0c-0.1-0.1-0.1-0.2,0-0.2l0,0l0.5-0.7
		C6,24.5,6.1,24.5,6.2,24.6z"/>
	<path class="st0" d="M10.3,18c-0.1,0-0.1-0.1-0.1-0.2l0,0c0.1-0.2,0.4-1.1,0.5-1.4c0-0.1,0.1-0.1,0.2-0.1c0.1,0,0.1,0.1,0.1,0.2
		c-0.1,0.3-0.4,1.2-0.5,1.5C10.5,18,10.4,18,10.3,18z"/>
	<path class="st0" d="M57.4,35.1c-0.1,0.1-0.2,0.2-0.4,0.1l-1.3-0.6c-0.1-0.1-0.2-0.2-0.1-0.4c0.1-0.1,0.2-0.2,0.4-0.1l1.3,0.6
		C57.4,34.8,57.5,34.9,57.4,35.1z"/>
	<path class="st0" d="M55.2,35.3c0.1,0.1,0.1,0.3,0,0.4c-0.1,0.1-0.3,0.1-0.4,0L54,35c-0.1-0.1-0.1-0.3,0-0.4c0.1-0.1,0.3-0.1,0.4,0
		L55.2,35.3z"/>
	<path class="st0" d="M51.9,34.8c-0.8,0-1.7-0.2-2.7-0.6c-0.3,0.5-0.6,1.2-0.7,1.9c0,0.2-0.2,0.3-0.3,0.2c-0.2,0-0.3-0.2-0.2-0.3
		c0.1-0.7,0.3-1.4,0.7-2c-0.5-0.2-1.1-0.5-1.6-0.8L46.5,34c-0.1,0.1-0.3,0.1-0.4,0c-0.1-0.1-0.1-0.3,0-0.4l0.6-0.7
		c-1.2-0.9-2.1-2.1-2.2-3.5c-0.5-0.3-1-0.6-1.3-0.9l0,0c-0.1-0.1-0.1-0.3,0-0.4c0.1-0.1,0.3-0.1,0.4,0l0,0c0.2,0.2,0.6,0.5,1,0.7
		c0.2-0.8,1.3-1.7,2.7-1.7c1.1,0,2.2,0.3,3.3,0.8c0.4-0.5,0.8-1.4,0.9-1.7c0-0.2,0.2-0.3,0.3-0.2c0.2,0,0.3,0.2,0.2,0.3
		c-0.1,0.5-0.5,1.3-0.9,1.9c2,1,3.6,2.7,3.6,4.4c0.6,0.3,1.4,0.6,2.5,0.7c0.2,0,0.3,0.2,0.2,0.3c0,0.2-0.2,0.3-0.3,0.2l0,0
		c-1-0.1-1.9-0.4-2.5-0.7C54.3,33.9,53.5,34.8,51.9,34.8z"/>
	<path class="st0" d="M47.9,34.5c-0.2,0.8-0.9,1.5-1.5,2c-0.1,0.1-0.3,0.1-0.4,0c-0.1-0.1-0.1-0.3,0-0.4l0,0
		c0.5-0.5,1.1-1.1,1.3-1.8c0-0.2,0.2-0.2,0.3-0.2C47.8,34.2,47.9,34.4,47.9,34.5z"/>
	<path class="st0" d="M43.8,27.9c-0.4-0.3-1.6-1.4-1.9-1.8c-0.1-0.1-0.1-0.3,0-0.4c0.1-0.1,0.3-0.1,0.4,0c0.3,0.4,1.4,1.4,1.8,1.7
		c0.1,0.1,0.2,0.3,0.1,0.4C44.1,27.9,43.9,28,43.8,27.9z"/>
	<path class="st0" d="M51.9,28.1l0.5-0.8c0.1-0.1,0.3-0.2,0.4-0.1c0.1,0.1,0.2,0.3,0.1,0.4l0,0l-0.5,0.8l0,0
		c-0.1,0.1-0.3,0.2-0.4,0.1C51.9,28.4,51.8,28.2,51.9,28.1z"/>
</g>
</svg>
