<svg xmlns="http://www.w3.org/2000/svg" viewBox="0 0 76.9258 115.4312">
  <defs>
    <style>
      .a {
        fill: #a90533;
      }
    </style>
  </defs>
  <title>armc-logo</title>
  <g>
    <path class="a" d="M65.66,11.2652A38.4627,38.4627,0,0,0,0,38.4624V76.9683A38.3771,38.3771,0,0,0,3.0166,91.939c6.5659-1.4531,14.8457-8.8926,20.439-14.8086,1.1391-1.2031,2.2221-2.34,3.2973-3.4336C20.7871,72.0093,18.09,69.7593,14.291,65.96c-.1074-.1065-.2109-.21-.3164-.3154a13.4079,13.4079,0,0,1,26.6768-1.7334,121.3818,121.3818,0,0,0-11.709,10.4257.7449.7449,0,0,1-.0484.0743c-1.2846,1.2851-2.5854,2.66-3.9624,4.1152-5.6777,6.0039-14.0429,13.5449-21.0473,15.31A38.47,38.47,0,0,0,76.9258,76.9683V38.4624A38.2118,38.2118,0,0,0,65.66,11.2652ZM26.1523,3.9312a4.0713,4.0713,0,0,0,2.418,1.75c.8594,1.9863,4.8833,7.6992,8.14,12.2344a2.35,2.35,0,0,0-.9722,1.875,2.9136,2.9136,0,0,1-.0156.44,2.6923,2.6923,0,0,1-.2706.29c-.1171.1182-.1738.127-.3828.16A3.2466,3.2466,0,0,0,33.082,21.82a2.869,2.869,0,0,0-.7529,2.0859,7.9807,7.9807,0,0,0,1.4531,4.2012c-5.57-1.8594-10.7715-3.2207-15.5722-4.3145a2.8658,2.8658,0,0,0-.3536-1.7392,3.5746,3.5746,0,0,0-1.7109-1.63c.4551-.44.8-.8926.6856-1.1045A4.1929,4.1929,0,0,0,14.5562,17.85a5.3976,5.3976,0,0,0,1.1167-1.9511c.3681-1.2373.16-3.7744-1.2828-4.2041a1.6432,1.6432,0,0,0-.9165-.0332A36.6541,36.6541,0,0,1,26.1523,3.9312ZM37.0322,20.33a1.5382,1.5382,0,0,1-.165-.539,1.2281,1.2281,0,0,1,.3735-.8633,1.84,1.84,0,0,1,1.32-.49,5.8865,5.8865,0,0,1,4.229,1.9794,18.1363,18.1363,0,0,1,2.3838,3.5743c.8916,1.581,1.2608,2.2353,1.8531,2.2353a1.0116,1.0116,0,0,0,.727-.3027c.4522-.4522.6279-1.38.6279-3.3106,0-2.2578.4756-3.8789,1.4136-4.8164a4.01,4.01,0,0,1,2.9888-1.0527,3.3929,3.3929,0,0,1,2.4795,1.0195c.0615.0625.0224.3565-.0049.5723a2.094,2.094,0,0,0,.456,1.9121,1.2156,1.2156,0,0,0,1.6177-.0537,1.7354,1.7354,0,0,1,.87-.3467,2.0262,2.0262,0,0,1,1.3335.6563,3.7272,3.7272,0,0,1,.98,2.6738c0,2.7793-2.3672,4.2021-4.0957,5.24-1.0684.6426-1.7744,1.0664-1.7744,1.76a.7385.7385,0,0,0,.2441.5459c.5093.47,1.7891.4209,4.5869.1953.7715-.0625,1.501-.12,1.9424-.12a7.2786,7.2786,0,0,1,5.0625,2.0156,3.0417,3.0417,0,0,1,1.0322,1.8789c0,.6133-.29.7676-1.0029.9961-.4541.1455-1.1411.3652-1.1411,1.0918a1.6184,1.6184,0,0,0,.3613.9111,2.0156,2.0156,0,0,1,.4287,1.2334c0,1.4317-2.1777,2.5957-4.854,2.5957-3.9228,0-6.205-2.4843-7.7148-4.1289-.8379-.9121-1.3916-1.5146-2.05-1.5146-1.0625,0-1.1885,1.415-1.3794,3.5557-.1758,1.97-.4155,4.666-1.5024,5.7539a3.5777,3.5777,0,0,1-2.3672,1.1884A3.3616,3.3616,0,0,1,44.04,45.356a1.73,1.73,0,0,1-.35-1.0869,2.8877,2.8877,0,0,0-.7217-1.8477c-.5489-.5488-1.2471-.1689-1.8076.1358a3.0684,3.0684,0,0,1-1.358.4883,2.1132,2.1132,0,0,1-1.518-.6426,3.5089,3.5089,0,0,1-.9082-2.5186,4.82,4.82,0,0,1,1.3584-3.5508A22.6538,22.6538,0,0,1,41.2471,34.63c2.6718-1.6777,3.2959-2.1289,3.2959-2.7031,0-.6709-.6494-.7578-1.9453-.9326-1.9493-.2627-5.2115-.7022-7.25-2.7412a7.1506,7.1506,0,0,1-1.89-4.3477,1.7627,1.7627,0,0,1,.4224-1.2891,1.4963,1.4963,0,0,1,1.6147-.457,1.4667,1.4667,0,0,0,1.4336-.2754A1.29,1.29,0,0,0,37.0322,20.33ZM5.3364,22.7779a.67.67,0,0,0,.1582-.2354.4557.4557,0,0,0,.0176-.1328A36.4255,36.4255,0,0,1,8.04,18.023a.6087.6087,0,0,0,.2969-.0654c.2031-.11.2764-.3438.3076-.792a36.8321,36.8321,0,0,1,3.6787-4.3848.5035.5035,0,0,0,.0713.0391.8753.8753,0,0,0,.8291-.2617.8884.8884,0,0,1,.9746-.2188c.8965.2676,1.1514,2.2881.83,3.3682-.4892,1.6455-2.0727,2.8007-3.0195,3.4912-.6284.459-.9443.6885-.7549,1.04.1641.3008.6182.36,2.4941.4815a13.6365,13.6365,0,0,1,1.7979.1777,2.8718,2.8718,0,0,1,1.7192,1.4766,2.0839,2.0839,0,0,1,.2383,1.5742,1.2583,1.2583,0,0,1-.6128.7676,1.8231,1.8231,0,0,1-.85.13c-.38-.0009-.8535-.0019-.9848.44a1.7185,1.7185,0,0,0,.1459,1.1728,1.0331,1.0331,0,0,1,.1246.669,1.9978,1.9978,0,0,1-.8912,1.1728,2.1261,2.1261,0,0,1-1.5766.0488c-.8765-.2607-1.7681-1.6054-2.418-2.5869-.7075-1.0674-1.1748-1.7724-1.7309-1.4707-.3448.1865-.4639.6592-.6436,1.375a6.09,6.09,0,0,1-2.87,4.35,3.8611,3.8611,0,0,1-2.5127.5176A36.4148,36.4148,0,0,1,5.3364,22.7779Zm69.79,34.3027C69.5938,54.146,67.12,54.2212,63.96,54.2212c-7.4121,0-14.7862,3.3584-22.2832,8.917a14.5422,14.5422,0,0,0-28.7754,1.4395c-3.1846-3.127-5.99-5.3711-11.0957-5.3887V38.4624a36.8526,36.8526,0,0,1,.7363-7.289,3.5562,3.5562,0,0,0,1.3906-.002c.9326,1.5567,2.44,3.5606,3.6538,2.9043.2207-.12-.0249-.3437.1739-.6308,1.4985-2.1514,2.5844-4.459,1.7172-7.9073.1377.1963.2793.41.4024.5967.7471,1.127,1.6767,2.5293,2.7876,2.8594a2.7111,2.7111,0,0,0,2.0884-.1016A2.6556,2.6556,0,0,0,15.9712,27.32a1.6252,1.6252,0,0,0-.1441-1.1084,1.2351,1.2351,0,0,1-.1347-.6787,2.694,2.694,0,0,1,.3472-.0137,2.371,2.371,0,0,0,1.1709-.2109,1.9253,1.9253,0,0,0,.455-.3555,119.6755,119.6755,0,0,1,17.65,5.3535c-2.7378,2.2842-4.4868,5.4258-4.4868,7.1514,0,.9482,3.1314,1.8564,5.4277,2.1845-.0019.08-.0092.16-.0092.2422a4.6211,4.6211,0,0,0,1.2383,3.3164,3.2627,3.2627,0,0,0,2.3168.9737c.2637,0,.504-.0059.7159-.0127.101-.002.1772-.002.2646-.0039l1.6323.9121c.0215.0351.043.07.0645.1064a4.73,4.73,0,0,0,3.8135,2.3281,4.5658,4.5658,0,0,0,3.165-1.5195c1.377-1.3769,1.627-4.19,1.8291-6.4521.0332-.375.0713-.8028.1177-1.2022,1.4761,5.7842,4.9238,8.3233,8.8579,10.3027.5244.2647.3379.79.7617.79,2.0918,0,2.8008-3.3926,3.0166-6.291a53.6962,53.6962,0,0,0,11.085,7.9707Zm0-9.54a37.8085,37.8085,0,0,1-9.085-6.3116,4.3739,4.3739,0,0,0,.3457-.2968,2.83,2.83,0,0,0,.9029-2.0069,2.3089,2.3089,0,0,1,.2456-1.1562,1.6851,1.6851,0,0,0,.206-.7627c0-.0752,0-.083.1524-.2354a2.55,2.55,0,0,0,.7509-2.0781,4.0751,4.0751,0,0,0-1.3632-2.6767,8.3746,8.3746,0,0,0-5.23-2.3164,6.505,6.505,0,0,0,.5542-1.2159c-.4732-.6875-1.1485-1.0146-2.7363-1.207a5.69,5.69,0,0,0,1.7768-4.1,4.8446,4.8446,0,0,0-1.31-3.4727,3.12,3.12,0,0,0-2.1324-.9853,2.0944,2.0944,0,0,1-.854-.0811l-.2617-.1972c-.0366-.0352-.0762-.0752-.1221-.1211-.332-.3321-.3715-.4512-.4121-.5791a1.7177,1.7177,0,0,0-.4912-.7754,4.4787,4.4787,0,0,0-3.2773-1.35,6.6235,6.6235,0,0,0-1.6094.1924c-1.043-1.6817-2.8271-3.0713-3.4141-3.0713-.1689,0-.2822.2529-.2822.45,0,1.0166-1.5522,2.6533-2.0879,3.9238a23.6888,23.6888,0,0,0-1.0967,3.331,7.792,7.792,0,0,0-.706-.8232,6.95,6.95,0,0,0-5.0269-2.31,3.2092,3.2092,0,0,0-.4887.0429l-1.9107-2.2158c-.9233-1.1465-1.6255-5.748.3394-7.958.9311,0,.79.7891,2.23,1.2978.44.1553.79.7618,1.1.7618s.48-.79.48-1.4395c0-.6455-.5459-2.1577-2.85-1.8623.3178-.5171.5561-.7339,1.4672-.7339a1.9993,1.9993,0,0,0,1.2979-.395c1.0156-.7051.9316-1.2979,1.1294-1.5239s.5639-.649.5639-.959c0-.1416-.1127-.2544-.3388-.2544s-.169.1416-.4512.1416-.4512-.1128-.875-.1128A3.1883,3.1883,0,0,0,37.771,3.3106c-.6636.6636-.7622,1.5239-1.1577,1.75A2.7853,2.7853,0,0,0,34.0459,2.295c-.7056,0-.6494.5356-.4521.6772s.0566.2822.0566.79a2.6415,2.6415,0,0,0,2.229,2.2021,9.1908,9.1908,0,0,0-1.6646,6.1514,46.0013,46.0013,0,0,1-4.8535-7.3941,4.9512,4.9512,0,0,0-.0058-1.7754,36.6792,36.6792,0,0,1,45.77,35.5161Z"/>
    <path class="a" d="M11.7783,23.0679a.1683.1683,0,0,1-.2055.1192h0a2.8517,2.8517,0,0,1-1.3394-.6446.1682.1682,0,1,1,.2441-.2314,2.5741,2.5741,0,0,0,1.1822.5508h0A.1682.1682,0,0,1,11.7783,23.0679Z"/>
    <path class="a" d="M10.6113,23.3941a.1681.1681,0,1,1-.2763.1914,2.926,2.926,0,0,0-.8706-.791A4.8446,4.8446,0,0,1,8.207,23.858a1.54,1.54,0,0,1-1.8486-.1387,4.9493,4.9493,0,0,1-1.12,1.0752.168.168,0,1,1-.1924-.2754h0a4.5842,4.5842,0,0,0,1.1069-1.09c-.7168-1.4492.6411-4.0429,2.3433-4.9648a1.6508,1.6508,0,0,1,1.9121.1006,3.7616,3.7616,0,0,0,.3189-.6455.1679.1679,0,1,1,.3188.1054h0a4.4915,4.4915,0,0,1-.4434.8653,3.0081,3.0081,0,0,1-.185,2.4492l.5249.2061a.1679.1679,0,0,1-.1231.3125h0l-.5517-.2159a6.247,6.247,0,0,1-.5855.8887A3.2773,3.2773,0,0,1,10.6113,23.3941Z"/>
    <path class="a" d="M7.16,24.5074l-.2061.6084a.1678.1678,0,1,1-.3179-.1075L6.8413,24.4a.168.168,0,0,1,.3184.1075Z"/>
    <path class="a" d="M6.1563,24.5845a.1673.1673,0,0,1,.0312.2354l-.5269.6865a.1677.1677,0,1,1-.2661-.2041h0l.5259-.6875A.1684.1684,0,0,1,6.1563,24.5845Z"/>
    <path class="a" d="M10.2822,17.9624a.1663.1663,0,0,1-.0664-.2275h0a8.9931,8.9931,0,0,0,.47-1.3838.1679.1679,0,1,1,.3282.0713A8.96,8.96,0,0,1,10.51,17.897.1669.1669,0,0,1,10.2822,17.9624Z"/>
    <path class="a" d="M57.3877,35.0894a.2823.2823,0,0,1-.3731.1426l-1.3256-.5928a.2823.2823,0,0,1,.23-.5156l1.3267.5928A.283.283,0,0,1,57.3877,35.0894Z"/>
    <path class="a" d="M55.1777,35.2759a.2819.2819,0,0,1-.3838.4131l-.79-.7344a.2816.2816,0,0,1,.3828-.4131Z"/>
    <path class="a" d="M51.9375,34.8335a8.137,8.137,0,0,1-2.708-.5644,4.9173,4.9173,0,0,0-.6524,1.8652.282.282,0,1,1-.5605-.0625,5.4982,5.4982,0,0,1,.68-2.0195,10.4767,10.4767,0,0,1-1.5737-.8438l-.6416.7627a.2823.2823,0,0,1-.4322-.3632l.61-.7256a5.0438,5.0438,0,0,1-2.2315-3.47,7.479,7.479,0,0,1-1.3471-.9209h0a.282.282,0,0,1,.3862-.4111h0a6.3223,6.3223,0,0,0,.9873.6983,2.7758,2.7758,0,0,1,2.7427-1.6778,8.1426,8.1426,0,0,1,3.2807.7813,5.6137,5.6137,0,0,0,.8692-1.7442.2822.2822,0,0,1,.561.0625,5.72,5.72,0,0,1-.9155,1.9307c1.9878,1.0459,3.5859,2.7451,3.6455,4.4326a7.7288,7.7288,0,0,0,2.4961.7188.2826.2826,0,0,1-.064.5615h0a8.4106,8.4106,0,0,1-2.5141-.6924A2.5844,2.5844,0,0,1,51.9375,34.8335Z"/>
    <path class="a" d="M47.8926,34.5113a4.7712,4.7712,0,0,1-1.4619,2.0234.2823.2823,0,0,1-.3882-.41h0a4.3258,4.3258,0,0,0,1.3042-1.76.2826.2826,0,0,1,.5459.1465Z"/>
    <path class="a" d="M43.7705,27.8746a15.1936,15.1936,0,0,1-1.9248-1.7754.2822.2822,0,1,1,.4287-.3672A15.1117,15.1117,0,0,0,44.0752,27.4a.282.282,0,1,1-.3047.4747Z"/>
    <path class="a" d="M51.9243,28.0513l.4795-.7617a.2821.2821,0,1,1,.478.3h0l-.4795.7617h0a.2821.2821,0,1,1-.478-.3Z"/>
  </g>
</svg>
