<svg xmlns="http://www.w3.org/2000/svg" xmlns:xlink="http://www.w3.org/1999/xlink" viewBox="0 0 99.913 99.9129">
  <defs>
    <style>
      .a {
        fill: none;
      }

      .b {
        fill: #fff;
      }

      .c {
        clip-path: url(#a);
      }

      .d {
        fill: #547aa3;
        fill-rule: evenodd;
      }
    </style>
    <clipPath id="a" transform="translate(0 -0.0689)">
      <rect class="a" width="100" height="100"/>
    </clipPath>
  </defs>
  <title>nuci-logo</title>
  <g>
    <circle class="b" cx="47.3913" cy="49.9311" r="40.6522"/>
    <g class="c">
      <path class="d" d="M49.9566.0689A49.9565,49.9565,0,1,0,99.913,50.0254,49.9565,49.9565,0,0,0,49.9566.0689ZM62.53,30.6142h-6.807c-6.6065,0-10.11,3.8036-10.11,9.81s3.5036,9.91,10.11,9.91H62.53V64.7481h-9.61c-.4309,0-.8617-.0138-1.2924-.0383l-3.0121,4.9431a15.5455,15.5455,0,0,1,3.7037-.4c4.4043,0,9.71,2.6025,9.71,7.6075,0,6.8066-7.8076,9.7095-13.5134,9.7095a33.1176,33.1176,0,0,1-12.4126-2.9028l2.1023-4.6044c2.6025.9007,5.7053,2.1018,8.6086,2.1018,3.2031,0,5.2048-1.8015,5.2048-4.0037,0-1.8018-2.6025-3.3034-4.8046-3.3034a10.81,10.81,0,0,0-3.5037,1.0011l-2.5025-2.4023,5.1736-8.654C37.2871,61.133,29.597,52.9147,29.597,40.4239c0-15.3154,11.7119-24.3246,23.3235-24.3246h9.61Z" transform="translate(0 -0.0689)"/>
    </g>
  </g>
</svg>
