<?xml version="1.0" encoding="utf-8"?>
<!-- Generator: Adobe Illustrator 20.1.0, SVG Export Plug-In . SVG Version: 6.00 Build 0)  -->
<svg version="1.1" id="Layer_1" xmlns="http://www.w3.org/2000/svg" xmlns:xlink="http://www.w3.org/1999/xlink" x="0px" y="0px"
	 viewBox="0 0 220.5 248" style="enable-background:new 0 0 220.5 248;" xml:space="preserve">
<style type="text/css">
	.st0{clip-path:url(#SVGID_2_);}
	.st1{fill:none;stroke:#FFFFFF;stroke-width:1.54;stroke-linecap:round;}
	.st2{fill:#F7941E;}
	.st3{fill:#3C2415;}
	.st4{opacity:0.4;fill:#FFFFFF;enable-background:new    ;}
</style>
<title>SORBA_ATL_logo</title>
<g>
	<defs>
		<ellipse id="SVGID_1_" cx="111.6" cy="110.3" rx="73.7" ry="73.5"/>
	</defs>
	<clipPath id="SVGID_2_">
		<use xlink:href="#SVGID_1_"  style="overflow:visible;"/>
	</clipPath>
	<g class="st0">
		<line class="st1" x1="164.7" y1="105.8" x2="170.8" y2="84.4"/>
		<path class="st2" d="M183.9,103.9v-3.6l-10.6-18.8l-5.9,18.8h-1.5l5.9-19.2l-11.2,17.1V80.4c0,0-12.8-21.1-10.7-34.4h-1.5
			c0,0,2.3,11.4-11.1,33.6v16h-2.8V90h-3.6v-5.6h-3.5v-5.9h-3.6v-5.3h-4.6v5.3h-3.6v5.9h-3.5V90h-3.6v5.6h-3.1V82.5
			c0-2.5-5.3-4.6-12-4.7V61c0-0.4-0.3-0.8-0.8-0.8c-0.4,0-0.8,0.3-0.8,0.8c0,0,0,0,0,0v16.7c-6.4,0.2-11.4,2.2-11.4,4.7v22.1h-3.7
			v-7h-3.3v-1.6C73.5,96,73.4,96,73.2,96c-0.6,0-1-0.4-1-1v-3.8c0-0.6,0.4-1,1-1c0.1,0,0.3,0,0.4,0.1v-2.1H62.9v2.1
			c0.5-0.2,1.1,0.1,1.3,0.6c0,0.1,0,0.2,0,0.3V95c0,0.6-0.4,1-1,1c-0.1,0-0.2,0-0.3-0.1v1.6h-3.3v7h-3.7v5h-2.7v-5.5h-2.5v-1.3
			c-0.4,0.2-0.8,0-1-0.4c-0.1-0.1-0.1-0.2-0.1-0.3v-3c0-0.4,0.4-0.8,0.8-0.8c0.1,0,0.2,0,0.3,0.1v-1.6h-8.4v1.6c0.1,0,0.2,0,0.2,0
			c0.4,0,0.8,0.4,0.8,0.8v3c0,0.4-0.3,0.8-0.8,0.8c-0.1,0-0.2,0-0.2,0v1.3h-2.5v5.5h-2.9v60h19.1v59h10.6l8.9-31.7l5.3,3.2v22
			l6.1,5.3l0.9,9.5L98,248h7.6v-17l6.6-8l16.3-13.9l1.2-18.1l3.6-8l4.4,5.8v13.4l4.4-10.1l-1.2-13.6l4.6-1.2l9.8,8.6V214l5,1
			l8.5,9.6h19.1V103.9H183.9L183.9,103.9z"/>
	</g>
</g>
<path class="st3" d="M217.6,101.5c-0.4-0.2-0.9-0.3-1.3-0.3c-0.3-3.1-0.7-6.2-1.2-9.2c0.4-0.2,0.8-0.4,1.2-0.7
	c1.3-1.1,1.1-7,0.5-9.4s-3.4-7.6-5-7.9c-0.5-0.1-0.9,0-1.4,0.1c-1.1-2.9-2.2-5.7-3.6-8.5c0.4-0.3,0.7-0.7,1-1.1c1-1.4-0.7-7-2-9.2
	s-5.2-6.5-6.9-6.4c-0.5,0.1-1,0.3-1.5,0.6c-1.8-2.5-3.6-4.9-5.6-7.2c0.4-0.4,0.6-0.9,0.9-1.5c0.6-1.6-2.5-6.6-4.3-8.4
	c-1.8-1.8-6.7-5-8.3-4.3c-0.5,0.2-1,0.6-1.4,1c-2.3-1.9-4.7-3.8-7.2-5.5c0.3-0.6,0.4-1.2,0.5-1.8c0.2-1.7-4.2-5.7-6.3-7
	s-7.8-3-9.2-2c-0.5,0.4-0.9,1-1.2,1.6c-2.7-1.2-5.5-2.4-8.3-3.4c0.1-0.7,0.2-1.4,0.1-2.1c-0.3-1.7-5.5-4.5-7.9-5.1s-8.3-0.9-9.4,0.4
	c-0.4,0.6-0.7,1.3-0.8,2.1c-2.9-0.5-5.9-0.8-8.8-1.1c0-0.8-0.2-1.6-0.5-2.3c-0.7-1.6-6.5-2.9-9-2.9s-8.3,1.3-9,2.8
	c-0.3,0.8-0.3,1.6-0.3,2.5c-3,0.3-5.9,0.7-8.8,1.2c-0.2-0.8-0.6-1.6-1.1-2.3c-1.1-1.3-7-1.1-9.4-0.5s-7.6,3.4-7.9,5.1
	c0,0.9,0.1,1.8,0.5,2.6c-2.8,1-5.5,2.2-8.1,3.4c-0.5-0.8-1.1-1.5-1.8-2.1c-1.4-1-7,0.7-9.2,2s-6.5,5.2-6.4,6.9
	c0.2,0.9,0.6,1.8,1.2,2.6c-2.4,1.7-4.7,3.5-6.9,5.4c-0.7-0.7-1.5-1.3-2.4-1.7c-1.6-0.6-6.6,2.5-8.4,4.3c-1.8,1.7-4.9,6.7-4.3,8.3
	c0.5,0.9,1.2,1.7,2,2.3c-1.9,2.2-3.6,4.6-5.3,7c-0.9-0.6-1.9-0.9-2.9-1.1c-1.7-0.2-5.7,4.2-7,6.3c-1.3,2.1-3,7.8-2,9.2
	c0.7,0.8,1.6,1.3,2.6,1.7c-1.2,2.6-2.4,5.3-3.4,8.1c-1-0.3-2.1-0.4-3.1-0.3c-1.7,0.3-4.5,5.5-5.1,7.9s-0.9,8.3,0.4,9.4
	c0.9,0.6,1.9,0.9,2.9,1c-0.5,2.9-0.9,5.8-1.2,8.7c-1.1-0.1-2.1,0.1-3.1,0.5C1.3,101.8,0,107.6,0,110s1.3,8.3,2.8,9
	c1,0.3,2,0.4,3.1,0.2c0.2,2.9,0.6,5.8,1.1,8.7c-1,0.2-2,0.7-2.8,1.3c-1.3,1.1-1.1,7-0.5,9.4s3.4,7.6,5.1,7.9c1,0,2-0.1,2.9-0.5
	c1,2.8,2.1,5.5,3.3,8.1c-0.9,0.5-1.6,1.1-2.3,1.9c-1,1.4,0.7,7,2,9.2s5.2,6.5,6.9,6.4c0.9-0.2,1.8-0.6,2.6-1.2
	c1.7,2.4,3.4,4.8,5.3,7c-0.7,0.7-1.2,1.4-1.6,2.3c-0.6,1.6,2.5,6.6,4.3,8.4c1.8,1.8,6.7,5,8.3,4.3c0.8-0.4,1.5-1,2-1.7
	c2.2,1.9,4.6,3.7,7,5.5c-0.4,0.8-0.7,1.6-0.8,2.5c-0.2,1.7,4.2,5.7,6.3,7s7.8,3,9.2,2c0.6-0.5,1.1-1.2,1.4-1.9
	c2.7,1.3,5.4,2.4,8.2,3.5c-0.2,0.8-0.2,1.6-0.1,2.3c0.3,1.7,5.5,4.5,7.9,5.1s8.3,0.9,9.4-0.4c0.4-0.6,0.7-1.3,0.8-2
	c2.9,0.5,5.9,1,8.9,1.3c0.1,0.7,0.2,1.4,0.5,2.1c0.7,1.6,6.5,2.9,9,2.9s8.2-1.3,9-2.8c0.2-0.6,0.3-1.3,0.3-1.9c3-0.2,6-0.6,9-1.1
	c0.2,0.6,0.5,1.2,0.9,1.7c1.1,1.3,7,1.1,9.4,0.5s7.6-3.4,7.9-5c0.1-0.6,0-1.1-0.2-1.7c2.9-1,5.7-2.2,8.5-3.4
	c0.3,0.4,0.7,0.8,1.2,1.2c1.4,1,7-0.7,9.2-2s6.5-5.2,6.4-6.9c-0.1-0.5-0.3-1-0.5-1.5c2.5-1.8,5-3.6,7.4-5.5c0.4,0.3,0.9,0.6,1.3,0.7
	c1.6,0.6,6.6-2.5,8.4-4.3s5-6.7,4.3-8.3c-0.2-0.4-0.5-0.8-0.8-1.2c2-2.3,3.9-4.8,5.7-7.3c0.4,0.2,0.9,0.3,1.4,0.3
	c1.7,0.2,5.7-4.1,7-6.3s3-7.8,2-9.2c-0.3-0.3-0.6-0.6-1-0.9c1.3-2.8,2.5-5.6,3.6-8.6c0.4,0,0.9,0,1.3,0c1.7-0.3,4.5-5.5,5.1-7.9
	s0.9-8.3-0.4-9.4c-0.4-0.3-0.8-0.5-1.2-0.6c0.5-3,0.9-6.1,1.2-9.2c0.4-0.1,0.9-0.2,1.3-0.4c1.6-0.7,2.9-6.5,2.9-9
	S219.2,102.2,217.6,101.5z M110.8,193.5C65,193.3,28,156,28.2,110.2s37.5-82.9,83.3-82.7c45.8,0.2,82.8,37.4,82.7,83.3
	C193.9,156.6,156.7,193.6,110.8,193.5L110.8,193.5z"/>
<path class="st4" d="M179.9,137.5c-0.1,0-0.1-0.1-0.2-0.1l-53.5-19.1l-1.6-1.3c0.8-1.6,1.2-3.4,1.4-5.1l1.5-0.3l56.7,9l0,0
	C183.5,126.4,182,132.1,179.9,137.5z M170.7,154.3l-40.1-32.5l48.6,17.4h0.1C177,144.5,174.2,149.6,170.7,154.3z M141,178.2
	l-18.3-47.8l33.1,38.9l0.1,0C151.3,172.9,146.3,175.9,141,178.2z M139.4,178.9c-5.5,2.3-11.2,3.9-17.1,4.8c0,0,0,0,0-0.1l-10-54.9
	l0.5-3.1c1.6-0.2,3.2-0.7,4.7-1.4l1.7,2L139.4,178.9z M84.3,179.5L84.3,179.5l18.6-52.3l2.1-2.6c1.5,0.6,3.1,1,4.7,1.1l0.5,3
	l-8.7,55.2C95.7,183.1,89.9,181.7,84.3,179.5L84.3,179.5z M67.9,170.5l31.6-39l-16.9,47.3C77.4,176.6,72.5,173.9,67.9,170.5
	L67.9,170.5z M43.8,141l46.8-18l-38.2,32.5C49,151,46.1,146.1,43.8,141z M43.1,139.4c-2.3-5.6-4-11.4-4.9-17.3l54.7-10l3,0.5
	c0.2,1.7,0.7,3.3,1.5,4.9l-2.5,2.1L43.1,139.4z M53.5,156.9L95.8,121l3.1-1.2c1,1.3,2.2,2.4,3.6,3.4l-1.1,3.1l-34.9,43.1
	C61.7,165.8,57.3,161.6,53.5,156.9z M111.2,184.5h-0.3c-2.5,0-5-0.1-7.4-0.4l7.9-50l9.1,49.8l0,0c-2.5,0.3-5,0.5-7.6,0.6
	 M157.3,168.3c0,0,0-0.1-0.1-0.1l-36.4-42.8l-1-2.5c1.4-1,2.6-2.2,3.6-3.6l2,0.7l44.3,35.8C166,160.4,161.9,164.7,157.3,168.3
	L157.3,168.3z"/>
</svg>
