<svg xmlns="http://www.w3.org/2000/svg" width="10000" viewBox="0 0 150 35"><defs><style>.a{fill:#010101;}.b{fill:#231f20;}.c{fill:#0063b0;}.d{fill:#fff;}</style></defs><title>asap-glenn</title><path class="a" d="M0,0.4V2.8H1.2V25.4l9.6,9.1H65.1a3.1,3.1,0,0,1,4.6-4V2.8h1V0.4H0Z"/><circle class="b" cx="67.5" cy="32.6" r="2.3"/><path class="c" d="M119.5,5.2H126c0,0.4,0,.8,0,1.3a7.1,7.1,0,0,1,3.3-1.2,6.4,6.4,0,0,1,3.4.3,2.5,2.5,0,0,1,1,1L134,7.1c0.1,5.9,0,11.9,0,17.8h-6.4c0-4.9,0-9.9,0-14.8H126c0,4.9,0,9.9,0,14.8h-6.5q0-9.9,0-19.7h0Z"/><path class="c" d="M135.5,5.2H142c0,0.4,0,.8,0,1.3a7.9,7.9,0,0,1,4.3-1.3,4.7,4.7,0,0,1,2.7.6,2.1,2.1,0,0,1,.9,1.9q0,8.6,0,17.3h-6.4c0-4.9,0-9.9,0-14.8H142c0,4.9,0,9.9,0,14.8h-6.4V5.2h0Z"/><path class="c" d="M73.8,5.7a4.5,4.5,0,0,1,2.3-.5H87.2c0,7.6,0,16.3,0,23.9a3.3,3.3,0,0,1-.5,2.3,3.7,3.7,0,0,1-2.8.9H72.7c0-1.6,0-3.3,0-4.9h8c0-.4,0-2,0-2.4-2,0-3.9.1-5.9-.1A2.7,2.7,0,0,1,73,23.8a3.4,3.4,0,0,1-.3-1.8c0-4.8,0-9.5,0-14.3a2.2,2.2,0,0,1,1-2h0Zm5.4,4.5c0,3.3,0,6.6,0,9.9h1.6c0-3.3,0-6.6,0-9.9H79.2Z"/><path class="c" d="M103.7,6.6a3.1,3.1,0,0,1,2.8-1.4h8.2a4.5,4.5,0,0,1,2.3.5,2.2,2.2,0,0,1,1.1,2q0,5,0,9.9h-8q0,1.2,0,2.4h1.6q0-.6,0-1.2H118c0,1.5.1,3-.1,4.5a2.7,2.7,0,0,1-2.7,1.6h-9.6a2.4,2.4,0,0,1-2.1-2.1c0-4.9,0-9.9,0-14.8a5.2,5.2,0,0,1,.2-1.4h0Zm6.3,3.6c0,0.9,0,1.9,0,2.8h1.6c0-.9,0-1.9,0-2.8H110Z"/><path class="d" d="M7.5,25.1c-2.1,0-3.2-.8-3.2-2.5V15.2c0-1.6,1.1-2.5,3.2-2.5h4.8V10.3H10.7v1.2H4.2V7.8c0-1.7,1.1-2.5,3.2-2.5h8.1c2.1,0,3.2.8,3.2,2.5V25.1H7.5Zm4.8-8.1H10.7v3h1.6V17.1Z"/><path class="d" d="M23.5,25.1c-2.1,0-3.2-.8-3.2-2.5V18.9h6.5v1.2h1.6V17.7H23.5c-2.1,0-3.2-.8-3.2-2.5V7.8c0-1.7,1.1-2.5,3.2-2.5h8.1c2.1,0,3.2.8,3.2,2.5v3.7H28.3V10.3H26.7v2.4h4.8c2.1,0,3.2.8,3.2,2.5v7.5c0,1.6-1.1,2.5-3.2,2.5H23.5Z"/><path class="d" d="M39.5,25.1c-2.1,0-3.2-.8-3.2-2.5V15.2c0-1.6,1.1-2.5,3.2-2.5h4.8V10.3H42.7v1.2H36.3V7.8c0-1.7,1.1-2.5,3.2-2.5h8.1c2.1,0,3.2.8,3.2,2.5V25.1H39.5Zm4.8-8.1H42.7v3h1.6V17.1Z"/><path class="d" d="M52.3,32.2V5.2H63.6c2.1,0,3.2.8,3.2,2.5V22.6c0,1.6-1,2.5-3.2,2.5H58.8v7.1H52.3Zm8.1-21.9H58.8v10h1.6V10.3Z"/><path class="c" d="M107,29.5a0.7,0.7,0,0,0-.7-0.8c-0.4,0-.8.3-0.8,1.6s0.3,1.6,1,1.6a1,1,0,0,0,1-.9l1.3,0.2a2.7,2.7,0,0,1-5.3-.9,2.6,2.6,0,0,1,2.7-2.8,2.3,2.3,0,0,1,2.4,1.9H107Z"/><path class="c" d="M112.3,33.1a2.6,2.6,0,0,1-2.8-2.8A2.8,2.8,0,1,1,112.3,33.1Zm0.9-2.8c0-1.2-.3-1.6-0.9-1.6s-0.9.3-.9,1.6,0.3,1.6.9,1.6S113.2,31.6,113.2,30.3Z"/><path class="c" d="M116.3,27.7h1.9v0.7a2.7,2.7,0,0,1,1.8-.9,1.4,1.4,0,0,1,1.4,1,2.4,2.4,0,0,1,1.8-1,1.4,1.4,0,0,1,1.5,1.5V33h-1.9V29.6a0.6,0.6,0,0,0-.6-0.8,1.1,1.1,0,0,0-.8.4V33h-1.9V29.6a0.6,0.6,0,0,0-.6-0.8,1.1,1.1,0,0,0-.8.4V33h-1.9V27.7Z"/><path class="c" d="M126,27.7h1.8v0.5a2.6,2.6,0,0,1,1.6-.7c1.4,0,2,1.4,2,2.7s-0.6,2.8-2.1,2.8a1.9,1.9,0,0,1-1.4-.7v2.2H126V27.7Zm1.9,3.8a1,1,0,0,0,.8.4c0.6,0,.8-0.8.8-1.7s0-1.6-.8-1.6a1,1,0,0,0-.7.4v2.4Z"/><path class="c" d="M132.5,29c0.2-1.1,1.3-1.5,2.4-1.5s2.4,0.7,2.4,1.6v2.8a2.3,2.3,0,0,0,.2,1h-1.9a2.1,2.1,0,0,1-.1-0.5,2.5,2.5,0,0,1-1.6.6,1.5,1.5,0,0,1-1.6-1.6c0-1.5,1.6-1.9,3.2-1.9V29.2a0.5,0.5,0,0,0-.6-0.5,0.7,0.7,0,0,0-.7.6Zm2.9,1.5c-0.5.1-1.3,0.2-1.3,0.8a0.6,0.6,0,0,0,.6.6,1.3,1.3,0,0,0,.8-0.3V30.6Z"/><path class="c" d="M138.5,27.7h1.9v0.8a2.6,2.6,0,0,1,1.7-.9,1.5,1.5,0,0,1,1.5,1.6V33h-1.9V29.6a0.6,0.6,0,0,0-.6-0.8,1.4,1.4,0,0,0-.8.5V33h-1.9V27.7Z"/><path class="c" d="M144.5,27.7h2l1,3h0l1.1-3H150l-2,5a2.5,2.5,0,0,1-2.6,1.9h-0.6V33.2h0.7c0.2,0,.9-0.1.9-0.5a1.2,1.2,0,0,0-.1-0.5Z"/><path class="c" d="M98.8,6.9V25.1H92.7V6.9a1.2,1.2,0,0,1,1.2-1.3h3.6A1.2,1.2,0,0,1,98.8,6.9Zm2.4-4.7V1.7h-0.4c-0.4-1-2-1.7-5-1.7s-4.6.7-5,1.7H90.3V2.1H89.7v23h2.4V6.9a1.5,1.5,0,0,1,1.6-1.8h3.6a1.7,1.7,0,0,1,1.9,1.8V25.1h2.4V2.1h-0.5ZM96.5,14.3a0.5,0.5,0,0,0-.5.6h0a0.5,0.5,0,0,0,.5.6h0.8a0.5,0.5,0,0,0,.5-0.6h0a0.5,0.5,0,0,0-.5-0.6H96.5Z"/></svg>
