<svg xmlns="http://www.w3.org/2000/svg" xmlns:xlink="http://www.w3.org/1999/xlink" width="10000" viewBox="0 0 151.5 38.4"><defs><style>.a,.e,.h{fill:none;}.b{isolation:isolate;}.c{fill:#1f7fc2;}.d{fill:#58595b;}.e{stroke:#58595b;stroke-width:1.94px;}.f{clip-path:url(#a);}.g{fill:url(#b);}.h{stroke:#fff;stroke-width:4.54px;}.dn,.h{stroke-miterlimit:10;}.ar,.bz,.dp,.h{mix-blend-mode:screen;}.i{fill:url(#c);}.j{fill:url(#d);}.k{fill:url(#e);}.l{fill:url(#f);}.m{fill:url(#g);}.n{fill:url(#h);}.o{fill:url(#i);}.p{fill:url(#j);}.q{fill:url(#k);}.r{fill:url(#l);}.s{fill:url(#m);}.t{fill:url(#n);}.u{fill:url(#o);}.v{fill:url(#p);}.w{fill:url(#q);}.x{fill:url(#r);}.y{fill:url(#s);}.aa,.ab,.ac,.ad,.ae,.af,.ag,.ah,.ai,.aj,.ak,.al,.am,.an,.ao,.ap,.aq,.as,.at,.au,.av,.aw,.ax,.ay,.az,.ba,.bb,.bc,.bd,.be,.bf,.bg,.bh,.bi,.bj,.bk,.bl,.bm,.bn,.bo,.bp,.bq,.br,.bs,.bt,.bu,.bv,.bw,.bx,.by,.ca,.cb,.cc,.cd,.ce,.cf,.cg,.ch,.ci,.cj,.ck,.cl,.cm,.cn,.co,.cp,.cq,.cr,.cs,.ct,.cu,.cv,.cw,.cx,.cy,.cz,.da,.db,.dc,.dd,.de,.df,.di,.z{mix-blend-mode:multiply;}.z{fill:url(#t);}.aa{fill:url(#u);}.ab{fill:url(#v);}.ac{fill:url(#w);}.ad{fill:url(#x);}.ae{fill:url(#y);}.af{fill:url(#z);}.ag{fill:url(#aa);}.ah{fill:url(#ab);}.ai{fill:url(#ac);}.aj{fill:url(#ad);}.ak{fill:url(#ae);}.al{fill:url(#af);}.am{fill:url(#ag);}.an{fill:url(#ah);}.ao{fill:url(#ai);}.ap{fill:url(#aj);}.aq{fill:url(#ak);}.ar{fill:url(#al);}.as{fill:#fff;}.at{fill:url(#am);}.au{fill:url(#an);}.av{fill:url(#ao);}.aw{fill:url(#ap);}.ax{fill:url(#aq);}.ay{fill:url(#ar);}.az{fill:url(#as);}.ba{fill:url(#at);}.bb{fill:url(#au);}.bc{fill:url(#av);}.bd{fill:url(#aw);}.be{fill:url(#ax);}.bf{fill:url(#ay);}.bg{fill:url(#az);}.bh{fill:url(#ba);}.bi{fill:url(#bb);}.bj{fill:url(#bc);}.bk{fill:url(#bd);}.bl{fill:url(#be);}.bm{fill:url(#bf);}.bn{fill:url(#bg);}.bo{fill:url(#bh);}.bp{fill:url(#bi);}.bq{fill:url(#bj);}.br{fill:url(#bk);}.bs{fill:url(#bl);}.bt{fill:url(#bm);}.bu{fill:url(#bn);}.bv{fill:url(#bo);}.bw{fill:url(#bp);}.bx{fill:url(#bq);}.by{fill:url(#br);}.ca{fill:url(#bs);}.cb{fill:url(#bt);}.cc{fill:url(#bu);}.cd{fill:url(#bv);}.ce{fill:url(#bw);}.cf{fill:url(#bx);}.cg{fill:url(#by);}.ch{fill:url(#bz);}.ci{fill:url(#ca);}.cj{fill:url(#cb);}.ck{fill:url(#cc);}.cl{fill:url(#cd);}.cm{fill:url(#ce);}.cn{fill:url(#cf);}.co{fill:url(#cg);}.cp{fill:url(#ch);}.cq{fill:url(#ci);}.cr{fill:url(#cj);}.cs{fill:url(#ck);}.ct{fill:url(#cl);}.cu{fill:url(#cm);}.cv{fill:url(#cn);}.cw{fill:url(#co);}.cx{fill:url(#cp);}.cy{fill:url(#cq);}.cz{fill:url(#cr);}.da{fill:url(#cs);}.db{fill:url(#ct);}.dc{fill:url(#cu);}.dd{fill:url(#cv);}.de{fill:url(#cw);}.df{fill:url(#cx);}.dg,.dh{mix-blend-mode:soft-light;}.dg{fill:url(#cy);}.dh{fill:url(#cz);}.di{opacity:0.2;fill:url(#da);}.dj{mix-blend-mode:overlay;}.dk{fill:url(#db);}.dl{fill:url(#dc);}.dm{mix-blend-mode:color-burn;fill:url(#dd);}.dn{stroke:#7a7a7a;stroke-width:1.69px;fill:url(#de);}.do{opacity:0.7;mix-blend-mode:color-dodge;fill:url(#df);}.dp{opacity:0.9;fill:url(#dg);}</style><clipPath id="a" transform="translate(1.5 1.4)"><circle cx="15.9" cy="15.9" r="15.9" class="a"/></clipPath><radialGradient id="b" cx="-.82" cy="-3.52" r="47.15" gradientUnits="userSpaceOnUse"><stop offset="0" stop-color="#1b1b1b"/><stop offset=".05" stop-color="#313131"/><stop offset=".19" stop-color="#676767"/><stop offset=".33" stop-color="#959595"/><stop offset=".47" stop-color="#bbb"/><stop offset=".61" stop-color="#d9d9d9"/><stop offset=".74" stop-color="#eee"/><stop offset=".87" stop-color="#fbfbfb"/><stop offset="1" stop-color="#fff"/></radialGradient><radialGradient id="c" cx="123.26" cy="-196.59" r="47.21" gradientTransform="rotate(180 73.4 -78.5)" gradientUnits="userSpaceOnUse"><stop offset="0" stop-color="#fff"/><stop offset=".37" stop-color="#d6d6d6"/><stop offset="1" stop-color="#8a8a8a"/></radialGradient><radialGradient id="d" cx="124.29" cy="-197.97" r="49.42" gradientTransform="rotate(180 73.4 -78.5)" gradientUnits="userSpaceOnUse"><stop offset="0" stop-color="#fff"/><stop offset=".24" stop-color="#e8e8e8"/><stop offset=".75" stop-color="#ababab"/><stop offset="1" stop-color="#8b8b8b"/></radialGradient><radialGradient id="e" cx="125.3" cy="-199.33" r="51.72" gradientTransform="rotate(180 73.4 -78.5)" gradientUnits="userSpaceOnUse"><stop offset="0" stop-color="#fff"/><stop offset=".19" stop-color="#efefef"/><stop offset=".58" stop-color="#c4c4c4"/><stop offset="1" stop-color="#8d8d8d"/></radialGradient><radialGradient id="f" cx="126.3" cy="-200.66" r="54.1" gradientTransform="rotate(180 73.4 -78.5)" gradientUnits="userSpaceOnUse"><stop offset="0" stop-color="#fff"/><stop offset=".17" stop-color="#f2f2f2"/><stop offset=".49" stop-color="#d1d1d1"/><stop offset=".91" stop-color="#9b9b9b"/><stop offset="1" stop-color="#8f8f8f"/></radialGradient><radialGradient id="g" cx="127.27" cy="-201.95" r="56.57" gradientTransform="rotate(180 73.4 -78.5)" gradientUnits="userSpaceOnUse"><stop offset="0" stop-color="#fff"/><stop offset=".16" stop-color="#f5f5f5"/><stop offset=".44" stop-color="#dadada"/><stop offset=".8" stop-color="#adadad"/><stop offset="1" stop-color="#919191"/></radialGradient><radialGradient id="h" cx="128.23" cy="-203.21" r="59.11" gradientTransform="rotate(180 73.4 -78.5)" gradientUnits="userSpaceOnUse"><stop offset="0" stop-color="#fff"/><stop offset=".16" stop-color="#f7f7f7"/><stop offset=".41" stop-color="#dfdfdf"/><stop offset=".72" stop-color="#bababa"/><stop offset="1" stop-color="#929292"/></radialGradient><radialGradient id="i" cx="129.16" cy="-204.45" r="61.73" gradientTransform="rotate(180 73.4 -78.5)" gradientUnits="userSpaceOnUse"><stop offset="0" stop-color="#fff"/><stop offset=".16" stop-color="#f8f8f8"/><stop offset=".39" stop-color="#e4e4e4"/><stop offset=".67" stop-color="#c3c3c3"/><stop offset=".99" stop-color="#959595"/><stop offset="1" stop-color="#949494"/></radialGradient><radialGradient id="j" cx="130.08" cy="-205.65" r="64.42" gradientTransform="rotate(180 73.4 -78.5)" gradientUnits="userSpaceOnUse"><stop offset="0" stop-color="#fff"/><stop offset=".16" stop-color="#f9f9f9"/><stop offset=".39" stop-color="#e7e7e7"/><stop offset=".64" stop-color="#cacaca"/><stop offset=".93" stop-color="#a1a1a1"/><stop offset="1" stop-color="#969696"/></radialGradient><radialGradient id="k" cx="130.98" cy="-206.82" r="67.17" gradientTransform="rotate(180 73.4 -78.5)" gradientUnits="userSpaceOnUse"><stop offset="0" stop-color="#fff"/><stop offset=".17" stop-color="#f9f9f9"/><stop offset=".38" stop-color="#e9e9e9"/><stop offset=".63" stop-color="#cfcfcf"/><stop offset=".88" stop-color="#ababab"/><stop offset="1" stop-color="#989898"/></radialGradient><radialGradient id="l" cx="131.86" cy="-207.96" r="70" gradientTransform="rotate(180 73.4 -78.5)" gradientUnits="userSpaceOnUse"><stop offset="0" stop-color="#fff"/><stop offset=".18" stop-color="#fafafa"/><stop offset=".39" stop-color="#ececec"/><stop offset=".61" stop-color="#d4d4d4"/><stop offset=".85" stop-color="#b2b2b2"/><stop offset="1" stop-color="#999"/></radialGradient><radialGradient id="m" cx="132.72" cy="-209.07" r="72.88" gradientTransform="rotate(180 73.4 -78.5)" gradientUnits="userSpaceOnUse"><stop offset="0" stop-color="#fff"/><stop offset=".19" stop-color="#fbfbfb"/><stop offset=".39" stop-color="#ededed"/><stop offset=".61" stop-color="#d7d7d7"/><stop offset=".83" stop-color="#b9b9b9"/><stop offset="1" stop-color="#9b9b9b"/></radialGradient><radialGradient id="n" cx="133.56" cy="-210.15" r="75.82" gradientTransform="rotate(180 73.4 -78.5)" gradientUnits="userSpaceOnUse"><stop offset="0" stop-color="#fff"/><stop offset=".2" stop-color="#fbfbfb"/><stop offset=".4" stop-color="#efefef"/><stop offset=".61" stop-color="#dadada"/><stop offset=".81" stop-color="#bebebe"/><stop offset="1" stop-color="#9d9d9d"/></radialGradient><radialGradient id="o" cx="134.39" cy="-211.2" r="78.81" gradientTransform="rotate(180 73.4 -78.5)" gradientUnits="userSpaceOnUse"><stop offset="0" stop-color="#fff"/><stop offset=".21" stop-color="#fbfbfb"/><stop offset=".42" stop-color="#f0f0f0"/><stop offset=".61" stop-color="#ddd"/><stop offset=".8" stop-color="#c2c2c2"/><stop offset=".99" stop-color="#a0a0a0"/><stop offset="1" stop-color="#9f9f9f"/></radialGradient><radialGradient id="p" cx="135.19" cy="-212.22" r="81.85" gradientTransform="rotate(180 73.4 -78.5)" gradientUnits="userSpaceOnUse"><stop offset="0" stop-color="#fff"/><stop offset=".23" stop-color="#fcfcfc"/><stop offset=".43" stop-color="#f1f1f1"/><stop offset=".62" stop-color="#dfdfdf"/><stop offset=".8" stop-color="#c6c6c6"/><stop offset=".97" stop-color="#a6a6a6"/><stop offset="1" stop-color="#a0a0a0"/></radialGradient><radialGradient id="q" cx="135.98" cy="-213.21" r="84.93" gradientTransform="rotate(180 73.4 -78.5)" gradientUnits="userSpaceOnUse"><stop offset="0" stop-color="#fff"/><stop offset=".25" stop-color="#fcfcfc"/><stop offset=".45" stop-color="#f2f2f2"/><stop offset=".63" stop-color="#e1e1e1"/><stop offset=".8" stop-color="#cacaca"/><stop offset=".96" stop-color="#acacac"/><stop offset="1" stop-color="#a2a2a2"/></radialGradient><radialGradient id="r" cx="136.75" cy="-214.16" r="88.05" gradientTransform="rotate(180 73.4 -78.5)" gradientUnits="userSpaceOnUse"><stop offset="0" stop-color="#fff"/><stop offset=".27" stop-color="#fcfcfc"/><stop offset=".47" stop-color="#f3f3f3"/><stop offset=".64" stop-color="#e3e3e3"/><stop offset=".8" stop-color="#cdcdcd"/><stop offset=".95" stop-color="#b0b0b0"/><stop offset="1" stop-color="#a4a4a4"/></radialGradient><radialGradient id="s" cx="137.5" cy="-215.09" r="91.21" gradientTransform="rotate(180 73.4 -78.5)" gradientUnits="userSpaceOnUse"><stop offset="0" stop-color="#fff"/><stop offset=".3" stop-color="#fcfcfc"/><stop offset=".49" stop-color="#f4f4f4"/><stop offset=".66" stop-color="#e5e5e5"/><stop offset=".8" stop-color="#cfcfcf"/><stop offset=".94" stop-color="#b4b4b4"/><stop offset="1" stop-color="#a6a6a6"/></radialGradient><radialGradient id="t" cx="45.92" cy="12.56" r="107.29" gradientUnits="userSpaceOnUse"><stop offset="0" stop-color="#fff"/><stop offset=".4" stop-color="#d6d6d6"/><stop offset="1" stop-color="#949494"/></radialGradient><radialGradient id="u" cx="44.02" cy="12.87" r="96.77" xlink:href="#t"/><radialGradient id="v" cx="42.15" cy="13.18" r="87.2" xlink:href="#t"/><radialGradient id="w" cx="40.28" cy="13.48" r="78.54" xlink:href="#t"/><radialGradient id="x" cx="38.43" cy="13.78" r="70.77" xlink:href="#t"/><radialGradient id="y" cx="36.59" cy="14.08" r="63.84" xlink:href="#t"/><radialGradient id="z" cx="34.77" cy="14.38" r="57.67" xlink:href="#t"/><radialGradient id="aa" cx="32.96" cy="14.67" r="52.19" xlink:href="#t"/><radialGradient id="ab" cx="31.16" cy="14.97" r="47.31" xlink:href="#t"/><radialGradient id="ac" cx="29.38" cy="15.26" r="42.91" xlink:href="#t"/><radialGradient id="ad" cx="27.61" cy="15.55" r="38.88" xlink:href="#t"/><radialGradient id="ae" cx="25.85" cy="15.83" r="35.08" xlink:href="#t"/><radialGradient id="af" cx="24.11" cy="16.12" r="31.38" xlink:href="#t"/><radialGradient id="ag" cx="22.38" cy="16.4" r="27.68" xlink:href="#t"/><radialGradient id="ah" cx="20.66" cy="16.68" r="23.85" xlink:href="#t"/><radialGradient id="ai" cx="18.96" cy="16.96" r="19.81" xlink:href="#t"/><radialGradient id="aj" cx="17.27" cy="17.23" r="15.47" xlink:href="#t"/><radialGradient id="ak" cx="17.36" cy="17.28" r="11.48" xlink:href="#t"/><radialGradient id="al" cx="17.34" cy="17.27" r="12.31" xlink:href="#t"/><radialGradient id="am" cx="8.08" cy="-2.54" r="16.6" gradientTransform="matrix(1 0 0 1 6.4 12.6)" gradientUnits="userSpaceOnUse"><stop offset="0" stop-color="#fff"/><stop offset="1" stop-color="#f8f8f8"/></radialGradient><radialGradient id="an" cx="2.36" cy="-15.08" r="16.71" gradientTransform="matrix(1 -.1 .1 1 12.9 25.2)" gradientUnits="userSpaceOnUse"><stop offset="0" stop-color="#fff"/><stop offset="1" stop-color="#f2f2f2"/></radialGradient><radialGradient id="ao" cx="-2.54" cy="-28.14" r="16.79" gradientTransform="matrix(1 -.1 .1 1 19.3 37.8)" gradientUnits="userSpaceOnUse"><stop offset="0" stop-color="#fff"/><stop offset="1" stop-color="#ebebeb"/></radialGradient><radialGradient id="ap" cx="-6.54" cy="-41.66" r="16.84" gradientTransform="matrix(1 -.1 .1 1 25.8 50.4)" gradientUnits="userSpaceOnUse"><stop offset="0" stop-color="#fff"/><stop offset="1" stop-color="#e4e4e4"/></radialGradient><radialGradient id="aq" cx="-9.6" cy="-55.55" r="16.88" gradientTransform="matrix(1 -.2 .2 1 32.2 63)" gradientUnits="userSpaceOnUse"><stop offset="0" stop-color="#fff"/><stop offset="1" stop-color="#dedede"/></radialGradient><radialGradient id="ar" cx="-11.65" cy="-69.71" r="16.88" gradientTransform="matrix(.9 -.2 .2 .9 38.7 75.6)" gradientUnits="userSpaceOnUse"><stop offset="0" stop-color="#fff"/><stop offset="1" stop-color="#d7d7d7"/></radialGradient><radialGradient id="as" cx="-12.67" cy="-84.04" r="16.85" gradientTransform="matrix(.9 -.2 .2 .9 45.1 88.2)" gradientUnits="userSpaceOnUse"><stop offset="0" stop-color="#fff"/><stop offset=".87" stop-color="#d7d7d7"/><stop offset="1" stop-color="#d0d0d0"/></radialGradient><radialGradient id="at" cx="-12.64" cy="-98.43" r="16.8" gradientTransform="matrix(.9 -.3 .3 .9 51.5 100.8)" gradientUnits="userSpaceOnUse"><stop offset="0" stop-color="#fff"/><stop offset=".76" stop-color="#d7d7d7"/><stop offset="1" stop-color="#c9c9c9"/></radialGradient><radialGradient id="au" cx="-11.56" cy="-112.78" r="16.72" gradientTransform="matrix(.9 -.3 .3 .9 58 113.3)" gradientUnits="userSpaceOnUse"><stop offset="0" stop-color="#fff"/><stop offset=".69" stop-color="#d7d7d7"/><stop offset="1" stop-color="#c3c3c3"/></radialGradient><radialGradient id="av" cx="-9.43" cy="-126.98" r="16.62" gradientTransform="matrix(.9 -.3 .3 .9 64.4 125.9)" gradientUnits="userSpaceOnUse"><stop offset="0" stop-color="#fff"/><stop offset=".62" stop-color="#d7d7d7"/><stop offset="1" stop-color="#bcbcbc"/></radialGradient><radialGradient id="aw" cx="-6.28" cy="-140.92" r="16.48" gradientTransform="matrix(.9 -.4 .4 .9 70.9 138.5)" gradientUnits="userSpaceOnUse"><stop offset="0" stop-color="#fff"/><stop offset=".57" stop-color="#d7d7d7"/><stop offset="1" stop-color="#b5b5b5"/></radialGradient><radialGradient id="ax" cx="-2.16" cy="-154.51" r="16.32" gradientTransform="matrix(.9 -.4 .4 .9 77.3 151.1)" gradientUnits="userSpaceOnUse"><stop offset="0" stop-color="#fff"/><stop offset=".53" stop-color="#d7d7d7"/><stop offset="1" stop-color="#afafaf"/></radialGradient><radialGradient id="ay" cx="2.89" cy="-167.66" r="16.14" gradientTransform="rotate(-28.2 405.5 -83.6)" gradientUnits="userSpaceOnUse"><stop offset="0" stop-color="#fff"/><stop offset=".49" stop-color="#d6d6d6"/><stop offset="1" stop-color="#a8a8a8"/></radialGradient><radialGradient id="az" cx="8.78" cy="-180.27" r="15.94" gradientTransform="rotate(-29.5 406.3 -81.3)" gradientUnits="userSpaceOnUse"><stop offset="0" stop-color="#fff"/><stop offset=".46" stop-color="#d6d6d6"/><stop offset="1" stop-color="#a1a1a1"/></radialGradient><radialGradient id="ba" cx="15.45" cy="-192.3" r="15.71" gradientTransform="rotate(-30.7 408.5 -80.5)" gradientUnits="userSpaceOnUse"><stop offset="0" stop-color="#fff"/><stop offset=".43" stop-color="#d6d6d6"/><stop offset="1" stop-color="#9b9b9b"/></radialGradient><radialGradient id="bb" cx="22.82" cy="-203.67" r="15.47" gradientTransform="rotate(-31.7 406.4 -80.8)" xlink:href="#t"/><radialGradient id="bc" cx="10.02" cy="10.19" r="14.28" xlink:href="#am"/><radialGradient id="bd" cx="4.23" cy="-3.02" r="14.62" xlink:href="#an"/><radialGradient id="be" cx="-.75" cy="-16.81" r="14.93" xlink:href="#ao"/><radialGradient id="bf" cx="-4.85" cy="-31.09" r="15.21" xlink:href="#ap"/><radialGradient id="bg" cx="-8.01" cy="-45.78" r="15.46" xlink:href="#aq"/><radialGradient id="bh" cx="-10.18" cy="-60.78" r="15.67" xlink:href="#ar"/><radialGradient id="bi" cx="-11.33" cy="-75.98" r="15.84" xlink:href="#as"/><radialGradient id="bj" cx="-11.43" cy="-91.27" r="15.96" xlink:href="#at"/><radialGradient id="bk" cx="-10.48" cy="-106.53" r="16.05" xlink:href="#au"/><radialGradient id="bl" cx="-8.49" cy="-121.65" r="16.09" xlink:href="#av"/><radialGradient id="bm" cx="-5.5" cy="-136.51" r="16.08" xlink:href="#aw"/><radialGradient id="bn" cx="-1.53" cy="-151.02" r="16.04" xlink:href="#ax"/><radialGradient id="bo" cx="3.36" cy="-165.07" r="15.95" xlink:href="#ay"/><radialGradient id="bp" cx="9.09" cy="-178.57" r="15.83" xlink:href="#az"/><radialGradient id="bq" cx="15.61" cy="-191.46" r="15.66" xlink:href="#ba"/><radialGradient id="br" cx="22.82" cy="-203.67" r="15.47" gradientTransform="rotate(-31.7 406.4 -80.8)" xlink:href="#t"/><radialGradient id="bs" cx="23.01" cy="12.84" r="17.16" gradientTransform="matrix(1 0 0 1 -8.4 7.1)" xlink:href="#am"/><radialGradient id="bt" cx="31.47" cy="4.47" r="17.13" gradientTransform="rotate(8.1 -338.2 -268.2)" xlink:href="#an"/><radialGradient id="bu" cx="39.6" cy="-4.33" r="17.09" gradientTransform="rotate(8.1 -349.3 -309.8)" xlink:href="#ao"/><radialGradient id="bv" cx="47.37" cy="-13.55" r="17.04" gradientTransform="matrix(1 .1 -.1 1 -33.6 28.5)" xlink:href="#ap"/><radialGradient id="bw" cx="54.75" cy="-23.17" r="16.97" gradientTransform="matrix(1 .1 -.1 1 -42 35.6)" xlink:href="#aq"/><radialGradient id="bx" cx="61.72" cy="-33.16" r="16.89" gradientTransform="rotate(14 -375.5 -288.2)" xlink:href="#ar"/><radialGradient id="by" cx="68.23" cy="-43.49" r="16.8" gradientTransform="matrix(1 .2 -.2 1 -58.7 49.8)" xlink:href="#as"/><radialGradient id="bz" cx="74.28" cy="-54.13" r="16.69" gradientTransform="matrix(1 .2 -.2 1 -67.1 56.9)" xlink:href="#at"/><radialGradient id="ca" cx="79.83" cy="-65.03" r="16.58" gradientTransform="matrix(1 .2 -.2 1 -75.5 64)" xlink:href="#au"/><radialGradient id="cb" cx="84.88" cy="-76.17" r="16.45" gradientTransform="matrix(1 .2 -.2 1 -83.9 71.2)" xlink:href="#av"/><radialGradient id="cc" cx="89.4" cy="-87.51" r="16.31" gradientTransform="matrix(1 .3 -.3 1 -92.3 78.3)" xlink:href="#aw"/><radialGradient id="cd" cx="93.39" cy="-99.01" r="16.16" gradientTransform="rotate(18 -364.8 -301.9)" xlink:href="#ax"/><radialGradient id="ce" cx="96.83" cy="-110.62" r="16" gradientTransform="rotate(19.1 -368.4 -299.7)" xlink:href="#ay"/><radialGradient id="cf" cx="99.74" cy="-122.32" r="15.83" gradientTransform="rotate(20.3 -372.1 -297.2)" xlink:href="#az"/><radialGradient id="cg" cx="102.09" cy="-134.05" r="15.65" gradientTransform="rotate(20 -365.5 -303.7)" xlink:href="#ba"/><radialGradient id="ch" cx="103.91" cy="-145.78" r="15.47" gradientTransform="rotate(21.6 -374.6 -300.2)" xlink:href="#t"/><radialGradient id="ci" cx="25.28" cy="3.8" r="16.66" gradientTransform="matrix(1 0 0 1 -8.4 7.1)" xlink:href="#am"/><radialGradient id="cj" cx="33.61" cy="-4.01" r="16.71" gradientTransform="rotate(8.1 -338.2 -268.2)" xlink:href="#an"/><radialGradient id="ck" cx="41.6" cy="-12.25" r="16.74" gradientTransform="rotate(8.1 -349.3 -309.8)" xlink:href="#ao"/><radialGradient id="cl" cx="49.24" cy="-20.89" r="16.75" gradientTransform="matrix(1 .1 -.1 1 -33.6 28.5)" xlink:href="#ap"/><radialGradient id="cm" cx="56.47" cy="-29.92" r="16.75" gradientTransform="matrix(1 .1 -.1 1 -42 35.6)" xlink:href="#aq"/><radialGradient id="cn" cx="63.29" cy="-39.31" r="16.72" gradientTransform="rotate(14 -375.5 -288.2)" xlink:href="#ar"/><radialGradient id="co" cx="69.65" cy="-49.03" r="16.68" gradientTransform="matrix(1 .2 -.2 1 -58.7 49.8)" xlink:href="#as"/><radialGradient id="cp" cx="75.54" cy="-59.05" r="16.61" gradientTransform="matrix(1 .2 -.2 1 -67.1 56.9)" xlink:href="#at"/><radialGradient id="cq" cx="80.94" cy="-69.33" r="16.53" gradientTransform="matrix(1 .2 -.2 1 -75.5 64)" xlink:href="#au"/><radialGradient id="cr" cx="85.83" cy="-79.85" r="16.43" gradientTransform="matrix(1 .2 -.2 1 -83.9 71.2)" xlink:href="#av"/><radialGradient id="cs" cx="90.19" cy="-90.57" r="16.31" gradientTransform="matrix(1 .3 -.3 1 -92.3 78.3)" xlink:href="#aw"/><radialGradient id="ct" cx="94.02" cy="-101.44" r="16.18" gradientTransform="rotate(18 -364.8 -301.9)" xlink:href="#ax"/><radialGradient id="cu" cx="97.31" cy="-112.44" r="16.02" gradientTransform="rotate(19.1 -368.4 -299.7)" xlink:href="#ay"/><radialGradient id="cv" cx="100.05" cy="-123.52" r="15.85" gradientTransform="rotate(20.3 -372.1 -297.2)" xlink:href="#az"/><radialGradient id="cw" cx="102.25" cy="-134.64" r="15.67" gradientTransform="rotate(20 -365.5 -303.7)" xlink:href="#ba"/><radialGradient id="cx" cx="103.91" cy="-145.78" r="15.47" gradientTransform="rotate(21.6 -374.6 -300.2)" xlink:href="#t"/><radialGradient id="cy" cx="45.13" cy="-1.5" r="66.5" gradientUnits="userSpaceOnUse"><stop offset="0" stop-color="#fff"/><stop offset=".03" stop-color="#d6e7ff"/><stop offset=".11" stop-color="#70acff"/><stop offset=".15" stop-color="#2e85ff"/><stop offset=".34" stop-color="#2ec1ff"/><stop offset=".56" stop-color="#00d4e7"/><stop offset=".76" stop-color="#177fff"/><stop offset="1" stop-color="#003f8b"/></radialGradient><radialGradient id="cz" cx="43.52" cy="-.39" r="62.6" xlink:href="#cy"/><radialGradient id="da" cx="17.11" cy="17.38" r="16.06" gradientUnits="userSpaceOnUse"><stop offset="0" stop-color="#fff"/><stop offset=".89" stop-color="#fff"/><stop offset="1"/></radialGradient><radialGradient id="db" cx="-1364.27" cy="-292.28" r="14.04" gradientTransform="matrix(-.8 .5 .5 .8 -976 997.1)" gradientUnits="userSpaceOnUse"><stop offset=".06" stop-color="#fefefe"/><stop offset=".15" stop-color="#f0f0f0"/><stop offset=".31" stop-color="#ccc"/><stop offset=".53" stop-color="#929292"/><stop offset=".79" stop-color="#434343"/><stop offset="1"/></radialGradient><radialGradient id="dc" cx="-1367.41" cy="-154.44" r="14.04" gradientTransform="matrix(-.8 .6 .6 .8 -960.7 985.5)" xlink:href="#db"/><radialGradient id="dd" cx="158.15" cy="-29.94" r="15.99" gradientTransform="matrix(1 0 0 -1 -140.8 -12.5)" gradientUnits="userSpaceOnUse"><stop offset=".62" stop-color="#fefefe"/><stop offset=".68" stop-color="#f0f0f0"/><stop offset=".78" stop-color="#cdcdcd"/><stop offset=".91" stop-color="#939393"/><stop offset="1" stop-color="#6b6b6b"/></radialGradient><radialGradient id="de" cx="-1364.27" cy="-291.73" r="5.48" gradientTransform="matrix(-1 0 0 1 -1348.5 307.5)" gradientUnits="userSpaceOnUse"><stop offset="0"/><stop offset=".86"/><stop offset="1"/></radialGradient><radialGradient id="df" cx="-1361.19" cy="-290.54" r="8.1" gradientTransform="matrix(-1 0 0 1 -1347.2 309)" gradientUnits="userSpaceOnUse"><stop offset=".02" stop-color="#f6f6f6"/><stop offset=".05" stop-color="#d8d8d8"/><stop offset=".1" stop-color="#ababab"/><stop offset=".17" stop-color="#828282"/><stop offset=".23" stop-color="#5f5f5f"/><stop offset=".3" stop-color="#414141"/><stop offset=".38" stop-color="#292929"/><stop offset=".47" stop-color="#171717"/><stop offset=".58" stop-color="#0a0a0a"/><stop offset=".71" stop-color="#020202"/><stop offset="1"/></radialGradient><radialGradient id="dg" cx="164.65" cy="-28.77" r="10.1" gradientTransform="matrix(.8 .5 .5 -.8 -102.8 -96.7)" gradientUnits="userSpaceOnUse"><stop offset="0" stop-color="#fff"/><stop offset=".14" stop-color="#fbfbfb"/><stop offset=".27" stop-color="#efefef"/><stop offset=".41" stop-color="#dbdbdb"/><stop offset=".55" stop-color="#bfbfbf"/><stop offset=".69" stop-color="#9a9a9a"/><stop offset=".83" stop-color="#6e6e6e"/><stop offset=".96" stop-color="#3a3a3a"/><stop offset="1" stop-color="#2b2b2b"/></radialGradient></defs><g class="b"><path d="M37.7 9.1a.7.7 0 0 0-.8-.8h-1.5v-4h4.4c1.7 0 2.5.8 2.5 2.5v5.4c0 .9-.1 1.6-.1 1.6h.1a6.6 6.6 0 0 1 5.6-2.6c5.1 0 8.3 4 8.3 9.8s-3.6 9.8-8.6 9.8a6.7 6.7 0 0 1-5.6-2.6 9.8 9.8 0 0 1 .1 1.2v1h-4.4V9.1zm9.2 17.8c2.5 0 4.7-2.1 4.7-5.8s-1.9-5.9-4.7-5.9-4.7 1.8-4.7 5.9 1.5 5.7 4.6 5.7zM58.6 9.1a.7.7 0 0 0-.8-.8h-1.5v-4h4.4c1.7 0 2.5.8 2.5 2.5v18.8a.7.7 0 0 0 .8.8h1.5v3.9h-4.4c-1.8 0-2.5-.7-2.5-2.5V9.1zM67.8 16.4a.7.7 0 0 0-.8-.8h-1.5v-4h4.4c1.7 0 2.5.8 2.5 2.5v8.6c0 2.3.6 3.8 2.9 3.8s5.2-3 5.2-6.3v-8.6h4.7v14a.7.7 0 0 0 .8.8h1.5v3.9h-4.3c-1.6 0-2.5-.8-2.5-2.1v-.5-.8a7.1 7.1 0 0 1-6.4 3.9c-4 0-6.4-2-6.4-7.1v-7.3zM97.4 11.2c5.3 0 8.3 3.9 8.3 8.9 0 .5-.1 1.7-.1 1.7H92.7a5.4 5.4 0 0 0 5.6 5 8.5 8.5 0 0 0 5.2-2.1l1.9 3.2a11.4 11.4 0 0 1-7.5 2.8c-6.2 0-10-4.5-10-9.8s3.9-9.7 9.5-9.7zm3.5 7.4a3.6 3.6 0 0 0-3.5-3.8 4.5 4.5 0 0 0-4.6 3.8h8.1z" class="c"/><path d="M113.8 11a.3.3 0 0 0-.4-.4h-.7V8.8h2.1A1 1 0 0 1 116 10v8.8a.3.3 0 0 0 .4.4h.7V21H115a1 1 0 0 1-1.2-1.2V11zM123.2 15.5h.3c0-1.3-.5-1.7-1.6-1.7s-1.2.1-1.2.6v.5h-2v-1.1c0-1.6 2.3-1.8 3.2-1.8 2.9 0 3.8 1.5 3.8 3.5v3.3a.3.3 0 0 0 .4.4h.7V21h-2a1 1 0 0 1-1.1-1v-.4a2.9 2.9 0 0 1-2.7 1.6 2.8 2.8 0 0 1-3-2.7c0-2.8 3.8-3 5.2-3zm-1.7 4a2.3 2.3 0 0 0 2-2.3V17h-.4c-1.1 0-2.9.2-2.9 1.4a1.2 1.2 0 0 0 1.4 1.1zM128.6 18.2a3.9 3.9 0 0 0 2.6 1.3 1 1 0 0 0 1.2-.9c0-1.2-4.6-1.2-4.6-4.1s1.6-2.6 3.4-2.6 3.1.4 3.1 1.8v.9h-1.9v-.3a1 1 0 0 0-1.1-.6c-.8 0-1.3.3-1.3.8s4.7 1.1 4.7 4-1.5 2.7-3.4 2.7a4.8 4.8 0 0 1-3.7-1.6zM140.2 12c2.5 0 3.9 1.8 3.9 4.2 0 .3-.1.8-.1.8h-6.1a2.5 2.5 0 0 0 2.6 2.4 4 4 0 0 0 2.5-1l.9 1.5a5.3 5.3 0 0 1-3.5 1.3 4.5 4.5 0 0 1-4.7-4.6 4.3 4.3 0 0 1 4.5-4.6zm1.7 3.5a1.7 1.7 0 0 0-1.7-1.8 2.1 2.1 0 0 0-2.2 1.8h3.8zM146.2 14.5a.3.3 0 0 0-.4-.4h-.7v-1.9h2a1 1 0 0 1 1.2 1.1v.5a4 4 0 0 1 0 .6 3 3 0 0 1 2.8-2.3h.4v2.2h-.5a2.5 2.5 0 0 0-2.4 1.8 5.3 5.3 0 0 0-.2 1.4V21h-2.2v-6.5zM117 23.3a2.3 2.3 0 0 1 2.4 1.2v-.2a.7.7 0 0 1 .8-.8h1v.8h-.6a.3.3 0 0 0-.3.3v5.8c0 2.3-1.7 3.1-3.4 3.1a5.2 5.2 0 0 1-2.3-.6l.4-.8a4.4 4.4 0 0 0 1.9.5c1.4 0 2.5-.7 2.5-2.2v-.6-.5a2.3 2.3 0 0 1-2.2 1.2c-1.9 0-3.2-1.5-3.2-3.7s1.1-3.5 3-3.5zm2.4 3.6c0-2.1-1-2.7-2.3-2.7s-2.2 1-2.2 2.7.9 2.8 2.3 2.8 2.2-.7 2.2-2.8zM122.8 24.6a.3.3 0 0 0-.3-.3h-.6v-.8h1a.7.7 0 0 1 .9.8v.5a5.1 5.1 0 0 1 0 .5 2.4 2.4 0 0 1 2.3-1.9h.4v1h-.4a2.3 2.3 0 0 0-2.1 1.8 4.7 4.7 0 0 0-.2 1.4v3h-1v-6zM130.7 23.3a3.7 3.7 0 1 1-3.8 3.7 3.7 3.7 0 0 1 3.8-3.7zm0 6.6a2.8 2.8 0 0 0 2.8-2.9 2.8 2.8 0 1 0-5.5 0 2.8 2.8 0 0 0 2.7 2.9zM136.2 24.6a.3.3 0 0 0-.3-.3h-.6v-.8h1a.7.7 0 0 1 .9.8v3.4c0 1.1.2 2.1 1.6 2.1a2.8 2.8 0 0 0 2.6-3v-3.3h1v6a.3.3 0 0 0 .3.3h.6v.8h-1a.7.7 0 0 1-.9-.8v-.3a4.5 4.5 0 0 1 0-.5 3 3 0 0 1-2.8 1.8c-1.7 0-2.4-.9-2.4-2.8v-3.4zM144.8 24.6a.3.3 0 0 0-.3-.3h-.6v-.8h1a.7.7 0 0 1 .8.8v.5a2.6 2.6 0 0 1 2.5-1.4c1.9 0 3.1 1.5 3.1 3.7s-1.3 3.7-3.2 3.7a2.5 2.5 0 0 1-2.3-1.3 6.2 6.2 0 0 1 0 .6v3.3h-1v-8.8zm3.2 5.3c1.3 0 2.3-1.1 2.3-2.9s-.9-2.9-2.3-2.9-2.3.8-2.3 2.9.8 2.9 2.3 2.9z" class="d"/><path d="M109.6 6v30.2" class="e"/><g class="f"><circle cx="17.4" cy="17.4" r="17.4" class="g"/><path d="M31.4 30.3a19.9 19.9 0 0 1-28.2 0" class="h"/><circle cx="17.6" cy="17.4" r="15.5" class="i"/><circle cx="17.6" cy="17.4" r="15.3" class="j"/><circle cx="17.6" cy="17.4" r="15.2" class="k"/><circle cx="17.6" cy="17.4" r="15" class="l"/><circle cx="17.6" cy="17.4" r="14.9" class="m"/><circle cx="17.6" cy="17.4" r="14.7" class="n"/><circle cx="17.6" cy="17.4" r="14.6" class="o"/><circle cx="17.6" cy="17.4" r="14.4" class="p"/><circle cx="17.6" cy="17.4" r="14.3" class="q"/><circle cx="17.6" cy="17.4" r="14.1" class="r"/><circle cx="17.6" cy="17.4" r="14" class="s"/><circle cx="17.6" cy="17.4" r="13.8" class="t"/><circle cx="17.6" cy="17.4" r="13.7" class="u"/><circle cx="17.6" cy="17.4" r="13.5" class="v"/><circle cx="17.6" cy="17.4" r="13.4" class="w"/><circle cx="17.6" cy="17.4" r="13.3" class="x"/><circle cx="17.6" cy="17.4" r="13.1" class="y"/><circle cx="17.6" cy="17.4" r="16.5" class="z"/><circle cx="17.6" cy="17.4" r="16.4" class="aa"/><circle cx="17.6" cy="17.4" r="16.3" class="ab"/><circle cx="17.6" cy="17.4" r="16.3" class="ac"/><circle cx="17.6" cy="17.4" r="16.2" class="ad"/><circle cx="17.6" cy="17.4" r="16.1" class="ae"/><circle cx="17.6" cy="17.4" r="16.1" class="af"/><circle cx="17.6" cy="17.4" r="16" class="ag"/><circle cx="17.6" cy="17.4" r="16" class="ah"/><circle cx="17.6" cy="17.4" r="15.9" class="ai"/><circle cx="17.6" cy="17.4" r="15.8" class="aj"/><circle cx="17.6" cy="17.4" r="15.8" class="ak"/><circle cx="17.6" cy="17.4" r="15.7" class="al"/><circle cx="17.6" cy="17.4" r="15.6" class="am"/><circle cx="17.6" cy="17.4" r="15.6" class="an"/><circle cx="17.6" cy="17.4" r="15.5" class="ao"/><circle cx="17.6" cy="17.4" r="15.5" class="ap"/><circle cx="17.6" cy="17.4" r="11.5" class="aq"/><circle cx="17.6" cy="17.4" r="12.3" class="ar"/><path d="M21.7 2l.7.2a16.2 16.2 0 0 1 11.1 15.2v.7l-17.4.4z" class="as"/><path d="M21.7 2l.7.2a16.1 16.1 0 0 1 11.1 15.2v.7l-17.3.4z" class="at"/><path d="M21.7 2.1l.7.2a16.1 16.1 0 0 1 11 15v.7l-17.1.4z" class="au"/><path d="M21.8 2.2l.6.2a16 16 0 0 1 11 14.9v.7l-17.1.4z" class="av"/><path d="M21.8 2.2l.6.2a16 16 0 0 1 10.9 14.8v.7l-17 .4z" class="aw"/><path d="M21.8 2.3l.7.2a15.9 15.9 0 0 1 10.8 14.7v.7l-16.8.4z" class="ax"/><path d="M21.8 2.3l.7.2a15.9 15.9 0 0 1 10.8 14.7v.7l-16.8.3z" class="ay"/><path d="M21.9 2.4l.6.2a15.9 15.9 0 0 1 10.7 14.5v.7l-16.6.4z" class="az"/><path d="M21.9 2.4l.6.3a15.8 15.8 0 0 1 10.7 14.4v.7l-16.5.4z" class="ba"/><path d="M21.9 2.5l.6.2a15.8 15.8 0 0 1 10.6 14.4v.7l-16.4.4z" class="bb"/><path d="M22 2.6l.6.2A15.7 15.7 0 0 1 33.1 17v.6l-16.3.4z" class="bc"/><path d="M22 2.6l.6.2A15.7 15.7 0 0 1 33 17v.6l-16.2.4z" class="bd"/><path d="M22 2.7l.6.2a15.6 15.6 0 0 1 10.4 14v.6l-16.1.4z" class="be"/><path d="M22 2.7l.6.2a15.6 15.6 0 0 1 10.3 14v.6l-16 .4z" class="bf"/><path d="M22.1 2.8l.6.2a15.5 15.5 0 0 1 10.2 13.9v.6l-15.9.4z" class="bg"/><path d="M22.1 2.8l.6.2a15.5 15.5 0 0 1 10.1 13.8v.6l-15.8.4z" class="bh"/><path d="M32.8 17.4A15.5 15.5 0 0 0 22.1 2.9l-5 14.9z" class="bi"/><path d="M12.1 32.9A16.2 16.2 0 0 1 1.2 18.2v-.8l17-.4-5.4 16.1z" class="as"/><path d="M1.2 17.5l16.9-.4-5.3 16-.7-.2A16.1 16.1 0 0 1 1.2 18.2v-.7z" class="bj"/><path d="M1.2 17.5l16.8-.4L12.7 33l-.7-.2A16.1 16.1 0 0 1 1.3 18.2v-.7z" class="bk"/><path d="M1.3 17.6l16.7-.4L12.7 33l-.7-.2A16 16 0 0 1 1.3 18.3v-.7z" class="bl"/><path d="M1.3 17.6l16.6-.4-5.2 15.7-.7-.2A16 16 0 0 1 1.4 18.3v-.7z" class="bm"/><path d="M1.4 17.7l16.4-.4-5.2 15.5-.7-.2A15.9 15.9 0 0 1 1.4 18.3v-.6z" class="bn"/><path d="M1.4 17.7l16.3-.4-5.1 15.5-.7-.2A15.9 15.9 0 0 1 1.5 18.4v-.7z" class="bo"/><path d="M1.5 17.7l16.2-.3-5.1 15.3-.6-.2A15.8 15.8 0 0 1 1.5 18.4v-.7z" class="bp"/><path d="M1.5 17.8l16.1-.4-5.1 15.3-.6-.3A15.8 15.8 0 0 1 1.6 18.5v-.7z" class="bq"/><path d="M1.6 17.8l16-.4-5.1 15.2-.6-.2A15.7 15.7 0 0 1 1.6 18.5v-.7z" class="br"/><path d="M1.6 17.9l15.9-.4-5 15.1-.6-.2A15.7 15.7 0 0 1 1.7 18.5v-.6z" class="bs"/><path d="M1.7 17.9l15.8-.4-5 15-.6-.2A15.7 15.7 0 0 1 1.7 18.6v-.7z" class="bt"/><path d="M1.7 18l15.7-.4-5 14.8-.6-.2A15.6 15.6 0 0 1 1.7 18.6V18z" class="bu"/><path d="M1.8 18l15.6-.4-5 14.8-.6-.2a15.6 15.6 0 0 1-10-13.6V18z" class="bv"/><path d="M1.8 18l15.5-.4-4.9 14.7-.6-.2a15.5 15.5 0 0 1-10-13.4V18z" class="bw"/><path d="M1.9 18.1l15.4-.4-5 14.6-.6-.2a15.5 15.5 0 0 1-9.8-13.4v-.6z" class="bx"/><path d="M1.9 18.1a15.4 15.4 0 0 0 10.4 14.1l4.8-14.4z" class="by"/><g class="bz"><path d="M32.4 11.7l.2.7a16.2 16.2 0 0 1-5.4 18l-.6.4-10.7-13.6z" class="as"/><path d="M15.9 17.2l16.4-5.5.3.7a16.1 16.1 0 0 1-5.4 18l-.6.4z" class="ca"/><path d="M16 17.2l16.3-5.5.3.7a16.1 16.1 0 0 1-5.3 17.8l-.6.4z" class="cb"/><path d="M16.1 17.2l16.2-5.4.2.7a16 16 0 0 1-5.3 17.7l-.5.4z" class="cc"/><path d="M16.2 17.3l16.1-5.4.2.6a16 16 0 0 1-5.3 17.6l-.5.4z" class="cd"/><path d="M16.2 17.3l16-5.3.3.6a15.9 15.9 0 0 1-5.2 17.5l-.5.4z" class="ce"/><path d="M16.3 17.3L32.2 12l.2.6A15.9 15.9 0 0 1 27.2 30l-.5.4z" class="cf"/><path d="M16.4 17.3L32.2 12l.2.6a15.8 15.8 0 0 1-5.2 17.3l-.5.4z" class="cg"/><path d="M16.5 17.4l15.7-5.2.2.6A15.8 15.8 0 0 1 27.3 30l-.5.4z" class="ch"/><path d="M16.5 17.4l15.6-5.2.2.6a15.8 15.8 0 0 1-5.1 17.1l-.5.4z" class="ci"/><path d="M16.6 17.4l15.5-5.2.2.6a15.7 15.7 0 0 1-5.1 17l-.5.4z" class="cj"/><path d="M16.7 17.4l15.4-5.1.2.6a15.7 15.7 0 0 1-5 16.8l-.5.4z" class="ck"/><path d="M16.8 17.4l15.3-5.1.2.6a15.6 15.6 0 0 1-5 16.7l-.5.4z" class="cl"/><path d="M16.8 17.5L32 12.4l.2.6a15.6 15.6 0 0 1-5 16.6l-.5.4z" class="cm"/><path d="M16.9 17.5l15.1-5 .2.6a15.5 15.5 0 0 1-4.9 16.5l-.5.4z" class="cn"/><path d="M17 17.5l15-5 .2.6a15.5 15.5 0 0 1-4.9 16.4l-.5.4z" class="co"/><path d="M26.8 29.8A15.5 15.5 0 0 0 32 12.5l-14.9 5z" class="cp"/></g><g class="bz"><path d="M1.9 22.6A16.2 16.2 0 0 1 7.2 5l.6-.5 10.5 13.4-16.1 5.4z" class="as"/><path d="M7.7 4.6l10.5 13.3-16 5.3-.2-.7A16.1 16.1 0 0 1 7.1 5.1z" class="cq"/><path d="M7.7 4.7l10.4 13.1-15.9 5.4-.2-.7A16.1 16.1 0 0 1 7.1 5.1z" class="cr"/><path d="M7.7 4.7L18 17.8 2.2 23.1l-.2-.7A16 16 0 0 1 7.1 5.2z" class="cs"/><path d="M7.7 4.8l10.3 13L2.3 23l-.2-.6a16 16 0 0 1 5-17.2z" class="ct"/><path d="M7.7 4.9l10.2 12.9L2.3 23l-.2-.7a15.9 15.9 0 0 1 5.1-17z" class="cu"/><path d="M7.7 4.9l10.1 12.9-15.5 5.1-.2-.7a15.9 15.9 0 0 1 5-16.8z" class="cv"/><path d="M7.7 5l10 12.7-15.3 5.2-.2-.7A15.8 15.8 0 0 1 7.1 5.4z" class="cw"/><path d="M7.7 5.1l10 12.7-15.3 5-.2-.6a15.8 15.8 0 0 1 5-16.7z" class="cx"/><path d="M7.7 5.1l9.9 12.6-15.2 5.1-.2-.6A15.8 15.8 0 0 1 7.1 5.5z" class="cy"/><path d="M7.6 5.2l9.9 12.5-15.1 5-.2-.6A15.7 15.7 0 0 1 7.1 5.6z" class="cz"/><path d="M7.6 5.2l9.8 12.4-15 5-.2-.6A15.7 15.7 0 0 1 7.1 5.7z" class="da"/><path d="M7.6 5.3l9.7 12.3-14.8 5-.2-.6A15.6 15.6 0 0 1 7.1 5.7z" class="db"/><path d="M7.6 5.4l9.7 12.2-14.8 4.9-.2-.6A15.6 15.6 0 0 1 7.1 5.8z" class="dc"/><path d="M7.6 5.4l9.6 12.1-14.6 5-.2-.6a15.5 15.5 0 0 1 4.8-16z" class="dd"/><path d="M7.6 5.5l9.5 12.1-14.5 4.8-.2-.6A15.5 15.5 0 0 1 7.1 5.9z" class="de"/><path d="M7.6 5.6a15.5 15.5 0 0 0-5 16.8L17 17.6z" class="df"/></g><circle cx="17.6" cy="17.6" r="17.3" class="dg"/><circle cx="17.6" cy="17.6" r="16.3" class="dh"/><circle cx="17.3" cy="17.6" r="16.5" class="di"/><path d="M5.5 25c10.6-6.7 10.7-6.6 1.8 2.2 9.1-8.7 9.1-8.6 2.1 1.8 7.2-10.3 7.3-10.3 2.4 1.3 5.1-11.5 5.2-11.5 2.6.8 2.8-12.2 2.9-12.2 2.7.3.4-12.6.5-12.6 2.7-.2-2-12.4-1.9-12.4 2.7-.7-4.4-11.8-4.3-11.8 2.5-1.3-6.7-10.6-6.6-10.7 2.2-1.8-8.7-9.1-8.6-9.1 1.8-2.1-10.3-7.2-10.3-7.3 1.3-2.4-11.5-5.1-11.5-5.2.8-2.6-12.2-2.8-12.2-2.9.3-2.7-12.6-.4-12.6-.5-.2-2.7-12.4 2-12.4 1.9-.7-2.7-11.8 4.4-11.8 4.3-1.3-2.5-10.7 6.8-10.7 6.7-1.8-2.1-9.1 8.7-9.1 8.6-2.1-1.8-7.2 10.3-7.3 10.3-2.4-1.3-5.1 11.5-5.2 11.5-2.6-.8-2.7 12.2-2.8 12.2-2.6-.3-.4 12.6-.5 12.6-2.7.2 2 12.4 1.9 12.4-2.7.7 4.4 11.8 4.3 11.8-2.5 1.3 6.7 10.6 6.6 10.7-2.2 1.7 8.7 9.1 8.6 9.1-1.8 2.1 10.3 7.2 10.3 7.3-1.3 2.4C16 16.9 16 17 3.7 14.4c12.2 2.8 12.2 2.9-.3 2.7 12.6.4 12.6.5.2 2.7 12.4-2 12.4-1.9.7 2.7C16 18 16.1 18.1 5.5 25z" class="dj dk"/><path d="M6.3 26.1c9.9-7.7 10-7.6 2 2 8.1-9.6 8.2-9.5 2.3 1.6 6.1-11 6.2-10.9 2.5 1.1 3.9-11.9 4-11.9 2.6.6 1.5-12.5 1.6-12.5 2.7.1-.9-12.5-.8-12.5 2.7-.5-3.3-12.1-3.2-12.2 2.6-1-5.6-11.3-5.5-11.3 2.4-1.5-7.7-9.9-7.6-10 2-2-9.6-8.2-9.5-8.2 1.6-2.3-11-6.1-10.9-6.2 1.1-2.5-11.9-3.9-11.9-4 .6-2.6-12.5-1.5-12.5-1.6.1-2.7-12.5.9-12.5.8-.5-2.7-12.1 3.3-12.2 3.2-1-2.6-11.3 5.6-11.3 5.5-1.5-2.4-9.9 7.7-10 7.6-2-2-8.1 9.6-8.2 9.5-2.3-1.6C18.1 16.1 18 16 21.7 4c-3.9 11.9-4 11.9-2.6-.6-1.5 12.5-1.6 12.5-2.7-.1.9 12.5.8 12.6-2.7.5 3.3 12.1 3.2 12.2-2.6 1 5.5 11.3 5.4 11.4-2.5 1.6 7.7 9.9 7.6 10-2 2 9.6 8.1 9.5 8.2-1.6 2.3 11 6.1 10.9 6.2-1.1 2.5 11.9 3.9 11.9 4-.6 2.6 12.5 1.5 12.5 1.6-.1 2.7 12.5-.9 12.5-.8.5 2.7 12.1-3.3 12.2-3.2 1 2.6 11.4-5.6 11.4-5.6 1.6 2.3z" class="bz dl"/><circle cx="17.4" cy="17.4" r="16" class="dm"/><circle cx="15.8" cy="16" r="5.5" class="dn" transform="rotate(-32.6 19.1 14.1)"/><circle cx="14.1" cy="18.9" r="8.1" class="do" transform="rotate(-32.6 17.3 17.1)"/><circle cx="19" cy="12.2" r="3.1" class="dp" transform="rotate(-32.6 22.1 10.2)"/></g></g></svg>
