<svg xmlns="http://www.w3.org/2000/svg" xmlns:xlink="http://www.w3.org/1999/xlink" viewBox="0 0 896.4 215.9"><defs><style>.a,.e,.h{fill:none;}.b{isolation:isolate;}.c{fill:#1f7fc2;}.d{fill:#58595b;}.e{stroke:#58595b;stroke-width:1.94px;}.f{clip-path:url(#a);}.g{fill:url(#b);}.h{stroke:#fff;stroke-width:4.54px;}.dn,.h{stroke-miterlimit:10;}.ar,.bz,.dp,.h{mix-blend-mode:screen;}.i{fill:url(#c);}.j{fill:url(#d);}.k{fill:url(#e);}.l{fill:url(#f);}.m{fill:url(#g);}.n{fill:url(#h);}.o{fill:url(#i);}.p{fill:url(#j);}.q{fill:url(#k);}.r{fill:url(#l);}.s{fill:url(#m);}.t{fill:url(#n);}.u{fill:url(#o);}.v{fill:url(#p);}.w{fill:url(#q);}.x{fill:url(#r);}.y{fill:url(#s);}.aa,.ab,.ac,.ad,.ae,.af,.ag,.ah,.ai,.aj,.ak,.al,.am,.an,.ao,.ap,.aq,.as,.at,.au,.av,.aw,.ax,.ay,.az,.ba,.bb,.bc,.bd,.be,.bf,.bg,.bh,.bi,.bj,.bk,.bl,.bm,.bn,.bo,.bp,.bq,.br,.bs,.bt,.bu,.bv,.bw,.bx,.by,.ca,.cb,.cc,.cd,.ce,.cf,.cg,.ch,.ci,.cj,.ck,.cl,.cm,.cn,.co,.cp,.cq,.cr,.cs,.ct,.cu,.cv,.cw,.cx,.cy,.cz,.da,.db,.dc,.dd,.de,.df,.di,.z{mix-blend-mode:multiply;}.z{fill:url(#t);}.aa{fill:url(#u);}.ab{fill:url(#v);}.ac{fill:url(#w);}.ad{fill:url(#x);}.ae{fill:url(#y);}.af{fill:url(#z);}.ag{fill:url(#aa);}.ah{fill:url(#ab);}.ai{fill:url(#ac);}.aj{fill:url(#ad);}.ak{fill:url(#ae);}.al{fill:url(#af);}.am{fill:url(#ag);}.an{fill:url(#ah);}.ao{fill:url(#ai);}.ap{fill:url(#aj);}.aq{fill:url(#ak);}.ar{fill:url(#al);}.as{fill:#fff;}.at{fill:url(#am);}.au{fill:url(#an);}.av{fill:url(#ao);}.aw{fill:url(#ap);}.ax{fill:url(#aq);}.ay{fill:url(#ar);}.az{fill:url(#as);}.ba{fill:url(#at);}.bb{fill:url(#au);}.bc{fill:url(#av);}.bd{fill:url(#aw);}.be{fill:url(#ax);}.bf{fill:url(#ay);}.bg{fill:url(#az);}.bh{fill:url(#ba);}.bi{fill:url(#bb);}.bj{fill:url(#bc);}.bk{fill:url(#bd);}.bl{fill:url(#be);}.bm{fill:url(#bf);}.bn{fill:url(#bg);}.bo{fill:url(#bh);}.bp{fill:url(#bi);}.bq{fill:url(#bj);}.br{fill:url(#bk);}.bs{fill:url(#bl);}.bt{fill:url(#bm);}.bu{fill:url(#bn);}.bv{fill:url(#bo);}.bw{fill:url(#bp);}.bx{fill:url(#bq);}.by{fill:url(#br);}.ca{fill:url(#bs);}.cb{fill:url(#bt);}.cc{fill:url(#bu);}.cd{fill:url(#bv);}.ce{fill:url(#bw);}.cf{fill:url(#bx);}.cg{fill:url(#by);}.ch{fill:url(#bz);}.ci{fill:url(#ca);}.cj{fill:url(#cb);}.ck{fill:url(#cc);}.cl{fill:url(#cd);}.cm{fill:url(#ce);}.cn{fill:url(#cf);}.co{fill:url(#cg);}.cp{fill:url(#ch);}.cq{fill:url(#ci);}.cr{fill:url(#cj);}.cs{fill:url(#ck);}.ct{fill:url(#cl);}.cu{fill:url(#cm);}.cv{fill:url(#cn);}.cw{fill:url(#co);}.cx{fill:url(#cp);}.cy{fill:url(#cq);}.cz{fill:url(#cr);}.da{fill:url(#cs);}.db{fill:url(#ct);}.dc{fill:url(#cu);}.dd{fill:url(#cv);}.de{fill:url(#cw);}.df{fill:url(#cx);}.dg,.dh{mix-blend-mode:soft-light;}.dg{fill:url(#cy);}.dh{fill:url(#cz);}.di{opacity:0.2;fill:url(#da);}.dj{mix-blend-mode:overlay;}.dk{fill:url(#db);}.dl{fill:url(#dc);}.dm{mix-blend-mode:color-burn;fill:url(#dd);}.dn{stroke:#7a7a7a;stroke-width:1.69px;fill:url(#de);}.do{opacity:0.7;mix-blend-mode:color-dodge;fill:url(#df);}.dp{opacity:0.9;fill:url(#dg);}</style><clipPath id="a" transform="translate(9 8.4)"><circle class="a" cx="94.3" cy="94.3" r="94.3"/></clipPath><radialGradient id="b" cx="-13.81" cy="-29.19" r="278.98" gradientUnits="userSpaceOnUse"><stop offset="0" stop-color="#1b1b1b"/><stop offset="0.05" stop-color="#313131"/><stop offset="0.19" stop-color="#676767"/><stop offset="0.33" stop-color="#959595"/><stop offset="0.47" stop-color="#bbb"/><stop offset="0.61" stop-color="#d9d9d9"/><stop offset="0.74" stop-color="#eee"/><stop offset="0.87" stop-color="#fbfbfb"/><stop offset="1" stop-color="#fff"/></radialGradient><radialGradient id="c" cx="752.43" cy="-212.72" r="279.32" gradientTransform="translate(882.7 12.4) rotate(180)" gradientUnits="userSpaceOnUse"><stop offset="0" stop-color="#fff"/><stop offset="0.37" stop-color="#d6d6d6"/><stop offset="1" stop-color="#8a8a8a"/></radialGradient><radialGradient id="d" cx="758.53" cy="-220.92" r="292.4" gradientTransform="translate(882.7 12.4) rotate(180)" gradientUnits="userSpaceOnUse"><stop offset="0" stop-color="#fff"/><stop offset="0.24" stop-color="#e8e8e8"/><stop offset="0.75" stop-color="#ababab"/><stop offset="1" stop-color="#8b8b8b"/></radialGradient><radialGradient id="e" cx="764.51" cy="-228.95" r="306" gradientTransform="translate(882.7 12.4) rotate(180)" gradientUnits="userSpaceOnUse"><stop offset="0" stop-color="#fff"/><stop offset="0.19" stop-color="#efefef"/><stop offset="0.58" stop-color="#c4c4c4"/><stop offset="1" stop-color="#8d8d8d"/></radialGradient><radialGradient id="f" cx="770.38" cy="-236.79" r="320.09" gradientTransform="translate(882.7 12.4) rotate(180)" gradientUnits="userSpaceOnUse"><stop offset="0" stop-color="#fff"/><stop offset="0.17" stop-color="#f2f2f2"/><stop offset="0.49" stop-color="#d1d1d1"/><stop offset="0.91" stop-color="#9b9b9b"/><stop offset="1" stop-color="#8f8f8f"/></radialGradient><radialGradient id="g" cx="776.15" cy="-244.45" r="334.66" gradientTransform="translate(882.7 12.4) rotate(180)" gradientUnits="userSpaceOnUse"><stop offset="0" stop-color="#fff"/><stop offset="0.16" stop-color="#f5f5f5"/><stop offset="0.44" stop-color="#dadada"/><stop offset="0.8" stop-color="#adadad"/><stop offset="1" stop-color="#919191"/></radialGradient><radialGradient id="h" cx="781.8" cy="-251.93" r="349.7" gradientTransform="translate(882.7 12.4) rotate(180)" gradientUnits="userSpaceOnUse"><stop offset="0" stop-color="#fff"/><stop offset="0.16" stop-color="#f7f7f7"/><stop offset="0.41" stop-color="#dfdfdf"/><stop offset="0.72" stop-color="#bababa"/><stop offset="1" stop-color="#929292"/></radialGradient><radialGradient id="i" cx="787.34" cy="-259.22" r="365.19" gradientTransform="translate(882.7 12.4) rotate(180)" gradientUnits="userSpaceOnUse"><stop offset="0" stop-color="#fff"/><stop offset="0.16" stop-color="#f8f8f8"/><stop offset="0.39" stop-color="#e4e4e4"/><stop offset="0.67" stop-color="#c3c3c3"/><stop offset="0.99" stop-color="#959595"/><stop offset="1" stop-color="#949494"/></radialGradient><radialGradient id="j" cx="792.77" cy="-266.34" r="381.1" gradientTransform="translate(882.7 12.4) rotate(180)" gradientUnits="userSpaceOnUse"><stop offset="0" stop-color="#fff"/><stop offset="0.16" stop-color="#f9f9f9"/><stop offset="0.39" stop-color="#e7e7e7"/><stop offset="0.64" stop-color="#cacaca"/><stop offset="0.93" stop-color="#a1a1a1"/><stop offset="1" stop-color="#969696"/></radialGradient><radialGradient id="k" cx="798.09" cy="-273.27" r="397.42" gradientTransform="translate(882.7 12.4) rotate(180)" gradientUnits="userSpaceOnUse"><stop offset="0" stop-color="#fff"/><stop offset="0.17" stop-color="#f9f9f9"/><stop offset="0.38" stop-color="#e9e9e9"/><stop offset="0.63" stop-color="#cfcfcf"/><stop offset="0.88" stop-color="#ababab"/><stop offset="1" stop-color="#989898"/></radialGradient><radialGradient id="l" cx="803.29" cy="-280.02" r="414.11" gradientTransform="translate(882.7 12.4) rotate(180)" gradientUnits="userSpaceOnUse"><stop offset="0" stop-color="#fff"/><stop offset="0.18" stop-color="#fafafa"/><stop offset="0.39" stop-color="#ececec"/><stop offset="0.61" stop-color="#d4d4d4"/><stop offset="0.85" stop-color="#b2b2b2"/><stop offset="1" stop-color="#999"/></radialGradient><radialGradient id="m" cx="808.39" cy="-286.59" r="431.17" gradientTransform="translate(882.7 12.4) rotate(180)" gradientUnits="userSpaceOnUse"><stop offset="0" stop-color="#fff"/><stop offset="0.19" stop-color="#fbfbfb"/><stop offset="0.39" stop-color="#ededed"/><stop offset="0.61" stop-color="#d7d7d7"/><stop offset="0.83" stop-color="#b9b9b9"/><stop offset="1" stop-color="#9b9b9b"/></radialGradient><radialGradient id="n" cx="813.38" cy="-292.97" r="448.55" gradientTransform="translate(882.7 12.4) rotate(180)" gradientUnits="userSpaceOnUse"><stop offset="0" stop-color="#fff"/><stop offset="0.2" stop-color="#fbfbfb"/><stop offset="0.4" stop-color="#efefef"/><stop offset="0.61" stop-color="#dadada"/><stop offset="0.81" stop-color="#bebebe"/><stop offset="1" stop-color="#9d9d9d"/></radialGradient><radialGradient id="o" cx="818.25" cy="-299.18" r="466.25" gradientTransform="translate(882.7 12.4) rotate(180)" gradientUnits="userSpaceOnUse"><stop offset="0" stop-color="#fff"/><stop offset="0.21" stop-color="#fbfbfb"/><stop offset="0.42" stop-color="#f0f0f0"/><stop offset="0.61" stop-color="#ddd"/><stop offset="0.8" stop-color="#c2c2c2"/><stop offset="0.99" stop-color="#a0a0a0"/><stop offset="1" stop-color="#9f9f9f"/></radialGradient><radialGradient id="p" cx="823.01" cy="-305.2" r="484.23" gradientTransform="translate(882.7 12.4) rotate(180)" gradientUnits="userSpaceOnUse"><stop offset="0" stop-color="#fff"/><stop offset="0.23" stop-color="#fcfcfc"/><stop offset="0.43" stop-color="#f1f1f1"/><stop offset="0.62" stop-color="#dfdfdf"/><stop offset="0.8" stop-color="#c6c6c6"/><stop offset="0.97" stop-color="#a6a6a6"/><stop offset="1" stop-color="#a0a0a0"/></radialGradient><radialGradient id="q" cx="827.67" cy="-311.04" r="502.46" gradientTransform="translate(882.7 12.4) rotate(180)" gradientUnits="userSpaceOnUse"><stop offset="0" stop-color="#fff"/><stop offset="0.25" stop-color="#fcfcfc"/><stop offset="0.45" stop-color="#f2f2f2"/><stop offset="0.63" stop-color="#e1e1e1"/><stop offset="0.8" stop-color="#cacaca"/><stop offset="0.96" stop-color="#acacac"/><stop offset="1" stop-color="#a2a2a2"/></radialGradient><radialGradient id="r" cx="832.21" cy="-316.7" r="520.93" gradientTransform="translate(882.7 12.4) rotate(180)" gradientUnits="userSpaceOnUse"><stop offset="0" stop-color="#fff"/><stop offset="0.27" stop-color="#fcfcfc"/><stop offset="0.47" stop-color="#f3f3f3"/><stop offset="0.64" stop-color="#e3e3e3"/><stop offset="0.8" stop-color="#cdcdcd"/><stop offset="0.95" stop-color="#b0b0b0"/><stop offset="1" stop-color="#a4a4a4"/></radialGradient><radialGradient id="s" cx="836.64" cy="-322.17" r="539.6" gradientTransform="translate(882.7 12.4) rotate(180)" gradientUnits="userSpaceOnUse"><stop offset="0" stop-color="#fff"/><stop offset="0.3" stop-color="#fcfcfc"/><stop offset="0.49" stop-color="#f4f4f4"/><stop offset="0.66" stop-color="#e5e5e5"/><stop offset="0.8" stop-color="#cfcfcf"/><stop offset="0.94" stop-color="#b4b4b4"/><stop offset="1" stop-color="#a6a6a6"/></radialGradient><radialGradient id="t" cx="262.67" cy="65.94" r="634.78" gradientUnits="userSpaceOnUse"><stop offset="0" stop-color="#fff"/><stop offset="0.4" stop-color="#d6d6d6"/><stop offset="1" stop-color="#949494"/></radialGradient><radialGradient id="u" cx="251.48" cy="67.76" r="572.53" xlink:href="#t"/><radialGradient id="v" cx="240.37" cy="69.57" r="515.89" xlink:href="#t"/><radialGradient id="w" cx="229.34" cy="71.37" r="464.68" xlink:href="#t"/><radialGradient id="x" cx="218.39" cy="73.16" r="418.71" xlink:href="#t"/><radialGradient id="y" cx="207.51" cy="74.93" r="377.67" xlink:href="#t"/><radialGradient id="z" cx="196.72" cy="76.7" r="341.18" xlink:href="#t"/><radialGradient id="aa" cx="186.01" cy="78.44" r="308.79" xlink:href="#t"/><radialGradient id="ab" cx="175.38" cy="80.18" r="279.91" xlink:href="#t"/><radialGradient id="ac" cx="164.82" cy="81.9" r="253.89" xlink:href="#t"/><radialGradient id="ad" cx="154.35" cy="83.61" r="230.01" xlink:href="#t"/><radialGradient id="ae" cx="143.95" cy="85.3" r="207.52" xlink:href="#t"/><radialGradient id="af" cx="133.64" cy="86.99" r="185.67" xlink:href="#t"/><radialGradient id="ag" cx="123.41" cy="88.66" r="163.76" xlink:href="#t"/><radialGradient id="ah" cx="113.25" cy="90.31" r="141.13" xlink:href="#t"/><radialGradient id="ai" cx="103.18" cy="91.96" r="117.21" xlink:href="#t"/><radialGradient id="aj" cx="93.18" cy="93.59" r="91.51" xlink:href="#t"/><radialGradient id="ak" cx="93.72" cy="93.86" r="67.91" xlink:href="#t"/><radialGradient id="al" cx="102.58" cy="102.18" r="72.83" xlink:href="#t"/><radialGradient id="am" cx="77.44" cy="35.41" r="98.24" gradientTransform="translate(7.1 25.5) rotate(-1.9) scale(0.99)" gradientUnits="userSpaceOnUse"><stop offset="0" stop-color="#fff"/><stop offset="1" stop-color="#f8f8f8"/></radialGradient><radialGradient id="an" cx="70.28" cy="14.44" r="98.85" gradientTransform="translate(14.1 51) rotate(-3.8) scale(0.98)" gradientUnits="userSpaceOnUse"><stop offset="0" stop-color="#fff"/><stop offset="1" stop-color="#f2f2f2"/></radialGradient><radialGradient id="ao" cx="64.64" cy="-7.17" r="99.33" gradientTransform="translate(21.2 76.5) rotate(-5.8) scale(0.98)" gradientUnits="userSpaceOnUse"><stop offset="0" stop-color="#fff"/><stop offset="1" stop-color="#ebebeb"/></radialGradient><radialGradient id="ap" cx="60.63" cy="-29.3" r="99.66" gradientTransform="translate(28.3 102) rotate(-7.8) scale(0.97)" gradientUnits="userSpaceOnUse"><stop offset="0" stop-color="#fff"/><stop offset="1" stop-color="#e4e4e4"/></radialGradient><radialGradient id="aq" cx="58.33" cy="-51.78" r="99.84" gradientTransform="translate(35.4 127.5) rotate(-9.8) scale(0.97)" gradientUnits="userSpaceOnUse"><stop offset="0" stop-color="#fff"/><stop offset="1" stop-color="#dedede"/></radialGradient><radialGradient id="ar" cx="57.81" cy="-74.47" r="99.86" gradientTransform="matrix(0.94, -0.2, 0.2, 0.94, 42.44, 153.02)" gradientUnits="userSpaceOnUse"><stop offset="0" stop-color="#fff"/><stop offset="1" stop-color="#d7d7d7"/></radialGradient><radialGradient id="as" cx="59.09" cy="-97.19" r="99.72" gradientTransform="translate(49.5 178.5) rotate(-13.8) scale(0.96)" gradientUnits="userSpaceOnUse"><stop offset="0" stop-color="#fff"/><stop offset="0.87" stop-color="#d7d7d7"/><stop offset="1" stop-color="#d0d0d0"/></radialGradient><radialGradient id="at" cx="62.2" cy="-119.77" r="99.41" gradientTransform="translate(56.6 204) rotate(-15.9) scale(0.96)" gradientUnits="userSpaceOnUse"><stop offset="0" stop-color="#fff"/><stop offset="0.76" stop-color="#d7d7d7"/><stop offset="1" stop-color="#c9c9c9"/></radialGradient><radialGradient id="au" cx="67.12" cy="-142.04" r="98.94" gradientTransform="matrix(0.92, -0.3, 0.3, 0.92, 63.66, 229.53)" gradientUnits="userSpaceOnUse"><stop offset="0" stop-color="#fff"/><stop offset="0.69" stop-color="#d7d7d7"/><stop offset="1" stop-color="#c3c3c3"/></radialGradient><radialGradient id="av" cx="73.79" cy="-163.84" r="98.31" gradientTransform="matrix(0.91, -0.33, 0.33, 0.91, 70.73, 255.04)" gradientUnits="userSpaceOnUse"><stop offset="0" stop-color="#fff"/><stop offset="0.62" stop-color="#d7d7d7"/><stop offset="1" stop-color="#bcbcbc"/></radialGradient><radialGradient id="aw" cx="82.16" cy="-185.01" r="97.52" gradientTransform="translate(77.8 280.5) rotate(-21.9) scale(0.97)" gradientUnits="userSpaceOnUse"><stop offset="0" stop-color="#fff"/><stop offset="0.57" stop-color="#d7d7d7"/><stop offset="1" stop-color="#b5b5b5"/></radialGradient><radialGradient id="ax" cx="92.12" cy="-205.4" r="96.58" gradientTransform="translate(84.9 306) rotate(-23.9) scale(0.97)" gradientUnits="userSpaceOnUse"><stop offset="0" stop-color="#fff"/><stop offset="0.53" stop-color="#d7d7d7"/><stop offset="1" stop-color="#afafaf"/></radialGradient><radialGradient id="ay" cx="103.57" cy="-224.88" r="95.49" gradientTransform="translate(91.9 331.5) rotate(-25.9) scale(0.98)" gradientUnits="userSpaceOnUse"><stop offset="0" stop-color="#fff"/><stop offset="0.49" stop-color="#d6d6d6"/><stop offset="1" stop-color="#a8a8a8"/></radialGradient><radialGradient id="az" cx="116.38" cy="-243.35" r="94.28" gradientTransform="matrix(0.87, -0.46, 0.46, 0.87, 99.02, 357.05)" gradientUnits="userSpaceOnUse"><stop offset="0" stop-color="#fff"/><stop offset="0.46" stop-color="#d6d6d6"/><stop offset="1" stop-color="#a1a1a1"/></radialGradient><radialGradient id="ba" cx="130.39" cy="-260.7" r="92.94" gradientTransform="translate(106.1 382.6) rotate(-29.8) scale(0.99)" gradientUnits="userSpaceOnUse"><stop offset="0" stop-color="#fff"/><stop offset="0.43" stop-color="#d6d6d6"/><stop offset="1" stop-color="#9b9b9b"/></radialGradient><radialGradient id="bb" cx="145.46" cy="-276.87" r="91.5" gradientTransform="translate(113.2 408.1) rotate(-31.7)" xlink:href="#t"/><radialGradient id="bc" cx="88.96" cy="110.76" r="84.47" xlink:href="#am"/><radialGradient id="bd" cx="81.36" cy="85.79" r="86.49" xlink:href="#an"/><radialGradient id="be" cx="75.22" cy="59.9" r="88.35" xlink:href="#ao"/><radialGradient id="bf" cx="70.65" cy="33.24" r="90.01" xlink:href="#ap"/><radialGradient id="bg" cx="67.73" cy="5.98" r="91.47" xlink:href="#aq"/><radialGradient id="bh" cx="66.52" cy="-21.68" r="92.71" xlink:href="#ar"/><radialGradient id="bi" cx="67.07" cy="-49.55" r="93.7" xlink:href="#as"/><radialGradient id="bj" cx="69.4" cy="-77.42" r="94.45" xlink:href="#at"/><radialGradient id="bk" cx="73.49" cy="-105.07" r="94.95" xlink:href="#au"/><radialGradient id="bl" cx="79.3" cy="-132.31" r="95.18" xlink:href="#av"/><radialGradient id="bm" cx="86.78" cy="-158.92" r="95.16" xlink:href="#aw"/><radialGradient id="bn" cx="95.84" cy="-184.73" r="94.89" xlink:href="#ax"/><radialGradient id="bo" cx="106.36" cy="-209.57" r="94.37" xlink:href="#ay"/><radialGradient id="bp" cx="118.24" cy="-233.28" r="93.63" xlink:href="#az"/><radialGradient id="bq" cx="131.32" cy="-255.75" r="92.66" xlink:href="#ba"/><radialGradient id="br" cx="145.46" cy="-276.87" r="91.5" gradientTransform="translate(113.2 408.1) rotate(-31.7)" xlink:href="#t"/><radialGradient id="bs" cx="92.13" cy="120.13" r="101.53" gradientTransform="translate(-4.9 -0.9) rotate(1.3)" xlink:href="#am"/><radialGradient id="bt" cx="99.97" cy="117.18" r="101.36" gradientTransform="matrix(0.99, 0.05, -0.05, 0.99, -9.74, -1.81)" xlink:href="#an"/><radialGradient id="bu" cx="107.8" cy="113.83" r="101.11" gradientTransform="matrix(0.99, 0.07, -0.07, 0.99, -14.6, -2.71)" xlink:href="#ao"/><radialGradient id="bv" cx="115.61" cy="110.08" r="100.79" gradientTransform="translate(-19.5 -3.6) rotate(5.3) scale(0.99)" xlink:href="#ap"/><radialGradient id="bw" cx="123.35" cy="105.95" r="100.4" gradientTransform="translate(-24.3 -4.5) rotate(6.6) scale(0.99)" xlink:href="#aq"/><radialGradient id="bx" cx="131.01" cy="101.43" r="99.93" gradientTransform="translate(-29.2 -5.4) rotate(8) scale(0.98)" xlink:href="#ar"/><radialGradient id="by" cx="138.56" cy="96.55" r="99.38" gradientTransform="translate(-34.1 -6.3) rotate(9.3) scale(0.98)" xlink:href="#as"/><radialGradient id="bz" cx="145.98" cy="91.32" r="98.77" gradientTransform="translate(-38.9 -7.2) rotate(10.7) scale(0.98)" xlink:href="#at"/><radialGradient id="ca" cx="153.23" cy="85.75" r="98.08" gradientTransform="translate(-43.8 -8.1) rotate(12) scale(0.98)" xlink:href="#au"/><radialGradient id="cb" cx="160.3" cy="79.87" r="97.33" gradientTransform="translate(-48.7 -9) rotate(13.4) scale(0.98)" xlink:href="#av"/><radialGradient id="cc" cx="167.16" cy="73.68" r="96.51" gradientTransform="translate(-53.5 -9.9) rotate(14.7) scale(0.99)" xlink:href="#aw"/><radialGradient id="cd" cx="173.8" cy="67.23" r="95.62" gradientTransform="translate(-58.4 -10.8) rotate(16.1) scale(0.99)" xlink:href="#ax"/><radialGradient id="ce" cx="180.19" cy="60.53" r="94.67" gradientTransform="translate(-63.3 -11.7) rotate(17.4) scale(0.99)" xlink:href="#ay"/><radialGradient id="cf" cx="186.31" cy="53.6" r="93.67" gradientTransform="translate(-68.1 -12.7) rotate(18.7) scale(0.99)" xlink:href="#az"/><radialGradient id="cg" cx="192.16" cy="46.48" r="92.61" gradientTransform="translate(-73 -13.6) rotate(20)" xlink:href="#ba"/><radialGradient id="ch" cx="197.71" cy="39.19" r="91.5" gradientTransform="matrix(0.93, 0.36, -0.36, 0.93, -77.88, -14.46)" xlink:href="#t"/><radialGradient id="ci" cx="105.57" cy="66.68" r="98.54" gradientTransform="translate(-4.9 -0.9) rotate(1.3)" xlink:href="#am"/><radialGradient id="cj" cx="112.63" cy="66.98" r="98.84" gradientTransform="matrix(0.99, 0.05, -0.05, 0.99, -9.74, -1.81)" xlink:href="#an"/><radialGradient id="ck" cx="119.66" cy="66.97" r="99.03" gradientTransform="matrix(0.99, 0.07, -0.07, 0.99, -14.6, -2.71)" xlink:href="#ao"/><radialGradient id="cl" cx="126.63" cy="66.65" r="99.11" gradientTransform="translate(-19.5 -3.6) rotate(5.3) scale(0.99)" xlink:href="#ap"/><radialGradient id="cm" cx="133.52" cy="66.01" r="99.07" gradientTransform="translate(-24.3 -4.5) rotate(6.6) scale(0.99)" xlink:href="#aq"/><radialGradient id="cn" cx="140.3" cy="65.05" r="98.93" gradientTransform="translate(-29.2 -5.4) rotate(8) scale(0.98)" xlink:href="#ar"/><radialGradient id="co" cx="146.96" cy="63.78" r="98.67" gradientTransform="translate(-34.1 -6.3) rotate(9.3) scale(0.98)" xlink:href="#as"/><radialGradient id="cp" cx="153.46" cy="62.2" r="98.29" gradientTransform="translate(-38.9 -7.2) rotate(10.7) scale(0.98)" xlink:href="#at"/><radialGradient id="cq" cx="159.79" cy="60.3" r="97.81" gradientTransform="translate(-43.8 -8.1) rotate(12) scale(0.98)" xlink:href="#au"/><radialGradient id="cr" cx="165.93" cy="58.11" r="97.21" gradientTransform="translate(-48.7 -9) rotate(13.4) scale(0.98)" xlink:href="#av"/><radialGradient id="cs" cx="171.85" cy="55.62" r="96.51" gradientTransform="translate(-53.5 -9.9) rotate(14.7) scale(0.99)" xlink:href="#aw"/><radialGradient id="ct" cx="177.55" cy="52.85" r="95.7" gradientTransform="translate(-58.4 -10.8) rotate(16.1) scale(0.99)" xlink:href="#ax"/><radialGradient id="cu" cx="182.99" cy="49.8" r="94.79" gradientTransform="translate(-63.3 -11.7) rotate(17.4) scale(0.99)" xlink:href="#ay"/><radialGradient id="cv" cx="188.17" cy="46.5" r="93.79" gradientTransform="translate(-68.1 -12.7) rotate(18.7) scale(0.99)" xlink:href="#az"/><radialGradient id="cw" cx="193.08" cy="42.96" r="92.69" gradientTransform="translate(-73 -13.6) rotate(20)" xlink:href="#ba"/><radialGradient id="cx" cx="197.71" cy="39.2" r="91.51" gradientTransform="matrix(0.93, 0.36, -0.36, 0.93, -77.88, -14.46)" xlink:href="#t"/><radialGradient id="cy" cx="258.03" cy="-17.27" r="393.42" gradientUnits="userSpaceOnUse"><stop offset="0" stop-color="#fff"/><stop offset="0.03" stop-color="#d6e7ff"/><stop offset="0.11" stop-color="#70acff"/><stop offset="0.15" stop-color="#2e85ff"/><stop offset="0.34" stop-color="#2ec1ff"/><stop offset="0.56" stop-color="#00d4e7"/><stop offset="0.76" stop-color="#177fff"/><stop offset="1" stop-color="#003f8b"/></radialGradient><radialGradient id="cz" cx="248.5" cy="-10.66" r="370.38" xlink:href="#cy"/><radialGradient id="da" cx="92.23" cy="94.45" r="95.04" gradientUnits="userSpaceOnUse"><stop offset="0" stop-color="#fff"/><stop offset="0.89" stop-color="#fff"/><stop offset="1"/></radialGradient><radialGradient id="db" cx="-754.28" cy="-372.01" r="83.09" gradientTransform="matrix(-0.84, 0.54, 0.54, 0.84, -342.82, 811.81)" gradientUnits="userSpaceOnUse"><stop offset="0.06" stop-color="#fefefe"/><stop offset="0.15" stop-color="#f0f0f0"/><stop offset="0.31" stop-color="#ccc"/><stop offset="0.53" stop-color="#929292"/><stop offset="0.79" stop-color="#434343"/><stop offset="1"/></radialGradient><radialGradient id="dc" cx="-774.94" cy="-257.53" r="83.09" gradientTransform="matrix(-0.78, 0.62, 0.62, 0.78, -355.94, 775.1)" xlink:href="#db"/><radialGradient id="dd" cx="236.06" cy="62.37" r="94.59" gradientTransform="matrix(1, 0, 0, -1, -142.3, 157.02)" gradientUnits="userSpaceOnUse"><stop offset="0.62" stop-color="#fefefe"/><stop offset="0.68" stop-color="#f0f0f0"/><stop offset="0.78" stop-color="#cdcdcd"/><stop offset="0.91" stop-color="#939393"/><stop offset="1" stop-color="#6b6b6b"/></radialGradient><radialGradient id="de" cx="-754.29" cy="-368.74" r="32.41" gradientTransform="matrix(-0.84, 0.54, 0.54, 0.84, -342.82, 811.81)" gradientUnits="userSpaceOnUse"><stop offset="0"/><stop offset="0.86"/><stop offset="1"/></radialGradient><radialGradient id="df" cx="-736.05" cy="-361.69" r="47.9" gradientTransform="matrix(-0.84, 0.54, 0.54, 0.84, -342.82, 811.81)" gradientUnits="userSpaceOnUse"><stop offset="0.02" stop-color="#f6f6f6"/><stop offset="0.05" stop-color="#d8d8d8"/><stop offset="0.1" stop-color="#ababab"/><stop offset="0.17" stop-color="#828282"/><stop offset="0.23" stop-color="#5f5f5f"/><stop offset="0.3" stop-color="#414141"/><stop offset="0.38" stop-color="#292929"/><stop offset="0.47" stop-color="#171717"/><stop offset="0.58" stop-color="#0a0a0a"/><stop offset="0.71" stop-color="#020202"/><stop offset="1"/></radialGradient><radialGradient id="dg" cx="274.54" cy="69.28" r="59.76" gradientTransform="matrix(1, 0, 0, -1, -142.3, 157.02)" gradientUnits="userSpaceOnUse"><stop offset="0" stop-color="#fff"/><stop offset="0.14" stop-color="#fbfbfb"/><stop offset="0.27" stop-color="#efefef"/><stop offset="0.41" stop-color="#dbdbdb"/><stop offset="0.55" stop-color="#bfbfbf"/><stop offset="0.69" stop-color="#9a9a9a"/><stop offset="0.83" stop-color="#6e6e6e"/><stop offset="0.96" stop-color="#3a3a3a"/><stop offset="1" stop-color="#2b2b2b"/></radialGradient></defs><title>blue-laser-group</title><g class="b"><path class="c" d="M214,45.4c0-3.3-1.7-4.8-4.8-4.8h-8.7V17.2h26.2c10.2,0,14.7,4.5,14.7,14.7V64c0,5.4-.4,9.3-0.4,9.3h0.4S251.3,58,274.7,58c29.9,0,49,23.6,49,57.8s-21.5,57.8-50.7,57.8c-23,0-32.9-15.6-32.9-15.6h-0.4a57.9,57.9,0,0,1,.4,7.4v5.6H214V45.4Zm54.2,105.1c14.9,0,27.7-12.4,27.7-34.2s-11.3-34.7-27.5-34.7c-14.3,0-27.7,10.4-27.7,34.9C240.7,133.6,249.8,150.5,268.2,150.5Z" transform="translate(9 8.4)"/><path class="c" d="M337.7,45.4c0-3.3-1.7-4.8-4.8-4.8h-8.7V17.2h26.2c10.2,0,14.7,4.5,14.7,14.7V143.1c0,3,1.7,4.8,4.8,4.8h8.5v23.2h-26c-10.4,0-14.7-4.3-14.7-14.7V45.4Z" transform="translate(9 8.4)"/><path class="c" d="M392.3,88.7c0-3.2-1.7-4.8-4.8-4.8h-8.7V60.6h26.2c10.2,0,14.5,4.5,14.5,14.5V126c0,13.4,3.5,22.5,17.1,22.5,19.9,0,31-17.5,31-37.3V60.6h27.5v82.5c0,3,1.7,4.8,4.8,4.8h8.7v23.2H483.3c-9.5,0-14.5-4.5-14.5-12.3v-3c0-2.6.2-5,.2-5h-0.4c-5.2,11.5-19.1,23-38.1,23-23.6,0-38.1-11.9-38.1-42V88.7Z" transform="translate(9 8.4)"/><path class="c" d="M567.4,58c31.6,0,49,23.2,49,52.4,0,3.2-.7,10.2-0.7,10.2H539.4c2.2,19.5,16.5,29.7,33.1,29.7s31-12.3,31-12.3L615,157s-16.9,16.7-44.4,16.7c-36.6,0-59.4-26.4-59.4-57.8C511.3,81.8,534.2,58,567.4,58Zm20.8,43.5c-0.4-13.2-9.5-22.3-20.8-22.3-14.1,0-24,8.4-27.1,22.3h47.9Z" transform="translate(9 8.4)"/><path class="d" d="M664.5,56.8a2,2,0,0,0-2.2-2.2h-4.1v-11h12.3c4.8,0,6.9,2.1,6.9,6.9v52.3a2,2,0,0,0,2.2,2.2h4V116H671.4c-4.9,0-6.9-2-6.9-6.9V56.8Z" transform="translate(9 8.4)"/><path class="d" d="M720.3,83.3h1.6V82.9c0-7.4-3-10.2-9.6-10.2-2.3,0-6.9.6-6.9,3.5V79h-12V73.4c0-9.7,13.7-10.7,19.1-10.7,17.3,0,22.4,9.1,22.4,20.7v19.4a2,2,0,0,0,2.2,2.2h4.1V116H729.6c-4.8,0-6.6-2.7-6.6-5.7,0-1.3.1-2.2,0.1-2.2h-0.2s-4,9.2-15.7,9.2c-9.3,0-17.7-5.8-17.7-16.2C689.4,84.7,711.8,83.3,720.3,83.3Zm-10,23.8c6.9,0,11.8-7.3,11.8-13.7V92.2h-2.2c-6.7,0-17.4.9-17.4,8.2C702.4,103.8,705,107.1,710.3,107.1Z" transform="translate(9 8.4)"/><path class="d" d="M751.8,99.5s6.6,7.6,15.5,7.6c4,0,7-1.6,7-5.1,0-7.3-27.4-7.2-27.4-24.1,0-10.4,9.4-15.2,20.2-15.2,7,0,18.3,2.3,18.3,10.8V79H773.9V76.4c0-2.4-3.7-3.7-6.5-3.7-4.6,0-7.8,1.6-7.8,4.7,0,8.2,27.6,6.5,27.6,23.9,0,9.8-8.7,15.9-20,15.9-14.3,0-21.6-9.3-21.6-9.3Z" transform="translate(9 8.4)"/><path class="d" d="M820.5,62.7c14.9,0,23,10.9,23,24.7,0,1.5-.3,4.8-0.3,4.8H807.4c1,9.2,7.8,14,15.6,14s14.6-5.8,14.6-5.8l5.4,9a31.7,31.7,0,0,1-20.9,7.9c-17.2,0-27.9-12.4-27.9-27.2S804.9,62.7,820.5,62.7Zm9.8,20.5c-0.2-6.2-4.5-10.5-9.8-10.5s-11.3,4-12.7,10.5h22.5Z" transform="translate(9 8.4)"/><path class="d" d="M856.1,77.2a2,2,0,0,0-2.2-2.2h-4.1V64h11.8c4.6,0,6.9,1.9,6.9,6.3v3.1a23.6,23.6,0,0,1-.2,3.3h0.2c2.3-7.4,8.6-13.4,16.5-13.4l2.3,0.2V76.2a23,23,0,0,0-3.2-.2,14.6,14.6,0,0,0-14.2,10.9,31.4,31.4,0,0,0-1.1,8.5V116H856.1V77.2Z" transform="translate(9 8.4)"/><path class="d" d="M683.4,129.6c11.3,0,14,7.2,14,7.2h0.2v-1.6c0-3,1.3-4.6,4.8-4.6h5.9v4.9h-3.4a1.6,1.6,0,0,0-1.8,1.8v34.4c0,13.4-9.9,18.6-20.3,18.6a30.8,30.8,0,0,1-13.7-3.4l2.2-4.8a25.9,25.9,0,0,0,11.4,2.9c8.2,0,14.7-3.9,14.7-13.2v-3.7c0-1.6.1-3,.1-3h-0.2c-2.5,4.6-6.7,7.3-13.2,7.3-11.3,0-18.8-9-18.8-21.6S672.1,129.6,683.4,129.6Zm13.9,21.3c0-12.3-5.9-16.1-13.3-16.1s-13,5.9-13,16,5.4,16.6,13.7,16.6C691.5,167.4,697.3,163.3,697.3,150.9Z" transform="translate(9 8.4)"/><path class="d" d="M717.4,137.4a1.7,1.7,0,0,0-1.8-1.8h-3.5v-4.9h5.9c3.5,0,5.1,1.4,5.1,4.8v2.8a30,30,0,0,1-.2,3.2H723c2-6.4,6.7-11.2,13.3-11.2a11.3,11.3,0,0,1,2.3.3v5.6l-2.1-.2c-5.9,0-10.4,4.7-12.2,10.9a27.8,27.8,0,0,0-1.2,8.2v17.8h-5.7V137.4Z" transform="translate(9 8.4)"/><path class="d" d="M764.3,129.6c12.3,0,22.3,9.4,22.3,21.9a22.2,22.2,0,1,1-44.5,0C742.1,139,752.1,129.6,764.3,129.6Zm0.1,39c9,0,16.3-7.4,16.3-17.2a16.4,16.4,0,1,0-32.8,0C748,161.3,755.4,168.7,764.4,168.7Z" transform="translate(9 8.4)"/><path class="d" d="M797.1,137.4a1.7,1.7,0,0,0-1.8-1.8h-3.5v-4.9h5.9c3.6,0,5.1,1.5,5.1,4.9V156c0,6.6,1.1,12.5,9.2,12.5s15.5-8.5,15.5-17.6V130.7h5.7V166a1.6,1.6,0,0,0,1.8,1.8h3.5v4.9h-5.8c-3.5,0-5.1-1.5-5.1-4.7v-1.9a26.8,26.8,0,0,1,.2-3h-0.2a18,18,0,0,1-16.4,10.6c-10,0-14.2-5.4-14.2-16.3v-20Z" transform="translate(9 8.4)"/><path class="d" d="M847.8,137.4a1.7,1.7,0,0,0-1.8-1.8h-3.5v-4.9h5.8c3.6,0,5,1.5,5,4.4s-0.1,2.8-.1,2.8h0.2s3.4-8.3,14.5-8.3,18.4,9,18.4,22.1-8,22-18.9,22-13.8-8-13.8-8h-0.2a36.5,36.5,0,0,1,.2,3.7v20h-5.7V137.4Zm18.9,31.3c7.5,0,13.6-6.3,13.6-17s-5.4-16.9-13.3-16.9-13.7,5-13.7,17C853.3,160.3,857.9,168.8,866.7,168.8Z" transform="translate(9 8.4)"/><line class="e" x1="648.7" y1="35.4" x2="648.7" y2="214.1"/><g class="f"><path class="g" d="M-9,94.3A102.7,102.7,0,1,1,93.8,197.1,102.7,102.7,0,0,1-9,94.3Z" transform="translate(9 8.4)"/><path class="h" d="M177.1,170.7a117.9,117.9,0,0,1-166.7,0" transform="translate(9 8.4)"/><path class="i" d="M3.8,94.7a91.5,91.5,0,1,1,91.5,91.5A91.5,91.5,0,0,1,3.8,94.7Z" transform="translate(9 8.4)"/><path class="j" d="M4.7,94.7a90.6,90.6,0,1,1,90.6,90.6A90.6,90.6,0,0,1,4.7,94.7Z" transform="translate(9 8.4)"/><path class="k" d="M5.6,94.7a89.7,89.7,0,1,1,89.7,89.7A89.7,89.7,0,0,1,5.6,94.7Z" transform="translate(9 8.4)"/><path class="l" d="M6.4,94.7a88.9,88.9,0,1,1,88.9,88.9A88.9,88.9,0,0,1,6.4,94.7Z" transform="translate(9 8.4)"/><path class="m" d="M7.3,94.7a88,88,0,1,1,88,88A88,88,0,0,1,7.3,94.7Z" transform="translate(9 8.4)"/><path class="n" d="M8.2,94.7a87.1,87.1,0,1,1,87.1,87.1A87.1,87.1,0,0,1,8.2,94.7Z" transform="translate(9 8.4)"/><path class="o" d="M9.1,94.7a86.2,86.2,0,1,1,86.3,86.2A86.3,86.3,0,0,1,9.1,94.7Z" transform="translate(9 8.4)"/><path class="p" d="M9.9,94.7A85.4,85.4,0,1,1,95.3,180,85.4,85.4,0,0,1,9.9,94.7Z" transform="translate(9 8.4)"/><path class="q" d="M10.8,94.7a84.5,84.5,0,1,1,84.5,84.5A84.5,84.5,0,0,1,10.8,94.7Z" transform="translate(9 8.4)"/><path class="r" d="M11.7,94.7a83.6,83.6,0,1,1,83.6,83.6A83.6,83.6,0,0,1,11.7,94.7Z" transform="translate(9 8.4)"/><path class="s" d="M12.5,94.7a82.8,82.8,0,1,1,82.8,82.8A82.8,82.8,0,0,1,12.5,94.7Z" transform="translate(9 8.4)"/><path class="t" d="M13.4,94.7a81.9,81.9,0,1,1,81.9,81.9A81.9,81.9,0,0,1,13.4,94.7Z" transform="translate(9 8.4)"/><path class="u" d="M14.3,94.7a81,81,0,1,1,81,81A81,81,0,0,1,14.3,94.7Z" transform="translate(9 8.4)"/><path class="v" d="M15.2,94.7a80.1,80.1,0,1,1,80.2,80.1A80.1,80.1,0,0,1,15.2,94.7Z" transform="translate(9 8.4)"/><path class="w" d="M16,94.7a79.3,79.3,0,1,1,79.3,79.3A79.3,79.3,0,0,1,16,94.7Z" transform="translate(9 8.4)"/><path class="x" d="M16.9,94.7A78.4,78.4,0,1,1,95.3,173,78.4,78.4,0,0,1,16.9,94.7Z" transform="translate(9 8.4)"/><path class="y" d="M17.8,94.7a77.5,77.5,0,1,1,77.5,77.5A77.5,77.5,0,0,1,17.8,94.7Z" transform="translate(9 8.4)"/><path class="z" d="M192.7,94.7A97.3,97.3,0,1,1,95.3-2.7,97.3,97.3,0,0,1,192.7,94.7Z" transform="translate(9 8.4)"/><path class="aa" d="M192.3,94.7a97,97,0,1,1-97-97A97,97,0,0,1,192.3,94.7Z" transform="translate(9 8.4)"/><path class="ab" d="M191.9,94.7A96.6,96.6,0,1,1,95.3-2,96.6,96.6,0,0,1,191.9,94.7Z" transform="translate(9 8.4)"/><path class="ac" d="M191.6,94.7A96.2,96.2,0,1,1,95.3-1.6,96.2,96.2,0,0,1,191.6,94.7Z" transform="translate(9 8.4)"/><path class="ad" d="M191.2,94.7A95.9,95.9,0,1,1,95.3-1.2,95.9,95.9,0,0,1,191.2,94.7Z" transform="translate(9 8.4)"/><path class="ae" d="M190.8,94.7A95.5,95.5,0,1,1,95.3-.9,95.5,95.5,0,0,1,190.8,94.7Z" transform="translate(9 8.4)"/><path class="af" d="M190.5,94.7A95.1,95.1,0,1,1,95.3-.5,95.2,95.2,0,0,1,190.5,94.7Z" transform="translate(9 8.4)"/><path class="ag" d="M190.1,94.7A94.8,94.8,0,1,1,95.3-.1,94.8,94.8,0,0,1,190.1,94.7Z" transform="translate(9 8.4)"/><path class="ah" d="M189.7,94.7A94.4,94.4,0,1,1,95.3.2,94.4,94.4,0,0,1,189.7,94.7Z" transform="translate(9 8.4)"/><path class="ai" d="M189.4,94.7a94.1,94.1,0,1,1-94-94A94.1,94.1,0,0,1,189.4,94.7Z" transform="translate(9 8.4)"/><path class="aj" d="M189,94.7A93.7,93.7,0,1,1,95.3,1,93.7,93.7,0,0,1,189,94.7Z" transform="translate(9 8.4)"/><path class="ak" d="M188.6,94.7A93.3,93.3,0,1,1,95.3,1.3,93.3,93.3,0,0,1,188.6,94.7Z" transform="translate(9 8.4)"/><path class="al" d="M188.3,94.7A93,93,0,1,1,95.3,1.7,93,93,0,0,1,188.3,94.7Z" transform="translate(9 8.4)"/><path class="am" d="M187.9,94.7A92.6,92.6,0,1,1,95.3,2.1,92.6,92.6,0,0,1,187.9,94.7Z" transform="translate(9 8.4)"/><path class="an" d="M187.5,94.7A92.2,92.2,0,1,1,95.3,2.4,92.2,92.2,0,0,1,187.5,94.7Z" transform="translate(9 8.4)"/><path class="ao" d="M187.2,94.7A91.9,91.9,0,1,1,95.3,2.8,91.9,91.9,0,0,1,187.2,94.7Z" transform="translate(9 8.4)"/><path class="ap" d="M186.8,94.7A91.5,91.5,0,1,1,95.3,3.2,91.5,91.5,0,0,1,186.8,94.7Z" transform="translate(9 8.4)"/><path class="aq" d="M163.2,94.7A67.9,67.9,0,1,1,95.3,26.8,67.9,67.9,0,0,1,163.2,94.7Z" transform="translate(9 8.4)"/><circle class="ar" cx="104.3" cy="103" r="72.8"/><path class="as" d="M119.3,3.5l4,1.3a95.8,95.8,0,0,1,66.2,89.9v4.2L86.6,101.3Z" transform="translate(9 8.4)"/><path class="at" d="M119.5,3.8l4,1.3a95.5,95.5,0,0,1,65.8,89.3c0,0.1,0,4.1,0,4.2L87,101Z" transform="translate(9 8.4)"/><path class="au" d="M119.6,4.2l4,1.3A95.2,95.2,0,0,1,189,94.2c0,0.2,0,4,.1,4.1L87.4,100.7Z" transform="translate(9 8.4)"/><path class="av" d="M119.8,4.5l3.9,1.3a94.9,94.9,0,0,1,65,88.2c0,0.2.1,3.9,0.1,4.1l-101,2.4Z" transform="translate(9 8.4)"/><path class="aw" d="M120,4.8l3.9,1.3a94.6,94.6,0,0,1,64.5,87.7c0,0.3.1,3.7,0.1,4L88.1,100.2Z" transform="translate(9 8.4)"/><path class="ax" d="M120.1,5.2L124,6.4a94.3,94.3,0,0,1,64.1,87.1c0,0.4.1,3.6,0.1,4L88.5,99.9Z" transform="translate(9 8.4)"/><path class="ay" d="M120.3,5.5l3.8,1.3a94.1,94.1,0,0,1,63.7,86.6c0,0.5.1,3.5,0.1,4L88.8,99.6Z" transform="translate(9 8.4)"/><path class="az" d="M120.5,5.8l3.8,1.3a93.8,93.8,0,0,1,63.3,86c0,0.5.1,3.4,0.1,3.9L89.2,99.4Z" transform="translate(9 8.4)"/><path class="ba" d="M120.7,6.2l3.8,1.3a93.5,93.5,0,0,1,62.9,85.5c0,0.6.1,3.3,0.1,3.9L89.6,99.1Z" transform="translate(9 8.4)"/><path class="bb" d="M120.8,6.5l3.7,1.3a93.3,93.3,0,0,1,62.5,84.9c0,0.7.1,3.2,0.1,3.9L90,98.8Z" transform="translate(9 8.4)"/><path class="bc" d="M121,6.8l3.7,1.2a93,93,0,0,1,62.1,84.3c0,0.8.1,3.1,0.1,3.8L90.3,98.5Z" transform="translate(9 8.4)"/><path class="bd" d="M121.2,7.2l3.7,1.2a92.7,92.7,0,0,1,61.7,83.8c0,0.8.1,3,.1,3.8L90.7,98.3Z" transform="translate(9 8.4)"/><path class="be" d="M121.3,7.5L125,8.7A92.5,92.5,0,0,1,186.2,92c0,0.9.1,2.9,0.1,3.8L91.1,98Z" transform="translate(9 8.4)"/><path class="bf" d="M121.5,7.8l3.6,1.2A92.2,92.2,0,0,1,186,91.8c0.1,1,.1,2.7.1,3.7L91.4,97.7Z" transform="translate(9 8.4)"/><path class="bg" d="M121.7,8.2l3.6,1.2a92,92,0,0,1,60.5,82.1c0.1,1.1.1,2.6,0.1,3.7l-94,2.2Z" transform="translate(9 8.4)"/><path class="bh" d="M121.8,8.5l3.5,1.2a91.7,91.7,0,0,1,60,81.6c0.1,1.1.1,2.5,0.1,3.6L92.2,97.2Z" transform="translate(9 8.4)"/><path class="bi" d="M185.3,94.7A91.5,91.5,0,0,0,122,8.8l-29.4,88Z" transform="translate(9 8.4)"/><path class="as" d="M62.6,186.4A95.7,95.7,0,0,1-1.9,99.2V94.9L98.5,92.5,66.7,187.7Z" transform="translate(9 8.4)"/><path class="bj" d="M-1.8,95.1l99.9-2.4L66.5,187.4l-4-1.4A95.4,95.4,0,0,1-1.6,99.4V95.1Z" transform="translate(9 8.4)"/><path class="bk" d="M-1.5,95.4L97.8,93l-31.4,94-4-1.4A95.1,95.1,0,0,1-1.3,99.6C-1.3,99.4-1.5,95.5-1.5,95.4Z" transform="translate(9 8.4)"/><path class="bl" d="M-1.2,95.6l98.6-2.3L66.2,186.7l-4-1.4A94.8,94.8,0,0,1-1.1,99.8C-1.1,99.6-1.2,95.9-1.2,95.6Z" transform="translate(9 8.4)"/><path class="bm" d="M-0.9,95.9l98-2.3L66,186.4,62.1,185A94.5,94.5,0,0,1-.8,100C-0.8,99.7-.9,96.2-0.9,95.9Z" transform="translate(9 8.4)"/><path class="bn" d="M-0.7,96.2l97.3-2.3L65.8,186l-3.9-1.4A94.2,94.2,0,0,1-.5,100.3C-0.5,99.9-.7,96.5-0.7,96.2Z" transform="translate(9 8.4)"/><path class="bo" d="M-0.4,96.4l96.7-2.3L65.7,185.7l-3.9-1.3a94,94,0,0,1-62-83.9C-0.3,100-.4,96.9-0.4,96.4Z" transform="translate(9 8.4)"/><path class="bp" d="M-0.1,96.7l96-2.3-30.4,91L61.7,184A93.7,93.7,0,0,1,.1,100.7C0,100.2-.1,97.2-0.1,96.7Z" transform="translate(9 8.4)"/><path class="bq" d="M0.2,96.9l95.4-2.2L65.3,185l-3.8-1.3A93.4,93.4,0,0,1,.3,100.9C0.3,100.3.2,97.5,0.2,96.9Z" transform="translate(9 8.4)"/><path class="br" d="M0.4,97.2L95.2,95l-30,89.7-3.8-1.3A93.1,93.1,0,0,1,.6,101.1C0.6,100.5.5,97.9,0.4,97.2Z" transform="translate(9 8.4)"/><path class="bs" d="M0.7,97.5l94.1-2.2L65,184.4,61.3,183A92.9,92.9,0,0,1,.9,101.4C0.8,100.6.7,98.2,0.7,97.5Z" transform="translate(9 8.4)"/><path class="bt" d="M1,97.7l93.4-2.2L64.8,184l-3.7-1.3a92.6,92.6,0,0,1-60-81.1C1.1,100.7,1,98.6,1,97.7Z" transform="translate(9 8.4)"/><path class="bu" d="M1.3,98l92.8-2.2L64.7,183.7,61,182.4A92.3,92.3,0,0,1,1.4,101.8C1.4,100.9,1.3,98.9,1.3,98Z" transform="translate(9 8.4)"/><path class="bv" d="M1.5,98.2l92.1-2.2L64.5,183.3,60.9,182A92.1,92.1,0,0,1,1.7,102C1.7,101,1.6,99.2,1.5,98.2Z" transform="translate(9 8.4)"/><path class="bw" d="M1.8,98.5l91.5-2.2L64.3,183l-3.6-1.3A91.8,91.8,0,0,1,2,102.2C1.9,101.2,1.8,99.6,1.8,98.5Z" transform="translate(9 8.4)"/><path class="bx" d="M2.1,98.8l90.9-2.1-28.8,86-3.6-1.3A91.6,91.6,0,0,1,2.3,102.5C2.2,101.3,2.1,99.9,2.1,98.8Z" transform="translate(9 8.4)"/><path class="by" d="M2.4,99A91.4,91.4,0,0,0,64,182.3L92.6,96.9Z" transform="translate(9 8.4)"/><g class="bz"><path class="as" d="M182.7,60.7l1.4,4a95.7,95.7,0,0,1-32,106.9l-3.3,2.6L84.9,93.3Z" transform="translate(9 8.4)"/><path class="ca" d="M85.4,93.4L182.6,61l1.4,3.9a95.4,95.4,0,0,1-31.8,106.3l-3.3,2.6Z" transform="translate(9 8.4)"/><path class="cb" d="M85.8,93.6l96.6-32.2,1.3,3.9a95.1,95.1,0,0,1-31.6,105.6l-3.3,2.5Z" transform="translate(9 8.4)"/><path class="cc" d="M86.3,93.7l96-32,1.3,3.9a94.8,94.8,0,0,1-31.4,104.9l-3.2,2.5Z" transform="translate(9 8.4)"/><path class="cd" d="M86.7,93.8L182.1,62l1.3,3.9a94.6,94.6,0,0,1-31.2,104.3l-3.2,2.5Z" transform="translate(9 8.4)"/><path class="ce" d="M87.2,94l94.8-31.6,1.3,3.8a94.3,94.3,0,0,1-31,103.6l-3.2,2.5Z" transform="translate(9 8.4)"/><path class="cf" d="M87.6,94.1l94.1-31.4,1.3,3.8a94,94,0,0,1-30.8,103l-3.1,2.5Z" transform="translate(9 8.4)"/><path class="cg" d="M88,94.2L181.6,63l1.3,3.8a93.8,93.8,0,0,1-30.6,102.3l-3.1,2.4Z" transform="translate(9 8.4)"/><path class="ch" d="M88.5,94.4l92.9-31,1.3,3.7a93.5,93.5,0,0,1-30.4,101.6l-3.1,2.4Z" transform="translate(9 8.4)"/><path class="ci" d="M88.9,94.5l92.3-30.8,1.2,3.7a93.2,93.2,0,0,1-30.3,101l-3.1,2.4Z" transform="translate(9 8.4)"/><path class="cj" d="M89.4,94.6L181.1,64l1.2,3.7A93,93,0,0,1,152.2,168l-3,2.4Z" transform="translate(9 8.4)"/><path class="ck" d="M89.8,94.8l91.1-30.4,1.2,3.7a92.7,92.7,0,0,1-29.9,99.7l-3,2.4Z" transform="translate(9 8.4)"/><path class="cl" d="M90.3,94.9l90.5-30.2,1.2,3.6a92.5,92.5,0,0,1-29.7,99l-3,2.3Z" transform="translate(9 8.4)"/><path class="cm" d="M90.7,95l89.9-30,1.2,3.6A92.2,92.2,0,0,1,152.3,167l-2.9,2.3Z" transform="translate(9 8.4)"/><path class="cn" d="M91.1,95.2l89.3-29.8,1.2,3.6a92,92,0,0,1-29.3,97.7l-2.9,2.3Z" transform="translate(9 8.4)"/><path class="co" d="M91.6,95.3l88.7-29.6,1.1,3.5a91.8,91.8,0,0,1-29.1,97l-2.9,2.3Z" transform="translate(9 8.4)"/><path class="cp" d="M149.5,168.2A91.5,91.5,0,0,0,180.1,66L92,95.4Z" transform="translate(9 8.4)"/></g><g class="bz"><path class="as" d="M2.5,125.3a95.7,95.7,0,0,1,30.9-104l3.3-2.7L99.1,97.5,3.9,129.4Z" transform="translate(9 8.4)"/><path class="cq" d="M36.7,19l62,78.4L4,129l-1.3-4A95.4,95.4,0,0,1,33.4,21.7Z" transform="translate(9 8.4)"/><path class="cr" d="M36.7,19.4L98.2,97.3l-94,31.4-1.3-4A95.1,95.1,0,0,1,33.4,22Z" transform="translate(9 8.4)"/><path class="cs" d="M36.6,19.7L97.8,97.1,4.4,128.4l-1.3-4a94.9,94.9,0,0,1,30.3-102Z" transform="translate(9 8.4)"/><path class="ct" d="M36.6,20.1L97.3,97,4.5,128l-1.3-4A94.6,94.6,0,0,1,33.4,22.7Z" transform="translate(9 8.4)"/><path class="cu" d="M36.6,20.5L96.9,96.9,4.7,127.7l-1.3-3.9A94.3,94.3,0,0,1,33.4,23.1Z" transform="translate(9 8.4)"/><path class="cv" d="M36.5,20.9L96.5,96.8,4.9,127.3l-1.2-3.9a94,94,0,0,1,29.7-100Z" transform="translate(9 8.4)"/><path class="cw" d="M36.5,21.2L96,96.6,5,127l-1.2-3.9A93.7,93.7,0,0,1,33.4,23.8Z" transform="translate(9 8.4)"/><path class="cx" d="M36.4,21.6L95.6,96.5,5.2,126.7,4,122.8A93.5,93.5,0,0,1,33.4,24.1Z" transform="translate(9 8.4)"/><path class="cy" d="M36.4,22L95.1,96.4l-89.7,30-1.2-3.8a93.2,93.2,0,0,1,29.2-98Z" transform="translate(9 8.4)"/><path class="cz" d="M36.3,22.4L94.7,96.2,5.6,126l-1.2-3.8a92.9,92.9,0,0,1,29-97.4Z" transform="translate(9 8.4)"/><path class="da" d="M36.3,22.7L94.2,96.1,5.7,125.7l-1.2-3.7A92.7,92.7,0,0,1,33.3,25.2Z" transform="translate(9 8.4)"/><path class="db" d="M36.3,23.1L93.8,96,5.9,125.3l-1.1-3.7a92.4,92.4,0,0,1,28.6-96Z" transform="translate(9 8.4)"/><path class="dc" d="M36.2,23.5L93.4,95.8,6.1,125l-1.1-3.7A92.2,92.2,0,0,1,33.3,25.9Z" transform="translate(9 8.4)"/><path class="dd" d="M36.2,23.9L92.9,95.7,6.2,124.6,5.1,121A91.9,91.9,0,0,1,33.3,26.3Z" transform="translate(9 8.4)"/><path class="de" d="M36.1,24.2L92.5,95.6,6.4,124.3l-1.1-3.6a91.7,91.7,0,0,1,28-94Z" transform="translate(9 8.4)"/><path class="df" d="M36.1,24.6A91.4,91.4,0,0,0,6.6,124L92,95.4Z" transform="translate(9 8.4)"/></g><path class="dg" d="M197.7,95.6A102.4,102.4,0,1,1,95.3-6.8,102.4,102.4,0,0,1,197.7,95.6Z" transform="translate(9 8.4)"/><path class="dh" d="M191.7,95.6A96.4,96.4,0,1,1,95.3-.8,96.4,96.4,0,0,1,191.7,95.6Z" transform="translate(9 8.4)"/><path class="di" d="M190.8,95.5A97.7,97.7,0,1,1,93.2-2.2,97.7,97.7,0,0,1,190.8,95.5Z" transform="translate(9 8.4)"/><g class="dj"><path class="dk" d="M23.8,139.4c62.9-39.5,63.3-39.1,10.4,13.2,53.7-51.4,54.1-51.1,12.5,10.5,42.5-60.9,43-60.7,14,7.8,30-68,30.6-67.8,15.2,4.9,16.5-72.5,17-72.4,15.8,1.9,2.4-74.3,2.9-74.3,16-1.2-12-73.3-11.4-73.5,15.7-4.3-26.1-69.6-25.6-69.9,15-7.6-39.5-62.9-39.1-63.3,13.2-10.4-51.4-53.6-51.1-54.1,10.5-12.5-60.9-42.5-60.7-43,7.7-14-68-30-67.8-30.6,4.9-15.2-72.5-16.5-72.4-17.1,1.9-15.8-74.3-2.4-74.3-2.9-1.2-16-73.3,12-73.5,11.4-4.3-15.7-69.6,26.1-69.9,25.5-7.6-15C100.8,89.5,100.4,89,153.2,36.7c-53.6,51.4-54.1,51-12.5-10.5-42.5,60.9-43,60.7-14.1-7.8-30,68-30.6,67.8-15.2-4.9C95.1,86,94.5,86,95.7,11.7c-2.3,74.3-2.9,74.3-16,1.1,12,73.4,11.4,73.5-15.7,4.3C90.1,86.7,89.6,87,49,24.7,88.6,87.6,88.1,88,35.8,35.2c51.4,53.6,51,54.1-10.5,12.5,61,42.5,60.7,43-7.8,14,68,30,67.8,30.6-4.9,15.2,72.5,16.5,72.4,17-1.9,15.8,74.3,2.4,74.3,2.9,1.1,16,73.4-12,73.5-11.4,4.3,15.7C85.8,98.3,86.1,98.9,23.8,139.4Z" transform="translate(9 8.4)"/></g><g class="bz"><path class="dl" d="M28.7,146.2c58.6-45.7,59-45.2,11.7,12.1,48.2-56.5,48.7-56.2,13.5,9.2,36.2-64.9,36.7-64.7,14.8,6.3,23.1-70.6,23.6-70.5,15.6,3.4,9.1-73.8,9.7-73.8,15.9.3-5.1-74.2-4.6-74.2,15.8-2.8-19.3-71.8-18.7-72,15.2-5.9-32.9-66.6-32.4-67,14.2-9.1-45.7-58.6-45.2-59,12.1-11.7-56.5-48.2-56.2-48.7,9.2-13.5-64.9-36.2-64.7-36.7,6.3-14.8-70.6-23-70.5-23.6,3.3-15.6-73.7-9.1-73.7-9.7.3-15.9-74.1,5.1-74.2,4.6-2.7-15.8-71.8,19.3-72,18.8-5.9-15.2-66.6,32.9-66.9,32.4-9.1-14.2-58.6,45.7-59,45.2-11.7-12.1-48.2,56.6-48.7,56.2-13.5-9.2-36.2,64.9-36.7,64.7-14.7-6.3-23.1,70.6-23.6,70.5-15.6-3.3-9.1,73.8-9.7,73.7-15.9-.3C92.5,86,92,86.1,71.6,14.6c19.3,71.8,18.7,72-15.2,5.9,32.9,66.6,32.4,66.9-14.2,9.1,45.7,58.6,45.2,59-12.1,11.7C86.7,89.5,86.4,90,20.9,54.8,85.8,91,85.6,91.5,14.6,69.5c70.6,23,70.5,23.6-3.3,15.6C85,94.2,85,94.8,11,101c74.1-5.1,74.2-4.6,2.8,15.8,71.8-19.3,72-18.7,5.9,15.2C86.2,99.1,86.5,99.6,28.7,146.2Z" transform="translate(9 8.4)"/></g><path class="dm" d="M188.3,94.7a94.6,94.6,0,1,0-94.6,94.6A94.6,94.6,0,0,0,188.3,94.7Z" transform="translate(9 8.4)"/><path class="dn" d="M66.5,112.1a32.4,32.4,0,1,0,9.8-44.8A32.4,32.4,0,0,0,66.5,112.1Z" transform="translate(9 8.4)"/><path class="do" d="M42.9,137.8A47.9,47.9,0,1,0,57.4,71.7,47.9,47.9,0,0,0,42.9,137.8Z" transform="translate(9 8.4)"/><path class="dp" d="M96.7,81.8a18.4,18.4,0,1,0,5.6-25.4A18.4,18.4,0,0,0,96.7,81.8Z" transform="translate(9 8.4)"/></g></g></svg>