<svg xmlns="http://www.w3.org/2000/svg" width="10000" viewBox="0 0 367 149.2"><defs><style>.a{fill:#0092d3;}.b{fill:#69b3e3;}.c{fill:#fff;}</style></defs><path d="M290.5 39.8c.4-9.2 1.3-19.7-.1-28.8-.5-3-2.4-10.2 2.5-11a10 10 0 0 1 3 .3c1.3.3 2.6.8 3.9 1.1 11.6 3 25.8 1.6 37.7 1 4.4-.2 8.9-.3 13.3-.2s9.8-1.2 13.7.3c0 0 .2 3.6.3 3.9a32 32 0 0 1 0 3.7 50.3 50.3 0 0 0 0 5.2c.2 2.3.3 4.7.7 7s1.2 3.4 1.4 5.2c.7 6.4-.3 12.8-.9 19.1-.9 9.3-2.2 18.6-2.6 28-.3 7.8 7 23.3-6.8 21.8a143.7 143.7 0 0 0-40.4 1.3c-8.6 1.5-17.1 1.1-25.6 1.6-2-8-.7-18-.1-26.1.9-10.9-.5-22.3 0-33.4z" class="a"/><path d="M314.9 21.7a32.3 32.3 0 0 1 2.9 5.7 21.2 21.2 0 0 0 4.1 8.1 15.7 15.7 0 0 1 3.4 7.5 99 99 0 0 0 2.2 10 14.9 14.9 0 0 1 .6 4.9c-.1 2.5-1.1 5-1.4 7.5s-.5 5.2 1.4 6.3 3.5-2.2 3.6-3.9a69.1 69.1 0 0 0-.2-9.5 15.2 15.2 0 0 1 1.9-7.7c2-4.1 4.6-6 8.1-8.7 1.9-1.5 3.6-3 4.4-5.4s1.4-5.3-.4-7.6c-4.7-5.8-14.6-4.3-21.1-5.8a26.1 26.1 0 0 1-11.2-5.6 15.5 15.5 0 0 0 1.7 4.2z" class="b"/><path d="M49.2 29.9a5 5 0 0 1 2.8 0 4.3 4.3 0 0 1 1.4 3.5c0 6.1-.7 12.2-.9 18.3-.2 3.7-.2 7.3-.3 11-1.2 19.3-3.6 38.4-3.9 57.6-.1 1.6-.2 3.4-1.3 4.8a2.3 2.3 0 0 1-2.9.5A8.4 8.4 0 0 1 43 121c-.2-25.7 2.2-51.3 2.3-77 .1-3.4-.1-6.9.7-10.3.4-1.6 1.4-3.4 3.1-3.9z" class="a"/><path d="M271.7 28.9a4.5 4.5 0 0 1 3.8-.4 3.8 3.8 0 0 1 1.3 2.4 49.8 49.8 0 0 1-.1 6.7c-.4 5.8-.8 11.7-.9 17.5-.1 9.7-1.1 19.3-1.8 29-.9 11.3-1.9 22.6-2.1 34-.1 1.8-.1 3.7-1.1 5.3a2.1 2.1 0 0 1-3.1.6 6.8 6.8 0 0 1-1.1-4c-.2-24.8 2.1-49.5 2.2-74.3.1-3.6-.1-7.1.3-10.7s.7-4.7 2.6-6.1zM209 36.1a10.4 10.4 0 0 1 7.3.5 8.1 8.1 0 0 1 4.9 6.6 4.6 4.6 0 0 1-1.8 4.3 12.4 12.4 0 0 1-7.4 1.8 4.6 4.6 0 0 1-4-2.6c-1.3-2.5-1.3-5.4-1.3-8.2s1.1-2.2 2.3-2.4zm.4 28.6c.5-2 .9-4.4 2.5-5.9s4.5 2.6 5.3 5 .4 4.3.4 6.5c-.4 9.8-1.1 19.6-1.9 29.3-.5 5.7-1.1 11.5-1.5 17.3-.2 2.9-.8 6.4-3.7 7.8-1.2.1-2.9.9-3.6-.5s-1-4.6-1.1-6.9c0-9 .3-18 .8-27s1-17.1 2.7-25.5zm23.9-2.7c.5-.9 1-2.1 2.2-2.3a3.1 3.1 0 0 1 2.4 1.9 19.5 19.5 0 0 1 1.5 5.2 18.3 18.3 0 0 1 5.2-4.4 5.3 5.3 0 0 1 5.1.1 26.3 26.3 0 0 1 6.6 6.6c2.5 3.5 4.9 7.1 6 11.3-.1 2.2-2.2 3.3-4.1 3.6a4.1 4.1 0 0 1-4-1.1c-2.3-2.4-3.2-6-5.9-8.1a6.6 6.6 0 0 0-7.3 0c-2.9 7.5-4 15.5-5.1 23.5a175.8 175.8 0 0 0-1.5 18.4c-.2 2.8-.2 5.8-1.6 8.3a4.6 4.6 0 0 1-5 2.3c-1.4-.4-1.4-2.1-1.6-3.3a162.1 162.1 0 0 1 .3-19.8 277.5 277.5 0 0 1 3.9-31 55.7 55.7 0 0 1 3.1-11z" class="b"/><path d="M63 71.3c1-.3 2.2-.6 2.9.4s1.2 4 1.3 6c0 8.6-.8 17.3-.5 25.9.2 3.7.5 7.5 2.1 10.9a7.6 7.6 0 0 0 5.1 4.4 10.1 10.1 0 0 0 7.8-.9 14.7 14.7 0 0 0 5.3-7.2A33 33 0 0 0 89.6 98c.1-5.6.1-11.3.4-16.9a23.3 23.3 0 0 1 1.3-7.2 1.8 1.8 0 0 1 2.4-1.1c1.4.4 2 1.7 2.5 3 1.2 3.6 1.4 7.5 2 11.2 1.4 11.5 4.4 22.8 4.3 34.5a2.6 2.6 0 0 1-2.3 2.8c-1.7.3-3.1-1.1-3.9-2.5a25.7 25.7 0 0 1-2.9-9.8 32.2 32.2 0 0 1-4.6 10.8c-1.9 2.9-4.8 5.4-8.4 5.9a15.5 15.5 0 0 1-12.4-4.4c-3.3-3.5-5-8.2-6.1-12.8-1.7-8.7-1.6-17.6-.9-26.4.3-3.4.7-6.8.8-10.2a5.4 5.4 0 0 1 1.2-3.6zm60.6-2.3c2.8-2.2 6.3-4.4 10-3.5s6.3 4.4 7.6 7.9c2 5.6 2.6 11.7 2.6 17.6 0 1.7 0 3.6-1 5.1s-2.5 1.6-4 1.5c-5.1 0-10.2.1-15.3.5a29.5 29.5 0 0 0-8.4 1.7c-.8.4-1.8 1-1.6 2.1.5 4.1 2.3 7.9 4.3 11.5 1.1 1.7 2.1 3.6 3.8 4.8 5.7 1.1 11.5-.5 16.7-2.7 3-1.1 6.2-2.6 9.4-2.1.9 1.3.7 3 .5 4.5s-3.2 4.6-5.6 5.7c-5.5 2.3-11.5 2.8-17.4 2.8a59.3 59.3 0 0 1-6.5-.4c-2.7-2.3-4.3-5.6-5.9-8.7a69.6 69.6 0 0 1-5.5-17 17.6 17.6 0 0 1-.1-6 36.6 36.6 0 0 1 3.9-9.7A56.6 56.6 0 0 1 123.6 69zm3 7.3a38.1 38.1 0 0 0-10 15.9c6.1-1.2 12.3-.6 18.4-.8a2.3 2.3 0 0 0 2.2-2.4 25.3 25.3 0 0 0-1.5-11.7c-.7-1.5-1.8-3.2-3.6-3.4s-3.9 1.1-5.4 2.3z" class="a"/><path d="M185.6 68a4.2 4.2 0 0 1 3.6-2.4c1.6.3 2.6 1.7 3.3 3.1a38.9 38.9 0 0 1 2.7 9.6 155.7 155.7 0 0 1 1.5 15.7 121.8 121.8 0 0 1 .2 13.3 63.8 63.8 0 0 1-5.9 23.3c-3.5 7.3-9.2 13.8-16.9 16.6-5.4 2.1-11.4 2.3-17.1 1.7-4.1-.5-8.4-1.8-11.1-5.1s-2.8-6.1-2.8-10.2c.1-1.8-.1-3.6.7-5.3a2.9 2.9 0 0 1 3.6-1.2c1.4.8 1.6 2.6 1.9 4.1.6 4-.1 6.8 2.5 10.2s5.8 3.3 9 2.9a24.1 24.1 0 0 0 16-8.1c7-7.8 10.3-18.5 10.4-28.9-6.7 1.2-13.6 2.5-20.4 1.4a15.9 15.9 0 0 1-11.4-7.3c-2.7-4.6-3.3-10.2-2.9-15.5s2.2-8.7 5.9-11.1 5.2-1.8 7.9-1.7c6 .2 12.2.7 17.9 2.8.4-2.6.5-5.3 1.4-7.8zm-21.5 10.8a5.6 5.6 0 0 0-4 2.8c-1.2 2.4-1.1 5.2-1.1 7.8s.7 7.5 3.3 10.2 7.4 3.3 11.3 3.3a10.9 10.9 0 0 0 9.6-5.9 20.6 20.6 0 0 0 2.8-10.8c-.1-2-1.8-3.4-3.4-4.3a29.1 29.1 0 0 0-10-3 30.6 30.6 0 0 0-8.7-.2z" class="b"/><path d="M2.7 35.7a5.2 5.2 0 0 1 4.5-1A2.5 2.5 0 0 1 9 37c1.2 14.3 1.8 28.7 1.7 43.1 1.9-2.5 4.2-5.2 7.4-5.9s7.5 2.2 10.1 5c5 5.6 7.4 13 8.4 20.3a46.6 46.6 0 0 1-.7 16 18.4 18.4 0 0 1-7.7 11.3c-5.2 3.3-11.5 4.1-17.5 4.3-2.1 0-4.5.2-6.2-1.2a5.9 5.9 0 0 1-1.1-6.4c.4-.9 1.3-1.4 1.8-2.2.1-8.2-.3-16.3-.9-24.5-1.4.2-3.4.4-4.1-1.1s.3-3.2.9-4.6A35.4 35.4 0 0 1 4 86.3c-.4-11.6-1.5-23.2-2.2-34.8-.1-3.5-.2-7.1-.4-10.6 0-1.8.1-3.8 1.3-5.1zm15.5 48a9.2 9.2 0 0 0-7.1 6.3c.1 7.4 0 14.9.5 22.3.3 3.1.4 6.5 2 9.2a2.4 2.4 0 0 0 2.5 1 14.8 14.8 0 0 0 11-6.6 18.2 18.2 0 0 0 3.6-12.2 50.7 50.7 0 0 0-3-12c-1.2-2.8-2.6-5.7-5.3-7.4a5.9 5.9 0 0 0-4.3-.7z" class="a"/><path d="M329.3 38.5c-.6-.5-.5-7.5 1.1-6.9s.9 5.7.6 6.7-1.1.6-1.7.2z" class="c"/><path d="M317.9 38l.3.2c.9 1.2 2.1 1.6 2.8 2.9a30.9 30.9 0 0 1 2.2 5.6c.4-2.7-.9-5.3-2.3-7.6 5.9 3.2 13.5 4.3 19.6 1V40c-6.9 3.2-15.6 1.1-21.5-3.4a19.4 19.4 0 0 1-6.4-8.5c-2-4.8-2.4-10.1-2.9-15.2a18.2 18.2 0 0 0 8.1 4c5.4 1.2 10.9 1 16.4 1.7a23.6 23.6 0 0 1 12.2 5.4 12.5 12.5 0 0 1 4.1 8 14.8 14.8 0 0 1-6.7 13.4c-6.2 4-14.5 4.1-21.6 2.7a2 2 0 0 0-2.3 2.1c.1 2.3 2.5 4.2 4.5 5-1.3-1.2-3-2.2-3.4-4.1s0-2.3 1.1-2.2a37.8 37.8 0 0 0 15.9-.1 13.1 13.1 0 0 0-4 7c-1.4 5.3-.2 10.9-1.4 16.3-.4 1.7-1.2 3.8-3.3 3.8s-3.4-2.4-3.6-4.3c-.4-5.3 1.5-10.7.4-16a9.9 9.9 0 0 0-2.2-4.4 14.3 14.3 0 0 1 2 7.6c.1 4.7-1.9 9.3-1.2 14a4.6 4.6 0 0 0 4.4 3.9h1a5.2 5.2 0 0 0 2.8-1.1 8.5 8.5 0 0 0 2.2-4.9c.8-5.5-.2-11.1 1.2-16.5a9.7 9.7 0 0 1 3.4-5.3 23.2 23.2 0 0 0 8.1-4.3 16.5 16.5 0 0 0 5.2-10.8v-1.6a14.8 14.8 0 0 0-5.8-9.9 23.4 23.4 0 0 0-11.7-4.7c-5.3-.8-10.7-.6-16-1.6-3.6-.7-7.4-2-9.9-4.8-.5-.6-1.3-.5-1.9-.7s1 1.4.9 2.3c.1 6.6.4 14.2 4.1 19.9a20 20 0 0 0 5.1 5.3m9.1 42.3c-.1-.9-.2-1.8-.4-2.7-.4 2.6-.1 5.2-.1 7.7s.3 7.1.2 11.1h1.7c-.5-5.5-.9-9.4-1.4-16.1zm4.2 6.6a30.9 30.9 0 0 1 .6-7.1 8.6 8.6 0 0 0-1.3 4.4c-.3 4.3-.1 7.7-.7 11.9h1.3c.2-3.5.1-5.8.1-9.2z" class="c"/><path d="M329.6 103.8a2.1 2.1 0 0 1 2.4 1.1 1.2 1.2 0 0 1-.1 1.4 2.4 2.4 0 0 1-1.9.5 1.1 1.1 0 0 1-1-.9 4.9 4.9 0 0 1-.1-1.7.9.9 0 0 1 .6-.4zm-5.3 2.5a.5.5 0 0 1 .7.3 4.6 4.6 0 0 1 .2 1.6 39.7 39.7 0 0 1-.2 4.3 4 4 0 0 1 1.8-.5 1.4 1.4 0 0 1 .4 1.4.9.9 0 0 1-.6.8 9.7 9.7 0 0 0-1.8.6c0 1.4-.1 2.7-.1 4.1s.1 2.2.2 3.3a4.6 4.6 0 0 0 .3 1.2 3.2 3.2 0 0 0 1.4.9.8.8 0 0 1 .3 1.2 3.8 3.8 0 0 1-1.7 0 2.2 2.2 0 0 1-1.7-1.1 6.4 6.4 0 0 1-.5-2.7c0-2.1.1-4.3.1-6.4l-2.2.7a.6.6 0 0 1-.9-.3 2.5 2.5 0 0 1 .2-1.4 1.7 1.7 0 0 1 1.3-.5 3.4 3.4 0 0 0 1.8-1c.2-1.6.3-3.3.4-4.9a3.9 3.9 0 0 1 .4-1.6zm5.7 2.6a1.2 1.2 0 0 1 1.3.9 3.1 3.1 0 0 1 .1 1.4c-.1 3.1-.4 6.1-.7 9.1a9.1 9.1 0 0 1-.3 2.3 1.1 1.1 0 0 1-1.3.6 2.6 2.6 0 0 1-.4-1.6c0-2.5.1-5.1.3-7.6a35.7 35.7 0 0 1 .5-3.9 4.5 4.5 0 0 1 .5-1.4zm-18.4 2.7h.4a1.4 1.4 0 0 1 .6 1.4c0 2.1-.2 4.2-.1 6.3a4.7 4.7 0 0 0 .6 2.3 2 2 0 0 0 2 .7 2.3 2.3 0 0 0 1.5-1.2 8 8 0 0 0 .9-2.8c.1-1.6 0-3.2.1-4.8a3 3 0 0 1 .3-1.3.5.5 0 0 1 .8.1 3.7 3.7 0 0 1 .5 1.5c.2 1.4.4 2.7.6 4.1a26.7 26.7 0 0 1 .5 5 .6.6 0 0 1-1.1.3 4.7 4.7 0 0 1-.9-2.4 5.9 5.9 0 0 1-1.8 3.2 2.8 2.8 0 0 1-2.9.1 4.5 4.5 0 0 1-2.1-3.1 22.8 22.8 0 0 1-.2-7.8 2.7 2.7 0 0 1 .3-1.5zm33.4.5a.7.7 0 0 1 .6-.5 1.4 1.4 0 0 1 .6 1.4c0 2.1-.2 4.2-.1 6.3a4.7 4.7 0 0 0 .6 2.3 2 2 0 0 0 2 .7 2.3 2.3 0 0 0 1.6-1.3 8.2 8.2 0 0 0 .8-2.7c.1-1.7 0-3.4.2-5.1a1.7 1.7 0 0 1 .5-1.2.7.7 0 0 1 .7.3 4.2 4.2 0 0 1 .4 1.5c.2 1.5.4 2.9.7 4.3a24.9 24.9 0 0 1 .5 4.7.6.6 0 0 1-1.1.3 4.7 4.7 0 0 1-.9-2.4 5.9 5.9 0 0 1-1.8 3.2 2.8 2.8 0 0 1-2.8.2 4.3 4.3 0 0 1-2.2-3c-.8-2.9-.3-6-.1-9zm13.9-1.1a2.5 2.5 0 0 1 1.9-.6 2.4 2.4 0 0 1 1.7 1.6 11.5 11.5 0 0 1 .6 4.2 1.3 1.3 0 0 1-.5 1.2 4.3 4.3 0 0 1-1.3.1 21.6 21.6 0 0 0-3.9.3 2 2 0 0 0-1 .4 5.7 5.7 0 0 0 .6 2.1 5.7 5.7 0 0 0 1.2 1.8 6.2 6.2 0 0 0 2.9-.3 8.3 8.3 0 0 1 2.7-.8.8.8 0 0 1 .3.8 2 2 0 0 1-1.5 1.6 11.7 11.7 0 0 1-4.4.5 1.1 1.1 0 0 1-.8-.2 6.2 6.2 0 0 1-1-1.6 16.7 16.7 0 0 1-1.2-3.2 4.9 4.9 0 0 1-.1-2.2 9.6 9.6 0 0 1 1.1-2.6 11.6 11.6 0 0 1 2.6-3.1zm.1 2.1a8.7 8.7 0 0 0-1.8 3.2 26 26 0 0 1 3.9-.2.5.5 0 0 0 .6-.4 5.5 5.5 0 0 0-.2-2.6 1.2 1.2 0 0 0-1.1-.9 2.8 2.8 0 0 0-1.3.9zm-54.4-.8c1.5-.3 2.7.7 3.8 1.5a2.4 2.4 0 0 1 1 1.8 11.8 11.8 0 0 1-.9 4.9 6.6 6.6 0 0 1-2.6 3.4 4 4 0 0 1-2.5.3 4.3 4.3 0 0 1-2.5-.9 3.6 3.6 0 0 1-1-2.3 13.2 13.2 0 0 1 .1-4.1 4.7 4.7 0 0 1 1.7-3c.9-.6 1.7-1.5 2.8-1.6zm.2 1.8a5.5 5.5 0 0 0-3 2.9 6.7 6.7 0 0 0-.3 3.3 2.2 2.2 0 0 0 .7 1.6 3.3 3.3 0 0 0 2 .5 2.4 2.4 0 0 0 1.9-1.1 10.1 10.1 0 0 0 1.5-3.8 5.3 5.3 0 0 0 .1-1.6 3 3 0 0 0-1.2-1.4 1.8 1.8 0 0 0-1.7-.4zm-13.3-10.5a.7.7 0 0 1 1 .4c.3 3.2.4 6.4.4 9.6a2.8 2.8 0 0 1 1.7-1.3 3.4 3.4 0 0 1 2.6 1.7 9.8 9.8 0 0 1 1.4 6.5 4.6 4.6 0 0 1-1.6 3.3 7.3 7.3 0 0 1-4.3 1.1 1.7 1.7 0 0 1-1.3-.3 1.2 1.2 0 0 1 .2-1.8c0-1.8-.1-3.6-.2-5.4-.3 0-.9 0-.9-.4a4.2 4.2 0 0 1 .9-1.9c-.1-3.4-.5-6.8-.5-10.2a1.1 1.1 0 0 1 .7-1.2zm2.9 10.9a2 2 0 0 0-1.5 1.4c0 1.7 0 3.5.1 5.2a4.9 4.9 0 0 0 .4 1.7 1 1 0 0 0 1.1.2 4 4 0 0 0 2.6-4.5 7.8 7.8 0 0 0-1.3-3.4 1.4 1.4 0 0 0-1.5-.5zm41.3.2a3.8 3.8 0 0 1 2.3-.9 10.8 10.8 0 0 1 3.7.5 2.2 2.2 0 0 1 .9.5 1.6 1.6 0 0 1 .3 1.1c-.2 5.6-.8 11.2-.1 16.8a9.5 9.5 0 0 0 2.4-.9 1.9 1.9 0 0 1 1-.3.9.9 0 0 1 .5 1.2 1.8 1.8 0 0 1-1.2.8 32.6 32.6 0 0 1-3.6.8 5.7 5.7 0 0 1-.8-2.4 37.2 37.2 0 0 1-.4-5.4 25.5 25.5 0 0 1 .1-3.1 7.2 7.2 0 0 1-5.4.7 2.3 2.3 0 0 1-1.7-1.5 8 8 0 0 1-.1-3.9 7.2 7.2 0 0 1 2.2-4zm2.2.9a5.5 5.5 0 0 0-3.2 4.4 2.8 2.8 0 0 0 .5 2 2.2 2.2 0 0 0 1.6.8 14.1 14.1 0 0 0 3.8-.5c.2-1.8.4-3.6.5-5.4a1.5 1.5 0 0 0-.8-1.6 3.6 3.6 0 0 0-2.4.2z" class="a"/></svg>
