<svg xmlns="http://www.w3.org/2000/svg" width="10000" viewBox="0 0 150 59"><defs><style>.a{fill:#221f1f;}</style></defs><title>classic-city-catering</title><path class="a" d="M51,21.3c18.8-6.6,42.5-7.9,61.4.7,0.5,0.2,1.5.1,1-.1-19.8-9-42.1-9-63.5-1.6-0.6.2-.5,1.4-0.1,1.3Z"/><path class="a" d="M55.6,14.7H55.5c-0.4.2-.9,0-0.8-0.5a2.4,2.4,0,0,1,1.2-1.1l1.5-1a31.5,31.5,0,0,1,3.4-2.3,36.6,36.6,0,0,1,7.6-3.4,44.5,44.5,0,0,1,17-1.8,36.5,36.5,0,0,1,6.8,1.1,27.2,27.2,0,0,1,13.7,8.8A27.3,27.3,0,0,0,91.4,6.3a45.1,45.1,0,0,0-17.1-.5A36.7,36.7,0,0,0,58.7,12c-0.6.4-1.1,1.1-1.7,1.5A9.5,9.5,0,0,1,55.6,14.7Z"/><path class="a" d="M81.3,3.1H81.2c-0.3-.1-0.6-0.3.1-0.5h0.1a7.2,7.2,0,0,0,1.9,0C84.1,2.5,86.5,2,85.1,1S82.5,0.5,81.4.6l-1.9.3a14.6,14.6,0,0,0-2.9.9c-2.1.8-1.3,0.4-.1-0.2A19.2,19.2,0,0,1,79.7.4c0.7-.2,3.8-0.9,6,0.3a1.1,1.1,0,0,1,.4,1.1,1.5,1.5,0,0,1-.9.8,7.1,7.1,0,0,1-1.9.5A8.6,8.6,0,0,1,81.3,3.1Z"/><path class="a" d="M77.7,34a0.5,0.5,0,0,1,.5-0.1,2,2,0,0,1,.9,1.5,24.2,24.2,0,0,1,.8,5.1v6.1l1.6-.5h1.9a0.6,0.6,0,0,1,.4.4c-1.3.1-2.5,0.3-3.8,0.5s-0.4.7-.4,1.1c-0.9,4.1-2.7,7.3-5.8,9.3l-1.8.9c-1.4.4-3.3,0.4-4.1-.5a2.4,2.4,0,0,1-.7-1.3,5.1,5.1,0,0,1,1.5-4,19.7,19.7,0,0,1,10.3-5.9,35.2,35.2,0,0,0-.9-9.3l-0.4-.9c-0.5.8-.6,1.9-1.1,2.6l-2.3,6a6.5,6.5,0,0,0,0,.7c-0.2.3-.5,0.9-0.9,0.7a1.1,1.1,0,0,1-.6-0.6V39.9c-0.1-1-.4-1.9-0.5-2.8a1.5,1.5,0,0,0-1.3-1.3c-0.9.1-1.5,1-2.5,1.8a4.6,4.6,0,0,1,1.7-2.1,1.6,1.6,0,0,1,1.8-.6,3.5,3.5,0,0,1,1.7,2.5,23.4,23.4,0,0,1,.3,6c0,0.7.5-.8,0.7-1.1s1.4-3.5,2.3-5a2.9,2.9,0,0,0,.7-1.8A2,2,0,0,1,77.7,34ZM71.1,26h1.2a4,4,0,0,0,0,.5c-1.1,2.4-2.5,4.4-3.7,6.6-0.3.6,0.5,0.4,0.8,0.3a5.8,5.8,0,0,1,2.9.1c0.9,0.2-.1.5-0.3,0.6l-2.4.3a11.4,11.4,0,0,0-2,.8,15.6,15.6,0,0,0-1.1,3.9,29.8,29.8,0,0,0-.8,6.8l0.5,2.7a3.2,3.2,0,0,0,.9,1.6c-0.1.2-.3,0.3-0.4,0.1a5.7,5.7,0,0,1-1-1.6,7.3,7.3,0,0,1-.5-2.4,30.6,30.6,0,0,1-.3-4.3c-0.4-.2-0.5.2-0.4,0.5a1,1,0,0,0-.5.9c-0.9.9-1.6,2.1-2.9,2.6a1.4,1.4,0,0,1-.9,0,2.5,2.5,0,0,1-1.4-1.3,16,16,0,0,1-.2-2,8.1,8.1,0,0,1-3.7,2.8,1.6,1.6,0,0,1-1.5-.1,2.5,2.5,0,0,1-.7-0.9V42.3A16.5,16.5,0,0,1,56.3,35l0.9-.6h0.7a1.4,1.4,0,0,1,.8,1.6,0.9,0.9,0,0,1-.3.8,0.6,0.6,0,0,1-.7-0.4,0.7,0.7,0,0,0-.8-0.5,2.4,2.4,0,0,0-1.2,1.3c-0.5.7-.6,1.7-1.2,2.6a3.4,3.4,0,0,0-.6,1.5v3.3c0,0.5,1.3.4,1.9,0a6.7,6.7,0,0,0,2.9-3.7c-0.1-.9.6-1.6,0.6-2.6l0.4-.5a1.1,1.1,0,0,0,0-.6,4.8,4.8,0,0,1,1.7-2.4,0.8,0.8,0,0,1,.5.5,2.9,2.9,0,0,1,0,1.1,18.4,18.4,0,0,0-2.2,5.1v3.4c0,0.3.6,0.9,1,.6a11.3,11.3,0,0,0,3.9-5.1,1,1,0,0,1,.7-0.3,30.4,30.4,0,0,1,1-4.3c0.1-.2.2-0.9-0.1-0.8a5.2,5.2,0,0,1-1.9.6c-0.4,0-.5-0.6-0.3-0.9a2.5,2.5,0,0,1,.9-0.7c0.7-.4,1.7-0.3,2.2-0.6a29.7,29.7,0,0,1,3.7-7.3Zm78,6.6a0.5,0.5,0,0,1,.6.2c0.7,0.7.1,1.8,0,2.7-0.5,4.1.4,7.8,0.2,11.7s-1.8,9.2-5.2,11.2a8.5,8.5,0,0,1-2.4.5,5.3,5.3,0,0,1-1.6-.5c-1.5-.6-2-3.1-0.9-4.4s0.3-.8.4-0.9a22.1,22.1,0,0,1,7.1-5.4c0.2-.1.9,0,0.7,0.1a22.6,22.6,0,0,0-3.1,2,17.5,17.5,0,0,0-4.4,6,2.9,2.9,0,0,0,0,1.4,1.9,1.9,0,0,0,.8.8,3.3,3.3,0,0,0,1.1,0,11.8,11.8,0,0,0,2.6-1.5c2.5-1.9,4.1-5,4.1-9.4s-0.6-5.6-.7-9.1a32.3,32.3,0,0,1-2.3,6.4,3.4,3.4,0,0,1-2.2,1.8,2.4,2.4,0,0,1-1.7-2.5,12.9,12.9,0,0,1,3.3-8.8,1.2,1.2,0,0,1,1.3-.5,1.1,1.1,0,0,1,.7.3,2.8,2.8,0,0,1,.1,1.9,0.7,0.7,0,0,1-.8-0.2,1,1,0,0,0-.3-0.5,1.2,1.2,0,0,0-1.3.7,12.1,12.1,0,0,0-1.4,7.8,0.7,0.7,0,0,0,.9.5,2.8,2.8,0,0,0,1.6-2.2,6.7,6.7,0,0,1,.5-0.6c0-.2,0-0.7,0-0.8L147,41l1-3.7c-0.1-1.4.5-2.3,0.5-3.5A3,3,0,0,1,149,32.6ZM11.2,23.4a1.6,1.6,0,0,1,.9-0.1,2.1,2.1,0,0,1,1.3.8c0.6,0.8.2,2.5,0.2,3.7a41.8,41.8,0,0,1-1.8,6,42.7,42.7,0,0,1-2.5,4.7c-0.1.2-.5,0.1-0.4,0A25.2,25.2,0,0,0,10.1,36a18.1,18.1,0,0,0,1.6-5,22.1,22.1,0,0,0,.4-5.9c0-.4-0.7-1.2-1.1-0.8-1.9,1.6-2.9,4.2-3.3,7.2A21.2,21.2,0,0,0,7.5,36a81.6,81.6,0,0,0,.9,8.3l0.8,2.9a5.6,5.6,0,0,0,2.1,3.3c-0.3.5-.7,0.1-0.9-0.1a9.4,9.4,0,0,1-3-5.5A4.9,4.9,0,0,1,7,43.2a14.9,14.9,0,0,0-.3-1.9,9.2,9.2,0,0,1-4.5,4.4,1.6,1.6,0,0,1-1.6-.1A2.5,2.5,0,0,1,0,44.7V42.1a3.5,3.5,0,0,1,.5-1.7c0.8-1.2,1.1-2.4,1.7-3.5a6,6,0,0,1,2-2.6,1.2,1.2,0,0,1,1.3.6,4.5,4.5,0,0,1,0,1.5c-0.1.4-.6,0.3-0.8,0.1s0.2-.8-0.3-0.6a2.7,2.7,0,0,0-1.2,1.3c-0.5.7-.7,1.7-1.3,2.5a4.3,4.3,0,0,1,0,.7c0,0.1-.5.4-0.5,0.5v3.6c0,0.5,1.3.4,1.9,0a8.4,8.4,0,0,0,3.3-4.9c-0.4-2.2,0-4.5.2-7.4a10.5,10.5,0,0,1,.8-3.7,1,1,0,0,0,0-.4A19.8,19.8,0,0,1,9,25.3,8,8,0,0,1,11.2,23.4ZM121.4,46.7a5.6,5.6,0,0,0,2-1.4,12.6,12.6,0,0,0,2.8-4.6,31.4,31.4,0,0,1,2.1-5.3,0.8,0.8,0,0,1,.8-0.4l0.5,0.5a2.2,2.2,0,0,1,0,.9c-0.7,1.7-1.7,3.2-2.1,5.2a7.3,7.3,0,0,0-.1,3.5c0.1,0.4.5,1,1,.7a11.1,11.1,0,0,0,3.9-5c0.2-.3.7-0.3,0.6-0.7s-0.5-2.3-.8-3.5a12.6,12.6,0,0,1-.8-1.1c-0.1-.3.6-0.1,0.8,0.1a7,7,0,0,1,1.9,3.9,0.6,0.6,0,0,0,.5-0.5,22.1,22.1,0,0,1,1.3-4.1,5.9,5.9,0,0,1,3.1-3.5,2.2,2.2,0,0,1,1.4-.1,1.7,1.7,0,0,1,1.1,1v2.2a40.4,40.4,0,0,0-2.2,7.4,7.6,7.6,0,0,0,.1,2.7c0.1,0.4.7,0.1,1.1-.1a0.9,0.9,0,0,1,.7-0.4,1.9,1.9,0,0,1-1.7,1.7,4.3,4.3,0,0,1-.6-1c-0.4-3.6.4-7.1,0.9-10.3a4.7,4.7,0,0,1,.1-2,0.6,0.6,0,0,0-.9-0.6,9.5,9.5,0,0,0-3.2,4.5,25.1,25.1,0,0,0-.9,5.1,7.9,7.9,0,0,1,0,3.6c-0.3,0-.9.2-1-0.2a24.3,24.3,0,0,1-.8-3.7,0.6,0.6,0,0,0-.4-0.4,7,7,0,0,1-4.2,5.2,1.8,1.8,0,0,1-1-.2,1.8,1.8,0,0,1-1.1-1.8c0-.2,0-0.9,0-1.3a11.7,11.7,0,0,1-2.7,3.7,2.5,2.5,0,0,1-1.8.4,0.4,0.4,0,0,1-.2-0.3h0Zm-42.8.9a16,16,0,0,0-4.5,1.9c-2.5,1.5-4.7,3.3-5.9,6.1a3.1,3.1,0,0,0,0,1A1.7,1.7,0,0,0,70.4,58c4.5-1.3,7.3-4.6,8.4-9.3C78.9,48.3,79.1,47.4,78.6,47.6Zm21.7-13.9a1.6,1.6,0,0,1,1.7,1.2,7.2,7.2,0,0,1,.1,1.6,0.7,0.7,0,0,1-.8-0.2,2,2,0,0,0-1.4-1.3,4.7,4.7,0,0,0-2.5,2.8,15.4,15.4,0,0,0-1.1,5.5,0.9,0.9,0,0,0,.3.7h0.6l1.1-1.1c1-1.9,1.9-3.5,2.8-5.5,0.2-.4,1.2-0.3,1.2.2a39,39,0,0,0-.1,5.1,0.5,0.5,0,0,0,.7.4c0.4-.2.4-0.8,0.8-1s0.5,0.3.4,0.6a1.9,1.9,0,0,1-2.6.9c-0.6-.3-0.2-1-0.8-1.3V40.3a2.1,2.1,0,0,0-.7.7,9.4,9.4,0,0,1-1.7,2.5,4.4,4.4,0,0,1-1.4,1.3,1.2,1.2,0,0,1-1.4.1,1.6,1.6,0,0,1-.4-1.6,11,11,0,0,1-3.4,2.6,3.7,3.7,0,0,1-1.3,0c-1-.5-1.3-1.9-1.1-3.4a4.4,4.4,0,0,1,.4-1.2A15.7,15.7,0,0,1,93.2,35l0.8-.6h0.8a2.2,2.2,0,0,1,.8.8,2.1,2.1,0,0,1,0,1,0.8,0.8,0,0,1-.6.6c-0.7-.1-0.4-1.3-0.9-1a6.5,6.5,0,0,0-2.5,3.1,10.9,10.9,0,0,0-.9,5.4,0.8,0.8,0,0,0,.7.6,5.1,5.1,0,0,0,4-4.1A12.8,12.8,0,0,1,99.2,34,1.9,1.9,0,0,1,100.2,33.6Zm-56.9.8a1.2,1.2,0,0,1,1.6.9c0,0.5.2,1.1-.1,1.3a0.6,0.6,0,0,1-.8-0.2c-0.2-.3-0.5-1-0.9-0.6a8.6,8.6,0,0,0-2.4,3.9,8,8,0,0,0-.5,4.8,0.8,0.8,0,0,0,1.1.4l1.2-.6A6.8,6.8,0,0,0,44.7,41a2.4,2.4,0,0,1,1.2-1,8.1,8.1,0,0,1-4.1,5.3l-0.6.4a3.7,3.7,0,0,1-1.5,0c-0.6-.4-0.7-1.3-1.2-1.9a10.1,10.1,0,0,1-1.7,1.8,2,2,0,0,1-1.7.6,2.1,2.1,0,0,1-1.6-1.7,12.6,12.6,0,0,1,.7-6.3,9.7,9.7,0,0,1,1.5-3,0.7,0.7,0,0,1,.7-0.3l0.5,0.5a2.1,2.1,0,0,1,0,.9,24.5,24.5,0,0,0-2.1,5.2,5.5,5.5,0,0,0,0,3.6c0.2,0.3.5,0.9,0.9,0.6a12,12,0,0,0,4-5.6A11.1,11.1,0,0,1,43.3,34.5ZM110.8,26c0.4-.1,1.1-0.2,1.1.2a5,5,0,0,1-.9,2.2l-2.9,5a11.4,11.4,0,0,1,4.1.1,0.7,0.7,0,0,1,.4.4,21.6,21.6,0,0,0-4.8.9,4.3,4.3,0,0,0-1.1,2.4,44.1,44.1,0,0,0-1.2,8.9A11.4,11.4,0,0,1,106,49a2.3,2.3,0,0,0,.8,1.3c-0.1.2-.3,0.3-0.4,0.1a3.1,3.1,0,0,1-.9-1.6c0-.2-0.4-0.9-0.4-1.1a23.4,23.4,0,0,1-.4-5.1c0.1-1.2.4-2.3,0.5-3.6s0.7-2.4,1-3.8a14.4,14.4,0,0,1-2.2.7c-0.4.1-.5-0.6-0.4-0.9a1.2,1.2,0,0,1,1-.7,3.3,3.3,0,0,0,1.7-.4,5.2,5.2,0,0,0,1.2-2.2,32.9,32.9,0,0,1,2.7-5A2.7,2.7,0,0,1,110.8,26Zm2.1,7.9h1a3.3,3.3,0,0,1,1.1.8,5,5,0,0,1,0,1.6,5.8,5.8,0,0,1-2.7,3.7h-0.9a13.9,13.9,0,0,0,.4,3,1.9,1.9,0,0,0,2.9,1.3c1.8-1.2,2.5-3.3,3.8-5.1s0.1-1.3.8-1.1-0.5,1.5-.7,2.3a11.4,11.4,0,0,1-.8,1.4,7.4,7.4,0,0,1-3.7,3.3,2.6,2.6,0,0,1-3.3-1.9,6.6,6.6,0,0,1-.6-1.8V38.3a6.1,6.1,0,0,1,2.2-4Zm-96.5-.3a1.9,1.9,0,0,1,1.9,1.4,1.3,1.3,0,0,1-.1,1.3,0.9,0.9,0,0,1-.5,0A4,4,0,0,0,16,34.9c-1.5.7-2.2,2.1-2.8,3.9a14.2,14.2,0,0,0-.6,4.7,0.5,0.5,0,0,0,.8.3c1.6-1.3,2.4-3.3,3.4-5.3,0.3-.5.2-1.1,0.9-1.4a0.5,0.5,0,0,1,.7.4c0.1,2-.3,3.6,0,5.5,0.8,0.1,1.1-.7,1.6-1s0.5,0.3.4,0.5a2.1,2.1,0,0,1-1.5,1.1,2,2,0,0,1-1.7-1.3l-0.3-2.2a31.7,31.7,0,0,1-3.1,4.2,1.7,1.7,0,0,1-1.3.6,1,1,0,0,1-1.1-.7,14,14,0,0,1,4-10.3A1.7,1.7,0,0,1,16.4,33.6Zm105,13h-0.5a2.9,2.9,0,0,1-1-1.3c-0.9-3.1.6-6.4,2.4-8.6a3.1,3.1,0,0,1-2.5.1,0.9,0.9,0,0,1-.3-0.7,5.5,5.5,0,0,1,1.5-4h0.6a0.7,0.7,0,0,1,.4.7,19.4,19.4,0,0,1-1.6,3.8h0.5l2.2-1.5c0.4-.2.6-0.9,1.1-0.7a0.8,0.8,0,0,1,.2,1.1,37.7,37.7,0,0,0-3.3,5.6c-0.8,1.6-.9,4.3.5,5.5h0ZM32.1,43.5a2.3,2.3,0,0,0,.5.8,2.6,2.6,0,0,1,0,1.3,2.2,2.2,0,0,1-1.1,1c-0.4.1-1.3,0.3-1.3-.2a2,2,0,0,1,1-2v1.4a1,1,0,0,0,.5-1.2,1,1,0,0,0-.5-0.2,1.1,1.1,0,0,0,.1-0.8,14.1,14.1,0,0,1-3.7-4.1,3.1,3.1,0,0,1-.3-0.8V36a9.6,9.6,0,0,1,1.1-1.8,6.6,6.6,0,0,1,4.3-2.6,4.4,4.4,0,0,1,1.5.5,1.8,1.8,0,0,1,.7.8c0.1,0.3.2,0.7-.1,0.8a0.5,0.5,0,0,1-.7-0.3,3,3,0,0,0,0-.6,1.5,1.5,0,0,0-.8-0.8,6.1,6.1,0,0,0-4.8,7.3A3.8,3.8,0,0,0,30,41.9,13.7,13.7,0,0,0,32.1,43.5ZM25.9,32.1a6.9,6.9,0,0,0-2.7,1l-1,1a10,10,0,0,0-1.4,3.3c-0.4,2.4.9,3.8,2.2,4.9a4.5,4.5,0,0,0,1.5,1.2c0,0.6.7,1.1,0.5,1.7a2.3,2.3,0,0,1-1.3,1.4,0.8,0.8,0,0,1-1-.1,1.5,1.5,0,0,1,.3-1.6,5.9,5.9,0,0,0,1-1.3c-2.4-1.4-5-3.9-4-8a0.8,0.8,0,0,0,.4-0.8,17.3,17.3,0,0,1,2.3-2.1,5.7,5.7,0,0,1,2.6-1A0.7,0.7,0,0,1,25.9,32.1Zm87.3,3.3a4.1,4.1,0,0,0-1.5,4.3,4.6,4.6,0,0,0,2.4-3.7A0.6,0.6,0,0,0,113.2,35.5Zm16.5-3.6c0.3-.3,1.2-0.3,1.3.1a1.9,1.9,0,0,1-.9,2,0.5,0.5,0,0,1-.6-0.2,1.1,1.1,0,0,1-.2-0.9A3.7,3.7,0,0,1,129.7,31.8ZM37,31.8c0.3-.3,1.2-0.3,1.3.1a1.9,1.9,0,0,1-.9,2,0.5,0.5,0,0,1-.6-0.2,1.1,1.1,0,0,1-.2-0.9A3.8,3.8,0,0,1,37,31.8Zm25,0.3c0.1-.6.7-0.4,1.1-0.4a0.6,0.6,0,0,1,.4.8,2.4,2.4,0,0,1-1.1,1.4,0.5,0.5,0,0,1-.7-0.4,3.3,3.3,0,0,1,0-1Zm-36,0a2.5,2.5,0,0,1,.9.1A1.3,1.3,0,0,1,27,34c-0.6-.6-0.6-1.4-1.1-1.9h0Zm-2.4,13a1.3,1.3,0,0,0,0,.5,0.3,0.3,0,0,0,.5-0.1c0-.4.4-1.4-0.3-1A1.6,1.6,0,0,0,23.5,45.1Zm8.5-1.6a1.6,1.6,0,0,1,.1-0.5c0.2-.3.6-0.9,1-0.4a4.6,4.6,0,0,0-1.2.8h0Zm-7.5,0,0.2-.6c0.1,0.1,1-1.2.6-.2a1.6,1.6,0,0,1-.8.8h0Z"/></svg>
