<svg xmlns="http://www.w3.org/2000/svg" width="10000" viewBox="0 0 723 278"><defs><style>.a{fill:#a90533;}.b{fill:#fff;}.c{fill:#519032;}.d{fill:#0c0c0c;}.e{fill:#231f20;}</style></defs><path d="M181 146c.2 24.4-23.4 51.4-49.1 48.2S84.8 169.3 86.7 143c1.5-21.4 24.1-43.3 45.7-43.5 25.7-.2 48.4 20.3 48.6 46.5z" class="a"/><path d="M165.3 163.9c-2-6.7 5.1-4.6.9-12.8-2-3.9-4.5-6.6-8.3-7.9s-7.7-2.5-11.7-1.5c3-1.5 4.6-3.7 6.5-6.4s3.7-5.1 3.9-8.7.7-7.9-1.3-9.6-3.4.4-6.1-.6c-5.4-2-3-6.2-10.6-2.3-3.9 2-5.8 5.2-7.2 9s-2.8 7.3-2.1 11.3a17.6 17.6 0 0 0-5.8-7.2 16.5 16.5 0 0 0-9.2-3.5c-2.3-.1-7.1.6-8.8 2.9s0 3.2-1.1 5.8-4.8 1.2-5.6 3.9 1.4 5.8 2.3 7.3c2.2 3.6 6.4 5 10.1 6.2s8.6.8 12.5-.2c-3.2 1.7-6.3 5.4-8.2 8.2s-3.8 5.7-3.7 9.6c.1 2.2.1 7.2 2.1 8.6s4.2-1.5 6.8-.4 1.3 4.3 3.9 5.1 4.6-.8 5.9-1.4c3.8-1.9 5.6-5.8 7-9.6a20 20 0 0 0 1.2-11.8c1.3 2.6 3.8 4.3 5.8 6.2s3.9 4 6.9 4.8 15 .5 13.4-4.8c-.5-1.7 1 1.5.5-.2z" class="b"/><path d="M139 142.9h-2.4c-.1-3.3-4.6-5.5-7.1-2.8-.5.5-.2 6.3-1.3 6.3.7 1.4 7.5 4.2 6.4.6 1.1-.7 1.1 2.7 2.8.3.3-.4-.9-1.6-.7-1.9s2.1-.6 2.2-2.6c-.7-.2 0 1.1.1.1z" class="c"/><path d="M520.1 107.9c-2.9 21.3-15 42-39.6 41.4-19-.4-40-14-41.7-35.2s12.7-45.1 35.1-47.2c20.8-2 49.4 17.5 46.2 41z" class="a"/><path d="M575.9 13.3c-1.1-4.4-.6-9 .3-13.3 5.8 1.9 12.9.8 18.8.4 8.1-.5 9.5 2.2 9.9 10.6.4-2.2 2.5 4.9 3.1 6.6a56 56 0 0 1 2.4 10.7q-1.9 2.3.1 3.7a5.4 5.4 0 0 1 1.8 3.5 44.8 44.8 0 0 1 .4 8c.1 8.3 4.9 14.5 6.7 22.2s-4.3 14.9-10.3 18.1-17.7-.2-24.8-.7-5.9.8-7.1-4.7.2-10 .4-14.3c.4-9.4-.3-18.5-.5-27.9 0-3.6.2-7-.2-10.6s0-9.4-1-12.3zM550 2.4c9.8-5.5 7.6 17.9 7.8 22.8.6 11.1 2.3 21.9 2.6 32.9.2 5.5 1.2 9.1-4.7 10.8-4.2 1.2-10.1.5-14.5 1-8.3.9-23.7 5.9-31.8 2.9-3.8-1.4-7.1-5.2-11-6.9s-11.8-1.4-15.2-3.8C478 58 478 38.6 476 31c-.8-3.1-3.1-9.7-2-12.9s6.9-4.7 11.2-5.9 8.3-.9 12.7-1.4a49.3 49.3 0 0 0 7.3-1.3c2.8-.8 3.3-2.8 6.6-3.1.5 8.9.7 17.6 1.3 26.5s-.3 17.8 6.8 22.5c5.6-10.7 3.1-27.8 1.4-39.2-.4-2.7-3.5-7.9-2.5-10.5s4.5-2.8 8.6-3.4 19.7-2.9 22.6.1zm60.3-.9c6-.2 6.5 10.5 7.1 15.4l-1.1 2.7a6.4 6.4 0 0 1 2.1 3.9c.5 2.4 0 5.2.6 7.5q4.2 1 3.3 5.5l.2 4a37 37 0 0 0 2.1 10.5c1 2.9 7.1 13.7.9 13.4s-7.7-25.5-8.8-31.2c-2.1-11-4.9-19.9-6.4-31.7z" class="d"/><path d="M620.3 2c4.6-.3 9.5 23.9 10.2 27.9 1.1 6 2.3 12.1 3.6 18.1s6.6 15.5-.3 15.8c.4 6.2-1.7 7.2-5.9 2.5 5.7-4.4 2.8-8.7 1.1-15.5s-2.7-12.2-3.7-18.4c-1.4-9.6-5.1-20.4-5-30.4zm9.3.5c7.6 1.9 13.2 35.8 14.3 43a263.9 263.9 0 0 0 6 26.3c2.2 8.4 2.1 16 2.9 24.5 1.5 16.6 7.4 32.6 10.9 48.9 1.4 6.5 2.4 12.5 3.7 18.3 1.9 7.9 5.4 17.1 5.7 25.2.1 2.1.3 8-3.4 6.7-.8-.3-3.2-13.1-3.5-14.7-1.7-8-2.2-16-4.3-23.9-4.6-16.8-9.5-33.8-11.9-51.2s-7.1-34.6-10.7-51.8c-1.8-8.5-3.9-17-5.3-25.6s-4.5-17.2-4.4-25.7z" class="d"/><path d="M640.3 7.8l1-2.2c10.2 18 10.7 40.3 15.6 60s6.1 37 10 55.6c1.9 9.1 5.3 18 6.6 27.2.3 1.9-.2 5.2.2 6.7s1.6 4.6 2.6 7.6 2.1 9.3 3.2 13.7c.5 1.9 3.1 12.1-1.2 12-2.5-.1-4.1-10.5-4.5-12.7-1.4-8.2-3.2-15.8-3.6-24.3q-.6 3.3-3.3 3.5c-.2-3 1.4-4.4 1.5-7.1s-1.4-5.6-2.1-8.2c-1.2-4.6-4.6-13.5-1.4-17.8-4.1.3-3.5-5-4.1-8.6-1-5.8-2.3-11.5-3.4-17.3-1.9-10.6-4.3-21.4-6.6-31.9-1.9-8.8-4.2-17.7-5.7-26.6s-5.4-19.7-4.8-29.6zm8.3-1.3c7.1.2 13.5 34.3 14.8 41.1 3 15.2 5.4 30.6 8.2 45.9s6 29.4 8.5 44.2c2.2 12.7 9.6 29.7 6.6 42.1-2.8-.1-5.9-11.4-6.5-13.9s.7-4.5.4-6c-.7-4-2.6-6-3-10.3-1-11.7-5.2-23-4.2-35.2-7.4.8 1.2-7.3-5.4-6.7 1.9-6.5-2.5-18.8-3.9-25.6-1.7-8.4-3.6-16.8-5.4-25.2S655 40.3 653.2 32s-1.5-17.5-4.6-25.5z" class="d"/><path d="M658.8 9.1c6.5-.4 7.8 18.1 9.1 22.2 3.2 10.8 4.3 21.5 6.9 32.2 5.1 20.9 10.2 42.9 13.1 64.1 4.8-4 3.4-3.1 1.6-9s-1.4-9.5-2.3-14.3c-2.1-10.5-4-21-6-31.3s-4.3-19.2-6.4-28.7c-1.3-5.8-1.9-11.5-2.7-17.4-.5-3.6-3.9-11.4-2-14.5 7.1 5.8 8.7 25.8 10.1 34.3s4.1 35.8 11.3 38.2c-2.2 13.6 3.6 27 6.2 40.5 1.2 6.5 2.3 12.9 3.5 19.4.4 2.3 1.5 5.1 1.7 7.4.4 4.7.8 3-2.8 7.5-.4-5.6-2.3-11.1-3.6-16.5-.9-3.6-.9-8-2.6-11.2s-.2-3.6-5.7-3.8c.5 6.6 2.3 14.1 3.4 20.7s5.3 14.5 1.3 21.7c-1.8-2.7-2.4-6.5-3-9.7 0 .2-2.2-10-1.4-6.1-1.3-6.9-3-14.1-4.1-21s-.8-12-2.5-17.6c-.9-2.8-2.6-5.2-3.3-8.1s1.3-8-4-7a3.1 3.1 0 0 1 2.8-3.2q-1-3.4-2.4-6.8c-.9-3.3-1.4-6.7-2.2-10s-2.3-5.8-2.9-8.5c-1-4.5 2.4-9.4-3.6-9.6 2.6-5.5.6-8.9-.7-15.2-.8-4-1.8-8.2-2.3-12.2-1.2-9-2.8-17.6-4.5-26.5zm23 7.6c12 5.6 19 15.1 25.1 26.5s13 20 15.3 33.5-.4 27.2-2.2 39.8c-.9 6.1-2.8 9.3-5.9 14.4s-2.4 14-7.1 17.1c-.2-9.3-4.6-19-3.6-28.2-1 7-1.7-1.8-2.9-5.5a91.8 91.8 0 0 1-3.3-11.3c-1.7-8.9-3.4-18.2-5.3-27.2-4.2-19.3-10.9-39.3-10.1-59.1zM449.7 27.8c2.3-1 3.9-3 6-4.5 4.2 5.6 3.2 17.1 3.8 23.7.7 8.2 6.2 15.9-1.7 20.9-3 1.9-7.5 2.3-10.7 4.6a41.5 41.5 0 0 0-7.9 8.2c-2.3 3-5.1 6.7-6.6 10.2-2.2 5.3-.4 12.1-6.7 13.3.6-7.5 2.5-17.9 7.5-23.8 1.9-2.3 4.3-3.4 6-6.1s4.7-6.2 4.3-9.6c-2.9-.4-4.6.4-5.2-2.8a25.1 25.1 0 0 1 6.7-.1q.3-3.3.7-6.5c-2.9 6-3.7 4.9-10 3.9-3.5-.5-8.4.5-8.2-3.7a9.8 9.8 0 0 1 6.7 2c-1.1-3-2.5-4-.2-6.3 1.3 2 3.2 4.1 5.8 4.4-.5-3.6-4.9-3.1-6.9-5.1-4.6-4.6.4-6.3 3.9-10.8-1.8 2.2-6.3 3-7.6 5.4s2.3 4.7.8 8.9c-5.3-.8-4.2-13.3-4.4-16.6 5.2.4 14.7-11.4 17.9-2.7 2.1-6 .5-5.8 6-6.9zM97.5 61.1c5.8-3.5 14.3-2.3 20.7-1.9s6.4.6 6.8 6.9c.2 3.6.1 7.2.3 10.8s1.2 9 .4 12.5c-1.2 5.6-1.4 4.4-6.5 5.8-7.1 1.9-14.2 8.6-19.9 3.6.4 3.2 1.4 3.4 0 6s-5.7 5.4-7 6.6-6.3 8.9-8 9.2c-6.8-5.2-8.1-20.5-12.4-27.9-2.9-4.8-11-18.4-9.9-24.1s6.1-4.6 10-5.2c5.6-.8 14.5-3.5 17.9 1.3S92 76.6 93.4 81s4.7 7.6 5.1 11.8c2.9-2.8.7-6.5 4.4-8.7 1.8 2.2.2 2.6-1 4.9 3.6-.3 2.3-2.2 2.3-5.4q3.5 0 2.9 3.6c5.3-5 6.5 1.6 5.2 6.2a10.3 10.3 0 0 1-2.1-5.4c-2.4 1.3-6.4 1.6-3.9 4.6a4.1 4.1 0 0 1 3.4-2.6c.4 4.1-3.1 5.5-7 4.3-.1 4.6 4.5 0 7.1 2.1.2-3.2 1.1-3.4 3.8-1.5-.3-3.4-.8-5.3 1.5-6.9.7-.5.1 3.3 4.1.6a7.7 7.7 0 0 1-.9 5c3.4-2.8 3.1-2.9 3.8-6.7-.8.6-5.7 1.2-6.5.5s2.7-3.7 2.4-3.4c1.7-1.8 2.5 1.3 3.7-2 .6-1.6-2.1-6.7-2.8-7.6-1.7 5.2-5.3 1.8-.8-1.2-7.2-2.2-1.3 2.2-5.8 5-3.6-4.1.1-4.7-4.9-6.8a8 8 0 0 1 1.9 6.2c-3.9.7-3.9-7.2-4-9.1-4.6.9-2.2 5.2-2.7 9.4-3.5-3.4-4.2-12.4-5.1-16.8zm42.4-1.7c6.3.3 12.5.2 18.8.7 3.8.3 17.5 1.8 6.4 4 5.7.9 4.1 4.8-.7 3.1-.9 2.4-14.9 9.6-17 7.7s3.7-4.4 5.1-5.1c4.2-2.1 4.6 0 5.2-5.4-3.6 2.7-6.6 3.3-10.6 3.7s-5.7-.9-5.2 4.9l3.9-3.9a6.2 6.2 0 0 1-1.4 5.5c3.5 1.4 4.7 1.8 3.5 5.5-3.2-2.4-7.2-4.2-8.4-7.4s.3-9.7.4-13.3z" class="d"/><path d="M428.3 61.1l3.1-1.1c.8 3.8-4.1 5.6-3.6 9.3.3 2 9.3 3.9.8 4.7 3.6 7.1-2.3 11.1-2.5 1.9 0-4.4 1.4-10.3 2.2-14.8zm7.4 1.5a1.5 1.5 0 0 1 0-2.5c2.9-.3-.1 3 0 2.5zm-251.8.4c3.7-.2 19.3-.5 21.7 2.3s-2.2 21.6-2.8 24.6c-1.4 7.1-.9 13.9-3.8 20.5s-6.8 13-10.9 16.7c-5.4-7.8-9.8-15.4-17.4-21.4-4.6-3.6-20.2-8.7-20.4-14.1 3.4-.9 4.4 1.1 4.8 3.7 2.4-3 2.1-9.4 6.4-9.5-.6 3.2-2.5 6.3-1.6 9.6 4.5-.6 1.2-1.7 2.8-5s-2-3.6 4.9-4.7c-2.7-2.8-1.5-2.5-2-4.8l1.3-.5q2.7.2 1 2.3a50.5 50.5 0 0 1 1.5 5.2c-.7 4.9-6-5.1-3.9 4.5 5.6-6.1 3.9 4.4 10.3-1.4 2.9 4.3 1.7 9.1 7.1 8.9-.6-2.1-2.5-3.9-3-5.9l-1.9-2.7 2.8-2.2a18.8 18.8 0 0 0-.6-3.3c-.7-2-2.5 1.1-4.3-.1s2-2.8 3.3-3.7c-7.5-10 5.9-1.5 5.6 4.3 2.8-1.6 6 4.4 7.7 1.2-3.1-1.4-7.6-3.9-8.9-7.6-2-5.8.5-7.1 5.2-3.1.7-6-9.3-5.2-6.9-11.4a32.4 32.4 0 0 0 3.8 1.8c-.2-1-3.1-2.6-1.8-4.2zm251.3 1.5q5.3-.9 1.1 3.7a4.6 4.6 0 0 1-1.1-3.7z" class="d"/><path d="M433 70.2c-2.3.3-3.4-2.9-2.8-4.6 2.3 0 3.4 2.7 2.8 4.6zM165.3 70h3.2q1.6 5.1-3.2 3.8V70zm15.4.8c4 1.4 2.5 3 0 4.7-1.2-1.7-1.5-3.3 0-4.7zm-20 2c1.5-1.9 3.7 1.5-1.2 4.6q-2.9-2.6 1.2-4.6zm-7.4 1.2c4.8-.6 4.1 6.9 0 0zm481.4 5.1c7.8-15.5 10.2 15.3 11.2 19.4 2.7 11.6 3.8 23.6 4 35.5-6.9-4-8.4-15.4-9-23-1.3 3.3-1.8 5.5-1.3 8.9s3.3 6.7 1 9.2c-5.6 6.2-8.2-12.1-8.9-15.1-3.3 4.3 1.4 7.7.1 11.8s-6 1.6-9.9.5c-5.5-1.5-7.6-.9-10.2-6-1.5-2.9-2.6-8.7-2.9-11.9-1-9.3 4.1-9.8 10.2-16.2 4-4.1 2.7-6.7 6.4-2.1 2.3 2.9 2.2 7.5 4.5 10.7-.5-3.5-2.8-7.9-2.8-11.3s2.2-4.8 5.4-7.9c3.5 3.8 3.1 8.9 3.7 13.6a51 51 0 0 0 4.2 14.3c1.3-9.7-3.9-20.9-5.7-30.4zM162.8 77l4.1-1.7c.4 6.4-10.3 15.7-4.1 1.7zm388.4-1.2c4.7-1.2 10.1-2.6 11.3 2.6.4 1.9-.7 6.1-2.6 7.4s-11.8.5-14.9.7l-12.8 1.4c-3.8.5-10.5 3.4-12.1-1.7s1.5-5.2 4.7-6.6c7.3-3.3 18.5-3 26.4-3.8zm-399.9 0c2.2 2.5 1.5 3.9-.8 5.8a7.7 7.7 0 0 1 .8-5.8zM45 79.1l3.7-2.7c3.1 3.9 4.3 10.7 6 15.4s4.9 11.5 7.5 17.3 3.4 8.9 5.3 13.3 6.4 9.7 5.7 15c-7.2.3-11.5 1.2-14.9-5.4s-3.9-13.1-6.7-19.4-5.4-12-8.5-17.9c-1.2-2.2-4.2-7-4.2-9.3.2-4.9 2.2-3.8 6.1-6.3zm95.5-1.8l1.2-.6c.5 3.4 1.5 6.3-1.2 8.6a16.3 16.3 0 0 1 0-8zm-35.1 3.9c-1.2-1.4-1.1-4.6 1.6-4.1a3.4 3.4 0 0 1-1.6 4.1zm.6.7l4.7-4.1q2.3 3.1 4.6-.1c1.4 7.7-5.7 3.2-7.3 7.1a3.8 3.8 0 0 1-2-2.9zm10.7-2a7 7 0 0 1 2-2.3c4.2 5.8-2 5.6-2 2.3zm-15.7-.1l2-.8c1.3 4-2.2 5.5-2 .8zm52.3-.8c2 .3 2.3 4.2 2 5.6s2.1 2.5-2.8 2.5c1.5-2.4 1.1-5.5.8-8.1zm3.1 1.2l1.8-1.8c.9.9 1.8 3.8-.4 4zm-12.2-.8c2.9 1.4 3.8 2.9.1 3.7v-3.7zm3.3 3.4c1.5 1.9 2.2 6.2 1.2 8.5s-.4 3.6-2.7 2.6a41.5 41.5 0 0 1-6.4-1.2c-1.1-1.6 1.2-5.8 2.4-6.6s2.3-1.3 4.9.9zM34.2 87.2c5.6-1.8 9.5 19.8 10.6 22.6s13.8 17.3 10.2 21.9c-5 6.2-8.9-12.8-10.3-16.5-2.4-6.1-12.7-21.5-10.5-28zm139.8.3a30.9 30.9 0 0 1 5.3-.3c-.4 4.5-3.8 4-5.3.3zm426.9.9q3.3-2.6 3.4 1.3-3.8 2.3-3.4-1.3zm-574 2.8l1-1.6c2.3 2.2 3.3 7.9 4.5 10.7 2.2 5 4.4 9.8 6.5 14.9 2.9 7.1 8.3 13.6 7.2 21.3-5.6-2.5-7.3-13.6-9.5-18.7-3.4-7.6-9.6-18.3-9.7-26.6zm-7.1 4.2q4-1 2 4.3-4 .3-2-4.3zm525.8.3c1 5.1-.2 5 5 5.8 3.3.5 7.7-1.3 10.9-1.8a108.6 108.6 0 0 1 19-1.7c7.1 0 12.4-1.9 14.9 4.9s2.2 14.1 2.9 20.7 1.5 9.1-4.8 12.9-11.8 6.9-17.7 10.4-11.5 9.8-16.8 5.6-7.7-13.9-9.4-18.9c-1.7 5.4-6.4 4.9-6.7-1.1 7.4 0 .7-8.5-1.5-12.1s-7-10.2-9.3-15.6q4.1.6 3.2-2.3t3.7-2c3.4-2.3 4.2.4 6.6-4.8zm-532.3 7.5c3.4-1.5 51.9 113.4 53.6 125.6-7.5-7.1-11.5-22.3-15.9-31.7-5.3-11.2-11.2-22.8-15.3-34.5-3.4-9.6-6.4-19.1-10.4-28.5-2.4-5.5-4.4-11.1-6.6-16.6-1.5-3.7-5.9-10.1-5.4-14.3zm9.1.3c5.5.5 12 21.5 13.6 25.8 4.1 11.3 8.6 22.1 13.6 33s9.7 22.3 13.5 33.5S76 219.6 77.8 233c-7-7-10.8-19.9-14.7-28.8-4.6-10.7-9.6-21.2-14.1-31.9s-8-22.2-12.6-33.1c-2.6-6.1-5.7-12-8.1-18.2s-6.1-12.3-5.9-17.5zM425.9 117a12.3 12.3 0 0 1 5.7-2.6c.5 6.2-3.1 8.8-5.7 2.6zM3.4 125.3c1-4 3.9-12.3 8.1-9.5s4.5 10.8 6 14a359.8 359.8 0 0 1 13.9 34.1c7.6 22.1 20.1 42.2 26.2 65-8.4 3.9-24.8-9.3-30.7-14.5-8.5-7.5-13.2-15.9-16.7-26.6-2-5.9-1.9-12-3.6-17.8-.7-2.2-2.4-3.5-2.8-5.8s1.4-4.6 1.4-7c-.1-5.3-3.9-9.2-4.9-13.7s1.9-12.7 3.1-18.2zm520.3-.2c6.7-4.8 9 7.2 11.1 12.2 2.7 6.5 6.9 11.1 9 18.2s3.6 4.8-1.6 8.8c-2.7 2.1-7.7 3.6-10.8 4.8-5.6 2.2-16.9 7.8-22.7 7 3.4 1.5-2.7 2.7-4.8 2.7-5.2.2-2.8 1.6-5-3.3-1.2-2.5-4.1-19.8-2.9-22.1 2.1-4.2 12.4-7.6 16.1-10.8 5.6-5 7.6-11.4 11.6-17.5zm-324.6 7.3l2.1-1.1c-.2 10.6 1.8 20.7.2 31.3-.9 6 .5 9.4-6.4 9.9-4.8.3-9.9.3-14.7.4 0-6.8 5.5-14.1 8.4-19.9s6.1-14.4 10.4-20.6zm240.6 9.4l3.8-4.4c2.3 2.5 4 6.3 6.4 8.5s4.5 2.6 7.2 4.3 4.6 5.2 7.3 6 5.9-1.7 8.9-1.3c10.2 1.5 17.1 25 8.2 29-6.4 2.9-19.2 2.2-26.2 2.8-4.6.4-17.4 3.1-20.2-1.1-1.1-1.7 1.1-6.7 1.3-7.9.5-3.9-.1-7.7.2-11.6.8-7.5.9-17.1 3.1-24.3zm179.7-1.5c3.4 1.7 13.7 2.3 15.8 4.2s1.1 10.5 1.1 13.9 2.1 6.9-.8 10.9c-.7.9-2.8 5.3-4.4 2.9s3.8-3-1-7.9c.8 4.8-.7 7.2-5 8.4-2 .6-.4-2.5 0-3s3.5-1.4 4.6-1.7c-2-3-.6-8.8 3.8-5.3-2.5-2.5 1.4-4.7 1.8-7.1a38 38 0 0 0-6.6 5.8c-2.4-3.7-3.9-1.8-8.4-1.5a16.8 16.8 0 0 1 1.7-6.9c-3.2 1.1-5.3 7-7.2 9.6 3.4-.5 4.2-1.6 6.8.9-5.3 3.1-7.8.9-12.4 4.7 2.7-.6 6.2-2.5 6.1 1.7s-4.7 2.2-4.9 4.5a31.2 31.2 0 0 0 10.5-7c1.2-1.2 5.5-6.6 7.5-6.3.6 2.2-7.9 12.4-8.8 15 2.8.2 3.9-1.7 6.6-1.9s4.1.6 6.9.7c-3.5 5.2-4.6 1.4-9.4 3.2-2.9 1.1-5.9 5-8.2 7.1-10.1 9.3-8.7-1.9-12-9.2a6.4 6.4 0 0 1-3.5-2.7 49.4 49.4 0 0 1-2.9-7.3c-2.1-5.3-4.1-8.7 1.1-13.1s14.7-9 21.2-12.6zm-74.3 3l1.9-1.5q-.7 2.7-1.6 5.3l-4.4-2a8.4 8.4 0 0 0 4.1-1.8zm105.5 3.1c5.2-3.5 6.9 7.4 7 11.4a7.4 7.4 0 0 1-.6 5.2q-1.9 2.7 2.1 2.7c.3 1.8-.3 3.7-.1 5.5-.2-1.3.8 7.5.6 6.8l3.2 2.7-1.2 2.9c1.6 4.2 4.9 10 3.5 14.8-2.4 8-5.1-1.4-5.8-5.5s-1-9.5-2.2-14.5-1.3-9.9-2.3-14.1c-1.4-6.2-5.7-11.1-4.2-17.9zm-600.3 2.3c6.1.6 9.9 17.9 12 23.1s10.4 18.7 7.8 22.7c-1.4 2.2-9.5-17.6-10-19-2.9-7.1-10.9-19-9.8-26.8zm591.6.6c6.7-1.4 4.2 6.5 5.1 11.1l-.8 2.5 2 1.5c.1 3.8.4 3.2-1.4 7.3-2.7-2.8-2.3-5.1-2.8-8.6s-2.9-8.8-2.1-13.8zm-582.4 1.9c6.2-3.2 19.1 32.6 16.9 34.6-3.8 3.3-7.3-10.3-8.6-13-3.4-7.4-6.4-13.6-8.3-21.6z" class="d"/><path d="M68.9 155.7c-.1-4.4-2.3-3.7 2.8-4.6s7.5 1.3 9.8 4.1 5 9.7 5.7 13.1c1.1 5.6-2.5 9.9-6.5 13.9a66.7 66.7 0 0 1-11.8-26.5zm502.6 11.4c3.1-1.7 6.4-2.6 9.5-4.2a26.8 26.8 0 0 0 2.8 7.4c-6.8-.8-15 6.1-20.8 9.1-3.9 2-18.8 11.6-22.9 9.7-7.4-3.3 3.7-9 6.9-10.4 8.1-3.7 16.5-7.3 24.5-11.6zm64.3 8.2c-2.9-2.3 1.1-5.6 3.3-6.1.1 3.8-.4 4-3.3 6.1zm10.4 2.3c-.7-2.5 1.1-4.7 2.5-6.4 2.6 1.9.4 6.5-2.5 6.4zm-12.1-.1c2.7-.8 5.5-5.1 6.4-.8.5 2.4-4 5-4.3 7.7 1.9-.7 3-3 5.2-2.9.2 2.6-6.7 8.2-8.7 8.8s-3.9-.5-7.2.2c1.9-6.4 9.3-.3 8.1-8.1l-3.9 3.5c-.2-1.6 2.8-7.9 4.4-8.4zM572 187.6c5.2-2.7 10.4-5.4 15.5-8.5-1.5 8.2 5.7 16.1 9.2 22.6 4.5 8.4 7 18 11.1 26.6 2.9 6.1 3.5 5.3-2.3 8.4a133.2 133.2 0 0 1-12.5 5.8c-5.6 2.2-7.5 3.2-10.1-2.6-1.7-3.7-3.3-12.2-1.6-14.8-4.3-1.9-4.3-2.6-1.4-6.2a5.1 5.1 0 0 1-4.6-1c1.8-1.6 9.3-8.9 9.5-10.4-4.2-.2-6.6 7.2-9.7 6.6s-.7-4.4.3-5.8 5.2-1.9 5.1-5.3c-2.5 2.4-3.2 2.1-6.3.5a6.7 6.7 0 0 1-1.7 6.8q-4.8-1.8-1.5-5.5c-5.4 1.9-2.7 1.9-2.1 6.6.3 2.4.5 6.6 0 8.7-1.5 6.1-7.5 5.5-4-1.6-7 5.6-.8 10.4 5.4 4.9a215.1 215.1 0 0 1 9 24.7c-3.8.8-10.3 0-13.5 2.1s-2.8 3.5-5.2 4.7-7.4 2.6-9.2 1-2.4-9.3 1.3-9c-.5-1.9-2.1-6.9-1.7-8.6s5.7-3.4 3.7-6.1l-4.5 3.3c.1-4.5-2-8.2-.2-12.4h-5c3.6-3 3.5-7.1 7.2-3.9 1.6 1.4-.2 2.8 1.6 4.3s4.4 2 4.4-.5c-4.9 1.3-2.6-1.8-5.5-4.5s-2.9-.1-7 1.2c-2.7-4.4-5.2-17.5-.8-21.4 2.4-2.2 8.6-2.9 11.7-4.2 5.1-1.9 10.1-4.6 15.4-6.5zm77.7-8.3c3 .7 2.2 1.6 1.2 4.5 3.2-.1 4.2 7.8 4.9 11.6s2.8 10.8-1.5 13.1c-3.3-4.3-2.3-10.7-3.8-15.5l-1.3-2.6q-2.4-2.7.3-5c-.4-3-3.2-1.3.2-6.1zm-23.1 2.1a3.9 3.9 0 0 1 3.1-1.5c-1.6 3.4-4.5 9.1-8 6.9a34.9 34.9 0 0 0 4.9-5.4zm-456.4 4.3c3.2-3.4 21.3-2.9 25.8-2 6 1.3 4.1.8 5.1 6.8s1.5 8.3 1.4 12.9a88.6 88.6 0 0 0 2 20c1 5.1 2.7 12.3 2.6 17.6-4.5-4.3-1.2-1.4-4.9.6s-5-.2-6-1.5c-3.5-4.4 1.1-11.5-3.3-15.3a50.3 50.3 0 0 1 7.4-1.8c-3.5-3.5-4-2.1-8.3-.6.8-5.8 5.3-2.1 5.1-6.6a10.7 10.7 0 0 1-5.9 1.6 2.8 2.8 0 0 1-1-3.7q2.5-3.2-2.4-3.7.6-5.8 5.1-2.4c-.1-4.2-1.7-3.3-4.8-1.3-2.4-3.7.6-8.2.4-10.9-3.8-.7-8.1 5-5.3-3.9-6.3 2-5 3.3-4.4 9.9a128.8 128.8 0 0 0 2.4 16.6c1.8 8 5.5 16.1 5.5 24.6-8.1.5-11.2-2.2-10.9-10.2a27.5 27.5 0 0 1 6.8 3.1c-1.9-2-8.2-3.7-8.8-4.5-2.4-3.3 9.7-10.8 1.9-10.8 1.1 3.8-1 6.3-3.6 3.1s-.2-7.2.1-9.8a29.6 29.6 0 0 1 5.1 3.7c-2.1-7.1-6.4-2.4-9.5-6.9s3.9-2.7 5.9-1.3c-.8-5.3-3.9-8.3-8.1-11.9-2.4-2-4-.8-3.6-3.8 0-1.3 7-6.5 8.2-7.6zM612 189c2.2-.9 4.4-4.9 6.6-5.3 5.1-.7-1.8 4.2-2.1 4.6s-2.7 4.9-4.6 6.1c-4.3 3-2.8-4.1.1-5.4zm-92.6.2l6.5-2.9c0 1.4 1.4 6.1.8 7.4s-3.9 3.1-7.1 4.3a135.1 135.1 0 0 1-19.1 4.9c-6.4 1.3-12.8 2.5-19.1 3.9-3.8.8-13.5 4.6-17.1 2.8s-2.3-8.2 1.1-10.3 13.2-.2 18.2-.9c12.5-1.8 24-5.8 35.8-9.2zm-433.3 6.4c4.1-4.4 7.1-12.5 11.9-4.8 3.2 5.2 4 11.5 6.4 17s6.2 11.6 8.8 17.5 4 12.7 7.7 18.1c-11.5 1-16.1-5.5-19.6-14.5a340.8 340.8 0 0 0-15.2-33.3zm551.3-2.9c-.1-2.9 2.1-6.4 5.4-6.1-.1 2.8-1.9 6.7-5.4 6.1zm-16.5-1.9l2.6.4a15.8 15.8 0 0 1-2.3 5.5q3.9-.7 2.1 3c-6 .6-4.6-6.5-2.4-8.9z" class="d"/><path d="M633.6 192.1l2.3-1.5c2.8 6-2.2 2.5-3.1 7.7 2.3-1.2 4.5-3.1 6.5-4.2s.6-5.1 5.3-1.6c3.1 2.3 3.7 9.4 3.7 13 .2 9.7-11.7 15.7-20 19.2-6.1 2.6-6.5-.5-8.8-6-1.2-2.7-5.5-9.4-1.1-10.8s2.9 6.4 7.8-1.5c2.3-3.7 3.8-8.1 5.8-12-1.5.8-10.9 4.2-7.1-1.2.7-.9 7.1.1 8.7-1.1zm-22.8 7.3a14.9 14.9 0 0 1 5.3-5.1c1.1 3.9-1.9 6.8-5.3 5.1zm-448-.9l3-.5a2.3 2.3 0 0 1-1.3 2.5z" class="d"/><path d="M621.4 203.8c2.3-2.2 3-5.7 6.3-5.3-1.5 4-2.2 10.4-6.3 5.3zm-504.1-4.2c6.6-1.1 13.8 2.7 20.8 2 8.9-.8 11.8-4.6 14.1 5.6 2.9 12.7 8.9 23.6 10 36.9-7.2-1.2-15 .6-22.1-.9s-6.5-4.3-8.7-9.7c-4.7-11.2-10.7-22.3-14.1-33.9zm46.9 2.9c6.8-2.6.4 6.1 0 0zm273.1-.5c4.4-1 9.9-2.6 11.6 1.6 1 2.5-.5 5.4-2.2 6.8-5 4-16.5.2-22.5.8 1-9.8 5.4-6.8 13.1-9.2zm176.7 4.6a30.6 30.6 0 0 1 4.1-6.2c.4 3.1.7 11-4.1 6.2zM81.7 204c5.8-5.3 18.7 34.1 21.4 37.7-8.5.2-18.6-29.6-21.4-37.7zm24.4 1.3q3.9-1.3 3 2.3-3 .9-3-2.3zm415.8 2.5a13.1 13.1 0 0 1 6.9-1.9c-1 10.2 4.4 24.2 6.9 34.1 1.3 5.2 4.2 11.9 3.9 17.3s.4 2.2-3.1 4.5a43.1 43.1 0 0 1-7.1 3.3 94.2 94.2 0 0 1-16.4 4.8c-2 .4-7.6 1.8-9.3.5s-.4-3.6-.7-4.6c-1.4-5.4-.5-12.1-1.1-17.7s-2.1-9.2-4-14.3c-2.7 3.9-2.1 9.2-1.9 13.6s-.8 10.2-.5 14.9c.3 6.9 5.2 7.7-2.7 11-5.2 2.2-11.8 2.1-17.4 2.2s-9.2.3-10.4-6.9c-1-5.6-.3-11.8-.3-17.5s.1-12-.2-17.9c-.2-3.2-1.3-6.7-1-9.8s2.1-2.8 2.6-6.2c18.1 3.4 38.4-4.6 55.8-9.4zm-446.4-.2c4.3-1.3 14.3 28.8 16.7 33-4.9.6-17.5-28.1-16.7-33zm91.9 6.6c.9-3.8 2.4-2.4 4.1-.3zm263.2 7.6c3.9-.5 12.1-4.6 15.8-2.2s2.1 9.5 2.3 13.9c.5 10.1 2.2 20.7 1.4 30.8q.2-2.9.5-5.8c.2 2.7 2.5 15.7 1.1 17.6s-10.1 1.7-12.7 1.7-12.5.8-14.5-.8-.8-10-.6-12.3c.3-4.2 1.5-7.6.6-11.8q-4.1.1-2.2-4.4a55.8 55.8 0 0 1 0-5.8c.3-4.6.3-9.2.6-13.8.5-8.7.4-6.7 7.7-7.1zM68.2 233.9q4.3-1.3 4.6 3.9c-2.3 0-3.7-2.1-4.6-3.9zm134 10.9a8.6 8.6 0 0 1 4.6-.9 4.9 4.9 0 0 1-4.6 2.3v-1.4z" class="d"/><path d="M212 105.6c-1.7-6.9 1.2-17.2 2.2-24.2.3-2.1-.4-7.2 4.4-6.9 2.1.1 6.2 5.6 7.4 7.3a18 18 0 0 1 2.9 14.6c-.7 3.3-2.3 7.3-4.9 9.6s-10.9 5.3-12-.4zm5.6-3.3c.5 2.3 6.1-8.1 6-10.7s-1.9-9.4-4.4-6.2-2.4 14.7-1.6 16.9c.1.6 0 0 0 0zm12.6-8.3c2.4-7.3 9.5-25.7 20.7-20s2.8 21.5-3.4 26.6c-3.2 2.6-9.2 4.1-13 1.4s-2.6-5.2-4.3-8zm8 1.9c4.5 5.1 13-8.2 10.2-12.7-4.5-7.5-14.1 8.5-10.2 12.7zm39.4 12.8a2.3 2.3 0 0 1-1.2 1.8c-.6-2.3.2-4.9-.1-7.3-3.2 2.7-7.3 7.1-12 6.1s-6.7-8.7-6.4-13.5c.4-6.5 6.9-22.9 13.9-25.5 4.5-1.6.4 4.3-.5 6.3-2.2 4.5-11.4 20-4.9 23.8 4.2 2.4 15.3-9.7 10.6-9.5-2.7.1-3.8 5-7.7 4.3-5.6-1-.7-5 1.8-7s10.2-7.2 12.2-5.7-4.5 27.6-5.5 27.7zm29.4-4.8c-3 3.7-1.3-.2-1.8-2.1s-2.4-13.9-4.6-13.1-4.4 23.5-11.6 16.2c-1.6-1.6-1.8-12.8-2.1-15.2s-1.2-17.3 3.8-13.9c2 1.4 2.7 12.1 3.3 14.8 5.3-6.4 6.2-18.4 14.2-4.5 3.8-7.2 3-14.7 10.1-19.8.1 13.5-5.4 27.3-10.9 39.2zm11.2-18.7C321 76.3 328.3 58 341 61.8s5.1 22.3-1 28.7c-3.6 3.8-9.9 5.7-15.1 3.8s-4.2-5.5-6.7-9.1zm9.6 1.6c5.8 5.4 14.3-9.1 11.8-14.2-4.4-9.1-16.7 9.6-11.8 14.2zm23-8.5c3.1-9.4 11.6-29.5 25.3-23.8s3.9 25.5-4.3 31.2c-4 2.8-12.6 4.2-16.7.9s-2.2-6-4.3-8.3zm10.2 1.5c6.1 5.5 15.2-9.3 12.5-14.7-4.6-9.4-17.8 9.9-12.5 14.7zm28 2.8c-1.6-4.9.3-13.2.8-18.1s.1-9 .6-11.9.6-4.5 3.4-5.6 5.5-.3 9.4 2.6c8.9 6.5 12 16.3 7.1 26.4-2.4 4.9-18.2 17.8-21.2 6.7zm7.7-4.3c.8 2.8 5.3-3.3 5.6-3.9a16.8 16.8 0 0 0 2.3-9.2c-.4-4.2-3.8-11.2-6.4-6-1.4 2.8-2.9 16.4-1.5 19.1.2.7 0-.1 0 0zM209.1 191c-1.8-7.2.6-16.8 1.2-24.1.8-9 4.6-20.3 3.7-29.2-.3-2.8-2.6-4.5-1.6-7.5.4-1 3.6-4.1 4.4-4.7 6.3-4.7 9.1-1.1 14.2 3.5 13.3 11.8 20 29 15 46.3-2.3 7.9-6.6 16.9-14 21s-20.9 5.5-23-5.2zm12.4-6.7c1.2 6.1 9.3-6.3 9.9-7.6a33.4 33.4 0 0 0 3.1-19.5c-1.1-6.1-8.2-20-9.5-7.5l-2 18.6c-.4 4.1-3 12-1.4 16 .2 1.5-.1-.1 0 .1zm35.1 24.4c-1.3-5.2 3.4-11.5.9-16.2-1.2-2.2-4.5-4.2-6.4-2.1-1.2-6.1 7.2-9 9-14.4s1.8-9.8 2.7-14.5c1.9-10 2.3-22.1 6-31.6 1.7-4.2 5.6-7.9 9.6-10 5.7-2.9 7.2-1 9.3 5.3 1.3 3.8 1.8 8 2.6 11.9s2.5 28.9 9.3 28.5c-5.4 3.6-3.4 10.2-4.5 15.6-1.5 7.3-5.7 11.4-12.6 14.2-1-4.7.6-9.5-.3-14.3-3.4 2.4-7.6 4.6-9.9 8.4s-1.5 11.7-4.9 16.5c-1.1 1.6-10 8-10.9 2.7-.2-1.1.2.7.1 0zm18.3-37.9c3.5 2.3 6.4-1.6 6.9-4s-.5-4.6-.9-6.5c-1.3-6.7-2.8-13.3-4.2-19.9-2.6 9.9-.6 20.3-1.9 30.3.8.6.4-2.2.1.1zm29.2 9.6c.1-4.7 1.2-15.5 4.2-19.4s-1.7-.6 2.8-2c1.2-.4 8.6 1.2 9 1.6 2.3 3.2-2.6 5.1-2.7 7.1-.2 4.7 6.9 9.9 10.3 11.2 11.2 4.3 21-7.2 12.4-16.3s-19.5-15.9-12.7-30.6c-1.1.1-2.2-.7-3.3-.6 1-7.9 8.6-15.1 16.7-14.4s9.8 5.5 11.9 11.5c1.5 4.3 3.6 16.4-4.6 12.5-3-1.4-4.3-7.9-8.2-7.9-5.5-.1-3.6 5.8-1.9 8.5 5.4 8.7 15 10.8 16.9 22s-1.4 21.4-10.3 27-19 7.5-27.7 2c-4.6-3-8.9-8.4-12.8-12.2zm64.5-9.8c-.6-3.4-6.1-2.1-7.4-6s3.2-6.4 5.2-9.7c3.5-5.8 3.2-14.8 3.4-21.5.1-4-.2-8.8 1.1-11.7.3-.6 5-6.2 5.6-6.4 4.6-1.3 4.8 7.5 5.6 11s1.2 7.9 1.7 11.9-.1 5.2 3.1 5.7 13.1-3.1 14.9-5.3c4.7-5.6.1-19.9 1.7-26.8.7-3.4 4.8-8.8 8.2-10.1 3.8 17.2 5.5 34.8 3.8 52.3-1.1 11.7-1.3 28.3-6.5 38.9-2.5-.3-1.4-6.4-4 .3-2.7-9.9-1.1-22-2-32.3-.4-3.8 1.3-14-3.6-14.2-2.7-.1-4.6 4.1-5.9 6s-5.9 6.6-7.3 10c-2.1 5.1-1.2 11.9-1.3 17.3-.2 8.4-3 23.8-12.6 27.1-2.7-12-.8-24.5-3.4-36.5-.5-1 .3 2.6-.3 0z" class="c"/><path d="M450.9 121.8c1.6-9.3 7.2 2.1 8.8 2.9 4.6 2.3 10.4-6.3 8.5-11.2s-5.3-1.2-8.7-2.5-2.3-3.3-3.2-6.1a117.6 117.6 0 0 0-5.6-13.6c8-3.2 15.1-7.2 22.9-10.8.1 2.1 1.5 7.8.5 9.5s-11.2 4.5-13.2 5.3c.5 1.1 1.7 5.5 2.9 6.1s6.3-1.7 9-.2c6.1 3.3 4.3 14.2 1.8 19.2a25.1 25.1 0 0 1-11.9 11.3c-6.9 2.9-13.1-2.4-11.8-9.9zm35.9-8.1c-.4 1-.3 25-6.4 16.7-2.3-3.1.7-17.1 1-21 .5-6.4.4-15.8 3.1-21.8 0 1.2.5 2.4.6 3.5 1.8-1.8 0-4.8 2.7-6.1a65.5 65.5 0 0 1 .6 8.8c0 3.7-1.5 6 2.8 3.9s9.7-17 15.1-12.7c1.7 1.3-14 16.7-11.9 22.9 1.6 4.6 10.9 9.5 15.5 11.5s7.2 1.3 5.4 4.1c-3.9 5.9-14.4-.8-17.6-3.4-1.2-1-9.3-10.4-10.9-6.3z" class="b"/><path d="M212.3 241a2.6 2.6 0 0 1 0-.8l.2-.9.2-.9a4.2 4.2 0 0 0 .1-.9 1.2 1.2 0 0 0-.2-.5l-.3-.3-.4-.2h-.4l-.2.2a1.4 1.4 0 0 1 .2-1l.6-.7.7-.6a1.5 1.5 0 0 0 .5-.8l2.3-10.9a2.7 2.7 0 0 1 .5-1l.8-.9.9-.7.8-.5a.3.3 0 0 1 .4.2l.4.6.3.8v.5l1.3 9.4.3.2h.4a1.8 1.8 0 0 0-.7.9 5.1 5.1 0 0 0-.3 1.2v1.3a4.5 4.5 0 0 1-.3 1.4 3.6 3.6 0 0 1-.9 1.2 4.9 4.9 0 0 1-1.7 1 4.1 4.1 0 0 1 0-.8v-1.7a4.7 4.7 0 0 0 0-.9h-.3l-1.7 1.5a4.5 4.5 0 0 0-.5 1.4l-.3 1.5a6.4 6.4 0 0 1-.5 1.3 1.6 1.6 0 0 1-.9.8h-1.2a.5.5 0 0 1-.1-.4zm4.2-8.8h1.1l.4-.2v-1.1l-.8-5.9a10.2 10.2 0 0 0-.3 1.7q-.1.9-.1 1.9v1.9a17.9 17.9 0 0 1-.2 1.7zm5.5 9.2a5.3 5.3 0 0 1 0-1.1q0-.6.1-1.2l.2-1.3q.1-.6.1-1.2t.4-3.3l.5-3.2.4-3.2a27.9 27.9 0 0 0 .2-3.2v-.2h.3l.4-.2.4-.2h.2l.2-.4.2-.3a6.6 6.6 0 0 1 1.8-1.5l2-1 .7-.3v.4h.9l.9-.4.7.5.7.6.6.8a2.6 2.6 0 0 1 .3 1.1 5.5 5.5 0 0 1-.2 2.4 10.8 10.8 0 0 1-1.1 2.4 14.1 14.1 0 0 1-1.7 2.2l-1.9 1.9-1.9 1.3-1.6.7q-.1.7-.1 1.7t-.1 1.8-.2 1.8a8.8 8.8 0 0 1-.4 1.7 4.4 4.4 0 0 1-.7 1.3 2.3 2.3 0 0 1-1.1.8h-.3l-.3-.2-.2-.4v-.4zm4.2-12.5a.7.7 0 0 0 .2.5l.5.3h.1a2.6 2.6 0 0 0 1-.9l1.1-1.8a17 17 0 0 0 .9-2 6.6 6.6 0 0 0 .4-1.7.2.2 0 0 0-.3-.2h-.1l-1.4.8a6.1 6.1 0 0 0-1.3 1.2 5 5 0 0 0-.9 1.6 4.6 4.6 0 0 0-.2 2.1zm4.2-9.7c.1 0 .2 0 .2.2a.3.3 0 0 1-.1.4q-.2.1-.2-.2a.3.3 0 0 1 .1-.5zm4.4 22.4a3.7 3.7 0 0 1 0-.7q0-.5.1-1.2V235l1.7-10.1v-.5a1.8 1.8 0 0 0 0-.4v-1.5h.2l.4-.2.4-.2h.3l.2-.4.2-.4a7.4 7.4 0 0 1 2-1.6l2.2-1.1.8-.3v.6h1l1-.4.8.5.8.6.7.8a2.9 2.9 0 0 1 .4 1.1 5.6 5.6 0 0 1-.2 2.5 12.2 12.2 0 0 1-1.1 2.5 14 14 0 0 1-1.5 2.2l-1.5 1.5h-.3l-.5.2-.4.3a.4.4 0 0 0-.1.4l1.1 1.3 1.3 1.4a4.9 4.9 0 0 0 1.5.9 1.7 1.7 0 0 0 1.6-.2 2.8 2.8 0 0 1-.3 1.1l-.6.9-.8.7-.8.4h-.9l-.5-.2-.5-.2h-.2l-1-.7-1.5-1.1-1.5-1.1-.9-.7a25 25 0 0 0-.2 2.7 23.6 23.6 0 0 1-.3 2.9 8.8 8.8 0 0 1-.8 2.5 2.7 2.7 0 0 1-1.7 1.4h-.4l-.3-.3.3-.8v-.4zm4.7-13.4a.7.7 0 0 0 .2.5l.6.4h.1a3.3 3.3 0 0 0 1.1-1 12.6 12.6 0 0 0 1.2-1.9 20.5 20.5 0 0 0 1-2.2 6.6 6.6 0 0 0 .5-1.8.3.3 0 0 0-.3-.2h-.3l-1.6.8a6.6 6.6 0 0 0-1.5 1.3 5.4 5.4 0 0 0-1 1.7 4.6 4.6 0 0 0 .1 2.4zm4.7-10.4c.1 0 .2 0 .2.2a.3.3 0 0 1-.1.4c-.1.1-.2 0-.3-.2a.4.4 0 0 1 .3-.4zm5.1 24.6a3.8 3.8 0 0 1 .1-1l.3-1.7.4-1.8.3-1.2q.2-4.1.5-8.1a64.8 64.8 0 0 1 1.1-8.2h.3l.6-.2.9-.2h1.2l.4 2.8-1.1 11.4a8.8 8.8 0 0 1-.3 1.2l-.5 1.7-.8 1.9-.9 1.8-.9 1.4a1.8 1.8 0 0 1-.8.7h-.5c-.2 0-.3-.2-.3-.5zm7.2-.3a6.5 6.5 0 0 0 1.4-2.6 23.8 23.8 0 0 0 .7-3.2l.4-3.4a17.8 17.8 0 0 1 .6-3.1v-1.2l.2-1.2.2-1.4.2-1.1.2-1.1.4-1.8.4-1.8.3-1.2 1.1-1.2a3.7 3.7 0 0 1 1.2-.8 6.2 6.2 0 0 1 .1 1.6 4.1 4.1 0 0 0 .1 1.5 119 119 0 0 1-3 16.4v1l.8-.2.7-.4 1.6-1 1.9-1.2 1.6-1h.1l.2-.2.2-.2h.4l.3.3.3.3.2.3-.6 2a2.5 2.5 0 0 1-.6.9l-.8.5-1.5.8-1.8 1.3-1.8 1.5-1.8 1.3a6.9 6.9 0 0 1-1.8.8h-.7l-.4-.2-.5-.3-.4-.4zm1.9-10c.1 0 .2.1.3.3a.3.3 0 0 1-.2.4c-.2.1-.3 0-.3-.2a.3.3 0 0 1 .2-.5zm22.3 10.3a3.8 3.8 0 0 1 .9-1.9 10.4 10.4 0 0 1 2.9-2.9 8.5 8.5 0 0 1 1.9-1.4h.3a3.6 3.6 0 0 0 1.7-1.2 11.3 11.3 0 0 0 1.6-2.3 12.8 12.8 0 0 0 1-2.7 5.4 5.4 0 0 0 .2-2.3l-.4-1-.7-1.2-.9-.9a1 1 0 0 0-1-.2h-.2v.2l-4.1-.9a1.3 1.3 0 0 0-.3-.6l-.4-.4-.4-.4a1.3 1.3 0 0 1-.3-.6 1.3 1.3 0 0 1 .2-.9l.6-.7.8-.5.8-.3a6 6 0 0 1 2.2-.2 11.7 11.7 0 0 1 2.6.4l2.7 1a14.8 14.8 0 0 1 2.4 1.5 10.6 10.6 0 0 1 1.9 1.8 4.6 4.6 0 0 1 1 2 19.6 19.6 0 0 1 .3 2.3 5.7 5.7 0 0 1-.2 2.4 12.9 12.9 0 0 1-2.4 3.6 20.2 20.2 0 0 1-4.7 3.9l11.2-1.8c1.4 4.1-1.4 6.2-8.3 6.3s-9.8.2-10.5.4l-.7.2h-.7l-.7-.1a1.1 1.1 0 0 1-.3-.6z" class="e"/><path d="M298.5 223.8q-.5-5.8 1.1-5.9h8.4l3.5.3 3.1.5a10.1 10.1 0 0 1 2.3.8 1.7 1.7 0 0 1 1 1.1 10.9 10.9 0 0 1 .2 2.1 7.4 7.4 0 0 1-.4 2.2 7.2 7.2 0 0 1-1.1 2.1 6.2 6.2 0 0 1-2 1.7l1 5.1a3.5 3.5 0 0 1-.8 2.6 14.4 14.4 0 0 1-2.5 2.8 20.7 20.7 0 0 1-3.3 2.3 12.8 12.8 0 0 1-3.2 1.4l-1.2.2H303l-1.4-.2a1 1 0 0 1-.7-.7.8.8 0 0 1 .1-.5l.3-.5.3-.5a1 1 0 0 0 .1-.5v-.2a20.1 20.1 0 0 1 1.9-3.4 9.4 9.4 0 0 1 2.7 0l1.1-.3.4-.3.6-.7.6-.8.4-.7v-.7a1.6 1.6 0 0 0-.8-1.1 4.1 4.1 0 0 0-1.6-.5l-.9-.3-1.1-.6a1.8 1.8 0 0 1-.8-2.2 2.7 2.7 0 0 1 2.2-1.9l.9-.2.8-.3 1.6-.4.9-.3.9-.4.6-.5a.8.8 0 0 0 .1-.7v-.4c-2.4-.5-6.9-.3-13.7.5zm36.9 22.9a4.4 4.4 0 0 1 1.3-2.1 11.1 11.1 0 0 1 3.7-2.8 8.7 8.7 0 0 1 2.4-1.2h.4a3.8 3.8 0 0 0 2.1-1.1 13.1 13.1 0 0 0 2.2-2.4 16 16 0 0 0 1.7-3.1 7.4 7.4 0 0 0 .7-2.9 8.2 8.2 0 0 0-.2-1.4 9.7 9.7 0 0 0-.6-1.7 5.9 5.9 0 0 0-.9-1.4 1.2 1.2 0 0 0-1.1-.5h-.3l-.2.2a29 29 0 0 1-4.6-2.2 1.9 1.9 0 0 0-.2-.8l-.4-.6-.4-.6a1.9 1.9 0 0 1-.2-.8 1.8 1.8 0 0 1 .3-1.1l.8-.7 1.1-.4 1-.2a6.4 6.4 0 0 1 2.6.2 13 13 0 0 1 2.9 1.2 19 19 0 0 1 2.9 2 18.5 18.5 0 0 1 2.5 2.6 14.1 14.1 0 0 1 1.8 2.8 6.6 6.6 0 0 1 .7 2.8 28.2 28.2 0 0 1-.1 3 7.8 7.8 0 0 1-.8 2.9 15.5 15.5 0 0 1-3.4 3.9 21.8 21.8 0 0 1-6 3.6l12.9.5c.7 5.2-2.9 7.1-10.4 5.6s-10.9-2-11.6-2h-1.6l-.6-.4a1.4 1.4 0 0 1-.4-.9zm26.7-5.1a35.5 35.5 0 0 1 1.4-4.3q.9-2.3 2.1-4.7a33.4 33.4 0 0 1 2.6-4.4 19.7 19.7 0 0 1 2.9-3.4 5.9 5.9 0 0 1 3-1.6 10.3 10.3 0 0 1 4 .3 12.2 12.2 0 0 1 3.9 1.8 10.8 10.8 0 0 1 3 3.1 7.1 7.1 0 0 1 1.1 4.1 30.7 30.7 0 0 1-1.3 7.5 27.2 27.2 0 0 1-3.3 7.1 19.4 19.4 0 0 1-5 5.2 11.4 11.4 0 0 1-6.4 2.2 7.4 7.4 0 0 1-3.6-.7 7.9 7.9 0 0 1-2.7-2.1 9.6 9.6 0 0 1-1.7-3.2 12.2 12.2 0 0 1-.6-3.8 13.8 13.8 0 0 1 .6-3.1zm7.3 4.5c.4.6 1.3.8 2.6.7a3.8 3.8 0 0 0 2.3-.9 7 7 0 0 0 1.7-2 10.7 10.7 0 0 0 1-2.6 12 12 0 0 0 .4-2.6 9.9 9.9 0 0 0-.3-1.8 12.5 12.5 0 0 0-.7-2.3 7.6 7.6 0 0 0-1.1-1.9 1.6 1.6 0 0 0-1.4-.7 2.9 2.9 0 0 0-1.7 1.6 23.4 23.4 0 0 0-1.7 3.4q-.8 1.9-1.3 3.7a9.6 9.6 0 0 0-.5 2.6 4.7 4.7 0 0 0 .7 2.7zm11.7 10.9l.6-1.5 1.2-3.5 1.7-4.9 2-5.6 1.9-5.5 1.6-4.6.5-1.8q.3-1.2.8-2.5a10.9 10.9 0 0 1 1.1-2.3 2.2 2.2 0 0 1 1.6-1.1h.2a2.4 2.4 0 0 1 .3.8 4.7 4.7 0 0 1 .2.8l.4-.5.3-.6.4-.5.4-.3h.3l.6.5h.5l.4-.6.3-.6q0 .3-.1 1.1t0 1.1a11.1 11.1 0 0 1-.6 3l-1.1 2.9-1.1 2.8a10 10 0 0 0-.6 2.8v.3l.5.5v.3a3.8 3.8 0 0 1-.3 1.3l-.7 1.4-.8 1.3-.6 1.2-2.1 5.3-2 5.2-1.2 3a10.8 10.8 0 0 1-1.3 2.4 5.2 5.2 0 0 1-1.8 1.6 6.7 6.7 0 0 1-3 .6H380l-.3-.2v-.3zm13-4.2a19.5 19.5 0 0 1 .6-4.5c1.4-5.6 4.9-9.1 9.3-12.5l2-1.6 2.2-1.8a24.7 24.7 0 0 1 5.1-3.5 15.2 15.2 0 0 1 5.2-1.7 5.1 5.1 0 0 1 3.1.8 10 10 0 0 1 2.7 2.4 12.1 12.1 0 0 1 1.8 3.1 6.8 6.8 0 0 1 .6 3c.1-.6-2.9-.7-3.5.6-5.5-1.9-7.2-5-11.8.8-1.5 1.9-4.6 5.6-2.2 7.5s5.7 0 7.9 1.8 2.5 4.4 2.6 7a10.9 10.9 0 0 1-1.2 6.3 9.5 9.5 0 0 1-3.1 2.9 16.4 16.4 0 0 1-9.7 2.7 12.6 12.6 0 0 1-9-4.4 13.6 13.6 0 0 1-2.6-8.9zm9.8-2.1h-.4a3.8 3.8 0 0 0-3.1 3.2 4.1 4.1 0 0 0 2.2 3.4c2.3 1.5 7.5 3.2 9.4 0s-1.1-5.4-3.6-6.1a11.2 11.2 0 0 0-4.6-.4zm-83.2-12c.3 1.6-1.1 2.9-2.2 4.1s-2 3.1-.8 4.3a10 10 0 0 0 6.7-2.3 6.4 6.4 0 0 0 2-6.5c-1.8-2.1-5.9-1.2-6.6 1.4a.7.7 0 0 0 .9-1z" class="e"/></svg>
