<svg xmlns="http://www.w3.org/2000/svg" viewBox="0 0 723.4 277.8"><defs><style>.a{fill:#a90533;}.b{fill:#fff;}.c{fill:#519032;}.d{fill:#0c0c0c;}.e{fill:#231f20;}</style></defs><title>dogwood-dash-5k</title><path class="a" d="M181.4,146q0,0.3,0,.6c-0.1,8.1-3.6,15.6-7.1,22.9-2.1,4.2-4.3,8.5-7.7,11.7a38.4,38.4,0,0,1-6.7,4.7c-7.1,4.3-14.8,8.4-23.1,8.6s-14.7-2.9-21.6-6a54.1,54.1,0,0,1-9.7-5.1,38.1,38.1,0,0,1-9.8-10.8,49.6,49.6,0,0,1-6-13,81,81,0,0,1-1.8-8.7c-0.7-4-1.3-8-.3-11.9s5-8.9,6.1-13.8c0.4-1.7.5-3.5,1.3-5.1a11.4,11.4,0,0,1,3.8-3.7l13.1-9.1c4.4-3.1,9-6.2,14.3-7.4s11.8-.2,17.6,1a52.2,52.2,0,0,1,11.4,3.2c7.6,3.4,13.1,10.2,18.3,16.7S181.3,137.8,181.4,146Z"/><path class="b" d="M164.2,164.3c-0.5-1.7-1.1-3-.4-4.5s3,0.4,4.6-.3,0.4-1.9.3-3.2c-0.3-6.7-.3-5.9-6.6-10.3s-10.3-5.2-12.5-5.1-2,.9-3.4,1.2a20.2,20.2,0,0,0,2.6-1.6c1.4-1,6.6-3.4,8.6-10.8s1-7.5-3.1-12.8c-0.8-1-.6-1.8-2.3-1.3s-2.6,2.6-4,2-1.2-2.4-1.9-4-0.4-2.8-1.7-2.7c-6.7.3-7.7,0.7-12.1,7a19.4,19.4,0,0,0-3.5,13.8c0,0.7,1.2,1,1.5,2.2a20.1,20.1,0,0,0-1.1-2.4,19.2,19.2,0,0,0-11.4-8.3c-7.4-2-7-.3-12.3,3.8-1,.8-2-0.2-1.5,1.5s1.7,2.4,1,3.8-2.3.2-3.9,0.9-1.4,1.6-1.4,2.9c0.3,6.7.6,6.8,6.9,11.2s10.9,4.1,13.1,4a24.3,24.3,0,0,0,3-.9c-1.1.6-1.2,2-1.7,2.4s-7.1,2.5-9.2,9.9-1.4,7.7,2.7,13c0.8,1,.4-0.2,2.1-0.7s3.3-1.4,4.7-.7,1.6,2.5,2.3,4.2-0.3,1.7,1,1.6c6.7-.3,6.7-0.1,11.1-6.4s4.3-10.9,4.1-13.1a33.8,33.8,0,0,0-.9-3.7c0.6,1.2.6,3.4,1,3.8s4.4,4.6,11.8,6.7,7.6,3.3,12.7-1.1C165.6,165.9,164.7,166,164.2,164.3Z"/><path class="c" d="M139.3,142.9a3,3,0,0,0-2.4.1,5.2,5.2,0,0,1,.2-1.8,1.3,1.3,0,0,0-1.9-.5l-0.5-1.8a0.9,0.9,0,0,0-1-.2c-0.5.3-.8,1.4-1.4,1.1l-0.3-.2c-0.5-.1-0.6.9-1,0.8l-0.5-.3c-0.4-.3-0.9.2-0.8,0.8a2.4,2.4,0,0,0,.9,1.4,3.8,3.8,0,0,1-1.3,1,1.2,1.2,0,0,0-.2,1.7l0.4,0.3a0.8,0.8,0,0,1,0,.9,1.2,1.2,0,0,1-.8.3,5.1,5.1,0,0,0,1.4,1.8,1.5,1.5,0,0,0,1.8.1c0.3-.3.7-0.8,1.1-0.5a3,3,0,0,1,.5,1,0.9,0.9,0,0,0,1.5.2,2.3,2.3,0,0,0,.1-1.9c0.3-.2.6,0.4,0.8,0.7a1.1,1.1,0,0,0,1.6.4,1.6,1.6,0,0,0,.1-1.9,1.8,1.8,0,0,1-.4-0.9,0.7,0.7,0,0,1,.8-0.6A2.1,2.1,0,0,0,139.3,142.9Z"/><path class="a" d="M520.5,107.9a46.4,46.4,0,0,1-1.5,6.5l-3.2,11.2a35.7,35.7,0,0,1-2.7,7.4,22.2,22.2,0,0,1-6.3,7c-5.9,4.4-13.1,6.4-20.2,8.3a23.9,23.9,0,0,1-7.6,1.2c-2.9-.2-4.6-2.3-7.2-2.8s-5.2.3-7.7-.2-3-4.1-6.6-4.7c-5.9-1-10.8-8.9-13.5-13.8s-6.2-13.3-4.7-20c0.4-1.7,1.3-3.3,1.7-5a37.3,37.3,0,0,0,.7-5.9c0.8-7.5,5.1-14.2,10.4-19.5A37.6,37.6,0,0,1,462.5,70a33.9,33.9,0,0,1,7.2-2.4,40.9,40.9,0,0,1,30.9,5.7,39.8,39.8,0,0,1,4.5,3.5,46.5,46.5,0,0,1,5.5,5.8,57.4,57.4,0,0,1,7.2,11.7,26.2,26.2,0,0,1,2.9,11.1A19.4,19.4,0,0,1,520.5,107.9Z"/><path class="d" d="M576.3,13.3c-1.1-4.4-.6-8.9.3-13.3a11.3,11.3,0,0,0,5.2.9c3.8-.4,7.6.2,11.5-0.1a30.4,30.4,0,0,1,8.6-.7c1.9,0.6,2,2.7,2.4,4.3a34,34,0,0,1,1,6.6l0.2-1.1c0.8,5.5,5,9.9,5.3,15.6A10.8,10.8,0,0,1,610,31c2.4,1.6,2.7,4.5,3.2,7.1s-1.5,7.3.2,10.7,3.6,9.3,4.7,14.1c1.9,2.4,3.7,5.8,2.2,8.8-4,4.4-7.8,9-12,13.3-6.8.4-13.3-1.9-20-1.8-3.5,0-7-.4-10.4-0.8-0.4-5.4.3-10.8,0.1-16.2,1.2-10,.5-20-0.3-30-0.7-2.4-.2-4.8.2-7.2A43.4,43.4,0,0,0,576,19c-0.8-1.9.9-3.8,0.2-5.7h0Z"/><path class="d" d="M550.4,2.4l2.5-1.3a7.8,7.8,0,0,0,4,3c0.4,3.8,2.1,7.6,1.5,11.5a26.7,26.7,0,0,0,.1,11.6,62.9,62.9,0,0,0,1.1,12.4c1.6,4.5,1.4,9.4.4,13.9,0.7,4.9,2.9,10.9-1,15.1-2.9.6-5.9,0.2-8.8,0.4-7.2.9-14.3,1.4-21.5,2.6s-11.4,1.9-17.2,1.7c-1.3.1-2.3-.9-3.2-1.6-3.9-3-8.1-5.8-13-7.1s-8.9-1.9-13.4-3c-1.1-6.3-2-12.6-3.1-18.9-1.1-3.9-1.1-8-2.7-11.7a18.4,18.4,0,0,1-1.5-8.4,14.1,14.1,0,0,0-.8-6,9.9,9.9,0,0,1,2.3-1.3c6.3-1.8,12.3-5.1,19-4.5,4.1,0.7,7.6-2.1,11.7-1.4l2.4-2.8,2.7-.2c0.3,6.1-.4,12.2.7,18.2,1,4.3.2,8.8,0.9,13.2,0.5,2.5.3,5,.6,7.4s2.4,7.8,5.9,10.1c1.5-2.8,2.9-5.8,2.5-9.1s1.6-5.3.2-8c1.2-3.1-.4-6.1-0.7-9.2-1-4.9.6-10-.9-14.8s-2.8-6.7-2.3-10.4c4.4-2.1,9.4-1.1,14.1-2.2s8.2-.7,12.2.4c1.7-.3,3.6-1.3,5,0.2h0Z"/><path class="d" d="M610.7,1.5h2.8a108.9,108.9,0,0,1,4.5,12.7c0.4,2-.5,3.8-1.3,5.5,3.1,2.8,2.7,7.5,2.7,11.4l2.7,1.5c0.1,2.7,1.2,5.3.9,8s1,7.2,2.1,10.5,2.1,6,3.4,8.9,0.1,3.3-.7,4.7a25.9,25.9,0,0,1-3.7-.4c-2.3-1.6-1.9-4.6-2.7-6.9s-1.3-7.4-2-11.2a13.9,13.9,0,0,0-1.1-6.5c0-2.7-1.4-5-1.3-7.7s-1.8-3-1.2-4.7-0.7-3.2-1.6-4.6l1.1-2.2a12.9,12.9,0,0,1-2.9-7.8c-0.1-3.8-1.3-7.4-1.7-11.1h0Z"/><path class="d" d="M620.7,2c2.7-.2,3.5,2.8,3.9,4.9a40.9,40.9,0,0,0,5.1,15.7c1,1.7,0,3.8.7,5.6,2.1,4.4,1.2,9.5,2.9,14.1s1,7.8,2.5,11.5,2.8,6.4,1.9,9.9h-3.5c0.1,1.7.2,3.4,0.2,5l-2.5,1c-1.2-1.2-2.4-2.3-3.5-3.6a46.6,46.6,0,0,0,3.9-3.2c-1.7-6.8-2.9-13.7-4.9-20.4-0.3-2.3.3-4.8-.8-7a14.8,14.8,0,0,1-.9-6.7c0.2-2.1-2-3.6-2.1-5.7s0.3-7.1-1.3-10.3c0-3.8-1.7-7.3-1.7-11h0Z"/><path class="d" d="M630,2.5l2.2,0.5c0.9,2.8,2.7,5.2,3,8.2s2.8,5.9,2.9,9.2,2.9,7.2,2.8,11.2c2.7,5.4,3.3,11.5,3.8,17.4s1.5,10.5,3.5,15.4,2.4,9.8,3.9,14.7,0.6,7.2,1.4,10.7-0.7,4.3-.2,6.4c1.1,4.7,2.2,9.4,3.2,14.1,0.4,2.7,1.3,5.4.8,8.1s1.8,5.8,2.3,8.8c1.8,7.1,4.3,14.2,5,21.5,1,2.5,1.2,5.1,2,7.6s-0.4,2.5-.8,3.6,1.9,2,2,3.4c0.4,3.1,1.9,6,1.7,9.1s1.8,3.9,2,6.1c0.5,4,1.7,7.9,2.4,11.9a32.1,32.1,0,0,0-1.7,4.8h-2a88.6,88.6,0,0,0-2.7-11.6c-1.2-3.1-.8-6.5-1.8-9.7s-1.1-7.2-1.3-10.8-2.1-6.7-3.2-9.9-1.6-7.3-2.5-10.9a56,56,0,0,1-3.5-14.7c-3.2-9.7-4.4-19.8-5.7-29.9-0.6-5.4-2.5-10.5-3.8-15.8s-1.6-9.6-3.2-14.2-0.9-7-1.9-10.4c-1.3-5.1-1.9-10.3-3.4-15.3s-1.2-9.5-2.7-14.1-1.4-8.8-2.8-13c0.3-4.3-1.7-8.4-1.6-12.7h0Z"/><path class="d" d="M640.7,7.8l1-2.2c1.7,3,2.5,6.3,3.4,9.6a25.9,25.9,0,0,1,3.7,12.9c0.7,1.6,1.9,2.9,2.3,4.6,1,5.5,2.6,10.9,3.5,16.4,0.9,3.8.7,7.8,1.8,11.6,0.5,6.6,4,12.6,4.5,19.2,0,2.1,1.1,3.8,1.6,5.8s-0.3,5.7.5,8.5-0.9,6.7.8,9.7,1.5,6.1,2.5,9.1-0.1,5.6,1.1,8.3c2.2,5.3,2.8,11.1,4.2,16.7s2.6,7.9,2.6,12.1c0.6,2.3.8,4.7-.4,6.8l2.9,2.5c0.3,3.3-.2,6.8,1.3,9.9s2.2,9.7,4,14.4a17.2,17.2,0,0,0-2.1,4.7h-1.8c-1.9-4-2.1-8.6-3.6-12.7-0.8-2-.6-4.2-0.6-6.3s-2.1-3.2-2.1-5.2,0-3.3.1-4.9-0.9-5.3-1-8a23,23,0,0,0-2.1,3.2l-1.2.3c-0.2-2.1-.2-4.3,1.8-5.5-0.6-3.3-.9-6.8-2.4-9.8a47.1,47.1,0,0,1-2.4-15.4,3.3,3.3,0,0,1,.9-2.4h-2.6c-0.6-2.9-.8-5.9-1.6-8.7s-0.9-8.3-2.1-12.3a24.9,24.9,0,0,1-1.6-10.2c-2.1-7.7-5-15.3-5.2-23.4A51.8,51.8,0,0,1,649.7,57c-0.8-5.6-2.9-10.9-3.6-16.5-0.2-2.2-1.1-4.2-1.5-6.4s0.2-4.2-.1-6.3-2.3-3.2-2.3-5.2c-0.2-5-1.8-9.9-1.5-14.9h0Z"/><path class="d" d="M649,6.5h1.9a59.7,59.7,0,0,1,6.5,18.6c0.7,3.7,3.1,6.8,3.6,10.5,1.1,6.7,3.6,13.1,3.9,19.9s2.8,12.4,3.9,18.6c1.6,12.9,4.4,25.7,6.7,38.6,2.2,7,3.4,14.3,4.6,21.5a50.5,50.5,0,0,0,2.8,13.4c0.9,2.8.8,5.7,1,8.6,1.2,5.4,2.6,10.7,4,16,0.6,2.6-.3,5.1-0.9,7.5h-1.3c-1-2.9-3.5-5.5-2.7-8.8-1-2.3-2.2-4.6-3.4-6.8s0.8-2.9,1.3-4.3-2.2-4.2-2.8-6.5-0.3-7.5-.2-11.3-2.7-4.4-2.9-7.1,0.7-6.1-.4-9.1-1.2-7.6-.9-11.5l-2.7.3a33.2,33.2,0,0,1-.3-7.2l-2.3.2c0.8-2.8-.3-5.4-1.1-8-0.3-4.8-1.7-9.4-2.3-14.1s-2.9-11.5-3.8-17.4c-1.6-8.8-3.4-17.6-5.5-26.3-0.1-3.4-1.9-6.5-2.2-9.9-0.9-7.1-2.9-14.1-3-21.2-0.5-1.5-1.2-2.8-1.7-4.3h0Z"/><path class="d" d="M659.1,9.1c2.6-.2,3.8,2.5,4.7,4.5a82.6,82.6,0,0,1,2.9,13.9c2.8,6.4,3.8,13.3,6,19.8,1.6,4.6.2,9.7,1.8,14.3a91.5,91.5,0,0,1,3.3,15.8c2.3,11.4,5.4,22.6,6.9,34.2a115.8,115.8,0,0,1,3.5,16.1,15.3,15.3,0,0,1,4.3-2.6c-0.3-2.9-2.5-4.9-3.2-7.7s-0.3-6-.9-9c-1.6-6.6-3.1-13.3-4-20,0.2-2.7-1.6-4.9-2.2-7.4s-0.2-5.3-.7-7.9-1.9-5.3-2.5-8c-1.8-8.8-2.9-17.6-5.2-26.3a41.9,41.9,0,0,0-1-7.8c-0.7-2.6-.3-5.3-0.7-7.9s-2-6-2.5-9.2l0.8-1.4c2.3,1.9,3.3,4.7,3.8,7.5s1.9,6.3,2.3,9.5,2.3,6.8,3.2,10.3,0.3,4.6.8,6.9c1.9,8.1,3,16.3,5.3,24.3,0.8,4.4,2.3,8.5,3,12.9l3,1c-0.4,2.3-2.1,4.4-1.4,6.9,1.2,5.3,2.3,10.6,3.3,15.9,3.8,11.7,5.1,23.9,7.7,35.8,0.3,1.8.2,3.7,0.6,5.5a50.1,50.1,0,0,0,2.8,6.4,36.9,36.9,0,0,0-4.3,4.3c-0.2-3.1-1.8-5.9-1.6-9s-1.5-4.9-2-7.5c-0.6-5.1-2.6-9.9-3.3-15h-4.9c0.2,3,2.1,5.7,1.7,8.7s1.1,6.7,1.4,10.1c0.9,6.4,2.8,12.5,4.3,18.8-1,1.6-1.8,3.2-2.7,4.8a6.9,6.9,0,0,1-1.2-2.6c-1.1-4.7-2.9-9.3-2.7-14.2l-0.5,1.1c0.1-4.4-1.9-8.5-2.2-12.8s-2.4-6.5-2-9.9a38.6,38.6,0,0,0-1.3-10c-0.6-2.3.1-5-1.6-7-3.4-4.1-3-9.7-3.9-14.7l-3,.7c-0.4-2,1.4-2.5,2.8-3.2-0.3-2.4-1.8-4.4-2.4-6.8-0.8-4.5-2.1-8.8-2.9-13.3-0.2-1.9-1.5-3.4-2.2-5.1s0.6-6.4-.5-9.5l-3.1-.2a11.4,11.4,0,0,1,2.2-3.1c-2.5-7.9-3.7-16.2-5.2-24.3-1-3.7,0-7.6-1.2-11.2a148.9,148.9,0,0,1-3.2-15.2h0Z"/><path class="d" d="M682.2,16.7c3.3,1.5,6.2,3.9,9.4,5.4a11.4,11.4,0,0,1,4.4,4.4c2.3,3.6,5.9,6.2,7.7,10.1s3.6,6.5,5.1,9.9c2.5,5.4,7.3,9.4,9.8,14.9s2.4,8.8,3.4,13.2,1.2,11,1.1,16.6c0.1,3.4-1.8,6.5-1.5,10s-0.7,8.1-1.4,12.2c0.1,6.3-1.3,13-5.9,17.6-1.9,3.2-3.8,6.6-3.6,10.4s-1.2,5.3-3.5,6.7c-0.1-3.9-.1-7.8-1.5-11.5s-0.4-5.8-1.3-8.6a21.3,21.3,0,0,1-.8-8.1c-0.2,1.2-.3,2.5-0.5,3.7-0.3-2.6,0-5.5-1.6-7.8a16.9,16.9,0,0,1-3-9.5c0.1-1.6-1.6-2.8-1.5-4.4,0.9-4-2.4-7.4-2.1-11.4s-1.4-8.7-2.6-12.9c-0.1-5.9-3.4-11.2-3.9-17.1-0.9-3.8-2.2-7.6-2.7-11.5a55.1,55.1,0,0,0-2.7-15c0.5-4-2.9-7.5-1.3-11.5,0.9-1.8.3-3.9,0.3-5.9h0Z"/><path class="d" d="M450.1,27.8c2.3-1,3.9-3,6-4.5,1.9,2.5,2.1,5.7,2.4,8.7s0.9,5.7,1.1,8.5-0.1,8.8,1.2,13,3.5,7.9,1.4,11.7-4.5,2.7-6.9,3.1a20.9,20.9,0,0,1-6.5,3.4c-2.3,1.7-4.7,3.4-6.2,5.9s-4.3,3.8-5.3,6.6-3.8,5.1-4.9,8.2a98,98,0,0,1-2.4,11.2l-3.6.7c0.3-4.1.6-8.3,2.1-12.2,0.7-1.5,1.9-2.8,2-4.5a10.2,10.2,0,0,1,3.3-7.2c1.2-1,2.9-1.3,3.8-2.7a36.3,36.3,0,0,1,2.2-3.4l3-2.6a24.7,24.7,0,0,1-.7-3.4,19.5,19.5,0,0,1,2.1-2.5V64.7l-4.7-.6c-0.2-.7-0.4-1.4-0.5-2.2,2-1,4.5.2,6.7-.1,0.2-2.2.4-4.4,0.7-6.5l-2.7,5.4-4.1-1.4c-1.4-.9-2.9-0.4-4.3.2s-3.3-1.1-5-1.3l-2.3-.2c0-.9.1-1.7,0.1-2.6,2.5-.4,4.6.7,6.7,2l-1.8-4.7,1.6-1.6c1.4,2.1,3.1,4.1,5.8,4.4-0.5-3.8-5.4-3.4-7.7-5.7a31.9,31.9,0,0,1-2.2-2.8,36.3,36.3,0,0,0,6.9-7.5c-2.5,3-7.3,3.6-8.8,7.3,1.6,2,3,4.3,2.1,7-2.7-.4-2.7-3.5-3.7-5.5s-0.3-4.2.2-6.2a22.4,22.4,0,0,1-.9-4.9l2.8,0.3c2.9-3.5,7.4-4.6,11.4-6.5l2.6,0.6,1.1,2.9c0.9-2.1,2.2-4.2,1.9-6.6a23.4,23.4,0,0,0,4.4-.1h0Z"/><path class="d" d="M97.8,61.1c4.4-2.6,9.8-2.2,14.8-2.2s7.8,0.7,11.8.7c1.6,4.2.6,8.8,0.9,13.2a117.5,117.5,0,0,1,.6,20.8c-4.1,1.4-8.5,1.9-12.5,3.4a44.1,44.1,0,0,0-8.6,4.6h-1.9l-3.1-2.9a14.8,14.8,0,0,0,1.6,4.8c-3.3,2.1-5.9,5.1-8.6,7.8s-4.7,3.2-5.7,5.9-0.7,3-2.3,3.3c-1.9-1.5-2.3-3.9-3-6-2.6-5.4-4.5-11.1-7.2-16.5-1.8-3.4-2.4-7.5-5.8-9.8,0-1.3.2-2.7-.4-3.9a117.3,117.3,0,0,0-5.3-12,5.9,5.9,0,0,1-1-2.6c-0.5-3.4,3.2-5.9,6.2-5.9s8-1.6,12.2-1.5,5.8-.4,8.6-0.1,0.9,3.6,1.6,5.3A132.9,132.9,0,0,1,93.8,81c0.8,4.3,4.7,7.3,5.1,11.8l2.2-2.1a5.5,5.5,0,0,1,2.2-6.7l1.2,1.4c-0.6,1.2-1.5,2.3-2.2,3.5l2.4-.2c-0.1-1.7-.1-3.5-0.1-5.2l2.3,0.7a17,17,0,0,1,.6,2.9l2.3-2.2a11.5,11.5,0,0,0,3.8,1.8,19,19,0,0,1-.9,6.6,10.3,10.3,0,0,1-2.1-5.4,50.4,50.4,0,0,1-4.9,2.4c-0.4,1,.5,1.6,1,2.2,0.9-1.2,1.6-2.7,3.4-2.6,0.1,1.1.2,2.3,0.3,3.4l-2.7-.4-1.5,2.4L103,94.2c0,0.4,0,1.2,0,1.5l2.5,0.9,2.8-1.9,1.8,1.5V93.5a7.5,7.5,0,0,1,3.7,1.3,26.7,26.7,0,0,1,0-6.6c1.8-1.2,2.4.8,3.1,2.1l2.4-1.8a7.7,7.7,0,0,1-.9,5,29.9,29.9,0,0,0,2.9-2.5c0.7-1.3.6-2.8,0.8-4.1-1.9,1.5-4.4,0-6.5.5a3.9,3.9,0,0,1,1.1-3.7c1.7,1.2,3.6.5,5.3-.1-0.7-3.2-1.1-6.6-3.2-9.2-0.5,1.6-.9,4.2-3.1,3s0.9-3.2,2.4-4.2a21.9,21.9,0,0,0-3.7-.8c0.1,2.2,0,4.5-2,5.9l-2.1-2.6c-0.5-1,.2-1.9.5-2.8l-3.3-1.4a8,8,0,0,1,1.9,6.2c-3,.6-3.1-3.2-3.8-5.2s-0.2-2.6-.3-3.9l-2.8.6a38,38,0,0,1,.1,8.8c-3.6-3.7-1.9-9.5-4.2-14a18.1,18.1,0,0,1-.7-2.9h0Z"/><path class="d" d="M140.3,59.4c5.6,0.3,11.2-.4,16.7.6s8.3,0.8,12.5.9l0.2,2.6c-1.4.2-2.8,0.3-4.1,0.5l3.4,0.4c0,1.1,0,2.2-.1,3.4s-2.8-.2-4-0.7l-0.9,2.2a25.8,25.8,0,0,0-4.4,2c-3.2,1.5-7.2,1.2-10.1,3.5s-2.8-1.3-2-2.8a29.2,29.2,0,0,1,5.5-2.2l4.7-.9c0.2-1.5.4-3,.5-4.5l-3.6,2.9a7.4,7.4,0,0,0-6.4,1.5l-1.3-1.3a9.5,9.5,0,0,1-4.8.9c0,1.6.1,3.1,0.2,4.7,1.3-1.3,2.5-2.7,3.9-3.9,0.8,2-.4,3.8-1.4,5.5a22.8,22.8,0,0,1,4.5,2.6L148.4,80l-2-1.5-3.1-2.3-3.2-1.7a139.9,139.9,0,0,1,.2-15.1h0Z"/><path class="d" d="M428.6,61.1l3.1-1.1,0.4,1.9a23.1,23.1,0,0,0-4,7.4c2,0.8,3.9,1.9,4.1,4.3L429,74a14,14,0,0,1,1.7,6.7L428.9,82l-2.6-1.5c0.1-2-.6-4.3.5-6.1s0.5-5.3.9-7.9,0.6-3.6.9-5.3h0Z"/><path class="d" d="M436,62.6a1.5,1.5,0,0,1,0-2.5c1.4-.2,1.5,2.1.5,2.6H436Z"/><path class="d" d="M184.2,63c7.3-.4,14.5,1.2,21.7,2.3,0.3,2.8-.8,5.4-0.7,8.2s-1.2,4.6-.9,7c0.6,5.2-2,9.9-2.2,15-0.7,3.5-.3,7-0.6,10.5s-3.2,5.8-4.7,8.7-3.9,5.2-5.1,8.3a11.2,11.2,0,0,1-3.3,4.2c-4.9-7.1-9-15.1-16.1-20.4S160.2,97.3,152.6,96a5.2,5.2,0,0,1-1.9-4.4c1.6-.4,3,0.3,4.4.9s0.3,1.9.4,2.8c0.7-.8,1.8-1.5,1.8-2.7s1.4-4.7,2.6-6.8h2c-0.6,3.2-2.5,6.2-1.6,9.6l2.8-.4a22.1,22.1,0,0,1,.8-9.1,22.2,22.2,0,0,0,4.1-.2l-3-3,1-1.8c0.5-1.4,2,0,2.9.1l-1.2,3.3,2.5,2.5-0.9,2-3.6-.3a12.7,12.7,0,0,0,.2,3.9l2.7-3.1c1.3,1.1,2.4,2.3,3.5,3.5l1,1.1,3.2-2.9c1.8,2.7,3.5,5.7,3.6,9.1l3.5-.2c-0.9-3.2-3-5.9-4.9-8.6l2.2-1.7,1.3-1a8.4,8.4,0,0,0-1.8-3.7c-1.1.7-2.4,1.7-3.7,0.8s1.9-2.7,3.3-3.7a25.5,25.5,0,0,0-3.5-3.7c0.8-.8,1.4-2.1,2.7-1.8s1.2,2.3,1.7,3.5c3-.1,4.8,3.6,4.6,6.3l1.7-.9c1.5,1.6,3.2,3.2,5.5,3.1l0.5-1a24.9,24.9,0,0,0-5-2c0-.7-0.1-1.5-0.1-2.2-2.8-.6-3.9-3.5-4.8-5.9s1-2.8,1.6-4.1c1.8,0.7,3.1,2.2,4.5,3.4l0.2-1.8c-2.7-2.2-5.1-5-8.1-6.7l1.1-2.8a32.4,32.4,0,0,0,3.8,1.8c-0.6-1.5-3.4-2.7-2-4.4h0Z"/><path class="d" d="M435.6,64.5l2.8,0.2-1.7,3.5a4.6,4.6,0,0,1-1.1-3.7h0Z"/><path class="d" d="M433.3,70.2c-2.3.3-3.4-2.7-2.8-4.6,2.4,0,3.5,2.6,2.8,4.6h0Z"/><path class="d" d="M165.6,70h3.2c0,1.2-.1,2.4-0.1,3.7l-3,.2a5.8,5.8,0,0,1,0-3.9h0Z"/><path class="d" d="M181.1,70.8c1.2,0.4,3.3.8,2.7,2.6s-1.8,1.5-2.7,2.1l-0.2-.8L180,71.8l1.1-1h0Z"/><path class="d" d="M161.1,72.8c0.6-.8,1.7-0.4,2.6-0.6l0.2,2.6-1.2.8-2.9,1.9-1.2-2,2.4-2.6h0Z"/><path class="d" d="M153.6,74l2.9-.4c0,1.3,1.6,3.6-.3,4.2s-1.8-2.5-2.6-3.8h0Z"/><path class="d" d="M635,79.1c1.1-2.2,3.4-3.4,5.3-4.8,1.2,0.3,1.3,1.6,1.8,2.5,2,5.2,2.5,10.8,2.9,16.3,1,7.2,4.7,14.3,3.2,21.7a32.2,32.2,0,0,0,1.1,6.3c1.5,4.1.8,8.6,0.8,12.8a16.9,16.9,0,0,1-3.8-2.4,30.6,30.6,0,0,1-2.9-9.3c-0.8-3.8-2-7.5-2.3-11.3-0.8,1.9-1.9,3.8-1.8,6s1.8,5.6,2.2,8.6a35.5,35.5,0,0,1-1.1,4.7l-4.7-1a15.3,15.3,0,0,1-1.5-7.3c-0.9-2.7-1.7-5.3-2.4-8.1-2.2,2.8-1.2,6.4-.1,9.4s-0.2,3.2-.4,4.8c-2.1.1-4.4,0.3-6.3-.8-3.8-1.8-8.3-1.7-12-3.6a44,44,0,0,1-2.7-10.3c-0.4-3.4-2.4-6.5-2.5-10s2.9-3.6,4.3-5.3c3.4-3.7,8.6-5.7,10.5-10.6l1.5-.4a51.7,51.7,0,0,1,3.5,9.4,11.2,11.2,0,0,0,2.3,4.4,33.7,33.7,0,0,0-1.9-8.2,11,11,0,0,1-.8-6.3c1.2-2.1,3.6-3,5.3-4.6,4.6,4.9,2.9,12.2,4.3,18.3a94.3,94.3,0,0,0,3.6,9.6c0.7-4.8-1.1-9.6-1.8-14.3S636,84.5,635,79.1h0Z"/><path class="d" d="M163.2,77l4.1-1.7c0.1,1.1.1,2.1,0.2,3.2s-3.4,1.8-3.7,3.7-0.4,3.8-2.4,3l-1-1.5,0.9-1.8c0.7-1.6,1.3-3.2,2-4.8h0Z"/><path class="d" d="M551.5,75.8a39.3,39.3,0,0,1,10.5-.7,9.4,9.4,0,0,1,.3,6.6c-0.5,1.4-.6,3.3-2.1,4.1-3.8.3-7.6,0.2-11.3,0.3s-9.6,1.1-14.4,1.5-8.2,1.5-12.3,1.4c-1-1.7-3.1-3.6-2.4-5.7s3.8-3.6,6.4-4.1c4.8-.8,9.8-1,14.6-2a102.4,102.4,0,0,1,10.7-1.3h0Z"/><path class="d" d="M151.7,75.8a4.8,4.8,0,0,1,1.4,3.9,23.5,23.5,0,0,1-2.2,1.9l-0.2-2.2a24,24,0,0,1,1.1-3.6h0Z"/><path class="d" d="M45.4,79.1l3.7-2.7c2.2,2.8,2.4,6.5,3.8,9.6,2.3,5,3.6,10.4,6.1,15.3,1,2.1,1.5,4.5,3,6.3s1.6,4.1,2.6,6c2.3,4.7,3.4,10,6.3,14.4,1.5,2.9,3.4,6,2.9,9.3-3.2.2-6.5-.1-9.7-0.1a4.8,4.8,0,0,1-3.6-1.6c-1.7-3.6-2.7-7.5-4.3-11.2A39.8,39.8,0,0,0,51.3,111c-1.9-3.6-2.9-7.5-4.6-11.1-0.8-1.9-2.6-3.2-3.1-5.2s-2.8-6.2-4.2-9.3a5.1,5.1,0,0,1-.1-3.4c1.7-1.6,4.1-1.8,6-3h0Z"/><path class="d" d="M140.8,77.3l1.2-.6c0.2,1.2.3,2.4,0.4,3.6s0.1,2.4.1,3.5l-1.7,1.5a16.3,16.3,0,0,1-.1-8.1h0Z"/><path class="d" d="M105.7,81.2c-1.4-1.6-1.1-4.6,1.6-4.1a3.4,3.4,0,0,1-1.6,4.1h0Z"/><path class="d" d="M106.4,81.9c1.5-1.5,3.2-2.7,4.7-4.1l2.1,1.5,2.4-1.7,0.4,2.3a37.8,37.8,0,0,0-2.5,3.5,9.4,9.4,0,0,1-4.2-1.3l-1.1,2.7c-0.7-.9-2.3-1.5-2-2.9h0Z"/><path class="d" d="M117.1,79.9c0.3-1,1.4-1.5,2-2.3l2.1,2.9-2.2,2c-0.7-.9-1.9-1.5-1.9-2.7h0Z"/><path class="d" d="M101.3,79.8l2-.8c0.4,1.1,1.1,3.1,0,3.9s-2-1.7-2-3.1h0Z"/><path class="d" d="M153.6,79c2.6,0.4,1.5,3.7,2,5.6v0.6l0.2,1.9h-3c1.6-2.5,1.1-5.4.8-8.1h0Z"/><path class="d" d="M156.8,80.2l1.8-1.8c1.1,1.1,1.8,3.8-.4,4l-0.4-.6-1-1.6h0Z"/><path class="d" d="M144.6,79.4l2.6,1.2-0.4,2-2.1.5c-0.1-1.2-.1-2.5-0.1-3.7h0Z"/><path class="d" d="M147.8,82.8c2.6,3.2,1.4,7.7.7,11.3a55.3,55.3,0,0,1-8.5-1.4,28.9,28.9,0,0,1,.6-4.7c0.9-1.5,2.5-2.4,3.8-3.5l1.3,1.2,1.5,1.4c0.2-1.4.4-2.8,0.6-4.2h0Z"/><path class="d" d="M34.6,87.2c1.7-.6,2.4,1.3,3.2,2.4,2.7,3.9,4,8.5,5.8,12.9a25.5,25.5,0,0,1,1.7,7.3c1.2,4,4.7,6.6,6.4,10.3a54,54,0,0,1,4.1,9.8c-0.2,1.2-.6,2.3-0.9,3.4-2.1-.3-4.9-1.1-5.2-3.6-1.3-6.3-4.3-12.1-5.7-18.3-3.4-5.5-5.4-11.8-8-17.8-0.7-2.1-2.2-4.2-1.5-6.4h0Z"/><path class="d" d="M174.4,87.5a30.9,30.9,0,0,1,5.3-.3l-0.2,2.7-3.9.5-1.2-2.9h0Z"/><path class="d" d="M601.3,88.4l2.6-.9,0.8,2.3-3.1.5-0.3-1.9h0Z"/><path class="d" d="M27.2,91.2l1-1.6c1.9,1.9,1.7,4.7,2.8,7s3.7,7.4,5.4,11.1,2.6,7.6,4.4,11.2c1,1.8,1.7,3.7,2.5,5.6s3.1,4.4,3.7,7-0.3,3.4-.5,5.1c-5.1-2.3-4.9-8.5-6.9-12.9-3-6.4-5.8-13-8.1-19.6-1.4-4.2-4.1-8.1-4.2-12.7h0Z"/><path class="d" d="M20.1,95.4H22c0.1,1.4.1,2.9,0.1,4.3l-2-.3c0-1.3,0-2.6,0-4h0Z"/><path class="d" d="M545.9,95.7l1.1,5.7a33,33,0,0,0,11.6-1.1c4.2-1.1,8.5-1.2,12.7-2.2,7.5-.4,15.1-0.2,22.7.1,0.6,1.5,1.6,2.9,1.6,4.6,0.2,3.6,1.6,7,1.6,10.7s1.5,6.6,1.3,10,2,7.6-.4,10.7-8,3.6-11.7,6.1c-5.7,3.7-11.6,7.2-17.5,10.5-2.5,1.2-4.3,4.2-7.3,3.9-3.5-2.8-5.7-6.8-7.3-10.9s-3.3-6.7-4.5-10.3c-0.7,2.1-1.6,4.7-4.3,4.2-1-1.6-2.2-3.3-2.3-5.3h3.2a37.6,37.6,0,0,0,0-4.4c-2.8-4-4.7-8.5-7.5-12.5s-4.8-7-6.4-10.9l3.3-1-0.2-2.7a21.5,21.5,0,0,1,7.7-.7c0.7-1.6,1.8-3,2.5-4.6h0Z"/><path class="d" d="M13.7,103.2c2.5-1.1,2.9,1.8,3.1,3.6s2.7,4.8,3.5,7.5c1.4,4.5,4.6,8.1,6,12.6,2.1,6.3,5.4,12.1,7.5,18.3a83.5,83.5,0,0,0,5.9,12.6c3.7,7.1,5.9,14.9,9.2,22.2,2.1,4.7,3.8,9.6,6,14.3,3.5,9.6,6.6,19.5,11.8,28.3a60.2,60.2,0,0,0,.6,6.2l-1.8-1.7c-5.2-9.7-9.1-20.1-14.1-30-2-3.8-3.5-7.7-5.2-11.7-3.1-6.6-6-13.3-9.1-20a86.5,86.5,0,0,1-2.8-8.7c-2.2-7.1-5-14-7.8-20.8S19.8,118.6,16,110.1c-0.9-2.3-2.7-4.4-2.3-6.9h0Z"/><path class="d" d="M22.8,103.5c4.2,0.4,3.3,5.4,5.3,8,7.3,11.1,9.5,24.4,15.3,36.2a29.8,29.8,0,0,1,2.2,5.7c0.8,3.2,3.1,5.8,4.3,8.9,2.2,5.7,4.5,11.3,6.8,16.9s6,13,7.7,20c0.6,2.5,2.2,4.5,3.5,6.6,2.7,4.2,4.3,8.9,5.8,13.6,1.5,3.1,3.6,6.1,3.9,9.6,0.2,1.3.4,2.6,0.6,3.9l-1.6-1.6a47.1,47.1,0,0,1-5.5-11.3,137.5,137.5,0,0,1-8.9-19.2c-2.5-5.4-5.1-10.8-7.7-16.2-0.8-3.8-3.1-6.9-4.3-10.6s-3.2-7.3-4.4-11.1c-1.7-5.6-4.4-10.9-6.2-16.4-4-11.3-10.3-21.7-13.6-33.2-0.8-3.4-3.4-6.2-3.2-9.8h0Z"/><path class="d" d="M426.2,117c1.8-1.1,3.5-2.5,5.7-2.6a11.3,11.3,0,0,1-.8,5.8,9.5,9.5,0,0,1-3.2,1l-1.7-4.2h0Z"/><path class="d" d="M3.8,125.3a31.9,31.9,0,0,1,5.7-11c1.4,1.1,3.7,1.7,4.1,3.7s2,5.6,2.6,8.5c2.8,5.7,5.9,11.3,8.3,17.2a53.1,53.1,0,0,0,4.1,11.8c1.1,2.2,2.6,4.3,2.9,6.8s2.4,6.7,4,9.8,2.2,6.2,3.8,9.2A142.9,142.9,0,0,1,47.9,201c1.2,4.8,4.2,8.8,6.1,13.2s2.7,9.8,4,14.6c-4.1,1.9-8-1.3-11.8-2.6s-6.5-2.8-9.3-4.9c-4.9-1.6-7.9-6-11.9-8.9-2.5-1.5-3.2-4.4-5.2-6.3a25.1,25.1,0,0,1-6.4-10.2c-0.9-2.8-2.4-5.3-2.8-8.2s-2.6-6-2.7-9.4S7,172.9,7,170s-3-3.4-2.8-5.8,2.2-4.6,1.4-7-1.5-6.7-2.3-10-3.1-3.5-3.3-5.9,1.5-3.7,1.5-5.7c0-3.6,1.6-6.9,2.3-10.4h0Z"/><path class="d" d="M524.1,125.1a24.6,24.6,0,0,1,4.1-2c2.6,3.5,4.1,7.6,6.3,11.3,1.2,1.7.2,4,1.2,5.8s4.5,5.1,6.4,7.9,0.9,3.9,1.4,5.9,3.4,5.5,2.8,8.8a91,91,0,0,0-11.3,4.7c-5.5,3-11.9,3.6-17.5,6.3-2.7,1.2-5.5,2.7-8.6,2.3l1.9,0.6c-3.9,0-6.9,3.2-10.8,3.3-0.9-2.9-1-5.9-1.7-8.8s-0.4-6.5-.8-9.7a19.6,19.6,0,0,1-1.3-8c7.1-4.8,15.1-8.7,20.6-15.4,1.6-2.7,3.2-5.3,4.8-8s1.4-3.4,2.4-4.9h0Z"/><path class="d" d="M199.5,132.4c0.5-.7,1.4-0.7,2.1-1.1a48.4,48.4,0,0,0,.8,11.5c0.2,7.2,1,14.6-1,21.6-0.5,2.4-.2,4.8-0.5,7.2-3.5,1.4-7.3,1.1-11,.8s-6.1.5-9.2,0.6c0-3.5,2.2-6.6,3.3-9.8,3.4-6.7,6.9-13.4,10.1-20.3,1.6-3.6,3.1-7.2,5.4-10.4h0Z"/><path class="d" d="M440,141.8l3.8-4.4c2,2.2,4.1,4.3,5.4,6.9a15.1,15.1,0,0,0,1.9,3.2c2.4,1.3,5.3,1.6,7.5,3.3s3.6,4.2,6.1,5.3,5.8-2.3,8.9-1.3,7.2,2.6,8.3,6.2c2,5.9,2.9,12,4,18.1,0.3,1.4-.9,2.5-1.5,3.6l-0.6,1c-4.1,0-8.1,1-12.3,1.3-6.7.3-13.3,2-20,1.8a59.1,59.1,0,0,1-15,.5c-1.8-1.3-1.3-4-1-5.9,2.9-6,0-12.9,2.1-19.1,1.1-3.3.3-6.9,0.9-10.3s0.3-6.9,1.3-10.3h0Z"/><path class="d" d="M619.8,140.3a33.3,33.3,0,0,0,6.6,2.4,16.7,16.7,0,0,0,9.2,1.9c0.3,3.7,2.7,7.1,2.5,10.8a8.5,8.5,0,0,0-1.4,6.3c0.8,1.2,1.7,2.4,1.3,4s-3,4.7-4.4,7.1l-2-.6c-0.5-1.9.6-3.6,1.6-5.1l-2.6-2.9a15.1,15.1,0,0,0,1,3.4,16.5,16.5,0,0,0-1.8,3.5l-2.5-.3c-0.9.8-1.6,2.7-2.8,1.3-0.5-3.2,3.4-3.6,5.6-4.2-1-1.5-2.4-4-.5-5.4s3.1-.8,4.3.1c-2.5-2.5,1.3-4.5,1.8-7.1a37.8,37.8,0,0,0-6.6,5.8l-1.6-2.7-1.6.9-5.2.3c0.2-1.1.3-2.2,0.5-3.3l1.3-3.5c-2.6.9-3.6,3.3-4.2,5.7s-2,2.6-3,3.9l4.9-.9,1.8,1.8c-1.3.8-2.6,1.5-3.9,2.2l-1.8.7-2.3-1.6-4.4,3.4,4.5-1.2,1.9,1.5c0.7,3-2.3,5.3-5,4.9v0.9c2.9-1.1,6-2.3,7.9-4.8s3.5-2.8,5.5-3.8,1.7-5.2,4.5-4.7c0.5,1.7-1.2,2.9-2.3,3.9s-2.1,4-3.8,5.6-2.1,3.5-2.8,5.4a5,5,0,0,0,3.7-.8c1.8-1.3,4-1.2,6.1-1.6,0.9,1.2,2.4,1.2,3.8,1.2a36.8,36.8,0,0,0-2.1,3.5l-5.9-1.6-1.5,1.4c-2.6,1-3.8,3.6-5.9,5.2a44.3,44.3,0,0,0-6.6,5.9l-3.9-.2c-0.4-4.6-4.9-8.2-3.8-13.1-1.3-.7-2.9-1.2-3.5-2.7-2.5-4.7-3.4-10-5.9-14.6,1.7-1.7,2.6-3.9,4-5.8,3.8-1,6.6-4,10.2-5.5s5.1-3.6,7.8-5.1l3.5-1.9h0Z"/><path class="d" d="M545.4,143.3l1.9-1.5c-0.4,1.8-1,3.6-1.6,5.3l-4.4-2,3.5-1.4,0.5-.4h0Z"/><path class="d" d="M651,146.4l2.4-1.4c1.6,1.5,3.2,3.4,3.3,5.7,0.5,4.6,2.9,9.6.1,13.9l2.7,1.1c0.1,1.8-.1,3.7-0.1,5.5a23.8,23.8,0,0,0,1.6,3.1c0.3,1.3-.6,2.5-1.1,3.7l3.2,2.7-1.2,2.9c1,1.3,2.4,2.5,2.3,4.2a54.7,54.7,0,0,0,1.5,9.4,43,43,0,0,0-1.5,4.6h-1.8c-0.6-2.6-1.9-5-2.8-7.6s0-6-.3-9c-1.8-3.5-1.5-7.7-3.3-11.2-0.2-2.1-.2-4.3-1-6.3l0.8-2.1a37.8,37.8,0,0,1-2.8-6c-1.2-4.3-3.1-8.7-2.1-13.2h0Z"/><path class="d" d="M50.7,148.7l1.9,0.2c5.9,9.1,8.2,19.9,13.1,29.4,2.1,4.7,3.3,9.8,5.1,14.6q0.5,2.2-1.8,1.8c-2-2.1-2.4-5.1-3.6-7.6s-3.4-7.7-4.9-11.7-4.4-9.8-6.2-14.9-4.2-7.4-3.6-11.8h0Z"/><path class="d" d="M642.2,149.3l3.3-.6,1.8,3.3c-0.5,1.9-1.4,3.9-.3,5.8s0.3,3.5-.4,5c1.1,1,3.1,1.7,3,3.5s-1.7,3.5-2.5,5.3a14.3,14.3,0,0,1-2.6-3.1c0.2-1.2.6-2.4,0.8-3.6s-1.1-1.6-1.5-2.5c-1-4.4-2.3-8.7-1.6-13.2h0Z"/><path class="d" d="M59.9,151.2l2.1-1.1c3.1,3.1,4.9,7,7.2,10.7,0.3,3.9,2,7.4,3.2,11s2.7,9.1,4.9,13.3c-0.7.9-1.3,2-2.6,1.8-2.8-3.8-3.9-8.5-5.8-12.8s-4.1-7.3-5.6-11.2-2.4-7.8-3.3-11.8h0Z"/><path class="d" d="M69.2,155.7c-0.1-1.6-2.2-3.6-.4-4.8s6.3,0.8,9.4,1,3.1,2.5,4,4.2c1.9,3.5,2.7,7.4,4.7,10.7a8.2,8.2,0,0,1,1,6,47.5,47.5,0,0,1-6.9,9.3,55,55,0,0,1-3.7-6.1c-3.2-6.6-6.8-13.1-8.1-20.4h0Z"/><path class="d" d="M571.8,167.1c3.1-1.7,6.4-2.6,9.5-4.2a26.8,26.8,0,0,0,2.8,7.4c-3.6-.4-6.4,1.9-9.5,3.1s-7.3,4.3-11.3,6-9.6,3.4-13.8,6.2c-1.7,1.1-3.4,2.3-5.2,3.2s-3.5.2-5.2,0.2-2.1-2.7-.8-3.9,2.3-4,4.5-4.9,6.2-1.5,9.1-3.1c6.6-3.6,13.5-6.4,20-10h0Z"/><path class="d" d="M636.1,175.3c-2.8-2.2.9-5.5,3.3-6.1,0.1,1.1.1,2.2,0.2,3.3s-2.2,1.9-3.4,2.8h0Z"/><path class="d" d="M646.5,177.6c-0.7-2.6,1-4.6,2.5-6.4,2.6,1.9.4,6.5-2.5,6.4h0Z"/><path class="d" d="M634.4,177.5a17.9,17.9,0,0,0,5.4-3c1.3,0.5,1.1,1.9,1.1,3.1s-4,4-4.3,6.9c1.9-.8,3-3,5.2-2.9,0.2,2.1-1.7,3.4-3.2,4.6a18.2,18.2,0,0,0-6.4,5.3l-1.3-.7c-0.6-.6-1.5-1.3-2.4-0.8l-2.6.6c0.5-1.7,2-2.8,3.2-4l2.1,1.1,3.3-2-0.5-3.2c-1.4,1.1-2.6,2.3-3.9,3.5a3.5,3.5,0,0,1,1.2-3.4c1.5-1.4.9-4.2,3-4.9h0Z"/><path class="d" d="M572.3,187.6c5.2-2.7,10.4-5.4,15.5-8.5-0.4,2.3.6,4.2,1.5,6.3s0.5,5.9,2.2,8.4,2.7,3.3,4,5a84.3,84.3,0,0,1,5.4,12.4c1.5,4.5,3.7,8.7,5.1,13.3s5.2,6.5,4.9,10.7c-4.6,1-8.8,3.3-13.2,5.1s-7.8,4.1-12.2,4.4a21.8,21.8,0,0,1-3.5-13.5c-0.6-1.1-1.5-2.1-2.1-3.2s1.1-1.9,1.7-2.9c-1.5-.6-3.9-0.8-3.9-2.9a24.8,24.8,0,0,1,2.5-3.3,5.1,5.1,0,0,1-4.6-1c3.3-2.9,5-7.8,9.4-9.3v-1.1H583c-0.9,1.7-2,3.4-4.2,3.1a5.4,5.4,0,0,1-2.2,3.9l-2.5-.7c0.6-2.8,1.2-5.6,3-7.9l3.8-.8c0-.7-0.1-1.4-0.1-2s-1.4,1.9-2.6,2.1l-1.8-.6-2-1a6.4,6.4,0,0,1-1.7,6.8l-2.8-2.4,1.3-3.1-3.6,1.2c1.1,2.6,2,5.3,1.4,8.2s0.1,5.2.4,7.8-2.6,2.2-4,3.1l-2.3-2.7,2.1-4c-1.9,1.6-3.8,3.6-3,6.3l0.4,1.1c3,1.1,5.8-.5,7.9-2.5,2.2,5.1,3.2,10.7,5.7,15.8a52.2,52.2,0,0,1,3.3,9l-2.1.4c-3.8.9-7.8,0.4-11.4,1.7-1.6.5-2.4,2.1-3,3.5l-0.5.9c-2.3.7-4.7,0.5-6.9,1.5s-3,1.2-4-.2a32.6,32.6,0,0,1-1.2-9.2l2.6,0.2c-0.4-1.6-.8-3.2-1.1-4.8a17,17,0,0,1-.6-3.8c1.1-2,2.9-3.4,4.5-4.9l-0.8-1.2-4.5,3.3c0-1.9.7-3.9-.4-5.6a5.6,5.6,0,0,1-.6-4.9l0.8-1.8h-5.2a21,21,0,0,0,4.4-5.3,1.4,1.4,0,0,1,2.4.3c1.5,1.3.7,3.2,0.7,4.9a16.6,16.6,0,0,0,5.8,1.8c0-.4,0-1.3,0-1.7s-2.2,1.1-3.2.4c-1.1-2.4-2-5.2-4.1-6.9s-3.1,2.6-5.2,3.2c-2.8-4.5-1-10.2-3.3-14.9-0.5-2.5,1.4-4.5,2.5-6.5,3.8-1.7,8-2.2,11.7-4.2s10.2-4.8,15.4-6.7h0Z"/><path class="d" d="M650,179.3c0.9,0.2,2,.3,2.3,1.3s-0.7,2.1-1.1,3.2h2.7c-0.1,1.4-.2,2.9-0.3,4.3l1.4,1.6c1,3.8,1.4,7.7,2.3,11.5,0.5,2.2-.6,4.3-0.9,6.4l-1.8,1c-2.7-3.4-1.7-7.9-3.6-11.6-0.5-1.3,0-2.6-.2-3.9a39.4,39.4,0,0,1-2.4-5.3l1.4-2.3-2.4-1.9a42.6,42.6,0,0,1,2.7-4.3h0Z"/><path class="d" d="M626.9,181.4c0.6-1.2,2-1.3,3.1-1.5-1.5,3.1-4.1,5.3-5.8,8.2l-2.2-1.3c1.6-1.8,3.6-3.3,4.9-5.4h0Z"/><path class="d" d="M170.5,185.7c2.3-2.4,5.7-1.5,8.6-1.6,7.2,0.2,14.3-.7,21.5-0.1a69.4,69.4,0,0,0,1.4,9.8c0.5,2.6,1.5,5.2.9,7.9-1,5.8-.2,11.7.1,17.6,0,3.1,3.7,5.3,2.5,8.4s-1.1,3.9,0,5.6a15.6,15.6,0,0,1,1.9,7.8l-3-3.1c0,1.2-.1,2.4-0.1,3.6l-7.6.3-0.4-1.8c-0.9-4.4-2-8.8-1-13.3l-2.3-2a50.3,50.3,0,0,1,7.4-1.8l-2.7-2.6-5.6,2c0.2-1.1.3-2.3,0.5-3.4a19.4,19.4,0,0,1,4.7-1v-2.2c-2,.5-3.8,2.3-5.9,1.6s-1.1-3.9-.2-5.6l-3.3-1.8a10.5,10.5,0,0,1,1.6-3.5,23.9,23.9,0,0,0,3.5,1.1c0-1-.1-2-0.1-3-1.8-.4-3.2.8-4.6,1.7-1.2-1.8-.4-3.8,0-5.7s-2-1.8-1.3-2.8l1.7-1.5v-0.9l-0.9-.2-1.5,1.7c-1.5,1.1-3.1,0-4.3-1l1.5-4.5-5.3,1.6c1.2,4.1.7,8.4,1.2,12.5s1.7,7.3,2,11.1,0.1,5.6,1.9,7.7,1.6,2.1,1.3,3.4c-0.3,5.1,2.4,9.8,2.4,14.8a31.5,31.5,0,0,1-8.8-1,45.7,45.7,0,0,1-2-4.5,27.4,27.4,0,0,1-.1-4.7,27.5,27.5,0,0,1,6.8,3.1c-2.1-2.2-4.5-5.1-7.9-4.5H174c-0.2-1.1-.3-2.1-0.4-3.2,1.6-1.7,3.4-3.1,5.2-4.7s-0.8-2-1.3-2.9H176c0.4,1.4,1.4,3.2-.1,4.3a8.6,8.6,0,0,1-3.3.1,52.1,52.1,0,0,0-1-5.3c0.4-1.9.7-3.9,0.9-5.8l2.6,1.6,2.6,2c-0.4-1.4-.8-2.9-1.4-4.3-2.2-2-5.9-.3-8.2-2.6s0.2-2.9,1-3.9A13.4,13.4,0,0,1,174,209c-0.2-1.5.4-3.2-.4-4.6s-4.4-2.7-5.4-5-1.6-2.8-3.3-2.7-2.5-1.5-3.5-2.5a18.6,18.6,0,0,1,3.9-3.2c1.9-1.7,3.5-3.6,5.3-5.4h0Z"/><path class="d" d="M612.4,189c2.7-1.1,4.2-3.7,6.6-5.3s2.1,0.5,1.8,1.9a12.6,12.6,0,0,1-2.4,1.8l-2.9,1.8-0.3.6c-0.5,1.2-1,2.3-1.5,3.5s-1.8,1.6-2.7,2.3l-1.8-2c1-1.5,1.3-3.8,3.1-4.6h0Z"/><path class="d" d="M519.8,189.2c2.3-.7,4.2-2.2,6.5-2.9-0.1,3,.7,5.9,1.1,8.9-3.5,1.9-7.5,2.5-11,4.3-10.2,2.6-20.6,4.4-31,6.4a164.2,164.2,0,0,1-18,3.5c-1.2.1-2.4,0.5-3.5,0a7,7,0,0,1-1.8-5c0.7-1.5,1.4-3.1,2.2-4.6,3.1-1.9,6.8-1.8,10.3-1.1s7.7-.4,11.5-0.7c7-1.3,14-2.4,20.7-5,4.4-1.2,8.7-2.6,13.1-3.9h0Z"/><path class="d" d="M86.5,195.6c2.8-3,4.7-7,8.4-9,3.8,2.9,4.8,7.7,6.8,11.7s2,8.7,4.7,12.4,2.6,5.5,4.2,8.1,3.4,9,5.8,13.3a40.5,40.5,0,0,0,4.9,11.4c-3.9.3-7.4-1.6-11.1-2.4s-4.5-2.6-5.8-4.7-1.5-5-2.6-7.3c-3.3-7.5-6.3-15.2-10.6-22.2-1.8-3.6-2.7-7.6-4.6-11.2h0Z"/><path class="d" d="M637.8,192.7c-0.1-2.9,2.2-6.4,5.4-6.1-0.2,2.9-2,6.7-5.4,6.1h0Z"/><path class="d" d="M621.2,190.8h1l1.6,0.2c-0.1,2.1-1.5,3.6-2.3,5.5l2.4,0.3c-0.1.9-.2,1.8-0.3,2.8h-1.3c-0.9-2-2.8-3.2-3.8-5s1.7-2.8,2.8-4h0Z"/><path class="d" d="M633.9,192.1l2.3-1.5,1.4,3c-1.8,1.2-4.1,2.2-4.5,4.6l5.6-3a25.2,25.2,0,0,1,3.9-4.9,28.2,28.2,0,0,1,4.5,4.2,24.8,24.8,0,0,0,1.1,6.1c1,3,.4,6.2.5,9.2s-1.5,2.6-2.4,3.6c-4.6,3.7-10,6.3-15,9.3-2.4,1.5-4.8,3.8-7.9,3a37.1,37.1,0,0,1-3.9-8.9c-0.2-2.5-1.9-4.3-3.1-6.4l2.5-2.9,2-.6,1.1,3.1,1.4,0.3c2.2-2.8,4.9-5.5,5.7-9.1s2.3-4.8,3.5-7.2a36.7,36.7,0,0,0-3.8,2.6l-3.7-1.8,0.4-2h1.4c2.4-.1,5.1.5,7.2-1h0Z"/><path class="d" d="M611.1,199.4a14.6,14.6,0,0,1,5.3-5.1,5.1,5.1,0,0,1-3.1,6.2l-2.2-1.1h0Z"/><path class="d" d="M163.2,198.5l3-.5c-0.1,1-.1,2.3-1.3,2.5l-1.7-2h0Z"/><path class="d" d="M621.8,203.8a52.7,52.7,0,0,0,4.3-5.5l1.9,0.2a49.5,49.5,0,0,1-3.1,7.2l-1.2.4-2-2.4h0Z"/><path class="d" d="M117.7,199.6c4.7-.8,8.9,1.9,13.5,2.2a61.6,61.6,0,0,0,17.9-2.1c1.1-.2,1.8,1.1,2.1,1.9,1.7,4.8,1.7,10,3.7,14.6a13.4,13.4,0,0,1,1.1,4.8c0.8,1.1,1.9,1.9,2.6,3s-0.3,4.9.8,7.1a42.1,42.1,0,0,1,3,12.9c-8-1.3-16.1-.3-24.1-1.1-3.2-.3-4.1-3.8-5.4-6.2-2.7-6.8-5.3-13.6-8.4-20.2-1.2-2.7-2.8-5.3-3.6-8.1s-2.5-5.9-3.4-8.9h0Z"/><path class="d" d="M164.5,202.5c0.9-.4,1.8-1,2.9-0.8s0.3,1.9-.1,2.9l-2.6-.2v-1.9h0Z"/><path class="d" d="M437.7,202a44.8,44.8,0,0,1,11.1-.8c1.2,2.3.1,5.3,0.4,7.9a27.7,27.7,0,0,1-4,2.5c-4.5.6-8.9-.7-13.4-0.5-2.3-1.2-4.6-.1-7,0.2a21.2,21.2,0,0,1,2.4-8.2c1.7,0.3,3.4,1.2,5.2.8s3.5-1.4,5.3-1.9h0Z"/><path class="d" d="M614.3,206.6a30.6,30.6,0,0,1,4.1-6.2,35.6,35.6,0,0,1,.5,5.8l-2.8,2.2-1.8-1.8h0Z"/><path class="d" d="M82.1,204c1.2-1,3.3-1.7,4.3-.1,2.5,4.4,3.6,9.5,6.6,13.7a71.2,71.2,0,0,1,4.5,7.6c2.6,5.3,2.5,11.7,6.2,16.5h-3.2C94,232.7,90.4,222,85.4,212a56.8,56.8,0,0,1-3.3-8h0Z"/><path class="d" d="M106.4,205.3h2.8l0.2,2.3h-2.1l-0.9-2.3h0Z"/><path class="d" d="M522.3,207.8c2.2-.9,4.3-2.3,6.9-1.9-0.5,5.6,2.3,10.7,2.9,16.2,1.9,7.9,3.3,16,5.5,23.8,0.6,5.1,2.7,10,2.7,15.2a21.4,21.4,0,0,1-4.6.8c-0.8.6-1.5,1.3-2.2,2-3.7,1.1-7.3,2.6-11.1,3.4-5.9,1.9-12.1,4.1-18.4,3.1-1-1.3-.4-3.1-0.7-4.6-0.8-5.1,0-10.3-1.1-15.3a7,7,0,0,1,.8-4.7c-2-3.8-3.3-7.9-4.8-12-2.4,3.5-2,7.9-2,11.9s2.1,11.3-.4,16.5c0.5,3.2,2.3,6.1,2.2,9.4-3.3.9-6.5,2.3-9.9,2.9a119.2,119.2,0,0,1-20.7.8c-0.5-3.5-2.9-6.6-2.4-10.2-0.1-9.3.2-18.6-.2-27.9,0.3-5.3-.6-10.5-1.3-15.6a29.5,29.5,0,0,1,2.5-1.8l0.3-2.4c4.4,0.8,9,1.6,13.4.4,8.9-.5,17.2-4.4,26-5.3,5.7-.6,11-3.2,16.5-4.7h0Z"/><path class="d" d="M75.9,207.6c1.7-.5,2.6,1,3.3,2.2a71.9,71.9,0,0,1,5.3,14c1.8,3,4.2,5.8,4.8,9.4s2,4.9,3.3,7.3a3.2,3.2,0,0,1-3.5-2c-1.6-3.7-3.8-7.2-5.3-10.9C81.6,222,78.2,217,76,211.3a6.2,6.2,0,0,1-.1-3.8h0Z"/><path class="d" d="M167.8,214.2c0.3-1.3.4-3,2.2-2.6l1.9,2.3-4.1.3h0Z"/><path class="d" d="M431,221.8c2.7-.4,5.1-1.4,7.8-2a65.5,65.5,0,0,1,9.7-.1,24.5,24.5,0,0,0,.5,6.5c0.7,3.6-.3,7.4.7,11s-1.2,6.4.2,9.5c0.2,5.9,1.2,11.7.8,17.7,0.2-1.9.3-3.9,0.5-5.8,0.3,5.9.4,11.7,1.1,17.6-7,1.3-14.1,2.6-21.2.9a10.7,10.7,0,0,1-6,0c-1.9-6.9-.5-14.2.7-21.1-0.2-1-.5-2-0.7-3l-2.2-.5c0.2-5.1-.6-10.3.7-15.4s-0.6-10.8.8-16c2.2,0.1,4.4.9,6.7,0.8h0Z"/><path class="d" d="M68.5,233.9h2.7l2,3.9c-2.4,0-3.7-2-4.6-3.9h0Z"/><path class="d" d="M202.5,244.8a8.6,8.6,0,0,1,4.6-.9,4.9,4.9,0,0,1-4.6,2.3c0-.4,0-1.1.1-1.4h0Z"/><path class="c" d="M212.4,105.6a4.8,4.8,0,0,1-.1-0.6,2.9,2.9,0,0,0-.1-0.6q0.1-2.4.3-5.3t0.5-5.9q0.3-3,.7-6t0.9-5.5a1.4,1.4,0,0,1-.1-0.4V81.1a1.3,1.3,0,0,0-.4-0.8,1.3,1.3,0,0,1-.4-0.8,1.1,1.1,0,0,1,.2-1.1l0.8-.6,0.7-.5a0.7,0.7,0,0,0,0-.9l3.6-1.7a2.2,2.2,0,0,0,1.1,1.2l1.3,0.8L224,79a21.1,21.1,0,0,1,2.4,2.9,21.8,21.8,0,0,1,1.9,3.4,19.5,19.5,0,0,1,1.3,4,14.3,14.3,0,0,1,.2,3.4,21.4,21.4,0,0,1-.5,3.7,24.1,24.1,0,0,1-1.2,3.7,22.2,22.2,0,0,1-1.7,3.3,15.1,15.1,0,0,1-2,2.6,7.9,7.9,0,0,1-2.3,1.7l-2.5.9a10.3,10.3,0,0,1-3,.4,4.9,4.9,0,0,1-2.7-.8A3.9,3.9,0,0,1,212.4,105.6Zm5.6-3.3q0.2,0.9.8,0.7a5.9,5.9,0,0,0,2.4-2.1,14.3,14.3,0,0,0,1.8-3.4,18.7,18.7,0,0,0,.9-3.9,11,11,0,0,0-.1-3.6l-0.5-1.7a12.4,12.4,0,0,0-.8-2.1,6.2,6.2,0,0,0-1.1-1.6,1,1,0,0,0-1.3-.3l-0.4.3a1.3,1.3,0,0,0-.1.5,5.8,5.8,0,0,0,0,.7q0,0.4,0,.9l-1.6,15.1a0.5,0.5,0,0,1,0,.2A0.7,0.7,0,0,0,218,102.3Z"/><path class="c" d="M230.6,94l2.2-6.8a7.1,7.1,0,0,0,1.2-1.7l0.9-2,0.8-2.1a7.6,7.6,0,0,1,1-1.8l0.6-.4,1-.8,1-.8L240,77l0.3-.3,0.5-.6,0.5-.6,0.3-.4,0.6-.6,0.4-.4a11.7,11.7,0,0,1,3.8-1,9.2,9.2,0,0,1,3.9.4,7.8,7.8,0,0,1,3.3,2.2,9,9,0,0,1,2,4.3q0.3,1.3.5,2.7a6.1,6.1,0,0,1-.2,2.8,50.2,50.2,0,0,1-1.7,4.8,44.4,44.4,0,0,1-2.5,5.1,30.2,30.2,0,0,1-3,4.4,9.6,9.6,0,0,1-3.3,2.7l-1.7.5-2.4.2h-2.7l-2.6-.5a7.2,7.2,0,0,1-2.1-1.1,3.5,3.5,0,0,1-1.2-1.7l-0.3-1.1-0.5-1.6-0.5-1.6L231,94.3Zm8,1.9a2.5,2.5,0,0,0,1.2.8,3.1,3.1,0,0,0,1.5,0l1.6-.5a8.8,8.8,0,0,0,2.6-1.9,13.2,13.2,0,0,0,2.2-3,12.4,12.4,0,0,0,1.3-3.6,9.9,9.9,0,0,0,0-3.9V82.8l-0.2-.6V81.9a5,5,0,0,0-1.7-1.1,2.3,2.3,0,0,0-2,.1,5.1,5.1,0,0,0-1.4,1.1l-1.6,2a27.9,27.9,0,0,0-3,5.3,15,15,0,0,0-.8,2.6,4.9,4.9,0,0,0-.1,2.1A3.7,3.7,0,0,0,238.6,95.8Z"/><path class="c" d="M277.9,108.7a4.9,4.9,0,0,1-.4,1.1,1.7,1.7,0,0,1-.7.6,5.9,5.9,0,0,1-.1-1.8q0.1-.9.1-1.8v-1.7a6.7,6.7,0,0,0-.1-1.7v-0.3l-1.8,1.6-1.6,1.4-1.7,1.3-2,1q-4.1,1.8-7,0t-4-6.8a19.2,19.2,0,0,1-.4-5.8,26.7,26.7,0,0,1,1.1-5.7,35.4,35.4,0,0,1,2.2-5.5,54,54,0,0,1,3-5.1q1.6-2.5,3.4-4.7l3.4-4.1,0.5-.3,0.5-.3,0.5-.2,0.9-.3a0.5,0.5,0,0,1,.6.4v0.3L273,73.9v0.6a1.6,1.6,0,0,1-.1.6l-0.4.6-0.8,1-0.8,1-0.4.6a37.5,37.5,0,0,0-2.1,4.3,51.6,51.6,0,0,0-1.9,5.5,41.5,41.5,0,0,0-1.2,5.6,13.1,13.1,0,0,0,0,4.7,3.4,3.4,0,0,0,.6,1.4,1.7,1.7,0,0,0,.9.6h1.1l1.3-.4,1.7-.7,2.6-1.2a11.8,11.8,0,0,0,2.5-1.7,10,10,0,0,0,1.9-2.4,7.4,7.4,0,0,0,1-3.2,0.5,0.5,0,0,0-.5-0.4l-0.5.2-1.1.8-1.1,1.1-1.1,1.1a4,4,0,0,1-1.2.8l-1.6.5-2,.3a4.8,4.8,0,0,1-1.8-.3,1.6,1.6,0,0,1-1-1.2,1.5,1.5,0,0,1,.3-1l1.1-1.4,1.6-1.6,1.7-1.5,1.5-1.2,0.9-.6,0.7-.3,1.3-.6,1.5-.7,1.2-.6,0.8-.4,1-.4,1-.4,0.5-.2,1.7-.2h0.1a11.7,11.7,0,0,1-.2,3q-0.3,2.3-.9,5.3l-1.3,6.4-1.4,6.2-1.1,4.7a9.5,9.5,0,0,1-.6,1.9Z"/><path class="c" d="M307.4,103.9l-1.5,1.7h-0.2l-0.3-.3v-0.2a3,3,0,0,1,0-1.2l0.2-1.3a12.1,12.1,0,0,0,.2-1.5,6.4,6.4,0,0,0-.2-1.8L305,97.7l-0.7-2.2L303.4,93l-0.9-2.2-0.9-1.6a0.8,0.8,0,0,0-.6-0.5h-0.2a9.6,9.6,0,0,0-1.6,2.8,27.7,27.7,0,0,0-.9,3.2l-0.7,3.3a22.2,22.2,0,0,1-.9,3.1,9.8,9.8,0,0,1-1.4,2.6,5.6,5.6,0,0,1-2.3,1.7l-1,.3-1.1.2-1-.3a1.2,1.2,0,0,1-.6-0.9v-0.5L288.5,97q-0.2-1.3-.5-3.2t-0.7-4.1q-0.3-2.2-.5-4.4a23.7,23.7,0,0,1,0-4.3,10.5,10.5,0,0,1,.9-3.5,4.4,4.4,0,0,1,2.3-2.2l0.6-.2a0.4,0.4,0,0,1,.4.4l3.3,15,0.4-.2,3.9-9,0.9-.3,0.4-.2,0.3-.2,0.2-.3,0.3-.5,0.3-.5,0.2-.3h0.5l0.5,0.2,2.2,1.3a8,8,0,0,1,1.4,1.3,10,10,0,0,1,1.1,1.7l1.4,2.5,0.4-.2,0.5-1.5,0.3-1.2,0.3-1.1a21.3,21.3,0,0,1,.7-2.5,10,10,0,0,0,.5-2.5l3.7-8.4,1.1-.8,1-.6,0.8-.5,0.4-.2,0.4-.2v0.5l-0.2,1.5-0.5,3.4-0.7,4L316.7,79q-0.4,2.3-1,4.7l-1.3,4.6-1.3,4.5q-0.7,2.3-1.2,4.6a4.1,4.1,0,0,1-.7,1.6l-0.9,1.4-0.6,1-0.8,1.5-0.8,1.5-0.5,1Z"/><path class="c" d="M318.5,85.2l2.4-7.5a7.9,7.9,0,0,0,1.4-2,23.9,23.9,0,0,0,1-2.3l0.9-2.3a8.4,8.4,0,0,1,1.2-2l0.7-.5,1.2-.9,1.2-.9,0.7-.6,0.4-.4,0.6-.7,0.6-.6,0.4-.4,0.7-.7,0.5-.5a15.1,15.1,0,0,1,4.5-1.3,11.8,11.8,0,0,1,4.6.2,9.2,9.2,0,0,1,4,2.2,9.3,9.3,0,0,1,2.5,4.5q0.4,1.4.7,2.9a6.2,6.2,0,0,1-.2,3.1,52.6,52.6,0,0,1-1.9,5.3,47.8,47.8,0,0,1-2.8,5.7,33.8,33.8,0,0,1-3.4,5,11.6,11.6,0,0,1-3.9,3.2l-2,.6-2.9.4h-3.2a16.4,16.4,0,0,1-3.1-.4,8.7,8.7,0,0,1-2.5-1,3.7,3.7,0,0,1-1.5-1.8l-0.4-1.2-0.6-1.8-0.6-1.8-0.4-1.2Zm9.6,1.6a2.9,2.9,0,0,0,1.5.8,4,4,0,0,0,1.7,0l1.8-.6a10.7,10.7,0,0,0,3.1-2.2,14.9,14.9,0,0,0,2.5-3.4,13,13,0,0,0,1.4-4.1,9.9,9.9,0,0,0-.2-4.3V72.5l-0.2-.6-0.2-.6-0.2-.4a5.9,5.9,0,0,0-2.1-1.1,3,3,0,0,0-2.4.3,6.2,6.2,0,0,0-1.6,1.3,21.5,21.5,0,0,0-1.9,2.3,29.7,29.7,0,0,0-1.8,2.9,28.8,28.8,0,0,0-1.5,3.1,15.6,15.6,0,0,0-.9,2.9,4.9,4.9,0,0,0,0,2.3A3.8,3.8,0,0,0,328.1,86.7Z"/><path class="c" d="M351.2,78.3l2.6-7.8a8.2,8.2,0,0,0,1.5-2,24.4,24.4,0,0,0,1.1-2.4l1-2.4a8.6,8.6,0,0,1,1.2-2.1l0.7-.5,1.2-1,1.2-1,0.7-.6,0.4-.4,0.6-.7,0.6-.7,0.4-.4,0.7-.7,0.5-.5a16.5,16.5,0,0,1,4.8-1.4,12.9,12.9,0,0,1,4.9.2,9.8,9.8,0,0,1,4.2,2.3,9.4,9.4,0,0,1,2.7,4.6q0.4,1.5.7,3a6.2,6.2,0,0,1-.2,3.2,53.4,53.4,0,0,1-2,5.5,48.9,48.9,0,0,1-3,5.9,35.1,35.1,0,0,1-3.7,5.1,12.3,12.3,0,0,1-4.1,3.3l-2.1.6-3,.4h-3.4a17.8,17.8,0,0,1-3.3-.4,9.3,9.3,0,0,1-2.7-1.1,3.8,3.8,0,0,1-1.6-1.8l-0.5-1.2-0.7-1.8-0.6-1.8-0.4-1.2Zm10.2,1.6a3.1,3.1,0,0,0,1.5.8,4.4,4.4,0,0,0,1.8-.1l1.9-.6a11.5,11.5,0,0,0,3.3-2.3,15.5,15.5,0,0,0,2.7-3.5,13.2,13.2,0,0,0,1.5-4.2,9.9,9.9,0,0,0-.2-4.4V65.2l-0.2-.6-0.2-.6-0.2-.4a6.3,6.3,0,0,0-2.2-1.1,3.3,3.3,0,0,0-2.5.3,6.6,6.6,0,0,0-1.7,1.4,22.4,22.4,0,0,0-2,2.4,30.7,30.7,0,0,0-1.9,3,29.5,29.5,0,0,0-1.6,3.2,15.8,15.8,0,0,0-1,3,4.9,4.9,0,0,0,0,2.3A3.9,3.9,0,0,0,361.4,79.8Z"/><path class="c" d="M389.4,82.6V81.9a2.9,2.9,0,0,0-.1-0.7q0.1-2.8.3-6.2t0.4-7q0.3-3.6.7-7.1t1-6.6a1.4,1.4,0,0,1-.1-0.4V53.5a1.4,1.4,0,0,0-.6-0.9,1.5,1.5,0,0,1-.6-1,1.2,1.2,0,0,1,.2-1.4l1.1-.8,1-.7a0.8,0.8,0,0,0,0-1l4.9-2.3a2.7,2.7,0,0,0,1.6,1.3l1.8,0.8,3.8,2.7a25.6,25.6,0,0,1,3.5,3.2,24.3,24.3,0,0,1,2.8,3.9,20.1,20.1,0,0,1,2,4.6,14.3,14.3,0,0,1,.4,4,21.8,21.8,0,0,1-.6,4.4,26,26,0,0,1-1.5,4.4,25.6,25.6,0,0,1-2.2,4.1,19.2,19.2,0,0,1-2.7,3.3,11.5,11.5,0,0,1-3.1,2.2l-3.5,1.3a16.9,16.9,0,0,1-4.1.7,7.6,7.6,0,0,1-3.7-.7A4.4,4.4,0,0,1,389.4,82.6Zm7.7-4.3q0.3,1.1,1.1.7a8.2,8.2,0,0,0,3.2-2.7,16.6,16.6,0,0,0,2.3-4.2,19.6,19.6,0,0,0,1.2-4.7,11,11,0,0,0-.3-4.3l-0.7-2a13,13,0,0,0-1.2-2.4,7.2,7.2,0,0,0-1.6-1.8,1.6,1.6,0,0,0-1.8-.2l-0.6.4a1.4,1.4,0,0,0-.2.6,5.8,5.8,0,0,0,0,.8q0,0.5,0,1.1l-1.6,18a0.5,0.5,0,0,1,.1.3v0.3Z"/><path class="c" d="M209.5,191a10.9,10.9,0,0,1-.2-1.4,6.8,6.8,0,0,0-.2-1.3q0.3-5.3.8-11.7t1.1-13.1q0.7-6.7,1.5-13.2t1.9-12.3a3.3,3.3,0,0,1-.1-0.8,3.5,3.5,0,0,0-.1-0.8,3.1,3.1,0,0,0-.9-1.8,3.2,3.2,0,0,1-.9-1.9,2.5,2.5,0,0,1,.4-2.5,8.4,8.4,0,0,1,1.8-1.3l1.6-1.1q0.7-.5.1-1.9l8-3.4a5.2,5.2,0,0,0,2.5,2.8,13.1,13.1,0,0,1,2.8,1.9q3,2.7,5.9,5.7a50.8,50.8,0,0,1,5.3,6.7,52.1,52.1,0,0,1,4.3,7.9,45.5,45.5,0,0,1,2.9,9.1,32.4,32.4,0,0,1,.5,7.7,46.8,46.8,0,0,1-1.2,8.3,51.5,51.5,0,0,1-2.6,8.1,46.6,46.6,0,0,1-3.7,7.2,31.2,31.2,0,0,1-4.6,5.7,16.4,16.4,0,0,1-5.1,3.5,36.2,36.2,0,0,1-5.7,1.7,22.5,22.5,0,0,1-6.6.5,11.4,11.4,0,0,1-5.9-2.1Q210.3,195.3,209.5,191Zm12.4-6.7q0.4,2.1,1.7,1.6a12.2,12.2,0,0,0,5.3-4.4,30,30,0,0,0,3.9-7.5,40.1,40.1,0,0,0,2.1-8.7,24.7,24.7,0,0,0-.2-8.1q-0.3-1.4-1-3.9a29.2,29.2,0,0,0-1.8-4.7,14.9,14.9,0,0,0-2.4-3.6,2.3,2.3,0,0,0-2.8-.8,1.8,1.8,0,0,0-.9.7,2.6,2.6,0,0,0-.3,1.1,12.8,12.8,0,0,0-.1,1.6q0,0.9-.1,2.1l-3.6,33.6a1.1,1.1,0,0,1,.1.6A1.6,1.6,0,0,0,221.9,184.4Z"/><path class="c" d="M256.9,208.7a9.6,9.6,0,0,1-.2-3.5q0.2-1.8.6-3.7l0.8-3.8a15.5,15.5,0,0,0,.3-3.8v-0.5a4.6,4.6,0,0,0-.9-1.9,5.2,5.2,0,0,0-1.6-1.3,6.7,6.7,0,0,0-1.9-.7l-1.7-.2-0.8.9a5.3,5.3,0,0,1,.6-4.3,15.6,15.6,0,0,1,2.8-2.9l3.3-2.8a6,6,0,0,0,2.1-3.5l8.6-45.9a10,10,0,0,1,2-4.3,23.3,23.3,0,0,1,3.7-3.7,36.8,36.8,0,0,1,4.3-3,31.4,31.4,0,0,1,3.8-2,1.7,1.7,0,0,1,2,.6,13.6,13.6,0,0,1,1.8,2.6,20.9,20.9,0,0,1,1.4,3,14.8,14.8,0,0,1,.6,2.1l8.1,38.4,1.5,0.6,1,0.3H300a7.7,7.7,0,0,0-3.2,3.9,19.1,19.1,0,0,0-.9,4.8q-0.2,2.6-.3,5.5a16.8,16.8,0,0,1-1.2,5.7,15,15,0,0,1-3.8,5.3,24.1,24.1,0,0,1-7.8,4.6,14.9,14.9,0,0,1-.3-3.4q0-1.7.2-3.6t0.2-3.7a17.1,17.1,0,0,0-.3-3.7h-1.5l-7.8,6.6a17.6,17.6,0,0,0-2,5.8q-0.6,3.3-1.3,6.4a25.2,25.2,0,0,1-2.2,5.7,7.8,7.8,0,0,1-4.3,3.7l-1.6.5-2.1.3a3.9,3.9,0,0,1-1.9-.4A1.9,1.9,0,0,1,256.9,208.7Zm18.3-37.9a2.5,2.5,0,0,0,1.9.5l1.9-.6,1.2-.5,2-1v-4.7l-5-24a37,37,0,0,0-1.1,7.1q-0.3,3.8-.3,7.8t0,8A65.7,65.7,0,0,1,275.3,170.8Z"/><path class="c" d="M304.5,180.4v-0.6a54.7,54.7,0,0,1,1.8-10.5q1.3-4.8,3.1-10h0.3a4.3,4.3,0,0,1,1.9,0l3.1,0.6,3.3,0.8a9.2,9.2,0,0,0,2.5.3l0.2,0.6a4.1,4.1,0,0,1-.3,3.7,7.7,7.7,0,0,1-2.6,2.4v0.5a1.6,1.6,0,0,0,.2.6,16.7,16.7,0,0,0,3.5,5.9,18.9,18.9,0,0,0,5.2,4.1,14.6,14.6,0,0,0,6,1.7,10.2,10.2,0,0,0,5.7-1.2,18.8,18.8,0,0,0,2.8-2,8.6,8.6,0,0,0,2.1-2.7,9.2,9.2,0,0,0,.9-3.3,10.3,10.3,0,0,0-.6-4.1,9.2,9.2,0,0,0-3-4.1l-4.8-3.9a43,43,0,0,1-5.2-5,21.3,21.3,0,0,1-4.1-7.4,20,20,0,0,1-.9-3.7,13.3,13.3,0,0,1-.1-3.4,15.7,15.7,0,0,1,.8-3.4,41,41,0,0,1,1.5-3.8l-3.3-.6a13.4,13.4,0,0,1,1.1-3.9,22.3,22.3,0,0,1,2-3.6,18.8,18.8,0,0,1,2.5-3,14.1,14.1,0,0,1,2.8-2.1,14.3,14.3,0,0,1,4.6-1.8,13.1,13.1,0,0,1,4.9,0,14,14,0,0,1,4.6,1.8,11.9,11.9,0,0,1,3.8,3.7l0.4,1.2a15.6,15.6,0,0,0,.7,1.7,15.7,15.7,0,0,1,.7,1.7l0.4,1.2,1.3,4.1a10.8,10.8,0,0,1,.6,5.2q-0.4,2.2-3.4,3.9t-3.1-.7a41.3,41.3,0,0,1-3.1-3.6,22.5,22.5,0,0,0-3.3-3.5,3,3,0,0,0-3.7-.4,4.3,4.3,0,0,0-1.9,1.9,4.4,4.4,0,0,0,.3,2.9,14.1,14.1,0,0,0,3.6,5.8q2.4,2.2,5,4.2a54.4,54.4,0,0,1,5.1,4.5,15.9,15.9,0,0,1,3.7,6.3,29.5,29.5,0,0,1,1.5,9,31.4,31.4,0,0,1-1.2,9.1,27.3,27.3,0,0,1-3.7,7.9,16.2,16.2,0,0,1-5.9,5.4,56,56,0,0,1-8.8,4A23.7,23.7,0,0,1,328,196a20.1,20.1,0,0,1-8-1.9,27.4,27.4,0,0,1-7.9-5.9l-0.7-1-1.1-1.7-1.2-1.7-0.7-1-3.5-1.9Z"/><path class="c" d="M368.9,170.6a2.2,2.2,0,0,0-1.3-1.9l-2.2-.6a9.1,9.1,0,0,1-2.3-.8,3.7,3.7,0,0,1-1.6-2.7,6.3,6.3,0,0,1,.2-4.1,9.1,9.1,0,0,1,2-2.7l2.5-2.3a5.8,5.8,0,0,0,1.7-3.1,54.2,54.2,0,0,0,1.3-7.2q0.5-3.9.7-7.9t0.3-8q0-4,0-7.5a4.8,4.8,0,0,0,3-1.1,4.3,4.3,0,0,0,.9-1.9,12,12,0,0,1,.6-2,3.6,3.6,0,0,1,2-1.6l0.9-.4a2.4,2.4,0,0,1,1.6-.1c0.5,0.2.8,0.8,0.8,1.8l0.5,2q0.3,1.4.7,3.1c0.3,1.1.5,2.1,0.7,3.1l0.5,2.1a64,64,0,0,1,1.3,8.6,71.2,71.2,0,0,0,1.2,8.5l0.2,0.6,2.8-.8,4.3-1.3,4.3-1.4,2.8-1,1.8-.6q0.9-.3,1.3-2.4a34.8,34.8,0,0,0,.6-5.2q0.1-3.1.1-6.7t0-7a56.1,56.1,0,0,1,.4-6.1,12,12,0,0,1,1-4l0.5-.3,0.8-.2,0.9-.4,0.6-.2a8.6,8.6,0,0,0,.7-1.6,8.7,8.7,0,0,1,.7-1.6,5.9,5.9,0,0,1,1.4-1.1l1.5-.8q1.7,7.7,2.8,15t1.5,14.8q0.4,7.4.1,14.9a153.6,153.6,0,0,1-1.5,15.5q-0.4,3.2-1.1,8.1t-1.6,9.6l-1.5,8.2q-0.6,3.5-.7,3.7l-0.7,1.5a1.7,1.7,0,0,1-.9-0.3,1,1,0,0,1-.3-0.6,3.5,3.5,0,0,1,0-.9,4.3,4.3,0,0,0-.1-1.1h-1.4l-0.7,1.5-0.7,1.6-0.3-1.4-0.3-1.4a13.1,13.1,0,0,1-.3-4.8,28.5,28.5,0,0,0,.3-4.6,161.8,161.8,0,0,0-1.1-16.7q-1-8.1-1.2-16.4a4.9,4.9,0,0,0-1.8-1,3.4,3.4,0,0,0-2,0H398l-1.7,1.9-2,2.9-3.1,4.2-3,4.1-2,2.7a36.5,36.5,0,0,0-.9,5.3q-0.3,3-.4,6.1t-0.1,5.8v4.4a27.3,27.3,0,0,1-1.3,6.5,43.5,43.5,0,0,1-2.9,6.9,31.6,31.6,0,0,1-3.9,5.9,10.6,10.6,0,0,1-4.5,3.4,58.1,58.1,0,0,1-1.4-9.5q-0.3-4.8-.5-9.5T370,179A51.8,51.8,0,0,0,368.9,170.6Z"/><path class="b" d="M451.3,121.8a7.7,7.7,0,0,1,.8-2.4,1.7,1.7,0,0,1,.7-0.8l0.8-.2h0.9l0.8,0.3a0.7,0.7,0,0,0,.6.3h0.5l0.6,0.4a7.2,7.2,0,0,1,.9,1.4l1.1,2.1,1.2,1.7,1.1,1.1a0.9,0.9,0,0,0,1,.2l0.6-.4,0.6-.7,0.9-.9,1.4-1.4a10,10,0,0,0,2.5-4.1,9.2,9.2,0,0,0,.6-4.1,5.5,5.5,0,0,0-1.7-3.1,4,4,0,0,0-3.9-.9l-2.3.5-2.1.4-0.4-.9-0.6-1.4-0.6-1.7a9.8,9.8,0,0,1-.4-1.7l-0.5-2.7-1.1-2.4L454.4,99l-1.1-3L451,91.3l7.2-2.9,2.8-1.2,0.7-.4,0.6-.4,1.3-1,1.3-.8,3.1-1.4,5.9-2.7,0.5,9.5L468.9,92l-2.3.9-0.9.5-0.9.5-1.3.6-2.3.9q2.5,5.4,2.9,6.1c5.2-.9,8.4-0.9,9.5,0a9,9,0,0,1,2.8,3.8,9.7,9.7,0,0,1,.8,5q-0.4,2.7-.7,5.8-0.4,1.6-.8,2.6l-0.7,1.8-0.7,1.2-0.6.9a7.4,7.4,0,0,1-1,1.3l-1.2,1.6a12.1,12.1,0,0,1-2.2,2.3,28.3,28.3,0,0,1-3,2.2l-3.2,1.8-2.8,1.2a4.3,4.3,0,0,1-3,.2,6.1,6.1,0,0,1-2.6-1.5,10,10,0,0,1-2-2.9,14.6,14.6,0,0,1-1.2-3.7A9.4,9.4,0,0,1,451.3,121.8Z"/><path class="b" d="M487.1,113.7a8.2,8.2,0,0,0-.4,2.1q-0.1,1.2-.1,2.6t0,2.6a17.1,17.1,0,0,1-.2,2.2,2.6,2.6,0,0,1-.6,1.4l0.3,0.2,0.3,0.3v0.3q0,0.3.1,1.1a15.9,15.9,0,0,1-.1,1.6q-0.1.8-.2,1.6a2.5,2.5,0,0,1-.3,1l-0.4.2-0.5.2-0.5.2h-0.3l-0.9.2-0.8.2h-0.7l-0.6-.4a2.1,2.1,0,0,1-.4-1,1.1,1.1,0,0,1,0-.3v-0.3q0-.8.1-2.6t0.2-4l0.2-4.7q0.1-2.5.3-4.8l0.2-4.1c0.1-1.2.1-2.1,0.2-2.7s0.2-1.7.3-2.9l0.5-3.6,0.5-3.9,0.5-3.6,0.4-2.7,0.2-1.3,0.5-1.1,0.6,3.5a2.6,2.6,0,0,0,.8-1.5l0.2-1.6a6.9,6.9,0,0,1,.3-1.6,2.5,2.5,0,0,1,1.4-1.4q0.1,0.6.3,2.6t0.3,4.2q0.1,2.2,0,4a4.2,4.2,0,0,1-.5,2.3,1.3,1.3,0,0,0,.8.9l0.9-.2a7.9,7.9,0,0,0,3-2.5l2.8-3.8q1.4-2,3-3.9a10.9,10.9,0,0,1,3.4-2.8l1.1-.5,1.7-.4a4.2,4.2,0,0,1,1.6.1,1.2,1.2,0,0,1,.8,1,3.1,3.1,0,0,1-.7,1.7,24.3,24.3,0,0,1-1.9,2.5l-2.1,2.2a2.4,2.4,0,0,1-1.5.9l-5.2,6.2-0.2.5v0.4a5,5,0,0,1-.4,1.9l-0.7,1.1a4.3,4.3,0,0,0-.5,1,3.2,3.2,0,0,0,0,1.6,11.7,11.7,0,0,0,.3,1.3,2.5,2.5,0,0,0,.6,1l2.5,2.1,2.9,2.3,3,2.4a31,31,0,0,1,2.7,2.5l9.9,3.7,0.3,0.2,0.3,0.4,0.2,0.3v0.4l-1.2.6-1.7.8-1.7.7-1.1.4h-0.3a5.9,5.9,0,0,1-2.8,0,17.5,17.5,0,0,1-3.2-1,23.2,23.2,0,0,1-3.1-1.6,16.1,16.1,0,0,1-2.5-1.8l-7.8-7.3-1.5-.9a1.8,1.8,0,0,0-1.5-.2A1.8,1.8,0,0,0,487.1,113.7Z"/><path class="e" d="M212.7,241a2.6,2.6,0,0,1,0-.8l0.2-.9,0.2-.9a4.2,4.2,0,0,0,.1-0.9h0a1.2,1.2,0,0,0-.2-0.5l-0.3-.3-0.4-.2h-0.4l-0.2.2a1.4,1.4,0,0,1,.2-1l0.6-.7,0.7-.6a1.5,1.5,0,0,0,.5-0.8l2.3-10.9a2.7,2.7,0,0,1,.5-1l0.8-.9,0.9-.7,0.8-.5a0.3,0.3,0,0,1,.4.2l0.4,0.6,0.3,0.8v0.5l1.3,9.4,0.3,0.2h0.4a1.8,1.8,0,0,0-.7.9,5.1,5.1,0,0,0-.3,1.2v1.3a4.5,4.5,0,0,1-.3,1.4,3.6,3.6,0,0,1-.9,1.2,4.9,4.9,0,0,1-1.7,1,4.1,4.1,0,0,1,0-.8v-1.7a4.7,4.7,0,0,0,0-.9H218l-1.7,1.5a4.5,4.5,0,0,0-.5,1.4l-0.3,1.5a6.4,6.4,0,0,1-.5,1.3,1.6,1.6,0,0,1-.9.8h-1.2A0.5,0.5,0,0,1,212.7,241Zm4.2-8.8H218l0.4-.2v-1.1l-0.8-5.9a10.2,10.2,0,0,0-.3,1.7q-0.1.9-.1,1.9v1.9A17.9,17.9,0,0,1,216.9,232.2Z"/><path class="e" d="M222.3,241.4a5.3,5.3,0,0,1,0-1.1q0-.6.1-1.2l0.2-1.3q0.1-.6.1-1.2t0.4-3.3l0.5-3.2q0.2-1.6.4-3.2a27.9,27.9,0,0,0,.2-3.2v-0.2h0.3l0.4-.2,0.4-.2h0.2l0.2-.4,0.2-.3a6.6,6.6,0,0,1,1.8-1.5l2-1,0.7-.3v0.4H231l0.9-.4,0.7,0.5,0.7,0.6,0.6,0.8a2.6,2.6,0,0,1,.3,1.1,5.5,5.5,0,0,1-.2,2.4,10.8,10.8,0,0,1-1.1,2.4,14.1,14.1,0,0,1-1.7,2.2l-1.9,1.9-1.9,1.3-1.6.7q-0.1.7-.1,1.7t-0.1,1.8-0.2,1.8a8.8,8.8,0,0,1-.4,1.7,4.4,4.4,0,0,1-.7,1.3,2.3,2.3,0,0,1-1.1.8H223l-0.3-.2-0.2-.4v-0.4Zm4.2-12.5a0.7,0.7,0,0,0,.2.5l0.5,0.3h0.1a2.6,2.6,0,0,0,1-.9l1.1-1.8a17,17,0,0,0,.9-2,6.6,6.6,0,0,0,.4-1.7,0.2,0.2,0,0,0-.3-0.2h-0.3l-1.4.8a6.1,6.1,0,0,0-1.3,1.2,5,5,0,0,0-.9,1.6A4.6,4.6,0,0,0,226.5,228.8Zm4.2-9.7c0.1,0,.2,0,0.2.2a0.3,0.3,0,0,1-.1.4q-0.2.1-.2-0.2A0.3,0.3,0,0,1,230.7,219.1Z"/><path class="e" d="M235.2,241.6a3.7,3.7,0,0,1,0-.7q0-.5.1-1.2V235l1.7-10.1v-0.5a1.8,1.8,0,0,0,0-.4v-1.5h0.2l0.4-.2,0.4-.2h0.3l0.2-.4,0.2-.4a7.4,7.4,0,0,1,2-1.6l2.2-1.1,0.8-.3v0.6h1l1-.4,0.8,0.5,0.8,0.6,0.7,0.8a2.9,2.9,0,0,1,.4,1.1,5.6,5.6,0,0,1-.2,2.5,12.2,12.2,0,0,1-1.1,2.5,14,14,0,0,1-1.5,2.2l-1.5,1.5h-0.3l-0.5.2-0.4.3a0.4,0.4,0,0,0-.1.4h0l1.1,1.3,1.3,1.4a4.9,4.9,0,0,0,1.5.9,1.7,1.7,0,0,0,1.6-.2,2.8,2.8,0,0,1-.3,1.1l-0.6.9-0.8.7-0.8.4h-0.9l-0.5-.2-0.5-.2h-0.2l-1-.7-1.5-1.1-1.5-1.1-0.9-.7a25,25,0,0,0-.2,2.7,23.6,23.6,0,0,1-.3,2.9,8.8,8.8,0,0,1-.8,2.5,2.7,2.7,0,0,1-1.7,1.4h-0.4l-0.3-.3-0.2-.4v-0.4Zm4.7-13.4a0.7,0.7,0,0,0,.2.5l0.6,0.4h0.1a3.3,3.3,0,0,0,1.1-1,12.6,12.6,0,0,0,1.2-1.9,20.5,20.5,0,0,0,1-2.2,6.6,6.6,0,0,0,.5-1.8,0.3,0.3,0,0,0-.3-0.2h-0.3l-1.6.8a6.6,6.6,0,0,0-1.5,1.3,5.4,5.4,0,0,0-1,1.7A4.6,4.6,0,0,0,239.9,228.2Zm4.7-10.4c0.1,0,.2,0,0.2.2a0.3,0.3,0,0,1-.1.4c-0.1.1-.2,0-0.3-0.2A0.4,0.4,0,0,1,244.6,217.8Z"/><path class="e" d="M249.6,242.4a3.8,3.8,0,0,1,.1-1l0.3-1.7,0.4-1.8,0.3-1.2q0.2-4.1.5-8.1a64.8,64.8,0,0,1,1.1-8.2h0.3l0.6-.2,0.9-.2h1.2l0.4,2.8-1.1,11.4a8.8,8.8,0,0,1-.3,1.2l-0.5,1.7-0.8,1.9-0.9,1.8-0.9,1.4a1.8,1.8,0,0,1-.8.7H250C249.8,242.9,249.7,242.7,249.6,242.4Z"/><path class="e" d="M256.8,242.1a6.5,6.5,0,0,0,1.4-2.6,23.8,23.8,0,0,0,.7-3.2q0.2-1.7.4-3.4a17.8,17.8,0,0,1,.6-3.1v-1.2l0.2-1.2,0.2-1.4,0.2-1.1,0.2-1.1,0.4-1.8,0.4-1.8,0.3-1.2,1.1-1.2a3.7,3.7,0,0,1,1.2-.8,6.2,6.2,0,0,1,.1,1.6,4.1,4.1,0,0,0,.1,1.5,119,119,0,0,1-3,16.4v1l0.8-.2,0.7-.4,1.6-1,1.9-1.2,1.6-1h0.1l0.2-.2,0.2-.2h0.4l0.3,0.3,0.3,0.3,0.2,0.3-0.6,2a2.5,2.5,0,0,1-.6.9l-0.8.5-1.5.8-1.8,1.3-1.8,1.5-1.8,1.3a6.9,6.9,0,0,1-1.8.8h-0.7l-0.4-.2-0.5-.3-0.4-.4Zm1.9-10c0.1,0,.2.1,0.3,0.3a0.3,0.3,0,0,1-.2.4c-0.2.1-.3,0-0.3-0.2A0.3,0.3,0,0,1,258.8,232.1Z"/><path class="e" d="M281.1,242.4a3.8,3.8,0,0,1,.9-1.9,10.4,10.4,0,0,1,2.9-2.9,8.5,8.5,0,0,1,1.9-1.4h0.3a3.6,3.6,0,0,0,1.7-1.2,11.3,11.3,0,0,0,1.6-2.3,12.8,12.8,0,0,0,1-2.7,5.4,5.4,0,0,0,.2-2.3l-0.4-1-0.7-1.2-0.9-.9a1,1,0,0,0-1-.2h-0.2v0.2l-4.1-.9a1.3,1.3,0,0,0-.3-0.6l-0.4-.4-0.4-.4a1.3,1.3,0,0,1-.3-0.6,1.3,1.3,0,0,1,.2-0.9l0.6-.7,0.8-.5,0.8-.3a6,6,0,0,1,2.2-.2,11.7,11.7,0,0,1,2.6.4l2.7,1a14.8,14.8,0,0,1,2.4,1.5,10.6,10.6,0,0,1,1.9,1.8,4.6,4.6,0,0,1,1,2,19.6,19.6,0,0,1,.3,2.3,5.7,5.7,0,0,1-.2,2.4,12.9,12.9,0,0,1-2.4,3.6,20.2,20.2,0,0,1-4.7,3.9l11.2-1.8c1.4,4.1-1.4,6.2-8.3,6.3s-9.8.2-10.5,0.4l-0.7.2h-0.7l-0.6-.2A1.1,1.1,0,0,1,281.1,242.4Z"/><path class="e" d="M298.8,223.8q-0.5-5.8,1.1-5.9h8.4l3.5,0.3,3.1,0.5a10.1,10.1,0,0,1,2.3.8,1.7,1.7,0,0,1,1,1.1,10.9,10.9,0,0,1,.2,2.1,7.4,7.4,0,0,1-.4,2.2,7.2,7.2,0,0,1-1.1,2.1,6.2,6.2,0,0,1-2,1.7l1,5.1a3.5,3.5,0,0,1-.8,2.6,14.4,14.4,0,0,1-2.5,2.8,20.7,20.7,0,0,1-3.3,2.3,12.8,12.8,0,0,1-3.2,1.4l-1.2.2h-1.6l-1.4-.2a1,1,0,0,1-.7-0.7,0.8,0.8,0,0,1,.1-0.5l0.3-.5,0.3-.5a1,1,0,0,0,.1-0.5V240a20.1,20.1,0,0,1,1.9-3.4,9.4,9.4,0,0,1,2.7,0l1.1-.3,0.4-.3,0.6-.7,0.6-.8,0.4-.7v-0.7a1.6,1.6,0,0,0-.8-1.1,4.1,4.1,0,0,0-1.6-.5l-0.9-.3-1.1-.6a1.8,1.8,0,0,1-.8-2.2,2.7,2.7,0,0,1,2.2-1.9l0.9-.2,0.8-.3,1.6-.4,0.9-.3,0.9-.4,0.6-.5a0.8,0.8,0,0,0,.1-0.7v-0.4C310.2,222.8,305.6,223,298.8,223.8Z"/><path class="e" d="M335.8,246.7a4.4,4.4,0,0,1,1.3-2.1,11.1,11.1,0,0,1,3.7-2.8,8.7,8.7,0,0,1,2.4-1.2h0.4a3.8,3.8,0,0,0,2.1-1.1,13.1,13.1,0,0,0,2.2-2.4,16,16,0,0,0,1.7-3.1,7.4,7.4,0,0,0,.7-2.9,8.2,8.2,0,0,0-.2-1.4,9.7,9.7,0,0,0-.6-1.7,5.9,5.9,0,0,0-.9-1.4,1.2,1.2,0,0,0-1.1-.5h-0.3l-0.2.2a29,29,0,0,1-4.6-2.2,1.9,1.9,0,0,0-.2-0.8l-0.4-.6-0.4-.6a1.9,1.9,0,0,1-.2-0.8,1.8,1.8,0,0,1,.3-1.1l0.8-.7,1.1-.4,1-.2a6.4,6.4,0,0,1,2.6.2,13,13,0,0,1,2.9,1.2,19,19,0,0,1,2.9,2,18.5,18.5,0,0,1,2.5,2.6,14.1,14.1,0,0,1,1.8,2.8,6.6,6.6,0,0,1,.7,2.8,28.2,28.2,0,0,1-.1,3,7.8,7.8,0,0,1-.8,2.9,15.5,15.5,0,0,1-3.4,3.9,21.8,21.8,0,0,1-6,3.6l12.9,0.5c0.7,5.2-2.9,7.1-10.4,5.6s-10.9-2-11.6-2h-1.6l-0.6-.4A1.4,1.4,0,0,1,335.8,246.7Z"/><path class="e" d="M362.5,241.6a35.5,35.5,0,0,1,1.4-4.3q0.9-2.3,2.1-4.7a33.4,33.4,0,0,1,2.6-4.4,19.7,19.7,0,0,1,2.9-3.4,5.9,5.9,0,0,1,3-1.6,10.3,10.3,0,0,1,4,.3,12.2,12.2,0,0,1,3.9,1.8,10.8,10.8,0,0,1,3,3.1,7.1,7.1,0,0,1,1.1,4.1,30.7,30.7,0,0,1-1.3,7.5,27.2,27.2,0,0,1-3.3,7.1,19.4,19.4,0,0,1-5,5.2,11.4,11.4,0,0,1-6.4,2.2,7.4,7.4,0,0,1-3.6-.7,7.9,7.9,0,0,1-2.7-2.1,9.6,9.6,0,0,1-1.7-3.2,12.2,12.2,0,0,1-.6-3.8A13.8,13.8,0,0,1,362.5,241.6Zm7.3,4.5c0.4,0.6,1.3.8,2.6,0.7a3.8,3.8,0,0,0,2.3-.9,7,7,0,0,0,1.7-2,10.7,10.7,0,0,0,1-2.6,12,12,0,0,0,.4-2.6,9.9,9.9,0,0,0-.3-1.8,12.5,12.5,0,0,0-.7-2.3,7.6,7.6,0,0,0-1.1-1.9,1.6,1.6,0,0,0-1.4-.7,2.9,2.9,0,0,0-1.7,1.6A23.4,23.4,0,0,0,371,237q-0.8,1.9-1.3,3.7a9.6,9.6,0,0,0-.5,2.6A4.7,4.7,0,0,0,369.8,246Z"/><path class="e" d="M381.4,257l0.6-1.5,1.2-3.5L385,247l2-5.6,1.9-5.5,1.6-4.6,0.5-1.8q0.3-1.2.8-2.5a10.9,10.9,0,0,1,1.1-2.3,2.2,2.2,0,0,1,1.6-1.1h0.2a2.4,2.4,0,0,1,.3.8,4.7,4.7,0,0,1,.2.8l0.4-.5,0.3-.6,0.4-.5,0.4-.3h0.3l0.6,0.5h0.5l0.4-.6,0.3-.6q0,0.3-.1,1.1t0,1.1a11.1,11.1,0,0,1-.6,3l-1.1,2.9-1.1,2.8a10,10,0,0,0-.6,2.8v0.3l0.5,0.5v0.3a3.8,3.8,0,0,1-.3,1.3l-0.7,1.4-0.8,1.3-0.6,1.2-2.1,5.3-2,5.2-1.2,3a10.8,10.8,0,0,1-1.3,2.4,5.2,5.2,0,0,1-1.8,1.6,6.7,6.7,0,0,1-3,.6h-1.4l-0.3-.2v-0.3Z"/><path class="e" d="M394.4,252.8a19.5,19.5,0,0,1,.6-4.5c1.4-5.6,4.9-9.1,9.3-12.5l2-1.6,2.2-1.8a24.7,24.7,0,0,1,5.1-3.5,15.2,15.2,0,0,1,5.2-1.7,5.1,5.1,0,0,1,3.1.8,10,10,0,0,1,2.7,2.4,12.1,12.1,0,0,1,1.8,3.1,6.8,6.8,0,0,1,.6,3c0.1-.6-2.9-0.7-3.5.6-5.5-1.9-7.2-5-11.8.8-1.5,1.9-4.6,5.6-2.2,7.5s5.7,0,7.9,1.8,2.5,4.4,2.6,7a10.9,10.9,0,0,1-1.2,6.3,9.5,9.5,0,0,1-3.1,2.9,16.4,16.4,0,0,1-9.7,2.7,12.6,12.6,0,0,1-9-4.4A13.6,13.6,0,0,1,394.4,252.8Zm9.8-2.1h-0.4a3.8,3.8,0,0,0-3.1,3.2,4.1,4.1,0,0,0,2.2,3.4c2.3,1.5,7.5,3.2,9.4,0s-1.1-5.4-3.6-6.1A11.2,11.2,0,0,0,404.2,250.8Z"/><path class="e" d="M321,238.7c0.3,1.6-1.1,2.9-2.2,4.1s-2,3.1-.8,4.3a10,10,0,0,0,6.7-2.3,6.4,6.4,0,0,0,2-6.5c-1.8-2.1-5.9-1.2-6.6,1.4A0.7,0.7,0,0,0,321,238.7Z"/></svg>