<svg xmlns="http://www.w3.org/2000/svg" width="10000" viewBox="0 0 150 112.5"><defs><style>.a{fill:#1a1617;}.b{fill:#0076a3;}.c{fill:#76895a;}.d{fill:#fff;}.e{fill:#c2333b;}.f{fill:#617c46;}.g{fill:#c3333c;}.h{fill:#f0992f;}</style></defs><title>downtown-athens</title><rect class="a" x="57.1" y="3.6" width="32.8" height="38.18"/><path class="b" d="M0.1,95.2V93.5a0.2,0.2,0,0,1,.1-0.2H1.2V93s0,0,0-.1H0.2a1.1,1.1,0,0,1,.6-0.9l1.4-.8,1.6-.6L4.9,90l0.9-.4L6,89.3V86.8l-0.5-.5-0.5-.2a0.8,0.8,0,0,0-.8.4,3.6,3.6,0,0,0-.2,1v0.7H0v-1H0.4V87.1H0a4.8,4.8,0,0,1,1.7-2.7,4.9,4.9,0,0,1,3.1-.9H5.4a0.1,0.1,0,0,1,0,.2H6.6c-0.1,0-.1-0.1,0-0.1H6.9l-0.2-.2H6.9a3.3,3.3,0,0,1,1.6.4,4.5,4.5,0,0,1,1.2,1l0.4,0.4h0a0.4,0.4,0,0,1-.2.4h-1l-0.4.2H9.7l0.5-.4a0.1,0.1,0,0,0,0,.1h0.1l0.2,0.2v1.3a9.6,9.6,0,0,1,.1,1.1v1.5a0.7,0.7,0,0,0,.1.3,0.7,0.7,0,0,1,.1.3q0,2.1-.1,4.1t0,4.1v0.2H6.4V98.3H6.2l-0.8.7-0.9.6H3.7a6,6,0,0,1-2-.3,2.2,2.2,0,0,1-1.1-.8A3,3,0,0,1,.2,97,14.4,14.4,0,0,1,.1,95.2Zm0.3-7.6h0Zm0.5-.1v0.3l0.2,0.2a0.2,0.2,0,0,0,.2-0.2,0.2,0.2,0,0,0-.1-0.2H0.9Zm0.2,6.9h0Zm0.3-1h0Zm0.2-5.7h0Zm0,3.8h0Zm0.2,2.1a0.1,0.1,0,0,0-.2.2h0l0.2-.2H1.8Zm0.7-1.2-0.2.2L2,92.7,1.8,93H2.3V92.7l0.2-.2H2.5ZM2.2,94.7h0Zm0.2-7.9h0Zm0,9.1h0Zm0.3-2.8h0Zm0.3-1.5h0Zm0,0.4h0Zm0,0.8h0Zm0,2.4h0Zm0.3-2.2h0Zm1,0.5V93.3h0ZM4,97.3H4Zm0.1-3.7h0Zm0.1-10h0ZM4.3,99.1h0Zm0.2-3v0.2H4.8l0.4,0.3H5.6l0.3-.2,0.2-.4V94.2c0-.4,0-0.7,0-1.1a4.4,4.4,0,0,0-.1-1.1H6.1l-0.5.3-0.4.5L4.5,93.9a1.9,1.9,0,0,1,.1.7c0,0.2,0,.5,0,0.7v0.8ZM4.6,86h0Zm1.1-2.7h0ZM6.1,97.6h0Zm0.3-7.1h0Zm0.1-4.1h0ZM6.6,98.6h0ZM6.7,83.9h0ZM6.9,97.4h0ZM7.1,83.7h0Zm0.2,2.6h0Zm0.2-2.5h0Zm0,2.7h0Zm0,4.4h0Zm0.4,6.7c-0.1,0-.2.1-0.2,0.2h0c0.1,0,.2-0.1.2-0.2h0Zm-0.1-7h0Zm0.1,0.1h0ZM8.5,98h0ZM8.6,91h0Zm0.1,2.2h0Zm0.1-6.7h0Zm0,10.9h0ZM9,94.4H9.2V94.1A0.3,0.3,0,0,0,9,94.4Zm0.1-.6h0Zm0.2-.5h0ZM10,86.6h0Zm0,6.7v0.2h0.2V93.4H10Zm0.6-2.2h0Z"/><path class="b" d="M18.4,98.8l-0.2.2v0.2H17.8a2,2,0,0,1-1.3-.4,3.9,3.9,0,0,1-.8-1c0-.3-0.1-0.5-0.1-0.7V96.5c0-.2,0-0.4,0-0.6V94h0.1a0.3,0.3,0,0,0-.2-0.3V92.7h0.1V92.5H15.5V90.4h0.6V90a0.3,0.3,0,0,0-.3-0.3H15.4V89.2a0.8,0.8,0,0,0-.2-0.4V86.6H14.4V84.6H14.4V84.1h1V81.7h4.7v1.9H20l0.2,0.4h0.4l-0.5.2a0.4,0.4,0,0,0,.3.4h0.9a0.4,0.4,0,0,1-.1.3H20.8l0.4,0.2H21.1v0.2h0.3v0.3h-1l-0.4.2a0.4,0.4,0,0,0-.2.4h0.3V95l-0.6.4H20c0.1,0,.2.1,0.2,0.3a0.5,0.5,0,0,1-.1.3H19.8a0.3,0.3,0,0,1,.4.1,0.5,0.5,0,0,1,.1.4h1.3a2.6,2.6,0,0,1,.1.6c0,0.2,0,.4,0,0.6a1.2,1.2,0,0,1-.8-0.3l-0.6-.5H19.8l0.5,0.4L20.9,98l0.5,0.4a0.8,0.8,0,0,1,.2.6v0.3H18.7L18.4,99A0.2,0.2,0,0,1,18.4,98.8ZM14.6,85.6h0Zm0.5-1.2h0Zm0.3,6h0Zm0.2-1.3h0Zm0,0.2h0Zm0.1,0.6h0Zm0,4h0Zm0-3.5h0Zm0.1,7.3h0ZM16,83.3h0Zm0.1,6.9h0Zm0.1-.3h0.3l-0.2-.2H16.3Zm0.1,6.3h0Zm0.1-5.7h0Zm0.1-7.9h0Zm0,1.7h0Zm0,4.3h0Zm0.2,0.5h0Zm0,0.7a0.2,0.2,0,0,0,.1-0.2H16.8v0.2ZM17,82.8h0Zm0,0.4h0Zm0,5.8h0Zm0,5.3h0Zm0.1-4.6h0Zm0.9-.5H17.6l-0.2.2h0.7V89.3H18Zm-0.4-4.9h0Zm0.1,11h0ZM17.8,96h0.1a0.2,0.2,0,0,0-.1-0.2V96Zm0.1-13h0Zm0.1-.8h0Zm0,13.4h0Zm0-.6h0Zm0.1-8.7h0Zm0,10.3h0Zm0.1-14.3h0Zm0.2,16.1V98l-0.2.2h0.2ZM18.3,82.4a0.5,0.5,0,0,0,.2.3L18.8,83a0.4,0.4,0,0,0-.2-0.4l-0.3-.2h0Zm0.1,3.2h0Zm0,0.7h0Zm0,8.3h0Zm0,4.5h0Zm0.1-9.9h0Zm0,5.7h0Zm0.1,0.4h0.5a0.2,0.2,0,0,0-.1-0.2,0.3,0.3,0,0,0,.1-0.3A0.4,0.4,0,0,0,18.6,95.4Zm0.1-1.8h0ZM18.9,83h0ZM19,83.9h0Zm0,4.5h0Zm0,8.1h0Zm0.1-13.2h0Zm0.1,13.8h0Zm0.1-9.6h0Zm0,3.6h0Zm0.1,4.1h0Zm-0.1-12v0.2a0.2,0.2,0,0,1,.1.2,0.4,0.4,0,0,0,.4-0.3H19.4ZM19.4,84h0Zm0,14.7h0Zm0.1-15.8h0Zm0,7.9h0Zm0,5.2h0Zm0,0.9h0Zm0.1-12.7a2.7,2.7,0,0,0,0,.3v0.3H20a0.3,0.3,0,0,0-.1-0.3H19.7Zm0.2,10.6h0Zm0.2-7.9h0Zm0.1-1.5h0Zm0.2,0.1h0.4l-0.3-.2H20.4Zm0.1,12.6h0Zm0.2-13.1h0Zm0,13.4h0Zm0.1-12.5h0ZM21.3,86h0Z"/><path class="b" d="M25.4,99V98.2l0.3,0.3h0.1a1.3,1.3,0,0,0,0-.3H25.4a0.7,0.7,0,0,1-.1-0.4,5.2,5.2,0,0,1,0-.6,5.6,5.6,0,0,1,0-.6,4.9,4.9,0,0,0,0-.5,2.4,2.4,0,0,1,.1-0.5,2.1,2.1,0,0,0,.1-0.5V90.3h0V85.6l0.6,0.2,0.6,0.2c0.1,0,.2-0.1.2-0.2l-0.2-.2L26,85.6l-0.5-.2a0.3,0.3,0,0,1-.2-0.3h0.1V84.8a0.6,0.6,0,0,0-.2-0.4V82.5c0-.1,0-3.7.1-3.9a4.9,4.9,0,0,0,0-.6,0.3,0.3,0,0,1,0-.3h0.6a5.5,5.5,0,0,0,2.2-.5l1-.6,0.5-.3H30a0.4,0.4,0,0,1,0,.3c0,0.4,0,.8,0,1.3a2,2,0,0,0,0,.3v5.7H29.9a0.5,0.5,0,0,0,0,.3h0.2l0.5-.2,0.4-.3,0.8-.3h1.3l0.3,0.2h0.4l0.3,0.2h0.3v0.2h0.4a0.9,0.9,0,0,1,.8.5l0.5,0.9a8.8,8.8,0,0,1,.2,1.8v3.7H36.3v0.6a2.7,2.7,0,0,1,0,.4,0.3,0.3,0,0,1-.2.3l0.2,0.2v6.2h0.1v0.4H31.7V90.5l0.2-.3-0.2-.5V87.2a3.1,3.1,0,0,0-.1-0.6l-0.3-.5L30.7,86l-0.5.2a1.4,1.4,0,0,0-.2.5,2.9,2.9,0,0,0-.1.6v0.5H29.8a0.4,0.4,0,0,1,.2.4v1.7H29.9v0.2h0V91H30v4.3H30v0.4c0,0.2,0,.4,0,0.7s0,0.5,0,.7v0.4a1.3,1.3,0,0,1-.1.5,1.3,1.3,0,0,0-.1.5v0.2H25.8V98.7Zm0.1-21.3h0Zm0.2,6.1h0Zm-0.1,14h0Zm0,1.2h0Zm0.2-4.2h0Zm0.2-12h0Zm0,12h0ZM26.1,85h0Zm0,13.9h0.1V98.5H26.1V99Zm0.1-6.8h0Zm0.2,0.2h0Zm0.2-14.1h0Zm-0.2,19h0Zm0.2-5.4h0ZM26.6,77.4h0Zm-0.2,11c0.3,0,.4.1,0.4,0.3H27V88.4H26.9a0.2,0.2,0,0,0,.1-0.2V88H26.8v0.4A0.2,0.2,0,0,1,26.4,88.4Zm0.1,1.3h0Zm-0.1,1.1c0.1,0,.2-0.1.2-0.2s-0.1-.2-0.2-0.2v0.3Zm0.1,0.4V91H26.5Zm0,0.3h0Zm0,2.2h0Zm0,3.3h0Zm0.8-7.9H26.9l-0.4.2h0.7a0.4,0.4,0,0,0,.3-0.3H27.3Zm-0.7,1.1h0Zm0-1.3h0Zm0,3.2h0Zm0,2.2h0Zm0.4-16.1h0Zm1.4,1.9h0Zm-1.8,9h0Zm0,4.9h0Zm0.1-7.7h0Zm-0.1.7h0.8V86.9H27.5a0.2,0.2,0,0,0-.3-0.2H27A0.2,0.2,0,0,0,26.8,87Zm0.1,7.5h0Zm0-7h0Zm-0.1-4.9h0Zm-0.2-2.2h0ZM27,86.9h0Zm0,9.7h0ZM26.9,83.2h0Zm0.2,2.6h0Zm0,8.8h0Zm0,0.7h0Zm0.1-8.8h0Zm0,4.1h0Zm-0.1,2.1,0.2,0.2h0.3V92.7H27.1Zm0.1-2.5h0Zm0,4.5h0Zm0,0.6h0Zm0.1-4.7h0Zm0,1.6h0Zm0,2.3h0Zm0.1-8.8H27.3a0.1,0.1,0,0,0,0,.1h0.1A0.1,0.1,0,0,0,27.4,85.8Zm0.2-2.6h0Zm0.2,6-0.3.2,0.3-.2H27.8Zm-0.2,3.3h0Zm0.7-14.2h0Zm-0.5,4.5h0Zm-0.1,2.9h0Zm0,6.3h0Zm0.1-4.6h0.9l-0.3-.3H27.8Zm0.1,5.3h0ZM28,99h0Zm0-7a0.2,0.2,0,0,0,.1.2l0.2-.2V91.7H28.1A0.3,0.3,0,0,0,28,92Zm0.2-7.2s-0.1,0-.1.1,0,0.1.1,0.1A0.1,0.1,0,0,0,28.3,84.8Zm0,3.3h0Zm0,2.2h0Zm0,8h0Zm0.1-1.7h0Zm0.1,1.6h0Zm0.1-6.2V91.9h0Zm0,4.6h0Zm0,1.9h0Zm0.1-13.8H28.6a0.1,0.1,0,0,0,0,.1h0.1A0.1,0.1,0,0,0,28.7,84.8Zm0.2-.2h0Zm-0.1,2.9a0.2,0.2,0,0,0,.3.2H28.8Zm0.1,1.5h0Zm0,2.7h0Zm0,0.5h0ZM29,82.5h0ZM28.9,95h0Zm0.2,0.8a0.3,0.3,0,0,0-.2.3h0a0.3,0.3,0,0,0,.2-0.3h0ZM29,98.4h0ZM29.2,77v0.2h0V77h0Zm0,13.5h0Zm0,8.3h0.1v0Zm0.1-16.2h0Zm0,0.6h0Zm0,7.8h0Zm0.2,7.9H29.3a0.1,0.1,0,0,0,0,.1h0.1A0.1,0.1,0,0,0,29.4,98.8ZM29.3,82.9h0Zm-1-1h0Zm-0.4-.1h0Zm0-1.3h0Zm-0.2.5a0.4,0.4,0,0,0-.4.2h0.4V81Zm1.2-1.9,0.3-.2H28.9v0.2Zm0.6,9.7h0Zm0,1.2h0Zm0,0.6h0Zm0.1,7.8h0Zm0-21.6h0Zm-3.4,2.8h0Zm3.4,13.7h0Zm0,1.8h0Zm0-6h0Zm0.1-2.5h0Zm0.1-2.3h0Zm0,4.1h0Zm0,6.1h0Zm0,2.4h0Zm0.1,0.7h0Zm2.3-10.3h0Zm0,3.1h0.1v0Zm0.1-6.2h0Zm0-.4h0v0.2Zm0.1,5.7v0.3h0.3Zm0.4,9.2h0ZM33,89.3h0Zm0.2-5.6h0Zm0,7.5h0Zm0.2-1a0.2,0.2,0,0,0,.1.2h0.7l0.3-.2V89.7l-0.2.2H33.2v0.5h0.2Zm-0.1-6.5h0Zm0.1,5.7h0ZM33.5,90h0Zm0,7.9h0Zm0.1-14.2h0Zm0.1,4.7h0Zm0,1.2h0Zm0.2,0.7h0Zm-0.1-6h0Zm0.3,6.4h0Zm-0.1.5h0Zm0-.8h0Zm0.2-1h0Zm0,1.5h0Zm0.1-.5h0.5l-0.2-.2ZM34.6,91h0Zm0.1-7.1h0Zm0,5.6h0Zm0,7h0Zm0.1-6.6h0ZM34.8,91L35,91.3l0.4,0.2a0.4,0.4,0,0,0-.2-0.4H34.8Zm0.1,5.5h0Zm0.1-4.9h0ZM35.2,97h0Zm0-6.3h0Zm0.1-1.4h0Zm0,8.1h0Zm0.1-7.1h0Zm0,1.6h0Zm0.1-1.2h0Zm0,0.9h0Zm0.1-5.9h0Zm0.1,1.7h0Zm0,10.9h0ZM36.1,97h0Z"/><path class="b" d="M44.5,98.7H43l-0.3-.2L42,98.1H41.5l-0.7-.7L40.3,96a4.5,4.5,0,0,1-.2-1,9.3,9.3,0,0,1-.1-1,5.9,5.9,0,0,1,0-.8,5.9,5.9,0,0,0,0-.8v-1c0-.1,0-0.3,0-0.6s0-.5,0-0.7,0-.5,0-0.8h0.4l-0.3-.3v-2a4.3,4.3,0,0,1,.1-0.8,3.1,3.1,0,0,1,.3-0.8l0.5-.6H40.8l0.4-.3H43L42.8,84V83.5a0.2,0.2,0,0,1,.3-0.3H43l0.3,0.3h1V83.4h0.2V84a0.2,0.2,0,0,1-.1.2h0.4c0.1,0,.1.1,0.1,0.2s0,0.2.1,0.2,0.2-.1.2-0.2a0.8,0.8,0,0,0-.1-0.4,0.8,0.8,0,0,1-.1-0.4V83.2h0.6l-0.3-.3h0c0-.1.1-0.2,0.3-0.2h0.9l0.5,0.3,0.5,0.3h0.4a0.9,0.9,0,0,1,.8.2l0.7,0.8,0.5,1,0.3,0.8a8,8,0,0,1,.2,1.6c0,0.6,0,1.1,0,1.6V91l-0.6.2H46.5V90.4H46.3l-0.2.3-0.2.3H45.8V90.9H44.3l-0.2.2h0.2v0.6c0,0.1,0,.3,0,0.6v1.8c0,0.3,0,.5,0,0.6v1l0.2,0.4h0.4l0.4-.2,0.2-.4v-3L46.4,93l0.2,0.3V93.1a0.6,0.6,0,0,0-.1-0.4,0.6,0.6,0,0,1-.1-0.4H50v0.2h0.3v0.2a1.5,1.5,0,0,0,0,.2,0.5,0.5,0,0,0,.1.4v0.6a5.2,5.2,0,0,1-.5,2.3,5.4,5.4,0,0,1-1.5,1.8l-0.3.4a0.6,0.6,0,0,1-.5.2H47.4l-0.4.3H44.6V98.5Zm-3.2-4.8h0Zm0.2-4.5h0Zm0.4-5.4h0Zm-0.2,3.5h0ZM42.4,84h0Zm0.4,1.9h0Zm0.6,1h0Zm0,3.8a0.2,0.2,0,0,0,.1.2h0.1l-0.2-.2h0ZM44,84.1h0Zm-0.2,7.7h0Zm0.5-8h0Zm0,4.3a0.6,0.6,0,0,0,.3.5h1.2a0.5,0.5,0,0,0,.3-0.5h0V87.2a5.4,5.4,0,0,1,0-.6,1.8,1.8,0,0,0-.1-0.5l-0.2-.4H45.1a0.4,0.4,0,0,0-.4.3,3.2,3.2,0,0,0-.2.7V88Zm0.4-4.6h0Zm0.7,6h0ZM45.3,89h0Zm0.2-4.8h0ZM45.9,90a0.6,0.6,0,0,1-.1.4l-0.3.2h0.1l0.3-.2a0.8,0.8,0,0,0,.2-0.4H45.9Zm-0.3-5.5h0Zm0.1,4.9h0Zm0.1-4.8h0Zm0.2,0.7a0.2,0.2,0,0,0-.1.2h0.1V85.3Zm0.1,11.9a0.7,0.7,0,0,0,.1.3l0.2,0.3,0.4-.2-0.3-.2a0.3,0.3,0,0,1-.2-0.3H46.1Zm0.1-12.9a0.2,0.2,0,0,0,.2.2A0.2,0.2,0,0,0,46.2,84.3Zm0.2,1.8h0Zm0.2-2.6h0Zm0,1.5h0Zm0.1-.9h0ZM47,93.8a0.3,0.3,0,0,0-.3.4H47V93.8Zm-0.3,3.1h0ZM46.8,95h0Zm0-8.4h0Zm0.6,3.2H47.3v0.2h0.2V89.8ZM48,94H47.7l-0.2.2,0.5-.2V94Zm-0.4,1.1h0.3a1.4,1.4,0,0,0,0-.2V94.9Zm0.2-5.3h1.4a0.3,0.3,0,0,0,.2-0.3,0.1,0.1,0,0,0-.2-0.2H49.2l-0.2.2H48Zm0.3,6.5h0ZM48.2,84h0Zm0.4,9.9h0Zm0,0.4h0Zm0.1-9.9h0Zm0.5,1.5h0Zm0.2,9.4h0Zm0.2-5.8h0Zm-0.2,3.9,0.2,0.2v0.2c0.1,0,.2-0.1.2-0.2h0V93.2Z"/><path class="b" d="M60.3,97.3V95.5l0.2-.2h0.1V95.2a0.6,0.6,0,0,0-.3-0.5,0.7,0.7,0,0,1-.3-0.5h0.1V93.6a1.7,1.7,0,0,1,0-.4,1.7,1.7,0,0,0,0-.5c0-.2,0-0.3,0-0.4V88.8c0-.2,0-0.4,0-0.6V86.7a3.2,3.2,0,0,0-.1-0.6l-0.3-.4-0.5-.2H59.1a0.9,0.9,0,0,0-.2.6,1.4,1.4,0,0,1-.2.7v5.2H57.8l0.4,0.2h0.4a4.3,4.3,0,0,1,0,.4v0.4L58.2,93l-0.3-.3v0.3l0.2,0.3,0.2,0.4v0.3h0.1v4.4H56.4a0.5,0.5,0,0,1-.4-0.3L55.8,98l-0.5.2-0.5.2H54.3V98H54.1V96.8q0-.6,0-1.2c0-.4,0-0.8,0-1.2a1.5,1.5,0,0,0,0-.4,2,2,0,0,1,0-.5V93.2l0.3-.3H54.2V92.6a0.2,0.2,0,0,1,.3-0.3h3.3V92.4H57.2a0.3,0.3,0,0,1-.1-0.3l-0.2.3H56.5c-0.1,0-.2-0.1-0.1-0.2h0.3V91.9H54.1a0.6,0.6,0,0,1,.1-0.3c0.1-.1.2-0.2,0.3-0.1V91.3a0.2,0.2,0,0,0-.3-0.2H54.2v0.3a1.8,1.8,0,0,1-.1-0.5V86.2h0.1V85.5c0-.3,0-0.6,0-1s0-.7,0-1V83.2h4.5l-0.2.2a0.5,0.5,0,0,1,.2.4v0.4l0.4-.3,0.5-.3v0.2h0.3V83.5h1.2l0.4-.3H62a2.6,2.6,0,0,1,1.5.4,4.2,4.2,0,0,1,1,1.1l0.2,0.2,0.2,0.2h0l-0.6.7h0a0.9,0.9,0,0,0,.1.4L64.6,87l0.2,0.4a0.9,0.9,0,0,1,.1.4,0.8,0.8,0,0,1-.1.4,0.8,0.8,0,0,0-.1.4,0.2,0.2,0,0,0,.1.2,0.3,0.3,0,0,1,.1.3,3.1,3.1,0,0,1,0,.4,0.3,0.3,0,0,1-.3.3H65v3.7H64.7a0.5,0.5,0,0,0,0,.3h0.2v4.3H61.2a0.8,0.8,0,0,1-.8-0.4A3.4,3.4,0,0,1,60.3,97.3Zm-5.3.6H54.6l-0.3.3h0.4l0.3-.3H54.9Zm-0.4-3.4h0Zm0-4.5h0Zm0,4.8a0.2,0.2,0,0,0,.2.2V94.8H54.5Zm0.1-5h0Zm0.2,2.4h0Zm-0.1-1.6h0Zm0.2,3.5h0Zm0.1-4a0.3,0.3,0,0,0,.2-0.3v0.3Zm0.1-.8h0Zm0,2h0Zm0.3,1.3h0Zm-0.2,1.9h0Zm0-10h0Zm0,13.5h0Zm0.1-6.8h0Zm0.1-7.5h0Zm0.1,13.7a0.2,0.2,0,0,0-.2.3h0.2V97.4Zm0-3.6h0Zm0.2-4.5a0.5,0.5,0,0,0-.3.4h0.2V89.4h0Zm-0.1,1.3V91h0V90.7h0Zm0-1.6h0Zm0,0.2h0Zm0,0.7h0Zm0.1-3.4h0Zm0,11.3h0Zm0.1-3.1h0ZM56,97.2H55.9a0.1,0.1,0,0,0,0,.1H56A0.1,0.1,0,0,0,56,97.2Zm0.5-8.1h0Zm-0.4,3h0Zm0.1,2h0Zm0.3-5.6h0Zm-0.2,8.2h0v0.2Zm0.4-3.2-0.2.2v0.5h0.4a0.3,0.3,0,0,1-.1-0.3V93.5Zm0.2-4.9-0.3.6a1.7,1.7,0,0,0-.2.6h0l0.3-.2,0.3-.2c-0.1,0-.2-0.1-0.2-0.2h1.3a0.3,0.3,0,0,0,.2-0.3H57V88.7ZM57,96.5h0Zm0,0.4h0Zm0.2,0.3h0Zm0.1-12.5h0Zm0.2,11h0Zm0.1-3.7h0Zm0.1,3.5h0Zm0.1-11.3h0Zm0.2,11.6h0Zm0.3-.7-0.3.2a0.6,0.6,0,0,0-.1.3h0.2l0.3-.5H58.2ZM57.9,83.7h0ZM58,91h0Zm0,3.5h0Zm0.1,1.4v0.4a0.2,0.2,0,0,0,.1-0.2A0.2,0.2,0,0,0,58.2,95.9Zm2.2-1.1h0Zm0.1,3.2h0Zm0.1-15h0Zm0,10.5h0Zm0,2.5h0.1v0ZM60.7,94h0Zm0.1-2.4h0Zm0-1.6h0Zm0,6.3h0Zm0.1-2.5h0ZM61,82.9h0Zm0.2,10.2h0Zm-0.1.9h0Zm0,1.7a0.3,0.3,0,0,0,0,.3h0.2c0.1,0,.2-0.1.2-0.2H61.1Zm0.2-1.1h0Zm-0.1.3h0Zm0.1-3.8h0Zm0.2,0.6h0Zm-0.1-8.3h0Zm0.2,7.9h0Zm0,2.1h0Zm0.1,0.1h0Zm0,0.8h0Zm0,0.6h0Zm0.3-4.6a0.2,0.2,0,0,0-.2.2A0.2,0.2,0,0,0,62.1,90.3ZM62,94.5h0Zm0-2.2h0v0.3Zm0.5-1.9-0.4.3h0.3A0.2,0.2,0,0,0,62.5,90.4Zm-0.2-6.5h0Zm0.2,7.6V91.3H62.5Zm0.1-1.1h0Zm0,1.7h0Zm0.4-1.8h0Zm0-5.4v0.3h0.2a0.6,0.6,0,0,0-.2-0.4H63.1Zm0.1,1.4h0Zm0.1,5h0ZM63.8,85l-0.3.4a0.8,0.8,0,0,0-.1.4v0.2l0.3-.4a0.5,0.5,0,0,1,.5-0.2H64.1Zm-0.4,5.5c0,0.1.1,0.2,0.2,0.2h0.1l-0.3-.2h0Zm0.1,3.6h0.1c0.1,0,.2-0.1.2-0.2Zm0.1-9.5h0Zm0,1.2h0Zm0,9.1h0Zm0.1-2.3h0Zm0.1,0.8c0,0.3.1,0.4,0.3,0.4V93.5H63.8ZM63.8,90h0Zm0.1-4.2h0a0.2,0.2,0,0,0,.2-0.2H63.9ZM64,90.9h0Zm0.1,3.6h0Zm0.2-9.3c-0.1,0-.2.1-0.2,0.2h0.3C64.5,85.2,64.4,85.1,64.3,85.1Zm-0.1-.5h0ZM64.3,90h0Zm0.3-3.7h0Z"/><path class="b" d="M73.4,98.7H72a6,6,0,0,1-2-.6,2.9,2.9,0,0,1-1.4-1.6V93.6h0.1V93.4h4q0,0.3,0,.8a4.5,4.5,0,0,0,.1.9,1.9,1.9,0,0,0,.3.8,0.8,0.8,0,0,0,.7.3l0.4-.2,0.2-.4V95.2c0-.2,0-0.3,0-0.4a1.7,1.7,0,0,0-.1-0.6,1.1,1.1,0,0,1,0-.6H74.3c0.1-.1,0-0.2-0.1-0.3l-0.5-.4-0.6-.3-0.3-.2-0.3-.3L72.1,92H71.4l-1-.6-0.9-.8a4.3,4.3,0,0,1-.6-1,2.8,2.8,0,0,1-.2-1.2,13,13,0,0,1,.1-2.1,3.7,3.7,0,0,1,.6-1.5,3.2,3.2,0,0,1,1.2-1,7.3,7.3,0,0,1,2-.6h1.1l1.7,0.2,1.6,0.6A3.3,3.3,0,0,1,78,84.7a2.9,2.9,0,0,1,.4,1.7v0.8h0v0.3H74.8a0.4,0.4,0,0,1-.4-0.3l-0.2-.4V85.9l-0.3-.3H73.5l-0.4.2-0.2.4v0.5l-0.2.4h0.1a1.8,1.8,0,0,0,.4,1.1L74,88.9l1.2,0.6,1.3,0.6,1.2,0.8a3.1,3.1,0,0,1,.8,1.1v4a1.8,1.8,0,0,1-.3,1.1l-0.8.8H77.2a0.3,0.3,0,0,0,0,.2H77.2l-1.3.6H73.5A0.2,0.2,0,0,1,73.4,98.7Zm-4.1-3.5h0Zm0.3,0.6h0Zm0.1-6h0Zm0.3-.2h0Zm0,1h0Zm0.1,5.1h0Zm0.1-4.9h0Zm0.1,0.1h0Zm0.3,7.2h0ZM70.7,89h0Zm0.1,1.4h0Zm0,6.6h0Zm0.4,1.1h0Zm-0.1-2.9V95H71.2v0.2Zm0.1-4.9h0Zm0.3,4.9h0Zm0-8.2h0Zm0.3-2.9h0ZM72,86.6h0Zm0.1-.6h0Zm0,10.3h0Zm0.1,0.1h0Zm0.6-12h0Zm0.2,13.3h0Zm0.1-1.3h0Zm0.3,2.3h0Zm0.8-10.7h0Zm0,9.6h0ZM74.6,88h0Zm0,10.3h0ZM75.1,94h0Zm0.2,2.8h0Zm1-3.1L77,93.8l0.7,0.2h0.1V93.7h0a1.1,1.1,0,0,1,.1-0.4,1.2,1.2,0,0,0,.1-0.4H77.6v0.2l-0.2-.3H76.1a1.1,1.1,0,0,1-.6.5v0.3h0.8Zm-0.4.3h0ZM76.1,96h0Zm0-1.8h0Zm0.2-10h0Zm0.1,0.1h0Zm0.1,6.1h0Zm0.1,3.8h0Zm0-10.2h0Zm0.1,9.4h0ZM78,94.3h0Zm0.4-1.1h0Z"/><path class="b" d="M148.8,45c0.8-1.1.6-2.8,0.6-4.1s-0.1-4.8-.2-7.2,0-3.5,0-5.2a14.9,14.9,0,0,1-.1-3.3,10.9,10.9,0,0,0,.6-2.9c0-3,0-6.1,0-9.1s0.2-5.4.2-8,0-3.5-1.5-3.9a15.4,15.4,0,0,0-4.3-.3c-2.1,0-4.1-.4-6.2-0.4-7.1-.1-14.2.2-21.2,0.2-2.8,0-5.5.2-8.3,0.3-1,0-2.8-.5-3.6.1S104.3,3,104,3.7c-1.2,3.6-.7,7.4-1.1,11.1s0.2,9.5-.1,14.2a85.9,85.9,0,0,0-.2,9.3,53,53,0,0,1-.5,6.5c0.9,1.3,2.2,1.4,3.9,1.4l4.8-.2a36.8,36.8,0,0,1,7.5.4c3,0.5,6.4.1,9.4,0.1s6.4,0.3,9.4.2,4.9-.4,7.4-0.4S147.9,46.5,148.8,45Z"/><path class="c" d="M45.6,45.6c-0.9.7-2.2,0.4-3.8,0.4-5.1.1-9.9,1.2-15,1.2H13.1c-2.9,0-7.8,1.2-10.3-.6S1.2,38.1,1.2,35.4c-0.1-7.1.2-14.2,0.2-21.2q0-3.8,0-7.6c0-1.6-.5-4.5.7-5.7A1.4,1.4,0,0,1,3.4.5c4-.3,7.9.2,11.9-0.1S24.8,0.5,29.5.2A84.4,84.4,0,0,1,43.6.4c0.8,0.1,2.9-.1,3.5.7s0,4.3,0,5.7,0,3.6,0,5.3v13c0,3.1.3,6.4,0.2,9.4s0.1,6.9-.8,9.8A2.5,2.5,0,0,1,45.6,45.6Z"/><path class="d" d="M13.3,14.9A12.8,12.8,0,0,1,16,13.3l1.8-1,3.9-2c1.6-.9,3.3-1.6,4.8-2.7s4-3.2,3.5-.5a35.2,35.2,0,0,0-.2,6.7c0,3.6-.4,7.1-0.6,10.7s0,6.6-.4,9.8,0.3,4.3.3,6.4c0,0.5-.1,1-0.1,1.6l-4.1.2a36.7,36.7,0,0,1-5.3-.6,20.7,20.7,0,0,0-4.9.1c-0.9.1-3.6,0.8-4.2-.1s0.3-2.1.4-2.9,0-2.7.1-4a65.1,65.1,0,0,1,1.1-7.5c0.5-2.4.2-4.7,0.6-7.1s-0.3-4,.3-5.2Z"/><path class="d" d="M17.1,13.6c-0.3-2.6,1.6-5.2,2.2-5.9a6.8,6.8,0,0,1,2.3-1.9c0.9-.3,2.1.4,2.9,0.9a2.1,2.1,0,0,1,.8,1.5,4.6,4.6,0,0,0,.4,1.2l0.5-.3a4.2,4.2,0,0,1-.3-1,2.6,2.6,0,0,0-.4-1l-0.5-.6-0.7-.6a3.1,3.1,0,0,0-2.1-.5,2.7,2.7,0,0,0-1.7.6l-0.7.8-0.5.4c-0.4.4-.6,0.9-1,1.2a4.2,4.2,0,0,0-.8,1.3,7.4,7.4,0,0,0-.9,3.6v0.4h0.5Z"/><path class="e" d="M98.4,2C96.6-.4,89.8.4,87.2,0.4,80.1,0.3,73,.5,65.9.5H58.4c-1.6,0-4.5-.5-5.7.7a1.4,1.4,0,0,0-.4,1.4c-0.3,4,.2,7.9-0.1,11.9s0.2,9.5-.1,14.2a84.4,84.4,0,0,0,.2,14.1c0.1,0.8-.1,2.9.7,3.5s4.3,0,5.7,0H69c1.5,0,2.8.4,4.3,0.5s4.8-.5,7.2-0.7,3.8,0.5,5.8.4,6.9,0.1,9.8-.8a2.5,2.5,0,0,0,1.2-.7c0.7-.9.4-2.2,0.4-3.8,0.1-5.1,1.2-9.9,1.2-15V12.3C98.9,9.5,100.1,4.5,98.4,2ZM63,13.8c0.1-.9.2-1.5,1.2-1.5a0.6,0.6,0,0,1,.5.6c0,0.4,0,.6.4,0.7l1,0.2a1,1,0,0,1,.7,0,2.3,2.3,0,0,1,.2,1.1,6.3,6.3,0,0,0,.1.9c-0.2.2-.1,0.2-0.3,0.1l-0.5-.2H65.5a1.1,1.1,0,0,0-1.2.7c-0.2.4-.5,0.3-0.8,0.2S62.9,14.7,63,13.8Zm0.5,5.6c0.1-.9.2-1.5,1.2-1.5s0.5,0.4.5,0.8a0.6,0.6,0,0,0,.6.6c0.5,0.1,1.3-.2,1.8.2a1.2,1.2,0,0,1,.2.9c0,0.3.4,1.3-.2,1.2a3.5,3.5,0,0,1-.8-0.4H65.3a2.8,2.8,0,0,0-.5.8c-0.2.4-.5,0.3-0.8,0.2S63.3,20.3,63.4,19.4Zm3.9,7.3H65.9c-0.5,0-.5.2-0.7,0.6s-0.5.3-.8,0.2-0.6-1.9-.5-2.8S64,23.3,65,23.3s0.2,1.3.8,1.5a3.2,3.2,0,0,0,1,0h0.7c0.3,0.1.2,0.2,0.3,0.6a12.4,12.4,0,0,1,.2,1.3C68,27.2,67.6,26.8,67.3,26.7Zm15-.1c-0.1.5-.3,0.9-0.3,1.4s0.1,1.3.1,1.9-2.1,1.5-2.8,2.4a2.2,2.2,0,0,0-.4,1.1c-0.1.8,0,1.6-.1,2.3a10.7,10.7,0,0,0-.2,2.1c0,0.9.2,1.8-.8,2.1a6.7,6.7,0,0,1-5-.3c-1.4-.8-1-3.2-1-4.5s0.6-2.9-1.2-3.6-1.7-.8-1.8-1.7a10.3,10.3,0,0,0-.1-2.4,17.7,17.7,0,0,1-.4-2.7c-0.2-1.9-.2-3.9-0.3-5.8s-0.2-2.5-.4-3.7-0.1-1.1-.2-1.6-0.2-2.7-.4-4.1A2.5,2.5,0,0,1,68,6.9c1.1-.7,2.1.1,3.2,0.1a4.4,4.4,0,0,0,2-.8,4,4,0,0,1,2.1-.6l1.1,0.2a9.2,9.2,0,0,0,1.5.7,17.3,17.3,0,0,0,1.8.5c1.1,0,2.1-.8,3.2-0.1a2.6,2.6,0,0,1,.8,2.6c-0.2,1.9-.3,3.8-0.5,5.7a11.3,11.3,0,0,0-.1,1.6,6.1,6.1,0,0,1-.3,1.8,20.1,20.1,0,0,0-.3,3.7c0,1-.3,1.9-0.3,2.9A5.9,5.9,0,0,1,82.3,26.6Zm4.1,0.9c-0.4.2-.6,0.2-0.8-0.2s-0.2-.6-0.7-0.6H83.5c-0.3.1-.7,0.4-0.7-0.1a12.4,12.4,0,0,1,.2-1.3c0-.3-0.1-0.5.3-0.6H84a3.2,3.2,0,0,0,1,0c0.6-.2-0.1-1.4.8-1.5s1.1,0.6,1.2,1.5S87.3,27.1,86.5,27.5Zm0.7-5.3c-0.4.2-.6,0.2-0.8-0.2a2.8,2.8,0,0,0-.5-0.8H84.5a3.5,3.5,0,0,1-.8.4c-0.6.1-.2-0.8-0.2-1.2a1.2,1.2,0,0,1,.2-0.9c0.5-.4,1.2-0.1,1.8-0.2a0.6,0.6,0,0,0,.6-0.6c0-.4-0.1-0.8.5-0.8s1.1,0.6,1.2,1.5S88,21.8,87.2,22.2Zm0.5-5.6c-0.4.2-.6,0.2-0.8-0.2a1.1,1.1,0,0,0-1.2-.7H84.8l-0.5.2c-0.2,0-.1,0-0.3-0.1a6.2,6.2,0,0,0,.1-0.9,2.3,2.3,0,0,1,.2-1.1,1,1,0,0,1,.7,0l1-.2c0.4-.1.4-0.3,0.4-0.7a0.6,0.6,0,0,1,.5-0.6c1-.1,1.1.6,1.2,1.5S88.4,16.2,87.6,16.6Z"/><path class="d" d="M124,10.2a5.4,5.4,0,0,1,2.6-4.3c1.1-.7,2.9,0,3.6,1.2,2.2,3.3,1.1,7.6-1.5,10-0.7,2.9-.5,6.6-0.6,9.8a73.2,73.2,0,0,0,.3,10c0.1,0.8.2,1.7,0.3,2.5s0.1,1.9-.7,2.5a1.9,1.9,0,0,1-2.6-.7c-0.4-1,0-1.8-.1-2.7a33,33,0,0,1,.2-3.6l0.2-3.6c0.1-2.4.3-4.7,0.3-7.1s0.1-4,.1-6,0-1,0-1.5a0.7,0.7,0,0,0-.4-0.8C123.9,14.7,123.7,12.1,124,10.2Zm5.3-3a1.9,1.9,0,0,0,.3.7,4.6,4.6,0,0,1,.3,1,12.1,12.1,0,0,1,.2,2,5.8,5.8,0,0,1,0,1.2,4.5,4.5,0,0,1-.1.9l-0.3.7c0.6,0,.9-0.9,1-1.3a5.3,5.3,0,0,0,.1-2,6.4,6.4,0,0,0-.2-1.7,3,3,0,0,0-1.1-1.5"/><path class="d" d="M140.3,5.6h-0.2l-0.3.2a3.7,3.7,0,0,0-.8,1.2,21.1,21.1,0,0,0-1.4,4.7,29.4,29.4,0,0,0-.4,9.3c0.2,1.4,1.1,1.9,1.3,2.5a10.8,10.8,0,0,1,.4,4.2,24.1,24.1,0,0,1-.4,2.8,21.6,21.6,0,0,0-.5,3.8,20.6,20.6,0,0,0,.4,3.6c0.2,1,.5,1.8.7,2.8V41l0.4,0.8,0.5,0.5a1.4,1.4,0,0,0,.8.4h0.4a2.3,2.3,0,0,0,.1-1V41.2h0c0-.7,0-1.5,0-2.2s0-.4,0-0.6a3.9,3.9,0,0,0,0-.8,4.1,4.1,0,0,1,0-.5c0-1.2,0-2.4,0-3.6s0-3.8-.1-5.7,0-3.9,0-5.9,0-5.8,0-8.6-0.1-2.8-.2-4.1-0.1-1.3-.2-2a8.9,8.9,0,0,0-.2-1,1.5,1.5,0,0,0-.2-0.5l-0.3-.2"/><path class="d" d="M31.6,8.1V7.8c0.3-.2,3.4,1.7,3.6,1.9s0.2,2.7.2,3.7,0.2,3.1.1,4.6a49.2,49.2,0,0,0,.6,10.2,50.4,50.4,0,0,1,.3,7.3,12.4,12.4,0,0,0,.5,2.7c0.2,0.9-.2,1.9.5,2.8A21.5,21.5,0,0,0,30.9,42c-0.8-.7,0-2.1-0.1-2.9s-0.3-2.7-.2-4.1c0-3,.2-6,0.3-9.1C31.1,20,31.3,14,31.6,8.1Z"/><path class="f" d="M0.7,73l0.2-.2V72.5H0.7V71.5H1.2l0.6-.2h0L1.6,71H0.9l-0.2-.2V68.8l0.2-.3,0.2-.4H0.9l-0.2-.2a1.7,1.7,0,0,1-.1-0.6V65.9c0-.3,0-0.7,0-1.2a12.2,12.2,0,0,1,0-1.6,4.7,4.7,0,0,1,.3-1.4,0.9,0.9,0,0,1,.9-0.6H2.4l-0.2-.3V60.4H0.8V59.8c0-.1,0-0.3,0-0.5V58l0.4-.6H1c-0.1,0-.2-0.1-0.2-0.3V54.8l0.2-.3a1.2,1.2,0,0,0,0-.3V53.9H0.8a2.7,2.7,0,0,1-.1-0.8c0-.3,0-0.6,0-0.8V51.6a2.3,2.3,0,0,1,.1-0.5L1,50.7l0.4-.2H9.9a8.4,8.4,0,0,1,2.2.5,4.6,4.6,0,0,1,1.9,1.3,2.5,2.5,0,0,1,.5,1,3.8,3.8,0,0,0,.4,1v3.4H14.8c0,0.5,0,.9.1,1.4s0.1,0.9.1,1.4v1.9a0.3,0.3,0,0,1-.1.2h0.3V65l-0.3.3h0.1v2.2H14.5V68h0.4v2.4a9.1,9.1,0,0,1-.2,1.8,5.6,5.6,0,0,1-.6,1.6A4,4,0,0,1,13.1,75a4.1,4.1,0,0,1-1.7.7L6.1,76l-5.4.2V73ZM0.8,74h0ZM1,70.2L1.1,70V69.7H1v0.4Zm1.2-1.5h0Zm0.4-8.8h0Zm0,8.7,0.2-.2V68.2H2.5v0.4Zm0.2-8.5,0.2,0.2H3.1V60.1H2.7Zm1.8,2.7H4.2c-0.2,0-.2,0-0.2.2H4.5Zm0.6-.3h0Zm0-8.9h0Zm0,12H5ZM5.2,53.2h0Zm0.3,6.1a0.2,0.2,0,0,0-.3.3A0.2,0.2,0,0,0,5.5,59.3Zm0-7.1v0.2l0.2,0.2V52.1H5.5ZM6.4,64.4q0,1.8.2,3.6t0.2,3.6H7.9l0.6-.2,0.5-.3a0.5,0.5,0,0,0,.2-0.4V67.1l0.2-.3,0.2-.4h0a0.8,0.8,0,0,0-.2-0.4l-0.2-.3V62.8c0-.2,0-0.4,0-0.9s0-.8,0-1.3V59.3c0-.4,0-0.7,0-0.9l0.2-.3,0.2-.3V57.6l0.5-.2q0.2,0,.2-0.5h0l-0.3.3H9.7l-0.4-.2A0.8,0.8,0,0,1,9,56.3a2.9,2.9,0,0,0-.1-0.7A1.1,1.1,0,0,0,8.5,55a1.9,1.9,0,0,0-1.1-.2H6.8q0,0.7-.1,1.8a6,6,0,0,1-.4,1.9H6a0.4,0.4,0,0,0-.3.3H6.2a0.4,0.4,0,0,1,.3.4v4.9ZM6,62.5H6Zm0-9.1H6.3a0.2,0.2,0,0,0,.2-0.2c0-.1-0.1-0.2-0.3-0.2H6v0.5ZM7.6,74.9h0Zm4.7-16.5h0ZM11.8,63h0.8l-0.2-.2H11.8V63Zm0.8,0.2h0Zm0.8,1.8h0Zm0.1-6.8H13.4a0.1,0.1,0,0,0,0,.1h0.1A0.1,0.1,0,0,0,13.6,58.1Zm0.3-.1h0Zm0.1,7h0Z"/><path class="f" d="M16.6,56h0Zm0.1-1.8h0Zm0.1,13.6h0ZM17,76.2h0Zm0-19.6h0Zm0.1,7h0Zm0-1.6h0Zm0,0.3h0Zm0,0.8h0Zm0,2h0Zm0,3.2h0Zm0.1-12.6h0Zm0,2.7h0Zm0,0.5h0Zm0.1,8.9h0Zm0,1.1h0Zm0.7,3.7a1,1,0,0,0-.1-0.6l-0.2-.5a22.5,22.5,0,0,1-.3-2.9q-0.1-1.5-.1-3t0.1-3,0.1-2.8V55.4L18,53.9l0.6-.3H18.3l0.6-.9a1.1,1.1,0,0,1,.8-0.3h0.6l0.2-.2a0.4,0.4,0,0,0,0-.4H20.1a4.6,4.6,0,0,1,1.8-.9l2.1-.2h2.4l0.4,0.2h0.4l0.4,0.2,0.4,0.3H27.9l0.5,0.2,0.5,0.3,0.5,0.4a0.7,0.7,0,0,1,.2.5,0.2,0.2,0,0,1-.1.2h0.3a6,6,0,0,1,.6,1.7,12.9,12.9,0,0,1,.2,1.9q0.1,1,0,1.9t0.1,1.9V71.2a4.4,4.4,0,0,1-.4,1.6,7.7,7.7,0,0,1-1,1.6,6,6,0,0,1-1.4,1.3,3,3,0,0,1-1.6.5H22.9L21.8,76l-1.2-.7-1.1-.9a2.3,2.3,0,0,1-.6-0.9V73.1a0.7,0.7,0,0,0-.1-0.4H18.1ZM17.7,54.1h0Zm0.4-1h0Zm0,19.6h0Zm0.3-3.9h0Zm0.1,4.3h0ZM18.8,52h0ZM19,72.8h0Zm0.3-21.2h0Zm0.4-.3h0Zm0.4-.4h0Zm0.8,24.2h0Zm0.4-6.7h0Zm0-17.9h0Zm0,21.9h0Zm0.1-20.1h0Zm0,23.9h0Zm0.3-7.5h0Zm0,3.2h0Zm0,4.2h0Zm0.1-11.5h0ZM22,72.2h0Zm0.1-20.1h0Zm0.4,18.5h0Zm0,1.7h0Zm0.1-20.6h0Zm0,24.8h0Zm0.1-6.9h0ZM23,76.4h0Zm0.5-4.8,0.2,0.3,0.3,0.3h0.4a0.7,0.7,0,0,0,.6-0.2,1.2,1.2,0,0,0,.3-0.5,3.2,3.2,0,0,0,.1-0.7V66.6h0V64.1q0-.5,0-1.2t-0.1-1.4V59.8H25.1V56.2H25a2.3,2.3,0,0,0,0-.5A2.1,2.1,0,0,0,25,55l-0.3-.5-0.5-.2H24v0.2a2.7,2.7,0,0,0-.5,1.5q0,0.8,0,1.7v0.2h0v1.7Zm-0.2-.5h0Zm0.2-20.5h0Zm0,6.4h0Zm0,2.8h0Zm0-3.2a0.6,0.6,0,0,0,.3-0.5,0.6,0.6,0,0,1,.2-0.5h0.1v0.9H23.5Zm0.3,0.8h0ZM24,69.7h0ZM23.8,55a0.3,0.3,0,0,1,.1-0.3h0.3v0.6H24.1V55H23.8ZM24,71.7h0Zm0,5.1h0Zm0.1-26.6h0Zm0,6.5h0Zm0.1-4.9h0Zm0.3-1.7h0Zm0.1,26.9h0Zm0-21.9h0Zm0.1,2.2h0Zm0.1,7.2h0Zm0.2-2.6v0.4H25.1V61.9h0.1Zm0.2,14.8h0Zm0.4-25.6s-0.1,0-.1.1,0,0.2.1,0.1A0.2,0.2,0,0,0,25.8,51.1ZM25.9,52h0Zm0.3-.3h0Zm0.1,1.9H26.2a0.1,0.1,0,0,0,0,.1h0.1A0.1,0.1,0,0,0,26.3,53.5Zm0.1,0.4h0Zm0.3-.2h0Zm-0.1,18h0Zm0-20.1h0Zm0.1-1.2h0Zm0.1,0.7h0ZM27,55.7h0Zm0.1,1.3h0Zm0.3-5.3h0Zm-0.1,2.8h0.5a0.4,0.4,0,0,0-.2-0.3H27.3v0.4Zm0.1,3.2h0Zm0.3-1h0Zm0.1,4.6h0ZM28,61.4h0Zm0.3,6.1h0Zm0.3-16.7V51a0.2,0.2,0,0,1-.2.2V50.7h0.3Zm-0.2.6h0Zm0,21.5h0Zm0-19.5h0.4a1.2,1.2,0,0,0-.1-0.5Zm0.3-1.8h0Zm0,12.7H28.7v0.3h0.1V64.2Zm0.3-9h0Zm0.3,13.6h0Zm0.3,0.4h0Zm-0.1-8.3h0.1V60.6Zm0.3,0.1h0Zm0,9h0.1a0.3,0.3,0,0,0-.1-0.3v0.3ZM30,61.5s-0.1,0-.1.1,0,0.2.1,0.1A0.2,0.2,0,0,0,30,61.5Zm0.4-3.4H30.1a0.2,0.2,0,0,0-.1.2h0A0.3,0.3,0,0,0,30.4,58.1Zm-0.2-.6h0Zm0,7.7h0Zm0.1,5.1h0Zm0.3-4.8h0Zm0,7.6h0Zm0.1-6.7h0ZM31,56.9h0Zm0,14.3h0Zm0,0.3h0Zm0.1-13.9h0Zm0,2.7h0Zm0,5.5h0Zm0.1-6.1v0h0.1Zm0,8.1h0Zm0.1,0.2h0v0.2A0.4,0.4,0,0,1,31.4,68.1Z"/><path class="f" d="M35.2,74.4a0.3,0.3,0,0,0,.1-0.3,1.2,1.2,0,0,0-.1-0.5,1.2,1.2,0,0,1-.1-0.5V72.8h0.5l0.2,0.2L36.1,73h0.4a0.2,0.2,0,0,0-.1-0.2H36.1a1.3,1.3,0,0,1-.1-0.5H35.4a0.5,0.5,0,0,0-.3-0.4,0.5,0.5,0,0,1-.3-0.5h0V71l0.2,0.2h0.1V70.5l0.2-.4a1,1,0,0,1-.8.4,4.1,4.1,0,0,0-.2-1.2,4,4,0,0,1-.2-1.2V67.6a0.5,0.5,0,0,0,.2-0.4,2.6,2.6,0,0,0,.1-0.5l-0.2-.3a1.2,1.2,0,0,1-.3-0.6q-0.3-2.2-.5-4.3l-0.4-4.4V52.9H33a5.3,5.3,0,0,0,0-.6V51.2h0a0.3,0.3,0,0,1,.1-0.3h3.5l2,0.2c0,0.6.1,1.2,0.1,1.7s0,1.1,0,1.7v1h0.3v1.1l0.2,0.3c0,0.3.1,0.7,0.1,1.4v4.2q0.1,1,.1,1.4v2a0.3,0.3,0,0,1-.3.2l0.2,0.2v0.2a1.2,1.2,0,0,1-.2.8l-0.9.4h0a0.2,0.2,0,0,0,.2.2H39l0.3-.3,0.3-.4v0.8h0.3V67.8a3,3,0,0,0,.1-0.5q0.3-2.7.6-5.3t0.6-5.3a3.4,3.4,0,0,0,0-.6,3.8,3.8,0,0,1,0-.7,2.3,2.3,0,0,1,.2-0.7,0.6,0.6,0,0,1,.5-0.4h1.5V53.7H42l-0.3-.3V52.2a4.1,4.1,0,0,1,0-.5,1.7,1.7,0,0,1,.1-0.5,0.3,0.3,0,0,1,.3-0.2h4.5v0.3h1a0.3,0.3,0,0,1,.4.3,2.6,2.6,0,0,1,.1.5H47.1a0.5,0.5,0,0,0-.4.6,0.9,0.9,0,0,0,.1.4l0.3,0.3a0.8,0.8,0,0,1,0-.6,0.7,0.7,0,0,1,.4-0.4l0.2,0.4,0.3,0.4H47.4v0.2H48l0.2,0.2a11.3,11.3,0,0,0,.1,2.5,18.1,18.1,0,0,1,.2,2.5v1.1H48.4v0.2h0.3a0.6,0.6,0,0,1-.1.4,0.6,0.6,0,0,0-.1.4,0.2,0.2,0,0,0,.2.2h0.3a6.4,6.4,0,0,0,.2,2.2,9,9,0,0,1,.3,2.2,1.4,1.4,0,0,1-.1.5,1.1,1.1,0,0,0-.1.4h0.1v0.5h0.1v0.4a0.6,0.6,0,0,1,.3-0.4h0.4a1,1,0,0,0-.1-0.5H49.9s-0.1-.1-0.1-0.2V64.5l0.2-.2V64.1c0-.1,0-0.4.1-0.8V61c0-.4,0-0.6.1-0.8a0.5,0.5,0,0,0,.2-0.5c0-.3.1-0.7,0.1-1.1V57.2q0-.8.1-1.6a11.5,11.5,0,0,1,.2-1.3,1.8,1.8,0,0,1,.3-0.8H51.1c0-.3,0-0.7,0-1a0.7,0.7,0,0,1,.5-0.7,0.7,0.7,0,0,1,0-.8h5.3a12.5,12.5,0,0,1-.1,1.7l-0.2,1.6a0.3,0.3,0,0,1-.4.1v0.7q0,0.4,0,.5a16.6,16.6,0,0,1-.2,2.4q-0.2,1.1-.5,2.5a1.4,1.4,0,0,0-.2.9q0,0.8-.1,1.7t-0.1,1.9a3.1,3.1,0,0,1-.5,1.5,6.5,6.5,0,0,1,0,1.8q-0.1.8-.2,1.7v4.2l-0.2.2-0.2.2a0.4,0.4,0,0,0,.3.3H53.9v0.8q-0.3,0-.2-0.2V75.6H53.4v0.5H52.9L52,76.1l-0.8-.2c0,0.1,0,.2,0,0.2H46.5V75.4a1.7,1.7,0,0,1,0-.3V73.3a0.3,0.3,0,0,0,.1-0.3H46.1a6.2,6.2,0,0,0,0-.9c0-.3-0.1-0.6-0.1-0.9V70.2a4.4,4.4,0,0,1,0-1,1.3,1.3,0,0,1-.3-0.8,8.5,8.5,0,0,0-.1-0.9V66.4c0-.2,0-0.3,0-0.4h0.1a2.8,2.8,0,0,0-.1-0.8,2.8,2.8,0,0,1-.1-0.8,5.5,5.5,0,0,1,0-.7q0-.3,0-0.5a2.2,2.2,0,0,0-.1-0.5l-0.2-.7a1.2,1.2,0,0,0-.5.9,11.2,11.2,0,0,0-.2,1.5v1.7a5.7,5.7,0,0,1-.2,1.2H43.2v0.3l0.2,0.2,0.2,0.2v0.2a2.3,2.3,0,0,1-.1.8,0.6,0.6,0,0,1-.6.2,1.9,1.9,0,0,0,.1.7,2.2,2.2,0,0,1,.1.8c0,0.3,0,.6,0,0.8a6.2,6.2,0,0,1-.1.9H43.2a2.5,2.5,0,0,1,0,.6v2.2H42.4a1,1,0,0,0,.1.5L42.7,75l0.2,0.2a1,1,0,0,1,.1.5v0.4H35.2V74.4ZM34.4,62.6h0Zm0,2.3s-0.1,0-.1.1,0,0.2.1,0.1A0.2,0.2,0,0,0,34.4,64.9Zm0,2.3h0Zm0.4-3.1H34.6v0.6h0.6A1,1,0,0,0,34.8,64.1Zm0.4-9.7-0.4.4-0.2.4A0.5,0.5,0,0,0,35,55a0.8,0.8,0,0,0,.2-0.5h0ZM34.9,54h0Zm0.3,1.2,0.2,0.2h0.2V54.9H35.4Zm0.3,17.9h0Zm0.2-16.7h0Zm0.1-4.3h0Zm0.2,4.2h0.7a0.3,0.3,0,0,0,.3-0.3H35.8v0.4Zm0,15.2h0Zm0.6-10.4h0Zm0.1,0.1h0Zm0.1,0.3h0ZM37,52.3h0.1A0.3,0.3,0,0,0,37,52v0.3Zm0.4-.3h0Zm0.3,0.2h0Zm0,1.1h0Zm0.6,12.3a0.3,0.3,0,0,1-.2.3h0.2a0.2,0.2,0,0,0,.2-0.2V65.6Zm-0.3-1h0Zm0,4.7h0Zm0.1-4.3h0Zm0.1,2.1H38ZM38.1,52.7h0Zm0,13.8h0Zm0.6-1.7h0Zm-0.1,2.4h0ZM39,65.6l-0.2.3a1.4,1.4,0,0,0-.1.4h0.1V65.7h0Zm0.3,2.8h0Zm0.3,0.7h0Zm1-4.3h0Zm0.1-1.8h0Zm0.3,1.4h0Zm0.6-1.1h0ZM41.8,60h0Zm0.1,16h0ZM42.1,51h0Zm0.1,2.4h0Zm0,21.8h0Zm0.6,0.6h0Zm0.1-22.3h0Zm0.3,16.7h0Zm1.7-9.1h0Zm0.3-9.5h0Zm0.5,11.1h0Zm0.2-11.3h0Zm0.4,0.2h0Zm0.3,18.3h0.3V69.8H46.5Zm0.1,4.4h0Zm0-1h0.9a0.3,0.3,0,0,0,.3-0.4h-1v0.3ZM47.1,52h0Zm0,22.4h0Zm0.3-1.8h0Zm0,1.7h0Zm0.1-.5a0.3,0.3,0,0,0,.1.3h0.6l-0.3-.3H47.5Zm0.1-18.4h0Zm0,19.5h0Zm0.1-2.2h0Zm0,2.6h0ZM48.1,62h0V62Zm0.3,1.5h0Zm0-2.6h0Zm0.6,12.2h0Zm0.2,2.7h0Zm0-1.9h0Zm0.3-4.4h0.3V69.1H49.4v0.3Zm1.9-10.5-0.4.2a0.5,0.5,0,0,0-.2.4,0.8,0.8,0,0,0,.8-0.6H51.3Zm-0.4,1.8h0ZM51,58.6h0Zm0.3,1.8h0Zm0.1-7.1h0Zm0.3,23h0Zm0-20.4h0Zm1.8,18H53.3l-0.3.2h0.6V73.9ZM54.1,69H53.8a0.3,0.3,0,0,0-.1.3h0.4V69Zm-0.3-.3h0Zm0.6-6h0Zm-0.1,5.9V69a0.3,0.3,0,0,0,.2.3V68.7H54.3Zm0.1-4.6h0ZM54.7,63h0Zm0-10.9h0Zm0,12h0Zm0.1,0.1h0Zm0.1-12.5h0Zm0.3,8.2H55l-0.2.2h0.4V59.9ZM54.9,64h0Zm1-8.8h0Z"/><path class="f" d="M59.6,75.1a9.5,9.5,0,0,1,.1-1.6,2.3,2.3,0,0,1,.8-1.4H60.4l-0.3.2-0.3.3H59.6V68.5q-0.1-1.1-.1-1.8t0-1.7V63.2H59.6V58a1.4,1.4,0,0,0,.4-1H59.7a1.6,1.6,0,0,1,.3-1l-0.2-.2H59.6a5.6,5.6,0,0,0-.1-0.6,5.3,5.3,0,0,1-.1-0.6h0a4.1,4.1,0,0,1,.1-0.8l0.2-.2h0.3l0.6-.3H60.5a0.2,0.2,0,0,1-.2-0.2h1.4l0.7-.2,0.5-.4H62.6a0.2,0.2,0,0,1-.2-0.2h2.7v0.4l0.2,0.6,0.2,0.6v0.4L66,54.6a5,5,0,0,1,.2,1.3,1,1,0,0,1-.1.5l-0.5.2a0.4,0.4,0,0,0,.3.4l0.5,0.2a2.1,2.1,0,0,1,.5.7L67.3,59l0.2,1.1a5.7,5.7,0,0,1,.1.9H67.3l0.4,0.3,0.4,0.3V61.5h1.3V61.3l-0.6-.2H68.6V57.6h0.1V50.5l0.4-.2h4.7v2.1q0,1,0,1.9t0,1.9v5.6a0.3,0.3,0,0,0-.1.3,0.3,0.3,0,0,0,.1.3v3.3a9.7,9.7,0,0,1-.1,1.4v0.6h0.2v0.5a3.3,3.3,0,0,1-.1.9,3.3,3.3,0,0,0-.1.9v0.2h0.1v1.9a1.5,1.5,0,0,1-.3.9h0.2a2.7,2.7,0,0,1-.3,1.4,3.4,3.4,0,0,1-1,1l-0.3.2H69.7c-0.1,0-.1-0.1-0.1-0.2V75.2H69l-0.6.2a1.1,1.1,0,0,1-.3-0.7V74a0.5,0.5,0,0,1,.1-0.4l0.4-.4-1-.3-0.3-1.2-0.3-1-0.2-.9-0.3-1.2a5.4,5.4,0,0,1-.2-1.1,0.3,0.3,0,0,1,0-.2h0.1a1.4,1.4,0,0,0,0-.4H66.4l-0.2-.3,0.3-.4,0.3-.4h0a0.5,0.5,0,0,0-.3-0.4L66,64.9a2,2,0,0,0-.3-1,2.8,2.8,0,0,1-.3-1,1,1,0,0,1,0-.4,2.1,2.1,0,0,0,0-.4,0.5,0.5,0,0,0-.1-0.3L65,61.7v3.9l-0.3.3h0.1v2.5l-0.3.2-0.3.4a0.8,0.8,0,0,0-.1.4h0.3l0.3,0.3,0.2,0.3v2.8H64.5v0.4l-0.2.2a0.4,0.4,0,0,1-.5-0.1l-0.4-.2a0.5,0.5,0,0,0-.5.3l0.5,0.2h1.6v1a3.4,3.4,0,0,1-.1.5v0.3H59.8V75.1Zm0-24.7h1.8a1.5,1.5,0,0,1,.9.3,0.7,0.7,0,0,1-.4.5l-0.5.4-1.5.3h0.1a0.2,0.2,0,0,1,.1.2H59.6v-2Zm0.8,6.8h0ZM61,65.1a0.7,0.7,0,0,0,.2.5l0.2,0.5h0.8a0.2,0.2,0,0,0-.2-0.2H61.7a0.4,0.4,0,0,1-.1-0.3,0.8,0.8,0,0,0,0-.2V65.2H61ZM61.2,51h0Zm0.3,0.1h0Zm0,4.8h0Zm1.8-4.5h0Zm0.3,18.5h0.4a0.2,0.2,0,0,0,.2-0.2H63.5Zm1-14.7h0Zm1.4,5.5h0V60.8Zm0.3,4.6h0Zm0.7-.3h0Zm0.4,3.6h0Zm0.3-1.2h0Zm0.7-5.1v0H68.3Zm0.5,12.4h0Zm0.4,0.7c0,0.2-.2.3-0.5,0.3a0.3,0.3,0,0,1,.2-0.3h0.3ZM69,53.1h0Zm0,21h0Zm0.3-2.7h0Zm0.3-17.8h0Zm2.1,20.2H71.5v0.4h0.7l0.3-.2a0.4,0.4,0,0,0,.1-0.3h-1ZM71.2,58h0Zm0.3,3.2h0ZM71.6,63a0.2,0.2,0,0,0,.2.3h0.6A0.4,0.4,0,0,0,72,63H71.6Zm0.6-6.5h0Zm0.7-.8h0Zm-0.1,6.9h0Zm0.4,12.7c0.1,0,.2.1,0.2,0.3a0.3,0.3,0,0,1-.2.3H72.8a1.4,1.4,0,0,1,.1-0.4A0.3,0.3,0,0,1,73.1,75.2Zm0.1-8.1h0Zm0.3-10h0Zm0,0.4h0Z"/><path class="f" d="M80.7,75.3h0l0.6-.6-0.2-.2V65.7q0-.2,0-1.2c0-.7,0-1.4,0-2.2V59.8q0-1.2-.1-1.9t0-.6V55.6H76.6a2.1,2.1,0,0,1-.3-0.8,5.7,5.7,0,0,1-.1-0.9c0-.3,0-0.6,0-0.9s0-.6,0-0.9V50.8h0.8l4.3-.2h8.3v4.6H86.3v2q0,3.6.1,7.1t0.1,7.1v4.1H83l-0.6.3H81a0.4,0.4,0,0,1-.3-0.5V75.3ZM81.2,66a0.2,0.2,0,0,0,.3.3A0.2,0.2,0,0,0,81.2,66ZM82,64.6h0Zm0.7-11.8h0Zm0.8,15h0Zm0.1,4.2h0Zm0.1,3.6h0.1v0.3Zm0.4-9.2h0Zm0,9.1h0ZM84.8,73h0a3.2,3.2,0,0,0,0-.3l-0.2-.2H84.3Zm0,2H84.6a0.1,0.1,0,0,0,0,.1h0.1A0.1,0.1,0,0,0,84.8,74.9Zm0.3-4.6h0Zm0-4.3h0Zm0.3,4.3h0Zm0,0.6h0Zm0,3.3h0Zm0.6-1.8h0ZM87.7,55h0Z"/><path class="f" d="M91.1,56h0Zm0.1-1.8h0Zm0.1,13.6h0Zm0.1,8.5h0Zm0-19.6h0Zm0.1,7h0Zm0-1.6h0Zm0,0.3h0Zm0,0.8h0Zm0,2h0Zm0,3.2h0Zm0.1-12.6h0Zm0,2.7h0Zm0,0.5h0Zm0.1,8.9h0Zm0,1.1h0Zm0.7,3.7a1,1,0,0,0-.1-0.6l-0.2-.5a22.4,22.4,0,0,1-.3-2.9q-0.1-1.5-.1-3t0.1-3,0.1-2.8V55.4l0.4-1.5,0.6-.3H92.8l0.6-.9a1,1,0,0,1,.8-0.3h0.6L95,52a0.4,0.4,0,0,0,0-.4H94.6a4.6,4.6,0,0,1,1.8-.9l2.1-.2h2.4l0.4,0.2h0.4l0.4,0.2,0.4,0.3h-0.1l0.5,0.2,0.5,0.3,0.5,0.4a0.7,0.7,0,0,1,.2.5,0.2,0.2,0,0,1-.1.2h0.3a6,6,0,0,1,.6,1.7,13.1,13.1,0,0,1,.2,1.9c0,0.6,0,1.3,0,1.9s0,1.3.1,1.9v4c0,0.3,0,.5,0,0.5v5.7a4.4,4.4,0,0,1-.4,1.6,7.7,7.7,0,0,1-1,1.6,6,6,0,0,1-1.4,1.3,3,3,0,0,1-1.6.5H97.4L96.4,76l-1.2-.7L94,74.4a2.3,2.3,0,0,1-.6-0.9V73.1a0.7,0.7,0,0,0-.1-0.4H92.7ZM92.2,54.1h0Zm0.4-1h0Zm0,19.6h0Zm0.3-3.9h0Zm0.1,4.3h0ZM93.3,52h0Zm0.1,20.8h0Zm0.3-21.2h0Zm0.4-.3h0Zm0.4-.4h0Zm0.8,24.2h0Zm0.4-6.7h0Zm0-17.9h0Zm0,21.9h0ZM96,52.3h0Zm0,23.9h0Zm0.3-7.5h0Zm0,3.2h0Zm0,4.2h0Zm0.1-11.5h0Zm0.1,7.6h0Zm0.1-20.1h0Zm0.4,18.5h0Zm0,1.7h0Zm0.1-20.6h0Zm0,24.8h0Zm0.1-6.9h0Zm0.1,6.9h0ZM98,71.6l0.2,0.3,0.3,0.3H99a0.7,0.7,0,0,0,.6-0.2,1.2,1.2,0,0,0,.3-0.5,3.2,3.2,0,0,0,.1-0.7V66.6h0V64.1q0-.5,0-1.2t-0.1-1.4V59.8H99.6V56.2H99.5a2.4,2.4,0,0,0,0-.5,2,2,0,0,0-.1-0.6l-0.3-.5-0.5-.2H98.5v0.2a2.7,2.7,0,0,0-.5,1.5q0,0.8,0,1.7v0.2h0v1.7Zm-0.2-.5h0Zm0.2-20.5h0Zm0,6.4h0Zm0,2.8h0Zm0-3.2a0.6,0.6,0,0,0,.3-0.5,0.6,0.6,0,0,1,.2-0.5h0.1v0.9H98.1Zm0.3,0.8h0Zm0.1,12.2h0ZM98.4,55a0.3,0.3,0,0,1,.1-0.3h0.3v0.6H98.6V55H98.4Zm0.1,16.6h0Zm0,5.1h0Zm0.1-26.6h0Zm0,6.5h0Zm0.1-4.9h0Zm0.3-1.7h0Zm0.1,26.9h0Zm0-21.9h0Zm0.1,2.2h0Zm0.1,7.2h0Zm0.2-2.6v0.4H99.6V61.9h0.1Zm0.2,14.8h0Zm0.4-25.6s-0.1,0-.1.1,0,0.2.1,0.1A0.2,0.2,0,0,0,100.3,51.1Zm0.1,0.8h0Zm0.3-.3h0Zm0.1,1.9h-0.1a0.1,0.1,0,0,0,0,.1h0.1A0.1,0.1,0,0,0,100.9,53.5Zm0.1,0.4h0Zm0.3-.2h0Zm0.4,22.6-0.6.3H101l0.7-.5h0Zm-0.6-4.5h0Zm0-20.1h0Zm0.1-1.2h0Zm0,26.3h0Zm0.1-25.6h0Zm0.1,4.5h0Zm0.1,1.3h0Zm0.3-5.3h0Zm-0.1,2.8h0.5a0.4,0.4,0,0,0-.2-0.3h-0.3v0.4Zm0.1,3.2h0Zm0.3-1h0Zm0.1,4.6h0Zm0.1,0.1h0Zm0.3,6.1h0Zm0.3-16.7V51a0.2,0.2,0,0,1-.2.2V50.7h0.3Zm-0.2.6h0Zm0,21.5h0Zm0-19.5h0.4a1.2,1.2,0,0,0-.1-0.5Zm0.3-1.8h0Zm0,12.7h-0.1v0.3h0.1V64.2Zm0.4,11.6h0Zm-0.1-20.6h0Zm0.3,13.6h0Zm0,6.7h0Zm0.3-6.2h0ZM104,60.9h0.1V60.6Zm0.3,0.1h0Zm0,9h0.1a0.3,0.3,0,0,0-.1-0.3v0.3Zm0.3-8.6s-0.1,0-.1.1,0,0.2.1,0.1A0.2,0.2,0,0,0,104.5,61.5Zm0.4-3.4h-0.2a0.2,0.2,0,0,0-.1.2h0A0.3,0.3,0,0,0,104.9,58.1Zm-0.2-.6h0Zm0,7.7h0Zm0.1,5.1h0Zm0.3-4.8h0Zm0,7.6h0Zm0.1-6.7h0Zm0.3-9.4h0Zm0,14.3h0Zm0,0.3h0Zm0.1-13.9h0Zm0,2.7h0Zm0,5.5h0Zm0.1-6.1v0h0.1Zm0,8.1h0Zm0.1,0.2h0v0.2A0.4,0.4,0,0,1,105.9,68.1Z"/><path class="f" d="M109.8,74.4a0.3,0.3,0,0,0,.1-0.3,1.2,1.2,0,0,0-.1-0.5,1.3,1.3,0,0,1-.1-0.5V72.8h0.5l0.2,0.2,0.2,0.2H111a0.2,0.2,0,0,0-.1-0.2h-0.3a1.3,1.3,0,0,1-.1-0.5H110a0.5,0.5,0,0,0-.3-0.4,0.5,0.5,0,0,1-.3-0.5h0V71l0.2,0.2h0.1V70.5l0.2-.4a1,1,0,0,1-.8.4,4.1,4.1,0,0,0-.2-1.2,4,4,0,0,1-.2-1.2V67.6a0.5,0.5,0,0,0,.2-0.4,2.4,2.4,0,0,0,.1-0.5l-0.2-.3a1.2,1.2,0,0,1-.3-0.6q-0.3-2.2-.5-4.3l-0.4-4.4V52.9h-0.1a5.4,5.4,0,0,0,0-.6V51.2h0a0.3,0.3,0,0,1,.1-0.3H111l2,0.2q0.1,0.9.1,1.7t0,1.7v1h0.3v1.1l0.2,0.3q0,0.4.1,1.4v4.2q0.1,1,.1,1.4v2a0.3,0.3,0,0,1-.3.2l0.2,0.2v0.2a1.2,1.2,0,0,1-.2.8l-0.9.4h0a0.2,0.2,0,0,0,.2.2h0.6l0.3-.3,0.3-.4v0.8h0.3V67.8a3,3,0,0,0,.1-0.5q0.3-2.7.6-5.3t0.6-5.3a3.4,3.4,0,0,0,0-.6,3.9,3.9,0,0,1,0-.7,2.3,2.3,0,0,1,.2-0.7,0.6,0.6,0,0,1,.5-0.4h1.5V53.7h-1.3l-0.3-.3V52.2a4.1,4.1,0,0,1,0-.5,1.6,1.6,0,0,1,.1-0.5,0.3,0.3,0,0,1,.3-0.2h4.5v0.3h1a0.3,0.3,0,0,1,.4.3,2.5,2.5,0,0,1,.1.5h-0.9a0.5,0.5,0,0,0-.4.6,1,1,0,0,0,.1.4l0.3,0.3a0.8,0.8,0,0,1,0-.6,0.7,0.7,0,0,1,.4-0.4l0.2,0.4,0.3,0.4H122v0.2h0.5l0.2,0.2a11.3,11.3,0,0,0,.1,2.5,18.1,18.1,0,0,1,.2,2.5v1.1h-0.1v0.2h0.3a0.6,0.6,0,0,1-.1.4,0.6,0.6,0,0,0-.1.4,0.2,0.2,0,0,0,.2.2h0.3a6.4,6.4,0,0,0,.2,2.2,9,9,0,0,1,.3,2.2,1.4,1.4,0,0,1-.1.5,1.1,1.1,0,0,0-.1.4h0.1v0.5h0.1v0.4a0.6,0.6,0,0,1,.3-0.4h0.4a1,1,0,0,0-.1-0.5h-0.3s-0.1-.1-0.1-0.2V64.5l0.2-.2V64.1c0-.1,0-0.4.1-0.8V61c0-.4,0-0.6.1-0.8a0.5,0.5,0,0,0,.2-0.5c0-.3.1-0.7,0.1-1.1V57.2q0-.8.1-1.6a11.3,11.3,0,0,1,.2-1.3,1.7,1.7,0,0,1,.3-0.8h-0.1c0-.3,0-0.7,0-1a0.7,0.7,0,0,1,.5-0.7,0.7,0.7,0,0,1,0-.8h5.3a12.5,12.5,0,0,1-.1,1.7l-0.2,1.6a0.3,0.3,0,0,1-.4.1v0.7q0,0.4,0,.5a16.6,16.6,0,0,1-.2,2.4q-0.2,1.1-.5,2.5a1.4,1.4,0,0,0-.2.9q0,0.8-.1,1.7t-0.1,1.9a3.1,3.1,0,0,1-.5,1.5,6.5,6.5,0,0,1,0,1.8q-0.1.8-.2,1.7v4.2l-0.2.2-0.2.2a0.4,0.4,0,0,0,.3.3h-0.1v0.8c-0.2,0-.3-0.1-0.2-0.2V75.6h-0.3v0.5h-0.3l-0.8-.2-0.8-.2c0,0.1,0,.2,0,0.2H121V75.4a1.8,1.8,0,0,1,0-.3V73.3a0.3,0.3,0,0,0,.1-0.3h-0.3a6.2,6.2,0,0,0,0-.9q0-.5-0.1-0.9V70.2a4.4,4.4,0,0,1,0-1,1.3,1.3,0,0,1-.3-0.8,8.1,8.1,0,0,0-.1-0.9V66.4c0-.2,0-0.3,0-0.4h0.1a2.8,2.8,0,0,0-.1-0.8,2.9,2.9,0,0,1-.1-0.8,5.3,5.3,0,0,1,0-.7q0-.3,0-0.5a2.2,2.2,0,0,0-.1-0.5l-0.2-.7a1.2,1.2,0,0,0-.5.9,11.2,11.2,0,0,0-.2,1.5v1.7a5.8,5.8,0,0,1-.2,1.2h-0.7v0.3l0.2,0.2,0.2,0.2v0.2a2.3,2.3,0,0,1-.1.8,0.6,0.6,0,0,1-.6.2,1.9,1.9,0,0,0,.1.7,2.2,2.2,0,0,1,.1.8c0,0.3,0,.6,0,0.8a6,6,0,0,1-.1.9h-0.1a2.5,2.5,0,0,1,0,.6v2.2h-0.5a1,1,0,0,0,.1.5l0.2,0.2,0.2,0.2a1,1,0,0,1,.1.5v0.4h-7.7V74.4Zm-0.9-11.8h0Zm0,2.3s-0.1,0-.1.1,0,0.2.1,0.1A0.2,0.2,0,0,0,108.9,64.9Zm0,2.3h0Zm0.4-3.1h-0.1v0.6h0.6A1,1,0,0,0,109.3,64.1Zm0.4-9.7-0.4.4-0.2.4a0.5,0.5,0,0,0,.5-0.2,0.8,0.8,0,0,0,.2-0.5h0Zm-0.3-.4h0Zm0.3,1.2,0.2,0.2h0.2V54.9h-0.2ZM110,73.1h0Zm0.2-16.7h0Zm0.1-4.3h0Zm0.2,4.2h0.7a0.3,0.3,0,0,0,.3-0.3h-1.2v0.4Zm0,15.2h0ZM111,61.2h0Zm0.1,0.1h0Zm0.1,0.3h0Zm0.3-9.4h0.1a0.3,0.3,0,0,0-.1-0.3v0.3ZM112,52h0Zm0.3,0.2h0Zm0,1.1h0Zm0.6,12.3a0.3,0.3,0,0,1-.2.3h0.2a0.2,0.2,0,0,0,.2-0.2V65.6Zm-0.3-1h0Zm0,4.7h0Zm0.1-4.3h0Zm0.1,2.1h-0.3Zm-0.1-14.5h0Zm0,13.8h0Zm0.6-1.7h0Zm-0.1,2.4h0Zm0.3-1.6-0.2.3a1.4,1.4,0,0,0-.1.4h0.1V65.7h0Zm0.3,2.8h0Zm0.3,0.7h0Zm1-4.3h0Zm0.1-1.8h0Zm0.3,1.4h0Zm0.6-1.1h0Zm0.3-3.2h0Zm0.1,16h0ZM116.6,51h0Zm0.1,2.4h0Zm0,21.8h0Zm0.6,0.6h0Zm0.1-22.3h0Zm0.3,16.7h0Zm1.7-9.1h0Zm0.3-9.5h0Zm0.5,11.1h0Zm0.2-11.3h0Zm0.4,0.2h0Zm0.3,18.3h0.3V69.8h-0.1Zm0.1,4.4h0Zm0-1h0.9a0.3,0.3,0,0,0,.3-0.4h-1v0.3ZM121.6,52h0Zm0,22.4h0Zm0.3-1.8h0Zm0,1.7h0Zm0.1-.5a0.3,0.3,0,0,0,.1.3h0.6l-0.3-.3H122Zm0.1-18.4h0Zm0,19.5h0Zm0.1-2.2h0Zm0,2.6h0ZM122.6,62h0V62Zm0.3,1.5h0Zm0-2.6h0Zm0.6,12.2h0Zm0.2,2.7h0Zm0-1.9h0Zm0.3-4.4h0.3V69.1h-0.3v0.3Zm1.9-10.5-0.4.2a0.5,0.5,0,0,0-.2.4,0.8,0.8,0,0,0,.8-0.6h-0.1Zm-0.4,1.8h0Zm0.1-2.2h0Zm0.3,1.8h0Zm0.1-7.1h0Zm0.3,23h0Zm0-20.4h0Zm1.8,18h-0.3l-0.3.2h0.6V73.9Zm0.6-4.9h-0.3a0.3,0.3,0,0,0-.1.3h0.4V69Zm-0.3-.3h0Zm0.6-6h0Zm-0.1,5.9V69a0.3,0.3,0,0,0,.2.3V68.7h-0.2Zm0.1-4.6h0Zm0.3-1.1h0Zm0-10.9h0Zm0,12h0Zm0.1,0.1h0Zm0.1-12.5h0Zm0.3,8.2h-0.2l-0.2.2h0.4V59.9ZM129.5,64h0Zm1-8.8h0Z"/><path class="f" d="M134.1,75.1a9.6,9.6,0,0,1,.1-1.6,2.3,2.3,0,0,1,.8-1.4h-0.2l-0.3.2-0.3.3h-0.1V66.7c0-.5,0-1,0-1.7a3.1,3.1,0,0,1,0-.4V63.2h-0.2V58a1.4,1.4,0,0,0,.4-1h-0.3a1.6,1.6,0,0,1,.3-1l-0.2-.2h-0.2a5.7,5.7,0,0,0-.1-0.6,5.4,5.4,0,0,1-.1-0.6h0a4.1,4.1,0,0,1,.1-0.8l0.2-.2h0.3l0.6-.3H135a0.2,0.2,0,0,1-.2-0.2h1.4l0.7-.2,0.5-.4h-0.3a0.2,0.2,0,0,1-.2-0.2h2.7v0.4l0.2,0.6,0.2,0.6v0.4l0.4,1.3a5,5,0,0,1,.2,1.3,1,1,0,0,1-.1.5l-0.5.2a0.4,0.4,0,0,0,.4.4l0.5,0.2a2.1,2.1,0,0,1,.5.7l0.4,1.1,0.2,1.1a5.7,5.7,0,0,1,.1.9h-0.4l0.4,0.3,0.4,0.3V61.5h1.3V61.3l-0.6-.2h-0.5V57.6h0.1V50.5l0.4-.2h4.7v2.1q0,1,0,1.9t0,1.9v5.6a0.3,0.3,0,0,0-.1.3,0.3,0.3,0,0,0,.1.3v3.3a9.9,9.9,0,0,1-.1,1.4v0.6h0.2v0.5a3.3,3.3,0,0,1-.1.9,3.3,3.3,0,0,0-.1.9v0.2h0.1v1.9a1.5,1.5,0,0,1-.3.9h0.2a2.7,2.7,0,0,1-.3,1.4,3.4,3.4,0,0,1-1,1l-0.3.2h-2.2c-0.1,0-.1-0.1-0.1-0.2V75.2h-0.5l-0.6.2a1.1,1.1,0,0,1-.3-0.7V74a0.5,0.5,0,0,1,.1-0.4l0.4-.4-1-.3-0.3-1.2-0.3-1-0.2-.9-0.3-1.2a5.5,5.5,0,0,1-.2-1.1,0.3,0.3,0,0,1,0-.2h0.1a1.4,1.4,0,0,0,0-.4h-0.3l-0.2-.3L141,66l0.3-.4h0a0.5,0.5,0,0,0-.3-0.4l-0.5-.2a2,2,0,0,0-.3-1,2.8,2.8,0,0,1-.3-1,0.9,0.9,0,0,1,0-.4,2.1,2.1,0,0,0,0-.4,0.5,0.5,0,0,0-.1-0.3l-0.3-.2v3.9l-0.3.3h0.1v2.5l-0.3.2-0.3.4a0.8,0.8,0,0,0-.1.4h0.3l0.3,0.3,0.2,0.3v2.8H139v0.4l-0.2.2a0.4,0.4,0,0,1-.5-0.1l-0.4-.2a0.5,0.5,0,0,0-.5.3l0.5,0.2h1.6v1a3.4,3.4,0,0,1-.1.5v0.3h-4.9V75.1Zm0-24.7h1.8a1.5,1.5,0,0,1,.9.3,0.7,0.7,0,0,1-.4.5l-0.5.4-1.5.3h0.1a0.2,0.2,0,0,1,.1.2h-0.3v-2Zm0.8,6.8h0Zm0.6,7.9a0.7,0.7,0,0,0,.2.5l0.2,0.5h0.8a0.2,0.2,0,0,0-.2-0.2h-0.3a0.4,0.4,0,0,1-.1-0.3,0.7,0.7,0,0,0,0-.2V65.2h-0.5ZM135.7,51h0Zm0.3,0.1h0Zm0,4.8h0Zm1.8-4.5h0Zm0.3,18.5h0.3a0.2,0.2,0,0,0,.2-0.2h-0.6Zm1-14.7h0Zm1.4,5.5h0V60.8Zm0.3,4.6h0Zm0.7-.3h0Zm0.4,3.6h0Zm0.3-1.2h0Zm0.7-5.1v0h-0.1Zm0.5,12.4h0Zm0.4,0.7c0,0.2-.2.3-0.5,0.3a0.3,0.3,0,0,1,.2-0.3h0.3Zm-0.2-22.5h0Zm0,21h0Zm0.3-2.7h0Zm0.3-17.8h0Zm2.1,20.2H146v0.4h0.7L147,74a0.4,0.4,0,0,0,.1-0.3h-1ZM145.8,58h0Zm0.3,3.2h0Zm0.1,1.9a0.2,0.2,0,0,0,.2.3h0.6a0.4,0.4,0,0,0-.3-0.3h-0.4Zm0.6-6.5h0Zm0.7-.8h0Zm-0.1,6.9h0Zm0.4,12.7c0.1,0,.2.1,0.2,0.3a0.3,0.3,0,0,1-.2.3h-0.4a1.4,1.4,0,0,1,.1-0.4A0.3,0.3,0,0,1,147.7,75.2Zm0.1-8.1h0Zm0.3-10h0Zm0,0.4h0Z"/><path class="d" d="M117,17.9V17.8a3,3,0,0,0,.4-1.7c0.2-2,.1-4,0.1-6,0,0-.1-3.7-0.2-4.2s-0.3.4-.3,0.4-0.2,1.7-.2,2.6a25.1,25.1,0,0,0-.2,2.6c0,0.6.2,1.5-.2,2a2.2,2.2,0,0,1-.3-1.9,15.6,15.6,0,0,0,.1-2.1V5.9c-0.2-1.1-.6.1-0.6,0.1V7.1c-0.1.7-.2,1.3-0.2,2s-0.2,2-.2,3a1.4,1.4,0,0,1-.2,1c-0.5.1-.3-3.3-0.3-3.6S114,8.2,114,7.5s0-1.2-.3-1.3h-0.1a5.2,5.2,0,0,0-.4,1.7c0,0.2,0,.5-0.1.7a18.4,18.4,0,0,0-.1,2.2c0,0.8-.1,1.5-0.1,2.3a24.7,24.7,0,0,0,0,2.6,4.3,4.3,0,0,0,.4,1.3c0.2,0.4.6,0.6,0.7,1a4.5,4.5,0,0,1,.2,1.2c0.1,0.5.1,1,.1,1.4s0,1.5,0,2.3,0,1.2,0,1.9a13.3,13.3,0,0,1-.1,1.6,8.9,8.9,0,0,0,0,1.6c0.1,1.3,0,2.6,0,4s0,4.5-.1,6.6c0,0.6,0,1.3.1,2a4.5,4.5,0,0,0,.2,1.1l0.2,0.5a0.5,0.5,0,0,0,.7.3,2.5,2.5,0,0,0,1.2-2,12.6,12.6,0,0,0,.1-2.1c0-1.2-.1-2.4-0.2-3.6a37.3,37.3,0,0,1,0-4.1,29.7,29.7,0,0,1,0-4.2,10.2,10.2,0,0,0,.1-1.8,7.9,7.9,0,0,1,.1-0.8c0.1-.8-0.1-1.5,0-2.3s0.1-1.7,0-2.6A1.3,1.3,0,0,1,117,17.9Z"/><path class="g" d="M85.7,88.1h0.7a1.4,1.4,0,0,1,0,.4,0.8,0.8,0,0,0,0,.4h0v0.6h0v0.3h0a1.1,1.1,0,0,0,0,.4h0v0.2h0v0.9h0a1.2,1.2,0,0,0,0,.4,0.9,0.9,0,0,1,0,.3h0v1.3h0v0.5H86l-0.2-.2H84.5a1.8,1.8,0,0,1,0-.8v-1a2.4,2.4,0,0,0,0-.3V92.1a3.5,3.5,0,0,0,0-.4h0a2,2,0,0,1,0-.6V90.7h0V90.2a7.5,7.5,0,0,1,0-.8V88.7a1.3,1.3,0,0,1,0-.4h1.1ZM85.5,85h0a1,1,0,0,1,.7,1.2q-0.1.9-1.2,0.6a1,1,0,0,1-.4-0.7A1.1,1.1,0,0,1,85.5,85Z"/><path class="g" d="M90.2,85h0.3l0.2,0.2a1.8,1.8,0,0,1-.1.8v0.6h0a2.1,2.1,0,0,1,0,.4v0.4h1.6v0.7a2.1,2.1,0,0,0-.1.6v0.2H91.6a1.6,1.6,0,0,0-1.1.2v1.1a1.8,1.8,0,0,0,0,.3,0.5,0.5,0,0,0,0,.2h0.1v0.3a1.2,1.2,0,0,0,0,.5v0.7a0.6,0.6,0,0,1,.6.3,0.6,0.6,0,0,1-.1.3v0.5h0v0.3a0.4,0.4,0,0,1,.1.3h0a1.1,1.1,0,0,1-1.2,0,2.2,2.2,0,0,1-.9-0.6l-0.2-.3-0.2-.4V92.8a1.9,1.9,0,0,0-.1-0.4V91.2h0c0-.1,0-0.3,0-0.6V90h0V89.4H87.4a2,2,0,0,1-.2-1.2,0.7,0.7,0,0,1-.1-0.4V87.7h1.5a2.5,2.5,0,0,0,.1-0.9V86.3h0a1.6,1.6,0,0,1,0-.4,0.8,0.8,0,0,1,0-.3V85.4a1.4,1.4,0,0,1,1.1-.3h0.2Z"/><path class="g" d="M97.3,87.6h0.2a2.4,2.4,0,0,1,1.2.3h0.1l0.4,0.5,0.2,0.2a0.9,0.9,0,0,1,.4,1l-0.3.2-0.4.4H98.8l-0.2-.4a1.7,1.7,0,0,0-1.5-.5,1,1,0,0,0-.9.6,0.5,0.5,0,0,1,0,.3,1,1,0,0,0,.9.4h0.5l0.5,0.2c1.2,0.3,1.8.9,1.7,1.8a2.1,2.1,0,0,1-.3,1.4l-0.4.4-0.2.2H97.1a1.3,1.3,0,0,1-1.1-.1l-0.8-.3H94.8l-0.3-.4,0.3-.5H95V92.9h0.3a3.5,3.5,0,0,0,2.3.5l0.3-.2a1,1,0,0,0-.1-0.5H97.5l-0.3-.2H97a4.3,4.3,0,0,1-1.8-.8,3,3,0,0,1-.4-1.5,2.3,2.3,0,0,1,.8-2.1h1.6Z"/><path class="g" d="M106.9,87.4h0.4l0.9,0.2h0.2l0.6,0.6a3,3,0,0,1,.4.9l0.2,0.5,0.2,0.3v1h0v0.2h0V92a2.1,2.1,0,0,1,0,.3v0.6a1.3,1.3,0,0,0,0,.3h0a2.6,2.6,0,0,0,.6,1,0.5,0.5,0,0,1,.1.3h-2.2l-0.2-.4h-0.2l-1,.4L107,95h-0.7a1.7,1.7,0,0,1-1.9-1.5q-0.2-2.5,1.9-3l0.3-.2h1.2l-0.4-.5h0l-0.2-.2h-0.2a1.7,1.7,0,0,0-1.4.2h-0.1l-0.5-.7q-0.6-.7.5-0.9a1.5,1.5,0,0,1,.8-0.4l0.5-.2h0.2Zm0.1,4.4-0.5.4a0.7,0.7,0,0,0-.6.8,0.7,0.7,0,0,0,.9.4l0.6-.6,0.2-.2h0A0.5,0.5,0,0,0,107,91.7Z"/><path class="g" d="M113.5,83.5h0.4v0.2h-0.1v0.5h0v0.3h0a0.8,0.8,0,0,0,0,.3v0.2a2.1,2.1,0,0,1,.1.5h0a1,1,0,0,0,0,.4v0.4h0a1.8,1.8,0,0,0-.1.5v2.5a2,2,0,0,1,0,.4v0.7a2.4,2.4,0,0,0,0,.4v0.5a1.7,1.7,0,0,1,0,.4v2.6h-0.2l-0.4-.2h-1L112,95h-0.1V94.6a2.7,2.7,0,0,1,0-.5h0V93.3h-0.1V92.9h0V92.6h0V92h0V89.8h0v-1a0.2,0.2,0,0,1,0-.2V86.8h0a2,2,0,0,1,.1-0.5V86h0V85.2h0V84.6a2.8,2.8,0,0,0,0-.4,1.3,1.3,0,0,1,0-.4l0.4-.2h1.6Z"/><path class="g" d="M116.9,83.5h0.4v0.2h-0.1v0.5h0v0.3h0a0.8,0.8,0,0,0,0,.3v0.2a2.1,2.1,0,0,1,.1.5h0a1,1,0,0,0,0,.4v0.4h0a1.7,1.7,0,0,0-.1.5v2.5a1.8,1.8,0,0,1,0,.4v0.7a2.4,2.4,0,0,0,0,.4v0.5a1.6,1.6,0,0,1,0,.4v2.6h-0.2l-0.4-.2h-1l-0.5.2h-0.1V94.6a2.8,2.8,0,0,1,0-.5h0V93.3h0V92.9h0V92.6h0V92h0V89.8h0v-1a0.2,0.2,0,0,1,0-.2V86.8h0a2,2,0,0,1,.1-0.5V86h0V85.2h0V84.6a2.5,2.5,0,0,0,0-.4,1.2,1.2,0,0,1,0-.4l0.4-.2h1.6Z"/><path class="g" d="M122.9,83.7h1.2a2.2,2.2,0,0,1,.1.9V85h0v0.6a0.8,0.8,0,0,1,0,.2,1.2,1.2,0,0,0,0,.3,5.1,5.1,0,0,0,0,1v0.2h0a2.2,2.2,0,0,1,0,.4c0,0.2,0,.3,0,0.4l0.5-.4h0.1l0.5-.2a2.7,2.7,0,0,1,1.8.4l0.4,0.5,0.2,0.2h0.1l0.2,0.6v0.9a1.8,1.8,0,0,0-.1.5,0.1,0.1,0,0,1,0,.1v1h0a1.1,1.1,0,0,1,0,.4h0v1a1.5,1.5,0,0,0-.1.4v0.2a0.8,0.8,0,0,1-.1.4l-0.5-.3h-1l-0.4-.2a1.2,1.2,0,0,1,0-.6,1.6,1.6,0,0,1,0-.4h0a1.4,1.4,0,0,0,.1-0.6,2.5,2.5,0,0,0,.1-1.1V91.2h0a2,2,0,0,0,0-.5,0.4,0.4,0,0,0,0-.2h0l-0.2-.3h-0.5l-0.2.2-0.4.4h-0.2l-0.6.6v0.3a3,3,0,0,0,0,1.4h0a1.5,1.5,0,0,0,0,.6,0.6,0.6,0,0,0,0,.3v0.2l-0.3.2h-1.7a0.6,0.6,0,0,1,0-.3,4.5,4.5,0,0,1,0-1h0V92.6h0c0-.1,0-0.3,0-0.5V91.9h0v-1h0V90.1h0V89.6a2.3,2.3,0,0,1,0-.6c0-.1,0-0.3,0-0.5V86.6a2.4,2.4,0,0,0,.1-0.5V85.8h0V85.5h0a1.5,1.5,0,0,0,0-.5,1.3,1.3,0,0,0,0-.3,1.5,1.5,0,0,0,0-.5V83.9h0.6Z"/><path class="g" d="M131.8,87.3H132a2.6,2.6,0,0,1,2.4,1.4,3.3,3.3,0,0,0,0,.5h0V90a2.8,2.8,0,0,1,0,1v0.3h-3.7a1.1,1.1,0,0,0,1.1,1.3,1.5,1.5,0,0,0,1.2-.9h0.2l0.3,0.2h0.1l0.5,0.5a0.5,0.5,0,0,1,.1.3l-0.2.3a2.5,2.5,0,0,1-2.7,1.5,2.1,2.1,0,0,1-1.7-1.1l-0.2-.6V91.4h0V91.1a4.4,4.4,0,0,1,.7-2.6l0.5-.4,0.4-.3,0.2-.2h1.1Zm0,1.4a2,2,0,0,0-1,1.2l0.4,0.3h1.4a0.4,0.4,0,0,0,.1-0.6A1.2,1.2,0,0,0,131.7,88.8Z"/><path class="g" d="M136.9,87.5c0.2,0,.3.2,0.3,0.5l0.9-.4,0.3-.2H140l0.3,0.3h0.1l0.2,0.2,0.2,0.4,0.3,0.5h0.2l-0.2.3-0.8.5h-0.4a1.1,1.1,0,0,0-.5-0.5h-0.9l-0.4.3h-0.2l-0.2.2-0.2.2h0l-0.2.3h-0.1v0.7a0.9,0.9,0,0,0,0,.3,5.4,5.4,0,0,0,0,1,0.6,0.6,0,0,0,0,.3,1.6,1.6,0,0,0,0,.8v0.4h-0.2v0.2h-0.5a0.8,0.8,0,0,1-.9-0.1V94.1a0.8,0.8,0,0,0,0-.4V93.2h0a4.2,4.2,0,0,1,0-.4,3.3,3.3,0,0,1,0-.5h0V91.9h0V91.5a1.2,1.2,0,0,0,0-.3V90.9h0V90.6h0V90.1a8,8,0,0,1,0-.8V88.7a3.3,3.3,0,0,1,0-.4,2.1,2.1,0,0,1,0-.6h1.3Z"/><path class="g" d="M144.9,87.3h0.2a2.6,2.6,0,0,1,2.4,1.4,3.5,3.5,0,0,0,0,.5h0V90a2.7,2.7,0,0,1,0,1v0.3h-3.7a1.1,1.1,0,0,0,1.1,1.3,1.5,1.5,0,0,0,1.2-.9h0.2l0.3,0.2h0.1l0.5,0.5a0.5,0.5,0,0,1,.1.3l-0.2.3a2.5,2.5,0,0,1-2.7,1.5,2.1,2.1,0,0,1-1.7-1.1l-0.2-.6V91.4h0V91.1a4.4,4.4,0,0,1,.7-2.6l0.5-.4,0.4-.3,0.2-.2h1.1Zm0,1.4a2,2,0,0,0-1,1.2l0.4,0.3h1.4a0.4,0.4,0,0,0,.1-0.6A1.2,1.2,0,0,0,144.9,88.8Z"/><path class="g" d="M93.2,88.5a5.4,5.4,0,0,0,.8-2.7c1.2-.2.8,0.8,0.8,1.6a1.3,1.3,0,0,0-.3.7,4.7,4.7,0,0,0-.5.6H93.3"/><path class="h" d="M6.5,104.3H7V105l-0.3.9h0a2,2,0,0,0-.2.5v0.4H6.3v0.5H6.1v0.5a1,1,0,0,0-.1.4h0v0.3H5.6v0.2h0a0.5,0.5,0,0,1,0,.4H4.4l-0.2-.6h0v-0.5l-0.2-.4H3.8l-0.2-.5H3.6v0.6H3.3v0.4l-0.2.5H2.9a0.5,0.5,0,0,1,0,.4H1.7a0.4,0.4,0,0,1,.1-0.3v-0.5H1.6V109H1.4v-0.4h0v-0.3a1.5,1.5,0,0,1-.1-0.5H1.1v-0.5h0v-1.2h0l-0.2-.4a0.4,0.4,0,0,1,.1-0.4H0.8a0.8,0.8,0,0,0,1,0H1.9a0.6,0.6,0,0,0,0,.3H2v0.2H2v1.3a1.3,1.3,0,0,0,.2-0.6v-0.6h0l0.2-.5v-0.6H4.3a0.6,0.6,0,0,1,0,.4h0a2.1,2.1,0,0,1,.2.6h0v0.6h0v0.3h0A1.6,1.6,0,0,0,5,106v-0.2H5.1l0.2-.5h0v-0.2H6.5Z"/><path class="h" d="M14.7,104.3h0.5V105l-0.3.9h0l-0.2.5v0.4H14.5v0.5H14.3v0.5a1.1,1.1,0,0,0-.1.4h0v0.3H13.9v0.2h0a0.5,0.5,0,0,1,0,.4H12.6l-0.2-.6h0v-0.5l-0.2-.4H12l-0.2-.5H11.8v0.6H11.5v0.4l-0.2.5H11.1a0.5,0.5,0,0,1,0,.4H9.9a0.4,0.4,0,0,1,.1-0.3v-0.5H9.8V109H9.7v-0.4h0v-0.3a1.5,1.5,0,0,1-.1-0.5H9.3v-0.5h0v-1.2h0l-0.2-.4a0.4,0.4,0,0,1,.1-0.4H9a0.8,0.8,0,0,0,1,0h0.2a0.6,0.6,0,0,0,0,.3h0.1v0.2h0v1.3a1.3,1.3,0,0,0,.2-0.6v-0.6h0l0.2-.5v-0.6h1.3a0.6,0.6,0,0,1,0,.4h0a2.1,2.1,0,0,1,.2.6h0v0.6h0v0.3h0a1.6,1.6,0,0,0,.2-0.6v-0.2h0.1l0.2-.5h0v-0.2h1.1Z"/><path class="h" d="M22.9,104.3h0.5V105l-0.3.9h0l-0.2.5v0.4H22.8v0.5H22.6v0.5a1.1,1.1,0,0,0-.1.4h0v0.3H22.1v0.2h0a0.5,0.5,0,0,1,0,.4H20.9l-0.2-.6h0v-0.5l-0.2-.4H20.3l-0.2-.5H20v0.6H19.8v0.4l-0.2.5H19.3a0.5,0.5,0,0,1,0,.4H18.1a0.4,0.4,0,0,1,.1-0.3v-0.5H18V109H17.9v-0.4h0v-0.3a1.5,1.5,0,0,1-.1-0.5H17.5v-0.5h0v-1.2h0l-0.2-.4a0.4,0.4,0,0,1,.1-0.4h0.2a0.8,0.8,0,0,0,1,0h0.2a0.6,0.6,0,0,0,0,.3h0.1v0.2h0v1.3a1.3,1.3,0,0,0,.2-0.6v-0.6h0l0.2-.5v-0.6h1.3a0.6,0.6,0,0,1,0,.4h0a2.1,2.1,0,0,1,.2.6h0v0.6h0v0.3h0a1.6,1.6,0,0,0,.2-0.6v-0.2h0.1l0.2-.5h0v-0.2h1.1Z"/><path class="h" d="M25.9,108.7a0.8,0.8,0,0,1,.8,1.1,0.7,0.7,0,0,1-.6.5,0.7,0.7,0,0,1-.9-0.5A1,1,0,0,1,25.9,108.7Z"/><path class="h" d="M32.6,101.8h0.6c0.1-.1.2-0.1,0.3,0.1a3.1,3.1,0,0,0,0,.5h0V103h0v0.6h0v0.4h0v1.6h0a1.6,1.6,0,0,0,0,.4h0v0.4h0v0.4h0a1,1,0,0,0,0,.5v0.2h0a1.3,1.3,0,0,0,0,.4v0.5h0a1.5,1.5,0,0,0,0,.5H32.1a0.7,0.7,0,0,1-.2-0.5H30.9l-0.4.2a2.1,2.1,0,0,1-1.2-.6l-0.3-.2-0.5-.5v-0.2a2.1,2.1,0,0,1-.1-1.3c0-.1,0-0.2,0-0.4h0l0.2-.3,0.2-.5h0.1v-0.2l0.2-.3h0.1v-0.2h0a2.3,2.3,0,0,1,2.4.2H32a2.1,2.1,0,0,1,0-.6v-1.5h0v-0.6H32A0.7,0.7,0,0,1,32,102h0.6Zm-2,4.8H30.5a1.1,1.1,0,0,0-.7,1.4h0.1a0.9,0.9,0,0,0,1.3.1,1.1,1.1,0,0,0,.8-0.9A2.1,2.1,0,0,0,30.6,106.6Z"/><path class="h" d="M37.2,104.6a2,2,0,0,1,1.3.7h0.3l0.2,0.4h0l0.2,0.4a1.2,1.2,0,0,0,0,.4,1.1,1.1,0,0,0,0,.3h0a0.7,0.7,0,0,1,0,.3v0.3h0v0.2h0v0.6a1.2,1.2,0,0,1-.4,1,1.2,1.2,0,0,1-1,.5,2.6,2.6,0,0,1-2.1-.6v-0.4h0V109H35.2a2.3,2.3,0,0,0-.1-0.7h0v-0.6h0.1a1.9,1.9,0,0,1,.2-1.1,1.7,1.7,0,0,1,.3-0.7h0A2.9,2.9,0,0,1,37.2,104.6Zm-0.2,1.7-0.4.2a2.1,2.1,0,0,0-.2,1.3,1.1,1.1,0,0,0,0,.4,0.7,0.7,0,0,0,1,.6h0.2l0.2-.3a1.5,1.5,0,0,1,0-.4v-0.8h0v-0.6h0Z"/><path class="h" d="M46.8,104.3h0.5V105l-0.3.9h0l-0.2.5v0.4H46.7v0.5H46.5v0.5a1.1,1.1,0,0,0-.1.4h0v0.3H46v0.2h0a0.5,0.5,0,0,1,0,.4H44.8l-0.2-.6h0v-0.5l-0.2-.4H44.2l-0.2-.5H43.9v0.6H43.7v0.4l-0.2.5H43.2a0.5,0.5,0,0,1,0,.4H42a0.4,0.4,0,0,1,.1-0.3v-0.5H41.9V109H41.8v-0.4h0v-0.3a1.5,1.5,0,0,1-.1-0.5H41.4v-0.5h0v-1.2h0l-0.2-.4a0.4,0.4,0,0,1,.1-0.4h0.2a0.8,0.8,0,0,0,1,0h0.2a0.6,0.6,0,0,0,0,.3h0.1v0.2h0v1.3a1.3,1.3,0,0,0,.2-0.6v-0.6h0l0.2-.5v-0.6h1.3a0.6,0.6,0,0,1,0,.4h0a2.1,2.1,0,0,1,.2.6h0v0.6h0v0.3h0a1.6,1.6,0,0,0,.2-0.6v-0.2h0.1l0.2-.5h0v-0.2h1.1Z"/><path class="h" d="M50,104.9a0.4,0.4,0,0,1,.4.4l0.4-.3a1.9,1.9,0,0,1,1.7.4l0.2,0.4v0.6h0.1a2.6,2.6,0,0,1,0,.5v0.2h0v0.2h0v0.8a0.7,0.7,0,0,1,0,.3v0.7h0a0.1,0.1,0,0,0,0,.1h0v0.2h0.1v0.2h-1l-0.3-.3a0.6,0.6,0,0,1,0-.2,1.2,1.2,0,0,1,0-.2h0v-0.2a2.5,2.5,0,0,0,0-.5v-0.3h0a0.8,0.8,0,0,0,0-.3h0v-0.3h0v-0.8h0l-0.3-.2-0.7.4-0.2.4H50.1a2.2,2.2,0,0,1,0,.5h0a0.3,0.3,0,0,0,0,.2,2.3,2.3,0,0,0,0,.5v0.7h0l-0.5.2H49.3l-0.2-.2a1.8,1.8,0,0,1,0-.4h0V109h0a0.7,0.7,0,0,0,0-.3v-0.5h0a2.4,2.4,0,0,1,0-.5v-0.2h0v-0.5a2.1,2.1,0,0,1,0-.5v-0.2a0.2,0.2,0,0,0,0-.1v-0.4a1.3,1.3,0,0,1,0-.3V105h0.2A0.6,0.6,0,0,0,50,104.9Z"/><path class="h" d="M57,102.7h0.4a1.3,1.3,0,0,1-.1.6v0.4h0a1.5,1.5,0,0,1,0,.3v0.3h1.3v0.4a1.6,1.6,0,0,0,0,.5H58.1a1.3,1.3,0,0,0-.9.2H57.2v0.4h0a1.4,1.4,0,0,0,0,.3,0.4,0.4,0,0,0,0,.2h0v0.3a0.9,0.9,0,0,0,0,.4v0.4h0.1a0.5,0.5,0,0,1,.5.3v0.6h0v0.4h0a0.9,0.9,0,0,1-.9,0l-0.7-.5v-2.3h0c0-.1,0-0.2,0-0.5v-0.4h0v-0.4H54.9a1.5,1.5,0,0,1-.1-0.9,0.5,0.5,0,0,1-.1-0.3h1.3A1.9,1.9,0,0,0,56,104h0v-0.2h0a1.1,1.1,0,0,1,0-.3,0.6,0.6,0,0,1,0-.3h0a1.1,1.1,0,0,1,.9-0.2H57Z"/><path class="h" d="M62.4,104.6a2,2,0,0,1,1.3.7h0.3l0.2,0.4h0l0.2,0.4a1.2,1.2,0,0,0,0,.4,1.1,1.1,0,0,0,0,.3h0a0.8,0.8,0,0,1,0,.3v0.3h0v0.2h0v0.6a1.2,1.2,0,0,1-.4,1,1.2,1.2,0,0,1-1,.5,2.6,2.6,0,0,1-2.1-.6v-0.4h0V109H60.4a2.2,2.2,0,0,0-.1-0.7h0v-0.6h0.1a1.9,1.9,0,0,1,.2-1.1,1.7,1.7,0,0,1,.3-0.7h0A2.9,2.9,0,0,1,62.4,104.6Zm-0.2,1.7-0.4.2a2.1,2.1,0,0,0-.2,1.3,1.1,1.1,0,0,0,0,.4,0.7,0.7,0,0,0,1,.6h0.2l0.2-.3a1.5,1.5,0,0,1,0-.4v-0.8h0v-0.6h0Z"/><path class="h" d="M72,104.3h0.5V105l-0.3.9h0l-0.2.5v0.4H71.8v0.5H71.6v0.5a1.1,1.1,0,0,0-.1.4h0v0.3H71.2v0.2h0a0.5,0.5,0,0,1,0,.4H69.9l-0.2-.6h0v-0.5l-0.2-.4H69.3l-0.2-.5H69.1v0.6H68.8v0.4l-0.2.5H68.4a0.5,0.5,0,0,1,0,.4H67.2a0.4,0.4,0,0,1,.1-0.3v-0.5H67.1V109H67v-0.4h0v-0.3a1.5,1.5,0,0,1-.1-0.5H66.6v-0.5h0v-1.2h0l-0.2-.4a0.4,0.4,0,0,1,.1-0.4h0.2a0.8,0.8,0,0,0,1,0h0.2a0.6,0.6,0,0,0,0,.3h0.1v0.2h0v1.3a1.3,1.3,0,0,0,.2-0.6v-0.6h0l0.2-.5v-0.6h1.3a0.6,0.6,0,0,1,0,.4h0a2.1,2.1,0,0,1,.2.6h0v0.6h0v0.3h0a1.6,1.6,0,0,0,.2-0.6v-0.2h0.1l0.2-.5h0v-0.2H72Z"/><path class="h" d="M75.2,104.9a0.4,0.4,0,0,1,.4.4l0.4-.3a1.9,1.9,0,0,1,1.7.4l0.2,0.4v0.6h0.1a2.6,2.6,0,0,1,0,.5v0.2h0v0.2h0v0.8a0.7,0.7,0,0,1,0,.3v0.7h0a0.1,0.1,0,0,0,0,.1h0v0.2h0.1v0.2h-1L77,110a0.6,0.6,0,0,1,0-.2v-0.2h0v-0.2a2.7,2.7,0,0,0,0-.5v-0.3h0a0.8,0.8,0,0,0,0-.3h0v-0.3h0v-0.8h0l-0.3-.2-0.7.4-0.2.4H75.3a2.2,2.2,0,0,1,0,.5h0a0.3,0.3,0,0,0,0,.2,2.4,2.4,0,0,0,0,.5v0.7h0l-0.5.2H74.5l-0.2-.2a1.8,1.8,0,0,1,0-.4h0V109h0a0.7,0.7,0,0,0,0-.3v-0.5h0a2.4,2.4,0,0,1,0-.5v-0.2h0v-0.5a2,2,0,0,1,0-.5v-0.2a0.2,0.2,0,0,0,0-.1v-0.4a1.2,1.2,0,0,1,0-.3V105h0.2A0.6,0.6,0,0,0,75.2,104.9Z"/><path class="h" d="M81.9,104.5h0.3l0.7,0.2H83l0.5,0.4,0.3,0.7,0.2,0.4v0.3h0v0.7h0v0.2h0v0.2a1.5,1.5,0,0,1,0,.2V109h0a2,2,0,0,0,.5.7v0.2H83.3v-0.3H83l-0.8.3H81.4a1.3,1.3,0,0,1-1.5-1.1,1.8,1.8,0,0,1,1.5-2.3h1.2l-0.3-.4h0l-0.2-.2H81.9a1.4,1.4,0,0,0-1.1.2H80.7l-0.4-.5q-0.4-.5.4-0.7l0.6-.3h0.5ZM82,108l-0.4.3a0.5,0.5,0,0,0-.5.5,0.5,0.5,0,0,0,.8.3l0.5-.4h0.2C82.5,108.1,82.4,108,82,108Z"/><path class="h" d="M88.7,102.7h0.4a1.4,1.4,0,0,1-.1.6v0.4h0a1.5,1.5,0,0,1,0,.3v0.3h1.3v0.4a1.6,1.6,0,0,0,0,.5H89.8a1.3,1.3,0,0,0-.9.2H88.9v0.4h0a1.3,1.3,0,0,0,0,.3,0.4,0.4,0,0,0,0,.2h0v0.3a0.9,0.9,0,0,0,0,.4v0.4h0.1a0.5,0.5,0,0,1,.5.3v0.6h0v0.4h0a0.9,0.9,0,0,1-.9,0l-0.7-.5v-2.3h0c0-.1,0-0.2,0-0.5v-0.4h0v-0.4H86.5a1.5,1.5,0,0,1-.1-0.9,0.5,0.5,0,0,1-.1-0.3h1.3a1.9,1.9,0,0,0,.1-0.7h0v-0.2h0a1.1,1.1,0,0,1,0-.3,0.6,0.6,0,0,1,0-.3h0a1.1,1.1,0,0,1,.9-0.2h0.1Z"/><path class="h" d="M92.6,101.8h1a1.7,1.7,0,0,1,.1.7h0v0.4a0.6,0.6,0,0,1,0,.2,0.8,0.8,0,0,0,0,.2,3.9,3.9,0,0,0,0,.8h0a1.7,1.7,0,0,1,0,.3v0.3l0.4-.3h0.1l0.4-.2a2.2,2.2,0,0,1,1.4.3l0.3,0.4v0.2h0l0.2,0.5v0.6h0a1.3,1.3,0,0,0,0,.4,0.1,0.1,0,0,1,0,.1h0v0.6h0a0.8,0.8,0,0,1,0,.3h0v0.6a1.1,1.1,0,0,0,0,.3V110a0.6,0.6,0,0,1-.1.3l-0.4-.2H95.4l-0.3-.2a0.9,0.9,0,0,1,0-.5,1.2,1.2,0,0,1,0-.3h0a1,1,0,0,0,.1-0.4,1.9,1.9,0,0,0,0-.9v-0.4h0a1.5,1.5,0,0,0,0-.4,0.3,0.3,0,0,0,0-.2h0v-0.3H94.4l-0.3.3H94l-0.4.5v0.2a2.2,2.2,0,0,0,0,1.1h0a1.1,1.1,0,0,0,0,.5,0.5,0.5,0,0,0,0,.3H92a0.4,0.4,0,0,1,0-.3,3.3,3.3,0,0,1,0-.8h0v-0.5h0c0-.1,0-0.2,0-0.4h0v-0.8h0v-0.5h0v-0.3a1.7,1.7,0,0,1,0-.5c0-.1,0-0.2,0-0.4v-1.4a1.7,1.7,0,0,0,0-.4v-0.2h0v-0.2h0a1.1,1.1,0,0,0,0-.4v-0.2a1.1,1.1,0,0,0,0-.4h0.5Z"/><path class="h" d="M100.5,104.5h0.1a2,2,0,0,1,1.8,1.1,2.5,2.5,0,0,0,0,.4h0v0.4a2.1,2.1,0,0,1,0,.8v0.2H99.7a0.8,0.8,0,0,0,.9,1,1.2,1.2,0,0,0,.9-0.7h0.2l0.2,0.2h0.1l0.4,0.3a0.4,0.4,0,0,1,0,.3l-0.2.2a2,2,0,0,1-2.1,1.1,1.6,1.6,0,0,1-1.4-.9v-1.9h0a3.3,3.3,0,0,1,.5-2l0.4-.3,0.3-.2h1Zm0,1.1a1.5,1.5,0,0,0-.8.9l0.3,0.2h1.1a0.3,0.3,0,0,0,.1-0.5A1,1,0,0,0,100.5,105.6Z"/><path class="h" d="M105.1,104.9a0.4,0.4,0,0,1,.4.4l0.4-.3a1.9,1.9,0,0,1,1.7.4l0.2,0.4v0.6h0.1a2.6,2.6,0,0,1,0,.5v0.2h0v0.2h0v0.8a0.7,0.7,0,0,1,0,.3v0.7h0a0.1,0.1,0,0,0,0,.1h0v0.2h0.1v0.2h-1L107,110a0.5,0.5,0,0,1,0-.2,1.1,1.1,0,0,1,0-.2h0v-0.2a2.6,2.6,0,0,0,0-.5v-0.3h0a0.8,0.8,0,0,0,0-.3h0v-0.3h0v-0.8h0l-0.3-.2-0.7.4-0.2.4h-0.1a2.2,2.2,0,0,1,0,.5h0a0.3,0.3,0,0,0,0,.2,2.5,2.5,0,0,0,0,.5v0.7h0l-0.5.2h-0.4l-0.2-.2a1.8,1.8,0,0,1,0-.4h0V109h0a0.7,0.7,0,0,0,0-.3v-0.5h0a2.5,2.5,0,0,1,0-.5v-0.2h0v-0.5a2.1,2.1,0,0,1,0-.5v-0.2a0.2,0.2,0,0,0,0-.1v-0.4a1.2,1.2,0,0,1,0-.3V105h0.2A0.6,0.6,0,0,0,105.1,104.9Z"/><path class="h" d="M111.9,104.7h0.1l0.9,0.2h0.1l0.3,0.4,0.2,0.2a0.7,0.7,0,0,1,.3.8h-0.3l-0.3.3h-0.2v-0.3a1.3,1.3,0,0,0-1.1-.4,0.8,0.8,0,0,0-.7.4,0.4,0.4,0,0,1,0,.2,0.8,0.8,0,0,0,.7.3h0.7q1.4,0.4,1.3,1.4a1.6,1.6,0,0,1-.2,1.1l-0.3.3-0.2.2h-1.4a1,1,0,0,1-.8,0l-0.6-.3h-0.3l-0.2-.3,0.2-.4h0.1v-0.2h0.3a2.8,2.8,0,0,0,1.8.4l0.2-.2a0.8,0.8,0,0,0-.1-0.4h-0.7a3.4,3.4,0,0,1-1.4-.6,2.2,2.2,0,0,1-.3-1.1,1.7,1.7,0,0,1,.6-1.6h1.2Z"/><path class="h" d="M119.6,104.6h0.4l0.4,0.2a1,1,0,0,0,0,.4v0.2h0v0.4h0v0.6a1,1,0,0,1,0,.3h0a0.2,0.2,0,0,0,0,.1v0.4h0v0.9a0.2,0.2,0,0,1,0,.2,0.3,0.3,0,0,1,0,.2v0.4a1.5,1.5,0,0,1,0,.4V110h0v1.5H120l-0.6.4a1.7,1.7,0,0,1-1.6.4,2.9,2.9,0,0,1-1.4-.4l-0.2-.2h-0.1l-0.2-.2-0.2-.2v-0.2h0l0.6-.5h0.1l0.2-.2h0.3l0.3,0.3h1.2a0.7,0.7,0,0,0,.5-0.9h-2.2l-0.3-.2-0.4-.4h-0.3a2,2,0,0,1-.2-1h0v-0.4h0v-0.6h0v-0.6h0A2.5,2.5,0,0,1,117,105a1.7,1.7,0,0,1,1.5-.3l0.4,0.3a0.5,0.5,0,0,1,0-.3h0.7Zm-1.7,1.7-0.6.2h0v0.2a2.2,2.2,0,0,0-.3.7v0.8l0.3,0.2,0.2,0.2H118l0.4-.2a1.7,1.7,0,0,0,.3-1.3A0.8,0.8,0,0,0,117.9,106.3Z"/><path class="h" d="M124,104.5h0.3l0.7,0.2h0.1l0.5,0.4,0.3,0.7,0.2,0.4v0.3h0v0.7h0v0.2h0v0.2a1.6,1.6,0,0,1,0,.2V109h0a2,2,0,0,0,.5.7v0.2h-1.7v-0.3h-0.2l-0.8.3h-0.9a1.3,1.3,0,0,1-1.5-1.1,1.8,1.8,0,0,1,1.5-2.3h1.2l-0.3-.4h0l-0.2-.2H124a1.4,1.4,0,0,0-1.1.2h-0.1l-0.4-.5q-0.5-.5.4-0.7l0.6-.3H124Zm0.1,3.4-0.4.3a0.5,0.5,0,0,0-.4.5,0.4,0.4,0,0,0,.6.2l0.4-.4h0.1A0.3,0.3,0,0,0,124.1,107.9Z"/><path class="h" d="M129.3,108.7a0.8,0.8,0,0,1,.8,1.1,0.7,0.7,0,0,1-.6.5,0.7,0.7,0,0,1-.9-0.5A1,1,0,0,1,129.3,108.7Z"/><path class="h" d="M133.6,104.9h0.2a2,2,0,0,1,1.4,1.2l0.3,0.3a0.7,0.7,0,0,1,0,.3,1.1,1.1,0,0,0-.7.4h-0.3a0.8,0.8,0,0,0-1-.4,0.9,0.9,0,0,0-.7,1.2q0,1.3,1.4,1h0.1a0.5,0.5,0,0,1,.5-0.5l0.3,0.2h0.1l0.3,0.3a0.4,0.4,0,0,1,0,.2h0l-0.2.3-0.3.3H135l-0.2.2h-0.2a2.4,2.4,0,0,1-1.2.1h-0.1l-0.5-.2h-0.2l-0.3-.2h-0.1v-0.2h-0.1a4.1,4.1,0,0,1-.1-3.6v-0.2l0.2-.2h0.3l0.2-.2h0.8Z"/><path class="h" d="M139.4,104.6a2,2,0,0,1,1.3.7h0.3l0.2,0.4h0l0.2,0.4a1.2,1.2,0,0,0,0,.4,1,1,0,0,0,0,.3h0a0.7,0.7,0,0,1,0,.3v0.3h0v0.2h0v0.6a1.2,1.2,0,0,1-.4,1,1.2,1.2,0,0,1-1,.5,2.6,2.6,0,0,1-2.1-.6v-0.4h0V109h-0.1a2.2,2.2,0,0,0-.1-0.7h0v-0.6h0.1a2,2,0,0,1,.2-1.1,1.7,1.7,0,0,1,.3-0.7h0A2.9,2.9,0,0,1,139.4,104.6Zm-0.2,1.7-0.4.2a2.1,2.1,0,0,0-.2,1.3,1.1,1.1,0,0,0,0,.4,0.7,0.7,0,0,0,1,.6h0.2l0.2-.3a1.5,1.5,0,0,1,0-.4v-0.8h0v-0.6h0Z"/><path class="h" d="M147.2,104.8h0.2l0.4,0.2h0.4l0.2,0.2a3.2,3.2,0,0,1,.3,1.6,2,2,0,0,1,0,.9,1.2,1.2,0,0,0,.1.4h0V109a0.1,0.1,0,0,1,0,.1h0a0.7,0.7,0,0,0,0,.3,1.6,1.6,0,0,1,0,.3h0v0.3h-0.1a0.8,0.8,0,0,0-.9,0h-0.2v-1.8h0v-0.5h0a2.4,2.4,0,0,0,0-.3v-0.6l-0.3-.2v0.2l-0.2.3h0v0.8h0v0.3a1.6,1.6,0,0,0,0,.8v1.1h-1.2v-0.2a0.6,0.6,0,0,1,0-.2v-0.5a1,1,0,0,1,0-.4h0v-0.5h0a1.7,1.7,0,0,0,0-.5h0v-0.2h0v-0.4a0.7,0.7,0,0,0-.4-0.8l-0.3.2h-0.1V107h0a2.3,2.3,0,0,0,0,.7h0v1.7h0a0.3,0.3,0,0,1,.2.3h-0.7c-0.1.2-.3,0.2-0.4,0.1l-0.3-.2v-0.4h0v-0.2a2.7,2.7,0,0,0,0-.6V108h0a1.6,1.6,0,0,0,0-.4,3.9,3.9,0,0,1,0-.4v-0.7h0V106h0a1.5,1.5,0,0,1,0-.5h1.3a1.2,1.2,0,0,1,1.4,0h0.2l0.4-.2h0.9Z"/></svg>
