<svg xmlns="http://www.w3.org/2000/svg" viewBox="0 0 397.7 221.4"><defs><style>.a{fill:#231f20;}</style></defs><path d="M36.5 78.9h-9.1V64.4h26.3v58.8c0 7-3.3 10.5-10.5 10.5H10.5c-6.3 0-10.5-4.5-10.5-11.2V10.8C0 4.9 4 0 10.5 0h32.7C50 0 53.7 4 53.7 11v29.2H36.5V14.5H17.1v104.6h19.4V78.9zm50.6 54.7H70V0h44.3c8.2 0 11.7 5.1 11.7 11.2v49.1c0 7.7-5.2 11.4-11.5 11.4h-2.1l16.6 61.9h-19.3L92 62.6l3-5.4h13.8V14.5H87.1v119.1zM198 122.8a10.9 10.9 0 0 1-10.5 10.8h-37.8a10.9 10.9 0 0 1-10.5-10.8v-112A10.9 10.9 0 0 1 149.7 0h37.8A10.9 10.9 0 0 1 198 10.8v112zM180.8 14.5h-24.4v104.6h24.5V14.5zm93.4 108.3a10.9 10.9 0 0 1-10.5 10.8H226a10.9 10.9 0 0 1-10.5-10.8v-112A10.9 10.9 0 0 1 226 0h37.8a10.9 10.9 0 0 1 10.5 10.8v112zM257.1 14.5h-24.5v104.6h24.5V14.5zM282.8 0h18l13.3 91.1L326.5 0h17.8l-22.1 133.6h-16.5zM397 133.6h-43.5V0h43v14.5h-25.9v43.4h24.3v14.7h-24.3v46.5H397v14.5zm-112.8 66c-.1-.9-.2-2.2-1.1-2.7a4.4 4.4 0 0 0-2-.2c-.5 0-2.4-.3-2.7.1a6.3 6.3 0 0 0 0 2.1V211a4.7 4.7 0 0 0 0 1.5c.4.4 2.8 0 3.4 0 2.6-.1 2.5-3 2.5-5s.1-5.3-.1-7.9zm34-17.1c-.2-1.9-1.1-2.9-3-2.9s-2.3-.2-2.5.1a6.3 6.3 0 0 0 0 2.1v12.1a5.7 5.7 0 0 0 0 1.9c.2.3 2.1 0 2.5 0s2-.2 2.6-1.5a10.6 10.6 0 0 0 .5-3.9 59.5 59.5 0 0 0-.1-7.9zm-35.3 11.6c1.6-.8 1.1-4.2 1.2-5.5a33.8 33.8 0 0 0-.2-6.9c-.4-1.9-1.4-2.1-3.1-2.1s-2.1-.2-2.3.1a6.2 6.2 0 0 0 0 2.1v11.4c0 .6-.1 1 .3 1.2a6.3 6.3 0 0 0 2.2 0 4.8 4.8 0 0 0 1.9-.3z" class="a"/><path d="M357.1 149.6a21.4 21.4 0 0 1-42.3 3.1c-.1-.7-.1-2.8-.5-3.1a3.9 3.9 0 0 0-1.3 0h-20.1c-1.3 0-3.1-.4-4.3 0s-.4.5-.5 1.4a21.2 21.2 0 0 1-1.2 5.2 21.4 21.4 0 0 1-40 .2 21.3 21.3 0 0 1-1.3-5.1 5.4 5.4 0 0 0-.2-1.5h-.3a5.9 5.9 0 0 0-1.6 0h-22.8a4.1 4.1 0 0 0-1.3 0c-.4.3-.3 2-.5 2.7a21.4 21.4 0 0 1-41.4 2.8 21.1 21.1 0 0 1-.6-2.4c-.1-.6 0-2.4-.3-2.9s-1.9-.2-2.5-.2h-22.7a3.1 3.1 0 0 0-1 0 4.7 4.7 0 0 0-.1 1.4 21.2 21.2 0 0 1-2.3 7.5 21.4 21.4 0 0 1-40.1-7.1 6.5 6.5 0 0 0-.2-1.7 3 3 0 0 0-1 0H82c-.5 0-.5-.1-.7.2s-.2 1.9-.3 2.5a21.2 21.2 0 0 1-.6 2.6 21.4 21.4 0 0 1-39.9 2.4 21.2 21.2 0 0 1-1.5-4.8c-.1-.6-.1-2.6-.4-2.9s-2.2 0-2.7 0H3c-.4 0-2.3-.3-2.6 0a1 1 0 0 0-.1.7V220c0 .5-.2 1.1.2 1.3a4.5 4.5 0 0 0 1.5 0h395.7a3.6 3.6 0 0 0 0-1.2v-70.5h-40.6zM287 207.9c-.1 2.1-.2 5.6-2.3 6.8s-3 .5-4.4.5h-2.4a6.2 6.2 0 0 1-2 0c-.3-.2-.2-.1-.2-.6a55.6 55.6 0 0 1 0-5.8v-31a3 3 0 0 1 0-.9 3.5 3.5 0 0 1 1.1 0h2.5a21.6 21.6 0 0 1 4.2.1c2.9.6 3.2 4.3 3.3 6.8a39 39 0 0 1-.2 8.9 4.2 4.2 0 0 1-.8 1.9l-.7.6c-.2.5-.2 0 .2.5a4.9 4.9 0 0 1 1.6 3 52 52 0 0 1 .2 9.2zm16.9-2.6c0 2.6.3 5.5-.8 7.9s-4.2 3.1-6.8 2.5c-4.5-1-3.8-7.1-3.8-10.6v-24.3c0-.7-.3-3.4.1-3.7a7.6 7.6 0 0 1 2.7.1 5.2 5.2 0 0 1 0 1.7v26.6c0 1.9-.5 5.6 1 7.1a3.2 3.2 0 0 0 3 .5c1.2-.4 1.5-1.7 1.6-2.9a39.5 39.5 0 0 0 .2-5v-24.4c0-.7-.3-3.3.2-3.6a4.9 4.9 0 0 1 2.5.1 5.3 5.3 0 0 1 0 1.8v26.4zm17.6 10c-.6 0-2.2.3-2.6 0s-.6-3.2-.7-4-.2-3.9-.3-5.8a19.7 19.7 0 0 0-.5-5.3c-.4-1.4-1.3-1.7-2.7-1.7s-1.8-.2-2.1.1a4.1 4.1 0 0 0 0 1.3v14.8a.7.7 0 0 1-.1.7 8.3 8.3 0 0 1-2.6 0 4.9 4.9 0 0 1 0-1.6v-35.2a5.5 5.5 0 0 1 0-1.7 5.9 5.9 0 0 1 1.9 0h3.3a7 7 0 0 1 3 .4 5.2 5.2 0 0 1 2.6 4 41.4 41.4 0 0 1 .2 11.2c-.1 1.4-.4 3.4-1.6 4.3s-.7.3 0 1a5.4 5.4 0 0 1 1 2.5c.7 3.4.5 7 .7 10.5.1 1.4.5 2.9.5 4.3zm16.2-10a25.8 25.8 0 0 1-1.1 7.9c-1 2.6-3.6 3.1-6.1 2.6s-3.3-3.2-3.6-5.5a60.2 60.2 0 0 1-.4-8c-.1-5.7-.2-11.4.1-17.1.1-2.4.2-5.4 1.7-7.4s5.1-2 7-.7 2.3 6.3 2.4 8.9a8.7 8.7 0 0 1 0 2.3c-.2.6 0 .3-.5.4a10.1 10.1 0 0 1-2.2 0 18.7 18.7 0 0 0-.1-5c-.1-1.3-.2-3.8-1.6-4.4-3.8-1.9-4 4.4-4 6.4-.3 7.2-.3 14.6.1 21.8.1 1.4.1 3.6 1 4.8a2.6 2.6 0 0 0 3.6.1c1-1.1 1-3.7 1.1-5.1s.1-3.8.2-5.7.4-3.9-.1-4.2-2.2 0-2.8 0-1.1.2-1.1-.7-.2-1.7.1-2 2.4 0 2.9 0 2.5-.3 3.2 0 .3.3.3 1 0 2 .1 3 0 4.4-.1 6.6zm15.2-25.5H348a4.6 4.6 0 0 0-1.5 0c-.6.3-.2 3.4-.2 4.2v8.3a6.1 6.1 0 0 0 0 2c.2.3 1.5.1 1.9.1s2.7-.1 4 0h.6a5.7 5.7 0 0 1 0 1.8c0 1.1-.3.8-1.4.8h-4c-.7 0-.9-.2-1.1.3a9.1 9.1 0 0 0 0 2.6v11.6c0 .7-.1.6.4.8s2.8 0 3.9 0 2.1-.2 2.3.1a8.7 8.7 0 0 1 0 2.8c-.3.3-2.2 0-2.6 0H346c-.3 0-2.1.2-2.4 0s0-2 0-2.4v-30.9a42.5 42.5 0 0 1 0-4.5 1.4 1.4 0 0 1 0-.5c.3-.3 2.2 0 2.6 0h4.2c.4 0 2.2-.3 2.5 0s0 2.3 0 2.8zm17.5 35.5c-.6 0-2.2.3-2.6 0s-.6-3.2-.7-4-.2-3.9-.3-5.8a19.7 19.7 0 0 0-.5-5.3c-.4-1.4-1.3-1.7-2.7-1.7s-1.8-.2-2.1.1a4.1 4.1 0 0 0 0 1.3v14.8a.7.7 0 0 1-.1.7 8.3 8.3 0 0 1-2.6 0 4.9 4.9 0 0 1 0-1.6v-35.2a5.5 5.5 0 0 1 0-1.7 5.9 5.9 0 0 1 1.9 0h3.3a7 7 0 0 1 3 .4 5.2 5.2 0 0 1 2.6 4 41.4 41.4 0 0 1 .2 11.2c-.1 1.4-.4 3.4-1.6 4.3s-.7.3 0 1a5.4 5.4 0 0 1 1 2.5c.7 3.4.5 7 .7 10.5.1 1.4.5 2.9.5 4.3zm15.2-4.8c-.3 2.4-1 4.9-3.7 5.4s-5-.2-6-2.9-.7-5.3-.6-7.9a11.9 11.9 0 0 1 .1-1.9c.1-.7 0-.4.4-.6a7.4 7.4 0 0 1 2.1 0 28.5 28.5 0 0 0 0 7.6c.1 1.1.4 2.5 1.6 2.9a2.4 2.4 0 0 0 2.9-1c1.1-2.2.8-5.4.8-7.7s.3-4.4-1.4-6-5.1-3.2-6.1-6-.6-5.2-.6-7.6-.1-5.6 1.7-7.3 4.9-1.4 6.6-.3 2.1 5.9 2.1 8.6c0 .8.2 2.9-.5 3.2a6.7 6.7 0 0 1-2.2 0 22.2 22.2 0 0 0 .1-6.1c-.2-1.9-.7-4-3.1-3.6s-2.1 3.2-2.1 4.8a50.7 50.7 0 0 0 .1 6.2c.4 4.1 6.1 4.9 7.5 8.5a15.1 15.1 0 0 1 .5 5.2 45.7 45.7 0 0 1-.3 6.6z" class="a"/><path d="M367.1 182.5c-.2-1.9-1.1-2.9-3-2.9s-2.3-.2-2.5.1a6.3 6.3 0 0 0 0 2.1v12.1a5.7 5.7 0 0 0 0 1.9c.2.3 2.1 0 2.5 0s2-.2 2.6-1.5a10.6 10.6 0 0 0 .5-3.9 59.5 59.5 0 0 0-.1-7.9z" class="a"/></svg>