<svg xmlns="http://www.w3.org/2000/svg" viewBox="0 0 239.2 180.2"><defs><style>.a{fill:none;}.b{isolation:isolate;}.c{fill:#be1e2d;}.d{fill:#fff;}.e{clip-path:url(#a);}.f{mix-blend-mode:multiply;}.g{fill:#f9f9f9;}.h{fill:#f4f5f5;}.i{fill:#f0f1f1;}.j{fill:#ededee;}.k{fill:#e9eaea;}.l{fill:#e5e6e7;}.m{fill:#e1e2e3;}.n{fill:#dddfe0;}.o{fill:#dadbdc;}.p{fill:#d6d7d9;}.q{fill:#d2d4d5;}.r{fill:#ced0d2;}.s{fill:#cbccce;}.t{fill:#c7c9cb;}.u{fill:#c3c5c7;}.v{fill:#bfc1c3;}.w{fill:#bcbdc0;}.x{fill:#b8babc;}.y{fill:#b4b6b8;}.z{fill:#b0b2b5;}.aa{fill:#adafb1;}.ab{fill:#a9abae;}.ac{fill:#a5a8aa;}.ad{fill:#a2a4a7;}.ae{fill:#9ea0a3;}.af{fill:#9b9da0;}.ag{fill:#97999c;}.ah{fill:#949699;}.ai{fill:#909395;}.aj{fill:#8d8f92;}.ak{fill:#737373;}</style><clipPath id="a"><path d="M.2 66.4h238.5v55.17H.2z" class="a"/></clipPath></defs><g class="b"><path d="M0 0h239.2v158.95H0z" class="c"/><path d="M126.3 121.5l39.3-11.3-6-20.7-43.2 12.5L91 13.8l-24.5 7 28.9 100.7h30.9m-113.5 13H7.1v-2.1h14v2.1h-5.8v16.8h-2.5v-16.8zm12.8-2.1v7.9h9.1v-7.9h2.5v18.9h-2.5v-8.8h-9.1v8.8h-2.5v-18.9h2.5zm25.6 10h-7.3v6.8H52v2H41.4v-18.8h10.2v2h-7.7v6h7.3v2zm9.9-10h2.5v16.8h8.1v2H61.1v-18.8zm19.5 19.2c-5 0-8.5-3.9-8.5-9.6s3.7-9.9 8.7-9.9 8.5 3.9 8.5 9.5-3.9 9.9-8.7 9.9zm.1-2c3.9 0 6-3.6 6-7.8s-2-7.7-6-7.7-6.1 3.8-6.1 7.9 2.2 7.6 6 7.6zm11.8-17.2h10.2v2H95v6.3h7.1v2H95v8.5h-2.5v-18.8zm17.2 2.1H104v-2.1h14v2.1h-5.8v16.8h-2.5v-16.8zm12.8-2.1v18.9H120v-18.9h2.5zm4.3 18.9v-18.9h2.7l6 9.5a52.6 52.6 0 0 1 3.4 6.1h.1c-.2-2.5-.3-4.8-.3-7.7v-7.9h2.3v18.9h-2.5l-6-9.6a54.5 54.5 0 0 1-3.5-6.3h-.1c.1 2.4.2 4.6.2 7.8v8.1h-2.3zm38.7-.8a17.1 17.1 0 0 1-5.8 1 8.9 8.9 0 0 1-9.7-9.5c0-5.6 3.9-9.7 10.2-9.7a11.8 11.8 0 0 1 4.7.9l-.6 2a9.4 9.4 0 0 0-4.2-.8c-4.6 0-7.6 2.9-7.6 7.6s2.9 7.6 7.3 7.6a8 8 0 0 0 3.2-.5v-5.6h-3.8v-2h6.2v9.1zm3.7-17.8a25.4 25.4 0 0 1 4.7-.4c2.6 0 4.3.5 5.5 1.6a4.7 4.7 0 0 1 1.5 3.6 5 5 0 0 1-3.6 4.8c1.4.5 2.3 1.8 2.8 3.8a34 34 0 0 0 1.4 5.2H179a23.8 23.8 0 0 1-1.2-4.5c-.6-2.6-1.6-3.6-3.8-3.7h-2.3v8.2h-2.4v-18.6zm2.4 8.6h2.5c2.6 0 4.3-1.4 4.3-3.6s-1.8-3.5-4.3-3.5a10.2 10.2 0 0 0-2.4.2v6.9zm20 10.3c-5 0-8.5-3.9-8.5-9.6s3.7-9.9 8.7-9.9 8.5 3.9 8.5 9.5-3.9 9.9-8.7 9.9zm.1-2c3.9 0 6-3.6 6-7.8s-2-7.7-6-7.7-6.1 3.8-6.1 7.9 2.2 7.6 6 7.6zm14.3-17.2v11.2c0 4.2 1.9 6 4.4 6s4.6-1.8 4.6-6v-11.2h2.5v11c0 5.8-3.1 8.1-7.1 8.1s-6.8-2.2-6.8-8.1v-11h2.4zm15.6.3a25.2 25.2 0 0 1 4.7-.4 7.8 7.8 0 0 1 5.3 1.6 5.1 5.1 0 0 1 1.7 3.9 5.5 5.5 0 0 1-1.5 4 7.8 7.8 0 0 1-5.8 2.1l-2-.2v7.6h-2.4v-18.6zm2.4 9l2 .2c2.9 0 4.7-1.4 4.7-4s-1.8-3.7-4.5-3.7l-2.3.2v7.3z" class="d"/><g class="e f"><path d="M238.7 126.4c-79-51.3-159.5-51.3-238.5 0v53.7h238.5v-53.7z" class="d"/><path d="M235.9 126.3c-76.4-49.6-156.2-49.6-232.7 0V180h232.7v-53.7z" class="g"/><path d="M233.1 126.2c-73.9-48-153-48-226.9 0v53.7h226.9v-53.7z" class="h"/><path d="M230.3 126.1c-71.4-46.3-149.8-46.3-221.2 0v53.7h221.2v-53.7z" class="i"/><path d="M227.5 126c-68.8-44.7-146.6-44.7-215.4 0v53.7h215.4V126z" class="j"/><path d="M224.7 125.9c-66.3-43-143.4-43-209.6 0v53.7h209.6v-53.7z" class="k"/><path d="M221.9 125.8c-63.7-41.4-140.2-41.4-203.9 0v53.7h203.9v-53.7z" class="l"/><path d="M219.1 125.6C157.9 86 82.2 86 21 125.6v53.7h198.1v-53.7z" class="m"/><path d="M216.3 125.5a176.3 176.3 0 0 0-192.3 0v53.7h192.3v-53.7z" class="n"/><path d="M213.5 125.4C157.4 89 83 89 26.9 125.4v53.7h186.6v-53.7z" class="o"/><path d="M210.7 125.3c-53.5-34.7-127.3-34.7-180.8 0V179h180.8v-53.7z" class="p"/><path d="M207.9 125.2c-51-33.1-124-33.1-175 0v53.7h175v-53.7z" class="q"/><path d="M205.1 125.1c-48.4-31.4-120.8-31.4-169.2 0v53.7h169.2v-53.7z" class="r"/><path d="M202.3 125c-45.9-29.8-117.6-29.8-163.5 0v53.7h163.5V125z" class="s"/><path d="M199.5 124.9c-43.3-28.1-114.4-28.1-157.7 0v53.7h157.7v-53.7z" class="t"/><path d="M196.7 124.8c-40.8-26.5-111.2-26.5-151.9 0v53.7h151.9v-53.7z" class="u"/><path d="M193.9 124.6c-38.2-24.8-107.9-24.8-146.2 0v53.7h146.2v-53.7z" class="v"/><path d="M191.1 124.5c-35.7-23.2-104.7-23.2-140.4 0v53.7h140.4v-53.7z" class="w"/><path d="M188.2 124.4c-33.1-21.5-101.5-21.5-134.6 0v53.7h134.6v-53.7z" class="x"/><path d="M185.4 124.3c-30.6-19.8-98.3-19.8-128.8 0V178h128.8v-53.7z" class="y"/><path d="M182.6 124.2c-28-18.2-95-18.2-123.1 0v53.7h123.1v-53.7z" class="z"/><path d="M179.8 124.1c-25.5-16.5-91.8-16.5-117.3 0v53.7h117.3v-53.7z" class="aa"/><path d="M177 124c-22.9-14.9-88.6-14.9-111.5 0v53.7H177V124z" class="ab"/><path d="M174.2 123.9c-20.4-13.2-85.4-13.2-105.8 0v53.7h105.8v-53.7z" class="ac"/><path d="M171.4 123.8c-17.8-11.6-82.2-11.6-100 0v53.7h100v-53.7z" class="ad"/><path d="M168.6 123.6c-15.3-9.9-78.9-9.9-94.2 0v53.7h94.2v-53.7z" class="ae"/><path d="M165.8 123.5c-12.7-8.3-75.7-8.3-88.5 0v53.7h88.5v-53.7z" class="af"/><path d="M163 123.4c-10.2-6.6-72.5-6.6-82.7 0v53.7H163v-53.7z" class="ag"/><path d="M160.2 123.3c-7.6-5-69.3-5-76.9 0V177h76.9v-53.7z" class="ah"/><path d="M157.4 123.2c-5.1-3.3-66.1-3.3-71.2 0v53.7h71.2v-53.7z" class="ai"/><path d="M154.6 123.1c-2.5-1.7-62.8-1.7-65.4 0v53.7h65.4v-53.7z" class="aj"/><path d="M92.2 123h59.6v53.75H92.2z" class="ak"/></g></g></svg>