<svg xmlns="http://www.w3.org/2000/svg" width="10000" viewBox="0 0 150 121.8"><defs><style>.a,.b{fill:#221f1f;}.a,.c{fill-rule:evenodd;}.c,.d{fill:#fff;}</style></defs><title>pork-tastes-good</title><path class="a" d="M107.9,56.3c1.5,0.6,3.2.8,9.6,1.1s9.4-1.4,9.4-1.4l-1.3-1-1.2-.9-1.2-.9a26.5,26.5,0,0,1-4-4.9,1.9,1.9,0,0,1-.2-0.5,0.8,0.8,0,0,0,0-.3c-0.1-.1-0.1-0.1-0.3-0.1s-0.4.6-.6,0.3a0.6,0.6,0,0,1,.1-0.8l0.7-.9a2.3,2.3,0,0,1,.9-0.6c0.1,0,.3-0.1.4,0a2.1,2.1,0,0,1-.2.4,2.2,2.2,0,0,0,.2,1,10.1,10.1,0,0,0,1.6,3,10.2,10.2,0,0,0,2.1,2.3c1.5,1.1,5.9,3.7,7.4,2.3l0.8-.7,0.9-.9,0.8-1,0.8-1,0.6-.7,0.6-.9a1.3,1.3,0,0,0,.4-0.7,2.5,2.5,0,0,0-1-1.2l-0.7-.8-0.7-.9-0.7-1-0.6-1-0.5-1-0.4-1-0.2-1V34.1l-0.3-2-0.2-1-0.2-1-0.3-.9c-1-3.2-1.8-5.3-5.5-5.4,2.5-1.6,4.7-1.5,6.3-4.2l0.6-.9,0.3-.5,0.4-.4,0.4-.4,0.5-.4c0.1-.1.3-0.3-0.1-0.3h-4.3a33.6,33.6,0,0,0-9.7,3.1c1.4-2,1.2-2.5-.6-3.8,0,0-17.4-14.2-40.4-15.9S44,4.1,37.1,7.1,27.9,12,27.9,12l-0.9.4-0.6.2H25.6A8.6,8.6,0,0,0,22.2,10a4.1,4.1,0,0,0-5,2.4c-0.9,2.1-1,4.3.3,5.9a4,4,0,0,0,5.2,1.1c0.8-.3,1.9-1.3,1.3-2.3a3.2,3.2,0,0,0-3.2-1.2,3.1,3.1,0,0,0-1.8.8l0.3,0.6c0.7-.5,2.5-0.7,3,0.1a1.1,1.1,0,0,1-.8,1.5,1.8,1.8,0,0,1-1,.1,3.2,3.2,0,0,1-1.2-.9l-0.5-.8a5,5,0,0,1-.4-2.5A2.5,2.5,0,0,1,21,12.4a1.8,1.8,0,0,1,1,.2,2.4,2.4,0,0,1,.8.9l0.3,0.7,0.4,1a1.9,1.9,0,0,0,.7.5l0.4,0.5a3.4,3.4,0,0,1,.5,1.6,2.5,2.5,0,0,1-.9,1.7l-0.3.3a3.1,3.1,0,0,0-1.1,1,10.1,10.1,0,0,0-.4,1.5L22,24l-0.2,1.8-0.2,1.6v4.8l0.2,1.6,0.3,1.6L22.5,37l0.4,1.6,0.4,1.6,0.9,3.4,1,3.5,0.5,1.2,0.5,0.9,0.5,0.7,0.6,0.5L28,50.9l0.8,0.5,1,0.6L31,52.5l1,1,0.8,1,0.7,1,0.5,1,0.4,1,0.2,0.9,0.2,1.1v4.3h0c-0.1,1-.5,1.9-0.6,2.8a18.5,18.5,0,0,0,.3,3.7c0.4,2.2.7,6.2,3.9,5.7s1.6-1.3,1.9-3.2A21.1,21.1,0,0,0,41,67V64l0.2-1V62.6l0.2-.5,1.3-2.3a2.7,2.7,0,0,1,1.5-.9,13.2,13.2,0,0,0,4.8-3.6l0.8-1.2,1.2-1.8c1.9-3,2.7-6.5,3.4-9.9l1.1-5.2a63,63,0,0,1-.5,7.3,14.1,14.1,0,0,1-.9,4.1,9.5,9.5,0,0,0-.5,1.6c-0.1.6-.5,1.1-0.6,1.7s0,0.4.3,0.5L54.9,53l0.6,0.2,1,0.4a27.6,27.6,0,0,0,4.1,1c3.6,0.7,7.1.9,10.7,1.4a31.2,31.2,0,0,0,8.8.3,30.9,30.9,0,0,0,3.9-.5c0.3-.2-0.4-2.9-0.4-4.4s0.3-3.2.3-4.8a56,56,0,0,1,.8,5.6c0.2,2.1.9,3,1.7,4.7s1.7,1.8,2.5,2.8a16.3,16.3,0,0,1,2.5,5.1l0.4,1.7,0.3,1.8v3.4c0,2.5-1,4.8-.5,7.3s0.8,2.7,2.3,3l1.6,0.2h2.8l0.2-.2,0.3-.3v-15L99.2,65l0.2-1.3,0.3-1.3,0.4-1.3,0.5-1.2,0.6-1.2c2.4-3.1,5.2-6.8,6.2-10.6,0.7,2.4-2.1,6.6-.2,8.1Z"/><path class="b" d="M10.4,99.1c-1.3-1.6-3-1-4.4,0-6.6,4.5-7.6,16-3.6,22.5,0.4,0.7,1.3-.2,1.6-0.6,2.8-5,.2-9.7-0.8-14.7l-0.2-.3a11.8,11.8,0,0,1,1.9-3.5c0.7-.8,2-2.1,3.1-1.7a2.5,2.5,0,0,1,1.4,2.4c0.1,1.7-.8,5.1-2.8,5.6s-1.8,2.8-.5,2.5c3.1-.8,4.8-4.9,5.2-7.8A5.6,5.6,0,0,0,10.4,99.1ZM3.3,117.9A16.7,16.7,0,0,1,2,110.7C2.8,113.1,3.6,115.6,3.3,117.9Z"/><path class="b" d="M16.2,112.7c-1-1.5-2.9-2.8-4.3-1.1l-0.3.5H11.3c-4.8,3,1,10.9,4.9,6.6C17.8,117,17.5,114.6,16.2,112.7Zm-4.8,1.7h0Zm3.9,2.8c-0.5,1.1-2.2.1-2.8-.4a4.3,4.3,0,0,1-1-1.4v-0.3a1.9,1.9,0,0,0,1.4-1.8l0.3,0.2a4,4,0,0,1,1.1,1.1C14.9,115.2,15.6,116.7,15.3,117.2Z"/><path class="b" d="M26.5,109.5c-2.1-1.6-4.1.2-5.2,2l-0.5,1a12.2,12.2,0,0,1-.6-1.7c-0.4-1.3-2.2.6-1.9,1.6s1.9,4.1,2.6,6.2l0.3,0.9c0.4,1.4,2.1-.7,1.9-1.6L22.8,117a9.1,9.1,0,0,1-.4-3.6c0.2-1.6,1.4-2.5,2.8-1.5S27.4,110.2,26.5,109.5Z"/><path class="b" d="M37.1,116.1c-1.7-1-2.4-3.1-4-4.3a3.4,3.4,0,0,0-2.4-.6V111a7.7,7.7,0,0,1,4-2.8c1-.2,1.8-2.8.5-2.5a9.2,9.2,0,0,0-4.7,3,25.5,25.5,0,0,1,.5-7.4c0.1-.5-0.1-1.1-0.7-1a1.9,1.9,0,0,0-1.2,1.5,29.6,29.6,0,0,0-.4,9.1l-1.5,1.8c-0.5.6-.8,2.5,0.5,1.8l1.3-.7q0.2,1.2.4,2.3c0.1,0.7.3,1.4,0.5,2a3.1,3.1,0,0,1,0,1.6c-0.3,1.8,1.8.7,1.9-.5a6.3,6.3,0,0,0-.1-3.1c-0.2-.8-0.4-1.6-0.5-2.4a5,5,0,0,1,1.6,1.3c1,1.2,1.7,2.5,3,3.3S38.1,116.7,37.1,116.1Z"/><path class="b" d="M64.6,100c-3.1-.8-6.4.2-9.5,0.6l-1.9.2c-0.2-.5-0.9-0.3-1.4.2-2.9.3-5.8,0.5-8.7,0.9-1,.2-1.9,2.7-0.5,2.5s5.5-.6,8.2-0.9c-0.7,2.5-.9,5.1-1.4,7.6s-1.1,5.5.4,8.1c0.6,1,2.2-1.1,1.7-2.1s-0.5-4.7-.1-7,0.6-4.6,1.2-6.9h0.9c3.3-.4,6.7-1.5,10-0.7C64.7,102.8,65.9,100.3,64.6,100Z"/><path class="b" d="M63.6,115.6a5.3,5.3,0,0,1-3.1-2.3,5.9,5.9,0,0,0-.1-2.5,0.5,0.5,0,0,0-.7-0.4c-0.6-2.7-4.3-.7-5.3.7a6.6,6.6,0,0,0-.5,7.2c1.3,2.1,3.5.7,4.7-.7l0.9-1.4a5.9,5.9,0,0,0,3.2,1.9C63.6,118.4,64.8,115.9,63.6,115.6Zm-7.6,1.1c-1.1-.7-1.1-2.2-0.8-3.2a2.4,2.4,0,0,1,.9-1.5c0.5-.3,1.7-0.4,1.8.3a0.5,0.5,0,0,0,.5.4,4.8,4.8,0,0,0,.1,1.5C58.1,115.7,57.2,117.5,55.9,116.7Z"/><path class="b" d="M70.8,107.6c-2.1-3.4-6.7,0-6.9,3.1s2.2,2.8,3.8,3,2.5,0.1,2.6.9-2.3,1.4-2.9,1.2-2.4,2-1.4,2.4c3.5,1.4,9.1-5.1,4.6-6.6-1.1-.4-4.7-0.2-4.8-2a2.3,2.3,0,0,1,1.3-.8,1.7,1.7,0,0,1,2,.9c0.6,1,2.3-1.2,1.7-2.1h0Z"/><path class="b" d="M82.5,103.8a15.8,15.8,0,0,0-6.9-.5,25.6,25.6,0,0,1,.7-4.5l0.4-.6V98a0.9,0.9,0,0,0-.4-1.3H76.2c-0.6-.1-1.2.7-1.3,1.2a27.9,27.9,0,0,0-1.1,5.9l-2.1.6c-1,.3-1.8,2.9-0.5,2.5l2.4-.6c0,0.7,0,1.3-.1,2-0.1,3.4-.9,7-0.2,10.4,0.3,1.3,2.1-.6,1.9-1.6-0.6-2.9.2-5.9,0.2-8.8,0-.8,0-1.5,0-2.3a15,15,0,0,1,6,.5C82.6,106.6,83.8,104.2,82.5,103.8Z"/><path class="b" d="M84.6,115c-1.4.6-3.3,1.3-4.8,0.5a1.7,1.7,0,0,1-.7-0.7,4.4,4.4,0,0,0,4.4-3.5c0.5-2.5-1.8-3.3-3.8-2.3s-3.5,5-2.5,7.4,5.2,1.8,7.4.8S86.1,114.3,84.6,115Zm-3-3.4c-0.1,1-1.9.7-2.5,0.6l0.3-.6C79.7,111.1,81.7,110.5,81.6,111.5Z"/><path class="b" d="M117.9,111.7a10.4,10.4,0,0,0-5.1-2.8c-2-.4-4,0.7-5.5,1.9s-0.9,3,.5,1.9a5,5,0,0,1,4.4-1.2,0.6,0.6,0,0,0,.3.4c1,0.6.1,1.6-.4,2.3a3.5,3.5,0,0,1-3.4,1.2c-2.7-.4-5-3.3-5.9-5.7s0.8-5.7,3.2-7.3a10,10,0,0,1,3.6-1.4h2.3c-0.5,1.3.8,1.9,1.6,0.6s0.7-2.7-.9-3.2-3.8.3-5.4,1c-4.1,1.9-7.1,6.3-6.4,10.9s5.3,8.6,9.6,7.2a9.3,9.3,0,0,0,4.6-5l1.6,1.3C117.3,114.8,118.8,112.5,117.9,111.7Zm-5.9-10.4h0Zm0-.1v0Z"/><path class="b" d="M125.9,109.4c0.3-.8.3-1.7-0.5-1.4a9.9,9.9,0,0,0-6.2,6.3c-0.9,3.2,1.4,5.5,4.6,5.3C129.2,119.3,131.8,110,125.9,109.4Zm-1.3,7.7c-1.6.1-4.1-.9-3.5-2.9a5.9,5.9,0,0,1,2.5-3.1c-0.1.4,0,.8,0.5,0.8s3.2,0.5,3.3,2.3A2.9,2.9,0,0,1,124.6,117.1Z"/><path class="b" d="M134.2,109.2a0.6,0.6,0,0,0-.5-0.5c-6-.7-3.6,13.9,2.7,11C140.8,117.6,138.4,107.3,134.2,109.2Zm2.3,8.1c-1.4,1.4-3.1-1.3-3.5-2.3a8.7,8.7,0,0,1-.8-3,2.9,2.9,0,0,1,.1-0.9c0,0.1.1,0,.5,0h0.1c0,0.6.4,1,1.2,0.4S137.7,116.1,136.5,117.3Z"/><path class="b" d="M148.6,113.8l-0.5.5c0.2-4.9-1.4-9.7-1.8-14.6-0.2-1.6-2.1,0-2,1.1,0.4,3.9,1.5,7.7,1.8,11.6a4.2,4.2,0,0,0-1.8-1.8c-2.2-1-4.3,1.5-4.4,3.5s0.7,4.7,3.2,5,5.1-2.1,6.6-3.8S149.8,112.5,148.6,113.8Zm-6.8-.5c0-.5,1-0.4,1.3-0.2a3.8,3.8,0,0,1,1.3,1.4l1.1,1.7-1.1.4C142.5,117,141.8,114.8,141.8,113.4Z"/><path class="b" d="M92,110.1c0.8,0.7,2.3-1.6,1.4-2.4s-4.3-.5-5.3,1.3,0.3,3.7,1.8,5a4.8,4.8,0,0,1,.9,1l-0.6.2a3.5,3.5,0,0,1-1.5,0l-0.4-.2c0.1-.4.1-1.2-0.4-1.2a1.6,1.6,0,0,0-1.3,1.2c-1.5,3.5,3.5,3.1,5.1,1.7a3,3,0,0,0,.6-4.2c-0.6-.9-1.6-1.4-2.3-2.3l-0.3-.6,0.5-.2A2.1,2.1,0,0,1,92,110.1Z"/><path class="a" d="M93.1,85.3a1.8,1.8,0,0,1,.1-0.6A2.8,2.8,0,0,1,96,83.5a3,3,0,0,1,2.4,1.4,9.6,9.6,0,0,1,.3,2.5,9.6,9.6,0,0,1-3.1-1.1c-0.4.4-.7,0.9-1.1,1.4S93,86.3,93.1,85.3Z"/><path class="a" d="M101.6,81.3c-0.3-.9.1-1.7,2-2.1a2.3,2.3,0,0,1,3,1.6,30.7,30.7,0,0,1-.2,3.3c-1.4-1.3-1.7-1.1-2.3.6C103.4,83.8,102,82.5,101.6,81.3Z"/><path class="a" d="M53.5,53.6c-0.2-.1-0.6-0.4-0.7-0.1a7.2,7.2,0,0,0-.3.9l-0.2.6-0.3.9a0.9,0.9,0,0,0-.1.8L52.5,58,53,59.1l0.5,1.2,0.4,1.2,0.8,2.4,0.7,2.5L56,68.9l0.7,2.5L57.2,74l0.5,2.1a3.3,3.3,0,0,1,.1.6,1.6,1.6,0,0,0-.1.5,3.8,3.8,0,0,0,1.1,1.1l0.4,0.2h0.6a5.9,5.9,0,0,0,2,.1c0.8-.2.7-0.5,0.6-1.2l-0.4-2.8-0.3-2.8v-9l0.2-1.2,0.2-1.4,0.3-1.3L63,57.5l0.3-1.2c0-.6-0.9-0.6-2.5-0.8A50.4,50.4,0,0,1,53.5,53.6Z"/><polygon class="a" points="100.8 78.2 100.8 78.2 100.8 78.1 100.7 78.1 100.6 78.1 100.6 78.1 100.5 78.1 100.4 75.5 100.3 72.8 100.4 71.3 100.5 69.9 100.5 68.5 100.8 67 101 65.6 101.3 64.2 101.6 62.9 102.1 61.7 102.7 60.4 103.3 59.3 104 58.2 104.8 57.3 105.3 57.3 106 57.4 106.8 57.5 107.6 57.7 108.4 57.9 109.1 58.2 109.8 58.4 110.3 58.6 110.1 59.6 109.7 60.4 109.2 61.2 108.8 62 107.9 63.5 107 65 106.5 65.7 106 66.5 105.7 67.2 105.3 68.1 104.9 68.9 104.7 69.8 104.5 70.7 104.4 71.8 104.4 72.4 104.5 72.9 104.6 73.4 104.6 74 104.8 74.6 104.9 75.2 104.9 75.8 105 76.4 104.5 76.7 104 77.1 103.5 77.5 103 77.7 102.5 77.9 102 78.1 101.4 78.2 100.8 78.2"/><path class="a" d="M129.1,9.8l-1.4.4-1.7.4-1.8.6-1.8.6c-0.9.3-4.3,1.2-3.5,2.5a3.5,3.5,0,0,0,1.3.8,7.7,7.7,0,0,0,1.3,1c1.1,0.4,2.7-.4,3.5-1l0.5-.4,0.4-.5,0.4-.5,0.8-1,0.7-1,0.4-.5,0.4-.4,0.5-.4,0.6-.4C130.4,9.7,129.8,9.7,129.1,9.8Z"/><path class="a" d="M58.3,79.2a10.3,10.3,0,0,0,4.7.2,24.7,24.7,0,0,1,.8,2.7H62.1c0.1,0.3.1,0.8,0.3,1-1.7-.4-4.4-1.5-4.1-3.4V79.2Z"/><path class="a" d="M34.6,77.3c0.4-1.5,2.5.6,4,.9s1.2-.3,1.8.4-0.1,2.4.2,3.1c-1.7-.3-2-1.5-2.9.5C36.2,81,34.5,79.6,34.6,77.3Z"/><path class="a" d="M134.9,52.2l0.5-.6a8.1,8.1,0,0,1,1.4-2.1,1.2,1.2,0,0,1,1.4.3l0.5,0.8a1.4,1.4,0,0,1,0,1,2.7,2.7,0,0,1-1,1.4h-0.4a1,1,0,0,0-.5.5,1.6,1.6,0,0,0,0,.6,1.2,1.2,0,0,1-.5.7l-1,.9a1.7,1.7,0,0,1-1.8.6,2.3,2.3,0,0,1-1.2-.8,1.2,1.2,0,0,1,.5-1.2Z"/><path class="c" d="M125.1,35.9h0c0.1,0.2.4,0,.4-0.2a1.1,1.1,0,0,0-.5-0.9,1.7,1.7,0,0,0-1.7-.2,1.8,1.8,0,0,0-1.2,1.7,1.6,1.6,0,0,0,1,1.6,1.7,1.7,0,0,0,1,0l0.5-.3s0.1-.1.1-0.2h-0.3a1.4,1.4,0,0,1-1.5,0,1.6,1.6,0,0,1,.2-2.3l0.5-.3h0.4c0.1,0.1,0,.2-0.1.3s0.4,0.6.6,0.4,0.2-.6.4-0.3A1.5,1.5,0,0,1,125.1,35.9Z"/><path class="d" d="M41.8,45.5l-1.3-2.7a68,68,0,0,1-4.2-10.2c-2.3-6-2.4-11-2.1-11.3a1.8,1.8,0,0,1,.2-0.5,2.8,2.8,0,0,1,1.8-1.9c0.6,0,.6.7,0.9,2.3a2.3,2.3,0,0,1,0,.5,10.8,10.8,0,0,0,.3,3.9A22.7,22.7,0,0,1,39,16.2c2.7-6.5,7.8-8.5,7.9-8.4a6.6,6.6,0,0,1,2.3-.3A6.2,6.2,0,0,1,54,10.4c2.5,3.7,1.9,9.5-1,12.6a10.4,10.4,0,0,1-5.7,3.7c-1.2.2-1.6,0.1-1.3-.1a13.6,13.6,0,0,0,5.9-4.7c-0.3.4,2.8-3.7,1.1-8.1-0.6-2.1-2.3-3.5-3.7-3.5a4.3,4.3,0,0,0-2.3.6c0.2-.1-3.6,1.6-5.7,7.2s-1.1,13.9,1.5,21.6c0.6,2,1.4,3.9,2.1,5.8,0,0,2,3.4.4,4.2S42.4,46.7,41.8,45.5Z"/><path class="d" d="M87.8,11.9L82.4,9.7a36.9,36.9,0,0,0-10.5-2,25.7,25.7,0,0,0-7.5.8,8.1,8.1,0,0,0-3.4,1.9v0.2c-0.2,1.6,1,1.2,1.3,1.2h0.1A6,6,0,0,1,65,10.3a23.4,23.4,0,0,1,6.8-.7h0.9a14.8,14.8,0,0,0-1.3,3.6,47.3,47.3,0,0,0-1,8.3C70.1,27.3,70,33.3,70,33.3a47.6,47.6,0,0,0,1.2,6.9c0.9,2.8,1.9,4.4,1.6-.2-0.1-2.7.1-6.5,0.1-6.5s0-5.8.4-11.8a45.8,45.8,0,0,1,.9-7.9,14.7,14.7,0,0,1,1.7-3.9,44.1,44.1,0,0,1,5.8,1.5s6.1,1.6,5.9,1.4C90,13.3,91.6,13.2,87.8,11.9Z"/><path class="d" d="M92.9,23.9c3.5-3,9.1-3.8,12.6-3.6a10.2,10.2,0,0,1,5.7,1.8h0.3c2.3,0.5,2.3-1,1.6-2.1l-0.2-.2a13.1,13.1,0,0,0-7.1-2.3c-4.2-.1-9.8.4-14.6,4.1a11,11,0,0,0-3.7,7.7,16,16,0,0,0,1.3,7.1,12.9,12.9,0,0,0,4.9,5.3,13.4,13.4,0,0,0,6.6,1.9,5.9,5.9,0,0,0,4.4-1.9,14.4,14.4,0,0,0,3.8-5c1.1,0.4,5.4,1.6,3.2-.8s-6-2.8-8.4-2.3c-0.8.1-3.1,1-3.4,1.8s5.1,0,6,.7-0.8,3-1.4,3.5a5.5,5.5,0,0,1-3.8,1.7,8.7,8.7,0,0,1-3.6-.9,7.8,7.8,0,0,0-1.5-.8,11.2,11.2,0,0,1-4.1-3.9C90,32.6,89.3,27,92.9,23.9Z"/><path class="a" d="M16.7,21.1a2.7,2.7,0,0,1,.3-1.4l0.4-.6a4.6,4.6,0,0,1-.4-0.5,2.7,2.7,0,0,0-.5,1A3,3,0,0,0,16.7,21.1Z"/></svg>
