<svg xmlns="http://www.w3.org/2000/svg" viewBox="0 0 462.4 765.9"><defs><style>.a,.c{fill:#231f20;}.a{fill-rule:evenodd;}.b{fill:#d71920;}.d{fill:#fff;}</style></defs><path d="M460.4 75c-6.7-8-24.8-9.5-34-14.7-14.3-8.1-20.2-24.3-34.3-32-18.8-10.2-48.1-13-68.2-6.2-7.9 2.6-15.9 7.9-21.8 12.2-8.7 6.4-17.7 10.4-27.1 15.8-7.8 4.5-17.8 11-2.7 11.7 6.1.3 11.6-.4 17.5 1.5-9.5 14.3-18.9 32-31.7 43.6-10.7 9.7-24.2 17.4-37.7 22.5s-30.5 11.7-46.7 11.7c-20.4-.1-40-8.1-59-14.4-6.2-2.1-15.5-6-22.1-5.4s-12.4 11.4-17.8 11.4c-8.2 0-23.5-17.9-28.3-23.1-16.7-18-26.6-41.8-33.5-65.1-2.5-8.6-4.7-17.4-5.3-26.3-.3-5.4.3-10.8-1.6-15.9-1.4 25.7-2.3 54.3 5 79.3 5.2 17.6 17.1 33.3 29.6 46.4 7 7.4 15 12.9 20.4 21.4-24 25.2-29.8 60.7-30.4 94.1-.8 36.8 17.1 71.4 13.3 107.7-1.9 17.6 7.3 33.5 15.3 48.8 6.7 13 17.8 47.7 36.1 44.5 7.3-1.2 17.8-5.4 13.4-13.5S94.1 417.4 89 409.3c-10.5-16.5-14.2-30.3-13.5-49.7a346.6 346.6 0 0 1 7.8-60c3.7-17.3 11.9-31.9 16.7-48.7 22.9 16.1 45.9 33 70.5 46.4 6.6 3.6 13.5 5.9 20.4 8.9s9 2.8 10.8 9.4c4.3 15.4 3.4 34.5 5.5 50.5 2.9 21.7 5.8 44.8 5.7 66.7-.1 15.6-17.8 59.1 11.9 53.3 3.5-.7 6.3-2 9.9-2s5.7 2.1 8.2 1.4c4.3-1.2 5.1-2.8 4.6-7s-6.3-8.8-8-12.8-1.4-6-1.8-9.1c-1.6-15-1.9-30.3-2.4-45.4-.6-17.9-1.3-36.1.8-53.9 1.2-10 .3-31.8 11.1-35.9 14.9-5.7 31.2-5.4 46.1-12.9 21.6-10.8 32.7-32.5 43-53.4 14-28.4 17.2-57.6 25.6-87.6a313 313 0 0 1 11.6-33.5c4.4-10.8 3-12.5 15-13 23-.9 51.6.6 64.5-22.2 3.9-6.8 13.6-16.4 7.4-23.8zm-92-20.8c-1.6.2-3.7-.5-5.3-.8 2.2-7.6 17.8-12.6 18.8-2.9s-7.8 4.3-13.6 3.6zM312 392.7c.2-21.2-.8-44.5 6-64.8 1.8-5.3 11.2-35 7.2-36.3-2.4-.8-13 12.8-15.7 15.2l-18.9 16.6c6.2 28.3 5.9 54.4 3.8 83.1-.7 10.3-1.8 20.7-2 31.1-.1 4-1.2 11 1.7 14s13 5.1 17 6 10.8 1.1 14.2-3.9c6.1-8.7 1.5-11.6-3.4-17.4-8.7-10.3-10-30.8-9.9-43.6zm-151.2-9.4c-6.7-15.7-9.3-36.8-7.8-53.6 1.1-12.9 14.7-23.5-1.7-29.2-14.2-4.9-23.5-12.1-33.8-23-3.1-.8 1 20.8 1.7 24.2 3.3 15.8 4.9 31.8 10 47.3 3 9 7.1 17.1 10.8 25.7s4 17.3 6.3 26.2c.8 3.1 1.4 9.1 3.3 11.5 4.6 6 15.7 4.2 21.6 1.9s9.7-7.1 4.7-13.2-11.5-9.3-15.1-17.8z" class="a"/><path d="M53.7 567.4l-1.1-1.2-.8-.9-1.1-1.5-2.1-3-2.9-4.4-2.6-3.9-2.8-3.9-3.6-4.4a36 36 0 0 0-3.8-3.8 9.4 9.4 0 0 0-4.3-2.2l-2.5-.4h-2v9.9q0 4.2.1 7.1t.2 4.8a6.4 6.4 0 0 0 1 3.3 7.7 7.7 0 0 0 2.7 2.3 12.3 12.3 0 0 0 5.6 1.4v.9H5.5v-.9a24.5 24.5 0 0 0 4.2-1.1 6.8 6.8 0 0 0 3.2-2.1 4 4 0 0 0 .7-1.6 16.6 16.6 0 0 0 .4-2.4q.1-1.3.2-2.8t.1-2.9 0-3.3v-31.8q0-1.6 0-3.2t-.2-3.1a16.5 16.5 0 0 0-.4-2.6 3.7 3.7 0 0 0-.8-1.7 6.6 6.6 0 0 0-2.9-1.9l-4-.8v-.9h24q5.9 0 10.4.4a20.8 20.8 0 0 1 8.3 2.4 16.9 16.9 0 0 1 6.2 5.5 15.1 15.1 0 0 1 2.4 8.7 13.8 13.8 0 0 1-1.2 5.8 15.5 15.5 0 0 1-3.2 4.6 19.3 19.3 0 0 1-4.6 3.4 35.5 35.5 0 0 1-5.5 2.4v.3a11.3 11.3 0 0 1 2.9 2.3 32.1 32.1 0 0 1 2.7 3.3l4.9 7.2 4.8 6.8a26.8 26.8 0 0 0 6.3 6.7 16.9 16.9 0 0 0 7.2 2.7v.9H53.7zM45 512.9a15.1 15.1 0 0 0-6.4-5.4 19.1 19.1 0 0 0-4.4-1.4 26.2 26.2 0 0 0-4.9-.4h-3l-1.8.2-.2.9a7.1 7.1 0 0 0-.1 1q0 .6-.1 1.7v3.1q-.1 3.1-.1 6.9t0 7.4v9.6q3.6 0 6.7-.3a27.3 27.3 0 0 0 6-1.3 16.1 16.1 0 0 0 4.8-2.4 13.8 13.8 0 0 0 3.3-3.4 14 14 0 0 0 1.9-4.1 16.9 16.9 0 0 0 .6-4.6 14.1 14.1 0 0 0-2.3-7.5zm59.9 45.6a16.5 16.5 0 0 1-3.3 4.4 17.6 17.6 0 0 1-5 3.3 15.8 15.8 0 0 1-6.5 1.3 19.5 19.5 0 0 1-8.1-1.7 17.7 17.7 0 0 1-6.3-4.7 21.6 21.6 0 0 1-4-7.1 26.3 26.3 0 0 1-1.4-8.6 22 22 0 0 1 5-13.8 18.8 18.8 0 0 1 5.9-4.7 16.4 16.4 0 0 1 7.7-1.8 23 23 0 0 1 6.4.9 14.9 14.9 0 0 1 5.3 2.7 13.8 13.8 0 0 1 3.6 4.5 16.4 16.4 0 0 1 1.7 6.4H77.7q0 .7-.1 1.6t-.1 1.9a23.5 23.5 0 0 0 1.1 7 18.5 18.5 0 0 0 3.1 6 14.2 14.2 0 0 0 5.1 4.1 16 16 0 0 0 7.1 1.5 13.3 13.3 0 0 0 7.7-2.2 10.5 10.5 0 0 0 4.3-5.5l.7.2a16.1 16.1 0 0 1-1.7 4.3zm-10-29.5a7.9 7.9 0 0 0-6-2.3 7.3 7.3 0 0 0-4.4 1.4 16.3 16.3 0 0 0-3.4 3.4 17.1 17.1 0 0 0-2.2 3.9 16 16 0 0 0-1 3h16a6.8 6.8 0 0 0 2-.4 6.4 6.4 0 0 0 .9-1.3 4.3 4.3 0 0 0 .3-1.8 7.7 7.7 0 0 0-2.2-5.9zm45.5 38.7h-.5V559h-.1a17.8 17.8 0 0 1-6 6.5 16.3 16.3 0 0 1-8.6 2.1 16 16 0 0 1-6.3-1.3 14.8 14.8 0 0 1-5.4-3.9 19.9 19.9 0 0 1-3.8-6.6 26.4 26.4 0 0 1-1.4-9 22.1 22.1 0 0 1 1.6-8.5 20.6 20.6 0 0 1 11.6-11.5 24.1 24.1 0 0 1 9.1-1.7 26.7 26.7 0 0 1 4.9.4l4.2 1.1q-.1-1.3-.1-3.6t0-4.6V511l-7.2-2.7v-.5l13.9-3.9h.7v56.8l2.6 1.2 3.6 1.5v.6zm-.6-32.9a17 17 0 0 0-4.9-5.8 9.5 9.5 0 0 0-5.5-2.2 10.4 10.4 0 0 0-5.8 1.6 12.8 12.8 0 0 0-4 4.2 19.8 19.8 0 0 0-2.3 6 32.8 32.8 0 0 0-.7 7 27.5 27.5 0 0 0 .9 7 19 19 0 0 0 2.6 6 14 14 0 0 0 4.3 4.2 11.3 11.3 0 0 0 6 1.6 8.7 8.7 0 0 0 6.2-2.5 11.1 11.1 0 0 0 3.3-6.2v-20.9zm95.6-10.1a29.6 29.6 0 0 0-3.4-7.9 28 28 0 0 0-5.4-6.4 24.6 24.6 0 0 0-7-4.3 21.8 21.8 0 0 0-8.3-1.6 21.3 21.3 0 0 0-10.8 2.7 24.9 24.9 0 0 0-7.9 7.2 34.2 34.2 0 0 0-4.9 10.1 39.9 39.9 0 0 0-1.7 11.6 38 38 0 0 0 1.8 11.8 29.3 29.3 0 0 0 5.1 9.6 24.3 24.3 0 0 0 8.1 6.5 23.2 23.2 0 0 0 10.5 2.4 21.9 21.9 0 0 0 8.5-1.7 25.8 25.8 0 0 0 7.1-4.4 26.5 26.5 0 0 0 5.3-6.3 23.3 23.3 0 0 0 2.9-7.3h1.1l-.3 19.3H235a26.4 26.4 0 0 0-2.2-2.7 3.4 3.4 0 0 0-1.6-1.2l-1.6.9a25.6 25.6 0 0 1-4 2 38.1 38.1 0 0 1-6.4 1.9 40.5 40.5 0 0 1-8.7.8 43.9 43.9 0 0 1-14.7-2.3 31.8 31.8 0 0 1-11.2-6.6 28.5 28.5 0 0 1-7-10.2 34.2 34.2 0 0 1-2.2-16.6 31.8 31.8 0 0 1 .8-4.3 36.2 36.2 0 0 1 1.6-4.8 32.8 32.8 0 0 1 2.6-5 31.4 31.4 0 0 1 4.6-5.7 29 29 0 0 1 6.4-4.8 35.7 35.7 0 0 1 8.3-3.3 40.9 40.9 0 0 1 10.4-1.2 39.1 39.1 0 0 1 9.2 1 42 42 0 0 1 6.6 2.1 24.7 24.7 0 0 1 4 2.1l1.6 1 .7-.4 1.1-1 1.2-1.3 1.1-1.5h1v19.6h-1.1zm45.3 37.4a10.8 10.8 0 0 1-1.8 2.8 7.5 7.5 0 0 1-2.7 1.9 8.5 8.5 0 0 1-3.4.7 8.5 8.5 0 0 1-5.3-1.8q-2.3-1.8-2.3-6.1h-.2a21.5 21.5 0 0 1-1.9 2.5 17.2 17.2 0 0 1-2.8 2.6 14.2 14.2 0 0 1-3.6 2 12.2 12.2 0 0 1-4.3.7 10.8 10.8 0 0 1-2.8-.4 6.7 6.7 0 0 1-2.6-1.4 7.6 7.6 0 0 1-1.9-2.6 9 9 0 0 1-.7-3.9 7.2 7.2 0 0 1 2-4.7 21.9 21.9 0 0 1 4.9-4.1l5.1-3.2 3.9-2.2 2.9-1.6 2.1-1.2v-9a3 3 0 0 0-.3-.8 4.6 4.6 0 0 0-1-1.4 7.2 7.2 0 0 0-2.1-1.3 8.7 8.7 0 0 0-3.4-.6 8.2 8.2 0 0 0-2.8.5 9.8 9.8 0 0 0-2.4 1.2 8.5 8.5 0 0 0-1.7 1.5 2.2 2.2 0 0 0-.6 1.3v3.9a2.7 2.7 0 0 1-1.3 2.2 4.5 4.5 0 0 1-2.8 1 3.3 3.3 0 0 1-2.4-1 3.2 3.2 0 0 1-1-2.3 3.7 3.7 0 0 1 .5-1.9 6.8 6.8 0 0 1 1.3-1.6l1.7-1.2 1.6-1 4.6-2.5 4.5-2.1 3.9-1.4a10.9 10.9 0 0 1 2.9-.5 8.3 8.3 0 0 1 4.3 1.2 7.2 7.2 0 0 1 2.9 2.9 5.3 5.3 0 0 1 .4 2.1q.1 1.5.1 3v21q0 3.9 1.4 5.2a4.4 4.4 0 0 0 3.1 1.3 4.5 4.5 0 0 0 3-.8 4.2 4.2 0 0 0 1.3-2.1h.5a9.1 9.1 0 0 1-.8 3.2zm-15.5-18.5a35.2 35.2 0 0 1-3.9 2.4l-4.6 2.8a20.4 20.4 0 0 0-3.9 3.3 5.9 5.9 0 0 0-1.6 4.1 6.2 6.2 0 0 0 1.6 4.1 5.2 5.2 0 0 0 4.1 1.8 14 14 0 0 0 4-.5 7.7 7.7 0 0 0 3.2-2 3.2 3.2 0 0 0 1.1-2.5v-13.5zM311 533a3.4 3.4 0 0 1-2.6 1.3 4.4 4.4 0 0 1-2.2-.5 6.8 6.8 0 0 1-1.4-1.1l-1.3-1.1a3.4 3.4 0 0 0-1.9-.5 3.4 3.4 0 0 0-2.1.7 9.6 9.6 0 0 0-1.9 1.9 14.7 14.7 0 0 0-1.6 2.6l-1.2 2.8v25.2a2.1 2.1 0 0 0 1.1 1.2 6.7 6.7 0 0 0 2 .6l2.3.2 2.1.2v.9h-19.8v-.9a11.4 11.4 0 0 0 3.5-.8 2.1 2.1 0 0 0 1.4-2v-29.5a3.2 3.2 0 0 0-.1-1.1 2 2 0 0 0-.7-.8l-1.8-1.1-2.1-1.1v-.5l11.5-4.5h.5l-.2 12.2h.2l1.4-3.1a26.4 26.4 0 0 1 2.5-4.1 15.4 15.4 0 0 1 3.6-3.5 8.1 8.1 0 0 1 4.8-1.5 5.5 5.5 0 0 1 3.7 1.3 4.2 4.2 0 0 1 1.5 3.3 4.6 4.6 0 0 1-1.2 3.3z" class="b"/><path d="M354.5 553.3a20.6 20.6 0 0 1-4.8 7.2 22.2 22.2 0 0 1-7.7 4.7 28.8 28.8 0 0 1-10.2 1.7h-3.1l-3.2-.4v17.9a1.7 1.7 0 0 0 1 1.2l1.9.6 2.3.3 2.1.2v1h-21.6v-1l2.1-.3 2.3-.6a6.8 6.8 0 0 0 1.8-.9 1.5 1.5 0 0 0 .7-1.2v-48.6a3.2 3.2 0 0 0-.1-1 2 2 0 0 0-.7-.8l-2.5-1.3-2.8-1.3v-.5l13-5.1h.5v10l2.7-3.4a22.9 22.9 0 0 1 3.3-3.2 19 19 0 0 1 4-2.4 11.2 11.2 0 0 1 4.7-1 14.5 14.5 0 0 1 7.1 1.7 15 15 0 0 1 5 4.4 19.3 19.3 0 0 1 2.9 6.1 25.5 25.5 0 0 1 1 6.9 24 24 0 0 1-1.7 9.1zm-7-12.8a14.7 14.7 0 0 0-2.4-5 11.7 11.7 0 0 0-4.1-3.4 12.6 12.6 0 0 0-5.8-1.3 9.5 9.5 0 0 0-4.1.8 13 13 0 0 0-3.1 1.9 8.8 8.8 0 0 0-1.9 2.2 4 4 0 0 0-.7 1.7v12.8q0 2 .1 4a31.4 31.4 0 0 0 .6 3.8 10.9 10.9 0 0 0 1.5 3.6 7.8 7.8 0 0 0 2.9 2.6 9.7 9.7 0 0 0 4.7 1 9.4 9.4 0 0 0 4.9-1.4 14.5 14.5 0 0 0 4.2-3.9 19.8 19.8 0 0 0 2.9-5.9 24.4 24.4 0 0 0 1.1-7.4 23.7 23.7 0 0 0-.7-6zm46.8 18a16.5 16.5 0 0 1-3.3 4.4 17.6 17.6 0 0 1-5 3.3 15.8 15.8 0 0 1-6.5 1.3 19.5 19.5 0 0 1-8.1-1.7 17.7 17.7 0 0 1-6.3-4.7 21.6 21.6 0 0 1-4-7.1 26.3 26.3 0 0 1-1.4-8.6 22 22 0 0 1 5-13.8 18.8 18.8 0 0 1 5.9-4.7 16.4 16.4 0 0 1 7.7-1.8 23 23 0 0 1 6.4.9 14.9 14.9 0 0 1 5.3 2.7 13.8 13.8 0 0 1 3.6 4.5 16.4 16.4 0 0 1 1.7 6.4h-28.2c0 .5 0 1-.1 1.6s-.1 1.2-.1 1.9a23.5 23.5 0 0 0 1.1 7 18.5 18.5 0 0 0 3.1 6 14.2 14.2 0 0 0 5.1 4.1 16 16 0 0 0 7.1 1.5 13.3 13.3 0 0 0 7.7-2.2 10.5 10.5 0 0 0 4.3-5.5l.7.2a16.2 16.2 0 0 1-1.7 4.3zm-10-29.5a7.9 7.9 0 0 0-6-2.3 7.3 7.3 0 0 0-4.4 1.4 16.3 16.3 0 0 0-3.4 3.4 17.1 17.1 0 0 0-2.2 3.9 16 16 0 0 0-1 3h16a6.8 6.8 0 0 0 2-.4 6.4 6.4 0 0 0 .9-1.3 4.3 4.3 0 0 0 .3-1.8 7.7 7.7 0 0 0-2.2-5.9zm39.7 2.4h-13.3v23q0 4.5 1.9 6.5a6.6 6.6 0 0 0 5 2 9.4 9.4 0 0 0 4.2-.8 7.8 7.8 0 0 0 2.9-2.6l.5.3a16.9 16.9 0 0 1-1.4 2.8 10.4 10.4 0 0 1-2.5 2.6 11.6 11.6 0 0 1-3.6 1.8 16.1 16.1 0 0 1-4.9.7 11 11 0 0 1-3.5-.6 9.1 9.1 0 0 1-3-1.7 9.9 9.9 0 0 1-2.1-2.5 5.3 5.3 0 0 1-.8-2.8q0-8.2.1-15.6t.1-13.2h-6.4v-1l12.6-12h.7v7.7h16.2z" class="b"/><path d="M92 610.7a43 43 0 0 0-5-11.4 40.6 40.6 0 0 0-7.8-9.3 35.7 35.7 0 0 0-10.2-6.2 31.7 31.7 0 0 0-12-2.3 30.8 30.8 0 0 0-15.6 3.9A36.1 36.1 0 0 0 30 595.9a49.7 49.7 0 0 0-7.1 14.7 57.9 57.9 0 0 0-2.5 16.8 55.1 55.1 0 0 0 2.6 17.1 42.5 42.5 0 0 0 7.4 13.9 35.3 35.3 0 0 0 11.7 9.3 33.6 33.6 0 0 0 15.2 3.4 31.8 31.8 0 0 0 12.4-2.4 37.4 37.4 0 0 0 10.3-6.2 38.4 38.4 0 0 0 7.6-9.1 33.8 33.8 0 0 0 4.3-10.6h1.5l-.4 28h-1.5a38.2 38.2 0 0 0-3.2-3.9q-1.7-1.8-2.3-1.8l-2.3 1.3a37 37 0 0 1-5.8 2.9 55.3 55.3 0 0 1-9.3 2.8 58.7 58.7 0 0 1-12.6 1.2 63.7 63.7 0 0 1-21.3-3.4 46.2 46.2 0 0 1-16.2-9.5 41.4 41.4 0 0 1-10.2-14.8 49.6 49.6 0 0 1-3.2-24.1 46.1 46.1 0 0 1 1.1-6.2 52.6 52.6 0 0 1 2.3-6.9 47.8 47.8 0 0 1 3.7-7.3 45.6 45.6 0 0 1 6.6-8.3 42.1 42.1 0 0 1 9.3-6.9 51.7 51.7 0 0 1 12.1-4.8 59.3 59.3 0 0 1 15.1-1.8 56.7 56.7 0 0 1 13.3 1.4 60.7 60.7 0 0 1 9.5 3 36 36 0 0 1 5.8 3 11.1 11.1 0 0 0 2.3 1.4 2.2 2.2 0 0 0 1-.6l1.5-1.4 1.7-1.9 1.7-2.2h1.4v28.5H92zm65.7 54.3a15.7 15.7 0 0 1-2.7 4.1 10.9 10.9 0 0 1-3.9 2.8 12.3 12.3 0 0 1-4.9 1 12.4 12.4 0 0 1-7.7-2.5q-3.4-2.5-3.4-8.9h-.1a31.3 31.3 0 0 1-2.7 3.7 25.1 25.1 0 0 1-4.1 3.8 20.7 20.7 0 0 1-5.2 2.9 17.7 17.7 0 0 1-6.3 1.1 15.6 15.6 0 0 1-4.1-.6 9.8 9.8 0 0 1-3.8-2 11 11 0 0 1-2.8-3.7 13 13 0 0 1-1.1-5.6 10.4 10.4 0 0 1 2.9-6.9 31.9 31.9 0 0 1 7.1-6l7.4-4.6 5.7-3.2 4.3-2.3 3.1-1.7v-13.3a4.3 4.3 0 0 0-.4-1.2 6.8 6.8 0 0 0-1.5-2 10.4 10.4 0 0 0-3-1.8 12.6 12.6 0 0 0-5-.8 11.9 11.9 0 0 0-4 .7 14.3 14.3 0 0 0-3.5 1.8 12.4 12.4 0 0 0-2.4 2.2 3.2 3.2 0 0 0-.9 1.8v5.7a4 4 0 0 1-1.8 3.2 6.5 6.5 0 0 1-4 1.4 4.8 4.8 0 0 1-3.5-1.5 4.6 4.6 0 0 1-1.5-3.4 5.3 5.3 0 0 1 .8-2.8 9.8 9.8 0 0 1 1.9-2.3 14.7 14.7 0 0 1 2.5-1.8l2.4-1.4 6.7-3.7q3.4-1.8 6.5-3a59.6 59.6 0 0 1 5.7-2 15.8 15.8 0 0 1 4.3-.8 12.1 12.1 0 0 1 6.2 1.7 10.4 10.4 0 0 1 4.2 4.3 7.7 7.7 0 0 1 .6 3.1q.1 2.2.1 4.4 0 4.6-.1 8.3t-.1 7.1-.1 7.1-.1 7.9q0 5.7 2 7.6a6.4 6.4 0 0 0 4.5 1.8 6.5 6.5 0 0 0 4.3-1.2 6.1 6.1 0 0 0 1.9-3.1h.8a13.2 13.2 0 0 1-1.2 4.6zm-22.5-26.8a51.3 51.3 0 0 1-5.7 3.5q-3.4 1.8-6.7 4a29.7 29.7 0 0 0-5.6 4.8 8.6 8.6 0 0 0-2.4 5.9 8.9 8.9 0 0 0 2.3 6 7.5 7.5 0 0 0 6 2.7 20.4 20.4 0 0 0 5.8-.8 11.2 11.2 0 0 0 4.7-2.9 4.6 4.6 0 0 0 1.5-3.6v-19.6zm60.6 34.5v-1.4a28.8 28.8 0 0 0 5.5-.8 2.5 2.5 0 0 0 2-2.6v-32q0-7.4-2.8-11.9t-9.4-4.5a12.8 12.8 0 0 0-7 1.8 38.1 38.1 0 0 0-6.2 5.2v41.7a3.3 3.3 0 0 0 .9 1.8 3.8 3.8 0 0 0 1.5.8l2 .3 2.4.3v1.3h-24.4v-1.3a16.5 16.5 0 0 0 5-1.1 3 3 0 0 0 2.1-2.9v-43.7a4.6 4.6 0 0 0-.2-1.5 2.9 2.9 0 0 0-1.1-1.1l-2.7-1.5-3-1.5v-.8l16.6-6h.8V625h.3a45.9 45.9 0 0 1 3.5-4.6 30.1 30.1 0 0 1 4.7-4.5 26.6 26.6 0 0 1 5.8-3.4 16.8 16.8 0 0 1 6.6-1.3q7.3 0 11.3 5.5t3.9 14.1v37.4a1.9 1.9 0 0 0 .8 1.5 5.6 5.6 0 0 0 2 1l2.5.5 2.5.3v1.1h-25.9zm29.4 0v-1.3l3-.3a12.3 12.3 0 0 0 2.7-.6 6.1 6.1 0 0 0 2-1.2 2.5 2.5 0 0 0 .8-1.9v-43.6a7.4 7.4 0 0 0-.2-1.8 2.5 2.5 0 0 0-1.1-1.4l-2.7-1.5-3.4-1.4v-.7l17.2-5.6h.8v56.8a2.8 2.8 0 0 0 1.1 1.8 5.5 5.5 0 0 0 2 .8l2.5.3 2.6.3v1.3h-27.3zm18.2-76.6a6.9 6.9 0 0 1-11.8-4.9 6.4 6.4 0 0 1 2-4.8 7.2 7.2 0 0 1 9.8 0 6.4 6.4 0 0 1 2 4.8 6.6 6.6 0 0 1-2 5zm50.9 76.6v-1.4a28.8 28.8 0 0 0 5.5-.8 2.5 2.5 0 0 0 2-2.6v-32q0-7.4-2.8-11.9t-9.4-4.5a12.8 12.8 0 0 0-7 1.8 38.1 38.1 0 0 0-6.2 5.2v41.7a3.3 3.3 0 0 0 .9 1.8 3.8 3.8 0 0 0 1.5.8l2 .3 2.4.3v1.3h-24.5v-1.3a16.5 16.5 0 0 0 5-1.1 3 3 0 0 0 2.1-2.9v-43.7a4.6 4.6 0 0 0-.2-1.5 2.9 2.9 0 0 0-1.1-1.1l-2.7-1.5-3-1.5v-.8l16.6-6h.8V625h.3a45.9 45.9 0 0 1 3.5-4.6 30.1 30.1 0 0 1 4.7-4.5 26.5 26.5 0 0 1 5.8-3.4 16.8 16.8 0 0 1 6.6-1.3q7.3 0 11.3 5.5t3.9 14.1v37.4a1.9 1.9 0 0 0 .8 1.5 5.6 5.6 0 0 0 2 1l2.5.5 2.5.3v1.1h-25.8zm79.8-13a23.9 23.9 0 0 1-4.8 6.4 25.5 25.5 0 0 1-7.3 4.9 22.9 22.9 0 0 1-9.5 1.9 28.3 28.3 0 0 1-11.8-2.4 25.8 25.8 0 0 1-9.1-6.8 31.3 31.3 0 0 1-5.8-10.3 38.2 38.2 0 0 1-2-12.5 32 32 0 0 1 7.3-20.1 27.3 27.3 0 0 1 8.5-6.8 23.8 23.8 0 0 1 11.1-2.6 33.4 33.4 0 0 1 9.3 1.3 21.6 21.6 0 0 1 7.6 3.9 20.1 20.1 0 0 1 5.3 6.5 23.8 23.8 0 0 1 2.4 9.3h-40.7c0 .7 0 1.5-.1 2.4s-.1 1.8-.1 2.7a34.2 34.2 0 0 0 1.5 10.2 26.9 26.9 0 0 0 4.4 8.6 20.6 20.6 0 0 0 7.4 5.9 23.3 23.3 0 0 0 10.3 2.2 19.3 19.3 0 0 0 11.1-3.2 15.3 15.3 0 0 0 6.3-7.9l1 .3a23.4 23.4 0 0 1-2.3 6.1zm-14.5-42.8a11.5 11.5 0 0 0-8.7-3.4 10.6 10.6 0 0 0-6.4 2.1 23.6 23.6 0 0 0-5 4.9 24.8 24.8 0 0 0-3.2 5.7 23.3 23.3 0 0 0-1.4 4.4h23.3a9.9 9.9 0 0 0 2.9-.6 9.3 9.3 0 0 0 1.3-1.9 6.2 6.2 0 0 0 .4-2.7 11.2 11.2 0 0 0-3.2-8.5zm62 45.9a16.9 16.9 0 0 1-5.3 5.9 22.2 22.2 0 0 1-7.6 3.3 38.4 38.4 0 0 1-9 1 52.3 52.3 0 0 1-10.5-1 42.8 42.8 0 0 1-9.1-2.9v-16.8h1a66.9 66.9 0 0 0 2.5 6.4 32.7 32.7 0 0 0 3.7 6.2 18.3 18.3 0 0 0 5.2 4.7 13.6 13.6 0 0 0 7.2 1.8q6.1 0 9.7-3.5t3.6-10.7a9.1 9.1 0 0 0-2.5-6.5 12.5 12.5 0 0 0-6.8-3.5l-6.6-1.4a58.6 58.6 0 0 1-5.7-1.7 15.7 15.7 0 0 1-7.8-5.7 16.1 16.1 0 0 1-3-9.8 15.2 15.2 0 0 1 1.7-7.1 17.3 17.3 0 0 1 4.4-5.5 19.9 19.9 0 0 1 6.5-3.5 25.2 25.2 0 0 1 7.9-1.2 41.5 41.5 0 0 1 9.4 1 61.3 61.3 0 0 1 7.8 2.4l1.5 15.8-1 .3q-1.8-3.8-3.6-7.1a28.6 28.6 0 0 0-3.9-5.6 15.5 15.5 0 0 0-4.9-3.6 14.8 14.8 0 0 0-6.3-1.3 12.4 12.4 0 0 0-4.3.8 10.9 10.9 0 0 0-3.7 2.2 11.3 11.3 0 0 0-2.6 3.7 12.3 12.3 0 0 0-1 5.1q0 4.7 2.7 6.7a18.3 18.3 0 0 0 6.7 3l6.1 1.3 5.7 1.3a18.8 18.8 0 0 1 9.7 5.8 15.7 15.7 0 0 1 4 10.9 17.7 17.7 0 0 1-1.8 8.8z" class="c"/><path d="M14.3 740.8c-1.3 7.3-6 25-12.2 25A1.9 1.9 0 0 1 0 764c0-1.5 1.9-2.8 3.7-2.8a3.7 3.7 0 0 1 1.9.4c1.5-3.5 2.9-10.4 4.4-17.4l1.7-7.9H7.1l.6-1.8 2.4.2H12l1-4.6c1.3-5.5 4-14.3 7.1-18.6 1.8-2.3 4-4 5.6-4a2.1 2.1 0 0 1 2.3 2 2.7 2.7 0 0 1-2.7 2.4 4.4 4.4 0 0 1-2.9-1.1c-1.7 3-4 10.6-5.8 19.2l-1.1 4.7c1.3 0 4.6-.1 6.2-.2l-.7 2.1-5.8-.2zm23.8 10.8a.8.8 0 0 0 .7 1c1.3 0 2.6-2.8 3.2-2.8a.5.5 0 0 1 .5.5c0 .4-2.7 4.6-5.7 4.6a2 2 0 0 1-2.1-2.1 24.1 24.1 0 0 1 .5-4.2h-.1c-1.4 2.3-5.5 6.4-9.3 6.4s-5.7-1.8-5.7-5.8 2.2-7.4 5.2-9.8 8.7-5.1 12.4-5.1a16.2 16.2 0 0 1 4.8.9c-.1 1-1.5 5-2.6 8.7s-1.8 6.6-1.8 7.7zm-.1-14a41.2 41.2 0 0 0-4.6-.4c-3.3 0-5.7 1.1-7.2 3.4a18.1 18.1 0 0 0-2.2 8c0 2.3.9 3.8 3.4 3.8 7.6-.1 9.8-11.9 10.6-14.9zm12.8 17.3a12.6 12.6 0 0 1-5.4-1.5c-.4.9-.7 1.8-1.2 1.8a.5.5 0 0 1-.4-.5c0-.5.3-.7 1-3.2s1.1-5.7 1.8-5.7a.5.5 0 0 1 .5.5c0 .2-.2 2.1-.4 3 1.5 2 4.6 3.3 8.7 3.3 2.3 0 3.8-1.4 3.8-3 0-3.9-11.7-3.2-11.7-7.9s4.5-7.6 9.6-7.6a9 9 0 0 1 4.9 1.3c.4-.8.7-1.5 1.2-1.5a.4.4 0 0 1 .4.4c0 .3-.4 1.3-1 3.3s-.7 4.6-1.5 4.6a.5.5 0 0 1-.5-.5 13.2 13.2 0 0 1 .3-2.5c-.9-1.3-2.7-2.3-6.3-2.3s-5.2.9-5.2 2.3 5.2 3 9 4.5c1.7.7 2.9 2 2.9 3.6a6.7 6.7 0 0 1-3 5.7c-2.5 1.8-4.7 1.9-7.5 1.9zm19.6-7h.1a67.8 67.8 0 0 1 5.5-8.6c3.3-4.3 5.5-5.2 8.3-5.2s4 1 4 2.9-1.6 5.5-2.1 6.9c-1.3 3.9-2.6 7.3-2.6 7.7a.7.7 0 0 0 .7.9c1.2 0 3.1-3.4 3.7-3.4a.5.5 0 0 1 .5.4c0 .4-2.9 4.9-6.5 4.9-1.4 0-2.2-.5-2.2-1.7s1.8-6.2 2.9-9.3a31.7 31.7 0 0 0 1.5-5.2c0-1.2-.9-1.7-2.1-1.7-3 0-5.1 3-7.6 6.6s-5.3 8.5-5.9 11h-3l9.9-38.3a32 32 0 0 0 1-4.8c0-.4-.1-.8-.5-.8s-2.1 2.6-3.1 4a.6.6 0 0 1-.5.4.5.5 0 0 1-.4-.5c0-.7 3-6.5 6.3-6.5s1.9 1.9 1.9 3.4a77.1 77.1 0 0 1-2 8.7zm26.5 6.3h-3.4l3.2-11.9c.5-1.9 1.1-4.3 1.1-4.7s-.1-.8-.5-.8-2.7 3.5-3.4 3.5a.5.5 0 0 1-.5-.4c0-.5 2.8-5.7 6.5-5.7a1.8 1.8 0 0 1 1.9 1.9 26 26 0 0 1-1.3 5.7zm5.8-29.4a2.8 2.8 0 1 1 2.8-2.8 2.8 2.8 0 0 1-2.8 2.8zm9.3 30.1c-4 0-6.8-1.8-6.8-5.6a13.3 13.3 0 0 1 4.1-10.1c4.3-3.7 7.8-5.1 10.7-5.1 4.4 0 5.8 2.8 5.8 5.1s-1.5 8.7-3.4 10.6a14.9 14.9 0 0 1-10.4 5.1zm8.5-5.9a25.5 25.5 0 0 0 1.6-8.3c0-2.9-1.6-4.1-4.9-4.1a7.3 7.3 0 0 0-6.6 3.4c-1.1 1.7-1.8 5.8-1.8 7.7s2.6 4.8 5.8 4.8 5-1.6 5.9-3.5zm9.2 5.2l2.1-6.7c1-3.5 2.2-7.9 2.2-9.4a.9.9 0 0 0-.7-1c-1.4 0-2.2 3.3-3 3.3a.4.4 0 0 1-.5-.5c0-.7 2.4-5.6 6-5.6a1.7 1.7 0 0 1 1.9 1.9c0 2.4-1.6 8.6-2.6 11h.1c2.5-5 6.5-13 12.6-13 2.3 0 4 1 4 2.9s-1.6 5.5-2.1 6.9c-1.3 3.9-2.6 7.3-2.6 7.7a.7.7 0 0 0 .7.9c1.2 0 3.1-3.4 3.7-3.4a.5.5 0 0 1 .5.4c0 .4-2.9 4.9-6.5 4.9-1.4 0-2.2-.5-2.2-1.7s1.8-6.2 2.9-9.3a42 42 0 0 0 1.5-5.2c0-1.1-.4-1.7-1.6-1.7a6.2 6.2 0 0 0-4.1 1.7c-1.8 1.5-2.6 3.5-3.4 4.7a72.3 72.3 0 0 0-5.7 11.1h-3.4zm48.1-13.4c-1.3 7.3-6 25-12.2 25a1.9 1.9 0 0 1-2.1-1.9c0-1.5 1.9-2.8 3.7-2.8a3.7 3.7 0 0 1 1.9.4c1.5-3.5 2.9-10.4 4.4-17.4l1.7-7.9h-4.6l.6-1.8 2.4.2h1.9l1-4.6c1.3-5.5 4-14.3 7.1-18.6 1.8-2.3 4-4 5.6-4a2.1 2.1 0 0 1 2.3 2 2.7 2.7 0 0 1-2.7 2.4 4.4 4.4 0 0 1-2.8-.8c-1.7 3-4 10.6-5.8 19.2l-1.1 4.7c1.3 0 4.6-.1 6.2-.2l-.7 1.9-5.8-.2zm13.2 14.1c-4 0-6.8-1.8-6.8-5.6a13.3 13.3 0 0 1 4.1-10.1c4.3-3.7 7.8-5.1 10.7-5.1 4.4 0 5.8 2.8 5.8 5.1s-1.5 8.7-3.4 10.6a14.9 14.9 0 0 1-10.4 5.1zm8.5-5.9a25.5 25.5 0 0 0 1.6-8.3c0-2.9-1.6-4.1-4.9-4.1a7.3 7.3 0 0 0-6.6 3.4c-1.1 1.7-1.8 5.8-1.8 7.7s2.6 4.8 5.8 4.8 4.9-1.6 5.8-3.5zm9.9 5.2c.4-1.3 3-10.7 3-15.2 0-1 0-2.1-.5-2.1s-2.1 3.2-2.9 3.2a.5.5 0 0 1-.4-.6c0-.7 2.6-5.2 5.1-5.2s2.3 1.3 2.3 3.5a26.8 26.8 0 0 1-1 6.6c1.3-3.8 3.7-10.2 8-10.2a1.6 1.6 0 0 1 1.9 1.7 3.7 3.7 0 0 1-3.9 3.4 2.8 2.8 0 0 1-2.1-.8c-3 4.1-5.1 12.2-6 15.7h-3.4zm47.5-2.6a.8.8 0 0 0 .7 1c1.3 0 2.6-2.8 3.2-2.8a.5.5 0 0 1 .5.5c0 .4-2.7 4.6-5.7 4.6a2 2 0 0 1-2.1-2.1 24.2 24.2 0 0 1 .5-4.2h-.1c-1.4 2.3-5.5 6.4-9.3 6.4s-5.7-1.8-5.7-5.8 2.2-7.4 5.2-9.8 8.7-5.1 12.4-5.1a16.1 16.1 0 0 1 4.8.9c-.1 1-1.5 5-2.6 8.7s-1.8 6.6-1.8 7.7zm-.1-14a41.2 41.2 0 0 0-4.6-.4c-3.3 0-5.7 1.1-7.2 3.4a18.1 18.1 0 0 0-2.2 8c0 2.3.9 3.8 3.4 3.8 7.6-.1 9.8-11.9 10.6-14.9zm21.4 11l2.9 1.5c.2-.7 2.3-8.8 2.3-10.8s0-1.9-.6-1.9-2.1 3.4-2.9 3.4a.5.5 0 0 1-.4-.6c0-.7 2.8-5.8 5.3-5.8s2.3 1.3 2.3 3.5a16.1 16.1 0 0 1-.5 3.8h.1c1.2-2.7 4.1-7.4 10-7.4 3.2 0 5.7 1.2 5.7 4.8a20.7 20.7 0 0 1-4.3 11 12.5 12.5 0 0 1-9.6 4.9 24.2 24.2 0 0 1-4.8-1l-3.1 11.9h-3.7l3.6-13-3.2-1.5zm20.4-7.3c0-2.9 0-4.1-3.8-4.1s-5.4 1.3-6.8 3.5a41.4 41.4 0 0 0-3.8 10.4 24.9 24.9 0 0 0 8.3 1.5c3.3.1 6.1-8.1 6.1-11.3zm23.7 10.3a.8.8 0 0 0 .7 1c1.3 0 2.6-2.8 3.2-2.8a.5.5 0 0 1 .5.5c0 .4-2.7 4.6-5.7 4.6a2 2 0 0 1-2.1-2.1 24.2 24.2 0 0 1 .5-4.2h-.1c-1.4 2.3-5.5 6.4-9.3 6.4s-5.7-1.8-5.7-5.8 2.2-7.4 5.2-9.8 8.7-5.1 12.4-5.1a16.1 16.1 0 0 1 4.8.9c-.1 1-1.5 5-2.6 8.7s-1.8 6.6-1.8 7.7zm-.1-14a41.2 41.2 0 0 0-4.6-.4c-3.3 0-5.7 1.1-7.2 3.4a18.1 18.1 0 0 0-2.2 8c0 2.3.9 3.8 3.4 3.8 7.6-.1 9.8-11.9 10.6-14.9zm12.8 17.3a12.6 12.6 0 0 1-5.4-1.5c-.4.9-.7 1.8-1.2 1.8a.5.5 0 0 1-.4-.5c0-.5.3-.7 1-3.2s1.1-5.7 1.8-5.7a.5.5 0 0 1 .5.5c0 .2-.2 2.1-.4 3 1.5 2 4.6 3.3 8.7 3.3 2.3 0 3.8-1.4 3.8-3 0-3.9-11.7-3.2-11.7-7.9s4.5-7.6 9.6-7.6a9 9 0 0 1 4.9 1.3c.4-.8.7-1.5 1.2-1.5a.4.4 0 0 1 .4.4c0 .3-.4 1.3-1 3.3s-.7 4.6-1.5 4.6a.5.5 0 0 1-.5-.5 13.3 13.3 0 0 1 .3-2.5c-.9-1.3-2.7-2.3-6.3-2.3s-5.2.9-5.2 2.3 5.2 3 9 4.5c1.7.7 2.9 2 2.9 3.6a6.7 6.7 0 0 1-3 5.7c-2.6 1.8-4.7 1.9-7.5 1.9zm20.3 0a12.6 12.6 0 0 1-5.4-1.5c-.4.9-.7 1.8-1.2 1.8a.5.5 0 0 1-.4-.5c0-.5.3-.7 1-3.2s1.1-5.7 1.8-5.7a.5.5 0 0 1 .5.5c0 .2-.2 2.1-.4 3 1.5 2 4.6 3.3 8.7 3.3 2.3 0 3.8-1.4 3.8-3 0-3.9-11.7-3.2-11.7-7.9s4.5-7.6 9.6-7.6a9 9 0 0 1 4.9 1.3c.4-.8.7-1.5 1.2-1.5a.4.4 0 0 1 .4.4c0 .3-.4 1.3-1 3.3s-.7 4.6-1.5 4.6a.5.5 0 0 1-.5-.5 13.3 13.3 0 0 1 .3-2.5c-.9-1.3-2.7-2.3-6.3-2.3s-5.2.9-5.2 2.3 5.2 3 9 4.5c1.7.7 2.9 2 2.9 3.6a6.7 6.7 0 0 1-3 5.7c-2.6 1.8-4.8 1.9-7.5 1.9zm19.1-.7H371l3.2-11.9c.5-1.9 1.1-4.3 1.1-4.7s-.1-.8-.5-.8-2.7 3.5-3.4 3.5a.5.5 0 0 1-.5-.4c0-.5 2.8-5.7 6.5-5.7a1.8 1.8 0 0 1 1.9 1.9 26 26 0 0 1-1.3 5.7zm5.8-29.4a2.8 2.8 0 1 1 2.8-2.8 2.8 2.8 0 0 1-2.8 2.8zm9.2 30.1c-4 0-6.8-1.8-6.8-5.6a13.3 13.3 0 0 1 4.1-10.1c4.3-3.7 7.8-5.1 10.7-5.1 4.4 0 5.8 2.8 5.8 5.1s-1.5 8.7-3.4 10.6a14.9 14.9 0 0 1-10.4 5.1zm8.5-5.9a25.4 25.4 0 0 0 1.6-8.3c0-2.9-1.6-4.1-4.9-4.1a7.3 7.3 0 0 0-6.6 3.4c-1.1 1.7-1.8 5.8-1.8 7.7s2.6 4.8 5.8 4.8 5-1.6 5.9-3.5zm9.3 5.2l2.1-6.7c1-3.5 2.2-7.9 2.2-9.4a.9.9 0 0 0-.7-1c-1.4 0-2.2 3.3-3 3.3a.4.4 0 0 1-.5-.5c0-.7 2.4-5.6 6-5.6a1.7 1.7 0 0 1 1.9 1.9c0 2.4-1.6 8.6-2.6 11h.1c2.5-5 6.5-13 12.6-13 2.3 0 4 1 4 2.9s-1.6 5.5-2.1 6.9c-1.3 3.9-2.6 7.3-2.6 7.7a.7.7 0 0 0 .7.9c1.2 0 3.1-3.4 3.7-3.4a.5.5 0 0 1 .5.4c0 .4-2.9 4.9-6.5 4.9-1.4 0-2.2-.5-2.2-1.7s1.8-6.2 2.9-9.3a42 42 0 0 0 1.5-5.2c0-1.1-.4-1.7-1.6-1.7a6.2 6.2 0 0 0-4.1 1.7c-1.8 1.5-2.6 3.5-3.4 4.7a72.3 72.3 0 0 0-5.7 11.1H407zM378.5 21.1S356.4-2.3 331.4.2s-32.7 5.2-52.3 23.5-30.1 22.7-51.5 24.1-18.9-1.9-36.4 1.8-34.4 25.5-34.4 25.5l-36.9-8.4s-27.2-.9-32.5 27.7 3.4 28.8 3.4 28.8l99.6 57.1s27.7 8.5 43.5-6.7 14-19 23.8-43.6 21.6-31.3 38.3-33.4 29.5-32.3 43.2-54.6 39.5-19.2 39.5-19.2" class="b"/><path d="M204.5 109.9c-11.3 4.8-32.4 25.4-21.1 55.1 3 8 7.8 13.7 14.3 17.1 7.1 1 17.8 1.5 27.2-2.7-3.8 1.1-14.4 3.7-23.7-.5-6.2-2.7-10.7-8-13.6-15.5-10.2-26.7 8.6-45.1 18.7-49.4s20.2-2.2 26.8 4.6c3.4 3.4 3.8 8.4 3.7 12-.4 8.2-4.8 17.4-10.4 21.9-2.3 1.9-10.5 7.5-18.9.5a11.4 11.4 0 0 1-4.1-8.9 17 17 0 0 1 5.5-12.6c5.7-5 11.8-3.2 13.7-1.2s1.3 7.9-1.8 11.4a5.9 5.9 0 0 1-4.9 2.2 3.8 3.8 0 0 1-2.7-1.2c-1.2-1.7-1.3-4.6 1.9-7.5l-1.5-1.6-1.5-1.6c-5.2 4.8-4.6 10.1-2.6 13.2a8 8 0 0 0 6.1 3.2 10.4 10.4 0 0 0 8.5-3.7c4.3-4.9 5.2-13.7 1.7-17.4s-12.5-5.6-19.9 1a21.4 21.4 0 0 0-7 16 15.9 15.9 0 0 0 5.7 12.3c8.8 7.2 18.5 4.5 24.6-.5s11.5-15.7 12-25.1c.3-6.4-1.4-11.8-4.9-15.4-8-8.2-20.7-10.5-31.8-5.7zm-51-35.9l60 20.5-55.4-23.2-4.6 2.7" class="d"/></svg>