<svg xmlns="http://www.w3.org/2000/svg" width="10000" viewBox="0 0 217.6 54.1"><defs><style>.a{fill:#231f20;}</style></defs><path d="M22.5 21h5.3c.1 3.5 1.9 5.6 4.7 5.6a3.3 3.3 0 0 0 3.4-3.3c0-1.6-1.1-3-3.1-3.9L30.1 18a21.9 21.9 0 0 1-5.5-3.5 7.9 7.9 0 0 1-2.4-5.9A8.1 8.1 0 0 1 30.5.2a6.3 6.3 0 0 1 5.6 2.9h.1V.5h5.3v9.4h-5.3c-.4-2.8-2.1-4.6-4.4-4.6s-3.1 1.1-3.1 2.5 1.1 2.5 5 4.2 4.6 2.1 6.1 3.4a9.1 9.1 0 0 1 3.2 7.3c0 3.8-1.3 6.3-4.1 7.9a10.3 10.3 0 0 1-4.9 1.3 7 7 0 0 1-6.2-3h-.1v2.6h-5.2V21zm57-5.1c0 9.5-6.9 15.9-17.2 15.9s-17.2-6.4-17.2-15.9S52 0 62.3 0s17.2 6.4 17.2 15.9zm-25.8.1c0 6 3.5 10.2 8.5 10.2s8.5-4.2 8.5-10.3-3.3-10.2-8.4-10.2-8.5 4.1-8.5 10.4zm63-.1c0 9.5-6.9 15.9-17.2 15.9s-17.3-6.4-17.3-15.9S89.2 0 99.5 0s17.2 6.4 17.2 15.9zm-25.8.1c0 6 3.5 10.2 8.5 10.2s8.5-4.2 8.5-10.3-3.3-10.2-8.4-10.2-8.6 4.1-8.6 10.4zm27.6 10.3h4.1V5.8h-4.1V.5h13l11.4 19.4h.1V5.8h-4.1V.5h13.9v5.3h-4.3v26h-6.9l-13.2-23h-.1v17.5h3.9v5.3h-13.7v-5.3zm36.3 0h3.7V5.8h-3.7V.5h27.3v9.8h-5.9V5.8h-9.6v7.1h7.8v5.3h-7.8v8.1h9.6v-4.7h5.9v9.9h-27.3v-5.2zm62.4 5.2h-9.5l-7-13.6h-3.6v8.4h3.9v5.3h-16.2v-5.3h4.2V5.8h-4.2V.5h18.7a11 11 0 0 1 6.1 1.4 8.6 8.6 0 0 1 3.9 7.3 8.2 8.2 0 0 1-2.3 5.7 7.9 7.9 0 0 1-3.1 2l5 9.4h4v5.3zM200 13c3.4 0 5.1-1.2 5.1-3.7s-1.5-3.6-4.4-3.6h-3.5V13h2.8zM33.8 49.8a5.8 5.8 0 0 1-5.9 4.3 5.9 5.9 0 0 1-6.2-6.3c0-3.8 2.4-6.3 6.1-6.3a6.4 6.4 0 0 1 4 1.3v-1.1h1.6v3.9h-1.5a4.3 4.3 0 0 0-3.9-2.5c-2.4 0-4.2 1.9-4.2 4.6a4.3 4.3 0 0 0 8.4 1.2zm3.8-6.6H36v-1.5h5v1.5h-1.5v9.2h3.7v-4.2h1.7v5.7H36v-1.5h1.6v-9.2zm10.5 0h-1.4v-1.5h4.5v1.5h-1.3v9.2h1.3v1.5h-4.5v-1.5H48v-9.2zm6.7 0h-1.7v-1.5h4.2l5.3 9.5v-8h-1.7v-1.5h5v1.5h-1.8V54h-1.9l-5.8-10.4v8.8h1.7v1.5h-5v-1.5h1.7v-9.2zm14 0h-1.3v-1.5H72v1.5h-1.3v9.2H72v1.5h-4.5v-1.5h1.3v-9.2zm17.7 6.6a5.8 5.8 0 0 1-5.9 4.3 5.9 5.9 0 0 1-6.2-6.3c0-3.8 2.4-6.3 6.1-6.3a6.4 6.4 0 0 1 4 1.3v-1.1h1.6v3.9h-1.6a4.3 4.3 0 0 0-3.9-2.5c-2.4 0-4.2 1.9-4.2 4.6a4.3 4.3 0 0 0 8.4 1.2zm6-.2l-1 2.8H93v1.5h-4.7v-1.5h1.5l3.3-9.4h-1.5v-1.3h6.2V43h-1.5l3.4 9.3h1.4v1.5h-4.8v-1.4h1.5l-.9-2.8h-4.4zm2.3-6.6h-.1L93 48.2h3.5zm9.1.2h-1.6v-1.5h5v1.5h-1.5v9.2h3.7v-4.2h1.7v5.7h-9v-1.5h1.6v-9.2zm16.1 0h-1.7v-1.5h5a5.8 5.8 0 0 1 3 .5 2.9 2.9 0 0 1 1.6 2.8 3 3 0 0 1-2.5 3l2.2 4.4h1.4v1.5h-2.6l-2.8-5.7h-1.7v4.2h1.6v1.5h-5.1v-1.5h1.6v-9.2zm3.3 3.5a3.5 3.5 0 0 0 1.8-.2 1.6 1.6 0 0 0 .9-1.6c0-1.2-.6-1.7-2.6-1.7h-1.6v3.5h1.4zm8.8-3.5h-1.6v-1.5h10.2v3.7h-1.5v-2.2H134v3.6h4.5v1.5H134v4h5.2v-2.2h1.5v3.8h-10.2v-1.5h1.6v-9.2zm10.9 6.3h1.5v1.1a3.2 3.2 0 0 0 2.9 2 2 2 0 0 0 2.2-2c0-1-.5-1.5-1.9-1.9l-1.2-.3a6.3 6.3 0 0 1-2.6-1.2 3 3 0 0 1-1-2.3 3.3 3.3 0 0 1 3.6-3.3 4.4 4.4 0 0 1 2.7 1v-1h1.5v3.7h-1.5v-.8a2.9 2.9 0 0 0-2.6-1.4c-1.2 0-2.1.6-2.1 1.5a1.5 1.5 0 0 0 .7 1.3 6.1 6.1 0 0 0 2 .6c1.9.5 2.3.6 2.9 1.2a3.7 3.7 0 0 1 1.2 2.8 3.6 3.6 0 0 1-3.8 3.6 4.5 4.5 0 0 1-3-1.2v1H143v-4.4zm12.1-6.3h-1.6v-1.5h10.2v3.7h-1.5v-2.2H157v3.6h4.5v1.5H157v4h5.2v-2.2h1.5v3.8h-10.2v-1.5h1.6v-9.2zm14.4 6.4l-1 2.8h1.5v1.5h-4.8v-1.5h1.5L170 43h-1.5v-1.3h6.2V43h-1.5l3.4 9.3h1.4v1.5h-4.8v-1.4h1.5l-.9-2.8h-4.4zm2.3-6.6h-.2l-1.7 5.1h3.5zm9.1.2h-1.7v-1.5h5a5.8 5.8 0 0 1 3 .5 2.9 2.9 0 0 1 1.6 2.8 3 3 0 0 1-2.5 3l2.2 4.4h1.5v1.5h-2.6l-2.8-5.7h-1.7v4.2h1.6v1.5h-5.1v-1.5h1.7v-9.2zm3.3 3.5a3.5 3.5 0 0 0 1.8-.2 1.6 1.6 0 0 0 .9-1.6c0-1.2-.6-1.7-2.6-1.7h-1.6v3.5h1.4zm19.5 3.1a5.8 5.8 0 0 1-5.9 4.3 5.9 5.9 0 0 1-6.2-6.3c0-3.8 2.4-6.3 6.1-6.3a6.5 6.5 0 0 1 4 1.3v-1.1h1.6v3.9h-1.6a4.3 4.3 0 0 0-3.9-2.5c-2.4 0-4.2 1.9-4.2 4.6a4.3 4.3 0 0 0 8.4 1.2zm3.5-6.6h-1.4v-1.5h4.7v1.5H209v3.5h5.3v-3.5h-1.4v-1.5h4.7v1.5h-1.4v9.2h1.4v1.5h-4.7v-1.5h1.4v-4.2H209v4.1h1.4v1.5h-4.7v-1.4h1.4v-9.2zM0 46.2a7.7 7.7 0 0 0 7.7 7.7h.6a7.7 7.7 0 0 0 7.7-7.7V28.5H0v17.7zM8.3.1h-.6A7.7 7.7 0 0 0 0 7.8v17.7h16V7.8A7.7 7.7 0 0 0 8.3.1zm-1.5 3c-3.9.1-4.8 4.4-4.4 8.3v11.7a.7.7 0 0 1-.7.6.7.7 0 0 1-.7-.6V11.4c0-1.9-.3-4 .6-6.1a5.8 5.8 0 0 1 5.1-3.7.7.7 0 0 1 .7.7.8.8 0 0 1-.6.8zm15.9 33.2h194.7v1.2H22.7z" class="a"/></svg>
