<?xml version="1.0" encoding="UTF-8" standalone="no"?>
<svg width="124px" height="99px" viewBox="0 0 124 99" version="1.1" xmlns="http://www.w3.org/2000/svg" xmlns:xlink="http://www.w3.org/1999/xlink">
    <!-- Generator: Sketch 3.8.1 (29687) - http://www.bohemiancoding.com/sketch -->
    <title>build-icon</title>
    <desc>Created with Sketch.</desc>
    <defs></defs>
    <g id="Resolution" stroke="none" stroke-width="1" fill="none" fill-rule="evenodd">
        <g id="Mobile-Process" transform="translate(-99.000000, -2045.000000)" fill="#FFFFFF">
            <g id="process-method" transform="translate(0.000000, 422.000000)">
                <g id="build-icon" transform="translate(99.000000, 1623.000000)">
                    <path d="M39.2222222,23.4479167 C39.5138889,23.7395833 39.7986111,23.8819444 40.0902778,23.8819444 C40.3819444,23.8819444 40.8159722,23.7395833 40.9583333,23.4479167 L46.4583333,17.9479167 L40.9583333,12.4479167 C40.3819444,11.8715278 39.65625,11.8715278 39.0798611,12.4479167 C38.5034722,13.0243056 38.5034722,13.75 39.0798611,14.3263889 L42.6944444,17.9409722 L39.2222222,21.5694444 C38.7881944,22.1458333 38.7881944,23.0138889 39.2222222,23.4479167 L39.2222222,23.4479167 Z" id="Fill-1"></path>
                    <path d="M48.3368056,22.2951389 C47.6111111,22.2951389 47.0347222,22.8715278 47.0347222,23.5972222 C47.0347222,24.3229167 47.6111111,24.8993056 48.3368056,24.8993056 L55.28125,24.8993056 C56.0069444,24.8993056 56.5833333,24.3229167 56.5833333,23.5972222 C56.5833333,22.8715278 56.0069444,22.2951389 55.28125,22.2951389 L48.3368056,22.2951389 Z" id="Fill-2"></path>
                    <path d="M104.611111,27.3541667 C105.770833,27.0625 107.215278,26.9201389 108.517361,26.9201389 C110.545139,26.9201389 112.28125,27.3541667 113,27.9305556 C115.027778,29.5243056 115.895833,30.96875 116.038194,30.96875 L116.472222,31.6944444 L116.763889,31.5520833 L116.763889,61.2083333 C116.763889,63.3784722 116.038194,65.40625 114.736111,66.9930556 L115.604167,70.4652778 C118.208333,68.1527778 119.802083,64.9652778 119.802083,61.2083333 L119.802083,30.8263889 L123.131944,29.9583333 L121.972222,28.5138889 C121.829861,28.3715278 121.104167,27.2118056 119.802083,25.7673611 L119.802083,12.4548611 C119.802083,5.65277778 114.302083,0.159722222 107.506944,0.159722222 L40.375,0.159722222 C33.5729167,0.159722222 28.0798611,5.65972222 28.0798611,12.4548611 L28.0798611,32.2777778 C26.9201389,32.5694444 25.9097222,33.0034722 24.75,33.4375 L21.5694444,28.3715278 L14.7673611,32.2777778 L17.5138889,37.4861111 C15.4861111,39.0798611 13.75,40.8159722 12.1631944,42.8368056 L6.95486111,40.0902778 L3.04861111,46.8854167 L8.11458333,50.0659722 C7.10416667,52.5277778 6.52083333,54.9826389 6.08680556,57.4444444 L0.159722222,57.59375 L0.159722222,65.5486111 L6.09375,65.6909722 C6.38541667,68.1527778 7.10416667,70.7569444 8.12152778,73.0694444 L3.04861111,76.2569444 L6.95486111,83.0590278 L12.1631944,80.3125 C13.7569444,82.3402778 15.4930556,84.0763889 17.5138889,85.6631944 L14.7673611,90.8715278 L21.5694444,94.7777778 L24.75,89.7118056 C27.2118056,90.7222222 29.6666667,91.3055556 32.1284722,91.7395833 L32.2708333,97.6736111 L40.2256944,97.6736111 L40.3680556,91.7395833 C42.8298611,91.4479167 45.4340278,90.7291667 47.7465278,89.7118056 L50.9270833,94.7777778 L57.7291667,90.8715278 L55.1319444,85.6631944 C57.1597222,84.0694444 58.8958333,82.3333333 60.4826389,80.3125 L65.6909722,83.0590278 L69.5972222,76.2569444 L65.2569444,73.5104167 L98.3854167,73.5104167 L97.6597222,70.4722222 L40.375,70.4722222 C35.3090278,70.4722222 31.1180556,66.2743056 31.1180556,61.2152778 L31.1180556,12.4548611 C31.1180556,7.38888889 35.3159722,3.19791667 40.375,3.19791667 L107.506944,3.19791667 C112.572917,3.19791667 116.763889,7.39583333 116.763889,12.4548611 L116.763889,22.4375 C115.895833,21.5694444 115.027778,20.7013889 114.159722,20.125 C111.121528,17.8055556 106.638889,16.3611111 102.440972,16.3611111 C100.996528,16.3611111 99.6944444,16.5034722 98.5347222,16.7951389 L81.8993056,20.9930556 L79.2951389,19.2569444 L71.1909722,21.2847222 L75.8229167,39.5069444 L83.9270833,37.4791667 L85.3715278,34.7326389 L91.0138889,33.2881944 L106.930556,98.6840278 L120.09375,95.3541667 L102.590278,29.8159722 L104.611111,27.3541667 Z M13.8993056,67.1423611 C12.4548611,61.5 13.1736111,55.4236111 16.3611111,50.0729167 C19.1076389,45.2986111 23.3055556,41.96875 28.0798611,40.0902778 L28.0798611,55.1388889 C27.7881944,55.5729167 27.5034722,56.0069444 27.2118056,56.4409722 C26.2013889,58.1770833 25.7673611,59.9131944 25.7673611,61.7916667 C25.7673611,63.9618056 24.6076389,65.9895833 22.7291667,67.1423611 L18.8229167,69.4548611 C16.9375,70.3229167 14.4826389,69.3125 13.8993056,67.1423611 L13.8993056,67.1423611 Z M52.5277778,73.5104167 C53.6875,74.8125 53.8298611,76.8402778 52.3854167,78.1423611 C45.1493056,85.0868056 33.8645833,86.8229167 24.75,81.4722222 C23.15625,80.4618056 21.5694444,79.4444444 20.2673611,78.1423611 C18.6736111,76.5486111 18.9652778,73.9444444 20.84375,72.7916667 L24.75,70.4791667 C26.6284722,69.3194444 28.9479167,69.46875 30.8263889,70.4791667 L30.8263889,70.4791667 C31.8368056,71.0555556 32.9965278,71.4895833 34.0069444,71.6388889 C35.7430556,72.6493056 37.9131944,73.2326389 40.0833333,73.2326389 L52.5277778,73.2326389 L52.5277778,73.5104167 Z M83.6354167,32.5625 L82.1909722,35.3090278 L77.5590278,36.46875 L74.2291667,23.15625 L78.8611111,21.9965278 L81.4652778,23.7326389 L99.1180556,19.2569444 C100.128472,18.9652778 101.288194,18.8229167 102.447917,18.8229167 C106.0625,18.8229167 110.118056,20.125 112.572917,22.1527778 C114.743056,23.8888889 117.347222,26.9270833 118.791667,28.6631944 L117.489583,28.9548611 C116.913194,28.2291667 115.895833,27.0763889 114.451389,25.9166667 C112.857639,24.6145833 110.253472,24.3229167 108.375,24.3229167 C106.638889,24.3229167 104.902778,24.4652778 103.458333,24.8993056 L103.166667,25.0416667 L100.704861,28.2222222 L83.6354167,32.5625 Z" id="Fill-3"></path>
                    <polygon id="Fill-4" points="83.4722222 31.9583333 81.5121528 24.2482639 82.7743056 23.9288194 84.734375 31.640625"></polygon>
                </g>
            </g>
        </g>
    </g>
</svg>