<?xml version="1.0" encoding="UTF-8" standalone="no"?>
<svg width="320px" height="5px" viewBox="0 0 320 5" version="1.1" xmlns="http://www.w3.org/2000/svg" xmlns:xlink="http://www.w3.org/1999/xlink">
    <!-- Generator: Sketch 3.7.2 (28276) - http://www.bohemiancoding.com/sketch -->
    <title>color-bar</title>
    <desc>Created with Sketch.</desc>
    <defs></defs>
    <g id="Resolution" stroke="none" stroke-width="1" fill="none" fill-rule="evenodd">
        <g id="Mobile-Portrait" transform="translate(0.000000, -210.000000)">
            <g id="color-bar" transform="translate(-40.000000, 210.000000)">
                <g id="Rectangle-1">
                    <rect fill="#E6E325" x="0" y="0" width="40" height="5"></rect>
                    <rect fill="#DE672B" x="40" y="0" width="40" height="5"></rect>
                    <rect fill="#D8232A" x="80" y="0" width="40" height="5"></rect>
                    <rect fill="#009949" x="120" y="0" width="40" height="5"></rect>
                    <rect fill="#009D9C" x="160" y="0" width="40" height="5"></rect>
                    <rect fill="#005A9B" x="200" y="0" width="40" height="5"></rect>
                    <rect fill="#E6E325" x="240" y="0" width="40" height="5"></rect>
                    <rect fill="#DE672B" x="280" y="0" width="40" height="5"></rect>
                    <rect fill="#D8232A" x="320" y="0" width="40" height="5"></rect>
                    <rect fill="#009949" x="360" y="0" width="40" height="5"></rect>
                    <rect fill="#009D9C" x="400" y="0" width="40" height="5"></rect>
                    <rect fill="#005A9B" x="440" y="0" width="40" height="5"></rect>
                    <rect fill="#E6E325" x="480" y="0" width="40" height="5"></rect>
                    <rect fill="#DE672B" x="520" y="0" width="40" height="5"></rect>
                    <rect fill="#D8232A" x="560" y="0" width="40" height="5"></rect>
                    <rect fill="#009949" x="600" y="0" width="40" height="5"></rect>
                    <rect fill="#009D9C" x="640" y="0" width="40" height="5"></rect>
                    <rect fill="#005A9B" x="680" y="0" width="40" height="5"></rect>
                </g>
            </g>
        </g>
    </g>
</svg>