<?xml version="1.0" encoding="UTF-8" standalone="no"?>
<svg width="148px" height="118px" viewBox="0 0 148 118" version="1.1" xmlns="http://www.w3.org/2000/svg" xmlns:xlink="http://www.w3.org/1999/xlink">
    <!-- Generator: Sketch 3.8.1 (29687) - http://www.bohemiancoding.com/sketch -->
    <title>concept-icon</title>
    <desc>Created with Sketch.</desc>
    <defs></defs>
    <g id="Resolution" stroke="none" stroke-width="1" fill="none" fill-rule="evenodd">
        <g id="Mobile-Process" transform="translate(-86.000000, -1335.000000)" fill="#FFFFFF">
            <g id="process-method" transform="translate(0.000000, 422.000000)">
                <g id="concept-icon" transform="translate(86.000000, 913.000000)">
                    <path d="M40.7452055,39.590411 C39.4773973,39.590411 38.4417808,38.5630137 38.4417808,37.2869863 L38.4417808,25.5520548 C38.4417808,24.2760274 39.4773973,23.2486301 40.7452055,23.2486301 C42.0150685,23.2486301 43.0506849,24.2760274 43.0506849,25.5520548 L43.0506849,37.2869863 C43.0424658,38.5630137 42.0150685,39.590411 40.7452055,39.590411 L40.7452055,39.590411 Z" id="Fill-1"></path>
                    <path d="M20.1890411,70.5890411 C19.6034247,70.5890411 19.009589,70.3630137 18.5616438,69.9150685 C17.6616438,69.0150685 17.6616438,67.5623288 18.5616438,66.6643836 L26.8609589,58.3650685 C27.7589041,57.4650685 29.2116438,57.4650685 30.119863,58.3650685 C31.0178082,59.2630137 31.0178082,60.7239726 30.119863,61.6239726 L21.8184932,69.9232877 C21.3705479,70.3712329 20.7767123,70.5890411 20.1890411,70.5890411 L20.1890411,70.5890411 Z" id="Fill-2"></path>
                    <path d="M62.2013699,70.0506849 C61.6157534,70.0506849 61.0219178,69.8267123 60.5719178,69.3684932 L52.2726027,61.0691781 C51.3726027,60.1712329 51.3726027,58.7164384 52.2726027,57.810274 C53.1705479,56.9123288 54.6232877,56.9123288 55.5315068,57.810274 L63.8308219,66.109589 C64.7287671,67.009589 64.7287671,68.4623288 63.8308219,69.360274 C63.3808219,69.8184932 62.7952055,70.0506849 62.2013699,70.0506849 L62.2013699,70.0506849 Z" id="Fill-3"></path>
                    <path d="M89.6760274,101.057534 C89.090411,101.057534 88.4965753,100.833562 88.0465753,100.383562 L79.7472603,92.0842466 C78.8390411,91.1842466 78.8390411,89.7232877 79.7472603,88.8253425 C80.6452055,87.9253425 82.1061644,87.9253425 83.0061644,88.8253425 L91.3054795,97.1246575 C92.2034247,98.0226027 92.2034247,99.4753425 91.3054795,100.383562 C90.8554795,100.833562 90.2616438,101.057534 89.6760274,101.057534 L89.6760274,101.057534 Z" id="Fill-4"></path>
                    <path d="M27.0684932,102.485616 C26.4828767,102.485616 25.8890411,102.261644 25.4390411,101.811644 L17.139726,93.5205479 C16.2417808,92.6143836 16.2417808,91.1616438 17.139726,90.2616438 C18.039726,89.3554795 19.4924658,89.3554795 20.3986301,90.2616438 L28.7061644,98.5609589 C29.6061644,99.4609589 29.6061644,100.921918 28.7061644,101.819863 C28.2479452,102.261644 27.6623288,102.485616 27.0684932,102.485616 L27.0684932,102.485616 Z" id="Fill-5"></path>
                    <path d="M53.9020548,102.485616 C53.3164384,102.485616 52.7226027,102.261644 52.2726027,101.811644 C51.3726027,100.913699 51.3726027,99.4527397 52.2726027,98.5527397 L60.5719178,90.2534247 C61.469863,89.3472603 62.9226027,89.3472603 63.8308219,90.2534247 C64.7287671,91.1534247 64.7287671,92.6061644 63.8308219,93.5123288 L55.5315068,101.803425 C55.0815068,102.261644 54.4876712,102.485616 53.9020548,102.485616 L53.9020548,102.485616 Z" id="Fill-6"></path>
                    <path d="M117.294521,101.057534 C116.708904,101.057534 116.115068,100.833562 115.665068,100.383562 C114.767123,99.4753425 114.767123,98.0226027 115.665068,97.1246575 L123.964384,88.8253425 C124.864384,87.9253425 126.325342,87.9253425 127.223288,88.8253425 C128.123288,89.7232877 128.123288,91.1842466 127.223288,92.0842466 L118.923973,100.383562 C118.476027,100.833562 117.888356,101.057534 117.294521,101.057534 L117.294521,101.057534 Z" id="Fill-7"></path>
                    <path d="M40.7452055,21.6273973 C34.9424658,21.6273973 30.2226027,16.9075342 30.2226027,11.1047945 C30.2226027,5.3 34.9424658,0.582191781 40.7452055,0.582191781 C46.55,0.582191781 51.269863,5.3 51.269863,11.1047945 C51.2616438,16.9075342 46.55,21.6273973 40.7452055,21.6273973 L40.7452055,21.6273973 Z M40.7452055,5.1890411 C37.480137,5.1890411 34.8315068,7.84589041 34.8315068,11.1047945 C34.8315068,14.3636986 37.4863014,17.0205479 40.7452055,17.0205479 C44.0041096,17.0205479 46.6609589,14.3636986 46.6609589,11.1047945 C46.6609589,7.84589041 44.0041096,5.1890411 40.7452055,5.1890411 L40.7452055,5.1890411 Z" id="Fill-8"></path>
                    <path d="M40.7452055,63.259589 C34.9424658,63.259589 30.2226027,58.5417808 30.2226027,52.7369863 C30.2226027,46.9342466 34.9424658,42.2143836 40.7452055,42.2143836 C46.55,42.2143836 51.269863,46.9342466 51.269863,52.7369863 C51.269863,58.5417808 46.55,63.259589 40.7452055,63.259589 L40.7452055,63.259589 Z M40.7452055,46.8212329 C37.480137,46.8212329 34.8315068,49.4780822 34.8315068,52.7369863 C34.8315068,56.0041096 37.4863014,58.6527397 40.7452055,58.6527397 C44.0041096,58.6527397 46.6609589,55.9958904 46.6609589,52.7369863 C46.6609589,49.469863 44.0041096,46.8212329 40.7452055,46.8212329 L40.7452055,46.8212329 Z" id="Fill-9"></path>
                    <path d="M40.7452055,117.49589 C34.9424658,117.49589 30.2226027,112.776027 30.2226027,106.973288 C30.2226027,101.170548 34.9424658,96.4506849 40.7452055,96.4506849 C46.55,96.4506849 51.269863,101.170548 51.269863,106.973288 C51.2616438,112.767808 46.55,117.49589 40.7452055,117.49589 L40.7452055,117.49589 Z M40.7452055,101.057534 C37.480137,101.057534 34.8315068,103.714384 34.8315068,106.981507 C34.8315068,110.240411 37.4863014,112.89726 40.7452055,112.89726 C44.0041096,112.89726 46.6609589,110.240411 46.6609589,106.981507 C46.6609589,103.714384 44.0041096,101.057534 40.7452055,101.057534 L40.7452055,101.057534 Z" id="Fill-10"></path>
                    <path d="M10.55,90.7835616 C4.74726027,90.7835616 0.0273972603,86.0636986 0.0273972603,80.2609589 C0.0273972603,74.4582192 4.74726027,69.7383562 10.55,69.7383562 C16.3527397,69.7383562 21.0726027,74.4582192 21.0726027,80.2609589 C21.0726027,86.0636986 16.3527397,90.7835616 10.55,90.7835616 L10.55,90.7835616 Z M10.55,74.3369863 C7.28287671,74.3369863 4.63424658,76.9938356 4.63424658,80.2527397 C4.63424658,83.519863 7.29109589,86.1767123 10.55,86.1767123 C13.8171233,86.1767123 16.4657534,83.5280822 16.4657534,80.2609589 C16.4657534,77.0020548 13.8089041,74.3369863 10.55,74.3369863 L10.55,74.3369863 Z" id="Fill-11"></path>
                    <path d="M70.4205479,90.7424658 C64.6178082,90.7424658 59.8979452,86.0246575 59.8979452,80.219863 C59.8979452,74.4171233 64.6178082,69.6972603 70.4205479,69.6972603 C76.2232877,69.6972603 80.9431507,74.4171233 80.9431507,80.219863 C80.9431507,86.0246575 76.2232877,90.7424658 70.4205479,90.7424658 L70.4205479,90.7424658 Z M70.4205479,74.3123288 C67.1534247,74.3123288 64.4965753,76.9609589 64.4965753,80.2363014 C64.4965753,83.4952055 67.1534247,86.1520548 70.4205479,86.1520548 C73.6794521,86.1520548 76.3363014,83.4952055 76.3363014,80.2363014 C76.3445205,76.9609589 73.6876712,74.3123288 70.4205479,74.3123288 L70.4205479,74.3123288 Z" id="Fill-12"></path>
                    <path d="M104.195205,117.49589 C98.3924658,117.49589 93.6726027,112.776027 93.6726027,106.973288 C93.6726027,101.170548 98.3924658,96.4506849 104.195205,96.4506849 C110,96.4506849 114.717808,101.170548 114.717808,106.973288 C114.717808,112.767808 110,117.49589 104.195205,117.49589 L104.195205,117.49589 Z M104.195205,101.057534 C100.936301,101.057534 98.2794521,103.714384 98.2794521,106.981507 C98.2794521,110.240411 100.936301,112.89726 104.195205,112.89726 C107.462329,112.89726 110.119178,110.240411 110.119178,106.981507 C110.119178,103.714384 107.45411,101.057534 104.195205,101.057534 L104.195205,101.057534 Z" id="Fill-13"></path>
                    <path d="M137.20137,90.7424658 C131.39863,90.7424658 126.678767,86.0246575 126.678767,80.219863 C126.678767,74.4171233 131.39863,69.6972603 137.20137,69.6972603 C143.00411,69.6972603 147.723973,74.4171233 147.723973,80.219863 C147.723973,86.0246575 143.00411,90.7424658 137.20137,90.7424658 L137.20137,90.7424658 Z M137.20137,74.3123288 C133.934247,74.3123288 131.277397,76.9609589 131.277397,80.2363014 C131.277397,83.4952055 133.934247,86.1520548 137.20137,86.1520548 C140.468493,86.1520548 143.125342,83.4952055 143.125342,80.2363014 C143.117123,76.9609589 140.468493,74.3123288 137.20137,74.3123288 L137.20137,74.3123288 Z" id="Fill-14"></path>
                </g>
            </g>
        </g>
    </g>
</svg>