<?xml version="1.0" encoding="UTF-8" standalone="no"?>
<svg width="125px" height="102px" viewBox="0 0 125 102" version="1.1" xmlns="http://www.w3.org/2000/svg" xmlns:xlink="http://www.w3.org/1999/xlink">
    <!-- Generator: Sketch 3.8.1 (29687) - http://www.bohemiancoding.com/sketch -->
    <title>design-icon</title>
    <desc>Created with Sketch.</desc>
    <defs></defs>
    <g id="Resolution" stroke="none" stroke-width="1" fill="none" fill-rule="evenodd">
        <g id="Mobile-Process" transform="translate(-98.000000, -1710.000000)" fill="#FFFFFF">
            <g id="process-method" transform="translate(0.000000, 422.000000)">
                <g id="design-icon" transform="translate(98.000000, 1288.000000)">
                    <path d="M62.4616667,46.79 C70.0133333,46.79 76.1333333,40.67 76.1333333,33.1183333 C76.1333333,25.5666667 70.0133333,19.4466667 62.4616667,19.4466667 C54.9083333,19.4466667 48.7883333,25.5666667 48.7883333,33.1183333 C48.7883333,40.67 54.9083333,46.79 62.4616667,46.79 L62.4616667,46.79 Z M62.4616667,21.4 C68.92,21.4 74.18,26.66 74.18,33.1183333 C74.18,39.5766667 68.92,44.8366667 62.4616667,44.8366667 C56.0033333,44.8366667 50.7416667,39.5766667 50.7416667,33.1183333 C50.7416667,26.6533333 55.9966667,21.4 62.4616667,21.4 L62.4616667,21.4 Z" id="Fill-1"></path>
                    <path d="M97.6166667,46.79 C105.17,46.79 111.288333,40.67 111.288333,33.1183333 C111.288333,25.5666667 105.17,19.4466667 97.6166667,19.4466667 C90.065,19.4466667 83.945,25.5666667 83.945,33.1183333 C83.945,40.67 90.065,46.79 97.6166667,46.79 L97.6166667,46.79 Z M97.6166667,21.4 C104.075,21.4 109.336667,26.66 109.336667,33.1183333 C109.336667,39.5766667 104.075,44.8366667 97.6166667,44.8366667 C91.1583333,44.8366667 85.8983333,39.5766667 85.8983333,33.1183333 C85.8983333,26.6533333 91.1516667,21.4 97.6166667,21.4 L97.6166667,21.4 Z" id="Fill-2"></path>
                    <path d="M27.305,46.79 C34.8566667,46.79 40.9766667,40.67 40.9766667,33.1183333 C40.9766667,25.5666667 34.8566667,19.4466667 27.305,19.4466667 C19.7533333,19.4466667 13.6333333,25.5666667 13.6333333,33.1183333 C13.6333333,40.67 19.7533333,46.79 27.305,46.79 L27.305,46.79 Z M27.305,21.4 C33.7633333,21.4 39.0233333,26.66 39.0233333,33.1183333 C39.0233333,39.5766667 33.7633333,44.8366667 27.305,44.8366667 C20.8466667,44.8366667 15.5866667,39.5766667 15.5866667,33.1183333 C15.5866667,26.6533333 20.84,21.4 27.305,21.4 L27.305,21.4 Z" id="Fill-3"></path>
                    <polygon id="Fill-4" points="22.025 39.7783333 27.2983333 34.4983333 32.585 39.7783333 33.9583333 38.3983333 28.685 33.1183333 33.9583333 27.8383333 32.585 26.4583333 27.2983333 31.7383333 22.025 26.4583333 20.6383333 27.8383333 25.925 33.1183333 20.6383333 38.3983333"></polygon>
                    <polygon id="Fill-5" points="57.22 39.7783333 62.5 34.4983333 67.78 39.7783333 69.16 38.3983333 63.88 33.1183333 69.16 27.8383333 67.78 26.4583333 62.5 31.7383333 57.22 26.4583333 55.84 27.8383333 61.12 33.1183333 55.84 38.3983333"></polygon>
                    <polygon id="Fill-6" points="92.415 39.7783333 97.7016667 34.4983333 102.975 39.7783333 104.361667 38.3983333 99.075 33.1183333 104.361667 27.8383333 102.975 26.4583333 97.7016667 31.7383333 92.415 26.4583333 91.0416667 27.8383333 96.315 33.1183333 91.0416667 38.3983333"></polygon>
                    <path d="M0,0.0516666667 L0,101.615 L125,101.615 L125,0.0516666667 L0,0.0516666667 Z M123.046667,99.6616667 L1.95333333,99.6616667 L1.95333333,2.005 L123.046667,2.005 L123.046667,99.6616667 Z" id="Fill-7"></path>
                    <polygon id="Fill-8" points="13.6266667 71.205 40.97 71.205 40.97 69.2516667 13.6266667 69.2516667"></polygon>
                    <polygon id="Fill-9" points="17.5333333 79.0166667 37.065 79.0166667 37.065 77.0633333 17.5333333 77.0633333"></polygon>
                    <polygon id="Fill-10" points="48.7833333 71.205 76.1266667 71.205 76.1266667 69.2516667 48.7833333 69.2516667"></polygon>
                    <polygon id="Fill-11" points="52.6883333 79.0166667 72.22 79.0166667 72.22 77.0633333 52.6883333 77.0633333"></polygon>
                    <polygon id="Fill-12" points="83.9383333 71.205 111.281667 71.205 111.281667 69.2516667 83.9383333 69.2516667"></polygon>
                    <polygon id="Fill-13" points="87.845 79.0166667 107.376667 79.0166667 107.376667 77.0633333 87.845 77.0633333"></polygon>
                    <path d="M23.3983333,54.6033333 C23.3983333,56.7583333 25.15,58.5083333 27.305,58.5083333 C29.46,58.5083333 31.2116667,56.7583333 31.2116667,54.6033333 C31.2116667,52.4483333 29.46,50.6966667 27.305,50.6966667 C25.1433333,50.6966667 23.3983333,52.4416667 23.3983333,54.6033333 L23.3983333,54.6033333 Z M29.2583333,54.6033333 C29.2583333,55.6833333 28.385,56.5566667 27.305,56.5566667 C26.2233333,56.5566667 25.3516667,55.6833333 25.3516667,54.6033333 C25.3516667,53.5216667 26.2233333,52.65 27.305,52.65 C28.385,52.65 29.2583333,53.5216667 29.2583333,54.6033333 L29.2583333,54.6033333 Z" id="Fill-14"></path>
                    <path d="M58.555,54.6033333 C58.555,56.7583333 60.3066667,58.5083333 62.4616667,58.5083333 C64.6166667,58.5083333 66.3666667,56.7583333 66.3666667,54.6033333 C66.3666667,52.4483333 64.6166667,50.6966667 62.4616667,50.6966667 C60.3,50.6966667 58.555,52.4416667 58.555,54.6033333 L58.555,54.6033333 Z M64.4133333,54.6033333 C64.4133333,55.6833333 63.5416667,56.5566667 62.4616667,56.5566667 C61.38,56.5566667 60.5083333,55.6833333 60.5083333,54.6033333 C60.5083333,53.5216667 61.38,52.65 62.4616667,52.65 C63.5416667,52.65 64.4133333,53.5216667 64.4133333,54.6033333 L64.4133333,54.6033333 Z" id="Fill-15"></path>
                    <path d="M93.7116667,54.6033333 C93.7116667,56.7583333 95.4616667,58.5083333 97.6166667,58.5083333 C99.7716667,58.5083333 101.523333,56.7583333 101.523333,54.6033333 C101.523333,52.4483333 99.7716667,50.6966667 97.6166667,50.6966667 C95.455,50.6966667 93.7116667,52.4416667 93.7116667,54.6033333 L93.7116667,54.6033333 Z M99.57,54.6033333 C99.57,55.6833333 98.6983333,56.5566667 97.6166667,56.5566667 C96.5366667,56.5566667 95.6633333,55.6833333 95.6633333,54.6033333 C95.6633333,53.5216667 96.5366667,52.65 97.6166667,52.65 C98.6983333,52.65 99.57,53.5216667 99.57,54.6033333 L99.57,54.6033333 Z" id="Fill-16"></path>
                </g>
            </g>
        </g>
    </g>
</svg>