<?xml version="1.0" encoding="UTF-8" standalone="no"?>
<svg width="100px" height="137px" viewBox="0 0 100 137" version="1.1" xmlns="http://www.w3.org/2000/svg" xmlns:xlink="http://www.w3.org/1999/xlink">
    <!-- Generator: Sketch 3.8.1 (29687) - http://www.bohemiancoding.com/sketch -->
    <title>discover-icon</title>
    <desc>Created with Sketch.</desc>
    <defs></defs>
    <g id="Resolution" stroke="none" stroke-width="1" fill="none" fill-rule="evenodd">
        <g id="Mobile-Process" transform="translate(-110.000000, -988.000000)" fill="#FFFFFF">
            <g id="process-method" transform="translate(0.000000, 422.000000)">
                <g id="discover-icon" transform="translate(110.000000, 566.000000)">
                    <path d="M98.04,0 L1.96,0 C1.10727273,0 0.412727273,0.696363636 0.412727273,1.54909091 L0.412727273,134.814545 C0.412727273,135.667273 1.10727273,136.363636 1.96,136.363636 L98.0327273,136.363636 C98.8854545,136.363636 99.5818182,135.667273 99.5818182,134.814545 L99.5818182,1.54909091 C99.5872727,0.696363636 98.8927273,0 98.04,0 L98.04,0 Z M96.4836364,133.267273 L3.51636364,133.267273 L3.51636364,3.09636364 L96.4909091,3.09636364 L96.4909091,133.267273 L96.4836364,133.267273 Z" id="Fill-1"></path>
                    <path d="M19.0054545,80.5745455 C21.4636364,80.5745455 23.5581818,79.14 24.5672727,77.0672727 L39.1836364,79.9854545 C39.1690909,80.1909091 39.1545455,80.3836364 39.1545455,80.5745455 C39.1545455,83.5654545 40.3618182,86.2709091 42.3218182,88.2309091 L32.7836364,100.950909 C32.3436364,100.816364 31.8890909,100.723636 31.4054545,100.723636 C28.8345455,100.723636 26.7545455,102.805455 26.7545455,105.376364 C26.7545455,107.947273 28.8345455,110.029091 31.4054545,110.029091 C33.9781818,110.029091 36.0581818,107.947273 36.0581818,105.376364 C36.0581818,104.425455 35.7672727,103.536364 35.2763636,102.798182 L44.8018182,90.1 C46.3418182,90.9454545 48.1109091,91.4272727 50,91.4272727 C52.0036364,91.4272727 53.8781818,90.8727273 55.4909091,89.9218182 L69.8436364,107.869091 C69.0690909,108.905455 68.5945455,110.178182 68.5945455,111.569091 C68.5945455,114.992727 71.3709091,117.769091 74.7945455,117.769091 C78.2181818,117.769091 80.9945455,114.992727 80.9945455,111.569091 C80.9945455,108.145455 78.2181818,105.369091 74.7945455,105.369091 C73.8927273,105.369091 73.04,105.574545 72.2581818,105.923636 L57.9054545,87.9836364 C59.7309091,86.0436364 60.8454545,83.4454545 60.8454545,80.5745455 C60.8454545,79.6945455 60.7309091,78.8490909 60.5327273,78.0327273 L76.0090909,71.84 C77.1381818,73.3727273 78.9418182,74.3818182 80.9945455,74.3818182 C84.4181818,74.3818182 87.1945455,71.6054545 87.1945455,68.1818182 C87.1945455,64.7581818 84.4181818,61.9818182 80.9945455,61.9818182 C77.5709091,61.9818182 74.7945455,64.7581818 74.7945455,68.1818182 C74.7945455,68.4509091 74.8436364,68.7 74.8727273,68.9636364 L59.3818182,75.1563636 C58.04,72.84 55.88,71.0727273 53.2890909,70.2418182 L56.74,49.5309091 C59.9072727,49.2472727 62.3927273,46.6272727 62.3927273,43.3872727 C62.3927273,39.9636364 59.6163636,37.1872727 56.1927273,37.1872727 C52.7690909,37.1872727 49.9927273,39.9636364 49.9927273,43.3872727 C49.9927273,45.9163636 51.5127273,48.0745455 53.6781818,49.0418182 L50.2272727,69.7363636 C50.1563636,69.7436364 50.0781818,69.7309091 50,69.7309091 C48.8072727,69.7309091 47.6636364,69.9290909 46.5909091,70.2836364 L40.9509091,58.9981818 C41.7545455,58.1672727 42.2509091,57.0381818 42.2509091,55.7890909 C42.2509091,53.2181818 40.1709091,51.1363636 37.6,51.1363636 C35.0290909,51.1363636 32.9472727,53.2181818 32.9472727,55.7890909 C32.9472727,58.36 35.0290909,60.44 37.6,60.44 C37.7909091,60.44 37.9763636,60.4054545 38.16,60.3836364 L43.8072727,71.6836364 C41.96,72.9690909 40.54,74.8090909 39.78,76.9672727 L25.1636364,74.0490909 C24.9854545,70.7745455 22.3145455,68.1818182 19.0054545,68.1818182 C15.5818182,68.1818182 12.8054545,70.9581818 12.8054545,74.3818182 C12.8054545,77.8054545 15.5818182,80.5745455 19.0054545,80.5745455 L19.0054545,80.5745455 Z" id="Fill-2"></path>
                    <polygon id="Fill-3" points="12.8127273 13.9418182 50 13.9418182 50 10.8454545 12.8127273 10.8454545"></polygon>
                    <polygon id="Fill-4" points="12.8127273 19.3690909 37.6072727 19.3690909 37.6072727 17.82 12.8127273 17.82"></polygon>
                </g>
            </g>
        </g>
    </g>
</svg>