<svg xmlns="http://www.w3.org/2000/svg" viewBox="0 0 102.2307 50"><defs><style>.a { fill: none; } .b { fill: #414042; } .c { fill: #6d6e71; }</style></defs><title>do-bevel</title><path class="a" d="M60.553 47.136a34.722 34.722 0 0 0 1.802-3.038c2.072-3.93 3.852-8 5.586-12.088a91.19 91.19 0 0 0 3.736-10.057 17.245 17.245 0 0 0 .772-3.923c0-.158.007-.317 0-.476a1.33 1.33 0 0 0-1.374-1.374 2.312 2.312 0 0 0-1.595.47 8.15 8.15 0 0 0-1.136 1.068 23.033 23.033 0 0 0-2.734 4.293 153.42 153.42 0 0 0-6.94 15.572 51.068 51.068 0 0 0-2.495 7.682 11.614 11.614 0 0 0-.284 2.083 1.634 1.634 0 0 0 .4 1.234 7.87 7.87 0 0 0 1.596.47 2.24 2.24 0 0 0 1.378-.533 7.366 7.366 0 0 0 1.29-1.38z"/><path class="b" d="M57.554 49.056c.112.004.222 0 .33-.007a7.87 7.87 0 0 1-1.596-.47 1.773 1.773 0 0 0 1.266.476z"/><path class="a" d="M60.553 47.136a34.72 34.72 0 0 0 1.802-3.038c2.072-3.93 3.852-8 5.586-12.088a91.188 91.188 0 0 0 3.736-10.056 17.246 17.246 0 0 0 .772-3.924c0-.158.007-.317 0-.476a1.33 1.33 0 0 0-1.374-1.374 2.577 2.577 0 0 0-.968.136c.1-.017.197-.04.297-.055-.1.017-.198.038-.297.056a2.085 2.085 0 0 0-.627.335 8.153 8.153 0 0 0-1.136 1.068 23.032 23.032 0 0 0-2.734 4.293 153.42 153.42 0 0 0-6.94 15.572 51.07 51.07 0 0 0-2.495 7.682 11.614 11.614 0 0 0-.284 2.083 1.634 1.634 0 0 0 .4 1.234 1.773 1.773 0 0 0 1.265.476c.112.004.222 0 .33-.007a2.24 2.24 0 0 0 1.38-.533 7.366 7.366 0 0 0 1.288-1.38z"/><path class="b" d="M50.934 36.882c1.44-8.513 9.355-18.87 19.172-20.566a2.577 2.577 0 0 1 .968-.136 1.33 1.33 0 0 1 1.373 1.374c.008.158 0 .317 0 .476a17.246 17.246 0 0 1-.77 3.923A91.188 91.188 0 0 1 67.94 32.01c-1.733 4.088-3.513 8.156-5.585 12.087a34.72 34.72 0 0 1-1.802 3.038 7.366 7.366 0 0 1-1.29 1.382 2.24 2.24 0 0 1-1.378.532c3.55.628 8.81-1.22 15.998-13.645 8.828-15.256-2.645-20.118-2.645-20.118a23.243 23.243 0 0 0-6.278.563 30.484 30.484 0 0 0-17.178 10.518 15.358 15.358 0 0 0-3.818 9.807 11.686 11.686 0 0 0 1.08 5.416 14.194 14.194 0 0 0 10.582 8.1c-.17-.046-6.143-4.23-4.692-12.808z"/><path class="b" d="M83.52 24.747a13.08 13.08 0 0 0-12.282-9.46s11.473 4.863 2.645 20.118C66.695 47.83 61.435 49.678 57.885 49.05c-.11.006-.22.01-.33.006a1.773 1.773 0 0 1-1.267-.475 1.634 1.634 0 0 1-.398-1.233 11.614 11.614 0 0 1 .284-2.083 51.07 51.07 0 0 1 2.495-7.682 153.42 153.42 0 0 1 6.94-15.57 23.032 23.032 0 0 1 2.733-4.294 8.153 8.153 0 0 1 1.135-1.067 2.085 2.085 0 0 1 .628-.334C60.29 18.012 52.374 28.37 50.934 36.882c-1.45 8.58 4.522 12.762 4.692 12.808a20.058 20.058 0 0 0 2.667.31 25.912 25.912 0 0 0 4.816-.523 28.926 28.926 0 0 0 13.67-6.735 22.446 22.446 0 0 0 5.943-8.023 14.825 14.825 0 0 0 .798-9.973zM98.62 34.365a7.713 7.713 0 0 0-7.5-.28 9.118 9.118 0 0 0-5.28 8.425 13.046 13.046 0 0 0 .14 1.39 7.418 7.418 0 0 0 4.89 5.542c2.77-9.92 7.086-14.428 7.75-15.077z"/><path class="b" d="M98.62 34.365c-.664.65-4.98 5.156-7.75 15.077a7.25 7.25 0 0 0 4.283.14 9.38 9.38 0 0 0 6.62-6.278 7.243 7.243 0 0 0-.294-5.756 7.742 7.742 0 0 0-2.86-3.183z"/><g><path class="b" d="M21.068 37.82l.022-.055a21.93 21.93 0 0 1-3.274 5.297 18.447 18.447 0 0 1-1.7 1.654 2.132 2.132 0 0 1-.715.37 1.015 1.015 0 0 1-1.457-.757 7.195 7.195 0 0 1-.13-1.008 19.662 19.662 0 0 1 1.027-4.503 84.734 84.734 0 0 1 6.01-14.33 15.87 15.87 0 0 1 2.982-4.11 4.93 4.93 0 0 1 1.095-.79 1.052 1.052 0 0 1 1.6.492c.016.033.03.07.045.103a3.8 3.8 0 0 0-.712-1.908c-1.178-1.206-6.472-1.083-12.518 6.9s-6.87 13.708-6.22 19.638c.31 2.83 2.753 3.797 5.22 4.035q.444-.206.877-.446a19.187 19.187 0 0 0 5.833-5.23c.102-.133.217-.255.428-.5 0 0-.242-.64 1.588-4.854z"/><path class="b" d="M26.57 42.15S39.04 12.945 44.415.027L32.446 0h-.773l-.2.654a5.495 5.495 0 0 0 .63.132c.315.027.634.02.95.037.794.044 1.587.077 2.377.146.556.047.674.218.535.757a9.843 9.843 0 0 1-.397 1.155c-.592 1.495-1.195 2.987-1.792 4.48l-5.428 13.566c-.077.193-.177.377-.318.674-.206-.763-.33-1.384-.54-1.976a5.812 5.812 0 0 0-4.223-4.045 8.704 8.704 0 0 0-4.104.164 19.448 19.448 0 0 0-6.826 3.253A30.44 30.44 0 0 0 2.32 30.88 21.355 21.355 0 0 0 .024 41.26a10.532 10.532 0 0 0 1.335 5.005 7.045 7.045 0 0 0 6.348 3.645 10.808 10.808 0 0 0 4.635-1.06c-2.468-.238-4.91-1.205-5.22-4.035-.65-5.93.172-11.657 6.218-19.64s11.34-8.104 12.52-6.898a3.8 3.8 0 0 1 .712 1.908 6.618 6.618 0 0 1 .49 1.567 4.784 4.784 0 0 1-.302 2.91c-1.875 4.25-3.663 8.534-5.526 12.786-.047.106-.096.21-.144.317l-.022.055c-1.83 4.213-1.587 4.854-1.587 4.854 0 .404.002.646 0 .89a4.952 4.952 0 0 0 1.725 3.845 8.012 8.012 0 0 0 2.744 1.593 12.477 12.477 0 0 0 4.824.56 12.05 12.05 0 0 0 2.21-.304c-7.436 1.148-4.415-7.11-4.415-7.11z"/><path class="b" d="M51.027.04Q47.72.03 44.417.026C39.04 12.944 26.568 42.15 26.568 42.15s-3.022 8.258 4.413 7.11a9.55 9.55 0 0 0 5.677-3.837 34.35 34.35 0 0 0 3.608-6.533c.014-.032-.018-.084-.036-.158a2.453 2.453 0 0 0-.333-.182 4.872 4.872 0 0 0-.502-.128c-.112.21-.22.403-.32.6-.675 1.283-1.304 2.593-2.037 3.842a23.47 23.47 0 0 1-1.74 2.423 3.72 3.72 0 0 1-.82.707.883.883 0 0 1-.964.117c-.342-.198-.313-.577-.256-.92a4.864 4.864 0 0 1 .18-.794c.297-.856.572-1.723.926-2.555 2.383-5.608 4.793-11.206 7.18-16.814q4.63-10.883 9.238-21.775c.406-.956.826-1.906 1.228-2.832C51.77-.04 51.38.04 51.027.04z"/></g><g><path class="a" d="M60.553 47.136a34.722 34.722 0 0 0 1.802-3.038c2.072-3.93 3.852-8 5.586-12.088a91.19 91.19 0 0 0 3.736-10.057 17.245 17.245 0 0 0 .772-3.923c0-.158.007-.317 0-.476a1.33 1.33 0 0 0-1.374-1.374 2.312 2.312 0 0 0-1.595.47 8.15 8.15 0 0 0-1.136 1.068 23.033 23.033 0 0 0-2.734 4.293 153.42 153.42 0 0 0-6.94 15.572 51.068 51.068 0 0 0-2.495 7.682 11.614 11.614 0 0 0-.284 2.083 1.634 1.634 0 0 0 .4 1.234 7.87 7.87 0 0 0 1.596.47 2.24 2.24 0 0 0 1.378-.533 7.366 7.366 0 0 0 1.29-1.38z"/><path class="a" d="M57.554 49.056c.112.004.222 0 .33-.007a7.87 7.87 0 0 1-1.596-.47 1.773 1.773 0 0 0 1.266.476z"/><path class="a" d="M60.553 47.136a34.72 34.72 0 0 0 1.802-3.038c2.072-3.93 3.852-8 5.586-12.088a91.188 91.188 0 0 0 3.736-10.056 17.246 17.246 0 0 0 .772-3.924c0-.158.007-.317 0-.476a1.33 1.33 0 0 0-1.374-1.374 2.577 2.577 0 0 0-.968.136c.1-.017.197-.04.297-.055-.1.017-.198.038-.297.056a2.085 2.085 0 0 0-.627.335 8.153 8.153 0 0 0-1.136 1.068 23.032 23.032 0 0 0-2.734 4.293 153.42 153.42 0 0 0-6.94 15.572 51.07 51.07 0 0 0-2.495 7.682 11.614 11.614 0 0 0-.284 2.083 1.634 1.634 0 0 0 .4 1.234 1.773 1.773 0 0 0 1.265.476c.112.004.222 0 .33-.007a2.24 2.24 0 0 0 1.38-.533 7.366 7.366 0 0 0 1.288-1.38z"/><path class="c" d="M50.934 36.882c1.44-8.513 9.355-18.87 19.172-20.566a2.577 2.577 0 0 1 .968-.136 1.33 1.33 0 0 1 1.373 1.374c.008.158 0 .317 0 .476a17.246 17.246 0 0 1-.77 3.923A91.188 91.188 0 0 1 67.94 32.01c-1.733 4.088-3.513 8.156-5.585 12.087a34.72 34.72 0 0 1-1.802 3.038 7.366 7.366 0 0 1-1.29 1.382 2.24 2.24 0 0 1-1.378.532c3.55.628 8.81-1.22 15.998-13.645 8.828-15.256-2.645-20.118-2.645-20.118a23.243 23.243 0 0 0-6.278.563 30.484 30.484 0 0 0-17.178 10.518 15.358 15.358 0 0 0-3.818 9.807 11.686 11.686 0 0 0 1.08 5.416 14.194 14.194 0 0 0 10.582 8.1c-.17-.046-6.143-4.23-4.692-12.808z"/><path class="b" d="M83.52 24.747a13.08 13.08 0 0 0-12.282-9.46s11.473 4.863 2.645 20.118C66.695 47.83 61.435 49.678 57.885 49.05c-.11.006-.22.01-.33.006a1.773 1.773 0 0 1-1.267-.475 1.634 1.634 0 0 1-.398-1.233 11.614 11.614 0 0 1 .284-2.083 51.07 51.07 0 0 1 2.495-7.682 153.42 153.42 0 0 1 6.94-15.57 23.032 23.032 0 0 1 2.733-4.294 8.153 8.153 0 0 1 1.135-1.067 2.085 2.085 0 0 1 .628-.334C60.29 18.012 52.374 28.37 50.934 36.882c-1.45 8.58 4.522 12.762 4.692 12.808a20.058 20.058 0 0 0 2.667.31 25.912 25.912 0 0 0 4.816-.523 28.926 28.926 0 0 0 13.67-6.735 22.446 22.446 0 0 0 5.943-8.023 14.825 14.825 0 0 0 .798-9.973z"/><path class="c" d="M98.62 34.365a7.713 7.713 0 0 0-7.5-.28 9.118 9.118 0 0 0-5.28 8.425 13.046 13.046 0 0 0 .14 1.39 7.418 7.418 0 0 0 4.89 5.542c2.77-9.92 7.086-14.428 7.75-15.077z"/><path class="b" d="M98.62 34.365c-.664.65-4.98 5.156-7.75 15.077a7.25 7.25 0 0 0 4.283.14 9.38 9.38 0 0 0 6.62-6.278 7.243 7.243 0 0 0-.294-5.756 7.742 7.742 0 0 0-2.86-3.183z"/></g><g><path class="b" d="M21.068 37.82l.022-.055a21.93 21.93 0 0 1-3.274 5.297 18.447 18.447 0 0 1-1.7 1.654 2.132 2.132 0 0 1-.715.37 1.015 1.015 0 0 1-1.457-.757 7.195 7.195 0 0 1-.13-1.008 19.662 19.662 0 0 1 1.027-4.503 84.734 84.734 0 0 1 6.01-14.33 15.87 15.87 0 0 1 2.982-4.11 4.93 4.93 0 0 1 1.095-.79 1.052 1.052 0 0 1 1.6.492c.016.033.03.07.045.103a3.8 3.8 0 0 0-.712-1.908c-1.178-1.206-6.472-1.083-12.518 6.9s-6.87 13.708-6.22 19.638c.31 2.83 2.753 3.797 5.22 4.035q.444-.206.877-.446a19.187 19.187 0 0 0 5.833-5.23c.102-.133.217-.255.428-.5 0 0-.242-.64 1.588-4.854z"/><path class="c" d="M26.57 42.15S39.04 12.945 44.415.027L32.446 0h-.773l-.2.654a5.495 5.495 0 0 0 .63.132c.315.027.634.02.95.037.794.044 1.587.077 2.377.146.556.047.674.218.535.757a9.843 9.843 0 0 1-.397 1.155c-.592 1.495-1.195 2.987-1.792 4.48l-5.428 13.566c-.077.193-.177.377-.318.674-.206-.763-.33-1.384-.54-1.976a5.812 5.812 0 0 0-4.223-4.045 8.704 8.704 0 0 0-4.104.164 19.448 19.448 0 0 0-6.826 3.253A30.44 30.44 0 0 0 2.32 30.88 21.355 21.355 0 0 0 .024 41.26a10.532 10.532 0 0 0 1.335 5.005 7.045 7.045 0 0 0 6.348 3.645 10.808 10.808 0 0 0 4.635-1.06c-2.468-.238-4.91-1.205-5.22-4.035-.65-5.93.172-11.657 6.218-19.64s11.34-8.104 12.52-6.898a3.8 3.8 0 0 1 .712 1.908 6.618 6.618 0 0 1 .49 1.567 4.784 4.784 0 0 1-.302 2.91c-1.875 4.25-3.663 8.534-5.526 12.786-.047.106-.096.21-.144.317l-.022.055c-1.83 4.213-1.587 4.854-1.587 4.854 0 .404.002.646 0 .89a4.952 4.952 0 0 0 1.725 3.845 8.012 8.012 0 0 0 2.744 1.593 12.477 12.477 0 0 0 4.824.56 12.05 12.05 0 0 0 2.21-.304c-7.436 1.148-4.415-7.11-4.415-7.11z"/><path class="b" d="M51.027.04Q47.72.03 44.417.026C39.04 12.944 26.568 42.15 26.568 42.15s-3.022 8.258 4.413 7.11a9.55 9.55 0 0 0 5.677-3.837 34.35 34.35 0 0 0 3.608-6.533c.014-.032-.018-.084-.036-.158a2.453 2.453 0 0 0-.333-.182 4.872 4.872 0 0 0-.502-.128c-.112.21-.22.403-.32.6-.675 1.283-1.304 2.593-2.037 3.842a23.47 23.47 0 0 1-1.74 2.423 3.72 3.72 0 0 1-.82.707.883.883 0 0 1-.964.117c-.342-.198-.313-.577-.256-.92a4.864 4.864 0 0 1 .18-.794c.297-.856.572-1.723.926-2.555 2.383-5.608 4.793-11.206 7.18-16.814q4.63-10.883 9.238-21.775c.406-.956.826-1.906 1.228-2.832C51.77-.04 51.38.04 51.027.04z"/></g></svg>
