<?xml version="1.0" encoding="UTF-8" standalone="no"?>
<svg width="125px" height="109px" viewBox="0 0 125 109" version="1.1" xmlns="http://www.w3.org/2000/svg" xmlns:xlink="http://www.w3.org/1999/xlink">
    <!-- Generator: Sketch 3.8.1 (29687) - http://www.bohemiancoding.com/sketch -->
    <title>evolve-icon</title>
    <desc>Created with Sketch.</desc>
    <defs></defs>
    <g id="Resolution" stroke="none" stroke-width="1" fill="none" fill-rule="evenodd">
        <g id="Mobile-Process" transform="translate(-80.000000, -2426.000000)" fill="#FFFFFF">
            <g id="process-method" transform="translate(0.000000, 422.000000)">
                <g id="evolve-icon" transform="translate(80.000000, 2004.000000)">
                    <path d="M73.88,91.3933333 L73.4966667,89.6416667 L51.5033333,89.6416667 L51.1266667,91.3933333 C50.1033333,96.1 47.9433333,100.598333 44.8766667,104.408333 L41.96,108.026667 L83.04,108.026667 L80.1233333,104.408333 C77.0633333,100.605 74.9016667,96.1 73.88,91.3933333 L73.88,91.3933333 Z" id="Fill-1"></path>
                    <path d="M119.85,0.306666667 L5.15,0.306666667 C2.75333333,0.306666667 0.8,2.25833333 0.8,4.655 L0.8,81.0083333 C0.8,83.4116667 2.75333333,85.3583333 5.15,85.3583333 L119.85,85.3583333 C122.246667,85.3583333 124.2,83.405 124.2,81.0083333 L124.2,4.66166667 C124.2,2.25833333 122.246667,0.306666667 119.85,0.306666667 L119.85,0.306666667 Z M115.806667,76.9733333 L9.19333333,76.9733333 L9.19333333,8.69833333 L115.806667,8.69833333 L115.806667,76.9733333 Z" id="Fill-2"></path>
                    <polygon id="Fill-3" points="101.881667 36.0616667 101.881667 20.1433333 85.9633333 20.1433333 85.9633333 23.705 95.8066667 23.705 78.8083333 40.7033333 50.905 40.7033333 23.1183333 68.49 101.881667 68.49 101.881667 64.935 94.915 64.935 94.915 34.4466667 82.6883333 46.6733333 82.6883333 64.935 78.6133333 64.935 78.6133333 47.67 66.38 47.67 66.38 64.935 62.305 64.935 62.305 47.67 53.7883333 47.67 50.0783333 51.38 50.0783333 64.935 46.0033333 64.935 46.0033333 55.455 36.5233333 64.935 31.705 64.935 52.3766667 44.265 80.28 44.265 98.3266667 26.2166667 98.3266667 36.0616667"></polygon>
                </g>
            </g>
        </g>
    </g>
</svg>