<?xml version="1.0" encoding="UTF-8" standalone="no"?>
<svg width="158px" height="183px" viewBox="0 0 158 183" version="1.1" xmlns="http://www.w3.org/2000/svg" xmlns:xlink="http://www.w3.org/1999/xlink">
    <!-- Generator: Sketch 3.8.1 (29687) - http://www.bohemiancoding.com/sketch -->
    <title>logo-design-icon</title>
    <desc>Created with Sketch.</desc>
    <defs></defs>
    <g id="Resolution" stroke="none" stroke-width="1" fill="none" fill-rule="evenodd">
        <g id="Mobile-Portfolio" transform="translate(-71.000000, -1346.000000)" fill="#FFFFFF">
            <g id="logo-design-icon" transform="translate(71.000000, 1346.000000)">
                <path d="M131.945455,103.398788 C134.907879,105.973333 137.361212,109.069091 139.237576,112.574545 C141.121212,116.106667 142.522424,120.065455 143.385455,124.324848 C144.255758,128.625455 144.861818,133.001212 145.184242,137.309091 C145.344242,140.072727 145.506667,143.304242 145.666667,147.025455 C145.826667,150.766061 146.112727,154.637576 146.52,158.540606 C146.927273,162.470303 147.589091,166.247273 148.498182,169.769697 C148.726061,170.652121 148.990303,171.493333 149.273939,172.317576 L151.62303,172.317576 C151.254545,171.333333 150.912727,170.310303 150.638788,169.221818 C149.758788,165.803636 149.113939,162.128485 148.716364,158.30303 C148.309091,154.448485 148.025455,150.62303 147.86303,146.921212 C147.70303,143.180606 147.540606,139.941818 147.370909,137.156364 C147.038788,132.734545 146.42303,128.264242 145.523636,123.881212 C144.614545,119.410909 143.147879,115.253333 141.16,111.532121 C139.16,107.781818 136.53697,104.487273 133.366061,101.721212 C131.538182,100.140606 129.397576,98.7951515 127.021818,97.6678788 L127.021818,100.101818 C128.85697,101.059394 130.505455,102.147879 131.945455,103.398788 L131.945455,103.398788 Z" id="Fill-1"></path>
                <path d="M118.250909,9.39151515 C122.769697,11.209697 126.84,13.5587879 130.401212,16.3806061 L130.401212,15.3212121 L132.551515,15.3212121 C128.631515,12.0727273 124.132121,9.39151515 119.075152,7.34545455 C116.008485,6.11636364 112.740606,5.17818182 109.283636,4.5430303 L109.283636,6.78787879 C112.437576,7.40363636 115.438788,8.26424242 118.250909,9.39151515 L118.250909,9.39151515 Z" id="Fill-2"></path>
                <path d="M141.072727,78.5309091 C137.930909,83.9854545 133.22303,88.4921212 127.029091,92.0048485 L127.029091,94.5139394 C134.10303,90.7272727 139.46303,85.7454545 142.978182,79.6290909 C146.008485,74.3830303 147.97697,68.3878788 148.915152,61.769697 L146.689697,61.769697 C145.780606,67.9806061 143.913939,73.6072727 141.072727,78.5309091 L141.072727,78.5309091 Z" id="Fill-3"></path>
                <polygon id="Fill-4" points="9.95757576 5.69939394 97.1648485 5.69939394 97.1648485 3.49333333 9.95757576 3.49333333"></polygon>
                <polygon id="Fill-5" points="2.79636364 172.329697 5.00242424 172.329697 5.00242424 10.6618182 2.79636364 10.6618182"></polygon>
                <path d="M112.587879,158.596364 C112.105455,151.010909 111.368485,143.614545 110.391515,136.608485 C109.843636,132.809697 109.019394,129.44 107.967273,126.446061 L105.618182,126.446061 C106.764848,129.466667 107.635152,132.94303 108.204848,136.921212 C109.169697,143.871515 109.899394,151.209697 110.381818,158.749091 C110.694545,163.692121 111.358788,168.227879 112.362424,172.33697 L114.653333,172.33697 C113.610909,168.208485 112.900606,163.633939 112.587879,158.596364 L112.587879,158.596364 Z" id="Fill-6"></path>
                <polygon id="Fill-7" points="41.0072727 172.329697 43.2133333 172.329697 43.2133333 116.533333 41.0072727 116.533333"></polygon>
                <path d="M99.7854545,114.324848 C95.3151515,111.04 88.7915152,109.372121 80.3260606,109.372121 L48.1757576,109.372121 L48.1757576,111.580606 L80.3357576,111.580606 C87.5139394,111.580606 93.1478788,112.819394 97.1721212,115.243636 L97.1721212,114.324848 L99.7854545,114.324848 Z" id="Fill-8"></path>
                <polygon id="Fill-9" points="9.95757576 179.486061 36.0569697 179.486061 36.0569697 177.28 9.95757576 177.28"></polygon>
                <polygon id="Fill-10" points="121.404848 179.486061 147.530909 179.486061 147.530909 177.28 121.404848 177.28"></polygon>
                <path d="M102.968485,40.8412121 C105.402424,42.9624242 107.106667,45.9272727 108.110303,49.6484848 L110.401212,49.6484848 C109.312727,45.2169697 107.315152,41.7115152 104.406061,39.1733333 C102.173333,37.2339394 99.3684848,35.7648485 96.0545455,34.7612121 L96.0545455,37.0909091 C98.7915152,37.990303 101.121212,39.2315152 102.968485,40.8412121 L102.968485,40.8412121 Z" id="Fill-11"></path>
                <polygon id="Fill-12" points="48.1757576 84.3151515 83.9527273 84.3151515 83.9527273 82.1090909 48.1757576 82.1090909"></polygon>
                <polygon id="Fill-13" points="48.1757576 35.3963636 83.9527273 35.3963636 83.9527273 33.190303 48.1757576 33.190303"></polygon>
                <polygon id="Fill-14" points="41.0072727 77.0060606 43.2133333 77.0060606 43.2133333 40.3490909 41.0072727 40.3490909"></polygon>
                <path d="M102.958788,76.550303 C101.111515,78.1987879 98.7915152,79.4593939 96.0642424,80.3757576 L96.0642424,82.7054545 C99.3878788,81.6848485 102.190303,80.1866667 104.425455,78.1987879 C108.432727,74.6278788 110.723636,69.1078788 111.244848,61.769697 L109.029091,61.769697 C108.527273,68.4266667 106.500606,73.3987879 102.958788,76.550303 L102.958788,76.550303 Z" id="Fill-15"></path>
                <polygon id="Fill-16" points="0.0424242424 8.45575758 7.75151515 8.45575758 7.75151515 0.736969697 0.0424242424 0.736969697"></polygon>
                <polygon id="Fill-17" points="99.3684848 8.45575758 107.077576 8.45575758 107.077576 0.736969697 99.3684848 0.736969697"></polygon>
                <polygon id="Fill-18" points="38.2509091 38.1527273 45.969697 38.1527273 45.969697 30.4436364 38.2509091 30.4436364"></polygon>
                <polygon id="Fill-19" points="38.2509091 86.9309091 45.969697 86.9309091 45.969697 79.2121212 38.2509091 79.2121212"></polygon>
                <polygon id="Fill-20" points="38.2509091 114.327273 45.969697 114.327273 45.969697 106.618182 38.2509091 106.618182"></polygon>
                <polygon id="Fill-21" points="99.3684848 124.242424 107.077576 124.242424 107.077576 116.533333 99.3684848 116.533333"></polygon>
                <polygon id="Fill-22" points="38.2509091 182.242424 45.969697 182.242424 45.969697 174.523636 38.2509091 174.523636"></polygon>
                <polygon id="Fill-23" points="0.0424242424 182.242424 7.75151515 182.242424 7.75151515 174.523636 0.0424242424 174.523636"></polygon>
                <polygon id="Fill-24" points="111.489697 182.242424 119.198788 182.242424 119.198788 174.523636 111.489697 174.523636"></polygon>
                <polygon id="Fill-25" points="149.729697 182.242424 157.438788 182.242424 157.438788 174.523636 149.729697 174.523636"></polygon>
                <polygon id="Fill-26" points="117.126061 100.453333 124.835152 100.453333 124.835152 92.7442424 117.126061 92.7442424"></polygon>
                <polygon id="Fill-27" points="106.53697 59.5636364 114.246061 59.5636364 114.246061 51.8545455 106.53697 51.8545455"></polygon>
                <polygon id="Fill-28" points="86.1490909 38.1527273 93.8581818 38.1527273 93.8581818 30.4436364 86.1490909 30.4436364"></polygon>
                <polygon id="Fill-29" points="86.1490909 86.9309091 93.8581818 86.9309091 93.8581818 79.2121212 86.1490909 79.2121212"></polygon>
                <polygon id="Fill-30" points="132.607273 25.2266667 140.316364 25.2266667 140.316364 17.5175758 132.607273 17.5175758"></polygon>
                <path d="M152.493333,59.5636364 L152.493333,51.8545455 L149.540606,51.8545455 L149.540606,7.65818182 C151.140606,7.18545455 152.313939,5.71878788 152.313939,3.95636364 C152.313939,1.81575758 150.570909,0.0727272727 148.432727,0.0727272727 C146.282424,0.0727272727 144.549091,1.80606061 144.549091,3.95636364 C144.549091,5.70909091 145.722424,7.17575758 147.324848,7.65818182 L147.324848,37.3284848 C146.927273,36.0315152 146.471515,34.7612121 145.96,33.510303 C145.004848,31.1733333 143.819394,28.9575758 142.512727,26.8266667 L142.512727,27.4327273 L140.306667,27.4327273 C141.698182,29.6193939 142.92,31.910303 143.913939,34.3442424 C145.855758,39.1175758 146.98303,44.249697 147.276364,49.6484848 L147.315152,49.6484848 L147.315152,51.8545455 L144.757576,51.8545455 L144.757576,59.5636364 L147.315152,59.5636364 L147.315152,103.510303 C145.715152,103.985455 144.539394,105.452121 144.539394,107.214545 C144.539394,109.355152 146.282424,111.095758 148.42303,111.095758 C150.570909,111.095758 152.304242,109.364848 152.304242,107.214545 C152.304242,105.461818 151.130909,103.985455 149.530909,103.510303 L149.530909,59.5636364 L152.493333,59.5636364 Z" id="Fill-31"></path>
            </g>
        </g>
    </g>
</svg>