<?xml version="1.0" encoding="UTF-8" standalone="no"?>
<svg width="150px" height="150px" viewBox="0 0 150 150" version="1.1" xmlns="http://www.w3.org/2000/svg" xmlns:xlink="http://www.w3.org/1999/xlink">
    <!-- Generator: Sketch 3.8.1 (29687) - http://www.bohemiancoding.com/sketch -->
    <title>print-design-icon</title>
    <desc>Created with Sketch.</desc>
    <defs></defs>
    <g id="Resolution" stroke="none" stroke-width="1" fill="none" fill-rule="evenodd">
        <g id="Mobile-Portfolio" transform="translate(-60.000000, -1136.000000)" fill="#FFFFFF">
            <path d="M209.757867,1136.24213 L209.757867,1286 L60,1286 L60,1136.24213 L209.757867,1136.24213 Z M204.8,1281.04213 L204.8,1251.1264 L154.884267,1251.1264 L154.884267,1281.04213 L204.8,1281.04213 Z M204.8,1246.16853 L204.8,1221.2 L194.884267,1221.2 L194.884267,1246.16 L204.8,1246.16 L204.8,1246.16853 Z M204.8,1216.08427 L204.8,1161.2 L194.884267,1161.2 L194.884267,1216.08427 L204.8,1216.08427 Z M204.8,1156.24213 L204.8,1141.2 L120,1141.2 L120,1156.24213 L204.8,1156.24213 Z M189.757867,1246.16853 L189.757867,1196.24213 L154.884267,1196.24213 L154.884267,1246.16 L189.757867,1246.16 L189.757867,1246.16853 Z M189.757867,1191.1264 L189.757867,1161.2 L154.884267,1161.2 L154.884267,1191.11787 L189.757867,1191.11787 L189.757867,1191.1264 Z M149.9264,1281.04213 L149.9264,1266 L65.1264,1266 L65.1264,1281.04213 L149.9264,1281.04213 Z M149.9264,1261.04213 L149.9264,1211.1264 L120,1211.1264 L120,1261.04213 L149.9264,1261.04213 Z M149.9264,1206.16853 L149.9264,1161.2 L120,1161.2 L120,1206.16 L149.9264,1206.16 L149.9264,1206.16853 Z M114.884267,1261.04213 L114.884267,1246 L64.9578667,1246 L64.9578667,1261.04213 L114.884267,1261.04213 Z M114.884267,1241.04213 L114.884267,1226 L89.9264,1226 L89.9264,1241.04213 L114.884267,1241.04213 Z M114.884267,1221.2 L114.884267,1176.24213 L89.9264,1176.24213 L89.9264,1221.2 L114.884267,1221.2 Z M114.884267,1171.28427 L114.884267,1141.2 L64.9578667,1141.2 L64.9578667,1171.28427 L114.884267,1171.28427 Z M84.9578667,1241.04213 L84.9578667,1211.1264 L64.9578667,1211.1264 L64.9578667,1241.04213 L84.9578667,1241.04213 Z M84.9578667,1206.16853 L84.9578667,1176.24213 L64.9578667,1176.24213 L64.9578667,1206.16 L84.9578667,1206.16 L84.9578667,1206.16853 Z" id="print-design-icon"></path>
        </g>
    </g>
</svg>