<?xml version="1.0" encoding="UTF-8" standalone="no"?>
<svg width="52px" height="33px" viewBox="0 0 52 33" version="1.1" xmlns="http://www.w3.org/2000/svg" xmlns:xlink="http://www.w3.org/1999/xlink">
    <!-- Generator: Sketch 3.7.2 (28276) - http://www.bohemiancoding.com/sketch -->
    <title>quote</title>
    <desc>Created with Sketch.</desc>
    <defs></defs>
    <g id="Resolution" stroke="none" stroke-width="1" fill="none" fill-rule="evenodd">
        <g id="Mobile-Services" transform="translate(-12.000000, -509.000000)" fill="#FFFFFF">
            <path d="M63.1755093,530.078376 C62.4329893,525.120136 58.2172693,521.584616 53.4285093,521.355856 C54.6255093,516.908336 57.5317493,515.142096 61.0672693,514.118376 C61.4085093,514.005136 61.3522693,513.660856 61.3522693,513.660856 L60.7822693,510.128376 C60.7822693,510.128376 60.7260293,509.843376 60.2685093,509.899616 C48.0705093,511.268376 39.8055093,520.557096 41.3460293,531.844616 C42.7679893,539.652096 48.8654693,542.674616 54.5092293,541.875856 C60.1529893,540.964616 64.0305093,535.718336 63.1755093,530.078376 L63.1755093,530.078376 Z M24.2429893,521.355856 C25.3829893,516.908336 28.4055093,515.142096 31.8817493,514.118376 C32.2229893,514.005136 32.1667493,513.660856 32.1667493,513.660856 L31.6529893,510.128376 C31.6529893,510.128376 31.5967493,509.843376 31.1392293,509.899616 C18.9404693,511.208336 10.7355093,520.500856 12.1605093,531.788376 C13.6417493,539.652096 19.7954693,542.674616 25.3829893,541.875856 C31.0267493,540.964616 34.9004693,535.718336 33.9892293,530.078376 C33.2505093,525.060856 29.0879893,521.528376 24.2429893,521.355856 L24.2429893,521.355856 Z" id="quote"></path>
        </g>
    </g>
</svg>