<svg xmlns="http://www.w3.org/2000/svg" viewBox="0 0 200 200.0015">
  <defs>
    <style>
      .a {
        fill: #555759;
      }

      .b {
        fill: #707270;
      }

      .c {
        fill: #bcbec0;
      }

      .d {
        fill: #f0f0f0;
      }
    </style>
  </defs>
  <title>resolution-logo</title>
  <circle class="a" cx="100" cy="100.0007" r="100"/>
  <g>
    <path class="b" d="M57.5544,169.6679h.2769V86.0673H71.7647V72.1338H57.8314v-41.8H100V0a100.0007,100.0007,0,0,0,0,200.0015V188.5722ZM43.898,72.134H29.9647V58.2H43.898Z"/>
    <rect class="b" x="71.7647" y="44.2669" width="28.2353" height="0.0001"/>
    <path class="a" d="M108.4741,44.267c10.3349,0,18.5153,3.0762,24.143,8.8145l.0009-.0009a7.3117,7.3117,0,0,0,2.1535.685,7.3118,7.3118,0,0,1-2.1535-.685l-.0009.0009c-5.6277-5.7383-13.8081-8.8145-24.143-8.8145h0Z"/>
    <path class="a" d="M200,100.0007A100,100,0,0,0,100,0V30.3335h8.4741c14.1448,0,25.8,4.6637,33.9548,12.936,8.2672,8.3866,12.9359,20.4821,12.9359,35.2045,0,14.63-4.2851,26.9651-12.392,35.6725a41.0574,41.0574,0,0,1-14.3346,9.9183L155.24,169.6679h-32.261l-24.3834-41.8H85.6981v41.8H57.5544L100,188.5722v11.4293A100,100,0,0,0,200,100.0007Z"/>
    <path class="a" d="M137.0094,53.7665a7.3593,7.3593,0,0,1-2.238-.001A7.3613,7.3613,0,0,0,137.0094,53.7665Z"/>
    <path class="a" d="M108.4741,100.0007c16.8615,0,19.0239-11.5042,19.0239-21.5268,0-7.12-1.5166-12.2327-4.7287-15.5448-3.1134-3.21-7.82-4.7288-14.2952-4.7288H85.6981v41.8Z"/>
    <path class="a" d="M143.199,46.543a7.3089,7.3089,0,0,1-5.092,6.9672,7.3087,7.3087,0,0,0,5.092-6.9672Z"/>
    <path class="c" d="M85.6981,100.0007V58.2h22.7761c6.4757,0,11.1818,1.5185,14.2952,4.7288a7.3412,7.3412,0,0,0,9.847-9.847h0l.0007-.0006c-5.6277-5.7383-13.8081-8.8145-24.143-8.8145H71.7647v69.6671Z"/>
    <path class="c" d="M143.113,45.4239a7.3611,7.3611,0,0,1,.0861,1.1191,7.2948,7.2948,0,0,1-6.19,7.2235,7.3418,7.3418,0,0,1-4.3915-.6859l-.0009.0009c5.7309,5.8436,8.8144,14.448,8.8144,25.3924,0,22.5279-12.0981,35.46-32.9574,35.46h-1.876l32.5111,55.7338h16.13l-26.6015-45.6032a41.0574,41.0574,0,0,0,14.3346-9.9183c8.1069-8.7074,12.392-21.0427,12.392-35.6725,0-14.7224-4.6687-26.8179-12.9359-35.2045l-.0009.0009A7.3118,7.3118,0,0,1,143.113,45.4239Z"/>
    <polygon class="c" points="106.598 113.934 71.765 113.934 71.765 169.668 71.765 169.668 78.319 169.668 85.698 169.668 85.698 127.868 98.595 127.868 106.598 113.934"/>
    <polygon class="d" points="106.598 113.934 98.595 127.868 122.979 169.668 139.109 169.668 106.598 113.934"/>
    <polygon class="d" points="71.765 86.067 57.831 86.067 57.831 169.668 71.765 169.668 71.765 113.934 71.765 86.067"/>
    <path class="d" d="M57.8314,72.1338H71.7647V44.267h36.7093c10.3349,0,18.5153,3.0762,24.143,8.8145l.0009-.0009a7.3135,7.3135,0,0,0,9.81-9.81l.0009-.0009c-8.1545-8.2723-19.81-12.936-33.9548-12.936H57.8314Z"/>
    <path class="d" d="M132.6164,53.0821a7.3412,7.3412,0,0,1-9.847,9.847c3.2122,3.312,4.7287,8.425,4.7287,15.5448,0,10.0225-2.1624,21.5268-19.0239,21.5268H85.6981L71.7647,113.9342h36.7093c20.8593,0,32.9574-12.9324,32.9574-35.46,0-10.9444-3.0835-19.5488-8.8144-25.3924l-.0007.0006Z"/>
    <rect class="d" x="29.9647" y="58.2005" width="13.9333" height="13.9335"/>
  </g>
</svg>
