<svg xmlns="http://www.w3.org/2000/svg" viewBox="0 0 223.913 50">
  <defs>
    <style>
      .a {
        fill: #414042;
      }

      .b {
        fill: none;
      }

      .c {
        fill: #6d6e71;
      }
    </style>
  </defs>
  <title>this-is-bevel</title>
  <g>
    <g>
      <g>
        <path class="a" d="M40.9737,7.1964l-.6014,1.5,1.311-3.0419c-.0193.0032-.0378.0043-.0573.0082C41.41,6.1689,41.1814,6.6784,40.9737,7.1964Z"/>
        <path class="a" d="M47.8612,24.3732c-.0087.0894-.0124.1793-.0219.2686a.3264.3264,0,0,0,.2641.4017.3228.3228,0,0,0,.43-.2114c.0712-.1889.1576-.3719.2344-.5588,1.2023-2.9267,2.3925-5.8586,3.6093-8.7793,1.3809-3.3146,2.7867-6.6189,4.1777-9.9293.0982-.2336.1638-.481.2837-.8387-.3456,0-.562-.0026-.7784,0-1.6286.0224-3.2573.06-4.8859.0787L46.99,13.79A28.7683,28.7683,0,0,1,47.8612,24.3732Z"/>
        <path class="a" d="M42.8625,5.9748a6.13,6.13,0,0,1,1.15,1.12,12.6914,12.6914,0,0,1,1.1841,1.954A28.3234,28.3234,0,0,1,46.99,13.79l4.1844-8.9853c-.6847.0079-1.3694.0132-2.0541.0113-2.35-.0063-4.7-.035-7.05-.06l-.3873.8986A1.4531,1.4531,0,0,1,42.8625,5.9748Z"/>
        <path class="a" d="M11.7905,12.8143a42.0833,42.0833,0,0,1,6.0612-5.3349,9.6322,9.6322,0,0,1,3.1425-1.4962,3.35,3.35,0,0,1,1.7871-.1363c-.08.2572-.1366.4724-.2141.68l.6485-1.8453q-5.1141-.01-10.2283-.0188l-4.5083,11.69C9.5631,15.1549,10.6612,13.9705,11.7905,12.8143Z"/>
        <path class="a" d="M29.3843,49.0353c.3162-.684.2467-.8264-.3761-.8776-.1567-.0129-.3146-.0113-.4711-.0258-1.0255-.0949-2.0508-.1924-3.0452-.2861a1.3346,1.3346,0,0,1-.11-1.216c.1982-.689.4063-1.3788.6692-2.045q2.8547-7.2317,5.736-14.4528,4.2832-10.7213,8.5847-21.4352l-.0005.0012.0005-.0012.6014-1.5c.2076-.518.4364-1.0274.6522-1.5333.02-.0039.0381-.005.0573-.0082l.3873-.8986c-1.5589-.0168-3.1178-.0324-4.6767-.0378q-2.33-.0081-4.66-.0123L15.1752,48.9687Z"/>
        <path class="a" d="M.6892,25.1282c.2661-.2738.5231-.5568.7774-.8417,2.3506-2.633,4.6439-5.3176,7.0126-7.9343l4.5083-11.69-3.164-.0058c-.3588-.0007-.7179.03-1.0763.0531a.9993.9993,0,0,0-.9858.747Q7.0192,7.5855,6.1769,9.679,3.1357,17.27.0672,24.85A2.2455,2.2455,0,0,0,0,25.076C.233,25.4137.4655,25.3584.6892,25.1282Z"/>
        <path class="a" d="M19.5607,14.528Q13.4433,29.9165,7.273,45.2841c-.2.4993-.4273.9887-.6653,1.4711a1.8393,1.8393,0,0,1-1.612,1.1516c-.29.016-.5773.08-.8673.1-.9386.0621-1.8779.1134-2.9214.175l-.049.7215,14.0173.0657L32.7342,4.7062q-4.7592-.0135-9.5184-.0249l-.6485,1.8453C21.5695,9.1954,20.613,11.8808,19.5607,14.528Z"/>
        <path class="a" d="M117.3187,40.1823a15.61,15.61,0,0,0,2.1-4.7031,8.0254,8.0254,0,0,0-2.4988-.1322,5.9452,5.9452,0,0,0-4.075,1.9824,6.2451,6.2451,0,0,0-.1,7.9481,9.7227,9.7227,0,0,0,2.99,2.4417C113.1442,45.7954,115.7259,42.59,117.3187,40.1823Z"/>
        <path class="a" d="M117.8547,29.3408a8.4981,8.4981,0,0,0,2.5577,3.8928,21.2843,21.2843,0,0,0,3.9981,2.8455c1.0713.6128,2.175,1.1717,3.2251,1.8183s2.0771,1.3352,3.0638,2.073a3.828,3.828,0,0,1,1.5621,2.5159,4.8438,4.8438,0,0,1-1.9813,4.9091,6.9851,6.9851,0,0,1-3.5483,1.35h.0042c11.6793-.2239,12.1553-7.0579,12.1216-10.318s-8.7778-7.226-10.2243-8.1292-6.5307-3.3093-4.0419-8.1963c2.4432-4.7975,9.2891-6.1253,9.5391-6.1723q-.52.0411-1.0406.0891a24.6884,24.6884,0,0,0-8.5218,2.2995A13.5011,13.5011,0,0,0,119,22.8636,7.5118,7.5118,0,0,0,117.8547,29.3408Z"/>
        <path class="a" d="M145.3962,20.4052c.907-1.5646-.1921-2.2452-1.0431-2.5273a.7916.7916,0,0,1,.19.416c-.3813.1139-.7225.21-1.06.3179-.81.2592-1.6328.4856-2.4224.7965a4.6534,4.6534,0,0,0-2.2959,1.9032,4.49,4.49,0,0,0,1.9832,6.4377,6.0649,6.0649,0,0,0,1.6131.5025C141.6508,25.5709,144.023,22.7738,145.3962,20.4052Z"/>
        <path class="a" d="M124.5915,22.1014c-2.4888,4.887,2.5954,7.2932,4.0419,8.1963s10.1906,4.8691,10.2243,8.1292-.4424,10.0941-12.1216,10.318h-.0042q-.2972.0309-.5989.0423a25.4925,25.4925,0,0,1-3.6944-.1316,13.5372,13.5372,0,0,1-4.8223-1.3831,18.5832,18.5832,0,0,1-2.0221-1.3213.6856.6856,0,0,1-.3485-.7786,4.3476,4.3476,0,0,1,.5064-.08c.6954-.03,1.3919-.0389,2.087-.0753a9.419,9.419,0,0,0,2.8261-.5616,3.9634,3.9634,0,0,0,2.1374-1.7644,4.7909,4.7909,0,0,0-2.5641-6.9747,6.6909,6.6909,0,0,0-.82-.2376,15.61,15.61,0,0,1-2.1,4.7031c-1.5928,2.4073-4.1746,5.6131-1.5834,7.5369q.3906.2157.7971.41a18.2594,18.2594,0,0,0,6.2757,1.6347,28.2357,28.2357,0,0,0,6.78-.2067,27.4571,27.4571,0,0,0,8.23-2.6249,14.6209,14.6209,0,0,0,5.1909-4.0926,8.6522,8.6522,0,0,0-1.2122-12.1942,31.0194,31.0194,0,0,0-4.7689-3.1468c-1.6041-.8975-3.1929-1.8271-4.7434-2.8134a5.6547,5.6547,0,0,1-1.4454-1.3884,3.3481,3.3481,0,0,1,.2755-4.3322,6.3744,6.3744,0,0,1,1.3107-1.04,8.5686,8.5686,0,0,1,3.7779-1.0946,21.4794,21.4794,0,0,1,5.103.1593,21.9477,21.9477,0,0,1,2.6007.6492.9122.9122,0,0,1,.4464.2394c.851.282,1.95.9627,1.0431,2.5273-1.3732,2.3686-3.7454,5.1657-3.0351,7.8465a6.0362,6.0362,0,0,0,6.2963-2.9318,5.6019,5.6019,0,0,0-.4363-6.2614,7.7531,7.7531,0,0,0-2.97-2.0422,18.8645,18.8645,0,0,0-6.6462-1.2136,38.4714,38.4714,0,0,0-4.4745.1265C133.8806,15.9762,127.0347,17.3039,124.5915,22.1014Z"/>
        <path class="a" d="M94.4592,49.1333a14.2373,14.2373,0,0,0,4.0422.6035,10.97,10.97,0,0,0,1.2975-.0585c-5.8039.194-3.2167-7.44-3.2167-7.44s7.507-17.5469,10.699-25.4926q-4.6763-.0061-9.3526-.002c-.83.0009-1.661.036-2.49.0784-.5519.0283-.551.0467-.5215.6953.7529.0383,1.5112.0813,2.27.1144a7.1093,7.1093,0,0,1,2.3881.354c-.17.426-.3051.7984-.4639,1.1606-2.7386,6.2475-5.3765,12.5362-7.7584,18.93a18.2845,18.2845,0,0,0-1.12,4.2159A6.1756,6.1756,0,0,0,94.4592,49.1333Z"/>
        <path class="a" d="M99.799,49.6783a9.7306,9.7306,0,0,0,6.5449-3.5772,22.2427,22.2427,0,0,0,3.8414-7.0572.5151.5151,0,0,0,.0025-.1746c-.8465-.4333-.8715-.4017-1.2546.3931-.7008,1.4541-1.3888,2.9185-2.1821,4.3221a10.8114,10.8114,0,0,1-1.614,2.0546,2.8977,2.8977,0,0,1-1.207.6892c-.6817.215-1.2248-.2081-1.0877-.904a8.44,8.44,0,0,1,.4769-1.6721q5.3391-12.5411,10.7034-25.0714a4.0144,4.0144,0,0,0,.2672-.83,1.24,1.24,0,0,0-.0624-1.0026c-.8954-.0333-1.79-.0931-2.6841-.0955q-2.1311-.0058-4.2622-.0068c-3.192,7.9457-10.699,25.4926-10.699,25.4926S93.9951,49.8723,99.799,49.6783Z"/>
        <path class="a" d="M105.005,12.6192a6.4273,6.4273,0,0,0,3.5407,1.2824c.1416-.5671,2.6963-10.6343,6.2951-13.662A6.6973,6.6973,0,0,0,113.35.012a10.11,10.11,0,0,0-8.4039,3.6368,7.2489,7.2489,0,0,0-1.8383,5.4025A4.6656,4.6656,0,0,0,105.005,12.6192Z"/>
        <path class="a" d="M108.5457,13.9016q.41.0305.8318.0257c.6471-.0612,1.2973-.1,1.9408-.1872a8.4128,8.4128,0,0,0,7.3879-7.44,5.4786,5.4786,0,0,0-1.166-4.3019A5.1938,5.1938,0,0,0,114.8408.24C111.242,3.2673,108.6873,13.3345,108.5457,13.9016Z"/>
      </g>
      <path class="a" d="M191.8237,40.3026a15.61,15.61,0,0,0,2.1-4.7031,8.0254,8.0254,0,0,0-2.4988-.1322A5.9452,5.9452,0,0,0,187.35,37.45a6.2451,6.2451,0,0,0-.1,7.9481,9.7227,9.7227,0,0,0,2.99,2.4417C187.6491,45.9157,190.2308,42.71,191.8237,40.3026Z"/>
      <path class="a" d="M192.36,29.461a8.4981,8.4981,0,0,0,2.5577,3.8928,21.2843,21.2843,0,0,0,3.9981,2.8455c1.0713.6128,2.175,1.1717,3.2251,1.8183s2.0771,1.3352,3.0638,2.073a3.828,3.828,0,0,1,1.5621,2.5159,4.8438,4.8438,0,0,1-1.9813,4.9091,6.9851,6.9851,0,0,1-3.5483,1.35h.0042c11.6793-.2239,12.1553-7.0579,12.1216-10.318s-8.7778-7.226-10.2243-8.1292-6.5307-3.3093-4.0419-8.1963c2.4432-4.7975,9.2891-6.1253,9.5391-6.1723q-.52.0411-1.0406.0891a24.6884,24.6884,0,0,0-8.5218,2.2995,13.5011,13.5011,0,0,0-5.5687,4.5459A7.5118,7.5118,0,0,0,192.36,29.461Z"/>
      <path class="a" d="M219.9011,20.5254c.907-1.5646-.1921-2.2452-1.0431-2.5273a.7916.7916,0,0,1,.19.416c-.3813.1139-.7225.21-1.06.3179-.81.2592-1.6328.4856-2.4224.7965a4.6534,4.6534,0,0,0-2.2959,1.9032,4.49,4.49,0,0,0,1.9832,6.4377,6.0649,6.0649,0,0,0,1.6131.5025C216.1557,25.6911,218.5279,22.894,219.9011,20.5254Z"/>
      <path class="a" d="M199.0964,22.2217c-2.4888,4.887,2.5954,7.2932,4.0419,8.1963s10.1906,4.8691,10.2243,8.1292-.4424,10.0941-12.1216,10.318h-.0042q-.2972.0309-.5989.0423a25.4925,25.4925,0,0,1-3.6944-.1316,13.5372,13.5372,0,0,1-4.8223-1.3831,18.5832,18.5832,0,0,1-2.0221-1.3213.6856.6856,0,0,1-.3485-.7786,4.3476,4.3476,0,0,1,.5064-.08c.6954-.03,1.3919-.0389,2.087-.0753a9.419,9.419,0,0,0,2.8261-.5616,3.9634,3.9634,0,0,0,2.1374-1.7644,4.7909,4.7909,0,0,0-2.5641-6.9747,6.6909,6.6909,0,0,0-.82-.2376,15.61,15.61,0,0,1-2.1,4.7031c-1.5928,2.4073-4.1746,5.6131-1.5834,7.5369q.3906.2157.7971.41a18.2594,18.2594,0,0,0,6.2757,1.6347,28.2357,28.2357,0,0,0,6.78-.2067,27.4571,27.4571,0,0,0,8.23-2.6249,14.6209,14.6209,0,0,0,5.1909-4.0926,8.6522,8.6522,0,0,0-1.2122-12.1942,31.0194,31.0194,0,0,0-4.7689-3.1468c-1.6041-.8975-3.1929-1.8271-4.7434-2.8134a5.6547,5.6547,0,0,1-1.4454-1.3884,3.3481,3.3481,0,0,1,.2755-4.3322,6.3744,6.3744,0,0,1,1.3107-1.04,8.5686,8.5686,0,0,1,3.7779-1.0946,21.4794,21.4794,0,0,1,5.103.1593,21.9477,21.9477,0,0,1,2.6007.6492.9122.9122,0,0,1,.4464.2394c.851.282,1.95.9627,1.0431,2.5273-1.3732,2.3686-3.7454,5.1657-3.0351,7.8465a6.0362,6.0362,0,0,0,6.2963-2.9318,5.6019,5.6019,0,0,0-.4363-6.2614,7.7531,7.7531,0,0,0-2.97-2.0422,18.8645,18.8645,0,0,0-6.6462-1.2136,38.4714,38.4714,0,0,0-4.4745.1265C208.3855,16.0964,201.54,17.4242,199.0964,22.2217Z"/>
      <path class="a" d="M168.9641,49.2535a14.2373,14.2373,0,0,0,4.0422.6035,10.97,10.97,0,0,0,1.2975-.0585c-5.8039.194-3.2167-7.44-3.2167-7.44s7.507-17.5469,10.699-25.4926q-4.6763-.0061-9.3526-.002c-.83.0009-1.661.036-2.49.0784-.5519.0283-.551.0467-.5215.6953.7529.0383,1.5112.0813,2.27.1144a7.1093,7.1093,0,0,1,2.3881.354c-.17.426-.3051.7984-.4639,1.1606-2.7386,6.2475-5.3765,12.5362-7.7584,18.93a18.2845,18.2845,0,0,0-1.12,4.2159A6.1756,6.1756,0,0,0,168.9641,49.2535Z"/>
      <path class="a" d="M174.3039,49.7986a9.7306,9.7306,0,0,0,6.5449-3.5772,22.2427,22.2427,0,0,0,3.8414-7.0572.5151.5151,0,0,0,.0025-.1746c-.8465-.4333-.8715-.4017-1.2546.3931-.7008,1.4541-1.3888,2.9185-2.1821,4.3221a10.8114,10.8114,0,0,1-1.614,2.0546,2.8977,2.8977,0,0,1-1.207.6892c-.6817.215-1.2248-.2081-1.0877-.904a8.44,8.44,0,0,1,.4769-1.6721q5.3391-12.5411,10.7034-25.0714a4.0144,4.0144,0,0,0,.2672-.83,1.24,1.24,0,0,0-.0624-1.0026c-.8954-.0333-1.79-.0931-2.6841-.0955q-2.1311-.0058-4.2622-.0068c-3.192,7.9457-10.699,25.4926-10.699,25.4926S168.5,49.9925,174.3039,49.7986Z"/>
      <path class="a" d="M179.51,12.7394a6.4273,6.4273,0,0,0,3.5407,1.2824c.1416-.5671,2.6963-10.6343,6.2951-13.662a6.6973,6.6973,0,0,0-1.4912-.2276,10.11,10.11,0,0,0-8.4039,3.6368,7.2489,7.2489,0,0,0-1.8383,5.4025A4.6656,4.6656,0,0,0,179.51,12.7394Z"/>
      <path class="a" d="M183.0506,14.0218q.41.0305.8318.0257c.6471-.0612,1.2973-.1,1.9408-.1872a8.4128,8.4128,0,0,0,7.3879-7.44,5.4786,5.4786,0,0,0-1.166-4.3019A5.1938,5.1938,0,0,0,189.3457.36C185.7469,3.3876,183.1922,13.4547,183.0506,14.0218Z"/>
      <path class="a" d="M73.9441,21.3621a1.7692,1.7692,0,0,0-.1919.1031C73.8174,21.43,73.88,21.3967,73.9441,21.3621Z"/>
      <path class="a" d="M78.3338,49.1312c-7.4655,1.2085-4.45-7.03-4.45-7.03s4.6572-11.1829,7.6577-18.7281c0,0,2.7227-7.5748-7.5975-2.0108a2.3368,2.3368,0,0,1,.49-.1648c.4821-.1057.7383.1181.6813.6119a3.504,3.504,0,0,1-.2392.9065c-.4736,1.1636-.9537,2.3249-1.4574,3.4758-1.5115,3.4536-3.0589,6.8917-4.5448,10.3562a22.7712,22.7712,0,0,0-1.7871,5.84A5.7122,5.7122,0,0,0,68.4877,47.39a6.9407,6.9407,0,0,0,3.289,1.8825,12.2386,12.2386,0,0,0,4.0092.2873A11.6454,11.6454,0,0,0,78.3338,49.1312Z"/>
      <path class="a" d="M67.5744.6509C65.059.6163,62.5439.5641,60.0287.52c-.53-.0094-.5874.0522-.6281.7234l4.7159.3286a2.0049,2.0049,0,0,1-.2223,1.5035q-.9936,2.43-2.038,4.8387-4.7909,11.0932-9.595,22.1808-3.9274,9.0467-7.8849,18.08c-.0741.17-.12.3524-.1926.571.4355.0406.7912.0989,1.1477.1031q3.0018.0357,6.0037.0654L72.2151.709Q69.8947.6815,67.5744.6509Z"/>
      <path class="a" d="M81.5415,23.3729C78.541,30.9181,73.8839,42.101,73.8839,42.101s-3.0156,8.2388,4.45,7.03a9.6673,9.6673,0,0,0,4.9247-3.302,31.0447,31.0447,0,0,0,3.9583-6.7109c.0247-.0537.0031-.1287.0031-.2793l-.8517-.2521c-.1383.2712-.2366.47-.34.6653-.5758,1.0917-1.1009,2.2146-1.7441,3.2651a35.8878,35.8878,0,0,1-2.0929,2.9655,2.8461,2.8461,0,0,1-.941.7394c-.5456.2856-.9552-.0067-.8786-.62a5.0576,5.0576,0,0,1,.3243-1.2318c.698-1.7505,1.399-3.5,2.1392-5.2334,1.5337-3.5905,3.1176-7.16,4.6323-10.7582a20.7255,20.7255,0,0,0,1.7452-6.3339,5.5988,5.5988,0,0,0-4.1611-6.0621,10.07,10.07,0,0,0-4.7355-.0571A13.3784,13.3784,0,0,0,73.43,19.7823a28.84,28.84,0,0,0-3.4285,4.15,1.1376,1.1376,0,0,1-.5386.5434c.0974-.2428.15-.3859.2113-.5247q3.355-7.5341,6.7111-15.0677,1.6288-3.66,3.2462-7.3245c.24-.5448.1181-.7309-.4669-.7694-.09-.0059-.18-.0009-.27-.002q-3.34-.04-6.68-.0782l-20.88,48.2052q3.3663.0357,6.7325.08a1.0758,1.0758,0,0,0,1.1659-.764q2.5779-6.1094,5.225-12.19c1.2082-2.7784,2.4559-5.5381,3.8693-8.2228a22.74,22.74,0,0,1,4.5129-5.6648,5.5877,5.5877,0,0,1,.9112-.6882,1.7692,1.7692,0,0,1,.1919-.1031C84.2642,15.7981,81.5415,23.3729,81.5415,23.3729Z"/>
    </g>
    <g>
      <path class="b" d="M40.9737,7.1964l-.6014,1.5,1.311-3.0419c-.0193.0032-.0378.0043-.0573.0082C41.41,6.1689,41.1814,6.6784,40.9737,7.1964Z"/>
      <path class="a" d="M47.8612,24.3732c-.0087.0894-.0124.1793-.0219.2686a.3264.3264,0,0,0,.2641.4017.3228.3228,0,0,0,.43-.2114c.0712-.1889.1576-.3719.2344-.5588,1.2023-2.9267,2.3925-5.8586,3.6093-8.7793,1.3809-3.3146,2.7867-6.6189,4.1777-9.9293.0982-.2336.1638-.481.2837-.8387-.3456,0-.562-.0026-.7784,0-1.6286.0224-3.2573.06-4.8859.0787L46.99,13.79A28.7683,28.7683,0,0,1,47.8612,24.3732Z"/>
      <path class="a" d="M42.8625,5.9748a6.13,6.13,0,0,1,1.15,1.12,12.6914,12.6914,0,0,1,1.1841,1.954A28.3234,28.3234,0,0,1,46.99,13.79l4.1844-8.9853c-.6847.0079-1.3694.0132-2.0541.0113-2.35-.0063-4.7-.035-7.05-.06l-.3873.8986A1.4531,1.4531,0,0,1,42.8625,5.9748Z"/>
      <path class="a" d="M11.7905,12.8143a42.0833,42.0833,0,0,1,6.0612-5.3349,9.6322,9.6322,0,0,1,3.1425-1.4962,3.35,3.35,0,0,1,1.7871-.1363c-.08.2572-.1366.4724-.2141.68l.6485-1.8453q-5.1141-.01-10.2283-.0188l-4.5083,11.69C9.5631,15.1549,10.6612,13.9705,11.7905,12.8143Z"/>
      <path class="a" d="M29.3843,49.0353c.3162-.684.2467-.8264-.3761-.8776-.1567-.0129-.3146-.0113-.4711-.0258-1.0255-.0949-2.0508-.1924-3.0452-.2861a1.3346,1.3346,0,0,1-.11-1.216c.1982-.689.4063-1.3788.6692-2.045q2.8547-7.2317,5.736-14.4528,4.2832-10.7213,8.5847-21.4352l-.0005.0012.0005-.0012.6014-1.5c.2076-.518.4364-1.0274.6522-1.5333.02-.0039.0381-.005.0573-.0082l.3873-.8986c-1.5589-.0168-3.1178-.0324-4.6767-.0378q-2.33-.0081-4.66-.0123L15.1752,48.9687Z"/>
      <path class="c" d="M.6892,25.1282c.2661-.2738.5231-.5568.7774-.8417,2.3506-2.633,4.6439-5.3176,7.0126-7.9343l4.5083-11.69-3.164-.0058c-.3588-.0007-.7179.03-1.0763.0531a.9993.9993,0,0,0-.9858.747Q7.0192,7.5855,6.1769,9.679,3.1357,17.27.0672,24.85A2.2455,2.2455,0,0,0,0,25.076C.233,25.4137.4655,25.3584.6892,25.1282Z"/>
      <path class="c" d="M19.5607,14.528Q13.4433,29.9165,7.273,45.2841c-.2.4993-.4273.9887-.6653,1.4711a1.8393,1.8393,0,0,1-1.612,1.1516c-.29.016-.5773.08-.8673.1-.9386.0621-1.8779.1134-2.9214.175l-.049.7215,14.0173.0657L32.7342,4.7062q-4.7592-.0135-9.5184-.0249l-.6485,1.8453C21.5695,9.1954,20.613,11.8808,19.5607,14.528Z"/>
      <path class="c" d="M117.3187,40.1823a15.61,15.61,0,0,0,2.1-4.7031,8.0254,8.0254,0,0,0-2.4988-.1322,5.9452,5.9452,0,0,0-4.075,1.9824,6.2451,6.2451,0,0,0-.1,7.9481,9.7227,9.7227,0,0,0,2.99,2.4417C113.1442,45.7954,115.7259,42.59,117.3187,40.1823Z"/>
      <path class="c" d="M117.8547,29.3408a8.4981,8.4981,0,0,0,2.5577,3.8928,21.2843,21.2843,0,0,0,3.9981,2.8455c1.0713.6128,2.175,1.1717,3.2251,1.8183s2.0771,1.3352,3.0638,2.073a3.828,3.828,0,0,1,1.5621,2.5159,4.8438,4.8438,0,0,1-1.9813,4.9091,6.9851,6.9851,0,0,1-3.5483,1.35h.0042c11.6793-.2239,12.1553-7.0579,12.1216-10.318s-8.7778-7.226-10.2243-8.1292-6.5307-3.3093-4.0419-8.1963c2.4432-4.7975,9.2891-6.1253,9.5391-6.1723q-.52.0411-1.0406.0891a24.6884,24.6884,0,0,0-8.5218,2.2995A13.5011,13.5011,0,0,0,119,22.8636,7.5118,7.5118,0,0,0,117.8547,29.3408Z"/>
      <path class="c" d="M145.3962,20.4052c.907-1.5646-.1921-2.2452-1.0431-2.5273a.7916.7916,0,0,1,.19.416c-.3813.1139-.7225.21-1.06.3179-.81.2592-1.6328.4856-2.4224.7965a4.6534,4.6534,0,0,0-2.2959,1.9032,4.49,4.49,0,0,0,1.9832,6.4377,6.0649,6.0649,0,0,0,1.6131.5025C141.6508,25.5709,144.023,22.7738,145.3962,20.4052Z"/>
      <path class="a" d="M124.5915,22.1014c-2.4888,4.887,2.5954,7.2932,4.0419,8.1963s10.1906,4.8691,10.2243,8.1292-.4424,10.0941-12.1216,10.318h-.0042q-.2972.0309-.5989.0423a25.4925,25.4925,0,0,1-3.6944-.1316,13.5372,13.5372,0,0,1-4.8223-1.3831,18.5832,18.5832,0,0,1-2.0221-1.3213.6856.6856,0,0,1-.3485-.7786,4.3476,4.3476,0,0,1,.5064-.08c.6954-.03,1.3919-.0389,2.087-.0753a9.419,9.419,0,0,0,2.8261-.5616,3.9634,3.9634,0,0,0,2.1374-1.7644,4.7909,4.7909,0,0,0-2.5641-6.9747,6.6909,6.6909,0,0,0-.82-.2376,15.61,15.61,0,0,1-2.1,4.7031c-1.5928,2.4073-4.1746,5.6131-1.5834,7.5369q.3906.2157.7971.41a18.2594,18.2594,0,0,0,6.2757,1.6347,28.2357,28.2357,0,0,0,6.78-.2067,27.4571,27.4571,0,0,0,8.23-2.6249,14.6209,14.6209,0,0,0,5.1909-4.0926,8.6522,8.6522,0,0,0-1.2122-12.1942,31.0194,31.0194,0,0,0-4.7689-3.1468c-1.6041-.8975-3.1929-1.8271-4.7434-2.8134a5.6547,5.6547,0,0,1-1.4454-1.3884,3.3481,3.3481,0,0,1,.2755-4.3322,6.3744,6.3744,0,0,1,1.3107-1.04,8.5686,8.5686,0,0,1,3.7779-1.0946,21.4794,21.4794,0,0,1,5.103.1593,21.9477,21.9477,0,0,1,2.6007.6492.9122.9122,0,0,1,.4464.2394c.851.282,1.95.9627,1.0431,2.5273-1.3732,2.3686-3.7454,5.1657-3.0351,7.8465a6.0362,6.0362,0,0,0,6.2963-2.9318,5.6019,5.6019,0,0,0-.4363-6.2614,7.7531,7.7531,0,0,0-2.97-2.0422,18.8645,18.8645,0,0,0-6.6462-1.2136,38.4714,38.4714,0,0,0-4.4745.1265C133.8806,15.9762,127.0347,17.3039,124.5915,22.1014Z"/>
      <path class="c" d="M94.4592,49.1333a14.2373,14.2373,0,0,0,4.0422.6035,10.97,10.97,0,0,0,1.2975-.0585c-5.8039.194-3.2167-7.44-3.2167-7.44s7.507-17.5469,10.699-25.4926q-4.6763-.0061-9.3526-.002c-.83.0009-1.661.036-2.49.0784-.5519.0283-.551.0467-.5215.6953.7529.0383,1.5112.0813,2.27.1144a7.1093,7.1093,0,0,1,2.3881.354c-.17.426-.3051.7984-.4639,1.1606-2.7386,6.2475-5.3765,12.5362-7.7584,18.93a18.2845,18.2845,0,0,0-1.12,4.2159A6.1756,6.1756,0,0,0,94.4592,49.1333Z"/>
      <path class="a" d="M99.799,49.6783a9.7306,9.7306,0,0,0,6.5449-3.5772,22.2427,22.2427,0,0,0,3.8414-7.0572.5151.5151,0,0,0,.0025-.1746c-.8465-.4333-.8715-.4017-1.2546.3931-.7008,1.4541-1.3888,2.9185-2.1821,4.3221a10.8114,10.8114,0,0,1-1.614,2.0546,2.8977,2.8977,0,0,1-1.207.6892c-.6817.215-1.2248-.2081-1.0877-.904a8.44,8.44,0,0,1,.4769-1.6721q5.3391-12.5411,10.7034-25.0714a4.0144,4.0144,0,0,0,.2672-.83,1.24,1.24,0,0,0-.0624-1.0026c-.8954-.0333-1.79-.0931-2.6841-.0955q-2.1311-.0058-4.2622-.0068c-3.192,7.9457-10.699,25.4926-10.699,25.4926S93.9951,49.8723,99.799,49.6783Z"/>
      <path class="c" d="M105.005,12.6192a6.4273,6.4273,0,0,0,3.5407,1.2824c.1416-.5671,2.6963-10.6343,6.2951-13.662A6.6973,6.6973,0,0,0,113.35.012a10.11,10.11,0,0,0-8.4039,3.6368,7.2489,7.2489,0,0,0-1.8383,5.4025A4.6656,4.6656,0,0,0,105.005,12.6192Z"/>
      <path class="a" d="M108.5457,13.9016q.41.0305.8318.0257c.6471-.0612,1.2973-.1,1.9408-.1872a8.4128,8.4128,0,0,0,7.3879-7.44,5.4786,5.4786,0,0,0-1.166-4.3019A5.1938,5.1938,0,0,0,114.8408.24C111.242,3.2673,108.6873,13.3345,108.5457,13.9016Z"/>
    </g>
    <path class="c" d="M191.8237,40.3026a15.61,15.61,0,0,0,2.1-4.7031,8.0254,8.0254,0,0,0-2.4988-.1322A5.9452,5.9452,0,0,0,187.35,37.45a6.2451,6.2451,0,0,0-.1,7.9481,9.7227,9.7227,0,0,0,2.99,2.4417C187.6491,45.9157,190.2308,42.71,191.8237,40.3026Z"/>
    <path class="c" d="M192.36,29.461a8.4981,8.4981,0,0,0,2.5577,3.8928,21.2843,21.2843,0,0,0,3.9981,2.8455c1.0713.6128,2.175,1.1717,3.2251,1.8183s2.0771,1.3352,3.0638,2.073a3.828,3.828,0,0,1,1.5621,2.5159,4.8438,4.8438,0,0,1-1.9813,4.9091,6.9851,6.9851,0,0,1-3.5483,1.35h.0042c11.6793-.2239,12.1553-7.0579,12.1216-10.318s-8.7778-7.226-10.2243-8.1292-6.5307-3.3093-4.0419-8.1963c2.4432-4.7975,9.2891-6.1253,9.5391-6.1723q-.52.0411-1.0406.0891a24.6884,24.6884,0,0,0-8.5218,2.2995,13.5011,13.5011,0,0,0-5.5687,4.5459A7.5118,7.5118,0,0,0,192.36,29.461Z"/>
    <path class="c" d="M219.9011,20.5254c.907-1.5646-.1921-2.2452-1.0431-2.5273a.7916.7916,0,0,1,.19.416c-.3813.1139-.7225.21-1.06.3179-.81.2592-1.6328.4856-2.4224.7965a4.6534,4.6534,0,0,0-2.2959,1.9032,4.49,4.49,0,0,0,1.9832,6.4377,6.0649,6.0649,0,0,0,1.6131.5025C216.1557,25.6911,218.5279,22.894,219.9011,20.5254Z"/>
    <path class="a" d="M199.0964,22.2217c-2.4888,4.887,2.5954,7.2932,4.0419,8.1963s10.1906,4.8691,10.2243,8.1292-.4424,10.0941-12.1216,10.318h-.0042q-.2972.0309-.5989.0423a25.4925,25.4925,0,0,1-3.6944-.1316,13.5372,13.5372,0,0,1-4.8223-1.3831,18.5832,18.5832,0,0,1-2.0221-1.3213.6856.6856,0,0,1-.3485-.7786,4.3476,4.3476,0,0,1,.5064-.08c.6954-.03,1.3919-.0389,2.087-.0753a9.419,9.419,0,0,0,2.8261-.5616,3.9634,3.9634,0,0,0,2.1374-1.7644,4.7909,4.7909,0,0,0-2.5641-6.9747,6.6909,6.6909,0,0,0-.82-.2376,15.61,15.61,0,0,1-2.1,4.7031c-1.5928,2.4073-4.1746,5.6131-1.5834,7.5369q.3906.2157.7971.41a18.2594,18.2594,0,0,0,6.2757,1.6347,28.2357,28.2357,0,0,0,6.78-.2067,27.4571,27.4571,0,0,0,8.23-2.6249,14.6209,14.6209,0,0,0,5.1909-4.0926,8.6522,8.6522,0,0,0-1.2122-12.1942,31.0194,31.0194,0,0,0-4.7689-3.1468c-1.6041-.8975-3.1929-1.8271-4.7434-2.8134a5.6547,5.6547,0,0,1-1.4454-1.3884,3.3481,3.3481,0,0,1,.2755-4.3322,6.3744,6.3744,0,0,1,1.3107-1.04,8.5686,8.5686,0,0,1,3.7779-1.0946,21.4794,21.4794,0,0,1,5.103.1593,21.9477,21.9477,0,0,1,2.6007.6492.9122.9122,0,0,1,.4464.2394c.851.282,1.95.9627,1.0431,2.5273-1.3732,2.3686-3.7454,5.1657-3.0351,7.8465a6.0362,6.0362,0,0,0,6.2963-2.9318,5.6019,5.6019,0,0,0-.4363-6.2614,7.7531,7.7531,0,0,0-2.97-2.0422,18.8645,18.8645,0,0,0-6.6462-1.2136,38.4714,38.4714,0,0,0-4.4745.1265C208.3855,16.0964,201.54,17.4242,199.0964,22.2217Z"/>
    <path class="c" d="M168.9641,49.2535a14.2373,14.2373,0,0,0,4.0422.6035,10.97,10.97,0,0,0,1.2975-.0585c-5.8039.194-3.2167-7.44-3.2167-7.44s7.507-17.5469,10.699-25.4926q-4.6763-.0061-9.3526-.002c-.83.0009-1.661.036-2.49.0784-.5519.0283-.551.0467-.5215.6953.7529.0383,1.5112.0813,2.27.1144a7.1093,7.1093,0,0,1,2.3881.354c-.17.426-.3051.7984-.4639,1.1606-2.7386,6.2475-5.3765,12.5362-7.7584,18.93a18.2845,18.2845,0,0,0-1.12,4.2159A6.1756,6.1756,0,0,0,168.9641,49.2535Z"/>
    <path class="a" d="M174.3039,49.7986a9.7306,9.7306,0,0,0,6.5449-3.5772,22.2427,22.2427,0,0,0,3.8414-7.0572.5151.5151,0,0,0,.0025-.1746c-.8465-.4333-.8715-.4017-1.2546.3931-.7008,1.4541-1.3888,2.9185-2.1821,4.3221a10.8114,10.8114,0,0,1-1.614,2.0546,2.8977,2.8977,0,0,1-1.207.6892c-.6817.215-1.2248-.2081-1.0877-.904a8.44,8.44,0,0,1,.4769-1.6721q5.3391-12.5411,10.7034-25.0714a4.0144,4.0144,0,0,0,.2672-.83,1.24,1.24,0,0,0-.0624-1.0026c-.8954-.0333-1.79-.0931-2.6841-.0955q-2.1311-.0058-4.2622-.0068c-3.192,7.9457-10.699,25.4926-10.699,25.4926S168.5,49.9925,174.3039,49.7986Z"/>
    <path class="c" d="M179.51,12.7394a6.4273,6.4273,0,0,0,3.5407,1.2824c.1416-.5671,2.6963-10.6343,6.2951-13.662a6.6973,6.6973,0,0,0-1.4912-.2276,10.11,10.11,0,0,0-8.4039,3.6368,7.2489,7.2489,0,0,0-1.8383,5.4025A4.6656,4.6656,0,0,0,179.51,12.7394Z"/>
    <path class="a" d="M183.0506,14.0218q.41.0305.8318.0257c.6471-.0612,1.2973-.1,1.9408-.1872a8.4128,8.4128,0,0,0,7.3879-7.44,5.4786,5.4786,0,0,0-1.166-4.3019A5.1938,5.1938,0,0,0,189.3457.36C185.7469,3.3876,183.1922,13.4547,183.0506,14.0218Z"/>
    <path class="b" d="M73.9441,21.3621a1.7692,1.7692,0,0,0-.1919.1031C73.8174,21.43,73.88,21.3967,73.9441,21.3621Z"/>
    <path class="c" d="M78.3338,49.1312c-7.4655,1.2085-4.45-7.03-4.45-7.03s4.6572-11.1829,7.6577-18.7281c0,0,2.7227-7.5748-7.5975-2.0108a2.3368,2.3368,0,0,1,.49-.1648c.4821-.1057.7383.1181.6813.6119a3.504,3.504,0,0,1-.2392.9065c-.4736,1.1636-.9537,2.3249-1.4574,3.4758-1.5115,3.4536-3.0589,6.8917-4.5448,10.3562a22.7712,22.7712,0,0,0-1.7871,5.84A5.7122,5.7122,0,0,0,68.4877,47.39a6.9407,6.9407,0,0,0,3.289,1.8825,12.2386,12.2386,0,0,0,4.0092.2873A11.6454,11.6454,0,0,0,78.3338,49.1312Z"/>
    <path class="c" d="M67.5744.6509C65.059.6163,62.5439.5641,60.0287.52c-.53-.0094-.5874.0522-.6281.7234l4.7159.3286a2.0049,2.0049,0,0,1-.2223,1.5035q-.9936,2.43-2.038,4.8387-4.7909,11.0932-9.595,22.1808-3.9274,9.0467-7.8849,18.08c-.0741.17-.12.3524-.1926.571.4355.0406.7912.0989,1.1477.1031q3.0018.0357,6.0037.0654L72.2151.709Q69.8947.6815,67.5744.6509Z"/>
    <path class="a" d="M81.5415,23.3729C78.541,30.9181,73.8839,42.101,73.8839,42.101s-3.0156,8.2388,4.45,7.03a9.6673,9.6673,0,0,0,4.9247-3.302,31.0447,31.0447,0,0,0,3.9583-6.7109c.0247-.0537.0031-.1287.0031-.2793l-.8517-.2521c-.1383.2712-.2366.47-.34.6653-.5758,1.0917-1.1009,2.2146-1.7441,3.2651a35.8878,35.8878,0,0,1-2.0929,2.9655,2.8461,2.8461,0,0,1-.941.7394c-.5456.2856-.9552-.0067-.8786-.62a5.0576,5.0576,0,0,1,.3243-1.2318c.698-1.7505,1.399-3.5,2.1392-5.2334,1.5337-3.5905,3.1176-7.16,4.6323-10.7582a20.7255,20.7255,0,0,0,1.7452-6.3339,5.5988,5.5988,0,0,0-4.1611-6.0621,10.07,10.07,0,0,0-4.7355-.0571A13.3784,13.3784,0,0,0,73.43,19.7823a28.84,28.84,0,0,0-3.4285,4.15,1.1376,1.1376,0,0,1-.5386.5434c.0974-.2428.15-.3859.2113-.5247q3.355-7.5341,6.7111-15.0677,1.6288-3.66,3.2462-7.3245c.24-.5448.1181-.7309-.4669-.7694-.09-.0059-.18-.0009-.27-.002q-3.34-.04-6.68-.0782l-20.88,48.2052q3.3663.0357,6.7325.08a1.0758,1.0758,0,0,0,1.1659-.764q2.5779-6.1094,5.225-12.19c1.2082-2.7784,2.4559-5.5381,3.8693-8.2228a22.74,22.74,0,0,1,4.5129-5.6648,5.5877,5.5877,0,0,1,.9112-.6882,1.7692,1.7692,0,0,1,.1919-.1031C84.2642,15.7981,81.5415,23.3729,81.5415,23.3729Z"/>
  </g>
</svg>
