<?xml version="1.0" encoding="utf-8"?>
<!-- Generator: Adobe Illustrator 20.1.0, SVG Export Plug-In . SVG Version: 6.00 Build 0)  -->
<svg version="1.1" id="Layer_1" xmlns="http://www.w3.org/2000/svg" xmlns:xlink="http://www.w3.org/1999/xlink" x="0px" y="0px"
	 viewBox="0 0 8 8" style="enable-background:new 0 0 8 8;" xml:space="preserve">
<style type="text/css">
	.st0{fill:#CFCFCF;}
</style>
<title>Asset 1tile</title>
<g id="Layer_2">
	<g id="Layer_1-2">
		<g id="Layer_2-2">
			<g id="Layer_1-2-2">
				<circle class="st0" cx="2" cy="2" r="0.5"/>
				<path class="st0" d="M4,0.5V0H3.5C3.5,0.3,3.7,0.5,4,0.5z"/>
				<path class="st0" d="M0.5,0H0v0.5C0.3,0.5,0.5,0.3,0.5,0z"/>
				<path class="st0" d="M0,3.5V4h0.5C0.5,3.7,0.3,3.5,0,3.5z"/>
				<path class="st0" d="M3.5,4H4V3.5C3.7,3.5,3.5,3.7,3.5,4z"/>
			</g>
		</g>
	</g>
</g>
<title>Asset 1tile</title>
<g id="Layer_2_1_">
	<g id="Layer_1-2_1_">
		<g id="Layer_2-2_1_">
			<g id="Layer_1-2-2_1_">
				<circle class="st0" cx="6" cy="2" r="0.5"/>
				<path class="st0" d="M8,0.5V0H7.5C7.5,0.3,7.7,0.5,8,0.5z"/>
				<path class="st0" d="M4.5,0H4v0.5C4.3,0.5,4.5,0.3,4.5,0z"/>
				<path class="st0" d="M4,3.5V4h0.5C4.5,3.7,4.3,3.5,4,3.5z"/>
				<path class="st0" d="M7.5,4H8V3.5C7.7,3.5,7.5,3.7,7.5,4z"/>
			</g>
		</g>
	</g>
</g>
<g id="Layer_2_3_">
	<g id="Layer_1-2_3_">
		<g id="Layer_2-2_3_">
			<g id="Layer_1-2-2_3_">
				<circle class="st0" cx="2" cy="6" r="0.5"/>
				<path class="st0" d="M4,4.5V4H3.5C3.5,4.3,3.7,4.5,4,4.5z"/>
				<path class="st0" d="M0.5,4H0v0.5C0.3,4.5,0.5,4.3,0.5,4z"/>
				<path class="st0" d="M0,7.5V8h0.5C0.5,7.7,0.3,7.5,0,7.5z"/>
				<path class="st0" d="M3.5,8H4V7.5C3.7,7.5,3.5,7.7,3.5,8z"/>
			</g>
		</g>
	</g>
</g>
<g id="Layer_2_2_">
	<g id="Layer_1-2_2_">
		<g id="Layer_2-2_2_">
			<g id="Layer_1-2-2_2_">
				<circle class="st0" cx="6" cy="6" r="0.5"/>
				<path class="st0" d="M8,4.5V4H7.5C7.5,4.3,7.7,4.5,8,4.5z"/>
				<path class="st0" d="M4.5,4H4v0.5C4.3,4.5,4.5,4.3,4.5,4z"/>
				<path class="st0" d="M4,7.5V8h0.5C4.5,7.7,4.3,7.5,4,7.5z"/>
				<path class="st0" d="M7.5,8H8V7.5C7.7,7.5,7.5,7.7,7.5,8z"/>
			</g>
		</g>
	</g>
</g>
</svg>
