<?xml version="1.0" encoding="utf-8"?>
<!-- Generator: Adobe Illustrator 20.1.0, SVG Export Plug-In . SVG Version: 6.00 Build 0)  -->
<svg version="1.1" id="Layer_1" xmlns="http://www.w3.org/2000/svg" xmlns:xlink="http://www.w3.org/1999/xlink" x="0px" y="0px"
	 viewBox="0 0 10 10" style="enable-background:new 0 0 10 10;" xml:space="preserve">
<style type="text/css">
	.st0{fill:#CFCFCF;}
</style>
<title>Asset 1tile1</title>
<g id="Layer_2">
	<g id="Layer_1-2">
		<circle class="st0" cx="2.5" cy="2.5" r="0.7"/>
		<path class="st0" d="M5,0.6V0H4.3C4.3,0.4,4.6,0.6,5,0.6L5,0.6z"/>
		<path class="st0" d="M0.6,0H0v0.6C0.4,0.6,0.6,0.4,0.6,0C0.6,0,0.6,0,0.6,0z"/>
		<path class="st0" d="M0,4.3V5h0.6C0.7,4.6,0.4,4.3,0,4.3C0,4.3,0,4.3,0,4.3z"/>
		<path class="st0" d="M4.3,5H5V4.3C4.6,4.3,4.3,4.6,4.3,5L4.3,5z"/>
	</g>
</g>
<title>Asset 1tile1</title>
<g id="Layer_2_1_">
	<g id="Layer_1-2_1_">
		<circle class="st0" cx="7.5" cy="2.5" r="0.7"/>
		<path class="st0" d="M10,0.6V0H9.4C9.4,0.4,9.6,0.6,10,0.6L10,0.6z"/>
		<path class="st0" d="M5.7,0H5v0.6C5.4,0.6,5.7,0.4,5.7,0C5.7,0,5.7,0,5.7,0z"/>
		<path class="st0" d="M5,4.3V5h0.7C5.7,4.6,5.4,4.3,5,4.3C5,4.3,5,4.3,5,4.3z"/>
		<path class="st0" d="M9.4,5H10V4.3C9.6,4.3,9.4,4.6,9.4,5L9.4,5z"/>
	</g>
</g>
<g id="Layer_2_3_">
	<g id="Layer_1-2_3_">
		<circle class="st0" cx="2.5" cy="7.5" r="0.7"/>
		<path class="st0" d="M5,5.7V5H4.3C4.3,5.4,4.6,5.7,5,5.7L5,5.7z"/>
		<path class="st0" d="M0.6,5H0v0.7C0.4,5.7,0.6,5.4,0.6,5C0.6,5,0.6,5,0.6,5z"/>
		<path class="st0" d="M0,9.4V10h0.6C0.7,9.6,0.4,9.4,0,9.4C0,9.4,0,9.4,0,9.4z"/>
		<path class="st0" d="M4.3,10H5V9.4C4.6,9.4,4.3,9.6,4.3,10L4.3,10z"/>
	</g>
</g>
<g id="Layer_2_2_">
	<g id="Layer_1-2_2_">
		<circle class="st0" cx="7.5" cy="7.5" r="0.7"/>
		<path class="st0" d="M10,5.7V5H9.4C9.4,5.4,9.6,5.7,10,5.7L10,5.7z"/>
		<path class="st0" d="M5.7,5H5v0.7C5.4,5.7,5.7,5.4,5.7,5C5.7,5,5.7,5,5.7,5z"/>
		<path class="st0" d="M5,9.4V10h0.7C5.7,9.6,5.4,9.4,5,9.4C5,9.4,5,9.4,5,9.4z"/>
		<path class="st0" d="M9.4,10H10V9.4C9.6,9.4,9.4,9.6,9.4,10L9.4,10z"/>
	</g>
</g>
</svg>
