<?xml version="1.0" encoding="utf-8"?>
<!-- Generator: Adobe Illustrator 20.1.0, SVG Export Plug-In . SVG Version: 6.00 Build 0)  -->
<svg version="1.1" id="Layer_1" xmlns="http://www.w3.org/2000/svg" xmlns:xlink="http://www.w3.org/1999/xlink" x="0px" y="0px"
	 width="6px" height="6px" viewBox="0 0 6 6" enable-background="new 0 0 6 6" xml:space="preserve">
<title>Asset 3tile2</title>
<g id="Layer_2">
	<g id="Layer_1-2">
		<g id="Layer_2-2">
			<g id="Layer_1-2-2">
				<g id="Layer_2-2-2">
					<g id="Layer_1-2-2-2">
						<circle fill="#E5E5E5" cx="1.5" cy="1.5" r="0.4"/>
						<path fill="#E5E5E5" d="M3,0.4V0H2.6C2.6,0.2,2.8,0.4,3,0.4z"/>
						<path fill="#E5E5E5" d="M0.4,0H0v0.4C0.2,0.4,0.4,0.2,0.4,0z"/>
						<path fill="#E5E5E5" d="M0,2.6V3h0.4C0.4,2.8,0.2,2.6,0,2.6z"/>
						<path fill="#E5E5E5" d="M2.6,3H3V2.6C2.8,2.6,2.6,2.8,2.6,3z"/>
					</g>
				</g>
			</g>
		</g>
	</g>
</g>
<g id="Layer_2_1_">
	<g id="Layer_1-2_1_">
		<g id="Layer_2-2_1_">
			<g id="Layer_1-2-2_1_">
				<g id="Layer_2-2-2_1_">
					<g id="Layer_1-2-2-2_1_">
						<circle fill="#E5E5E5" cx="4.5" cy="1.5" r="0.4"/>
						<path fill="#E5E5E5" d="M6,0.4V0H5.6C5.6,0.2,5.8,0.4,6,0.4z"/>
						<path fill="#E5E5E5" d="M3.4,0H3v0.4C3.2,0.4,3.4,0.2,3.4,0z"/>
						<path fill="#E5E5E5" d="M3,2.6V3h0.4C3.4,2.8,3.2,2.6,3,2.6z"/>
						<path fill="#E5E5E5" d="M5.6,3H6V2.6C5.8,2.6,5.6,2.8,5.6,3z"/>
					</g>
				</g>
			</g>
		</g>
	</g>
</g>
<g id="Layer_2_3_">
	<g id="Layer_1-2_3_">
		<g id="Layer_2-2_3_">
			<g id="Layer_1-2-2_3_">
				<g id="Layer_2-2-2_3_">
					<g id="Layer_1-2-2-2_3_">
						<circle fill="#E5E5E5" cx="1.5" cy="4.5" r="0.4"/>
						<path fill="#E5E5E5" d="M3,3.4V3H2.6C2.6,3.2,2.8,3.4,3,3.4z"/>
						<path fill="#E5E5E5" d="M0.4,3H0v0.4C0.2,3.4,0.4,3.2,0.4,3z"/>
						<path fill="#E5E5E5" d="M0,5.6V6h0.4C0.4,5.8,0.2,5.6,0,5.6z"/>
						<path fill="#E5E5E5" d="M2.6,6H3V5.6C2.8,5.6,2.6,5.8,2.6,6z"/>
					</g>
				</g>
			</g>
		</g>
	</g>
</g>
<g id="Layer_2_2_">
	<g id="Layer_1-2_2_">
		<g id="Layer_2-2_2_">
			<g id="Layer_1-2-2_2_">
				<g id="Layer_2-2-2_2_">
					<g id="Layer_1-2-2-2_2_">
						<circle fill="#E5E5E5" cx="4.5" cy="4.5" r="0.4"/>
						<path fill="#E5E5E5" d="M6,3.4V3H5.6C5.6,3.2,5.8,3.4,6,3.4z"/>
						<path fill="#E5E5E5" d="M3.4,3H3v0.4C3.2,3.4,3.4,3.2,3.4,3z"/>
						<path fill="#E5E5E5" d="M3,5.6V6h0.4C3.4,5.8,3.2,5.6,3,5.6z"/>
						<path fill="#E5E5E5" d="M5.6,6H6V5.6C5.8,5.6,5.6,5.8,5.6,6z"/>
					</g>
				</g>
			</g>
		</g>
	</g>
</g>
</svg>
