<svg xmlns="http://www.w3.org/2000/svg" viewBox="0 0 107.1527 50">
  <defs>
    <style>
      .a {
        fill: #414042;
      }

      .b {
        fill: none;
      }

      .c {
        fill: #6d6e71;
      }

      .d {
        fill: #818285;
      }
    </style>
  </defs>
  <title>us-bevel</title>
  <g>
    <g>
      <path class="a" d="M53.16,9.0032c1.9641-3.6484,4.56-6.6511,8.4659-8.3251.2854-.1223.2983-.2077.1722-.5812-.2331,0-.47-.0011-.7074,0-2.7717.0143-5.5434.049-8.3149.0362C51.0182.1251,49.2607.0442,47.5029.0009c-.0595-.0015-.1108-.0013-.1561.001-.2793.0139-.3039.1158-.2487.525.1319.0348.2753.0687.4164.1106.77.2286,1.5513.4261,2.3062.6971a3.0521,3.0521,0,0,1,2.04,2.3527,7.908,7.908,0,0,1,.0174,2.8441,20.7754,20.7754,0,0,1-1.2332,4.6744c-.3151.7588-.5151,1.2657-.5706,1.4073-1.2729,3.1244-2.556,6.245-3.8789,9.3484-2.05,4.8088-4.1806,9.5826-6.4435,14.2959a25.3163,25.3163,0,0,1-3.4932,5.5439,12.75,12.75,0,0,1-1.8717,1.8523A12.3973,12.3973,0,0,1,24.14,46.03a7.8593,7.8593,0,0,1-3.4864-1.5313,4.72,4.72,0,0,1-1.8458-3.2969,10.2942,10.2942,0,0,1,.2556-3.4139,31.5076,31.5076,0,0,1,1.6624-5.1362C23.7886,25.1,27.0391,17.629,30.309,10.1663c.1914-.3909.3886-.7792.5954-1.1631,1.9872-3.6591,4.63-6.7241,7.9615-8.1309.2176-.04.2831-.13.3338-.4158a2.5394,2.5394,0,0,0,.0027-.3758h0c-.1919,0-.3379-.0034-.4838.0005-1.8173.0484-3.6345.1333-5.4519.14Q26.8729.2446,20.479.2038C16.9621.1821,13.4453.1192,9.9285.0755a1.41,1.41,0,0,0-.3116.0159A.6553.6553,0,0,0,9.2115.678a.2169.2169,0,0,0,.223.2086c.001,0,3.8149.5775.5333,9.1952q-3.9426,9.29-7.9032,18.5717a28.744,28.744,0,0,0-1.354,3.8758,18.1778,18.1778,0,0,0-.71,4.8929,8.8015,8.8015,0,0,0,1.9439,5.6328,14.8067,14.8067,0,0,0,3.1658,2.876,20.3478,20.3478,0,0,0,4.8172,2.3136,29.1861,29.1861,0,0,0,4.8712,1.2626,26.3172,26.3172,0,0,0,3.16.3343,42.9664,42.9664,0,0,0,4.4229-.0175,24.7826,24.7826,0,0,0,5.0708-.768,18.4753,18.4753,0,0,0,10.2833-6.9324,34.6976,34.6976,0,0,0,3.5281-6.0486c3.3747-7.1871,6.4933-14.4859,9.5078-21.83A55.1742,55.1742,0,0,1,53.16,9.0032ZM20.4261,2.704c.2649.15.4927.2906.6855.4181a6.035,6.035,0,0,1,.8413.6425l.5676-1.4277-.5676,1.4278a6.0351,6.0351,0,0,0-.8413-.6425c-.1928-.1275-.4207-.2686-.6855-.4181-.3532-.1994-.7721-.414-1.2614-.6315C19.654,2.29,20.073,2.5046,20.4261,2.704Zm-3.9544-1.59q-.5332-.15-1.1251-.2862Q15.9388.9638,16.4717,1.1141Z"/>
      <path class="a" d="M88.2613,14.9735a8.5525,8.5525,0,0,0-1.0006-.6716c-.2326-.1335-.4689-.2567-.7078-.3724a15.4032,15.4032,0,0,0-3.9568-1.2322,31.5821,31.5821,0,0,0-5.9242-.3943c-.8632.0385-1.7267.0718-2.59.1163a30.0468,30.0468,0,0,0-8.6872,1.7227,18.9436,18.9436,0,0,0-6.1227,3.43,11.1321,11.1321,0,0,0-3.2918,4.39,8.0476,8.0476,0,0,0,.3211,6.8312,10.901,10.901,0,0,0,2.7575,3.31,26.5923,26.5923,0,0,0,3.9959,2.6946c1.6931.9685,3.3827,1.9439,5.0546,2.9483a13.3038,13.3038,0,0,1,2.2921,1.777A4.2257,4.2257,0,0,1,71.64,43.5306,5.877,5.877,0,0,1,67.99,48.11a9.2547,9.2547,0,0,1-3.2142.7036c-.2555.0162-.51.026-.764.0329a19.1239,19.1239,0,0,1-8.3458-1.6171,8.3718,8.3718,0,0,1-2.0765-1.2125,4.3244,4.3244,0,0,1-.7217-.785c-.242-.34-.1517-.5231.2575-.5674a5.2946,5.2946,0,0,1,.9369-.0148,12.3451,12.3451,0,0,0,2.6291-.11,7.3842,7.3842,0,0,0,3.5227-1.4175,3.6847,3.6847,0,0,0,1.3683-2.0367,7.1329,7.1329,0,0,0,.1942-2.57,4.859,4.859,0,0,0-.4555-1.6568,4.4,4.4,0,0,0-1.4958-1.7046A7.577,7.577,0,0,0,53.97,34.0256a6.7351,6.7351,0,0,0-5.1914,8.39,7.7916,7.7916,0,0,0,2.491,3.7394,13.7408,13.7408,0,0,0,4.7041,2.5924,22.8192,22.8192,0,0,0,6.4344,1.1938,30.3525,30.3525,0,0,0,7.7357-.5569A33.2849,33.2849,0,0,0,77.8327,46.68a16.9968,16.9968,0,0,0,4.248-2.936,10.3675,10.3675,0,0,0,3.5183-6.7782,9.26,9.26,0,0,0-.7375-4.6681,10.48,10.48,0,0,0-2.9248-3.7313,30.0306,30.0306,0,0,0-4.8-3.1762q-2.3619-1.3131-4.6949-2.6775a10.2833,10.2833,0,0,1-2.1307-1.69,3.7973,3.7973,0,0,1-.3533-4.7008,6.0938,6.0938,0,0,1,3.0115-2.2843,11.2193,11.2193,0,0,1,3.1-.62c.652-.0447,1.3034-.0651,1.9543-.0647a28.6677,28.6677,0,0,1,3.71.2428,8.6892,8.6892,0,0,1,2.5707.7189,3.5959,3.5959,0,0,1,.6189.3532c.3127.2314.28.4466-.0829.5661a4.4963,4.4963,0,0,1-.6955.1568A8.5954,8.5954,0,0,0,79.7536,17.34a4.1764,4.1764,0,0,0-1.34,1.7573,5.7236,5.7236,0,0,0-.2457,2.9579,4.7317,4.7317,0,0,0,2.0934,3.0485,6.399,6.399,0,0,0,6.3209.498,6.1045,6.1045,0,0,0,3.9042-5.1528A5.6442,5.6442,0,0,0,88.2613,14.9735Z"/>
      <path class="a" d="M106.9592,38.3563a8.6065,8.6065,0,0,0-.77-2.187,7.97,7.97,0,0,0-4.506-3.8041,8.1569,8.1569,0,0,0-6.9162.5233c-3.5806,1.9261-5.3084,5.0269-5.5292,9.1066.063.5308.0867,1.1309.2116,1.7091a7.5179,7.5179,0,0,0,2.744,4.38,8.1328,8.1328,0,0,0,4.733,1.9079,7.7389,7.7389,0,0,0,2.39-.2755,10.5356,10.5356,0,0,0,6.816-5.5036A8.5591,8.5591,0,0,0,106.9592,38.3563Z"/>
    </g>
    <g>
      <path class="b" d="M50.6448,11.2058c-.3151.7589-.5151,1.2657-.5706,1.4074q.2228-.5468.4458-1.0936Q50.5836,11.3631,50.6448,11.2058Z"/>
      <path class="c" d="M47.3468.0019c-.2793.0139-.3039.1158-.2487.525.1319.0348.2753.0687.4164.1106.77.2287,1.5513.4261,2.3062.6971a3.0521,3.0521,0,0,1,2.04,2.3527,7.9078,7.9078,0,0,1,.0174,2.8441,20.7745,20.7745,0,0,1-1.2332,4.6744c.7294-1.7566,2.0745-4.861,3.6659-7.8981C54.31,3.3058,53.1634.0427,47.3468.0019Z"/>
      <path class="a" d="M22.3819,49.8241a24.7828,24.7828,0,0,0,5.0708-.768,18.4753,18.4753,0,0,0,10.2833-6.9324,34.6978,34.6978,0,0,0,3.5281-6.0486c3.3747-7.1871,6.4933-14.4859,9.5078-21.83A55.1717,55.1717,0,0,1,53.16,9.0032c1.9641-3.6484,4.56-6.6511,8.4659-8.3251.2854-.1223.2983-.2077.1721-.5812,0,0-5.3443.73-7.4878,3.2108h0c-1.5914,3.0371-2.9365,6.1415-3.6659,7.8981q-.0613.1573-.1248.3138-.2224.547-.4458,1.0936l-.016.0409.016-.0409c-1.2729,3.1244-2.556,6.245-3.8788,9.3484-2.05,4.8089-4.1806,9.5826-6.4435,14.2959a25.3163,25.3163,0,0,1-3.4932,5.5439,12.75,12.75,0,0,1-1.8717,1.8523A12.3973,12.3973,0,0,1,24.14,46.03a7.859,7.859,0,0,1-3.4864-1.5313,4.72,4.72,0,0,1-1.8458-3.2969,10.2947,10.2947,0,0,1,.2556-3.4139,31.5078,31.5078,0,0,1,1.6624-5.1362C23.7886,25.1,27.0391,17.629,30.309,10.1663c.1914-.3909.3886-.7792.5954-1.1631,1.9872-3.6591,4.63-6.7241,7.9615-8.1309.2175-.04.2831-.13.3338-.4158a2.5391,2.5391,0,0,0,.0027-.3758h0c-.0035,0-12.2245.7665-17.2494,3.684h0L9.4141,35.3039s-3.72,10.5184,5.3847,14.2034a26.3182,26.3182,0,0,0,3.16.3343A42.9633,42.9633,0,0,0,22.3819,49.8241Z"/>
      <path class="d" d="M22.5205,2.3369l-.5676,1.4278h0C26.9778.8472,39.1989.0809,39.2023.0807c-.1919,0-.3379-.0034-.4838.0005-1.8173.0484-3.6345.1333-5.4519.14Q26.8729.2446,20.479.2038C16.9621.1822,13.4453.1192,9.9285.0755a1.4092,1.4092,0,0,0-.3116.0159c9.0127.3852,12.336,3.6733,12.336,3.6733Z"/>
      <path class="c" d="M9.4141,35.3039,21.9529,3.7647S18.63.4767,9.6169.0914A.6553.6553,0,0,0,9.2115.678a.2169.2169,0,0,0,.223.2086c.001,0,3.815.5775.5333,9.1952q-3.9426,9.29-7.9032,18.5717A28.7479,28.7479,0,0,0,.71,32.5293a18.1782,18.1782,0,0,0-.71,4.8929,8.8015,8.8015,0,0,0,1.9439,5.6329,14.8068,14.8068,0,0,0,3.1658,2.876,20.3469,20.3469,0,0,0,4.8172,2.3136,29.1845,29.1845,0,0,0,4.8711,1.2626C5.6945,45.8223,9.4141,35.3039,9.4141,35.3039Z"/>
      <path class="d" d="M54.3106,3.3077q.2979-.5685.6065-1.131-.3083.5612-.6065,1.131h0C56.4541.8273,61.7984.0969,61.7984.0969c-.2331,0-.47-.0011-.7074,0-2.7717.0143-5.5434.049-8.3149.0362C51.0182.1251,49.2607.0443,47.5029.001c-.0595-.0015-.1108-.0013-.1561.001C53.1634.0427,54.31,3.3058,54.3106,3.3077Z"/>
      <path class="c" d="M61.3207,36.8587a4.4,4.4,0,0,0-1.4958-1.7046A7.577,7.577,0,0,0,53.97,34.0256a6.7351,6.7351,0,0,0-5.1914,8.39,7.7917,7.7917,0,0,0,2.491,3.7394S50.1725,34.747,61.3207,36.8587Z"/>
      <path class="a" d="M88.2613,14.9735a8.5524,8.5524,0,0,0-1.0006-.6716c-.2326-.1335-.4689-.2567-.7078-.3724.708.3726,2.0169,3.2179-.8451,6.2587-1.9122,2.0317-5.4209,2.0672-7.54,1.867a4.7317,4.7317,0,0,0,2.0934,3.0485,6.399,6.399,0,0,0,6.3208.498,6.1045,6.1045,0,0,0,3.9042-5.1528A5.6442,5.6442,0,0,0,88.2613,14.9735Z"/>
      <path class="a" d="M62.3635,19.115c-1.76,2.9779-.21,5.7927,2.14,7.8415a24.34,24.34,0,0,0,4.6929,2.8144c4.1683,2.2313,11.3787,4.8888,9.4725,10.9826-1.4376,4.5957-5.79,6.8983-10.1984,7.6875a27.2341,27.2341,0,0,1-4.4061.4053l-.0523,0a19.1241,19.1241,0,0,1-8.3458-1.6171,8.3717,8.3717,0,0,1-2.0765-1.2125,4.3252,4.3252,0,0,1-.7218-.785c-.242-.34-.1517-.5231.2575-.5674a5.2948,5.2948,0,0,1,.9369-.0148,12.346,12.346,0,0,0,2.6291-.11,7.3843,7.3843,0,0,0,3.5227-1.4175,3.6846,3.6846,0,0,0,1.3683-2.0367,7.133,7.133,0,0,0,.1942-2.57,4.8588,4.8588,0,0,0-.4555-1.6568c-11.1483-2.1116-10.0513,9.2967-10.0513,9.2967a13.7409,13.7409,0,0,0,4.7041,2.5924,22.82,22.82,0,0,0,6.4344,1.1938,30.3523,30.3523,0,0,0,7.7357-.5569A33.2843,33.2843,0,0,0,77.8327,46.68a16.9968,16.9968,0,0,0,4.248-2.936,10.3675,10.3675,0,0,0,3.5183-6.7782,9.26,9.26,0,0,0-.7375-4.6681,10.48,10.48,0,0,0-2.9248-3.7313,30.0313,30.0313,0,0,0-4.8-3.1762q-2.3619-1.3131-4.6949-2.6775a10.2828,10.2828,0,0,1-2.1307-1.69,3.7973,3.7973,0,0,1-.3533-4.7008,6.0937,6.0937,0,0,1,3.0115-2.2843,11.219,11.219,0,0,1,3.1-.62c.652-.0447,1.3034-.0651,1.9543-.0647l-.0081-.0011S66.2972,12.4579,62.3635,19.115Z"/>
      <path class="c" d="M85.7078,20.1883c2.862-3.0409,1.5531-5.8861.8451-6.2587a15.4024,15.4024,0,0,0-3.9568-1.2322,31.5814,31.5814,0,0,0-5.9242-.3943c-.8632.0385-1.7267.0718-2.59.1163a30.0465,30.0465,0,0,0-8.6872,1.7227,18.9434,18.9434,0,0,0-6.1227,3.43,11.1322,11.1322,0,0,0-3.2918,4.39,8.0475,8.0475,0,0,0,.3211,6.8312,10.9009,10.9009,0,0,0,2.7575,3.31,26.5919,26.5919,0,0,0,3.9959,2.6946c1.6931.9685,3.3827,1.9439,5.0546,2.9483a13.3032,13.3032,0,0,1,2.2921,1.777A4.2257,4.2257,0,0,1,71.64,43.5306,5.8771,5.8771,0,0,1,67.99,48.11a9.2548,9.2548,0,0,1-3.2142.7036c-.2555.0161-.51.026-.764.0329l.0523,0A27.2341,27.2341,0,0,0,68.47,48.441c4.4089-.7892,8.7608-3.0918,10.1984-7.6875,1.9062-6.0938-5.3042-8.7513-9.4725-10.9826a24.34,24.34,0,0,1-4.6929-2.8144c-2.35-2.0488-3.8993-4.8636-2.14-7.8415,3.9337-6.657,15.6522-5.7631,15.6522-5.7631l.0081.0011a28.6675,28.6675,0,0,1,3.71.2429,8.6888,8.6888,0,0,1,2.5707.7189,3.5977,3.5977,0,0,1,.6189.3532c.3127.2314.28.4466-.083.5661a4.4953,4.4953,0,0,1-.6955.1568A8.5955,8.5955,0,0,0,79.7536,17.34a4.1764,4.1764,0,0,0-1.34,1.7573,5.7238,5.7238,0,0,0-.2458,2.9579C80.2869,22.2554,83.7956,22.22,85.7078,20.1883Z"/>
      <path class="c" d="M98.0507,37.9871c2.8989-2.5072,7.1326-1.9857,8.1382-1.8178a7.97,7.97,0,0,0-4.506-3.804,8.1568,8.1568,0,0,0-6.9162.5233c-3.5806,1.9261-5.3084,5.0269-5.5292,9.1066.063.5308.0867,1.1309.2116,1.7091a7.5179,7.5179,0,0,0,2.744,4.38,8.1329,8.1329,0,0,0,4.733,1.9079C94.1551,45.4021,94.8431,40.7613,98.0507,37.9871Z"/>
      <path class="a" d="M106.9592,38.3563a8.6073,8.6073,0,0,0-.77-2.187c-1.0056-.1679-5.2393-.6894-8.1382,1.8178-3.2076,2.7741-3.8955,7.415-1.1245,12.0054a7.7393,7.7393,0,0,0,2.39-.2755,10.5356,10.5356,0,0,0,6.816-5.5036A8.5591,8.5591,0,0,0,106.9592,38.3563Z"/>
    </g>
  </g>
</svg>
