<svg xmlns="http://www.w3.org/2000/svg" viewBox="0 0 286.87 133.86"><defs><style>.cls-1{fill:#414042;}</style></defs><title>Asset 1US</title><g id="Layer_2" data-name="Layer 2"><g id="Layer_1-2" data-name="Layer 1"><path class="cls-1" d="M142.32,24.1C147.58,14.34,154.53,6.3,165,1.82c.76-.33.8-.56.46-1.56h-1.89c-7.42,0-14.84.13-22.26.1-4.71,0-9.41-.24-14.12-.35h-.42c-.75,0-.81.31-.67,1.41.35.09.74.18,1.11.3,2.06.61,4.15,1.14,6.17,1.87a8.17,8.17,0,0,1,5.46,6.3,21.17,21.17,0,0,1,0,7.61A55.62,55.62,0,0,1,135.59,30c-.84,2-1.38,3.39-1.53,3.77-3.41,8.36-6.84,16.72-10.38,25-5.49,12.87-11.19,25.65-17.25,38.27a67.78,67.78,0,0,1-9.35,14.84,34.13,34.13,0,0,1-5,5c-8.17,6.32-17.4,8.19-27.43,6.36a21,21,0,0,1-9.33-4.1,12.64,12.64,0,0,1-4.94-8.83,27.56,27.56,0,0,1,.68-9.14,84.35,84.35,0,0,1,4.45-13.75c8.2-20.22,16.9-40.22,25.66-60.2.51-1,1-2.09,1.59-3.11,5.32-9.8,12.4-18,21.31-21.77.58-.11.76-.35.89-1.11a6.8,6.8,0,0,0,0-1h-1.3c-4.87.13-9.73.36-14.6.37Q71.94.65,54.83.55C45.41.49,36,.32,26.58.2a3.77,3.77,0,0,0-.83,0,1.75,1.75,0,0,0-1.09,1.57.58.58,0,0,0,.6.56S35.47,3.92,26.69,27Q16.13,51.86,5.53,76.71A77,77,0,0,0,1.9,87.09,48.67,48.67,0,0,0,0,100.19a23.56,23.56,0,0,0,5.2,15.08,39.64,39.64,0,0,0,8.48,7.7,54.47,54.47,0,0,0,12.9,6.19,78.13,78.13,0,0,0,13,3.38,70.46,70.46,0,0,0,8.46.9,115,115,0,0,0,11.84,0,66.35,66.35,0,0,0,13.58-2.06A49.46,49.46,0,0,0,101,112.77a92.89,92.89,0,0,0,9.45-16.19c9-19.24,17.38-38.78,25.45-58.44A147.7,147.7,0,0,1,142.32,24.1Zm-83.55-14h0l1.52-3.82Z"/><path class="cls-1" d="M236.29,40.09a22.91,22.91,0,0,0-2.68-1.8c-.62-.36-1.26-.69-1.9-1A41.23,41.23,0,0,0,221.12,34a84.55,84.55,0,0,0-15.86-1.06c-2.31.1-4.62.19-6.93.31a80.44,80.44,0,0,0-23.26,4.61A50.72,50.72,0,0,0,158.68,47c-3.78,3.28-7,7-8.81,11.75a21.54,21.54,0,0,0,.86,18.29,29.18,29.18,0,0,0,7.38,8.86,71.19,71.19,0,0,0,10.7,7.21c4.53,2.59,9.06,5.2,13.53,7.89a35.61,35.61,0,0,1,6.14,4.76c3.13,3,4,6.65,3.31,10.73-1,5.84-4.41,9.87-9.77,12.26a24.78,24.78,0,0,1-8.6,1.88c-.68,0-1.37.07-2,.09A51.2,51.2,0,0,1,149,126.44a22.41,22.41,0,0,1-5.56-3.25,11.58,11.58,0,0,1-1.93-2.1c-.65-.91-.41-1.4.69-1.52a14.17,14.17,0,0,1,2.51,0,33.05,33.05,0,0,0,7-.3,19.77,19.77,0,0,0,9.43-3.79,9.86,9.86,0,0,0,3.66-5.45,19.1,19.1,0,0,0,.52-6.88,13,13,0,0,0-1.22-4.44,11.78,11.78,0,0,0-4-4.56c-4.78-3.3-10.11-4-15.68-3-10.61,1.9-16.61,12.92-13.9,22.46a20.86,20.86,0,0,0,6.67,10,36.79,36.79,0,0,0,12.59,6.94,61.09,61.09,0,0,0,17.23,3.2,81.26,81.26,0,0,0,20.71-1.49A89.11,89.11,0,0,0,208.37,125a45.5,45.5,0,0,0,11.37-7.86c5.25-5,8.79-10.79,9.42-18.15a24.79,24.79,0,0,0-2-12.5,28.06,28.06,0,0,0-7.83-10A80.4,80.4,0,0,0,206.51,68q-6.32-3.52-12.57-7.17a27.53,27.53,0,0,1-5.7-4.52,10.17,10.17,0,0,1-.95-12.58,16.31,16.31,0,0,1,8.06-6.12,30,30,0,0,1,8.3-1.66c1.75-.12,3.49-.17,5.23-.17a76.74,76.74,0,0,1,9.93.65,23.26,23.26,0,0,1,6.88,1.92,9.63,9.63,0,0,1,1.66.95c.84.62.75,1.2-.22,1.52a12,12,0,0,1-1.86.42,23,23,0,0,0-11.76,5.22,11.18,11.18,0,0,0-3.59,4.7,15.32,15.32,0,0,0-.66,7.92,12.67,12.67,0,0,0,5.6,8.16c5.32,3.58,11.18,3.74,16.92,1.33a16.34,16.34,0,0,0,10.45-13.79A15.11,15.11,0,0,0,236.29,40.09Z"/><path class="cls-1" d="M286.35,102.69a23,23,0,0,0-2.06-5.85,21.34,21.34,0,0,0-12.06-10.18A21.84,21.84,0,0,0,253.71,88c-9.59,5.16-14.21,13.46-14.8,24.38.17,1.42.23,3,.57,4.58a20.13,20.13,0,0,0,7.35,11.73,21.77,21.77,0,0,0,12.67,5.11,20.72,20.72,0,0,0,6.4-.74,28.21,28.21,0,0,0,18.25-14.73A22.91,22.91,0,0,0,286.35,102.69Z"/></g></g></svg>