<svg xmlns="http://www.w3.org/2000/svg" viewBox="0 0 287.28 187.24"><defs><style>.cls-1{fill:#414042;}</style></defs><title>Asset 3Work</title><g id="Layer_2" data-name="Layer 2"><g id="Layer_1-2" data-name="Layer 1"><path class="cls-1" d="M92,113.2c.7-1.77,1.41-3.53,2.16-5.28,1.55-3.63,3.15-7.23,4.68-10.86a20.93,20.93,0,0,0,1.76-6.4,5.65,5.65,0,0,0-4.2-6.12,10.17,10.17,0,0,0-4.78-.06,13.51,13.51,0,0,0-7,3.89,29.12,29.12,0,0,0-3.46,4.19,1.15,1.15,0,0,1-.54.55c.1-.25.15-.39.21-.53l6.78-15.21q1.64-3.7,3.28-7.4c.24-.55.12-.74-.47-.78h-.27l-6.74-.08-4.69-.06-7.62-.13c-.54,0-.59.05-.63.73l4.76.33A2,2,0,0,1,75,71.51Q74,74,73,76.39q-4.84,11.2-9.69,22.4-4,9.13-8,18.26c-.07.17-.12.36-.19.58.44,0,.8.1,1.16.1l6.06.07,6.8.08a1.09,1.09,0,0,0,1.18-.77q2.6-6.17,5.28-12.31c1.22-2.81,2.48-5.59,3.91-8.3a23,23,0,0,1,4.56-5.72,5.64,5.64,0,0,1,.92-.69l.19-.1a2.36,2.36,0,0,1,.49-.17c.49-.11.75.12.69.62a3.54,3.54,0,0,1-.24.92c-.48,1.17-1,2.35-1.47,3.51-1.53,3.49-3.09,7-4.59,10.46a23,23,0,0,0-1.8,5.9,5.77,5.77,0,0,0,1.41,5.05,7,7,0,0,0,3.32,1.9,12.36,12.36,0,0,0,4,.29A11.76,11.76,0,0,0,89.6,118a9.76,9.76,0,0,0,5-3.33,31.35,31.35,0,0,0,4-6.78c0-.05,0-.13,0-.28l-.86-.25-.34.67c-.58,1.1-1.11,2.24-1.76,3.3a36.25,36.25,0,0,1-2.11,3,2.87,2.87,0,0,1-1,.75c-.55.29-1,0-.89-.63A5.11,5.11,0,0,1,92,113.2Z"/><path class="cls-1" d="M2.71,92.39l.48-.45c.76-.68,1.5-1.39,2.28-2a4.2,4.2,0,0,1,1.17-.68c.88-.34,1.41,0,1.59.89a3.09,3.09,0,0,1,.07.74c0,1-.06,2-.18,2.92-.35,2.72-.69,5.44-1.15,8.14-.75,4.42-1.6,8.83-2.41,13.24-.14.77-.3,1.55-.46,2.37a4,4,0,0,0,.74.24c.94.11,1.89.23,2.84.29s2.12.11,3.18.13A52,52,0,0,0,16.1,118a2.48,2.48,0,0,0,2-1.18c3.38-4.95,6.52-10,9.57-15.19.13-.22.28-.44.41-.66,0,.14,0,.29,0,.43.17,5.4,0,10.75-.06,16.15a7.29,7.29,0,0,0,.91.18c1.38.1,2.76.22,4.14.25l2.56,0h3.77a2.46,2.46,0,0,0,1.71-.67c2.27-2,4.51-4.07,6.63-6.26a66.38,66.38,0,0,0,8.63-10.67,25.09,25.09,0,0,0,3.18-6.74,11.31,11.31,0,0,0,.36-5.25,4.88,4.88,0,0,0-3.68-4l-.18,0a9.08,9.08,0,0,0-1.82-.23,6.69,6.69,0,0,0-5.89,2.78A6,6,0,0,0,49.08,95c.57.49,1.16.94,1.74,1.42s1.11.93,1.65,1.41a3.25,3.25,0,0,1,.85,3.78,9.33,9.33,0,0,1-.75,1.62,15.77,15.77,0,0,1-.88,1.35,64.29,64.29,0,0,1-8.17,9.1,1.83,1.83,0,0,1-.34.19c0-.29,0-.49,0-.68,0-2.86.11-5.72.1-8.57,0-3.83-.05-7.67-.11-11.5,0-2.43-.13-4.85-.21-7.28a4.5,4.5,0,0,0-.09-.55c-.56,0-1.07-.13-1.59-.13-1.79,0-3.58,0-5.38,0l-.69,0H35a.64.64,0,0,0-.62.44,4.37,4.37,0,0,1-.2.43q-2.85,6.22-6.07,12.23c-2.7,5-5.6,9.9-8.77,14.65l-.45.65-.08,0c.06-.24.11-.48.18-.71A142.24,142.24,0,0,0,22.41,97a23.82,23.82,0,0,0,.33-5.56,7.25,7.25,0,0,0-3.24-5.77A8.41,8.41,0,0,0,15,84.45a11.79,11.79,0,0,0-4.84.9q-.53.22-1,.49a23.57,23.57,0,0,0-6.72,5.77C2,92,2.09,92.09,2.71,92.39Z"/><path class="cls-1" d="M5.65,25.37c.27-.28.53-.56.78-.85,2.37-2.66,4.69-5.37,7.08-8,1.09-1.21,2.2-2.4,3.34-3.57A42.49,42.49,0,0,1,23,7.55,9.73,9.73,0,0,1,26.15,6,3.38,3.38,0,0,1,28,5.9c-.08.26-.14.48-.22.69-1,2.69-2,5.41-3,8.08Q18.53,30.21,12.3,45.72c-.2.5-.43,1-.67,1.49A1.86,1.86,0,0,1,10,48.37c-.29,0-.58.08-.88.1l-2.95.18,0,.73,14.15.07,14.35.07c.32-.69.25-.83-.38-.89l-.48,0-3.07-.29a1.35,1.35,0,0,1-.11-1.23c.2-.7.41-1.39.68-2.06q2.88-7.3,5.79-14.59Q41.37,19.6,45.72,8.78l.61-1.52c.21-.52.44-1,.66-1.55H47A1.47,1.47,0,0,1,48.23,6a6.19,6.19,0,0,1,1.16,1.13,12.81,12.81,0,0,1,1.2,2,28.6,28.6,0,0,1,1.81,4.79,29,29,0,0,1,.88,10.69c0,.09,0,.18,0,.27a.33.33,0,0,0,.27.41.33.33,0,0,0,.43-.21c.07-.19.16-.38.24-.56,1.21-3,2.42-5.92,3.64-8.86,1.39-3.35,2.81-6.68,4.22-10,.1-.24.17-.49.29-.85h-.79l-4.93.08H54.55c-2.37,0-4.75,0-7.12-.06l-4.72,0H38l-9.61,0-10.33,0H14.87c-.36,0-.72,0-1.09.05a1,1,0,0,0-1,.75Q12,7.66,11.19,9.77,8.12,17.44,5,25.09a2.27,2.27,0,0,0-.07.23C5.19,25.66,5.42,25.6,5.65,25.37Z"/><path class="cls-1" d="M135.45,112.07q4.93-12,9.87-24c.19-.46.42-.9.59-1.37a.83.83,0,0,0-.74-1.19q-1.59-.16-3.18-.26c-.91-.06-1.82-.1-2.73-.14l-.73,0c-2-.08-4-.14-6-.22a.79.79,0,0,0-.87.58c-.38,1-.78,1.93-1.19,2.89a4.09,4.09,0,0,1-.22.41,18.66,18.66,0,0,0-1.36-2,6.61,6.61,0,0,0-5.08-2.22,13.08,13.08,0,0,0-5.35,1.11A24.63,24.63,0,0,0,111.48,90a32.3,32.3,0,0,0-8.31,11.07,18.3,18.3,0,0,0-1.71,8.11,11.31,11.31,0,0,0,1.54,5.64,7.22,7.22,0,0,0,6.46,3.7,10,10,0,0,0,4.6-1.13,13.35,13.35,0,0,0,1.83-1.13,25.84,25.84,0,0,0,5.31-5.52c.14-.19.3-.37.45-.56h0a1.38,1.38,0,0,1,0,.63,6.88,6.88,0,0,0,.09,2.7,6.22,6.22,0,0,0,4,4.36,10.8,10.8,0,0,0,4.35.54,11.35,11.35,0,0,0,2.74-.44,9.59,9.59,0,0,0,4.94-3.44,34.16,34.16,0,0,0,3.74-6.38c.08-.16.13-.33.21-.55l-.89-.37c-.16.3-.27.52-.39.74-1,1.7-1.87,3.42-2.87,5.09a9.9,9.9,0,0,1-1.38,1.67,1.69,1.69,0,0,1-.82.44c-.49.11-.79-.17-.77-.67a1.93,1.93,0,0,1,.11-.53C135,113.35,135.19,112.7,135.45,112.07Zm-10.64-10c-.72,1.59-1.45,3.18-2.28,4.71q-.45.84-.95,1.65a21.57,21.57,0,0,1-3.22,4.2,5.58,5.58,0,0,1-1.07.83,1.32,1.32,0,0,1-2.1-1.1c0-.16,0-.32,0-.48l-.09,0c.21-.83.38-1.68.65-2.49a84.54,84.54,0,0,1,7.36-16.62,28.75,28.75,0,0,1,2-2.88,7,7,0,0,1,1.14-1.07,2,2,0,0,1,.71-.39c1.12-.3,1.88.13,2,1a2,2,0,0,1,0,.4s0,.05,0,.08a10.84,10.84,0,0,1-.49,2.59A76.41,76.41,0,0,1,124.81,102.06Z"/><path class="cls-1" d="M71.26,152.52a23.25,23.25,0,0,0-6.28.56,30.49,30.49,0,0,0-17.18,10.52A15.36,15.36,0,0,0,44,173.41a11.69,11.69,0,0,0,1.08,5.42,14.2,14.2,0,0,0,10.58,8.1,20.06,20.06,0,0,0,2.67.31,25.92,25.92,0,0,0,4.82-.52A28.93,28.93,0,0,0,76.8,180a22.45,22.45,0,0,0,5.94-8,14.83,14.83,0,0,0,.8-10A13.08,13.08,0,0,0,71.26,152.52ZM57.57,186.3a1.77,1.77,0,0,1-1.27-.48,1.63,1.63,0,0,1-.4-1.23,11.62,11.62,0,0,1,.28-2.08,51.08,51.08,0,0,1,2.5-7.68,153.46,153.46,0,0,1,6.94-15.58A23,23,0,0,1,68.36,155a8.16,8.16,0,0,1,1.14-1.07,2.09,2.09,0,0,1,.63-.34,2.58,2.58,0,0,1,1-.14,1.33,1.33,0,0,1,1.37,1.37c0,.16,0,.32,0,.48a17.25,17.25,0,0,1-.77,3.92A91.21,91.21,0,0,1,68,169.25c-1.73,4.09-3.51,8.16-5.59,12.09a34.73,34.73,0,0,1-1.8,3,7.37,7.37,0,0,1-1.29,1.38,2.24,2.24,0,0,1-1.38.53Z"/><path class="cls-1" d="M124,29.63a8.58,8.58,0,0,0,2.58,3.93,21.49,21.49,0,0,0,4,2.87c1.08.62,2.2,1.18,3.26,1.84s2.1,1.35,3.09,2.09a3.87,3.87,0,0,1,1.58,2.54,4.89,4.89,0,0,1-2,5,7.05,7.05,0,0,1-3.58,1.36l-.6,0a25.74,25.74,0,0,1-3.73-.13,13.67,13.67,0,0,1-4.87-1.4,18.76,18.76,0,0,1-2-1.33.69.69,0,0,1-.35-.79,4.39,4.39,0,0,1,.51-.08c.7,0,1.41,0,2.11-.08a9.51,9.51,0,0,0,2.85-.57,4,4,0,0,0,2.16-1.78,4.84,4.84,0,0,0-2.59-7,6.76,6.76,0,0,0-.83-.24,8.1,8.1,0,0,0-2.52-.13,6,6,0,0,0-4.11,2,6.31,6.31,0,0,0-.1,8,9.82,9.82,0,0,0,3,2.47q.39.22.8.41A18.44,18.44,0,0,0,129,50.25,28.51,28.51,0,0,0,135.8,50a27.72,27.72,0,0,0,8.31-2.65,14.76,14.76,0,0,0,5.24-4.13,8.74,8.74,0,0,0-1.22-12.31,31.32,31.32,0,0,0-4.82-3.18c-1.62-.91-3.22-1.84-4.79-2.84a5.71,5.71,0,0,1-1.46-1.4,3.38,3.38,0,0,1,.28-4.37,6.44,6.44,0,0,1,1.32-1.05A8.65,8.65,0,0,1,142.48,17a21.69,21.69,0,0,1,5.15.16,22.16,22.16,0,0,1,2.63.66.92.92,0,0,1,.45.24.8.8,0,0,1,.19.42l-1.07.32c-.82.26-1.65.49-2.45.8a4.7,4.7,0,0,0-2.32,1.92,4.53,4.53,0,0,0,2,6.5,6.21,6.21,0,0,0,8-2.45,5.66,5.66,0,0,0-.44-6.32,7.83,7.83,0,0,0-3-2.06A19,19,0,0,0,144.91,16a38.85,38.85,0,0,0-4.52.13l-1.05.09a24.93,24.93,0,0,0-8.6,2.32,13.63,13.63,0,0,0-5.62,4.59A7.58,7.58,0,0,0,124,29.63Z"/><path class="cls-1" d="M287.14,90.31a6.58,6.58,0,0,0-3.64-4.51,13.49,13.49,0,0,0-6.15-1.49,20.89,20.89,0,0,0-5.14.46l-1.12.26a47,47,0,0,0-12.32,5.11A28.49,28.49,0,0,0,251.52,96a17,17,0,0,0-4,7.6,10.2,10.2,0,0,0,2.33,9.39,15.93,15.93,0,0,0,4.6,3.56,19.25,19.25,0,0,0,7.2,2,21,21,0,0,0,4.38,0,18.88,18.88,0,0,0,4.44-1.06A24.56,24.56,0,0,0,282,108.42a2.89,2.89,0,0,0,.18-.37l-.78-.51a1.06,1.06,0,0,0-.2.12l-.6.74a25.08,25.08,0,0,1-6.65,6.07,11.19,11.19,0,0,1-7.73,1.68,5.12,5.12,0,0,1-4.47-4,8.38,8.38,0,0,1-.2-1.61c-.09-2.62.79-5,1.56-7.48.22,0,.4,0,.58,0a45.69,45.69,0,0,0,8.68-.51,29.51,29.51,0,0,0,8.06-2.33,15.05,15.05,0,0,0,4.93-3.56A7.07,7.07,0,0,0,287.14,90.31Zm-27.91,20.64c0-.1-.11-.19-.16-.29h0C259.12,110.75,259.19,110.85,259.23,110.95Zm-.16-.86v0Zm7.43-8.36a10.16,10.16,0,0,1-2.87-.07c.42-1,.8-1.94,1.21-2.87a51.7,51.7,0,0,1,4.87-9,14.9,14.9,0,0,1,3.13-3.47,4,4,0,0,1,1.19-.62l.13,0a1.27,1.27,0,0,1,.49,0c.38.05.58.35.55.88a11.1,11.1,0,0,1-.31,2.35,37.1,37.1,0,0,1-4,9.57,12.48,12.48,0,0,1-1.63,2.08,4,4,0,0,1-2.25,1.17Z"/><path class="cls-1" d="M174.18,75.15a2.07,2.07,0,0,0-.39-.12c-.63,0-1.27-.09-1.9-.11l-4.47-.16-3.08-.1c-1.31,0-2.63,0-3.95,0a1.17,1.17,0,0,0-1.22.84c-1.26,3-2.59,6-3.87,9.07a.94.94,0,0,1-1.08.69c-.4,0-.82,0-1.22,0h-2.28l-.11,1h3.85c-.11.28-.14.41-.2.54l-6.08,13.66a38.58,38.58,0,0,0-2.39,6.64,11.65,11.65,0,0,0-.2,5.39,7.44,7.44,0,0,0,5.27,5.79,12.17,12.17,0,0,0,6.64.13c.26-.06.52-.14.78-.22a11.72,11.72,0,0,0,5.56-4,30.22,30.22,0,0,0,3.7-6.17c.22-.47.42-.94.64-1.41-.32-.25-.58-.45-1-.32-.13.26-.25.53-.39.79-.81,1.49-1.6,3-2.44,4.47a9.43,9.43,0,0,1-1.95,2.43,3.68,3.68,0,0,1-1.52.86,1.67,1.67,0,0,1-2.26-1.62c0-.09,0-.18,0-.27a9.49,9.49,0,0,1,1-4.21q4.09-9.41,8.21-18.82c.53-1.2,1.11-2.37,1.68-3.59h6.46l.12-.92L170,85.2Zm-21.64,37.2c.23.55.42,1.13.69,1.66-.27-.53-.46-1.1-.69-1.66Zm11.34-36.58h0l-.24.34Z"/><path class="cls-1" d="M100.33,49.61a14.38,14.38,0,0,0,4.08.61,11.07,11.07,0,0,0,1.31-.06,9.83,9.83,0,0,0,6.61-3.61,22.46,22.46,0,0,0,3.88-7.13.52.52,0,0,0,0-.18c-.85-.44-.88-.41-1.27.4-.71,1.47-1.4,2.95-2.2,4.36a10.92,10.92,0,0,1-1.63,2.07,2.93,2.93,0,0,1-1.22.7c-.69.22-1.24-.21-1.1-.91a8.52,8.52,0,0,1,.48-1.69q5.39-12.66,10.81-25.32a4.05,4.05,0,0,0,.27-.84,1.25,1.25,0,0,0-.06-1c-.9,0-1.81-.09-2.71-.1H103.83c-.84,0-1.68,0-2.51.08-.56,0-.56,0-.53.7l2.29.12a7.18,7.18,0,0,1,2.41.36c-.17.43-.31.81-.47,1.17C102.26,25.64,99.6,32,97.19,38.45a18.46,18.46,0,0,0-1.13,4.26A6.24,6.24,0,0,0,100.33,49.61Z"/><path class="cls-1" d="M98.64,171.61a7.72,7.72,0,0,0-7.5-.28,9.12,9.12,0,0,0-5.28,8.43,13,13,0,0,0,.14,1.39,7.42,7.42,0,0,0,4.89,5.54,7.25,7.25,0,0,0,4.28.14,9.38,9.38,0,0,0,6.62-6.28,7.24,7.24,0,0,0-.29-5.76A7.74,7.74,0,0,0,98.64,171.61Z"/><path class="cls-1" d="M111,12.74A6.49,6.49,0,0,0,114.55,14q.41,0,.84,0c.65-.06,1.31-.1,2-.19a8.49,8.49,0,0,0,7.46-7.51A5.53,5.53,0,0,0,123.64,2,5.24,5.24,0,0,0,120.91.24,6.76,6.76,0,0,0,119.4,0a10.21,10.21,0,0,0-8.49,3.67,7.32,7.32,0,0,0-1.86,5.45A4.71,4.71,0,0,0,111,12.74Z"/><path class="cls-1" d="M33.45,181.64c.3-.86.57-1.72.92-2.56,2.38-5.61,4.79-11.21,7.18-16.82q4.63-10.89,9.24-21.78c.41-1,.83-1.91,1.23-2.83-.24-.46-.63-.38-1-.38H44.43l-12,0h-.77l-.2.65a5.5,5.5,0,0,0,.63.13c.32,0,.63,0,1,0,.79,0,1.59.08,2.38.15.56,0,.67.22.53.76a9.85,9.85,0,0,1-.4,1.15c-.59,1.5-1.2,3-1.79,4.48l-5.43,13.57c-.08.19-.18.38-.32.67-.21-.76-.33-1.38-.54-2a5.81,5.81,0,0,0-4.22-4,8.71,8.71,0,0,0-4.1.16,19.45,19.45,0,0,0-6.83,3.25,30.45,30.45,0,0,0-10,11.89A21.36,21.36,0,0,0,0,178.5a10.53,10.53,0,0,0,1.34,5,7,7,0,0,0,6.35,3.65,10.81,10.81,0,0,0,4.64-1.06q.44-.21.88-.45a19.19,19.19,0,0,0,5.83-5.23c.1-.13.22-.25.43-.5,0,.4,0,.65,0,.89a5,5,0,0,0,1.72,3.85A8,8,0,0,0,24,186.25a12.48,12.48,0,0,0,4.83.56,12.05,12.05,0,0,0,2.21-.3,9.55,9.55,0,0,0,5.68-3.84,34.36,34.36,0,0,0,3.61-6.53s0-.08,0-.16a2.45,2.45,0,0,0-.33-.18,4.87,4.87,0,0,0-.5-.13l-.32.6c-.67,1.28-1.3,2.59-2,3.84a23.48,23.48,0,0,1-1.74,2.42,3.72,3.72,0,0,1-.82.71.88.88,0,0,1-1,.12c-.34-.2-.31-.58-.26-.92A4.87,4.87,0,0,1,33.45,181.64Zm-12.21-6.95-.14.32a21.93,21.93,0,0,1-3.27,5.3,18.45,18.45,0,0,1-1.7,1.65,2.13,2.13,0,0,1-.72.37,1,1,0,0,1-1.46-.76,7.2,7.2,0,0,1-.13-1,19.67,19.67,0,0,1,1-4.5,84.76,84.76,0,0,1,6-14.33,15.87,15.87,0,0,1,3-4.11,4.93,4.93,0,0,1,1.1-.79,1.05,1.05,0,0,1,1.6.49l0,.1a6.62,6.62,0,0,1,.49,1.57,4.79,4.79,0,0,1-.3,2.91C24.89,166.15,23.1,170.43,21.24,174.69Z"/><path class="cls-1" d="M199.18,29.75a8.58,8.58,0,0,0,2.58,3.93,21.49,21.49,0,0,0,4,2.87c1.08.62,2.2,1.18,3.26,1.84s2.1,1.35,3.09,2.09A3.87,3.87,0,0,1,213.73,43a4.89,4.89,0,0,1-2,5,7.05,7.05,0,0,1-3.58,1.36l-.6,0a25.74,25.74,0,0,1-3.73-.13,13.67,13.67,0,0,1-4.87-1.4,18.76,18.76,0,0,1-2-1.33.69.69,0,0,1-.35-.79,4.39,4.39,0,0,1,.51-.08c.7,0,1.41,0,2.11-.08A9.51,9.51,0,0,0,202,45a4,4,0,0,0,2.16-1.78,4.84,4.84,0,0,0-2.59-7,6.76,6.76,0,0,0-.83-.24,8.1,8.1,0,0,0-2.52-.13,6,6,0,0,0-4.11,2,6.31,6.31,0,0,0-.1,8,9.82,9.82,0,0,0,3,2.47q.39.22.8.41a18.44,18.44,0,0,0,6.34,1.65,28.51,28.51,0,0,0,6.85-.21,27.72,27.72,0,0,0,8.31-2.65,14.76,14.76,0,0,0,5.24-4.13,8.74,8.74,0,0,0-1.22-12.31,31.32,31.32,0,0,0-4.82-3.18C216.92,27,215.32,26,213.75,25a5.71,5.71,0,0,1-1.46-1.4,3.38,3.38,0,0,1,.28-4.37,6.44,6.44,0,0,1,1.32-1.05,8.65,8.65,0,0,1,3.81-1.11,21.69,21.69,0,0,1,5.15.16,22.16,22.16,0,0,1,2.63.66.92.92,0,0,1,.45.24.8.8,0,0,1,.19.42l-1.07.32c-.82.26-1.65.49-2.45.8a4.7,4.7,0,0,0-2.32,1.92,4.53,4.53,0,0,0,2,6.5,6.21,6.21,0,0,0,8-2.45,5.66,5.66,0,0,0-.44-6.32,7.83,7.83,0,0,0-3-2.06,19,19,0,0,0-6.71-1.23,38.85,38.85,0,0,0-4.52.13l-1.05.09a24.93,24.93,0,0,0-8.6,2.32,13.63,13.63,0,0,0-5.62,4.59A7.58,7.58,0,0,0,199.18,29.75Z"/><path class="cls-1" d="M191.44,39.37c-.85-.44-.88-.41-1.27.4-.71,1.47-1.4,2.95-2.2,4.36a10.92,10.92,0,0,1-1.63,2.07,2.93,2.93,0,0,1-1.22.7c-.69.22-1.24-.21-1.1-.91a8.52,8.52,0,0,1,.48-1.69Q189.9,31.64,195.31,19a4.05,4.05,0,0,0,.27-.84,1.25,1.25,0,0,0-.06-1c-.9,0-1.81-.09-2.71-.1H179.06c-.84,0-1.68,0-2.51.08-.56,0-.56,0-.53.7l2.29.12a7.18,7.18,0,0,1,2.41.36c-.17.43-.31.81-.47,1.17-2.77,6.31-5.43,12.66-7.83,19.11a18.46,18.46,0,0,0-1.13,4.26,6.24,6.24,0,0,0,4.27,6.91,14.38,14.38,0,0,0,4.08.61,11.08,11.08,0,0,0,1.31-.06,9.83,9.83,0,0,0,6.61-3.61,22.46,22.46,0,0,0,3.88-7.13A.52.52,0,0,0,191.44,39.37Z"/><path class="cls-1" d="M186.21,12.86a6.49,6.49,0,0,0,3.58,1.29q.41,0,.84,0c.65-.06,1.31-.1,2-.19A8.49,8.49,0,0,0,200,6.48a5.53,5.53,0,0,0-1.18-4.34A5.24,5.24,0,0,0,196.14.36a6.76,6.76,0,0,0-1.51-.23,10.21,10.21,0,0,0-8.49,3.67,7.32,7.32,0,0,0-1.86,5.45A4.71,4.71,0,0,0,186.21,12.86Z"/><path class="cls-1" d="M247.78,88.28a4.88,4.88,0,0,0-3.68-4l-.18,0A9.08,9.08,0,0,0,242.1,84a6.69,6.69,0,0,0-5.89,2.78,6,6,0,0,0,.74,8.07c.57.49,1.16.94,1.74,1.42s1.11.93,1.65,1.41a3.25,3.25,0,0,1,.85,3.78,9.33,9.33,0,0,1-.75,1.62,15.77,15.77,0,0,1-.88,1.35,64.29,64.29,0,0,1-8.17,9.1,1.83,1.83,0,0,1-.34.19c0-.29,0-.49,0-.68,0-2.86.11-5.72.1-8.57,0-3.83-.05-7.67-.11-11.5,0-2.43-.13-4.85-.21-7.28a4.5,4.5,0,0,0-.09-.55c-.56,0-1.07-.13-1.59-.13-1.79,0-3.58,0-5.38,0l-.69,0h-.2a.64.64,0,0,0-.62.44,4.37,4.37,0,0,1-.2.43Q219.22,92.08,216,98.1c-2.7,5-5.6,9.9-8.77,14.65l-.45.65-.08,0c.06-.24.11-.48.18-.71a142.24,142.24,0,0,0,3.41-15.74,23.82,23.82,0,0,0,.33-5.56,7.25,7.25,0,0,0-3.24-5.77,8.41,8.41,0,0,0-4.52-1.27,11.79,11.79,0,0,0-4.84.9q-.53.22-1,.49a23.57,23.57,0,0,0-6.72,5.77c-.33.38-.28.47.33.77l.48-.45c.76-.68,1.5-1.39,2.28-2a4.2,4.2,0,0,1,1.17-.68c.88-.34,1.41,0,1.59.89a3.09,3.09,0,0,1,.07.74c0,1-.06,2-.18,2.92-.35,2.72-.69,5.44-1.15,8.14-.75,4.42-1.6,8.83-2.41,13.24-.14.77-.3,1.55-.46,2.37a4,4,0,0,0,.74.24c.94.11,1.89.23,2.84.29s2.12.11,3.18.13a52,52,0,0,0,5.24-.16,2.48,2.48,0,0,0,2-1.18c3.38-4.95,6.52-10,9.57-15.19.13-.22.28-.44.41-.66,0,.14,0,.29,0,.43.17,5.4,0,10.75-.06,16.15a7.29,7.29,0,0,0,.91.18c1.38.1,2.76.22,4.14.25l2.56,0h3.77a2.46,2.46,0,0,0,1.71-.67c2.27-2,4.51-4.07,6.63-6.26a66.38,66.38,0,0,0,8.63-10.67,25.09,25.09,0,0,0,3.18-6.74A11.31,11.31,0,0,0,247.78,88.28Z"/><path class="cls-1" d="M69.47,3.1q-1,2.45-2.06,4.89-4.84,11.2-9.69,22.4-4,9.13-8,18.26c-.07.17-.12.36-.19.58.44,0,.8.1,1.16.1l6.06.07,6.8.08a1.09,1.09,0,0,0,1.18-.77q2.6-6.17,5.28-12.31c1.22-2.81,2.48-5.59,3.91-8.3a23,23,0,0,1,4.56-5.72,5.64,5.64,0,0,1,.92-.69l.19-.1a2.36,2.36,0,0,1,.49-.17c.49-.11.75.12.69.62a3.54,3.54,0,0,1-.24.92c-.48,1.17-1,2.35-1.47,3.51-1.53,3.49-3.09,7-4.59,10.46a23,23,0,0,0-1.8,5.9,5.77,5.77,0,0,0,1.41,5.05,7,7,0,0,0,3.32,1.9,12.36,12.36,0,0,0,4,.29A11.76,11.76,0,0,0,84,49.61a9.76,9.76,0,0,0,5-3.33,31.35,31.35,0,0,0,4-6.78c0-.05,0-.13,0-.28L92.16,39l-.34.67c-.58,1.1-1.11,2.24-1.76,3.3a36.23,36.23,0,0,1-2.11,3,2.87,2.87,0,0,1-1,.75c-.55.29-1,0-.89-.63a5.11,5.11,0,0,1,.33-1.24c.7-1.77,1.41-3.53,2.16-5.28,1.55-3.63,3.15-7.23,4.68-10.86A20.93,20.93,0,0,0,95,22.26a5.65,5.65,0,0,0-4.2-6.12,10.17,10.17,0,0,0-4.78-.06,13.51,13.51,0,0,0-7,3.89,29.12,29.12,0,0,0-3.46,4.19,1.15,1.15,0,0,1-.54.55c.1-.25.15-.39.21-.53L82.08,9q1.64-3.7,3.28-7.4c.24-.55.12-.74-.47-.78h-.27L77.87.72,73.18.66,65.57.52c-.54,0-.59.05-.63.73l4.76.33A2,2,0,0,1,69.47,3.1Z"/></g></g></svg>