<svg xmlns="http://www.w3.org/2000/svg" viewBox="0 0 286.1666 50">
  <defs>
    <style>
      .a {
        fill: #414042;
      }

      .b {
        fill: none;
      }

      .c {
        fill: #6d6e71;
      }
    </style>
  </defs>
  <title>what-we-bevel</title>
  <g>
    <g>
      <g>
        <path class="a" d="M127.3381,20.5369a3.3321,3.3321,0,0,1,.034.4A1.9806,1.9806,0,0,0,127.3381,20.5369Z"/>
        <path class="a" d="M83.3,21.1239a1.7931,1.7931,0,0,0-.1945.1045C83.172,21.1923,83.2353,21.159,83.3,21.1239Z"/>
        <path class="a" d="M272.98,16.7708c-.0442.0114-.0883.0249-.1324.0385.2891-.0449.5017-.0689.62-.08A1.2717,1.2717,0,0,0,272.98,16.7708Z"/>
        <path class="b" d="M125.2845,19.5508a1.9536,1.9536,0,0,0-.7136.3879,7.06,7.06,0,0,0-1.1392,1.0716,28.8465,28.8465,0,0,0-2.0471,2.8928,84.8517,84.8517,0,0,0-7.3906,16.681c-.2672.8169-.4363,1.666-.6508,2.5l.0939.021c0,.1592-.0135.32.0022.4773a1.3226,1.3226,0,0,0,2.1058,1.1042,5.5992,5.5992,0,0,0,1.0707-.836,21.6523,21.6523,0,0,0,3.2309-4.2162,57.5132,57.5132,0,0,0,3.2434-6.3823,76.6982,76.6982,0,0,0,3.791-9.6393,10.8754,10.8754,0,0,0,.4911-2.599c.0012-.0266,0-.0515,0-.0776a3.3321,3.3321,0,0,0-.034-.4C127.1718,19.6794,126.4132,19.251,125.2845,19.5508Z"/>
        <path class="a" d="M162.3124,6.8618c-.0768.1156-.1613.2277-.2412.3419.08-.1142.1644-.2263.2412-.342Z"/>
        <path class="a" d="M150.927,43.5817c.227.5568.4213,1.13.6906,1.6656-.2693-.5357-.4637-1.1091-.6906-1.6662Z"/>
        <path class="a" d="M258.0107,42.1779a.555.555,0,0,1,.035.1022A.5553.5553,0,0,0,258.0107,42.1779Z"/>
        <path class="b" d="M268.0992,31.67a12.5245,12.5245,0,0,0,1.6337-2.0876,37.24,37.24,0,0,0,3.9759-9.6091,11.1414,11.1414,0,0,0,.313-2.3584c.0228-.5312-.173-.8335-.5546-.8861-.118.0115-.3305.0354-.62.08a3.9927,3.9927,0,0,0-1.192.6189,14.9559,14.9559,0,0,0-3.1375,3.4872,51.888,51.888,0,0,0-4.8882,9.049c-.413.9328-.7927,1.88-1.2145,2.885a10.2018,10.2018,0,0,0,2.8843.0739q.2747-.026.5392-.0753c-.253-.0289-.5055-.0669-.7569-.1164.2513.05.5038.0875.7569.1164A3.9843,3.9843,0,0,0,268.0992,31.67Z"/>
        <path class="a" d="M257.8465,41.8848c.0509.0983.1193.1927.1639.2924-.0446-.1-.1129-.1942-.164-.2932Z"/>
        <path class="a" d="M257.8462,41.883v0Z"/>
        <path class="a" d="M87.7492,49.2668c-7.566,1.2248-4.51-7.1248-4.51-7.1248s4.72-11.3334,7.7607-18.98c0,0,2.7593-7.6767-7.7-2.0379a2.3682,2.3682,0,0,1,.4962-.1671c.4886-.1071.7482.12.69.62a3.5512,3.5512,0,0,1-.2424.9187c-.48,1.1792-.9666,2.3562-1.477,3.5225-1.5319,3.5-3.1,6.9844-4.606,10.4956A23.0776,23.0776,0,0,0,76.35,42.4329a5.789,5.789,0,0,0,1.42,5.0692A7.0341,7.0341,0,0,0,81.1038,49.41a12.4033,12.4033,0,0,0,4.0631.2912A11.8022,11.8022,0,0,0,87.7492,49.2668Z"/>
        <path class="a" d="M76.845.134C74.2958.0989,71.7468.0461,69.1978.0008c-.5374-.01-.5953.0529-.6365.7331l4.7794.333a2.0318,2.0318,0,0,1-.2253,1.5237Q72.1084,5.053,71.05,7.4944,66.1946,18.737,61.3259,29.9737q-3.98,9.1684-7.991,18.3237c-.0751.1723-.1213.3572-.1951.5787.4413.0411.8019.1,1.1631.1045q3.0422.0362,6.0845.0663L81.5482.1929Q79.1965.165,76.845.134Z"/>
        <path class="a" d="M91,23.1618c-3.0409,7.6467-7.7607,18.98-7.7607,18.98s-3.0562,8.35,4.51,7.1248A9.7974,9.7974,0,0,0,92.74,45.92a31.4625,31.4625,0,0,0,4.0116-6.8012c.025-.0545.0031-.13.0031-.2831l-.8631-.2555c-.14.2748-.24.4759-.3444.6743-.5835,1.1064-1.1157,2.2444-1.7675,3.309a36.3708,36.3708,0,0,1-2.1211,3.0054,2.8844,2.8844,0,0,1-.9537.7493c-.5529.2894-.968-.0068-.89-.6283a5.1257,5.1257,0,0,1,.3287-1.2484c.7074-1.7741,1.4178-3.5476,2.168-5.3038,1.5543-3.6389,3.16-7.2562,4.6946-10.903a21.0044,21.0044,0,0,0,1.7687-6.4191,5.6741,5.6741,0,0,0-4.2171-6.1437,10.2059,10.2059,0,0,0-4.7992-.0578,13.5585,13.5585,0,0,0-6.9789,3.9085,29.2277,29.2277,0,0,0-3.4746,4.2056,1.1529,1.1529,0,0,1-.5458.5507c.0987-.2461.1515-.3911.2142-.5318q3.4-7.6355,6.8014-15.27,1.6507-3.709,3.29-7.423c.2435-.5521.12-.7407-.4732-.78C88.5.2682,88.4091.2733,88.318.2722q-3.3849-.04-6.77-.0793L60.3874,49.0469q3.4116.0361,6.8231.0813a1.09,1.09,0,0,0,1.1816-.7743Q71.0047,42.1624,73.6874,36c1.2245-2.8158,2.4889-5.6126,3.9213-8.3335a23.046,23.046,0,0,1,4.5736-5.741,5.6629,5.6629,0,0,1,.9235-.6975,1.7931,1.7931,0,0,1,.1945-.1045C93.7594,15.4851,91,23.1618,91,23.1618Z"/>
        <path class="a" d="M.205,22.7725c-.3334.385-.2853.4751.3321.7778.151-.1413.3126-.2972.4792-.4476.76-.6863,1.5043-1.3918,2.2908-2.0466a4.22,4.22,0,0,1,1.1706-.6842c.8819-.338,1.4129-.0218,1.5963.8928a3.103,3.103,0,0,1,.0742.7443c-.0454.9773-.0561,1.9609-.1817,2.929-.3541,2.7291-.6957,5.4624-1.1578,8.1744C4.0522,37.5508,3.2059,41.974,2.3943,46.403c-.1425.7775-.3008,1.5521-.4619,2.38a4.0338,4.0338,0,0,0,.7392.2441c.9465.1134,1.8946.23,2.8455.2871,1.0655.0645,2.131.1086,3.1966.126l3.3232-17.3314s.5577-2.613.7615-3.706c.7-3.7531,1.5368-12.057-4.8-11.9183q-.5322.22-1.051.4918A23.6605,23.6605,0,0,0,.205,22.7725Z"/>
        <path class="a" d="M37.3728,49.2661a2.4668,2.4668,0,0,0,1.7168-.6743c2.2829-2.0265,4.5291-4.09,6.65-6.2862A66.6246,66.6246,0,0,0,54.4034,31.6a25.1843,25.1843,0,0,0,3.1955-6.7621,11.3523,11.3523,0,0,0,.3581-5.2646,4.9025,4.9025,0,0,0-3.6908-4.05c-.061-.0168-.1226-.0319-.1842-.047-.5766.3233-2.3314,1.6567-2.6089,6.018-.329,5.1719,4.932,9.4652-.8877,12.9075a15.832,15.832,0,0,1-.88,1.3539,64.527,64.527,0,0,1-8.2025,9.1334,1.8378,1.8378,0,0,1-.3451.1858c0-.2893-.0022-.4876,0-.6858.0361-2.8685.1055-5.7371.1012-8.6055-.0057-3.8478-.0515-7.6958-.1125-11.5432-.0387-2.4353-.1351-4.87-.2108-7.3044a4.5166,4.5166,0,0,0-.0871-.5494c-.5591-.0484-1.0769-.1257-1.5957-.1323-1.7988-.0228-3.5978-.023-5.3968-.0268-.23,0-.46.0112-.69.0269l.4252,33.0244C34.8517,49.2784,36.1123,49.2682,37.3728,49.2661Z"/>
        <path class="a" d="M51.4731,21.4946c.2774-4.3613,2.0323-5.6947,2.6089-6.018a9.1115,9.1115,0,0,0-1.831-.2349,6.7121,6.7121,0,0,0-5.9132,2.7924A5.9917,5.9917,0,0,0,47.082,26.13c.5711.4873,1.1667.9457,1.7434,1.4264.5588.4657,1.1182.9317,1.6592,1.4177a3.2583,3.2583,0,0,1,.8513,3.7989,9.3668,9.3668,0,0,1-.75,1.6289C56.4051,30.96,51.1441,26.6665,51.4731,21.4946Z"/>
        <path class="a" d="M12.7984,28.4028c-.2038,1.0931-.7615,3.706-.7615,3.706L8.7136,49.44a52.2506,52.2506,0,0,0,5.263-.164,2.4869,2.4869,0,0,0,2.0031-1.18c3.3937-4.9633,6.542-10.0787,9.6065-15.248.1325-.2235.2767-.44.4155-.66.0052.1435.009.2869.0136.43l.0354-3.1917c-2.705,5.0261-5.6255,9.9333-8.8014,14.6994-.1463.22-.299.435-.4487.6523l-.0791-.0385c.0586-.2392.1133-.48.1764-.7175a142.7619,142.7619,0,0,0,3.42-15.7941,23.9047,23.9047,0,0,0,.3292-5.5775,7.2749,7.2749,0,0,0-3.2516-5.7958,8.4422,8.4422,0,0,0-4.5379-1.2719,11.8347,11.8347,0,0,0-4.8586.9014C14.3352,16.3458,13.4983,24.65,12.7984,28.4028Z"/>
        <path class="a" d="M25.954,48.8266a7.3232,7.3232,0,0,0,.9116.1846c1.3839.0972,2.7683.2219,4.1543.2484.857.0164,1.7142.02,2.5715.0193l-.4252-33.0244c-.0656.0045-.1314.0076-.1969.013a.6384.6384,0,0,0-.6213.4461,4.3854,4.3854,0,0,1-.2006.4331q-2.86,6.2441-6.0966,12.28l-.0354,3.1917C26.1905,38.035,25.9938,43.4091,25.954,48.8266Z"/>
        <path class="a" d="M133.77,43.3049q4.9445-12.0566,9.9061-24.1062c.19-.4626.4241-.9083.5961-1.3771a.8336.8336,0,0,0-.7426-1.1966q-1.5945-.16-3.1946-.2627c-.9141-.059-1.8293-.103-2.7446-.1423-3.2147,8.0105-10.8776,25.922-10.8776,25.922s-3.052,8.3389,4.4958,7.1269a9.6257,9.6257,0,0,0,4.9565-3.4513,34.2851,34.2851,0,0,0,3.75-6.4085c.0757-.1592.1276-.33.2139-.5561l-.8971-.3757c-.16.303-.2712.5235-.3915.7387-.9542,1.7069-1.881,3.43-2.8809,5.11a9.9341,9.9341,0,0,1-1.3831,1.68,1.6965,1.6965,0,0,1-.82.4369c-.494.113-.79-.1726-.77-.6759a1.9332,1.9332,0,0,1,.108-.5316C133.3112,44.5889,133.5117,43.9348,133.77,43.3049Z"/>
        <path class="a" d="M127.3721,20.9365c0,.0261.0013.0509,0,.0776C127.3722,21.0141,127.373,20.9852,127.3721,20.9365Z"/>
        <path class="a" d="M258.01,42.1772l0,.0007Z"/>
        <path class="a" d="M253.3532,42.3865c-2.299-10.3565,8.0389-19.8463,12.0705-22.6189a18.4892,18.4892,0,0,1,7.4238-2.9584c.0441-.0135.0882-.0271.1324-.0385a1.2717,1.2717,0,0,1,.4873-.0418c.07-.0068.1074-.0093.1074-.0093s-.0372.0025-.1074.0093c.3816.0526.5773.3549.5546.8861a11.1414,11.1414,0,0,1-.313,2.3584,37.24,37.24,0,0,1-3.9759,9.6091,12.5245,12.5245,0,0,1-1.6337,2.0876,3.9843,3.9843,0,0,1-2.26,1.1777c6.0762.6945,12.5229-4.4629,13.4911-10.7861,1.0783-7.0417-8.0429-6.2005-8.2873-6.1564q-.5641.1172-1.1248.2577a47.14,47.14,0,0,0-12.3628,5.1244,28.6006,28.6006,0,0,0-7.2858,5.9106,17.0191,17.0191,0,0,0-4.0541,7.6307,10.2335,10.2335,0,0,0,2.3419,9.42,15.9859,15.9859,0,0,0,4.6211,3.5709,19.324,19.324,0,0,0,7.2287,2.0489,21.0959,21.0959,0,0,0,4.4-.03C259.9539,49.4856,254.56,47.8233,253.3532,42.3865Z"/>
        <path class="a" d="M286.0192,21.4608a6.6089,6.6089,0,0,0-3.65-4.5237A13.5358,13.5358,0,0,0,276.2,15.44a20.9721,20.9721,0,0,0-5.1572.4654c.2444-.0441,9.3656-.8853,8.2873,6.1564-.9682,6.3232-7.4149,11.4807-13.4911,10.7861q-.2645.0491-.5392.0753a10.2018,10.2018,0,0,1-2.8843-.0739c.4217-1.0046.8015-1.9522,1.2145-2.885a51.888,51.888,0,0,1,4.8882-9.049,14.9559,14.9559,0,0,1,3.1375-3.4872,3.9927,3.9927,0,0,1,1.192-.6189,18.4892,18.4892,0,0,0-7.4238,2.9584c-4.0316,2.7726-14.37,12.2624-12.0705,22.6189,1.2069,5.4368,6.6007,7.0991,11.4532,7.4523a18.9457,18.9457,0,0,0,4.4529-1.0616,24.6555,24.6555,0,0,0,11.6267-9.1389,2.9006,2.9006,0,0,0,.18-.373l-.7869-.5125a1.0618,1.0618,0,0,0-.203.1213c-.2018.2465-.3992.4965-.598.7454a25.1724,25.1724,0,0,1-6.6727,6.09,11.23,11.23,0,0,1-7.7571,1.6831,5.1362,5.1362,0,0,1-4.4844-4.0007,8.4082,8.4082,0,0,1-.2016-1.621c-.0914-2.6262.7922-5.0472,1.5664-7.5119.2224-.0131.4009-.0382.5782-.0319a45.861,45.861,0,0,0,8.708-.515,29.6165,29.6165,0,0,0,8.0877-2.3434,15.1058,15.1058,0,0,0,4.949-3.5729A7.0993,7.0993,0,0,0,286.0192,21.4608ZM257.8462,41.883v0Zm0,.0017V41.884c.051.0989.1194.1934.164.2932l0,.0007a.5553.5553,0,0,1,.035.1022.555.555,0,0,0-.035-.1022l0-.0007C257.9657,42.0774,257.8974,41.9831,257.8465,41.8848Z"/>
        <path class="a" d="M151.269,37.42,165.8644,5.8435q-1.5445-.0533-3.0892-.0984c-1.32-.0371-2.6411-.0285-3.9617-.03a1.1743,1.1743,0,0,0-1.2206.8394c-1.2621,3.0463-2.6019,6.06-3.8813,9.1a.9446.9446,0,0,1-1.0817.6936c-.4065-.0374-.8192-.0073-1.2291-.0073h-2.2931l-.1131.9976H152.86c-.1054.2853-.145.4146-.2.5371q-3.0529,6.8567-6.1072,13.7128a38.72,38.72,0,0,0-2.4006,6.6654,11.6892,11.6892,0,0,0-.2007,5.408,7.47,7.47,0,0,0,5.2868,5.8113,12.2151,12.2151,0,0,0,6.666.1272c.2658-.0643.5242-.14.7785-.2218C145.2981,48.7075,151.269,37.42,151.269,37.42Zm11.0434-30.558h0c-.0768.1156-.1613.2278-.2412.342C162.1512,7.09,162.2357,6.9774,162.3124,6.8618Zm-.9893-.2084c-.0261.0026-.0522.0049-.0782.0068C161.2709,6.6584,161.297,6.656,161.3231,6.6535Z"/>
        <path class="a" d="M172.6484,6.2435a2.0791,2.0791,0,0,0-.39-.1234c-.6355-.0449-1.2714-.0907-1.908-.1141q-2.2429-.0827-4.4859-.1626L151.269,37.42s-5.9709,11.2877,5.414,11.9578a11.76,11.76,0,0,0,5.5832-4,30.3315,30.3315,0,0,0,3.7117-6.1917c.2206-.4676.4258-.9424.64-1.4174-.3171-.2505-.5851-.4479-.9833-.3206-.1285.2624-.2491.5318-.3892.7906-.8115,1.5-1.6035,3.0112-2.4511,4.49a9.4675,9.4675,0,0,1-1.9567,2.442,3.6885,3.6885,0,0,1-1.5252.8682,1.6756,1.6756,0,0,1-2.2685-1.6219c-.0071-.0907-.0031-.1821-.007-.2731a9.5235,9.5235,0,0,1,.9621-4.2223q4.1069-9.449,8.2382-18.8873c.5276-1.2046,1.1142-2.3833,1.6881-3.6048h6.4889l.123-.9206-6.1117-.1772ZM150.927,43.5817v-.0006c.2269.557.4212,1.13.6906,1.6662C151.3483,44.7117,151.154,44.1385,150.927,43.5817Z"/>
      </g>
      <g>
        <path class="a" d="M119.8466,39.6347a21.6523,21.6523,0,0,1-3.2309,4.2162,5.5992,5.5992,0,0,1-1.0707.836,1.3226,1.3226,0,0,1-2.1058-1.1042c-.0157-.1576-.0022-.3182-.0022-.4773l-.0939-.021c.2145-.8342.3836-1.6832.6508-2.5a84.8517,84.8517,0,0,1,7.3906-16.681,28.8465,28.8465,0,0,1,2.0471-2.8928,7.06,7.06,0,0,1,1.1392-1.0716,1.9536,1.9536,0,0,1,.7136-.3879c1.1287-.3,1.8873.1286,2.0536.9861-.1412-.99-.856-3.1143-4.43-2.3111-4.6034,1.0345-17.6458,12.9-16.2154,26.1342.1894,3.0172,2.6875,4.58,5.6282,4.3369a13.3977,13.3977,0,0,0,1.8319-1.1345,25.9373,25.9373,0,0,0,5.3283-5.5437c.1438-.1917.3-.3744.45-.5612a25.52,25.52,0,0,1,.8672-3.4769C120.4958,38.54,120.18,39.0917,119.8466,39.6347Z"/>
        <path class="a" d="M126.7128,42.1419S134.3757,24.2305,137.59,16.22c-.2443-.01-.4885-.0225-.7328-.0322-2.0238-.08-4.0486-.1366-6.0719-.2257a.794.794,0,0,0-.873.5823c-.3838.973-.7878,1.9381-1.19,2.9039a4.1074,4.1074,0,0,1-.2184.4081,18.7272,18.7272,0,0,0-1.3673-2.0454,6.6366,6.6366,0,0,0-5.0939-2.2321,13.1248,13.1248,0,0,0-5.3686,1.1118,24.7164,24.7164,0,0,0-6.9567,4.505,32.4157,32.4157,0,0,0-8.3377,11.11A18.37,18.37,0,0,0,99.6668,40.45a11.35,11.35,0,0,0,1.5491,5.6622,7.2464,7.2464,0,0,0,6.4883,3.7181,9.9878,9.9878,0,0,0,4.6168-1.1331c-2.9407.2427-5.4388-1.32-5.6282-4.3369-1.43-13.2346,11.6119-25.1,16.2154-26.1342,3.5739-.8032,4.2888,1.3207,4.43,2.3111a1.9806,1.9806,0,0,1,.034.4c.0009.0487,0,.0776,0,.0776a10.8754,10.8754,0,0,1-.4911,2.599,76.6982,76.6982,0,0,1-3.791,9.6393c-.7244,1.5955-1.4578,3.1877-2.2917,4.7282a25.52,25.52,0,0,0-.8672,3.4769l.0018-.0023a1.3885,1.3885,0,0,1,.025.6278,6.906,6.906,0,0,0,.0937,2.7123,6.2476,6.2476,0,0,0,4.0431,4.3782,10.84,10.84,0,0,0,4.3648.541,11.3927,11.3927,0,0,0,2.7489-.4457C123.6607,50.4808,126.7128,42.1419,126.7128,42.1419Z"/>
      </g>
      <path class="a" d="M188.77,22.6243c-.3334.385-.2853.4751.3321.7778.151-.1413.3126-.2972.4792-.4476.76-.6863,1.5043-1.3918,2.2908-2.0466a4.22,4.22,0,0,1,1.1706-.6842c.8819-.338,1.4129-.0218,1.5963.8928a3.103,3.103,0,0,1,.0742.7443c-.0454.9773-.0561,1.9609-.1817,2.929-.3541,2.7291-.6957,5.4624-1.1578,8.1744-.7563,4.4385-1.6026,8.8616-2.4143,13.2906-.1425.7775-.3008,1.5521-.4619,2.38a4.0338,4.0338,0,0,0,.7392.2441c.9465.1134,1.8946.23,2.8455.2871,1.0655.0645,2.131.1086,3.1966.126l3.3232-17.3314s.5577-2.613.7615-3.706c.7-3.7531,1.5368-12.057-4.8-11.9183q-.5322.22-1.051.4918A23.6605,23.6605,0,0,0,188.77,22.6243Z"/>
      <path class="a" d="M225.9381,49.1179a2.4668,2.4668,0,0,0,1.7168-.6743c2.2829-2.0265,4.5291-4.09,6.65-6.2862a66.6246,66.6246,0,0,0,8.6636-10.7056,25.1843,25.1843,0,0,0,3.1955-6.7621,11.3523,11.3523,0,0,0,.3581-5.2646,4.9025,4.9025,0,0,0-3.6908-4.05c-.061-.0168-.1226-.0319-.1842-.047-.5766.3233-2.3314,1.6567-2.6089,6.018-.329,5.1719,4.932,9.4652-.8877,12.9075a15.832,15.832,0,0,1-.88,1.3539,64.527,64.527,0,0,1-8.2025,9.1334,1.8378,1.8378,0,0,1-.3451.1858c0-.2893-.0022-.4876,0-.6858.0361-2.8685.1055-5.7371.1012-8.6055-.0057-3.8478-.0515-7.6958-.1125-11.5432-.0387-2.4353-.1351-4.87-.2108-7.3044a4.5165,4.5165,0,0,0-.0871-.5494c-.5591-.0484-1.0769-.1257-1.5957-.1323-1.7988-.0228-3.5978-.023-5.3968-.0268-.23,0-.46.0112-.69.0269l.4252,33.0244C223.4171,49.13,224.6777,49.12,225.9381,49.1179Z"/>
      <path class="a" d="M240.0385,21.3464c.2774-4.3613,2.0323-5.6947,2.6089-6.018a9.1115,9.1115,0,0,0-1.831-.2349,6.7121,6.7121,0,0,0-5.9132,2.7924,5.9917,5.9917,0,0,0,.7443,8.0961c.5711.4873,1.1667.9457,1.7434,1.4264.5588.4657,1.1182.9317,1.6592,1.4177a3.2583,3.2583,0,0,1,.8513,3.7989,9.3668,9.3668,0,0,1-.75,1.6289C244.97,30.8116,239.7095,26.5183,240.0385,21.3464Z"/>
      <path class="a" d="M201.3638,28.2546c-.2038,1.0931-.7615,3.706-.7615,3.706L197.279,49.292a52.2506,52.2506,0,0,0,5.263-.164,2.4869,2.4869,0,0,0,2.0031-1.18c3.3937-4.9633,6.542-10.0787,9.6065-15.248.1325-.2235.2767-.44.4155-.66.0052.1435.009.2869.0136.43l.0354-3.1917c-2.705,5.0261-5.6255,9.9333-8.8014,14.6994-.1463.22-.299.435-.4487.6523l-.0791-.0385c.0586-.2392.1133-.48.1764-.7175a142.7619,142.7619,0,0,0,3.42-15.7941,23.9047,23.9047,0,0,0,.3292-5.5775,7.2749,7.2749,0,0,0-3.2516-5.7958,8.4422,8.4422,0,0,0-4.5379-1.2719,11.8347,11.8347,0,0,0-4.8586.9014C202.9006,16.1976,202.0637,24.5016,201.3638,28.2546Z"/>
      <path class="a" d="M214.5194,48.6785a7.3232,7.3232,0,0,0,.9116.1846c1.3839.0972,2.7683.2219,4.1543.2484.857.0164,1.7142.02,2.5715.0193l-.4252-33.0244c-.0656.0045-.1314.0076-.1969.013a.6384.6384,0,0,0-.6213.4461,4.3854,4.3854,0,0,1-.2006.4331q-2.86,6.2441-6.0966,12.28l-.0354,3.1917C214.7559,37.8868,214.5592,43.2609,214.5194,48.6785Z"/>
    </g>
    <g>
      <path class="b" d="M127.3381,20.5369a3.3321,3.3321,0,0,1,.034.4A1.9806,1.9806,0,0,0,127.3381,20.5369Z"/>
      <path class="b" d="M83.3,21.1239a1.7931,1.7931,0,0,0-.1945.1045C83.172,21.1923,83.2353,21.159,83.3,21.1239Z"/>
      <path class="b" d="M272.98,16.7708c-.0442.0114-.0883.0249-.1324.0385.2891-.0449.5017-.0689.62-.08A1.2717,1.2717,0,0,0,272.98,16.7708Z"/>
      <path class="b" d="M125.2845,19.5508a1.9536,1.9536,0,0,0-.7136.3879,7.06,7.06,0,0,0-1.1392,1.0716,28.8465,28.8465,0,0,0-2.0471,2.8928,84.8517,84.8517,0,0,0-7.3906,16.681c-.2672.8169-.4363,1.666-.6508,2.5l.0939.021c0,.1592-.0135.32.0022.4773a1.3226,1.3226,0,0,0,2.1058,1.1042,5.5992,5.5992,0,0,0,1.0707-.836,21.6523,21.6523,0,0,0,3.2309-4.2162,57.5132,57.5132,0,0,0,3.2434-6.3823,76.6982,76.6982,0,0,0,3.791-9.6393,10.8754,10.8754,0,0,0,.4911-2.599c.0012-.0266,0-.0515,0-.0776a3.3321,3.3321,0,0,0-.034-.4C127.1718,19.6794,126.4132,19.251,125.2845,19.5508Z"/>
      <path class="b" d="M162.3124,6.8618c-.0768.1156-.1613.2277-.2412.3419.08-.1142.1644-.2263.2412-.342Z"/>
      <path class="b" d="M150.927,43.5817c.227.5568.4213,1.13.6906,1.6656-.2693-.5357-.4637-1.1091-.6906-1.6662Z"/>
      <path class="b" d="M258.0107,42.1779a.555.555,0,0,1,.035.1022A.5553.5553,0,0,0,258.0107,42.1779Z"/>
      <path class="b" d="M268.0992,31.67a12.5245,12.5245,0,0,0,1.6337-2.0876,37.24,37.24,0,0,0,3.9759-9.6091,11.1414,11.1414,0,0,0,.313-2.3584c.0228-.5312-.173-.8335-.5546-.8861-.118.0115-.3305.0354-.62.08a3.9927,3.9927,0,0,0-1.192.6189,14.9559,14.9559,0,0,0-3.1375,3.4872,51.888,51.888,0,0,0-4.8882,9.049c-.413.9328-.7927,1.88-1.2145,2.885a10.2018,10.2018,0,0,0,2.8843.0739q.2747-.026.5392-.0753c-.253-.0289-.5055-.0669-.7569-.1164.2513.05.5038.0875.7569.1164A3.9843,3.9843,0,0,0,268.0992,31.67Z"/>
      <path class="b" d="M257.8465,41.8848c.0509.0983.1193.1927.1639.2924-.0446-.1-.1129-.1942-.164-.2932Z"/>
      <path class="b" d="M257.8462,41.883v0Z"/>
      <path class="c" d="M87.7492,49.2668c-7.566,1.2248-4.51-7.1248-4.51-7.1248s4.72-11.3334,7.7607-18.98c0,0,2.7593-7.6767-7.7-2.0379a2.3682,2.3682,0,0,1,.4962-.1671c.4886-.1071.7482.12.69.62a3.5512,3.5512,0,0,1-.2424.9187c-.48,1.1792-.9666,2.3562-1.477,3.5225-1.5319,3.5-3.1,6.9844-4.606,10.4956A23.0776,23.0776,0,0,0,76.35,42.4329a5.789,5.789,0,0,0,1.42,5.0692A7.0341,7.0341,0,0,0,81.1038,49.41a12.4033,12.4033,0,0,0,4.0631.2912A11.8022,11.8022,0,0,0,87.7492,49.2668Z"/>
      <path class="c" d="M76.845.134C74.2958.0989,71.7468.0461,69.1978.0008c-.5374-.01-.5953.0529-.6365.7331l4.7794.333a2.0318,2.0318,0,0,1-.2253,1.5237Q72.1084,5.053,71.05,7.4944,66.1946,18.737,61.3259,29.9737q-3.98,9.1684-7.991,18.3237c-.0751.1723-.1213.3572-.1951.5787.4413.0411.8019.1,1.1631.1045q3.0422.0362,6.0845.0663L81.5482.1929Q79.1965.165,76.845.134Z"/>
      <path class="a" d="M91,23.1618c-3.0409,7.6467-7.7607,18.98-7.7607,18.98s-3.0562,8.35,4.51,7.1248A9.7974,9.7974,0,0,0,92.74,45.92a31.4625,31.4625,0,0,0,4.0116-6.8012c.025-.0545.0031-.13.0031-.2831l-.8631-.2555c-.14.2748-.24.4759-.3444.6743-.5835,1.1064-1.1157,2.2444-1.7675,3.309a36.3708,36.3708,0,0,1-2.1211,3.0054,2.8844,2.8844,0,0,1-.9537.7493c-.5529.2894-.968-.0068-.89-.6283a5.1257,5.1257,0,0,1,.3287-1.2484c.7074-1.7741,1.4178-3.5476,2.168-5.3038,1.5543-3.6389,3.16-7.2562,4.6946-10.903a21.0044,21.0044,0,0,0,1.7687-6.4191,5.6741,5.6741,0,0,0-4.2171-6.1437,10.2059,10.2059,0,0,0-4.7992-.0578,13.5585,13.5585,0,0,0-6.9789,3.9085,29.2277,29.2277,0,0,0-3.4746,4.2056,1.1529,1.1529,0,0,1-.5458.5507c.0987-.2461.1515-.3911.2142-.5318q3.4-7.6355,6.8014-15.27,1.6507-3.709,3.29-7.423c.2435-.5521.12-.7407-.4732-.78C88.5.2682,88.4091.2733,88.318.2722q-3.3849-.04-6.77-.0793L60.3874,49.0469q3.4116.0361,6.8231.0813a1.09,1.09,0,0,0,1.1816-.7743Q71.0047,42.1624,73.6874,36c1.2245-2.8158,2.4889-5.6126,3.9213-8.3335a23.046,23.046,0,0,1,4.5736-5.741,5.6629,5.6629,0,0,1,.9235-.6975,1.7931,1.7931,0,0,1,.1945-.1045C93.7594,15.4851,91,23.1618,91,23.1618Z"/>
      <path class="c" d="M.205,22.7725c-.3334.385-.2853.4751.3321.7778.151-.1413.3126-.2972.4792-.4476.76-.6863,1.5043-1.3918,2.2908-2.0466a4.22,4.22,0,0,1,1.1706-.6842c.8819-.338,1.4129-.0218,1.5963.8928a3.103,3.103,0,0,1,.0742.7443c-.0454.9773-.0561,1.9609-.1817,2.929-.3541,2.7291-.6957,5.4624-1.1578,8.1744C4.0522,37.5508,3.2059,41.974,2.3943,46.403c-.1425.7775-.3008,1.5521-.4619,2.38a4.0338,4.0338,0,0,0,.7392.2441c.9465.1134,1.8946.23,2.8455.2871,1.0655.0645,2.131.1086,3.1966.126l3.3232-17.3314s.5577-2.613.7615-3.706c.7-3.7531,1.5368-12.057-4.8-11.9183q-.5322.22-1.051.4918A23.6605,23.6605,0,0,0,.205,22.7725Z"/>
      <path class="a" d="M37.3728,49.2661a2.4668,2.4668,0,0,0,1.7168-.6743c2.2829-2.0265,4.5291-4.09,6.65-6.2862A66.6246,66.6246,0,0,0,54.4034,31.6a25.1843,25.1843,0,0,0,3.1955-6.7621,11.3523,11.3523,0,0,0,.3581-5.2646,4.9025,4.9025,0,0,0-3.6908-4.05c-.061-.0168-.1226-.0319-.1842-.047-.5766.3233-2.3314,1.6567-2.6089,6.018-.329,5.1719,4.932,9.4652-.8877,12.9075a15.832,15.832,0,0,1-.88,1.3539,64.527,64.527,0,0,1-8.2025,9.1334,1.8378,1.8378,0,0,1-.3451.1858c0-.2893-.0022-.4876,0-.6858.0361-2.8685.1055-5.7371.1012-8.6055-.0057-3.8478-.0515-7.6958-.1125-11.5432-.0387-2.4353-.1351-4.87-.2108-7.3044a4.5166,4.5166,0,0,0-.0871-.5494c-.5591-.0484-1.0769-.1257-1.5957-.1323-1.7988-.0228-3.5978-.023-5.3968-.0268-.23,0-.46.0112-.69.0269l.4252,33.0244C34.8517,49.2784,36.1123,49.2682,37.3728,49.2661Z"/>
      <path class="c" d="M51.4731,21.4946c.2774-4.3613,2.0323-5.6947,2.6089-6.018a9.1115,9.1115,0,0,0-1.831-.2349,6.7121,6.7121,0,0,0-5.9132,2.7924A5.9917,5.9917,0,0,0,47.082,26.13c.5711.4873,1.1667.9457,1.7434,1.4264.5588.4657,1.1182.9317,1.6592,1.4177a3.2583,3.2583,0,0,1,.8513,3.7989,9.3668,9.3668,0,0,1-.75,1.6289C56.4051,30.96,51.1441,26.6665,51.4731,21.4946Z"/>
      <path class="a" d="M12.7984,28.4028c-.2038,1.0931-.7615,3.706-.7615,3.706L8.7136,49.44a52.2506,52.2506,0,0,0,5.263-.164,2.4869,2.4869,0,0,0,2.0031-1.18c3.3937-4.9633,6.542-10.0787,9.6065-15.248.1325-.2235.2767-.44.4155-.66.0052.1435.009.2869.0136.43l.0354-3.1917c-2.705,5.0261-5.6255,9.9333-8.8014,14.6994-.1463.22-.299.435-.4487.6523l-.0791-.0385c.0586-.2392.1133-.48.1764-.7175a142.7619,142.7619,0,0,0,3.42-15.7941,23.9047,23.9047,0,0,0,.3292-5.5775,7.2749,7.2749,0,0,0-3.2516-5.7958,8.4422,8.4422,0,0,0-4.5379-1.2719,11.8347,11.8347,0,0,0-4.8586.9014C14.3352,16.3458,13.4983,24.65,12.7984,28.4028Z"/>
      <path class="c" d="M25.954,48.8266a7.3232,7.3232,0,0,0,.9116.1846c1.3839.0972,2.7683.2219,4.1543.2484.857.0164,1.7142.02,2.5715.0193l-.4252-33.0244c-.0656.0045-.1314.0076-.1969.013a.6384.6384,0,0,0-.6213.4461,4.3854,4.3854,0,0,1-.2006.4331q-2.86,6.2441-6.0966,12.28l-.0354,3.1917C26.1905,38.035,25.9938,43.4091,25.954,48.8266Z"/>
      <path class="a" d="M133.77,43.3049q4.9445-12.0566,9.9061-24.1062c.19-.4626.4241-.9083.5961-1.3771a.8336.8336,0,0,0-.7426-1.1966q-1.5945-.16-3.1946-.2627c-.9141-.059-1.8293-.103-2.7446-.1423-3.2147,8.0105-10.8776,25.922-10.8776,25.922s-3.052,8.3389,4.4958,7.1269a9.6257,9.6257,0,0,0,4.9565-3.4513,34.2851,34.2851,0,0,0,3.75-6.4085c.0757-.1592.1276-.33.2139-.5561l-.8971-.3757c-.16.303-.2712.5235-.3915.7387-.9542,1.7069-1.881,3.43-2.8809,5.11a9.9341,9.9341,0,0,1-1.3831,1.68,1.6965,1.6965,0,0,1-.82.4369c-.494.113-.79-.1726-.77-.6759a1.9332,1.9332,0,0,1,.108-.5316C133.3112,44.5889,133.5117,43.9348,133.77,43.3049Z"/>
      <path class="a" d="M127.3721,20.9365c0,.0261.0013.0509,0,.0776C127.3722,21.0141,127.373,20.9852,127.3721,20.9365Z"/>
      <path class="a" d="M258.01,42.1772l0,.0007Z"/>
      <path class="c" d="M253.3532,42.3865c-2.299-10.3565,8.0389-19.8463,12.0705-22.6189a18.4892,18.4892,0,0,1,7.4238-2.9584c.0441-.0135.0882-.0271.1324-.0385a1.2717,1.2717,0,0,1,.4873-.0418c.07-.0068.1074-.0093.1074-.0093s-.0372.0025-.1074.0093c.3816.0526.5773.3549.5546.8861a11.1414,11.1414,0,0,1-.313,2.3584,37.24,37.24,0,0,1-3.9759,9.6091,12.5245,12.5245,0,0,1-1.6337,2.0876,3.9843,3.9843,0,0,1-2.26,1.1777c6.0762.6945,12.5229-4.4629,13.4911-10.7861,1.0783-7.0417-8.0429-6.2005-8.2873-6.1564q-.5641.1172-1.1248.2577a47.14,47.14,0,0,0-12.3628,5.1244,28.6006,28.6006,0,0,0-7.2858,5.9106,17.0191,17.0191,0,0,0-4.0541,7.6307,10.2335,10.2335,0,0,0,2.3419,9.42,15.9859,15.9859,0,0,0,4.6211,3.5709,19.324,19.324,0,0,0,7.2287,2.0489,21.0959,21.0959,0,0,0,4.4-.03C259.9539,49.4856,254.56,47.8233,253.3532,42.3865Z"/>
      <path class="a" d="M286.0192,21.4608a6.6089,6.6089,0,0,0-3.65-4.5237A13.5358,13.5358,0,0,0,276.2,15.44a20.9721,20.9721,0,0,0-5.1572.4654c.2444-.0441,9.3656-.8853,8.2873,6.1564-.9682,6.3232-7.4149,11.4807-13.4911,10.7861q-.2645.0491-.5392.0753a10.2018,10.2018,0,0,1-2.8843-.0739c.4217-1.0046.8015-1.9522,1.2145-2.885a51.888,51.888,0,0,1,4.8882-9.049,14.9559,14.9559,0,0,1,3.1375-3.4872,3.9927,3.9927,0,0,1,1.192-.6189,18.4892,18.4892,0,0,0-7.4238,2.9584c-4.0316,2.7726-14.37,12.2624-12.0705,22.6189,1.2069,5.4368,6.6007,7.0991,11.4532,7.4523a18.9457,18.9457,0,0,0,4.4529-1.0616,24.6555,24.6555,0,0,0,11.6267-9.1389,2.9006,2.9006,0,0,0,.18-.373l-.7869-.5125a1.0618,1.0618,0,0,0-.203.1213c-.2018.2465-.3992.4965-.598.7454a25.1724,25.1724,0,0,1-6.6727,6.09,11.23,11.23,0,0,1-7.7571,1.6831,5.1362,5.1362,0,0,1-4.4844-4.0007,8.4082,8.4082,0,0,1-.2016-1.621c-.0914-2.6262.7922-5.0472,1.5664-7.5119.2224-.0131.4009-.0382.5782-.0319a45.861,45.861,0,0,0,8.708-.515,29.6165,29.6165,0,0,0,8.0877-2.3434,15.1058,15.1058,0,0,0,4.949-3.5729A7.0993,7.0993,0,0,0,286.0192,21.4608ZM257.8462,41.883v0Zm0,.0017V41.884c.051.0989.1194.1934.164.2932l0,.0007a.5553.5553,0,0,1,.035.1022.555.555,0,0,0-.035-.1022l0-.0007C257.9657,42.0774,257.8974,41.9831,257.8465,41.8848Z"/>
      <path class="c" d="M151.269,37.42,165.8644,5.8435q-1.5445-.0533-3.0892-.0984c-1.32-.0371-2.6411-.0285-3.9617-.03a1.1743,1.1743,0,0,0-1.2206.8394c-1.2621,3.0463-2.6019,6.06-3.8813,9.1a.9446.9446,0,0,1-1.0817.6936c-.4065-.0374-.8192-.0073-1.2291-.0073h-2.2931l-.1131.9976H152.86c-.1054.2853-.145.4146-.2.5371q-3.0529,6.8567-6.1072,13.7128a38.72,38.72,0,0,0-2.4006,6.6654,11.6892,11.6892,0,0,0-.2007,5.408,7.47,7.47,0,0,0,5.2868,5.8113,12.2151,12.2151,0,0,0,6.666.1272c.2658-.0643.5242-.14.7785-.2218C145.2981,48.7075,151.269,37.42,151.269,37.42Zm11.0434-30.558h0c-.0768.1156-.1613.2278-.2412.342C162.1512,7.09,162.2357,6.9774,162.3124,6.8618Zm-.9893-.2084c-.0261.0026-.0522.0049-.0782.0068C161.2709,6.6584,161.297,6.656,161.3231,6.6535Z"/>
      <path class="a" d="M172.6484,6.2435a2.0791,2.0791,0,0,0-.39-.1234c-.6355-.0449-1.2714-.0907-1.908-.1141q-2.2429-.0827-4.4859-.1626L151.269,37.42s-5.9709,11.2877,5.414,11.9578a11.76,11.76,0,0,0,5.5832-4,30.3315,30.3315,0,0,0,3.7117-6.1917c.2206-.4676.4258-.9424.64-1.4174-.3171-.2505-.5851-.4479-.9833-.3206-.1285.2624-.2491.5318-.3892.7906-.8115,1.5-1.6035,3.0112-2.4511,4.49a9.4675,9.4675,0,0,1-1.9567,2.442,3.6885,3.6885,0,0,1-1.5252.8682,1.6756,1.6756,0,0,1-2.2685-1.6219c-.0071-.0907-.0031-.1821-.007-.2731a9.5235,9.5235,0,0,1,.9621-4.2223q4.1069-9.449,8.2382-18.8873c.5276-1.2046,1.1142-2.3833,1.6881-3.6048h6.4889l.123-.9206-6.1117-.1772ZM150.927,43.5817v-.0006c.2269.557.4212,1.13.6906,1.6662C151.3483,44.7117,151.154,44.1385,150.927,43.5817Z"/>
    </g>
    <g>
      <path class="a" d="M119.8466,39.6347a21.6523,21.6523,0,0,1-3.2309,4.2162,5.5992,5.5992,0,0,1-1.0707.836,1.3226,1.3226,0,0,1-2.1058-1.1042c-.0157-.1576-.0022-.3182-.0022-.4773l-.0939-.021c.2145-.8342.3836-1.6832.6508-2.5a84.8517,84.8517,0,0,1,7.3906-16.681,28.8465,28.8465,0,0,1,2.0471-2.8928,7.06,7.06,0,0,1,1.1392-1.0716,1.9536,1.9536,0,0,1,.7136-.3879c1.1287-.3,1.8873.1286,2.0536.9861-.1412-.99-.856-3.1143-4.43-2.3111-4.6034,1.0345-17.6458,12.9-16.2154,26.1342.1894,3.0172,2.6875,4.58,5.6282,4.3369a13.3977,13.3977,0,0,0,1.8319-1.1345,25.9373,25.9373,0,0,0,5.3283-5.5437c.1438-.1917.3-.3744.45-.5612a25.52,25.52,0,0,1,.8672-3.4769C120.4958,38.54,120.18,39.0917,119.8466,39.6347Z"/>
      <path class="c" d="M126.7128,42.1419S134.3757,24.2305,137.59,16.22c-.2443-.01-.4885-.0225-.7328-.0322-2.0238-.08-4.0486-.1366-6.0719-.2257a.794.794,0,0,0-.873.5823c-.3838.973-.7878,1.9381-1.19,2.9039a4.1074,4.1074,0,0,1-.2184.4081,18.7272,18.7272,0,0,0-1.3673-2.0454,6.6366,6.6366,0,0,0-5.0939-2.2321,13.1248,13.1248,0,0,0-5.3686,1.1118,24.7164,24.7164,0,0,0-6.9567,4.505,32.4157,32.4157,0,0,0-8.3377,11.11A18.37,18.37,0,0,0,99.6668,40.45a11.35,11.35,0,0,0,1.5491,5.6622,7.2464,7.2464,0,0,0,6.4883,3.7181,9.9878,9.9878,0,0,0,4.6168-1.1331c-2.9407.2427-5.4388-1.32-5.6282-4.3369-1.43-13.2346,11.6119-25.1,16.2154-26.1342,3.5739-.8032,4.2888,1.3207,4.43,2.3111a1.9806,1.9806,0,0,1,.034.4c.0009.0487,0,.0776,0,.0776a10.8754,10.8754,0,0,1-.4911,2.599,76.6982,76.6982,0,0,1-3.791,9.6393c-.7244,1.5955-1.4578,3.1877-2.2917,4.7282a25.52,25.52,0,0,0-.8672,3.4769l.0018-.0023a1.3885,1.3885,0,0,1,.025.6278,6.906,6.906,0,0,0,.0937,2.7123,6.2476,6.2476,0,0,0,4.0431,4.3782,10.84,10.84,0,0,0,4.3648.541,11.3927,11.3927,0,0,0,2.7489-.4457C123.6607,50.4808,126.7128,42.1419,126.7128,42.1419Z"/>
    </g>
    <path class="c" d="M188.77,22.6243c-.3334.385-.2853.4751.3321.7778.151-.1413.3126-.2972.4792-.4476.76-.6863,1.5043-1.3918,2.2908-2.0466a4.22,4.22,0,0,1,1.1706-.6842c.8819-.338,1.4129-.0218,1.5963.8928a3.103,3.103,0,0,1,.0742.7443c-.0454.9773-.0561,1.9609-.1817,2.929-.3541,2.7291-.6957,5.4624-1.1578,8.1744-.7563,4.4385-1.6026,8.8616-2.4143,13.2906-.1425.7775-.3008,1.5521-.4619,2.38a4.0338,4.0338,0,0,0,.7392.2441c.9465.1134,1.8946.23,2.8455.2871,1.0655.0645,2.131.1086,3.1966.126l3.3232-17.3314s.5577-2.613.7615-3.706c.7-3.7531,1.5368-12.057-4.8-11.9183q-.5322.22-1.051.4918A23.6605,23.6605,0,0,0,188.77,22.6243Z"/>
    <path class="a" d="M225.9381,49.1179a2.4668,2.4668,0,0,0,1.7168-.6743c2.2829-2.0265,4.5291-4.09,6.65-6.2862a66.6246,66.6246,0,0,0,8.6636-10.7056,25.1843,25.1843,0,0,0,3.1955-6.7621,11.3523,11.3523,0,0,0,.3581-5.2646,4.9025,4.9025,0,0,0-3.6908-4.05c-.061-.0168-.1226-.0319-.1842-.047-.5766.3233-2.3314,1.6567-2.6089,6.018-.329,5.1719,4.932,9.4652-.8877,12.9075a15.832,15.832,0,0,1-.88,1.3539,64.527,64.527,0,0,1-8.2025,9.1334,1.8378,1.8378,0,0,1-.3451.1858c0-.2893-.0022-.4876,0-.6858.0361-2.8685.1055-5.7371.1012-8.6055-.0057-3.8478-.0515-7.6958-.1125-11.5432-.0387-2.4353-.1351-4.87-.2108-7.3044a4.5165,4.5165,0,0,0-.0871-.5494c-.5591-.0484-1.0769-.1257-1.5957-.1323-1.7988-.0228-3.5978-.023-5.3968-.0268-.23,0-.46.0112-.69.0269l.4252,33.0244C223.4171,49.13,224.6777,49.12,225.9381,49.1179Z"/>
    <path class="c" d="M240.0385,21.3464c.2774-4.3613,2.0323-5.6947,2.6089-6.018a9.1115,9.1115,0,0,0-1.831-.2349,6.7121,6.7121,0,0,0-5.9132,2.7924,5.9917,5.9917,0,0,0,.7443,8.0961c.5711.4873,1.1667.9457,1.7434,1.4264.5588.4657,1.1182.9317,1.6592,1.4177a3.2583,3.2583,0,0,1,.8513,3.7989,9.3668,9.3668,0,0,1-.75,1.6289C244.97,30.8116,239.7095,26.5183,240.0385,21.3464Z"/>
    <path class="a" d="M201.3638,28.2546c-.2038,1.0931-.7615,3.706-.7615,3.706L197.279,49.292a52.2506,52.2506,0,0,0,5.263-.164,2.4869,2.4869,0,0,0,2.0031-1.18c3.3937-4.9633,6.542-10.0787,9.6065-15.248.1325-.2235.2767-.44.4155-.66.0052.1435.009.2869.0136.43l.0354-3.1917c-2.705,5.0261-5.6255,9.9333-8.8014,14.6994-.1463.22-.299.435-.4487.6523l-.0791-.0385c.0586-.2392.1133-.48.1764-.7175a142.7619,142.7619,0,0,0,3.42-15.7941,23.9047,23.9047,0,0,0,.3292-5.5775,7.2749,7.2749,0,0,0-3.2516-5.7958,8.4422,8.4422,0,0,0-4.5379-1.2719,11.8347,11.8347,0,0,0-4.8586.9014C202.9006,16.1976,202.0637,24.5016,201.3638,28.2546Z"/>
    <path class="c" d="M214.5194,48.6785a7.3232,7.3232,0,0,0,.9116.1846c1.3839.0972,2.7683.2219,4.1543.2484.857.0164,1.7142.02,2.5715.0193l-.4252-33.0244c-.0656.0045-.1314.0076-.1969.013a.6384.6384,0,0,0-.6213.4461,4.3854,4.3854,0,0,1-.2006.4331q-2.86,6.2441-6.0966,12.28l-.0354,3.1917C214.7559,37.8868,214.5592,43.2609,214.5194,48.6785Z"/>
  </g>
</svg>
