<svg xmlns="http://www.w3.org/2000/svg" width="1072.3" height="698.9" viewBox="0 0 1072.3 698.9">
  <defs>
    <style>
      .a {
        fill: none;
      }

      .b {
        fill: #414042;
      }

      .c {
        fill: #6d6e71;
      }
    </style>
  </defs>
  <title>what-bevel</title>
  <g>
    <g>
      <g>
        <path class="a" d="M226.1,688.2a129.6,129.6,0,0,0,6.7-11.3c7.7-14.7,14.4-29.9,20.9-45.1,5.2-12.3,10.2-24.7,13.9-37.5a64.4,64.4,0,0,0,2.9-14.6c0-.6,0-1.2,0-1.8a5,5,0,0,0-5.1-5.1,8.6,8.6,0,0,0-6,1.8,30.4,30.4,0,0,0-4.2,4c-4.1,4.9-7.2,10.4-10.2,16-9.9,18.8-18.2,38.4-25.9,58.1-3.7,9.4-7.2,18.8-9.3,28.7a43.4,43.4,0,0,0-1.1,7.8,6.1,6.1,0,0,0,1.5,4.6,29.4,29.4,0,0,0,6,1.7,8.4,8.4,0,0,0,5.1-2A27.5,27.5,0,0,0,226.1,688.2Z"/>
        <path class="b" d="M214.9,695.4h1.2a29.4,29.4,0,0,1-6-1.7A6.6,6.6,0,0,0,214.9,695.4Z"/>
        <path class="b" d="M481.7,333.7a12.4,12.4,0,0,1,.1,1.5A7.4,7.4,0,0,0,481.7,333.7Z"/>
        <path class="b" d="M317.9,335.8l-.7.4Z"/>
        <path class="b" d="M1023.3,319.6h-.5l2.3-.3A4.7,4.7,0,0,0,1023.3,319.6Z"/>
        <path class="a" d="M474,330a7.3,7.3,0,0,0-2.7,1.4,26.3,26.3,0,0,0-4.2,4,107.3,107.3,0,0,0-7.6,10.8,315.6,315.6,0,0,0-27.5,62c-1,3-1.6,6.2-2.4,9.3h.3c0,.6-.1,1.2,0,1.8.4,4.4,4.1,6.3,7.8,4.1a20.8,20.8,0,0,0,4-3.1,80.5,80.5,0,0,0,12-15.7,213.9,213.9,0,0,0,12.1-23.7c5.3-11.7,10.4-23.5,14.1-35.8a40.4,40.4,0,0,0,1.8-9.7c0-.1,0-.2,0-.3a12.4,12.4,0,0,0-.1-1.5C481,330.5,478.2,328.9,474,330Z"/>
        <path class="b" d="M611.7,282.8l-.9,1.3.9-1.3Z"/>
        <path class="b" d="M569.4,419.4c.8,2.1,1.6,4.2,2.6,6.2-1-2-1.7-4.1-2.6-6.2Z"/>
        <path class="b" d="M967.6,414.1v0Z"/>
        <path class="b" d="M172.9,27.1l-2.3,5.7,4.9-11.5h-.2C174.6,23.3,173.7,25.2,172.9,27.1Z"/>
        <path class="a" d="M1005.1,375.1a46.6,46.6,0,0,0,6.1-7.8,138.5,138.5,0,0,0,14.8-35.7,41.4,41.4,0,0,0,1.2-8.8c.1-2-.6-3.1-2.1-3.3l-2.3.3a14.8,14.8,0,0,0-4.4,2.3c-4.7,3.5-8.3,8.2-11.7,13-7.4,10.5-13,22-18.2,33.7-1.5,3.5-2.9,7-4.5,10.7a37.9,37.9,0,0,0,10.7.3l2-.3-2.8-.4,2.8.4A14.8,14.8,0,0,0,1005.1,375.1Z"/>
        <path class="b" d="M967,413l.6,1.1L967,413Z"/>
        <path class="b" d="M967,413q0-1.1,0-2.1t0-1.1Z"/>
        <path class="b" d="M334.4,440.5C306.3,445,317.7,414,317.7,414s17.6-42.1,28.9-70.6c0,0,10.3-28.5-28.6-7.6l1.8-.6c1.8-.4,2.8.4,2.6,2.3a13.2,13.2,0,0,1-.9,3.4c-1.8,4.4-3.6,8.8-5.5,13.1-5.7,13-11.5,26-17.1,39-3,7.1-5.7,14.3-6.7,22s.2,13.5,5.3,18.9a26.2,26.2,0,0,0,12.4,7.1,46.1,46.1,0,0,0,15.1,1.1A43.9,43.9,0,0,0,334.4,440.5Z"/>
        <path class="b" d="M293.9,257.8l-28.4-.5c-2,0-2.2.2-2.4,2.7l17.8,1.2c.7,2.3-.2,4-.8,5.7q-3.7,9.2-7.7,18.2l-36.2,83.6q-14.8,34.1-29.7,68.1c-.3.6-.5,1.3-.7,2.2,1.6.2,3,.4,4.3.4l22.6.2L311.4,258Z"/>
        <path class="b" d="M346.5,343.4c-11.3,28.4-28.9,70.6-28.9,70.6s-11.4,31.1,16.8,26.5A36.4,36.4,0,0,0,353,428c6.2-7.7,10.8-16.4,14.9-25.3.1-.2,0-.5,0-1.1l-3.2-1-1.3,2.5c-2.2,4.1-4.1,8.3-6.6,12.3a135.3,135.3,0,0,1-7.9,11.2,10.7,10.7,0,0,1-3.5,2.8c-2.1,1.1-3.6,0-3.3-2.3a19.1,19.1,0,0,1,1.2-4.6c2.6-6.6,5.3-13.2,8.1-19.7,5.8-13.5,11.7-27,17.5-40.5,3.2-7.6,5.9-15.5,6.6-23.9.9-10.8-5.2-19.9-15.7-22.8-5.9-1.7-11.9-1.4-17.8-.2-10.2,2-18.6,7.3-26,14.5A108.7,108.7,0,0,0,303,345.5a4.3,4.3,0,0,1-2,2l.8-2,25.3-56.8,12.2-27.6c.9-2.1.4-2.8-1.8-2.9h-1l-25.2-.3L232.7,439.7l25.4.3a4.1,4.1,0,0,0,4.4-2.9q9.7-23,19.7-45.9c4.6-10.5,9.3-20.9,14.6-31,4.3-8.2,10.4-15,17-21.4a21.1,21.1,0,0,1,3.4-2.6l.7-.4C356.8,314.9,346.5,343.4,346.5,343.4Z"/>
        <path class="b" d="M8.9,342c-1.2,1.4-1.1,1.8,1.2,2.9l1.8-1.7c2.8-2.6,5.6-5.2,8.5-7.6a15.7,15.7,0,0,1,4.4-2.5c3.3-1.3,5.3-.1,5.9,3.3a11.5,11.5,0,0,1,.3,2.8c-.2,3.6-.2,7.3-.7,10.9-1.3,10.1-2.6,20.3-4.3,30.4-2.8,16.5-6,33-9,49.4-.5,2.9-1.1,5.8-1.7,8.9a15,15,0,0,0,2.7.9c3.5.4,7,.9,10.6,1.1l11.9.5,12.4-64.5s2.1-9.7,2.8-13.8c2.6-14,5.7-44.8-17.8-44.3l-3.9,1.8C23.9,325.7,16.2,333.5,8.9,342Z"/>
        <path class="b" d="M147.1,440.5a9.2,9.2,0,0,0,6.4-2.5c8.5-7.5,16.8-15.2,24.7-23.4,11.9-12.3,23.1-25.3,32.2-39.8,5-7.9,9.4-16.1,11.9-25.1,1.7-6.4,2.7-13,1.3-19.6s-6-12.9-13.7-15.1l-.7-.2c-2.1,1.2-8.7,6.2-9.7,22.4-1.2,19.2,18.3,35.2-3.3,48a58.9,58.9,0,0,1-3.3,5c-8.9,12.4-19.4,23.5-30.5,34a6.8,6.8,0,0,1-1.3.7c0-1.1,0-1.8,0-2.6.1-10.7.4-21.3.4-32,0-14.3-.2-28.6-.4-42.9-.1-9.1-.5-18.1-.8-27.2a16.8,16.8,0,0,0-.3-2c-2.1-.2-4-.5-5.9-.5H131.4L133,440.5Z"/>
        <path class="b" d="M199.5,337.2c1-16.2,7.6-21.2,9.7-22.4a33.9,33.9,0,0,0-6.8-.9c-9.1-.3-16.5,3.1-22,10.4s-7.8,21.1,2.8,30.1l6.5,5.3,6.2,5.3c4.4,3.9,5,8.7,3.2,14.1a34.8,34.8,0,0,1-2.8,6.1C217.9,372.4,198.3,356.4,199.5,337.2Z"/>
        <path class="b" d="M55.7,362.9c-.8,4.1-2.8,13.8-2.8,13.8L40.5,441.1a194.3,194.3,0,0,0,19.6-.6,9.2,9.2,0,0,0,7.4-4.4c12.6-18.5,24.3-37.5,35.7-56.7l1.5-2.5V366.7c-10.1,18.7-20.9,36.9-32.7,54.7l-1.7,2.4h-.3l.7-2.7c5.1-19.4,9.8-38.9,12.7-58.7,1-6.9,1.8-13.8,1.2-20.7-.8-9-4.4-16.5-12.1-21.6-5.1-3.4-10.9-4.6-16.9-4.7a44,44,0,0,0-18.1,3.4C61.4,318.1,58.3,348.9,55.7,362.9Z"/>
        <path class="b" d="M104.6,438.9a27.2,27.2,0,0,0,3.4.7c5.1.4,10.3.8,15.4.9H133l-1.6-122.8h-.7a2.4,2.4,0,0,0-2.3,1.7,16.3,16.3,0,0,1-.7,1.6Q117,344.3,105,366.7v11.9C105.5,398.7,104.8,418.7,104.6,438.9Z"/>
        <path class="b" d="M198.9,91.9c0,.3,0,.7-.1,1a1.2,1.2,0,0,0,1,1.5,1.2,1.2,0,0,0,1.6-.8l.9-2.1c4.5-11,9-22.1,13.6-33.1S226.4,33.5,231.6,21c.4-.9.6-1.8,1.1-3.2h-2.9l-18.4.3L195.6,52A108.4,108.4,0,0,1,198.9,91.9Z"/>
        <path class="b" d="M180,22.5a23.1,23.1,0,0,1,4.3,4.2,47.8,47.8,0,0,1,4.5,7.4A106.7,106.7,0,0,1,195.6,52l15.8-33.9h-7.7l-26.6-.2-1.5,3.4A5.5,5.5,0,0,1,180,22.5Z"/>
        <path class="b" d="M62.9,48.3C70,41,77.4,34,85.8,28.2a36.3,36.3,0,0,1,11.8-5.6c2.1-.5,4.3-1.2,6.7-.5-.3,1-.5,1.8-.8,2.6l2.4-7H67.4l-17,44.1C54.5,57.1,58.7,52.7,62.9,48.3Z"/>
        <path class="b" d="M129.2,184.8c1.2-2.6.9-3.1-1.4-3.3H126l-11.5-1.1a5,5,0,0,1-.4-4.6c.7-2.6,1.5-5.2,2.5-7.7q10.8-27.3,21.6-54.5l32.4-80.8h0l2.3-5.7c.8-2,1.6-3.9,2.5-5.8h.2l1.5-3.4H141.9L75.7,184.6Z"/>
        <path class="b" d="M21.1,94.7,24,91.5c8.9-9.9,17.5-20,26.4-29.9l17-44.1H55.5l-4.1.2a3.8,3.8,0,0,0-3.7,2.8q-2.8,8-6,15.9l-23,57.2a8.5,8.5,0,0,0-.3.8C19.4,95.8,20.2,95.6,21.1,94.7Z"/>
        <path class="b" d="M92.2,54.8q-23.1,58-46.3,115.9c-.8,1.9-1.6,3.7-2.5,5.5s-3.1,4.2-6.1,4.3l-3.3.4-11,.7-.2,2.7,52.8.2L141.9,17.7H106l-2.4,7C99.8,34.7,96.2,44.8,92.2,54.8Z"/>
        <path class="b" d="M505.6,418.3l36.8-89.6c.7-1.7,1.6-3.4,2.2-5.1a3.1,3.1,0,0,0-2.8-4.5l-11.9-1-10.2-.5c-12,29.8-40.5,96.4-40.5,96.4s-11.4,31,16.7,26.5a35.8,35.8,0,0,0,18.4-12.8c5.7-7.3,10-15.5,13.9-23.8.3-.6.5-1.2.8-2.1l-3.3-1.4-1.5,2.7c-3.5,6.3-7,12.8-10.7,19a36.9,36.9,0,0,1-5.1,6.2,6.3,6.3,0,0,1-3,1.6c-1.8.4-2.9-.6-2.9-2.5a7.2,7.2,0,0,1,.4-2C503.9,423.1,504.6,420.7,505.6,418.3Z"/>
        <path class="b" d="M481.8,335.1c0,.1,0,.2,0,.3S481.8,335.3,481.8,335.1Z"/>
        <g>
          <path class="a" d="M226.1,688.2a129.6,129.6,0,0,0,6.7-11.3c7.7-14.7,14.4-29.9,20.9-45.1,5.2-12.3,10.2-24.7,13.9-37.5a64.4,64.4,0,0,0,2.9-14.6c0-.6,0-1.2,0-1.8a5,5,0,0,0-5.1-5.1,9.6,9.6,0,0,0-3.6.5l1.1-.2-1.1.2a7.8,7.8,0,0,0-2.3,1.3,30.4,30.4,0,0,0-4.2,4c-4.1,4.9-7.2,10.4-10.2,16-9.9,18.8-18.2,38.4-25.9,58.1-3.7,9.4-7.2,18.8-9.3,28.7a43.4,43.4,0,0,0-1.1,7.8,6.1,6.1,0,0,0,1.5,4.6,6.6,6.6,0,0,0,4.7,1.8h1.2a8.4,8.4,0,0,0,5.1-2A27.5,27.5,0,0,0,226.1,688.2Z"/>
          <path class="b" d="M190.2,649.9c5.4-31.8,34.9-70.5,71.6-76.8a9.6,9.6,0,0,1,3.6-.5,5,5,0,0,1,5.1,5.1c0,.6,0,1.2,0,1.8a64.4,64.4,0,0,1-2.9,14.6c-3.7,12.9-8.7,25.2-13.9,37.5-6.5,15.3-13.1,30.5-20.9,45.1a129.6,129.6,0,0,1-6.7,11.3,27.5,27.5,0,0,1-4.8,5.2,8.4,8.4,0,0,1-5.1,2c13.3,2.3,32.9-4.6,59.7-50.9,33-57-9.9-75.1-9.9-75.1a86.8,86.8,0,0,0-23.4,2.1c-25.7,5.9-47.3,18.8-64.1,39.3-8.8,10.6-14.1,22.6-14.3,36.6-.1,7,.9,13.9,4,20.2,8.6,17.3,22,27,39.5,30.2C207.1,697.6,184.8,682,190.2,649.9Z"/>
          <path class="b" d="M311.8,604.6c-5-18.4-21.9-34.2-45.9-35.3,0,0,42.8,18.2,9.9,75.1-26.8,46.4-46.5,53.3-59.7,50.9h-1.2a6.6,6.6,0,0,1-4.7-1.8h0a6.1,6.1,0,0,1-1.5-4.6,43.4,43.4,0,0,1,1.1-7.8c2.2-9.9,5.6-19.3,9.3-28.7,7.8-19.8,16-39.3,25.9-58.1,3-5.6,6.1-11.2,10.2-16a30.4,30.4,0,0,1,4.2-4,7.8,7.8,0,0,1,2.3-1.3c-36.7,6.3-66.2,45-71.6,76.8s16.9,47.6,17.5,47.8a74.9,74.9,0,0,0,10,1.2,96.7,96.7,0,0,0,18-2,108,108,0,0,0,51-25.1c9.5-8.4,17.2-18.2,22.2-30S315.3,617.4,311.8,604.6Z"/>
        </g>
        <path class="b" d="M460.7,151.4a58.8,58.8,0,0,0,7.9-17.7,30.2,30.2,0,0,0-9.4-.5,22.4,22.4,0,0,0-15.4,7.5c-7.3,8.3-7.4,21.1-.4,30a36.6,36.6,0,0,0,11.3,9.2C444.9,172.6,454.7,160.5,460.7,151.4Z"/>
        <path class="b" d="M462.7,110.6c1.7,5.9,5.2,10.6,9.6,14.7A80.2,80.2,0,0,0,487.4,136c4,2.3,8.2,4.4,12.2,6.9s7.8,5,11.5,7.8a14.4,14.4,0,0,1,5.9,9.5c1.2,7.6-1.3,13.8-7.5,18.5a26.3,26.3,0,0,1-13.4,5.1h0c44-.8,45.8-26.6,45.7-38.9s-33.1-27.2-38.5-30.6-24.6-12.5-15.2-30.9,35-23.1,36-23.3l-3.9.3A93,93,0,0,0,488,69c-8.4,4-15.7,9.3-21,17.1S460.2,101.8,462.7,110.6Z"/>
        <path class="b" d="M566.5,76.9c3.4-5.9-.7-8.5-3.9-9.5a3,3,0,0,1,.7,1.6l-4,1.2c-3.1,1-6.2,1.8-9.1,3a17.5,17.5,0,0,0-8.7,7.2,16.9,16.9,0,0,0,7.5,24.3,22.9,22.9,0,0,0,6.1,1.9C552.4,96.4,561.3,85.8,566.5,76.9Z"/>
        <path class="b" d="M488.1,83.3c-9.4,18.4,9.8,27.5,15.2,30.9s38.4,18.4,38.5,30.6-1.7,38-45.7,38.9h0l-2.3.2a96.1,96.1,0,0,1-13.9-.5,51,51,0,0,1-18.2-5.2,70,70,0,0,1-7.6-5,2.6,2.6,0,0,1-1.3-2.9l1.9-.3,7.9-.3a35.5,35.5,0,0,0,10.7-2.1,14.9,14.9,0,0,0,8.1-6.7,18.1,18.1,0,0,0-9.7-26.3l-3.1-.9a58.8,58.8,0,0,1-7.9,17.7c-6,9.1-15.7,21.2-6,28.4l3,1.5a68.8,68.8,0,0,0,23.7,6.2,106.4,106.4,0,0,0,25.6-.8,103.5,103.5,0,0,0,31-9.9,55.1,55.1,0,0,0,19.6-15.4c10-12.8,11.1-32.9-4.6-46a116.9,116.9,0,0,0-18-11.9c-6-3.4-12-6.9-17.9-10.6a21.3,21.3,0,0,1-5.4-5.2,12.6,12.6,0,0,1,1-16.3,24,24,0,0,1,4.9-3.9c4.4-2.6,9.2-3.7,14.2-4.1a81,81,0,0,1,19.2.6,82.7,82.7,0,0,1,9.8,2.4,3.4,3.4,0,0,1,1.7.9c3.2,1.1,7.3,3.6,3.9,9.5-5.2,8.9-14.1,19.5-11.4,29.6a22.8,22.8,0,0,0,23.7-11c3.8-6.5,4.3-16.8-1.6-23.6a29.2,29.2,0,0,0-11.2-7.7c-8-3.3-16.5-4.3-25-4.6A145,145,0,0,0,524,60C523.1,60.2,497.3,65.2,488.1,83.3Z"/>
        <path class="b" d="M967.6,414.1h0Z"/>
        <path class="b" d="M950.3,414.9c-8.5-38.5,29.9-73.8,44.9-84.1a68.8,68.8,0,0,1,27.6-11h.5a4.7,4.7,0,0,1,1.8-.2h0c1.4.2,2.1,1.3,2.1,3.3a41.4,41.4,0,0,1-1.2,8.8,138.5,138.5,0,0,1-14.8,35.7,46.6,46.6,0,0,1-6.1,7.8,14.8,14.8,0,0,1-8.4,4.4c22.6,2.6,46.6-16.6,50.2-40.1,4-26.2-29.9-23.1-30.8-22.9l-4.2,1a175.3,175.3,0,0,0-46,19.1,106.4,106.4,0,0,0-27.1,22c-7.2,8.3-12.8,17.5-15.1,28.4-2.8,13.1-.3,24.9,8.7,35a59.5,59.5,0,0,0,17.2,13.3,71.9,71.9,0,0,0,26.9,7.6,78.5,78.5,0,0,0,16.4-.1C974.8,441.3,954.8,435.1,950.3,414.9Z"/>
        <path class="b" d="M1071.8,337.1c-1.5-7.9-6.8-13.1-13.6-16.8s-14.9-5.2-22.9-5.6a78,78,0,0,0-19.2,1.7c.9-.2,34.8-3.3,30.8,22.9-3.6,23.5-27.6,42.7-50.2,40.1l-2,.3a37.9,37.9,0,0,1-10.7-.3c1.6-3.7,3-7.3,4.5-10.7,5.2-11.7,10.8-23.2,18.2-33.7,3.4-4.8,6.9-9.4,11.7-13a14.8,14.8,0,0,1,4.4-2.3,68.8,68.8,0,0,0-27.6,11c-15,10.3-53.4,45.6-44.9,84.1,4.5,20.2,24.5,26.4,42.6,27.7a70.5,70.5,0,0,0,16.6-3.9c18-6.7,32.1-18.4,43.2-34a10.8,10.8,0,0,0,.7-1.4l-2.9-1.9-.8.5-2.2,2.8c-7.1,8.9-15,16.8-24.8,22.6s-18.4,7.9-28.8,6.3c-8.7-1.4-14.7-6.6-16.7-14.9a31.3,31.3,0,0,1-.7-6c-.3-9.8,2.9-18.8,5.8-27.9h2.2a170.6,170.6,0,0,0,32.4-1.9,110.1,110.1,0,0,0,30.1-8.7,56.2,56.2,0,0,0,18.4-13.3A26.4,26.4,0,0,0,1071.8,337.1ZM967,413v-3.2q0,.5,0,1.1T967,413Zm0,0h0l.6,1.1h0v0h0Z"/>
        <path class="b" d="M570.7,396.4,624.9,279l-11.5-.4c-4.9-.1-9.8-.1-14.7-.1a4.4,4.4,0,0,0-4.5,3.1c-4.7,11.3-9.7,22.5-14.4,33.8-.8,2-1.9,2.8-4,2.6s-3,0-4.6,0h-8.5l-.4,3.7h14.4l-.7,2-22.7,51a144,144,0,0,0-8.9,24.8c-1.6,6.7-2.3,13.4-.7,20.1,2.5,10.8,9,18.2,19.7,21.6a45.4,45.4,0,0,0,24.8.5l2.9-.8C548.5,438.4,570.7,396.4,570.7,396.4Zm41.1-113.6h0l-.9,1.3ZM608,282h0Z"/>
        <path class="b" d="M650.2,280.5l-1.5-.5-7.1-.4-16.7-.6L570.7,396.4s-22.2,42,20.1,44.5c8.4-2.7,15.2-7.9,20.8-14.9s10-14.9,13.8-23l2.4-5.3c-1.2-.9-2.2-1.7-3.7-1.2l-1.4,2.9c-3,5.6-6,11.2-9.1,16.7a35.2,35.2,0,0,1-7.3,9.1,13.7,13.7,0,0,1-5.7,3.2c-4.7,1.2-8.1-1.2-8.4-6,0-.3,0-.7,0-1-.2-5.6,1.4-10.7,3.6-15.7l30.6-70.2c2-4.5,4.1-8.9,6.3-13.4h24.1l.5-3.4-22.7-.7ZM569.4,419.4h0c.8,2.1,1.6,4.2,2.6,6.2C571,423.6,570.2,421.4,569.4,419.4Z"/>
        <path class="b" d="M374.5,185.2a53.7,53.7,0,0,0,15.2,2.3l4.9-.2c-21.9.7-12.1-28-12.1-28s28.3-66.1,40.3-96.1H387.6l-9.4.3c-2.1.1-2.1.2-2,2.6l8.6.4c2.9.1,5.9.1,9,1.3-.6,1.6-1.1,3-1.7,4.4-10.3,23.5-20.3,47.2-29.2,71.3a68.9,68.9,0,0,0-4.2,15.9C357.2,170.9,363.3,181.7,374.5,185.2Z"/>
        <path class="b" d="M394.6,187.2c9.8-1,18-5.7,24.7-13.5s11-17,14.5-26.6a1.9,1.9,0,0,0,0-.7c-3.2-1.6-3.3-1.5-4.7,1.5-2.6,5.5-5.2,11-8.2,16.3a40.7,40.7,0,0,1-6.1,7.7,10.9,10.9,0,0,1-4.5,2.6c-2.6.8-4.6-.8-4.1-3.4a31.8,31.8,0,0,1,1.8-6.3l40.3-94.5a15.1,15.1,0,0,0,1-3.1c.2-1.2.6-2.5-.2-3.8-3.4-.1-6.7-.4-10.1-.4H422.8c-12,29.9-40.3,96.1-40.3,96.1S372.8,188,394.6,187.2Z"/>
        <path class="b" d="M368.2,640.5a28.8,28.8,0,0,0-28-1c-12.7,6.2-19.2,16.9-19.7,31.5a48.7,48.7,0,0,0,.5,5.2,27.7,27.7,0,0,0,18.3,20.7C349.6,659.8,365.7,643,368.2,640.5Z"/>
        <path class="b" d="M368.2,640.5c-2.5,2.4-18.6,19.2-28.9,56.3a27.1,27.1,0,0,0,16,.5c12.3-3.4,20.5-11.5,24.7-23.4a27,27,0,0,0-1.1-21.5A28.9,28.9,0,0,0,368.2,640.5Z"/>
        <path class="b" d="M414.2,47.6a24.2,24.2,0,0,0,13.3,4.8c.5-2.1,10.2-40.1,23.7-51.5a25.2,25.2,0,0,0-5.6-.9C433-.5,422.4,4.2,414,13.8a27.3,27.3,0,0,0-6.9,20.4A17.6,17.6,0,0,0,414.2,47.6Z"/>
        <path class="b" d="M427.6,52.4h3.1l7.3-.7c15-2,26-13,27.8-28a20.6,20.6,0,0,0-4.4-16.2A19.6,19.6,0,0,0,451.3.9C437.8,12.3,428.1,50.3,427.6,52.4Z"/>
      </g>
      <g>
        <path class="b" d="M453.8,404.7a80.5,80.5,0,0,1-12,15.7,20.8,20.8,0,0,1-4,3.1c-3.8,2.2-7.4.3-7.8-4.1-.1-.6,0-1.2,0-1.8h-.3c.8-3.1,1.4-6.3,2.4-9.3a315.6,315.6,0,0,1,27.5-62,107.3,107.3,0,0,1,7.6-10.8,26.3,26.3,0,0,1,4.2-4A7.3,7.3,0,0,1,474,330c4.2-1.1,7,.5,7.6,3.7-.5-3.7-3.2-11.6-16.5-8.6-17.1,3.8-65.6,48-60.3,97.2.7,11.2,10,17,20.9,16.1a49.8,49.8,0,0,0,6.8-4.2c7.8-5.7,14.1-12.9,19.8-20.6l1.7-2.1a94.9,94.9,0,0,1,3.2-12.9C456.2,400.6,455,402.7,453.8,404.7Z"/>
        <path class="b" d="M479.3,414s28.5-66.6,40.5-96.4h-2.7l-22.6-.8a3,3,0,0,0-3.2,2.2c-1.4,3.6-2.9,7.2-4.4,10.8a15.3,15.3,0,0,1-.8,1.5c-1.7-2.6-3.1-5.3-5.1-7.6-5-5.7-11.5-8.1-18.9-8.3a48.8,48.8,0,0,0-20,4.1,91.9,91.9,0,0,0-25.9,16.8c-13.1,11.7-23.9,25.1-31,41.3-4.2,9.6-6.8,19.7-6.4,30.3.3,7.5,1.8,14.6,5.8,21.1,5.5,9,13.5,13.8,24.1,13.8a37.1,37.1,0,0,0,17.2-4.2c-10.9.9-20.2-4.9-20.9-16.1-5.3-49.2,43.2-93.3,60.3-97.2,13.3-3,15.9,4.9,16.5,8.6a7.4,7.4,0,0,1,.1,1.5c0,.2,0,.3,0,.3a40.4,40.4,0,0,1-1.8,9.7c-3.7,12.3-8.8,24.1-14.1,35.8-2.7,5.9-5.4,11.9-8.5,17.6a94.9,94.9,0,0,0-3.2,12.9h0a5.2,5.2,0,0,1,.1,2.3,25.7,25.7,0,0,0,.3,10.1c1.8,7.4,7.1,13.3,15,16.3,5.3,2,10.7,2.3,16.2,2a42.4,42.4,0,0,0,10.2-1.7C468,445,479.3,414,479.3,414Z"/>
      </g>
      <g>
        <path class="b" d="M78.7,653.4v-.2A81.9,81.9,0,0,1,66.5,673a68.9,68.9,0,0,1-6.3,6.2,8,8,0,0,1-2.7,1.4c-2.7.9-4.7-.1-5.4-2.8a26.9,26.9,0,0,1-.5-3.8c.4-5.8,2.1-11.3,3.8-16.8a316.4,316.4,0,0,1,22.4-53.5c3-5.6,6.5-10.9,11.1-15.4a18.4,18.4,0,0,1,4.1-2.9c2.6-1.3,4.7-.7,6,1.8l.2.4c-.5-3.1-1.3-5.8-2.7-7.1-4.4-4.5-24.2-4-46.7,25.8s-25.6,51.2-23.2,73.3c1.2,10.6,10.3,14.2,19.5,15.1l3.3-1.7c8.7-4.9,15.7-11.7,21.8-19.5l1.6-1.9S71.8,669.2,78.7,653.4Z"/>
        <path class="b" d="M99.2,669.6s46.6-109,66.6-157.3H118.3l-.7,2.4,2.4.5h3.6l8.9.5c2.1.2,2.5.8,2,2.8a36.7,36.7,0,0,1-1.5,4.3l-6.7,16.7-20.3,50.7c-.3.7-.7,1.4-1.2,2.5-.8-2.8-1.2-5.2-2-7.4-2.7-7.7-7.6-13.1-15.8-15.1-5.1-1.3-10.3-.6-15.3.6-9.4,2.2-17.7,6.6-25.5,12.1A113.6,113.6,0,0,0,8.7,627.5C2.8,639.8-.6,652.6.1,666.3c.3,6.6,1.5,12.9,5,18.7,5.4,8.9,13.3,13.6,23.7,13.6a40.4,40.4,0,0,0,17.3-4c-9.2-.9-18.3-4.5-19.5-15.1-2.4-22.1.6-43.5,23.2-73.3S92.1,576,96.5,580.5c1.3,1.3,2.1,4,2.7,7.1a24.7,24.7,0,0,1,1.8,5.9,17.9,17.9,0,0,1-1.1,10.9c-7,15.9-13.7,31.9-20.6,47.7l-.5,1.2v.2c-6.8,15.7-5.9,18.1-5.9,18.1,0,1.5,0,2.4,0,3.3a18.5,18.5,0,0,0,6.4,14.4,29.9,29.9,0,0,0,10.2,6c5.8,2.1,11.9,2.4,18,2.1a45,45,0,0,0,8.2-1.1C87.9,700.4,99.2,669.6,99.2,669.6Z"/>
        <path class="b" d="M190.5,512.4H165.8c-20.1,48.2-66.6,157.3-66.6,157.3s-11.3,30.8,16.5,26.5a35.7,35.7,0,0,0,21.2-14.3,128.2,128.2,0,0,0,13.5-24.4c.1-.1-.1-.3-.1-.6l-1.2-.7-1.9-.5-1.2,2.2c-2.5,4.8-4.9,9.7-7.6,14.3a87.6,87.6,0,0,1-6.5,9,13.9,13.9,0,0,1-3.1,2.6,3.3,3.3,0,0,1-3.6.4c-1.3-.7-1.2-2.2-1-3.4a18.2,18.2,0,0,1,.7-3c1.1-3.2,2.1-6.4,3.5-9.5l26.8-62.8,34.5-81.3,4.6-10.6C193.3,512.1,191.8,512.4,190.5,512.4Z"/>
      </g>
      <path class="b" d="M741.5,151.9a58.8,58.8,0,0,0,7.9-17.7,30.2,30.2,0,0,0-9.4-.5,22.4,22.4,0,0,0-15.4,7.5c-7.3,8.3-7.4,21.1-.4,30a36.6,36.6,0,0,0,11.3,9.2C725.7,173.1,735.5,161,741.5,151.9Z"/>
      <path class="b" d="M743.5,111c1.7,5.9,5.2,10.6,9.6,14.7a80.2,80.2,0,0,0,15.1,10.7c4,2.3,8.2,4.4,12.2,6.9s7.8,5,11.5,7.8a14.4,14.4,0,0,1,5.9,9.5c1.2,7.6-1.3,13.8-7.5,18.5a26.3,26.3,0,0,1-13.4,5.1h0c44-.8,45.8-26.6,45.7-38.9s-33.1-27.2-38.5-30.6-24.6-12.5-15.2-30.9,35-23.1,36-23.3l-3.9.3a93,93,0,0,0-32.1,8.7c-8.4,4-15.7,9.3-21,17.1S741,102.2,743.5,111Z"/>
      <path class="b" d="M847.3,77.4c3.4-5.9-.7-8.5-3.9-9.5a3,3,0,0,1,.7,1.6l-4,1.2c-3.1,1-6.2,1.8-9.1,3a17.5,17.5,0,0,0-8.7,7.2,16.9,16.9,0,0,0,7.5,24.3,22.9,22.9,0,0,0,6.1,1.9C833.2,96.8,842.1,86.3,847.3,77.4Z"/>
      <path class="b" d="M768.9,83.8c-9.4,18.4,9.8,27.5,15.2,30.9s38.4,18.4,38.5,30.6-1.7,38-45.7,38.9h0l-2.3.2a96.1,96.1,0,0,1-13.9-.5,51,51,0,0,1-18.2-5.2,70,70,0,0,1-7.6-5,2.6,2.6,0,0,1-1.3-2.9l1.9-.3,7.9-.3a35.5,35.5,0,0,0,10.7-2.1,14.9,14.9,0,0,0,8.1-6.7,18.1,18.1,0,0,0-9.7-26.3l-3.1-.9a58.8,58.8,0,0,1-7.9,17.7c-6,9.1-15.7,21.2-6,28.4l3,1.5a68.8,68.8,0,0,0,23.7,6.2,106.4,106.4,0,0,0,25.6-.8,103.5,103.5,0,0,0,31-9.9,55.1,55.1,0,0,0,19.6-15.4c10-12.8,11.1-32.9-4.6-46a116.9,116.9,0,0,0-18-11.9c-6-3.4-12-6.9-17.9-10.6a21.3,21.3,0,0,1-5.4-5.2,12.6,12.6,0,0,1,1-16.3,24,24,0,0,1,4.9-3.9c4.4-2.6,9.2-3.7,14.2-4.1a81,81,0,0,1,19.2.6,82.7,82.7,0,0,1,9.8,2.4,3.4,3.4,0,0,1,1.7.9c3.2,1.1,7.3,3.6,3.9,9.5-5.2,8.9-14.1,19.5-11.4,29.6a22.8,22.8,0,0,0,23.7-11c3.8-6.5,4.3-16.8-1.6-23.6a29.2,29.2,0,0,0-11.2-7.7c-8-3.3-16.5-4.3-25-4.6a145,145,0,0,0-16.9.5C803.9,60.7,778.1,65.7,768.9,83.8Z"/>
      <path class="b" d="M655.3,185.6a53.7,53.7,0,0,0,15.2,2.3l4.9-.2c-21.9.7-12.1-28-12.1-28s28.3-66.1,40.3-96.1H668.4l-9.4.3c-2.1.1-2.1.2-2,2.6l8.6.4c2.9.1,5.9.1,9,1.3-.6,1.6-1.1,3-1.7,4.4-10.3,23.5-20.3,47.2-29.2,71.3a68.9,68.9,0,0,0-4.2,15.9C638,171.4,644.1,182.2,655.3,185.6Z"/>
      <path class="b" d="M675.4,187.7c9.8-1,18-5.7,24.7-13.5s11-17,14.5-26.6a1.9,1.9,0,0,0,0-.7c-3.2-1.6-3.3-1.5-4.7,1.5-2.6,5.5-5.2,11-8.2,16.3a40.7,40.7,0,0,1-6.1,7.7,10.9,10.9,0,0,1-4.5,2.6c-2.6.8-4.6-.8-4.1-3.4a31.8,31.8,0,0,1,1.8-6.3L729,70.9a15.1,15.1,0,0,0,1-3.1c.2-1.2.6-2.5-.2-3.8-3.4-.1-6.7-.4-10.1-.4H703.6c-12,29.9-40.3,96.1-40.3,96.1S653.6,188.4,675.4,187.7Z"/>
      <path class="b" d="M695.1,48a24.2,24.2,0,0,0,13.3,4.8c.5-2.1,10.2-40.1,23.7-51.5a25.2,25.2,0,0,0-5.6-.9c-12.7-.6-23.3,4.2-31.7,13.7a27.3,27.3,0,0,0-6.9,20.4A17.6,17.6,0,0,0,695.1,48Z"/>
      <path class="b" d="M708.4,52.8h3.1l7.3-.7c15-2,26-13,27.8-28A20.6,20.6,0,0,0,742.3,8a19.6,19.6,0,0,0-10.2-6.6C718.6,12.8,708.9,50.7,708.4,52.8Z"/>
      <path class="b" d="M710.1,341.4c-1.2,1.4-1.1,1.8,1.2,2.9l1.8-1.7c2.8-2.6,5.6-5.2,8.5-7.6a15.7,15.7,0,0,1,4.4-2.5c3.3-1.3,5.3-.1,5.9,3.3a11.5,11.5,0,0,1,.3,2.8c-.2,3.6-.2,7.3-.7,10.9-1.3,10.1-2.6,20.3-4.3,30.4-2.8,16.5-6,33-9,49.4-.5,2.9-1.1,5.8-1.7,8.9a15,15,0,0,0,2.7.9c3.5.4,7,.9,10.6,1.1l11.9.5,12.4-64.5s2.1-9.7,2.8-13.8c2.6-14,5.7-44.8-17.8-44.3l-3.9,1.8C725.2,325.1,717.4,333,710.1,341.4Z"/>
      <path class="b" d="M848.3,439.9a9.2,9.2,0,0,0,6.4-2.5c8.5-7.5,16.8-15.2,24.7-23.4,11.9-12.3,23.1-25.3,32.2-39.8,5-7.9,9.4-16.1,11.9-25.1,1.7-6.4,2.7-13,1.3-19.6s-6-12.9-13.7-15.1l-.7-.2c-2.1,1.2-8.7,6.2-9.7,22.4-1.2,19.2,18.3,35.2-3.3,48a58.9,58.9,0,0,1-3.3,5c-8.9,12.4-19.4,23.5-30.5,34a6.8,6.8,0,0,1-1.3.7c0-1.1,0-1.8,0-2.6.1-10.7.4-21.3.4-32,0-14.3-.2-28.6-.4-42.9-.1-9.1-.5-18.1-.8-27.2a16.8,16.8,0,0,0-.3-2c-2.1-.2-4-.5-5.9-.5H832.7L834.3,440Z"/>
      <path class="b" d="M900.8,336.7c1-16.2,7.6-21.2,9.7-22.4a33.9,33.9,0,0,0-6.8-.9c-9.1-.3-16.5,3.1-22,10.4s-7.8,21.1,2.8,30.1l6.5,5.3,6.2,5.3c4.4,3.9,5,8.7,3.2,14.1a34.8,34.8,0,0,1-2.8,6.1C919.1,371.9,899.6,355.9,900.8,336.7Z"/>
      <path class="b" d="M757,362.4c-.8,4.1-2.8,13.8-2.8,13.8l-12.4,64.5a194.3,194.3,0,0,0,19.6-.6,9.2,9.2,0,0,0,7.4-4.4c12.6-18.5,24.3-37.5,35.7-56.7l1.5-2.5V366.2c-10.1,18.7-20.9,36.9-32.7,54.7l-1.7,2.4h-.3l.7-2.7c5.1-19.4,9.8-38.9,12.7-58.7,1-6.9,1.8-13.8,1.2-20.7-.8-9-4.4-16.5-12.1-21.6-5.1-3.4-10.9-4.6-16.9-4.7a44,44,0,0,0-18.1,3.4C762.7,317.5,759.6,348.4,757,362.4Z"/>
      <path class="b" d="M805.9,438.3a27.2,27.2,0,0,0,3.4.7c5.1.4,10.3.8,15.4.9h9.6l-1.6-122.8H832a2.4,2.4,0,0,0-2.3,1.7,16.3,16.3,0,0,1-.7,1.6q-10.6,23.2-22.7,45.7V378C806.8,398.2,806,418.2,805.9,438.3Z"/>
      <path class="b" d="M297.2,80.5l-.7.4Z"/>
      <path class="b" d="M313.7,185.2c-28.1,4.6-16.8-26.5-16.8-26.5s17.6-42.1,28.9-70.6c0,0,10.3-28.5-28.6-7.6l1.8-.6c1.8-.4,2.8.4,2.6,2.3a13.2,13.2,0,0,1-.9,3.4c-1.8,4.4-3.6,8.8-5.5,13.1-5.7,13-11.5,26-17.1,39-3,7.1-5.7,14.3-6.7,22s.2,13.5,5.3,18.9a26.2,26.2,0,0,0,12.4,7.1,46.1,46.1,0,0,0,15.1,1.1A43.9,43.9,0,0,0,313.7,185.2Z"/>
      <path class="b" d="M273.2,2.5,244.7,2c-2,0-2.2.2-2.4,2.7l17.8,1.2c.7,2.3-.2,4-.8,5.7q-3.7,9.2-7.7,18.2l-36.2,83.6q-14.8,34.1-29.7,68.1c-.3.6-.5,1.3-.7,2.2,1.6.2,3,.4,4.3.4l22.6.2L290.7,2.7Z"/>
      <path class="b" d="M325.8,88.1c-11.3,28.4-28.9,70.6-28.9,70.6s-11.4,31.1,16.8,26.5a36.4,36.4,0,0,0,18.6-12.4c6.2-7.7,10.8-16.4,14.9-25.3.1-.2,0-.5,0-1.1l-3.2-1-1.3,2.5c-2.2,4.1-4.1,8.3-6.6,12.3a135.3,135.3,0,0,1-7.9,11.2,10.7,10.7,0,0,1-3.5,2.8c-2.1,1.1-3.6,0-3.3-2.3a19.1,19.1,0,0,1,1.2-4.6c2.6-6.6,5.3-13.2,8.1-19.7,5.8-13.5,11.7-27,17.5-40.5,3.2-7.6,5.9-15.5,6.6-23.9.9-10.8-5.2-19.9-15.7-22.8-5.9-1.7-11.9-1.4-17.8-.2-10.2,2-18.6,7.3-26,14.5a108.7,108.7,0,0,0-12.9,15.6,4.3,4.3,0,0,1-2,2l.8-2,25.3-56.8L318.6,5.9c.9-2.1.4-2.8-1.8-2.9h-1l-25.2-.3L212,184.4l25.4.3a4.1,4.1,0,0,0,4.4-2.9q9.7-23,19.7-45.9c4.6-10.5,9.3-20.9,14.6-31,4.3-8.2,10.4-15,17-21.4a21.1,21.1,0,0,1,3.4-2.6l.7-.4C336.1,59.5,325.8,88.1,325.8,88.1Z"/>
    </g>
    <g>
      <path class="a" d="M226.1,688.2a129.6,129.6,0,0,0,6.7-11.3c7.7-14.7,14.4-29.9,20.9-45.1,5.2-12.3,10.2-24.7,13.9-37.5a64.4,64.4,0,0,0,2.9-14.6c0-.6,0-1.2,0-1.8a5,5,0,0,0-5.1-5.1,8.6,8.6,0,0,0-6,1.8,30.4,30.4,0,0,0-4.2,4c-4.1,4.9-7.2,10.4-10.2,16-9.9,18.8-18.2,38.4-25.9,58.1-3.7,9.4-7.2,18.8-9.3,28.7a43.4,43.4,0,0,0-1.1,7.8,6.1,6.1,0,0,0,1.5,4.6,29.4,29.4,0,0,0,6,1.7,8.4,8.4,0,0,0,5.1-2A27.5,27.5,0,0,0,226.1,688.2Z"/>
      <path class="a" d="M214.9,695.4h1.2a29.4,29.4,0,0,1-6-1.7A6.6,6.6,0,0,0,214.9,695.4Z"/>
      <path class="a" d="M481.7,333.7a12.4,12.4,0,0,1,.1,1.5A7.4,7.4,0,0,0,481.7,333.7Z"/>
      <path class="a" d="M317.9,335.8l-.7.4Z"/>
      <path class="a" d="M1023.3,319.6h-.5l2.3-.3A4.7,4.7,0,0,0,1023.3,319.6Z"/>
      <path class="a" d="M474,330a7.3,7.3,0,0,0-2.7,1.4,26.3,26.3,0,0,0-4.2,4,107.3,107.3,0,0,0-7.6,10.8,315.6,315.6,0,0,0-27.5,62c-1,3-1.6,6.2-2.4,9.3h.3c0,.6-.1,1.2,0,1.8.4,4.4,4.1,6.3,7.8,4.1a20.8,20.8,0,0,0,4-3.1,80.5,80.5,0,0,0,12-15.7,213.9,213.9,0,0,0,12.1-23.7c5.3-11.7,10.4-23.5,14.1-35.8a40.4,40.4,0,0,0,1.8-9.7c0-.1,0-.2,0-.3a12.4,12.4,0,0,0-.1-1.5C481,330.5,478.2,328.9,474,330Z"/>
      <path class="a" d="M611.7,282.8l-.9,1.3.9-1.3Z"/>
      <path class="a" d="M569.4,419.4c.8,2.1,1.6,4.2,2.6,6.2-1-2-1.7-4.1-2.6-6.2Z"/>
      <path class="a" d="M967.6,414.1v0Z"/>
      <path class="a" d="M172.9,27.1l-2.3,5.7,4.9-11.5h-.2C174.6,23.3,173.7,25.2,172.9,27.1Z"/>
      <path class="a" d="M1005.1,375.1a46.6,46.6,0,0,0,6.1-7.8,138.5,138.5,0,0,0,14.8-35.7,41.4,41.4,0,0,0,1.2-8.8c.1-2-.6-3.1-2.1-3.3l-2.3.3a14.8,14.8,0,0,0-4.4,2.3c-4.7,3.5-8.3,8.2-11.7,13-7.4,10.5-13,22-18.2,33.7-1.5,3.5-2.9,7-4.5,10.7a37.9,37.9,0,0,0,10.7.3l2-.3-2.8-.4,2.8.4A14.8,14.8,0,0,0,1005.1,375.1Z"/>
      <path class="a" d="M967,413l.6,1.1L967,413Z"/>
      <path class="a" d="M967,413q0-1.1,0-2.1t0-1.1Z"/>
      <path class="c" d="M334.4,440.5C306.3,445,317.7,414,317.7,414s17.6-42.1,28.9-70.6c0,0,10.3-28.5-28.6-7.6l1.8-.6c1.8-.4,2.8.4,2.6,2.3a13.2,13.2,0,0,1-.9,3.4c-1.8,4.4-3.6,8.8-5.5,13.1-5.7,13-11.5,26-17.1,39-3,7.1-5.7,14.3-6.7,22s.2,13.5,5.3,18.9a26.2,26.2,0,0,0,12.4,7.1,46.1,46.1,0,0,0,15.1,1.1A43.9,43.9,0,0,0,334.4,440.5Z"/>
      <path class="c" d="M293.9,257.8l-28.4-.5c-2,0-2.2.2-2.4,2.7l17.8,1.2c.7,2.3-.2,4-.8,5.7q-3.7,9.2-7.7,18.2l-36.2,83.6q-14.8,34.1-29.7,68.1c-.3.6-.5,1.3-.7,2.2,1.6.2,3,.4,4.3.4l22.6.2L311.4,258Z"/>
      <path class="b" d="M346.5,343.4c-11.3,28.4-28.9,70.6-28.9,70.6s-11.4,31.1,16.8,26.5A36.4,36.4,0,0,0,353,428c6.2-7.7,10.8-16.4,14.9-25.3.1-.2,0-.5,0-1.1l-3.2-1-1.3,2.5c-2.2,4.1-4.1,8.3-6.6,12.3a135.3,135.3,0,0,1-7.9,11.2,10.7,10.7,0,0,1-3.5,2.8c-2.1,1.1-3.6,0-3.3-2.3a19.1,19.1,0,0,1,1.2-4.6c2.6-6.6,5.3-13.2,8.1-19.7,5.8-13.5,11.7-27,17.5-40.5,3.2-7.6,5.9-15.5,6.6-23.9.9-10.8-5.2-19.9-15.7-22.8-5.9-1.7-11.9-1.4-17.8-.2-10.2,2-18.6,7.3-26,14.5A108.7,108.7,0,0,0,303,345.5a4.3,4.3,0,0,1-2,2l.8-2,25.3-56.8,12.2-27.6c.9-2.1.4-2.8-1.8-2.9h-1l-25.2-.3L232.7,439.7l25.4.3a4.1,4.1,0,0,0,4.4-2.9q9.7-23,19.7-45.9c4.6-10.5,9.3-20.9,14.6-31,4.3-8.2,10.4-15,17-21.4a21.1,21.1,0,0,1,3.4-2.6l.7-.4C356.8,314.9,346.5,343.4,346.5,343.4Z"/>
      <path class="c" d="M8.9,342c-1.2,1.4-1.1,1.8,1.2,2.9l1.8-1.7c2.8-2.6,5.6-5.2,8.5-7.6a15.7,15.7,0,0,1,4.4-2.5c3.3-1.3,5.3-.1,5.9,3.3a11.5,11.5,0,0,1,.3,2.8c-.2,3.6-.2,7.3-.7,10.9-1.3,10.1-2.6,20.3-4.3,30.4-2.8,16.5-6,33-9,49.4-.5,2.9-1.1,5.8-1.7,8.9a15,15,0,0,0,2.7.9c3.5.4,7,.9,10.6,1.1l11.9.5,12.4-64.5s2.1-9.7,2.8-13.8c2.6-14,5.7-44.8-17.8-44.3l-3.9,1.8C23.9,325.7,16.2,333.5,8.9,342Z"/>
      <path class="b" d="M147.1,440.5a9.2,9.2,0,0,0,6.4-2.5c8.5-7.5,16.8-15.2,24.7-23.4,11.9-12.3,23.1-25.3,32.2-39.8,5-7.9,9.4-16.1,11.9-25.1,1.7-6.4,2.7-13,1.3-19.6s-6-12.9-13.7-15.1l-.7-.2c-2.1,1.2-8.7,6.2-9.7,22.4-1.2,19.2,18.3,35.2-3.3,48a58.9,58.9,0,0,1-3.3,5c-8.9,12.4-19.4,23.5-30.5,34a6.8,6.8,0,0,1-1.3.7c0-1.1,0-1.8,0-2.6.1-10.7.4-21.3.4-32,0-14.3-.2-28.6-.4-42.9-.1-9.1-.5-18.1-.8-27.2a16.8,16.8,0,0,0-.3-2c-2.1-.2-4-.5-5.9-.5H131.4L133,440.5Z"/>
      <path class="c" d="M199.5,337.2c1-16.2,7.6-21.2,9.7-22.4a33.9,33.9,0,0,0-6.8-.9c-9.1-.3-16.5,3.1-22,10.4s-7.8,21.1,2.8,30.1l6.5,5.3,6.2,5.3c4.4,3.9,5,8.7,3.2,14.1a34.8,34.8,0,0,1-2.8,6.1C217.9,372.4,198.3,356.4,199.5,337.2Z"/>
      <path class="b" d="M55.7,362.9c-.8,4.1-2.8,13.8-2.8,13.8L40.5,441.1a194.3,194.3,0,0,0,19.6-.6,9.2,9.2,0,0,0,7.4-4.4c12.6-18.5,24.3-37.5,35.7-56.7l1.5-2.5V366.7c-10.1,18.7-20.9,36.9-32.7,54.7l-1.7,2.4h-.3l.7-2.7c5.1-19.4,9.8-38.9,12.7-58.7,1-6.9,1.8-13.8,1.2-20.7-.8-9-4.4-16.5-12.1-21.6-5.1-3.4-10.9-4.6-16.9-4.7a44,44,0,0,0-18.1,3.4C61.4,318.1,58.3,348.9,55.7,362.9Z"/>
      <path class="c" d="M104.6,438.9a27.2,27.2,0,0,0,3.4.7c5.1.4,10.3.8,15.4.9H133l-1.6-122.8h-.7a2.4,2.4,0,0,0-2.3,1.7,16.3,16.3,0,0,1-.7,1.6Q117,344.3,105,366.7v11.9C105.5,398.7,104.8,418.7,104.6,438.9Z"/>
      <path class="b" d="M198.9,91.9c0,.3,0,.7-.1,1a1.2,1.2,0,0,0,1,1.5,1.2,1.2,0,0,0,1.6-.8l.9-2.1c4.5-11,9-22.1,13.6-33.1S226.4,33.5,231.6,21c.4-.9.6-1.8,1.1-3.2h-2.9l-18.4.3L195.6,52A108.4,108.4,0,0,1,198.9,91.9Z"/>
      <path class="b" d="M180,22.5a23.1,23.1,0,0,1,4.3,4.2,47.8,47.8,0,0,1,4.5,7.4A106.7,106.7,0,0,1,195.6,52l15.8-33.9h-7.7l-26.6-.2-1.5,3.4A5.5,5.5,0,0,1,180,22.5Z"/>
      <path class="b" d="M62.9,48.3C70,41,77.4,34,85.8,28.2a36.3,36.3,0,0,1,11.8-5.6c2.1-.5,4.3-1.2,6.7-.5-.3,1-.5,1.8-.8,2.6l2.4-7H67.4l-17,44.1C54.5,57.1,58.7,52.7,62.9,48.3Z"/>
      <path class="b" d="M129.2,184.8c1.2-2.6.9-3.1-1.4-3.3H126l-11.5-1.1a5,5,0,0,1-.4-4.6c.7-2.6,1.5-5.2,2.5-7.7q10.8-27.3,21.6-54.5l32.4-80.8h0l2.3-5.7c.8-2,1.6-3.9,2.5-5.8h.2l1.5-3.4H141.9L75.7,184.6Z"/>
      <path class="c" d="M21.1,94.7,24,91.5c8.9-9.9,17.5-20,26.4-29.9l17-44.1H55.5l-4.1.2a3.8,3.8,0,0,0-3.7,2.8q-2.8,8-6,15.9l-23,57.2a8.5,8.5,0,0,0-.3.8C19.4,95.8,20.2,95.6,21.1,94.7Z"/>
      <path class="c" d="M92.2,54.8q-23.1,58-46.3,115.9c-.8,1.9-1.6,3.7-2.5,5.5s-3.1,4.2-6.1,4.3l-3.3.4-11,.7-.2,2.7,52.8.2L141.9,17.7H106l-2.4,7C99.8,34.7,96.2,44.8,92.2,54.8Z"/>
      <path class="b" d="M505.6,418.3l36.8-89.6c.7-1.7,1.6-3.4,2.2-5.1a3.1,3.1,0,0,0-2.8-4.5l-11.9-1-10.2-.5c-12,29.8-40.5,96.4-40.5,96.4s-11.4,31,16.7,26.5a35.8,35.8,0,0,0,18.4-12.8c5.7-7.3,10-15.5,13.9-23.8.3-.6.5-1.2.8-2.1l-3.3-1.4-1.5,2.7c-3.5,6.3-7,12.8-10.7,19a36.9,36.9,0,0,1-5.1,6.2,6.3,6.3,0,0,1-3,1.6c-1.8.4-2.9-.6-2.9-2.5a7.2,7.2,0,0,1,.4-2C503.9,423.1,504.6,420.7,505.6,418.3Z"/>
      <path class="b" d="M481.8,335.1c0,.1,0,.2,0,.3S481.8,335.3,481.8,335.1Z"/>
      <g>
        <path class="a" d="M226.1,688.2a129.6,129.6,0,0,0,6.7-11.3c7.7-14.7,14.4-29.9,20.9-45.1,5.2-12.3,10.2-24.7,13.9-37.5a64.4,64.4,0,0,0,2.9-14.6c0-.6,0-1.2,0-1.8a5,5,0,0,0-5.1-5.1,9.6,9.6,0,0,0-3.6.5l1.1-.2-1.1.2a7.8,7.8,0,0,0-2.3,1.3,30.4,30.4,0,0,0-4.2,4c-4.1,4.9-7.2,10.4-10.2,16-9.9,18.8-18.2,38.4-25.9,58.1-3.7,9.4-7.2,18.8-9.3,28.7a43.4,43.4,0,0,0-1.1,7.8,6.1,6.1,0,0,0,1.5,4.6,6.6,6.6,0,0,0,4.7,1.8h1.2a8.4,8.4,0,0,0,5.1-2A27.5,27.5,0,0,0,226.1,688.2Z"/>
        <path class="c" d="M190.2,649.9c5.4-31.8,34.9-70.5,71.6-76.8a9.6,9.6,0,0,1,3.6-.5,5,5,0,0,1,5.1,5.1c0,.6,0,1.2,0,1.8a64.4,64.4,0,0,1-2.9,14.6c-3.7,12.9-8.7,25.2-13.9,37.5-6.5,15.3-13.1,30.5-20.9,45.1a129.6,129.6,0,0,1-6.7,11.3,27.5,27.5,0,0,1-4.8,5.2,8.4,8.4,0,0,1-5.1,2c13.3,2.3,32.9-4.6,59.7-50.9,33-57-9.9-75.1-9.9-75.1a86.8,86.8,0,0,0-23.4,2.1c-25.7,5.9-47.3,18.8-64.1,39.3-8.8,10.6-14.1,22.6-14.3,36.6-.1,7,.9,13.9,4,20.2,8.6,17.3,22,27,39.5,30.2C207.1,697.6,184.8,682,190.2,649.9Z"/>
        <path class="b" d="M311.8,604.6c-5-18.4-21.9-34.2-45.9-35.3,0,0,42.8,18.2,9.9,75.1-26.8,46.4-46.5,53.3-59.7,50.9h-1.2a6.6,6.6,0,0,1-4.7-1.8h0a6.1,6.1,0,0,1-1.5-4.6,43.4,43.4,0,0,1,1.1-7.8c2.2-9.9,5.6-19.3,9.3-28.7,7.8-19.8,16-39.3,25.9-58.1,3-5.6,6.1-11.2,10.2-16a30.4,30.4,0,0,1,4.2-4,7.8,7.8,0,0,1,2.3-1.3c-36.7,6.3-66.2,45-71.6,76.8s16.9,47.6,17.5,47.8a74.9,74.9,0,0,0,10,1.2,96.7,96.7,0,0,0,18-2,108,108,0,0,0,51-25.1c9.5-8.4,17.2-18.2,22.2-30S315.3,617.4,311.8,604.6Z"/>
      </g>
      <path class="c" d="M460.7,151.4a58.8,58.8,0,0,0,7.9-17.7,30.2,30.2,0,0,0-9.4-.5,22.4,22.4,0,0,0-15.4,7.5c-7.3,8.3-7.4,21.1-.4,30a36.6,36.6,0,0,0,11.3,9.2C444.9,172.6,454.7,160.5,460.7,151.4Z"/>
      <path class="c" d="M462.7,110.6c1.7,5.9,5.2,10.6,9.6,14.7A80.2,80.2,0,0,0,487.4,136c4,2.3,8.2,4.4,12.2,6.9s7.8,5,11.5,7.8a14.4,14.4,0,0,1,5.9,9.5c1.2,7.6-1.3,13.8-7.5,18.5a26.3,26.3,0,0,1-13.4,5.1h0c44-.8,45.8-26.6,45.7-38.9s-33.1-27.2-38.5-30.6-24.6-12.5-15.2-30.9,35-23.1,36-23.3l-3.9.3A93,93,0,0,0,488,69c-8.4,4-15.7,9.3-21,17.1S460.2,101.8,462.7,110.6Z"/>
      <path class="c" d="M566.5,76.9c3.4-5.9-.7-8.5-3.9-9.5a3,3,0,0,1,.7,1.6l-4,1.2c-3.1,1-6.2,1.8-9.1,3a17.5,17.5,0,0,0-8.7,7.2,16.9,16.9,0,0,0,7.5,24.3,22.9,22.9,0,0,0,6.1,1.9C552.4,96.4,561.3,85.8,566.5,76.9Z"/>
      <path class="b" d="M488.1,83.3c-9.4,18.4,9.8,27.5,15.2,30.9s38.4,18.4,38.5,30.6-1.7,38-45.7,38.9h0l-2.3.2a96.1,96.1,0,0,1-13.9-.5,51,51,0,0,1-18.2-5.2,70,70,0,0,1-7.6-5,2.6,2.6,0,0,1-1.3-2.9l1.9-.3,7.9-.3a35.5,35.5,0,0,0,10.7-2.1,14.9,14.9,0,0,0,8.1-6.7,18.1,18.1,0,0,0-9.7-26.3l-3.1-.9a58.8,58.8,0,0,1-7.9,17.7c-6,9.1-15.7,21.2-6,28.4l3,1.5a68.8,68.8,0,0,0,23.7,6.2,106.4,106.4,0,0,0,25.6-.8,103.5,103.5,0,0,0,31-9.9,55.1,55.1,0,0,0,19.6-15.4c10-12.8,11.1-32.9-4.6-46a116.9,116.9,0,0,0-18-11.9c-6-3.4-12-6.9-17.9-10.6a21.3,21.3,0,0,1-5.4-5.2,12.6,12.6,0,0,1,1-16.3,24,24,0,0,1,4.9-3.9c4.4-2.6,9.2-3.7,14.2-4.1a81,81,0,0,1,19.2.6,82.7,82.7,0,0,1,9.8,2.4,3.4,3.4,0,0,1,1.7.9c3.2,1.1,7.3,3.6,3.9,9.5-5.2,8.9-14.1,19.5-11.4,29.6a22.8,22.8,0,0,0,23.7-11c3.8-6.5,4.3-16.8-1.6-23.6a29.2,29.2,0,0,0-11.2-7.7c-8-3.3-16.5-4.3-25-4.6A145,145,0,0,0,524,60C523.1,60.2,497.3,65.2,488.1,83.3Z"/>
      <path class="b" d="M967.6,414.1h0Z"/>
      <path class="c" d="M950.3,414.9c-8.5-38.5,29.9-73.8,44.9-84.1a68.8,68.8,0,0,1,27.6-11h.5a4.7,4.7,0,0,1,1.8-.2h0c1.4.2,2.1,1.3,2.1,3.3a41.4,41.4,0,0,1-1.2,8.8,138.5,138.5,0,0,1-14.8,35.7,46.6,46.6,0,0,1-6.1,7.8,14.8,14.8,0,0,1-8.4,4.4c22.6,2.6,46.6-16.6,50.2-40.1,4-26.2-29.9-23.1-30.8-22.9l-4.2,1a175.3,175.3,0,0,0-46,19.1,106.4,106.4,0,0,0-27.1,22c-7.2,8.3-12.8,17.5-15.1,28.4-2.8,13.1-.3,24.9,8.7,35a59.5,59.5,0,0,0,17.2,13.3,71.9,71.9,0,0,0,26.9,7.6,78.5,78.5,0,0,0,16.4-.1C974.8,441.3,954.8,435.1,950.3,414.9Z"/>
      <path class="b" d="M1071.8,337.1c-1.5-7.9-6.8-13.1-13.6-16.8s-14.9-5.2-22.9-5.6a78,78,0,0,0-19.2,1.7c.9-.2,34.8-3.3,30.8,22.9-3.6,23.5-27.6,42.7-50.2,40.1l-2,.3a37.9,37.9,0,0,1-10.7-.3c1.6-3.7,3-7.3,4.5-10.7,5.2-11.7,10.8-23.2,18.2-33.7,3.4-4.8,6.9-9.4,11.7-13a14.8,14.8,0,0,1,4.4-2.3,68.8,68.8,0,0,0-27.6,11c-15,10.3-53.4,45.6-44.9,84.1,4.5,20.2,24.5,26.4,42.6,27.7a70.5,70.5,0,0,0,16.6-3.9c18-6.7,32.1-18.4,43.2-34a10.8,10.8,0,0,0,.7-1.4l-2.9-1.9-.8.5-2.2,2.8c-7.1,8.9-15,16.8-24.8,22.6s-18.4,7.9-28.8,6.3c-8.7-1.4-14.7-6.6-16.7-14.9a31.3,31.3,0,0,1-.7-6c-.3-9.8,2.9-18.8,5.8-27.9h2.2a170.6,170.6,0,0,0,32.4-1.9,110.1,110.1,0,0,0,30.1-8.7,56.2,56.2,0,0,0,18.4-13.3A26.4,26.4,0,0,0,1071.8,337.1ZM967,413v-3.2q0,.5,0,1.1T967,413Zm0,0h0l.6,1.1h0v0h0Z"/>
      <path class="c" d="M570.7,396.4,624.9,279l-11.5-.4c-4.9-.1-9.8-.1-14.7-.1a4.4,4.4,0,0,0-4.5,3.1c-4.7,11.3-9.7,22.5-14.4,33.8-.8,2-1.9,2.8-4,2.6s-3,0-4.6,0h-8.5l-.4,3.7h14.4l-.7,2-22.7,51a144,144,0,0,0-8.9,24.8c-1.6,6.7-2.3,13.4-.7,20.1,2.5,10.8,9,18.2,19.7,21.6a45.4,45.4,0,0,0,24.8.5l2.9-.8C548.5,438.4,570.7,396.4,570.7,396.4Zm41.1-113.6h0l-.9,1.3ZM608,282h0Z"/>
      <path class="b" d="M650.2,280.5l-1.5-.5-7.1-.4-16.7-.6L570.7,396.4s-22.2,42,20.1,44.5c8.4-2.7,15.2-7.9,20.8-14.9s10-14.9,13.8-23l2.4-5.3c-1.2-.9-2.2-1.7-3.7-1.2l-1.4,2.9c-3,5.6-6,11.2-9.1,16.7a35.2,35.2,0,0,1-7.3,9.1,13.7,13.7,0,0,1-5.7,3.2c-4.7,1.2-8.1-1.2-8.4-6,0-.3,0-.7,0-1-.2-5.6,1.4-10.7,3.6-15.7l30.6-70.2c2-4.5,4.1-8.9,6.3-13.4h24.1l.5-3.4-22.7-.7ZM569.4,419.4h0c.8,2.1,1.6,4.2,2.6,6.2C571,423.6,570.2,421.4,569.4,419.4Z"/>
      <path class="c" d="M374.5,185.2a53.7,53.7,0,0,0,15.2,2.3l4.9-.2c-21.9.7-12.1-28-12.1-28s28.3-66.1,40.3-96.1H387.6l-9.4.3c-2.1.1-2.1.2-2,2.6l8.6.4c2.9.1,5.9.1,9,1.3-.6,1.6-1.1,3-1.7,4.4-10.3,23.5-20.3,47.2-29.2,71.3a68.9,68.9,0,0,0-4.2,15.9C357.2,170.9,363.3,181.7,374.5,185.2Z"/>
      <path class="b" d="M394.6,187.2c9.8-1,18-5.7,24.7-13.5s11-17,14.5-26.6a1.9,1.9,0,0,0,0-.7c-3.2-1.6-3.3-1.5-4.7,1.5-2.6,5.5-5.2,11-8.2,16.3a40.7,40.7,0,0,1-6.1,7.7,10.9,10.9,0,0,1-4.5,2.6c-2.6.8-4.6-.8-4.1-3.4a31.8,31.8,0,0,1,1.8-6.3l40.3-94.5a15.1,15.1,0,0,0,1-3.1c.2-1.2.6-2.5-.2-3.8-3.4-.1-6.7-.4-10.1-.4H422.8c-12,29.9-40.3,96.1-40.3,96.1S372.8,188,394.6,187.2Z"/>
      <path class="c" d="M368.2,640.5a28.8,28.8,0,0,0-28-1c-12.7,6.2-19.2,16.9-19.7,31.5a48.7,48.7,0,0,0,.5,5.2,27.7,27.7,0,0,0,18.3,20.7C349.6,659.8,365.7,643,368.2,640.5Z"/>
      <path class="b" d="M368.2,640.5c-2.5,2.4-18.6,19.2-28.9,56.3a27.1,27.1,0,0,0,16,.5c12.3-3.4,20.5-11.5,24.7-23.4a27,27,0,0,0-1.1-21.5A28.9,28.9,0,0,0,368.2,640.5Z"/>
      <path class="c" d="M414.2,47.6a24.2,24.2,0,0,0,13.3,4.8c.5-2.1,10.2-40.1,23.7-51.5a25.2,25.2,0,0,0-5.6-.9C433-.5,422.4,4.2,414,13.8a27.3,27.3,0,0,0-6.9,20.4A17.6,17.6,0,0,0,414.2,47.6Z"/>
      <path class="b" d="M427.6,52.4h3.1l7.3-.7c15-2,26-13,27.8-28a20.6,20.6,0,0,0-4.4-16.2A19.6,19.6,0,0,0,451.3.9C437.8,12.3,428.1,50.3,427.6,52.4Z"/>
    </g>
    <g>
      <path class="b" d="M453.8,404.7a80.5,80.5,0,0,1-12,15.7,20.8,20.8,0,0,1-4,3.1c-3.8,2.2-7.4.3-7.8-4.1-.1-.6,0-1.2,0-1.8h-.3c.8-3.1,1.4-6.3,2.4-9.3a315.6,315.6,0,0,1,27.5-62,107.3,107.3,0,0,1,7.6-10.8,26.3,26.3,0,0,1,4.2-4A7.3,7.3,0,0,1,474,330c4.2-1.1,7,.5,7.6,3.7-.5-3.7-3.2-11.6-16.5-8.6-17.1,3.8-65.6,48-60.3,97.2.7,11.2,10,17,20.9,16.1a49.8,49.8,0,0,0,6.8-4.2c7.8-5.7,14.1-12.9,19.8-20.6l1.7-2.1a94.9,94.9,0,0,1,3.2-12.9C456.2,400.6,455,402.7,453.8,404.7Z"/>
      <path class="c" d="M479.3,414s28.5-66.6,40.5-96.4h-2.7l-22.6-.8a3,3,0,0,0-3.2,2.2c-1.4,3.6-2.9,7.2-4.4,10.8a15.3,15.3,0,0,1-.8,1.5c-1.7-2.6-3.1-5.3-5.1-7.6-5-5.7-11.5-8.1-18.9-8.3a48.8,48.8,0,0,0-20,4.1,91.9,91.9,0,0,0-25.9,16.8c-13.1,11.7-23.9,25.1-31,41.3-4.2,9.6-6.8,19.7-6.4,30.3.3,7.5,1.8,14.6,5.8,21.1,5.5,9,13.5,13.8,24.1,13.8a37.1,37.1,0,0,0,17.2-4.2c-10.9.9-20.2-4.9-20.9-16.1-5.3-49.2,43.2-93.3,60.3-97.2,13.3-3,15.9,4.9,16.5,8.6a7.4,7.4,0,0,1,.1,1.5c0,.2,0,.3,0,.3a40.4,40.4,0,0,1-1.8,9.7c-3.7,12.3-8.8,24.1-14.1,35.8-2.7,5.9-5.4,11.9-8.5,17.6a94.9,94.9,0,0,0-3.2,12.9h0a5.2,5.2,0,0,1,.1,2.3,25.7,25.7,0,0,0,.3,10.1c1.8,7.4,7.1,13.3,15,16.3,5.3,2,10.7,2.3,16.2,2a42.4,42.4,0,0,0,10.2-1.7C468,445,479.3,414,479.3,414Z"/>
    </g>
    <g>
      <path class="b" d="M78.7,653.4v-.2A81.9,81.9,0,0,1,66.5,673a68.9,68.9,0,0,1-6.3,6.2,8,8,0,0,1-2.7,1.4c-2.7.9-4.7-.1-5.4-2.8a26.9,26.9,0,0,1-.5-3.8c.4-5.8,2.1-11.3,3.8-16.8a316.4,316.4,0,0,1,22.4-53.5c3-5.6,6.5-10.9,11.1-15.4a18.4,18.4,0,0,1,4.1-2.9c2.6-1.3,4.7-.7,6,1.8l.2.4c-.5-3.1-1.3-5.8-2.7-7.1-4.4-4.5-24.2-4-46.7,25.8s-25.6,51.2-23.2,73.3c1.2,10.6,10.3,14.2,19.5,15.1l3.3-1.7c8.7-4.9,15.7-11.7,21.8-19.5l1.6-1.9S71.8,669.2,78.7,653.4Z"/>
      <path class="c" d="M99.2,669.6s46.6-109,66.6-157.3H118.3l-.7,2.4,2.4.5h3.6l8.9.5c2.1.2,2.5.8,2,2.8a36.7,36.7,0,0,1-1.5,4.3l-6.7,16.7-20.3,50.7c-.3.7-.7,1.4-1.2,2.5-.8-2.8-1.2-5.2-2-7.4-2.7-7.7-7.6-13.1-15.8-15.1-5.1-1.3-10.3-.6-15.3.6-9.4,2.2-17.7,6.6-25.5,12.1A113.6,113.6,0,0,0,8.7,627.5C2.8,639.8-.6,652.6.1,666.3c.3,6.6,1.5,12.9,5,18.7,5.4,8.9,13.3,13.6,23.7,13.6a40.4,40.4,0,0,0,17.3-4c-9.2-.9-18.3-4.5-19.5-15.1-2.4-22.1.6-43.5,23.2-73.3S92.1,576,96.5,580.5c1.3,1.3,2.1,4,2.7,7.1a24.7,24.7,0,0,1,1.8,5.9,17.9,17.9,0,0,1-1.1,10.9c-7,15.9-13.7,31.9-20.6,47.7l-.5,1.2v.2c-6.8,15.7-5.9,18.1-5.9,18.1,0,1.5,0,2.4,0,3.3a18.5,18.5,0,0,0,6.4,14.4,29.9,29.9,0,0,0,10.2,6c5.8,2.1,11.9,2.4,18,2.1a45,45,0,0,0,8.2-1.1C87.9,700.4,99.2,669.6,99.2,669.6Z"/>
      <path class="b" d="M190.5,512.4H165.8c-20.1,48.2-66.6,157.3-66.6,157.3s-11.3,30.8,16.5,26.5a35.7,35.7,0,0,0,21.2-14.3,128.2,128.2,0,0,0,13.5-24.4c.1-.1-.1-.3-.1-.6l-1.2-.7-1.9-.5-1.2,2.2c-2.5,4.8-4.9,9.7-7.6,14.3a87.6,87.6,0,0,1-6.5,9,13.9,13.9,0,0,1-3.1,2.6,3.3,3.3,0,0,1-3.6.4c-1.3-.7-1.2-2.2-1-3.4a18.2,18.2,0,0,1,.7-3c1.1-3.2,2.1-6.4,3.5-9.5l26.8-62.8,34.5-81.3,4.6-10.6C193.3,512.1,191.8,512.4,190.5,512.4Z"/>
    </g>
    <path class="c" d="M741.5,151.9a58.8,58.8,0,0,0,7.9-17.7,30.2,30.2,0,0,0-9.4-.5,22.4,22.4,0,0,0-15.4,7.5c-7.3,8.3-7.4,21.1-.4,30a36.6,36.6,0,0,0,11.3,9.2C725.7,173.1,735.5,161,741.5,151.9Z"/>
    <path class="c" d="M743.5,111c1.7,5.9,5.2,10.6,9.6,14.7a80.2,80.2,0,0,0,15.1,10.7c4,2.3,8.2,4.4,12.2,6.9s7.8,5,11.5,7.8a14.4,14.4,0,0,1,5.9,9.5c1.2,7.6-1.3,13.8-7.5,18.5a26.3,26.3,0,0,1-13.4,5.1h0c44-.8,45.8-26.6,45.7-38.9s-33.1-27.2-38.5-30.6-24.6-12.5-15.2-30.9,35-23.1,36-23.3l-3.9.3a93,93,0,0,0-32.1,8.7c-8.4,4-15.7,9.3-21,17.1S741,102.2,743.5,111Z"/>
    <path class="c" d="M847.3,77.4c3.4-5.9-.7-8.5-3.9-9.5a3,3,0,0,1,.7,1.6l-4,1.2c-3.1,1-6.2,1.8-9.1,3a17.5,17.5,0,0,0-8.7,7.2,16.9,16.9,0,0,0,7.5,24.3,22.9,22.9,0,0,0,6.1,1.9C833.2,96.8,842.1,86.3,847.3,77.4Z"/>
    <path class="b" d="M768.9,83.8c-9.4,18.4,9.8,27.5,15.2,30.9s38.4,18.4,38.5,30.6-1.7,38-45.7,38.9h0l-2.3.2a96.1,96.1,0,0,1-13.9-.5,51,51,0,0,1-18.2-5.2,70,70,0,0,1-7.6-5,2.6,2.6,0,0,1-1.3-2.9l1.9-.3,7.9-.3a35.5,35.5,0,0,0,10.7-2.1,14.9,14.9,0,0,0,8.1-6.7,18.1,18.1,0,0,0-9.7-26.3l-3.1-.9a58.8,58.8,0,0,1-7.9,17.7c-6,9.1-15.7,21.2-6,28.4l3,1.5a68.8,68.8,0,0,0,23.7,6.2,106.4,106.4,0,0,0,25.6-.8,103.5,103.5,0,0,0,31-9.9,55.1,55.1,0,0,0,19.6-15.4c10-12.8,11.1-32.9-4.6-46a116.9,116.9,0,0,0-18-11.9c-6-3.4-12-6.9-17.9-10.6a21.3,21.3,0,0,1-5.4-5.2,12.6,12.6,0,0,1,1-16.3,24,24,0,0,1,4.9-3.9c4.4-2.6,9.2-3.7,14.2-4.1a81,81,0,0,1,19.2.6,82.7,82.7,0,0,1,9.8,2.4,3.4,3.4,0,0,1,1.7.9c3.2,1.1,7.3,3.6,3.9,9.5-5.2,8.9-14.1,19.5-11.4,29.6a22.8,22.8,0,0,0,23.7-11c3.8-6.5,4.3-16.8-1.6-23.6a29.2,29.2,0,0,0-11.2-7.7c-8-3.3-16.5-4.3-25-4.6a145,145,0,0,0-16.9.5C803.9,60.7,778.1,65.7,768.9,83.8Z"/>
    <path class="c" d="M655.3,185.6a53.7,53.7,0,0,0,15.2,2.3l4.9-.2c-21.9.7-12.1-28-12.1-28s28.3-66.1,40.3-96.1H668.4l-9.4.3c-2.1.1-2.1.2-2,2.6l8.6.4c2.9.1,5.9.1,9,1.3-.6,1.6-1.1,3-1.7,4.4-10.3,23.5-20.3,47.2-29.2,71.3a68.9,68.9,0,0,0-4.2,15.9C638,171.4,644.1,182.2,655.3,185.6Z"/>
    <path class="b" d="M675.4,187.7c9.8-1,18-5.7,24.7-13.5s11-17,14.5-26.6a1.9,1.9,0,0,0,0-.7c-3.2-1.6-3.3-1.5-4.7,1.5-2.6,5.5-5.2,11-8.2,16.3a40.7,40.7,0,0,1-6.1,7.7,10.9,10.9,0,0,1-4.5,2.6c-2.6.8-4.6-.8-4.1-3.4a31.8,31.8,0,0,1,1.8-6.3L729,70.9a15.1,15.1,0,0,0,1-3.1c.2-1.2.6-2.5-.2-3.8-3.4-.1-6.7-.4-10.1-.4H703.6c-12,29.9-40.3,96.1-40.3,96.1S653.6,188.4,675.4,187.7Z"/>
    <path class="c" d="M695.1,48a24.2,24.2,0,0,0,13.3,4.8c.5-2.1,10.2-40.1,23.7-51.5a25.2,25.2,0,0,0-5.6-.9c-12.7-.6-23.3,4.2-31.7,13.7a27.3,27.3,0,0,0-6.9,20.4A17.6,17.6,0,0,0,695.1,48Z"/>
    <path class="b" d="M708.4,52.8h3.1l7.3-.7c15-2,26-13,27.8-28A20.6,20.6,0,0,0,742.3,8a19.6,19.6,0,0,0-10.2-6.6C718.6,12.8,708.9,50.7,708.4,52.8Z"/>
    <path class="c" d="M710.1,341.4c-1.2,1.4-1.1,1.8,1.2,2.9l1.8-1.7c2.8-2.6,5.6-5.2,8.5-7.6a15.7,15.7,0,0,1,4.4-2.5c3.3-1.3,5.3-.1,5.9,3.3a11.5,11.5,0,0,1,.3,2.8c-.2,3.6-.2,7.3-.7,10.9-1.3,10.1-2.6,20.3-4.3,30.4-2.8,16.5-6,33-9,49.4-.5,2.9-1.1,5.8-1.7,8.9a15,15,0,0,0,2.7.9c3.5.4,7,.9,10.6,1.1l11.9.5,12.4-64.5s2.1-9.7,2.8-13.8c2.6-14,5.7-44.8-17.8-44.3l-3.9,1.8C725.2,325.1,717.4,333,710.1,341.4Z"/>
    <path class="b" d="M848.3,439.9a9.2,9.2,0,0,0,6.4-2.5c8.5-7.5,16.8-15.2,24.7-23.4,11.9-12.3,23.1-25.3,32.2-39.8,5-7.9,9.4-16.1,11.9-25.1,1.7-6.4,2.7-13,1.3-19.6s-6-12.9-13.7-15.1l-.7-.2c-2.1,1.2-8.7,6.2-9.7,22.4-1.2,19.2,18.3,35.2-3.3,48a58.9,58.9,0,0,1-3.3,5c-8.9,12.4-19.4,23.5-30.5,34a6.8,6.8,0,0,1-1.3.7c0-1.1,0-1.8,0-2.6.1-10.7.4-21.3.4-32,0-14.3-.2-28.6-.4-42.9-.1-9.1-.5-18.1-.8-27.2a16.8,16.8,0,0,0-.3-2c-2.1-.2-4-.5-5.9-.5H832.7L834.3,440Z"/>
    <path class="c" d="M900.8,336.7c1-16.2,7.6-21.2,9.7-22.4a33.9,33.9,0,0,0-6.8-.9c-9.1-.3-16.5,3.1-22,10.4s-7.8,21.1,2.8,30.1l6.5,5.3,6.2,5.3c4.4,3.9,5,8.7,3.2,14.1a34.8,34.8,0,0,1-2.8,6.1C919.1,371.9,899.6,355.9,900.8,336.7Z"/>
    <path class="b" d="M757,362.4c-.8,4.1-2.8,13.8-2.8,13.8l-12.4,64.5a194.3,194.3,0,0,0,19.6-.6,9.2,9.2,0,0,0,7.4-4.4c12.6-18.5,24.3-37.5,35.7-56.7l1.5-2.5V366.2c-10.1,18.7-20.9,36.9-32.7,54.7l-1.7,2.4h-.3l.7-2.7c5.1-19.4,9.8-38.9,12.7-58.7,1-6.9,1.8-13.8,1.2-20.7-.8-9-4.4-16.5-12.1-21.6-5.1-3.4-10.9-4.6-16.9-4.7a44,44,0,0,0-18.1,3.4C762.7,317.5,759.6,348.4,757,362.4Z"/>
    <path class="c" d="M805.9,438.3a27.2,27.2,0,0,0,3.4.7c5.1.4,10.3.8,15.4.9h9.6l-1.6-122.8H832a2.4,2.4,0,0,0-2.3,1.7,16.3,16.3,0,0,1-.7,1.6q-10.6,23.2-22.7,45.7V378C806.8,398.2,806,418.2,805.9,438.3Z"/>
    <path class="a" d="M297.2,80.5l-.7.4Z"/>
    <path class="c" d="M313.7,185.2c-28.1,4.6-16.8-26.5-16.8-26.5s17.6-42.1,28.9-70.6c0,0,10.3-28.5-28.6-7.6l1.8-.6c1.8-.4,2.8.4,2.6,2.3a13.2,13.2,0,0,1-.9,3.4c-1.8,4.4-3.6,8.8-5.5,13.1-5.7,13-11.5,26-17.1,39-3,7.1-5.7,14.3-6.7,22s.2,13.5,5.3,18.9a26.2,26.2,0,0,0,12.4,7.1,46.1,46.1,0,0,0,15.1,1.1A43.9,43.9,0,0,0,313.7,185.2Z"/>
    <path class="c" d="M273.2,2.5,244.7,2c-2,0-2.2.2-2.4,2.7l17.8,1.2c.7,2.3-.2,4-.8,5.7q-3.7,9.2-7.7,18.2l-36.2,83.6q-14.8,34.1-29.7,68.1c-.3.6-.5,1.3-.7,2.2,1.6.2,3,.4,4.3.4l22.6.2L290.7,2.7Z"/>
    <path class="b" d="M325.8,88.1c-11.3,28.4-28.9,70.6-28.9,70.6s-11.4,31.1,16.8,26.5a36.4,36.4,0,0,0,18.6-12.4c6.2-7.7,10.8-16.4,14.9-25.3.1-.2,0-.5,0-1.1l-3.2-1-1.3,2.5c-2.2,4.1-4.1,8.3-6.6,12.3a135.3,135.3,0,0,1-7.9,11.2,10.7,10.7,0,0,1-3.5,2.8c-2.1,1.1-3.6,0-3.3-2.3a19.1,19.1,0,0,1,1.2-4.6c2.6-6.6,5.3-13.2,8.1-19.7,5.8-13.5,11.7-27,17.5-40.5,3.2-7.6,5.9-15.5,6.6-23.9.9-10.8-5.2-19.9-15.7-22.8-5.9-1.7-11.9-1.4-17.8-.2-10.2,2-18.6,7.3-26,14.5a108.7,108.7,0,0,0-12.9,15.6,4.3,4.3,0,0,1-2,2l.8-2,25.3-56.8L318.6,5.9c.9-2.1.4-2.8-1.8-2.9h-1l-25.2-.3L212,184.4l25.4.3a4.1,4.1,0,0,0,4.4-2.9q9.7-23,19.7-45.9c4.6-10.5,9.3-20.9,14.6-31,4.3-8.2,10.4-15,17-21.4a21.1,21.1,0,0,1,3.4-2.6l.7-.4C336.1,59.5,325.8,88.1,325.8,88.1Z"/>
  </g>
</svg>
