<svg xmlns="http://www.w3.org/2000/svg" viewBox="0 0 150.3642 50">
  <defs>
    <style>
      .a {
        fill: #6d6e71;
      }

      .b {
        fill: #414042;
      }
    </style>
  </defs>
  <title>you-bevel</title>
  <g>
    <g>
      <g>
        <path class="a" d="M29.3774,31.0586a2.7007,2.7007,0,0,1,.9412-1.7235,2.63,2.63,0,0,0,.2606-.2661q3.7423-3.8167,7.4848-7.6333Q42.9806,16.42,47.8928,11.4a.7307.7307,0,0,1,.5785-.24c1.3675.01,2.7351.0047,4.1027.0046h.4746l1.38-5.9119L55.654.0006H31.5471L30.3224,5.2528l-1.3817,5.9255h4.6136l-8.5254,9.0392-.1084.1149-5.0691-9.1717h4.5959c.1392-.4.8064-3.2078,1.4253-5.9079C26.4692,2.65,27.0209.1475,27.0111,0H2.605L1.3794,5.2528,0,11.1647H.5187c1.34,0,2.68.0091,4.02-.0071a.5538.5538,0,0,1,.5707.3493q4.87,9.0875,9.7623,18.1633a1.0258,1.0258,0,0,1,.1035.7837c-.4137,1.759-.8057,3.5231-1.2072,5.285-.1591.6982-.3239,1.3951-.4924,2.1193h-5.96c-.44,1.8756-.8814,3.7256-1.3062,5.5793-.4261,1.86-.8864,3.7119-1.287,5.5827.7.0906,26.5562.0594,26.8593-.027q.6466-2.7729,1.2955-5.5556l1.3044-5.5939H27.8639c.0187-.1261.0253-.2081.0434-.2875C28.4,35.3909,28.9127,33.23,29.3774,31.0586Z"/>
        <path class="a" d="M129.2342,37.7757l-1.6947-.6776-1.6117-.6444c-.0685.16-.1215.2853-.1749.41-.521,1.2174-1.0276,2.4414-1.57,3.6492a13.1465,13.1465,0,0,1-.7991,1.4472,2.0112,2.0112,0,0,1-.8117.752,1.262,1.262,0,0,1-1.902-.9536,3.31,3.31,0,0,1,.0058-1.03c.1473-.8551.3218-1.7065.5181-2.5518q2.72-11.7092,5.4507-23.416c.0327-.14.0486-.2844.0748-.4415H112.8688c-.0414.1463-.0752.2517-.1009.359q-1.8809,7.8682-3.7631,15.736c-.3641,1.5151-.7322,3.03-1.1512,4.5308a8.9738,8.9738,0,0,1-1.5544,3.18,3.7877,3.7877,0,0,1-3.697,1.5615,2.0789,2.0789,0,0,1-1.6206-1.024,2.4882,2.4882,0,0,1-.26-.6882,4.591,4.591,0,0,1,.06-2.0118c.2219-1.01.4572-2.0179.6906-3.0257q1.8487-7.982,3.6991-15.9636c.202-.8721.4-1.7449.6066-2.6433H88.2388c-.37,1.6082-.7431,3.21-1.1154,4.8151-.3977,1.7148-.7948,3.4342-1.188,5.1715H90.15c-.0217.1574-.0284.2668-.0525.3722q-1.0419,4.5586-2.0854,9.1169a52.4667,52.4667,0,0,0-1.1622,5.8419,11.8734,11.8734,0,0,0,.2137,4.2791,7.5126,7.5126,0,0,0,2.11,3.7058,7.6536,7.6536,0,0,0,2.8482,1.6749,10.7858,10.7858,0,0,0,5.2378.3473,11.9459,11.9459,0,0,0,5.2694-2.3763,17.9388,17.9388,0,0,0,4.15-4.53c.0775-.1167.16-.23.2859-.4105.0385.1631.0558.2263.0683.29.016.0817.0353.1624.0526.2438a11.2824,11.2824,0,0,0,.6088,2.0155,7.0185,7.0185,0,0,0,2.7929,3.3967,9.225,9.225,0,0,0,1.6437.8,11.1147,11.1147,0,0,0,2.6025.6117,17.2215,17.2215,0,0,0,4.6247-.0784,9.7728,9.7728,0,0,0,4.9715-2.1931,11.348,11.348,0,0,0,2.8311-3.7891,37.42,37.42,0,0,0,2.0721-5.669A.8032.8032,0,0,0,129.2342,37.7757Z"/>
        <path class="a" d="M77.6877,17.4891A15.2414,15.2414,0,0,0,76.32,16.4126a15.6411,15.6411,0,0,0-6.2575-2.5952,23.694,23.694,0,0,0-6.8072-.1806,20.7933,20.7933,0,0,0-6.1873,1.59,20.2655,20.2655,0,0,0-7.98,5.9685,20.7071,20.7071,0,0,0-4.642,14.5222,15.3451,15.3451,0,0,0,1.68,6.1037,14.321,14.321,0,0,0,2.2785,3.2729,14.9675,14.9675,0,0,0,5.7841,3.7837A19.4437,19.4437,0,0,0,60.8159,50c.977-.0677,1.9561-.1129,2.93-.2074a20.1211,20.1211,0,0,0,6.896-1.9342A20.75,20.75,0,0,0,82.5147,30.6509a16.986,16.986,0,0,0-.6916-6.6286A14.321,14.321,0,0,0,77.6877,17.4891ZM65.3239,38.3275a4.9426,4.9426,0,0,1-2.36,1.3047A3.4377,3.4377,0,0,1,58.7461,37.3c-.0141-.0418-.0306-.081-.0437-.1238a9.5289,9.5289,0,0,1-.3444-2.9457,14.7727,14.7727,0,0,1,1.2566-6.1529A8.4763,8.4763,0,0,1,62.04,24.7745a4.65,4.65,0,0,1,2.3958-1.0364,3.3521,3.3521,0,0,1,3.4691,1.6826,4.2028,4.2028,0,0,1,.3438.7826,8.9545,8.9545,0,0,1,.3754,2.6522,15.366,15.366,0,0,1-1.1271,6.1828A9.223,9.223,0,0,1,65.3239,38.3275Z"/>
      </g>
      <path class="b" d="M0,11.1647H.5187c1.34,0,2.68.009,4.02-.0071L9.5158,5.2528H1.3795C.922,7.2132.4633,9.1793,0,11.1647Zm24.9205,9.1677-5.0691-9.1717h4.5959c.1392-.4.8063-3.2078,1.4252-5.9079H9.5158l.1567.2875L22.8906,29.8l2.1383-9.5826ZM52.574,11.1647h.4746q.6918-2.9641,1.38-5.9119H46.3877L22.8906,29.8,19.8475,43.4376l8.0165-5.5939c.0187-.1261.0253-.2081.0433-.2875.4929-2.1652,1.0054-4.3263,1.47-6.4975a2.7006,2.7006,0,0,1,.9412-1.7236,2.6331,2.6331,0,0,0,.2606-.2661q3.7423-3.8167,7.4849-7.6333Q42.9806,16.42,47.8928,11.4a.7306.7306,0,0,1,.5786-.24C49.8388,11.17,51.2064,11.1647,52.574,11.1647Zm-23.6333.0135h4.6136L46.3877,5.2528H30.3224ZM4.7225,49.02c.7.0906,26.5562.0594,26.8593-.027q.6465-2.7729,1.2955-5.5557H6.0095C5.5833,45.2972,5.1231,47.1495,4.7225,49.02ZM87.1234,19.1453c-.3976,1.7148-.7948,3.4341-1.188,5.1715H90.15l7.91-5.0545.0243-.117Zm13.8583,19.5175a2.489,2.489,0,0,1-.26-.6882,4.5911,4.5911,0,0,1,.06-2.0118c.2219-1.01.4572-2.0178.6906-3.0256q1.8487-7.982,3.699-15.9636c.202-.8721.4005-1.7449.6066-2.6433l-7.7181,4.9321L93.987,38.8774s-.7786,2.8128.8811,4.2746C99.8369,43.3333,100.8031,39.75,100.9816,38.6628Zm26.5579-1.5647c-.4886,1.173-1.0651,2.5609-1.3592,3.2827a12.3654,12.3654,0,0,1-2.0681,3.7168,6.6875,6.6875,0,0,1-3.9683,2.1151,6.1645,6.1645,0,0,1-4.3928-.6442,3.3626,3.3626,0,0,1-3.6207,3.5161,11.1167,11.1167,0,0,0,2.6025.6117,17.2214,17.2214,0,0,0,4.6247-.0784,9.7728,9.7728,0,0,0,4.9715-2.1931,11.3469,11.3469,0,0,0,2.8311-3.7891,37.4191,37.4191,0,0,0,2.0721-5.669.8051.8051,0,0,0,.0018-.191Zm-20.52,2.75c-.696.6561-4.5815,4.1123-9.2825,4.1645a4.1044,4.1044,0,0,1-2.8691-.86h-.0053s-.09,4.8122-5.6895,4.4807a7.6528,7.6528,0,0,0,2.8483,1.6749,10.7856,10.7856,0,0,0,5.2377.3473,11.9461,11.9461,0,0,0,5.2694-2.3763,17.94,17.94,0,0,0,4.1495-4.53c.0775-.1168.16-.23.2859-.4105.0385.163.0557.2263.0683.29.016.0817.0353.1624.0526.2438A13.9374,13.9374,0,0,1,107.02,39.8478Zm13.65,1.9107a3.3113,3.3113,0,0,1,.0057-1.03c.1473-.855.3218-1.7065.5182-2.5518q2.72-11.7092,5.4507-23.416c.0327-.14.0486-.2844.0748-.4415h-6.7837q-.6493,2.9371-1.2987,5.8742-.8411,3.8042-1.6823,7.6084-.7842,3.5475-1.5687,7.0951c-.337,1.5241-.658,3.0529-1.0116,4.5732-.4738,2.0378-.5723,4.7527,1.3765,6.0978C120.3795,45.74,120.67,41.7585,120.67,41.7585ZM77.6877,17.4891A15.2359,15.2359,0,0,0,76.32,16.4126c.1528.317,2.5221,5.42-3.7726,4.6694v.0007c.1807.1527.3583.3123.5318.4806a10.4271,10.4271,0,0,1,2.73,4.6884,13.1974,13.1974,0,0,1,.4566,4.7567,15.7893,15.7893,0,0,1-2.6282,7.6983,14.0964,14.0964,0,0,1-5.21,4.65,12.4779,12.4779,0,0,1-4.5526,1.388c-.6432.0679-1.29.1-1.9346.1489a11.9138,11.9138,0,0,1-4.3749-.8055,9.8072,9.8072,0,0,1-4.012-2.9632l-.0171-.0034s1.0715,5.8875-5.1321,3.9723a14.9668,14.9668,0,0,0,5.7841,3.7838A19.4444,19.4444,0,0,0,60.8159,50c.9769-.0677,1.9561-.1129,2.93-.2075a20.1215,20.1215,0,0,0,6.896-1.9341A20.75,20.75,0,0,0,82.5147,30.6509a16.9858,16.9858,0,0,0-.6916-6.6285A14.3207,14.3207,0,0,0,77.6877,17.4891ZM58.7461,37.3c-.0141-.0417-.0305-.081-.0436-.1238a9.5289,9.5289,0,0,1-.3445-2.9458,14.7738,14.7738,0,0,1,1.2567-6.1529A8.4759,8.4759,0,0,1,62.04,24.7745a4.65,4.65,0,0,1,2.3958-1.0364,3.3521,3.3521,0,0,1,3.4692,1.6826c5.785,1.28,4.6458-4.3239,4.6429-4.338a9.8739,9.8739,0,0,0-4.5021-2.1543,14.4078,14.4078,0,0,0-4.494-.13A12.8542,12.8542,0,0,0,59.467,19.94a13.538,13.538,0,0,0-5.2683,4.2831A15.736,15.736,0,0,0,51.1341,34.644a11.76,11.76,0,0,0,1.1093,4.38,10.4119,10.4119,0,0,0,1.3109,2.1007C58.8409,42.2991,58.9361,38.8079,58.7461,37.3Z"/>
      <path class="a" d="M9.6725,5.54l-.1567-.2875L4.5385,11.1577a.5538.5538,0,0,1,.5707.3493q4.87,9.0875,9.7623,18.1633a1.026,1.026,0,0,1,.1035.7837c-.4137,1.759-.8057,3.5231-1.2072,5.285-.1591.6982-.3239,1.395-.4924,2.1193h-5.96c-.44,1.8756-.8814,3.7256-1.3062,5.5793h13.838L22.8906,29.8Zm10.175,37.8973h13.03l1.3044-5.5939H27.864ZM27.011,0H2.605L1.3795,5.2528H25.8726C26.4692,2.65,27.0209.1475,27.011,0ZM55.654.0006H31.5471L30.3224,5.2528H54.4283Q55.04,2.6295,55.654.0006Zm-22.1,11.1776-8.5254,9.0392L22.8906,29.8,46.3877,5.2528ZM93.987,38.8774l4.0721-19.6151-7.91,5.0545c-.0217.1574-.0284.2668-.0525.3722q-1.0419,4.5587-2.0854,9.1169a52.46,52.46,0,0,0-1.1622,5.8419,11.8743,11.8743,0,0,0,.2137,4.2791,7.5129,7.5129,0,0,0,2.11,3.7058c5.6.3315,5.6895-4.4807,5.6895-4.4807h.0053C93.2084,41.69,93.987,38.8774,93.987,38.8774ZM88.2388,14.33c-.37,1.6083-.7431,3.21-1.1154,4.8151h10.96l-.0243.117,7.7181-4.9321Zm26.1358,25.14c.3536-1.52.6746-3.0491,1.0116-4.5732q.7844-3.5476,1.5687-7.0951.8412-3.8042,1.6823-7.6084.6493-2.9371,1.2987-5.8742h-7.067c-.0414.1463-.0753.2516-.1009.3589q-1.8809,7.8682-3.7631,15.736c-.3641,1.5151-.7322,3.03-1.1512,4.5308a8.9733,8.9733,0,0,1-1.5544,3.18,3.7876,3.7876,0,0,1-3.697,1.5615,2.0791,2.0791,0,0,1-1.6207-1.024c-.1785,1.0871-1.1447,4.67-6.1135,4.4892a4.1044,4.1044,0,0,0,2.8691.86c4.7009-.0522,8.5865-3.5084,9.2825-4.1645a13.9374,13.9374,0,0,0,.0653,3.0248,11.2829,11.2829,0,0,0,.6088,2.0155,7.0182,7.0182,0,0,0,2.7929,3.3968,9.2281,9.2281,0,0,0,1.6437.8,3.3626,3.3626,0,0,0,3.6207-3.5161C113.8022,44.2233,113.9008,41.5084,114.3746,39.4706Zm11.5532-3.0168c-.0685.1605-.1215.2853-.1749.41-.521,1.2174-1.0276,2.4413-1.57,3.6492a13.1471,13.1471,0,0,1-.7991,1.4472,2.0106,2.0106,0,0,1-.8117.752,1.262,1.262,0,0,1-1.902-.9536s-.2906,3.9813-4.9189,3.81a6.1645,6.1645,0,0,0,4.3928.6442,6.6875,6.6875,0,0,0,3.9683-2.1151,12.3654,12.3654,0,0,0,2.0681-3.7168c.2941-.7218.8706-2.11,1.3592-3.2827ZM76.32,16.4126a15.64,15.64,0,0,0-6.2576-2.5952,23.6964,23.6964,0,0,0-6.8071-.1806,20.7933,20.7933,0,0,0-6.1873,1.59,20.2659,20.2659,0,0,0-7.98,5.9685,20.7071,20.7071,0,0,0-4.642,14.5222,15.3454,15.3454,0,0,0,1.68,6.1038,14.32,14.32,0,0,0,2.2784,3.2729c6.2036,1.9152,5.1321-3.9723,5.1321-3.9723l.0171.0034a10.4119,10.4119,0,0,1-1.3109-2.1007,11.76,11.76,0,0,1-1.1093-4.38,15.736,15.736,0,0,1,3.0646-10.4213A13.538,13.538,0,0,1,59.467,19.94a12.8542,12.8542,0,0,1,4.0848-1.1408,14.4078,14.4078,0,0,1,4.494.13,9.8739,9.8739,0,0,1,4.5021,2.1543V21.082C78.8424,21.833,76.4731,16.73,76.32,16.4126Zm-8.4154,9.008a4.2026,4.2026,0,0,1,.3438.7827,8.9532,8.9532,0,0,1,.3754,2.6522,15.3654,15.3654,0,0,1-1.127,6.1828,9.2229,9.2229,0,0,1-2.1731,3.2892,4.9427,4.9427,0,0,1-2.36,1.3047A3.4378,3.4378,0,0,1,58.7461,37.3c.19,1.5076.0948,4.9988-5.1919,3.8246a9.8072,9.8072,0,0,0,4.012,2.9632,11.9138,11.9138,0,0,0,4.3749.8055c.645-.0486,1.2914-.081,1.9346-.1489a12.4779,12.4779,0,0,0,4.5526-1.388,14.0964,14.0964,0,0,0,5.21-4.65,15.7893,15.7893,0,0,0,2.6282-7.6983,13.1974,13.1974,0,0,0-.4566-4.7567,10.4271,10.4271,0,0,0-2.73-4.6884c-.1735-.1683-.3511-.3279-.5318-.4806C72.5507,21.0967,73.69,26.7,67.9049,25.4206Z"/>
    </g>
    <g>
      <path class="b" d="M150.172,37.5311a8.5461,8.5461,0,0,0-.7649-2.1717,7.9137,7.9137,0,0,0-4.4744-3.7774,8.1,8.1,0,0,0-6.8676.52c-3.5555,1.9126-5.2712,4.9916-5.49,9.0427.0625.5271.086,1.123.21,1.6971a7.4651,7.4651,0,0,0,2.7248,4.35,8.0758,8.0758,0,0,0,4.7,1.8945,7.6846,7.6846,0,0,0,2.3732-.2735,10.4617,10.4617,0,0,0,6.7682-5.465A8.499,8.499,0,0,0,150.172,37.5311Z"/>
      <path class="a" d="M141.3261,37.1645c2.8786-2.49,7.0826-1.9718,8.0811-1.8051a7.9136,7.9136,0,0,0-4.4744-3.7774,8.1,8.1,0,0,0-6.8676.52c-3.5555,1.9126-5.2712,4.9916-5.49,9.0427.0625.527.086,1.123.21,1.6971a7.4652,7.4652,0,0,0,2.7248,4.35,8.0758,8.0758,0,0,0,4.7,1.8945C137.4579,44.5275,138.141,39.9192,141.3261,37.1645Z"/>
      <path class="b" d="M150.1721,37.5311a8.547,8.547,0,0,0-.7649-2.1717c-.9985-.1667-5.2025-.6845-8.0811,1.8051-3.1851,2.7547-3.8682,7.363-1.1166,11.9211a7.685,7.685,0,0,0,2.3732-.2735,10.4617,10.4617,0,0,0,6.7682-5.465A8.499,8.499,0,0,0,150.1721,37.5311Z"/>
    </g>
  </g>
</svg>
