<svg xmlns="http://www.w3.org/2000/svg" viewBox="0 0 315.97 108.33"><defs><style>.cls-1{fill:#414042;}</style></defs><title>Asset 2YOU</title><g id="Layer_2" data-name="Layer 2"><g id="Layer_1-2" data-name="Layer 1"><path class="cls-1" d="M63.65,67.29a5.85,5.85,0,0,1,2-3.73,5.7,5.7,0,0,0,.56-.58L82.47,46.44Q93.12,35.57,103.76,24.7a1.58,1.58,0,0,1,1.25-.52c3,0,5.93,0,8.89,0h1l3-12.81L120.58,0H68.35L65.69,11.38l-3,12.84h10L54.23,43.8l-.23.25L43,24.18H53c.3-.87,1.75-6.95,3.09-12.8C57.35,5.74,58.54.32,58.52,0H5.64L3,11.38,0,24.19H1.12c2.9,0,5.81,0,8.71,0a1.2,1.2,0,0,1,1.24.76Q21.62,44.62,32.22,64.28a2.22,2.22,0,0,1,.22,1.7c-.9,3.81-1.75,7.63-2.62,11.45-.34,1.51-.7,3-1.07,4.59H15.85c-1,4.06-1.91,8.07-2.83,12.09s-1.92,8-2.79,12.1c1.52.2,57.53.13,58.19-.06l2.81-12L74.06,82H60.37c0-.27.05-.45.09-.62C61.53,76.68,62.64,72,63.65,67.29Z"/><path class="cls-1" d="M168.31,37.89a33,33,0,0,0-3-2.33,33.89,33.89,0,0,0-13.56-5.62A51.34,51.34,0,0,0,137,29.54,45,45,0,0,0,123.64,33a43.91,43.91,0,0,0-17.29,12.93A44.86,44.86,0,0,0,96.29,77.38a33.25,33.25,0,0,0,3.64,13.22,31,31,0,0,0,4.94,7.09,32.43,32.43,0,0,0,12.53,8.2,42.12,42.12,0,0,0,14.36,2.43c2.12-.15,4.24-.24,6.35-.45A43.59,43.59,0,0,0,153,103.69a45,45,0,0,0,25.72-37.28A36.8,36.8,0,0,0,177.27,52,31,31,0,0,0,168.31,37.89ZM141.53,83a10.71,10.71,0,0,1-5.11,2.83c-4.1.86-7.73-.9-9.14-5.05,0-.09-.07-.18-.09-.27a20.64,20.64,0,0,1-.75-6.38,32,32,0,0,1,2.72-13.33,18.36,18.36,0,0,1,5.25-7.16,10.07,10.07,0,0,1,5.19-2.25,7.26,7.26,0,0,1,7.52,3.65,9.1,9.1,0,0,1,.74,1.7,19.4,19.4,0,0,1,.81,5.75,33.29,33.29,0,0,1-2.44,13.4A20,20,0,0,1,141.53,83Z"/><path class="cls-1" d="M280,81.84l-3.67-1.47L272.83,79l-.38.89c-1.13,2.64-2.23,5.29-3.4,7.91a28.49,28.49,0,0,1-1.73,3.14,4.36,4.36,0,0,1-1.76,1.63,2.73,2.73,0,0,1-4.12-2.07,7.17,7.17,0,0,1,0-2.23c.32-1.85.7-3.7,1.12-5.53Q268.46,57.34,274.38,32c.07-.3.11-.62.16-1h-30c-.09.32-.16.55-.22.78q-4.08,17-8.15,34.09c-.79,3.28-1.59,6.57-2.49,9.82a19.44,19.44,0,0,1-3.37,6.89,8.21,8.21,0,0,1-8,3.38,4.5,4.5,0,0,1-3.51-2.22,5.39,5.39,0,0,1-.56-1.49,10,10,0,0,1,.13-4.36c.48-2.19,1-4.37,1.5-6.56l8-34.59c.44-1.89.87-3.78,1.31-5.73h-38c-.8,3.48-1.61,7-2.42,10.43-.86,3.72-1.72,7.44-2.57,11.2h9.13c0,.34-.06.58-.11.81q-2.26,9.88-4.52,19.75a113.66,113.66,0,0,0-2.52,12.66,25.72,25.72,0,0,0,.46,9.27,16.28,16.28,0,0,0,4.57,8,16.58,16.58,0,0,0,6.17,3.63,23.37,23.37,0,0,0,11.35.75,25.88,25.88,0,0,0,11.42-5.15,38.86,38.86,0,0,0,9-9.81c.17-.25.35-.5.62-.89.08.35.12.49.15.63s.08.35.11.53a24.44,24.44,0,0,0,1.32,4.37,15.21,15.21,0,0,0,6.05,7.36,20,20,0,0,0,3.56,1.73,24.08,24.08,0,0,0,5.64,1.33,37.31,37.31,0,0,0,10-.17,21.17,21.17,0,0,0,10.77-4.75,24.59,24.59,0,0,0,6.13-8.21A81.06,81.06,0,0,0,280,82.26,1.74,1.74,0,0,0,280,81.84Z"/><circle class="cls-1" cx="302.44" cy="92.79" r="13.53"/></g></g></svg>