<?xml version="1.0" encoding="utf-8"?>
<!-- Generator: Adobe Illustrator 20.1.0, SVG Export Plug-In . SVG Version: 6.00 Build 0)  -->
<svg version="1.1" id="facebook-square" xmlns="http://www.w3.org/2000/svg" xmlns:xlink="http://www.w3.org/1999/xlink" x="0px"
	 y="0px" width="100px" height="100px" viewBox="0 0 100 100" enable-background="new 0 0 100 100" xml:space="preserve">
<circle opacity="0.96" fill="#828282" enable-background="new    " cx="50" cy="50" r="48"/>
<path fill="#F4F4F4" d="M66.3,25.5H33.7c-4.5,0-8.2,3.7-8.2,8.2v32.7c0,4.5,3.7,8.2,8.2,8.2h32.7c4.5,0,8.2-3.7,8.2-8.2V33.7
	C74.5,29.2,70.8,25.5,66.3,25.5L66.3,25.5z M67.2,50h-8v21.4H50V50h-4.4v-7H50v-4.6c0-6.2,2.7-9.9,9.9-9.9h8.4v7.6h-6.8
	c-2,0-2.3,1.1-2.3,3l0,3.8h9.2L67.2,50L67.2,50L67.2,50z"/>
</svg>
