<?xml version="1.0" encoding="utf-8"?>
<!-- Generator: Adobe Illustrator 20.1.0, SVG Export Plug-In . SVG Version: 6.00 Build 0)  -->
<svg version="1.1" id="mail" xmlns="http://www.w3.org/2000/svg" xmlns:xlink="http://www.w3.org/1999/xlink" x="0px" y="0px"
	 width="100px" height="100px" viewBox="0 0 100 100" enable-background="new 0 0 100 100" xml:space="preserve">
<circle opacity="0.96" fill="#828282" enable-background="new    " cx="50" cy="50" r="48"/>
<path fill="#F4F4F4" d="M50,25.5c-13.5,0-24.5,11-24.5,24.5s11,24.5,24.5,24.5s24.5-11,24.5-24.5S63.5,25.5,50,25.5z M37.8,37.8
	h24.5c0.4,0,0.9,0.1,1.3,0.3L50,53.8L36.5,38C36.9,37.8,37.3,37.7,37.8,37.8L37.8,37.8z M34.7,59.2V40.8c0-0.1,0-0.1,0-0.2l9,10.5
	L34.8,60C34.7,59.7,34.7,59.5,34.7,59.2L34.7,59.2z M62.2,62.2H37.8c-0.3,0-0.5,0-0.8-0.1l8.7-8.7l4.3,5l4.3-5l8.7,8.7
	C62.8,62.2,62.5,62.2,62.2,62.2L62.2,62.2z M65.3,59.2c0,0.3,0,0.5-0.1,0.8l-8.9-8.9l9-10.5c0,0.1,0,0.1,0,0.2L65.3,59.2L65.3,59.2z
	"/>
</svg>
